solid EverythingRightSize
facet normal 1.4099832412739483e-15 2.0679754205350976e-14 -1.0
  outer loop
    vertex 38.991687776575844 9.349029218351333 0.11417322834645871
    vertex 37.41688462696955 9.23091898213086 0.11417322834645405
    vertex 37.41688462696955 9.349029218351333 0.11417322834645649
  endloop
endfacet
facet normal 1.4099832412739483e-15 2.0679754205350976e-14 -1.0
  outer loop
    vertex 37.41688462696955 9.23091898213086 0.11417322834645405
    vertex 38.991687776575844 9.349029218351333 0.11417322834645871
    vertex 38.991687776575844 9.23091898213086 0.11417322834645627
  endloop
endfacet
facet normal -1.6919798895287378e-15 2.4494045459191335e-41 1.0
  outer loop
    vertex 38.991687776575844 9.349029218351333 0.21456692913386055
    vertex 37.41688462696955 9.40808433646157 0.2145669291338579
    vertex 37.41688462696955 9.349029218351333 0.2145669291338579
  endloop
endfacet
facet normal -1.6919798895287378e-15 2.4494045459191335e-41 1.0
  outer loop
    vertex 37.41688462696955 9.40808433646157 0.2145669291338579
    vertex 38.991687776575844 9.349029218351333 0.21456692913386055
    vertex 38.991687776575844 9.40808433646157 0.21456692913386055
  endloop
endfacet
facet normal 1.550981565401343e-15 -7.277332858188126e-16 -1.0
  outer loop
    vertex 37.41688462696955 9.23091898213086 0.0
    vertex 37.81058541437112 8.837218194729289 8.881784197001252e-16
    vertex 37.41688462696955 6.789974100241096 1.7763568394002505e-15
  endloop
endfacet
facet normal 1.550981565401343e-15 -7.277332858188126e-16 -1.0
  outer loop
    vertex 37.81058541437112 8.837218194729289 8.881784197001252e-16
    vertex 37.41688462696955 9.23091898213086 0.0
    vertex 38.991687776575844 9.23091898213086 2.4424906541753444e-15
  endloop
endfacet
facet normal 1.550981565401343e-15 -7.277332858188126e-16 -1.0
  outer loop
    vertex 37.81058541437112 8.837218194729289 8.881784197001252e-16
    vertex 38.991687776575844 9.23091898213086 2.4424906541753444e-15
    vertex 38.597986989174274 8.837218194729289 1.9984014443252818e-15
  endloop
endfacet
facet normal 1.550981565401343e-15 -7.277332858188126e-16 -1.0
  outer loop
    vertex 38.597986989174274 8.837218194729289 1.9984014443252818e-15
    vertex 38.991687776575844 9.23091898213086 2.4424906541753444e-15
    vertex 38.597986989174274 7.183674887642667 3.3306690738754696e-15
  endloop
endfacet
facet normal 1.550981565401343e-15 -7.277332858188126e-16 -1.0
  outer loop
    vertex 37.41688462696955 6.789974100241096 1.7763568394002505e-15
    vertex 37.81058541437112 7.183674887642667 2.220446049250313e-15
    vertex 38.991687776575844 6.789974100241096 4.218847493575595e-15
  endloop
endfacet
facet normal 1.550981565401343e-15 -7.277332858188126e-16 -1.0
  outer loop
    vertex 37.81058541437112 7.183674887642667 2.220446049250313e-15
    vertex 37.41688462696955 6.789974100241096 1.7763568394002505e-15
    vertex 37.81058541437112 8.837218194729289 8.881784197001252e-16
  endloop
endfacet
facet normal 1.550981565401343e-15 -7.277332858188126e-16 -1.0
  outer loop
    vertex 38.991687776575844 6.789974100241096 4.218847493575595e-15
    vertex 37.81058541437112 7.183674887642667 2.220446049250313e-15
    vertex 38.597986989174274 7.183674887642667 3.3306690738754696e-15
  endloop
endfacet
facet normal 1.550981565401343e-15 -7.277332858188126e-16 -1.0
  outer loop
    vertex 38.991687776575844 6.789974100241096 4.218847493575595e-15
    vertex 38.597986989174274 7.183674887642667 3.3306690738754696e-15
    vertex 38.991687776575844 9.23091898213086 2.4424906541753444e-15
  endloop
endfacet
facet normal -1.0 0.0 0.0
  outer loop
    vertex 37.41688462696955 9.23091898213086 0.15748031496062986
    vertex 37.41688462696955 6.789974100241096 0.11417322834645827
    vertex 37.41688462696955 6.789974100241096 0.15748031496063164
  endloop
endfacet
facet normal -1.0 0.0 0.0
  outer loop
    vertex 37.41688462696955 6.789974100241096 0.11417322834645827
    vertex 37.41688462696955 9.23091898213086 0.15748031496062986
    vertex 37.41688462696955 9.23091898213086 0.11417322834645405
  endloop
endfacet
facet normal 0.0 1.0 0.0
  outer loop
    vertex 37.41688462696955 9.40808433646157 0.2145669291338579
    vertex 38.991687776575844 9.40808433646157 0.05708661417323069
    vertex 37.41688462696955 9.40808433646157 0.057086614173228245
  endloop
endfacet
facet normal 0.0 1.0 0.0
  outer loop
    vertex 38.991687776575844 9.40808433646157 0.05708661417323069
    vertex 37.41688462696955 9.40808433646157 0.2145669291338579
    vertex 38.991687776575844 9.40808433646157 0.21456692913386055
  endloop
endfacet
facet normal -1.0 -1.1360301375276433e-30 -1.4099832412739452e-15
  outer loop
    vertex 38.597986989174274 8.837218194729289 0.07874015748031704
    vertex 38.597986989174274 7.183674887642667 3.3306690738754696e-15
    vertex 38.597986989174274 7.183674887642667 0.07874015748031837
  endloop
endfacet
facet normal -1.0 -1.1360301375276433e-30 -1.4099832412739452e-15
  outer loop
    vertex 38.597986989174274 7.183674887642667 3.3306690738754696e-15
    vertex 38.597986989174274 8.837218194729289 0.07874015748031704
    vertex 38.597986989174274 8.837218194729289 1.9984014443252818e-15
  endloop
endfacet
facet normal 0.0 -1.0 0.0
  outer loop
    vertex 38.991687776575844 9.349029218351333 0.21456692913386055
    vertex 37.41688462696955 9.349029218351333 0.2145669291338579
    vertex 38.991687776575844 9.349029218351333 0.1574803149606323
  endloop
endfacet
facet normal 0.0 1.0 0.0
  outer loop
    vertex 37.41688462696955 9.23091898213086 0.11417322834645405
    vertex 38.991687776575844 9.23091898213086 2.4424906541753444e-15
    vertex 37.41688462696955 9.23091898213086 0.0
  endloop
endfacet
facet normal 0.0 1.0 0.0
  outer loop
    vertex 38.991687776575844 9.23091898213086 2.4424906541753444e-15
    vertex 37.41688462696955 9.23091898213086 0.11417322834645405
    vertex 38.991687776575844 9.23091898213086 0.11417322834645627
  endloop
endfacet
facet normal -1.550981565401343e-15 7.277332858188126e-16 1.0
  outer loop
    vertex 38.991687776575844 6.789974100241096 0.15748031496063408
    vertex 37.41688462696955 9.23091898213086 0.15748031496062986
    vertex 37.41688462696955 6.789974100241096 0.15748031496063164
  endloop
endfacet
facet normal -1.550981565401343e-15 7.277332858188126e-16 1.0
  outer loop
    vertex 37.41688462696955 9.23091898213086 0.15748031496062986
    vertex 38.991687776575844 6.789974100241096 0.15748031496063408
    vertex 38.991687776575844 9.23091898213086 0.1574803149606323
  endloop
endfacet
facet normal 0.0 -1.0 0.0
  outer loop
    vertex 38.991687776575844 9.349029218351333 0.11417322834645871
    vertex 37.41688462696955 9.349029218351333 0.11417322834645649
    vertex 38.991687776575844 9.349029218351333 0.05708661417323069
  endloop
endfacet
facet normal 0.0 -1.0 0.0
  outer loop
    vertex 37.41688462696955 9.349029218351333 0.2145669291338579
    vertex 37.41688462696955 9.349029218351333 0.15748031496063009
    vertex 38.991687776575844 9.349029218351333 0.1574803149606323
  endloop
endfacet
facet normal 1.409983241273945e-15 -8.057047092993956e-16 -1.0
  outer loop
    vertex 38.597986989174274 8.837218194729289 0.07874015748031704
    vertex 37.81058541437112 7.183674887642667 0.07874015748031726
    vertex 37.81058541437112 8.837218194729289 0.07874015748031593
  endloop
endfacet
facet normal 1.409983241273945e-15 -8.057047092993956e-16 -1.0
  outer loop
    vertex 37.81058541437112 7.183674887642667 0.07874015748031726
    vertex 38.597986989174274 8.837218194729289 0.07874015748031704
    vertex 38.597986989174274 7.183674887642667 0.07874015748031837
  endloop
endfacet
facet normal -1.0 0.0 0.0
  outer loop
    vertex 37.41688462696955 9.349029218351333 0.15748031496063009
    vertex 37.41688462696955 9.23091898213086 0.11417322834645405
    vertex 37.41688462696955 9.23091898213086 0.15748031496062986
  endloop
endfacet
facet normal -1.0 0.0 0.0
  outer loop
    vertex 37.41688462696955 9.23091898213086 0.11417322834645405
    vertex 37.41688462696955 9.349029218351333 0.15748031496063009
    vertex 37.41688462696955 9.349029218351333 0.11417322834645649
  endloop
endfacet
facet normal 0.0 -1.0 0.0
  outer loop
    vertex 38.991687776575844 6.789974100241096 4.218847493575595e-15
    vertex 37.41688462696955 6.789974100241096 0.11417322834645827
    vertex 37.41688462696955 6.789974100241096 1.7763568394002505e-15
  endloop
endfacet
facet normal 0.0 -1.0 0.0
  outer loop
    vertex 37.41688462696955 6.789974100241096 0.11417322834645827
    vertex 38.991687776575844 6.789974100241096 4.218847493575595e-15
    vertex 38.991687776575844 6.789974100241096 0.11417322834646049
  endloop
endfacet
facet normal -1.0 0.0 0.0
  outer loop
    vertex 37.41688462696955 9.40808433646157 0.2145669291338579
    vertex 37.41688462696955 9.349029218351333 0.15748031496063009
    vertex 37.41688462696955 9.349029218351333 0.2145669291338579
  endloop
endfacet
facet normal -1.0 0.0 0.0
  outer loop
    vertex 37.41688462696955 9.349029218351333 0.15748031496063009
    vertex 37.41688462696955 9.40808433646157 0.2145669291338579
    vertex 37.41688462696955 9.349029218351333 0.11417322834645649
  endloop
endfacet
facet normal -1.0 0.0 0.0
  outer loop
    vertex 37.41688462696955 9.349029218351333 0.11417322834645649
    vertex 37.41688462696955 9.40808433646157 0.2145669291338579
    vertex 37.41688462696955 9.349029218351333 0.057086614173228245
  endloop
endfacet
facet normal -1.0 0.0 0.0
  outer loop
    vertex 37.41688462696955 9.349029218351333 0.057086614173228245
    vertex 37.41688462696955 9.40808433646157 0.2145669291338579
    vertex 37.41688462696955 9.40808433646157 0.057086614173228245
  endloop
endfacet
facet normal 0.0 -1.0 0.0
  outer loop
    vertex 37.41688462696955 6.789974100241096 0.15748031496063164
    vertex 37.41688462696955 6.789974100241096 0.11417322834645827
    vertex 38.991687776575844 6.789974100241096 0.11417322834646049
  endloop
endfacet
facet normal 1.550981565401343e-15 -2.2452875004258723e-41 -1.0
  outer loop
    vertex 38.991687776575844 9.40808433646157 0.05708661417323069
    vertex 37.41688462696955 9.349029218351333 0.057086614173228245
    vertex 37.41688462696955 9.40808433646157 0.057086614173228245
  endloop
endfacet
facet normal 1.550981565401343e-15 -2.2452875004258723e-41 -1.0
  outer loop
    vertex 37.41688462696955 9.349029218351333 0.057086614173228245
    vertex 38.991687776575844 9.40808433646157 0.05708661417323069
    vertex 38.991687776575844 9.349029218351333 0.05708661417323069
  endloop
endfacet
facet normal 1.1360301375276432e-30 1.0 -8.057047092993956e-16
  outer loop
    vertex 37.81058541437112 7.183674887642667 0.07874015748031726
    vertex 38.597986989174274 7.183674887642667 3.3306690738754696e-15
    vertex 37.81058541437112 7.183674887642667 2.220446049250313e-15
  endloop
endfacet
facet normal 1.1360301375276432e-30 1.0 -8.057047092993956e-16
  outer loop
    vertex 38.597986989174274 7.183674887642667 3.3306690738754696e-15
    vertex 37.81058541437112 7.183674887642667 0.07874015748031726
    vertex 38.597986989174274 7.183674887642667 0.07874015748031837
  endloop
endfacet
facet normal 0.0 -1.0 0.0
  outer loop
    vertex 38.991687776575844 6.789974100241096 0.15748031496063408
    vertex 37.41688462696955 6.789974100241096 0.15748031496063164
    vertex 38.991687776575844 6.789974100241096 0.11417322834646049
  endloop
endfacet
facet normal 0.0 -1.0 0.0
  outer loop
    vertex 37.41688462696955 9.349029218351333 0.11417322834645649
    vertex 37.41688462696955 9.349029218351333 0.057086614173228245
    vertex 38.991687776575844 9.349029218351333 0.05708661417323069
  endloop
endfacet
facet normal 1.0 0.0 0.0
  outer loop
    vertex 38.991687776575844 9.23091898213086 0.11417322834645627
    vertex 38.991687776575844 6.789974100241096 0.15748031496063408
    vertex 38.991687776575844 6.789974100241096 0.11417322834646049
  endloop
endfacet
facet normal 1.0 0.0 0.0
  outer loop
    vertex 38.991687776575844 6.789974100241096 0.15748031496063408
    vertex 38.991687776575844 9.23091898213086 0.11417322834645627
    vertex 38.991687776575844 9.23091898213086 0.1574803149606323
  endloop
endfacet
facet normal -1.4804824033376456e-15 -9.399888275159535e-16 1.0
  outer loop
    vertex 38.991687776575844 9.23091898213086 0.1574803149606323
    vertex 37.41688462696955 9.349029218351333 0.15748031496063009
    vertex 37.41688462696955 9.23091898213086 0.15748031496062986
  endloop
endfacet
facet normal -1.4804824033376456e-15 -9.399888275159535e-16 1.0
  outer loop
    vertex 37.41688462696955 9.349029218351333 0.15748031496063009
    vertex 38.991687776575844 9.23091898213086 0.1574803149606323
    vertex 38.991687776575844 9.349029218351333 0.1574803149606323
  endloop
endfacet
facet normal 1.0 0.0 0.0
  outer loop
    vertex 38.991687776575844 9.40808433646157 0.05708661417323069
    vertex 38.991687776575844 9.349029218351333 0.11417322834645871
    vertex 38.991687776575844 9.349029218351333 0.05708661417323069
  endloop
endfacet
facet normal 1.0 0.0 0.0
  outer loop
    vertex 38.991687776575844 9.349029218351333 0.11417322834645871
    vertex 38.991687776575844 9.40808433646157 0.05708661417323069
    vertex 38.991687776575844 9.349029218351333 0.1574803149606323
  endloop
endfacet
facet normal 1.0 0.0 0.0
  outer loop
    vertex 38.991687776575844 9.349029218351333 0.1574803149606323
    vertex 38.991687776575844 9.40808433646157 0.05708661417323069
    vertex 38.991687776575844 9.349029218351333 0.21456692913386055
  endloop
endfacet
facet normal 1.0 0.0 0.0
  outer loop
    vertex 38.991687776575844 9.349029218351333 0.21456692913386055
    vertex 38.991687776575844 9.40808433646157 0.05708661417323069
    vertex 38.991687776575844 9.40808433646157 0.21456692913386055
  endloop
endfacet
facet normal -1.0 0.0 0.0
  outer loop
    vertex 37.41688462696955 9.23091898213086 0.11417322834645405
    vertex 37.41688462696955 6.789974100241096 1.7763568394002505e-15
    vertex 37.41688462696955 6.789974100241096 0.11417322834645827
  endloop
endfacet
facet normal -1.0 0.0 0.0
  outer loop
    vertex 37.41688462696955 6.789974100241096 1.7763568394002505e-15
    vertex 37.41688462696955 9.23091898213086 0.11417322834645405
    vertex 37.41688462696955 9.23091898213086 0.0
  endloop
endfacet
facet normal 1.0 1.1360301375276433e-30 1.4099832412739452e-15
  outer loop
    vertex 37.81058541437112 8.837218194729289 8.881784197001252e-16
    vertex 37.81058541437112 7.183674887642667 0.07874015748031726
    vertex 37.81058541437112 7.183674887642667 2.220446049250313e-15
  endloop
endfacet
facet normal 1.0 1.1360301375276433e-30 1.4099832412739452e-15
  outer loop
    vertex 37.81058541437112 7.183674887642667 0.07874015748031726
    vertex 37.81058541437112 8.837218194729289 8.881784197001252e-16
    vertex 37.81058541437112 8.837218194729289 0.07874015748031593
  endloop
endfacet
facet normal 1.0 0.0 0.0
  outer loop
    vertex 38.991687776575844 9.349029218351333 0.11417322834645871
    vertex 38.991687776575844 9.23091898213086 0.1574803149606323
    vertex 38.991687776575844 9.23091898213086 0.11417322834645627
  endloop
endfacet
facet normal 1.0 0.0 0.0
  outer loop
    vertex 38.991687776575844 9.23091898213086 0.1574803149606323
    vertex 38.991687776575844 9.349029218351333 0.11417322834645871
    vertex 38.991687776575844 9.349029218351333 0.1574803149606323
  endloop
endfacet
facet normal 1.0 0.0 0.0
  outer loop
    vertex 38.991687776575844 9.23091898213086 2.4424906541753444e-15
    vertex 38.991687776575844 6.789974100241096 0.11417322834646049
    vertex 38.991687776575844 6.789974100241096 4.218847493575595e-15
  endloop
endfacet
facet normal 1.0 0.0 0.0
  outer loop
    vertex 38.991687776575844 6.789974100241096 0.11417322834646049
    vertex 38.991687776575844 9.23091898213086 2.4424906541753444e-15
    vertex 38.991687776575844 9.23091898213086 0.11417322834645627
  endloop
endfacet
facet normal -1.1360301375276432e-30 -1.0 8.057047092993956e-16
  outer loop
    vertex 38.597986989174274 8.837218194729289 1.9984014443252818e-15
    vertex 37.81058541437112 8.837218194729289 0.07874015748031593
    vertex 37.81058541437112 8.837218194729289 8.881784197001252e-16
  endloop
endfacet
facet normal -1.1360301375276432e-30 -1.0 8.057047092993956e-16
  outer loop
    vertex 37.81058541437112 8.837218194729289 0.07874015748031593
    vertex 38.597986989174274 8.837218194729289 1.9984014443252818e-15
    vertex 38.597986989174274 8.837218194729289 0.07874015748031704
  endloop
endfacet
endsolid EverythingRightSize
