solid EverythingRightSize
facet normal 0.3580725236537947 0.8700106635639324 0.33891815101768846
  outer loop
    vertex 85.58168325232744 6.45627530371338 0.21616809295369502
    vertex 85.65648965007709 6.509696688866097 0.0
    vertex 85.60184071076708 6.532188693198066 0.0
  endloop
endfacet
facet normal 0.3580725236537947 0.8700106635639324 0.33891815101768846
  outer loop
    vertex 85.65648965007709 6.509696688866097 0.0
    vertex 85.58168325232744 6.45627530371338 0.21616809295369502
    vertex 85.61737120940097 6.441587119546739 0.21616809295369502
  endloop
endfacet
facet normal -0.878383014966982 0.3615183538272817 -0.3126463798983237
  outer loop
    vertex 85.32494735829208 6.371490135821012 0.45275590551181105
    vertex 85.41554893194339 6.387020634454905 0.21616809295369502
    vertex 85.40086074777676 6.351332677381379 0.21616809295369502
  endloop
endfacet
facet normal -0.878383014966982 0.3615183538272817 -0.3126463798983237
  outer loop
    vertex 85.41554893194339 6.387020634454905 0.21616809295369502
    vertex 85.32494735829208 6.371490135821012 0.45275590551181105
    vertex 85.34743936262404 6.426139075131028 0.45275590551181105
  endloop
endfacet
facet normal 4.615038980071692e-46 6.029048664343269e-31 1.0
  outer loop
    vertex 85.48564591566912 6.094596783346015 0.45275590551181105
    vertex 85.47484567542283 6.313392738272035 0.45275590551181105
    vertex 85.43099697635911 6.117088787677972 0.45275590551181105
  endloop
endfacet
facet normal 4.615038980071692e-46 6.029048664343269e-31 1.0
  outer loop
    vertex 85.47484567542283 6.313392738272035 0.45275590551181105
    vertex 85.48564591566912 6.094596783346015 0.45275590551181105
    vertex 85.47719330550133 6.295560717448041 0.45275590551181105
  endloop
endfacet
facet normal 4.615038980071692e-46 6.029048664343269e-31 1.0
  outer loop
    vertex 85.47719330550133 6.295560717448041 0.45275590551181105
    vertex 85.48564591566912 6.094596783346015 0.45275590551181105
    vertex 85.48407620862665 6.278943919374399 0.45275590551181105
  endloop
endfacet
facet normal 4.615038980071692e-46 6.029048664343269e-31 1.0
  outer loop
    vertex 85.48407620862665 6.278943919374399 0.45275590551181105
    vertex 85.48564591566912 6.094596783346015 0.45275590551181105
    vertex 85.49502532632532 6.264674751379267 0.45275590551181105
  endloop
endfacet
facet normal 4.615038980071692e-46 6.029048664343269e-31 1.0
  outer loop
    vertex 85.49502532632532 6.264674751379267 0.45275590551181105
    vertex 85.48564591566912 6.094596783346015 0.45275590551181105
    vertex 85.54425409661161 6.087015361764839 0.45275590551181105
  endloop
endfacet
facet normal 4.615038980071692e-46 6.029048664343269e-31 1.0
  outer loop
    vertex 85.49502532632532 6.264674751379267 0.45275590551181105
    vertex 85.54425409661161 6.087015361764839 0.45275590551181105
    vertex 85.50929449432046 6.2537256336805855 0.45275590551181105
  endloop
endfacet
facet normal 4.615038980071692e-46 6.029048664343269e-31 1.0
  outer loop
    vertex 85.50929449432046 6.2537256336805855 0.45275590551181105
    vertex 85.54425409661161 6.087015361764839 0.45275590551181105
    vertex 85.52591129239411 6.246842730555272 0.45275590551181105
  endloop
endfacet
facet normal 4.615038980071692e-46 6.029048664343269e-31 1.0
  outer loop
    vertex 85.52591129239411 6.246842730555272 0.45275590551181105
    vertex 85.54425409661161 6.087015361764839 0.45275590551181105
    vertex 85.5437433132181 6.2444951004767635 0.45275590551181105
  endloop
endfacet
facet normal 4.615038980071692e-46 6.029048664343269e-31 1.0
  outer loop
    vertex 85.5437433132181 6.2444951004767635 0.45275590551181105
    vertex 85.54425409661161 6.087015361764839 0.45275590551181105
    vertex 85.56157533404209 6.246842730555272 0.45275590551181105
  endloop
endfacet
facet normal 4.615038980071692e-46 6.029048664343269e-31 1.0
  outer loop
    vertex 85.56157533404209 6.246842730555272 0.45275590551181105
    vertex 85.54425409661161 6.087015361764839 0.45275590551181105
    vertex 85.60282746850993 6.094861184286333 0.45275590551181105
  endloop
endfacet
facet normal 4.615038980071692e-46 6.029048664343269e-31 1.0
  outer loop
    vertex 85.56157533404209 6.246842730555272 0.45275590551181105
    vertex 85.60282746850993 6.094861184286333 0.45275590551181105
    vertex 85.57819213211573 6.2537256336805855 0.45275590551181105
  endloop
endfacet
facet normal 4.615038980071692e-46 6.029048664343269e-31 1.0
  outer loop
    vertex 85.57819213211573 6.2537256336805855 0.45275590551181105
    vertex 85.60282746850993 6.094861184286333 0.45275590551181105
    vertex 85.59246130011087 6.264674751379267 0.45275590551181105
  endloop
endfacet
facet normal 4.615038980071692e-46 6.029048664343269e-31 1.0
  outer loop
    vertex 85.59246130011087 6.264674751379267 0.45275590551181105
    vertex 85.60282746850993 6.094861184286333 0.45275590551181105
    vertex 85.60341041780954 6.278943919374399 0.45275590551181105
  endloop
endfacet
facet normal 4.615038980071692e-46 6.029048664343269e-31 1.0
  outer loop
    vertex 85.60341041780954 6.278943919374399 0.45275590551181105
    vertex 85.60282746850993 6.094861184286333 0.45275590551181105
    vertex 85.65737435286631 6.117599571071492 0.45275590551181105
  endloop
endfacet
facet normal 4.615038980071692e-46 6.029048664343269e-31 1.0
  outer loop
    vertex 85.60341041780954 6.278943919374399 0.45275590551181105
    vertex 85.65737435286631 6.117599571071492 0.45275590551181105
    vertex 85.61029332093487 6.295560717448041 0.45275590551181105
  endloop
endfacet
facet normal 4.615038980071692e-46 6.029048664343269e-31 1.0
  outer loop
    vertex 85.61029332093487 6.295560717448041 0.45275590551181105
    vertex 85.65737435286631 6.117599571071492 0.45275590551181105
    vertex 85.61264095101338 6.313392738272035 0.45275590551181105
  endloop
endfacet
facet normal 4.615038980071692e-46 6.029048664343269e-31 1.0
  outer loop
    vertex 85.61264095101338 6.313392738272035 0.45275590551181105
    vertex 85.65737435286631 6.117599571071492 0.45275590551181105
    vertex 85.65648965007709 6.509696688866097 0.45275590551181105
  endloop
endfacet
facet normal 4.615038980071692e-46 6.029048664343269e-31 1.0
  outer loop
    vertex 85.65648965007709 6.509696688866097 0.45275590551181105
    vertex 85.65737435286631 6.117599571071492 0.45275590551181105
    vertex 85.7034551128523 6.473826894708759 0.45275590551181105
  endloop
endfacet
facet normal 4.615038980071692e-46 6.029048664343269e-31 1.0
  outer loop
    vertex 85.7034551128523 6.473826894708759 0.45275590551181105
    vertex 85.65737435286631 6.117599571071492 0.45275590551181105
    vertex 85.70417746965482 6.153680938637843 0.45275590551181105
  endloop
endfacet
facet normal 4.615038980071692e-46 6.029048664343269e-31 1.0
  outer loop
    vertex 85.7034551128523 6.473826894708759 0.45275590551181105
    vertex 85.70417746965482 6.153680938637843 0.45275590551181105
    vertex 85.73953648041865 6.427023777920249 0.45275590551181105
  endloop
endfacet
facet normal 4.615038980071692e-46 6.029048664343269e-31 1.0
  outer loop
    vertex 85.73953648041865 6.427023777920249 0.45275590551181105
    vertex 85.70417746965482 6.153680938637843 0.45275590551181105
    vertex 85.74004726381216 6.200646401413053 0.45275590551181105
  endloop
endfacet
facet normal 4.615038980071692e-46 6.029048664343269e-31 1.0
  outer loop
    vertex 85.73953648041865 6.427023777920249 0.45275590551181105
    vertex 85.74004726381216 6.200646401413053 0.45275590551181105
    vertex 85.7622748672038 6.372476893563873 0.45275590551181105
  endloop
endfacet
facet normal 4.615038980071692e-46 6.029048664343269e-31 1.0
  outer loop
    vertex 85.7622748672038 6.372476893563873 0.45275590551181105
    vertex 85.74004726381216 6.200646401413053 0.45275590551181105
    vertex 85.76253926814412 6.255295340723058 0.45275590551181105
  endloop
endfacet
facet normal 4.615038980071692e-46 6.029048664343269e-31 1.0
  outer loop
    vertex 85.7622748672038 6.372476893563873 0.45275590551181105
    vertex 85.76253926814412 6.255295340723058 0.45275590551181105
    vertex 85.7701206897253 6.3139035216655435 0.45275590551181105
  endloop
endfacet
facet normal 4.615038980071692e-46 6.029048664343269e-31 1.0
  outer loop
    vertex 85.3252117592324 6.254308582980196 0.45275590551181105
    vertex 85.32494735829208 6.371490135821012 0.45275590551181105
    vertex 85.3173659367109 6.312881954878526 0.45275590551181105
  endloop
endfacet
facet normal 4.615038980071692e-46 6.029048664343269e-31 1.0
  outer loop
    vertex 85.32494735829208 6.371490135821012 0.45275590551181105
    vertex 85.3252117592324 6.254308582980196 0.45275590551181105
    vertex 85.34743936262404 6.426139075131028 0.45275590551181105
  endloop
endfacet
facet normal 4.615038980071692e-46 6.029048664343269e-31 1.0
  outer loop
    vertex 85.34743936262404 6.426139075131028 0.45275590551181105
    vertex 85.3252117592324 6.254308582980196 0.45275590551181105
    vertex 85.34795014601755 6.199761698623831 0.45275590551181105
  endloop
endfacet
facet normal 4.615038980071692e-46 6.029048664343269e-31 1.0
  outer loop
    vertex 85.34743936262404 6.426139075131028 0.45275590551181105
    vertex 85.34795014601755 6.199761698623831 0.45275590551181105
    vertex 85.38330915678138 6.473104537906226 0.45275590551181105
  endloop
endfacet
facet normal 4.615038980071692e-46 6.029048664343269e-31 1.0
  outer loop
    vertex 85.38330915678138 6.473104537906226 0.45275590551181105
    vertex 85.34795014601755 6.199761698623831 0.45275590551181105
    vertex 85.3840315135839 6.15295858183531 0.45275590551181105
  endloop
endfacet
facet normal 4.615038980071692e-46 6.029048664343269e-31 1.0
  outer loop
    vertex 85.38330915678138 6.473104537906226 0.45275590551181105
    vertex 85.3840315135839 6.15295858183531 0.45275590551181105
    vertex 85.43011227356989 6.509185905472589 0.45275590551181105
  endloop
endfacet
facet normal 4.615038980071692e-46 6.029048664343269e-31 1.0
  outer loop
    vertex 85.43011227356989 6.509185905472589 0.45275590551181105
    vertex 85.3840315135839 6.15295858183531 0.45275590551181105
    vertex 85.43099697635911 6.117088787677972 0.45275590551181105
  endloop
endfacet
facet normal 4.615038980071692e-46 6.029048664343269e-31 1.0
  outer loop
    vertex 85.43011227356989 6.509185905472589 0.45275590551181105
    vertex 85.43099697635911 6.117088787677972 0.45275590551181105
    vertex 85.48465915792626 6.531924292257736 0.45275590551181105
  endloop
endfacet
facet normal 4.615038980071692e-46 6.029048664343269e-31 1.0
  outer loop
    vertex 85.48465915792626 6.531924292257736 0.45275590551181105
    vertex 85.43099697635911 6.117088787677972 0.45275590551181105
    vertex 85.47484567542283 6.313392738272035 0.45275590551181105
  endloop
endfacet
facet normal 4.615038980071692e-46 6.029048664343269e-31 1.0
  outer loop
    vertex 85.48465915792626 6.531924292257736 0.45275590551181105
    vertex 85.47484567542283 6.313392738272035 0.45275590551181105
    vertex 85.47719330550133 6.331224759096028 0.45275590551181105
  endloop
endfacet
facet normal 4.615038980071692e-46 6.029048664343269e-31 1.0
  outer loop
    vertex 85.48465915792626 6.531924292257736 0.45275590551181105
    vertex 85.47719330550133 6.331224759096028 0.45275590551181105
    vertex 85.48407620862665 6.34784155716967 0.45275590551181105
  endloop
endfacet
facet normal 4.615038980071692e-46 6.029048664343269e-31 1.0
  outer loop
    vertex 85.48465915792626 6.531924292257736 0.45275590551181105
    vertex 85.48407620862665 6.34784155716967 0.45275590551181105
    vertex 85.49502532632532 6.362110725164814 0.45275590551181105
  endloop
endfacet
facet normal 4.615038980071692e-46 6.029048664343269e-31 1.0
  outer loop
    vertex 85.48465915792626 6.531924292257736 0.45275590551181105
    vertex 85.49502532632532 6.362110725164814 0.45275590551181105
    vertex 85.54323252982459 6.53977011477923 0.45275590551181105
  endloop
endfacet
facet normal 4.615038980071692e-46 6.029048664343269e-31 1.0
  outer loop
    vertex 85.54323252982459 6.53977011477923 0.45275590551181105
    vertex 85.49502532632532 6.362110725164814 0.45275590551181105
    vertex 85.50929449432046 6.3730598428634835 0.45275590551181105
  endloop
endfacet
facet normal 4.615038980071692e-46 6.029048664343269e-31 1.0
  outer loop
    vertex 85.54323252982459 6.53977011477923 0.45275590551181105
    vertex 85.50929449432046 6.3730598428634835 0.45275590551181105
    vertex 85.52591129239411 6.379942745988808 0.45275590551181105
  endloop
endfacet
facet normal 4.615038980071692e-46 6.029048664343269e-31 1.0
  outer loop
    vertex 85.54323252982459 6.53977011477923 0.45275590551181105
    vertex 85.52591129239411 6.379942745988808 0.45275590551181105
    vertex 85.5437433132181 6.382290376067317 0.45275590551181105
  endloop
endfacet
facet normal 4.615038980071692e-46 6.029048664343269e-31 1.0
  outer loop
    vertex 85.54323252982459 6.53977011477923 0.45275590551181105
    vertex 85.5437433132181 6.382290376067317 0.45275590551181105
    vertex 85.60184071076708 6.532188693198066 0.45275590551181105
  endloop
endfacet
facet normal 4.615038980071692e-46 6.029048664343269e-31 1.0
  outer loop
    vertex 85.60184071076708 6.532188693198066 0.45275590551181105
    vertex 85.5437433132181 6.382290376067317 0.45275590551181105
    vertex 85.56157533404209 6.379942745988808 0.45275590551181105
  endloop
endfacet
facet normal 4.615038980071692e-46 6.029048664343269e-31 1.0
  outer loop
    vertex 85.60184071076708 6.532188693198066 0.45275590551181105
    vertex 85.56157533404209 6.379942745988808 0.45275590551181105
    vertex 85.57819213211573 6.3730598428634835 0.45275590551181105
  endloop
endfacet
facet normal 4.615038980071692e-46 6.029048664343269e-31 1.0
  outer loop
    vertex 85.60184071076708 6.532188693198066 0.45275590551181105
    vertex 85.57819213211573 6.3730598428634835 0.45275590551181105
    vertex 85.59246130011087 6.362110725164814 0.45275590551181105
  endloop
endfacet
facet normal 4.615038980071692e-46 6.029048664343269e-31 1.0
  outer loop
    vertex 85.60184071076708 6.532188693198066 0.45275590551181105
    vertex 85.59246130011087 6.362110725164814 0.45275590551181105
    vertex 85.60341041780954 6.34784155716967 0.45275590551181105
  endloop
endfacet
facet normal 4.615038980071692e-46 6.029048664343269e-31 1.0
  outer loop
    vertex 85.60184071076708 6.532188693198066 0.45275590551181105
    vertex 85.60341041780954 6.34784155716967 0.45275590551181105
    vertex 85.65648965007709 6.509696688866097 0.45275590551181105
  endloop
endfacet
facet normal 4.615038980071692e-46 6.029048664343269e-31 1.0
  outer loop
    vertex 85.65648965007709 6.509696688866097 0.45275590551181105
    vertex 85.60341041780954 6.34784155716967 0.45275590551181105
    vertex 85.61029332093487 6.331224759096028 0.45275590551181105
  endloop
endfacet
facet normal 4.615038980071692e-46 6.029048664343269e-31 1.0
  outer loop
    vertex 85.65648965007709 6.509696688866097 0.45275590551181105
    vertex 85.61029332093487 6.331224759096028 0.45275590551181105
    vertex 85.61264095101338 6.313392738272035 0.45275590551181105
  endloop
endfacet
facet normal -0.38268343236482144 0.9238795325113979 -0.0
  outer loop
    vertex 85.56157533404209 6.246842730555272 0.45275590551181105
    vertex 85.57819213211573 6.2537256336805855 0.0
    vertex 85.56157533404209 6.246842730555272 0.0
  endloop
endfacet
facet normal -0.38268343236482144 0.9238795325113979 -0.0
  outer loop
    vertex 85.57819213211573 6.2537256336805855 0.0
    vertex 85.56157533404209 6.246842730555272 0.45275590551181105
    vertex 85.57819213211573 6.2537256336805855 0.45275590551181105
  endloop
endfacet
facet normal -0.747689780433773 0.571046827454317 0.33891815101769934
  outer loop
    vertex 85.43897335134268 6.417690972079424 0.21616809295369502
    vertex 85.34743936262404 6.426139075131028 0.0
    vertex 85.41554893194339 6.387020634454905 0.21616809295369502
  endloop
endfacet
facet normal -0.747689780433773 0.571046827454317 0.33891815101769934
  outer loop
    vertex 85.34743936262404 6.426139075131028 0.0
    vertex 85.43897335134268 6.417690972079424 0.21616809295369502
    vertex 85.38330915678138 6.473104537906226 0.0
  endloop
endfacet
facet normal 0.923879532511263 0.3826834323651471 0.0
  outer loop
    vertex 85.47719330550133 6.295560717448041 0.0
    vertex 85.48407620862665 6.278943919374399 0.45275590551181105
    vertex 85.48407620862665 6.278943919374399 0.0
  endloop
endfacet
facet normal 0.923879532511263 0.3826834323651471 0.0
  outer loop
    vertex 85.48407620862665 6.278943919374399 0.45275590551181105
    vertex 85.47719330550133 6.295560717448041 0.0
    vertex 85.47719330550133 6.295560717448041 0.45275590551181105
  endloop
endfacet
facet normal 0.6087614290085149 -0.793353340291393 0.0
  outer loop
    vertex 85.50929449432046 6.3730598428634835 0.45275590551181105
    vertex 85.49502532632532 6.362110725164814 0.0
    vertex 85.50929449432046 6.3730598428634835 0.0
  endloop
endfacet
facet normal 0.6087614290085149 -0.793353340291393 0.0
  outer loop
    vertex 85.49502532632532 6.362110725164814 0.0
    vertex 85.50929449432046 6.3730598428634835 0.45275590551181105
    vertex 85.49502532632532 6.362110725164814 0.45275590551181105
  endloop
endfacet
facet normal -0.5710468274543574 -0.7476897804337477 0.33891815101768696
  outer loop
    vertex 85.47011541703523 6.18519835699733 0.21616809295369502
    vertex 85.3840315135839 6.15295858183531 0.0
    vertex 85.43099697635911 6.117088787677972 0.0
  endloop
endfacet
facet normal -0.5710468274543574 -0.7476897804337477 0.33891815101768696
  outer loop
    vertex 85.3840315135839 6.15295858183531 0.0
    vertex 85.47011541703523 6.18519835699733 0.21616809295369502
    vertex 85.4394450794107 6.208622776396612 0.21616809295369502
  endloop
endfacet
facet normal -0.9914448613738112 -0.13052619222004688 0.0
  outer loop
    vertex 85.61029332093487 6.331224759096028 0.45275590551181105
    vertex 85.61264095101338 6.313392738272035 0.0
    vertex 85.61264095101338 6.313392738272035 0.45275590551181105
  endloop
endfacet
facet normal -0.9914448613738112 -0.13052619222004688 0.0
  outer loop
    vertex 85.61264095101338 6.313392738272035 0.0
    vertex 85.61029332093487 6.331224759096028 0.45275590551181105
    vertex 85.61029332093487 6.331224759096028 0.0
  endloop
endfacet
facet normal 0.923879532511263 -0.3826834323651471 0.0
  outer loop
    vertex 85.48407620862665 6.34784155716967 0.0
    vertex 85.47719330550133 6.331224759096028 0.45275590551181105
    vertex 85.47719330550133 6.331224759096028 0.0
  endloop
endfacet
facet normal 0.923879532511263 -0.3826834323651471 0.0
  outer loop
    vertex 85.47719330550133 6.331224759096028 0.45275590551181105
    vertex 85.48407620862665 6.34784155716967 0.0
    vertex 85.48407620862665 6.34784155716967 0.45275590551181105
  endloop
endfacet
facet normal 0.1305261922200673 -0.9914448613738085 0.0
  outer loop
    vertex 85.5437433132181 6.382290376067317 0.45275590551181105
    vertex 85.52591129239411 6.379942745988808 0.0
    vertex 85.5437433132181 6.382290376067317 0.0
  endloop
endfacet
facet normal 0.1305261922200673 -0.9914448613738085 0.0
  outer loop
    vertex 85.52591129239411 6.379942745988808 0.0
    vertex 85.5437433132181 6.382290376067317 0.45275590551181105
    vertex 85.52591129239411 6.379942745988808 0.45275590551181105
  endloop
endfacet
facet normal 0.5765421678073582 0.7548850044056109 -0.312646379898333
  outer loop
    vertex 85.65648965007709 6.509696688866097 0.45275590551181105
    vertex 85.6480415470255 6.418162700147457 0.21616809295369502
    vertex 85.61737120940097 6.441587119546739 0.21616809295369502
  endloop
endfacet
facet normal 0.5765421678073582 0.7548850044056109 -0.312646379898333
  outer loop
    vertex 85.6480415470255 6.418162700147457 0.21616809295369502
    vertex 85.65648965007709 6.509696688866097 0.45275590551181105
    vertex 85.7034551128523 6.473826894708759 0.45275590551181105
  endloop
endfacet
facet normal 0.38268343236482144 0.9238795325113979 0.0
  outer loop
    vertex 85.50929449432046 6.2537256336805855 0.45275590551181105
    vertex 85.52591129239411 6.246842730555272 0.0
    vertex 85.50929449432046 6.2537256336805855 0.0
  endloop
endfacet
facet normal 0.38268343236482144 0.9238795325113979 0.0
  outer loop
    vertex 85.52591129239411 6.246842730555272 0.0
    vertex 85.50929449432046 6.2537256336805855 0.45275590551181105
    vertex 85.52591129239411 6.246842730555272 0.45275590551181105
  endloop
endfacet
facet normal 0.12185766147120543 0.9420206746548833 -0.31264637989832506
  outer loop
    vertex 85.54323252982459 6.53977011477923 0.45275590551181105
    vertex 85.58168325232744 6.45627530371338 0.21616809295369502
    vertex 85.54340975110232 6.461226277169795 0.21616809295369502
  endloop
endfacet
facet normal 0.12185766147120543 0.9420206746548833 -0.31264637989832506
  outer loop
    vertex 85.58168325232744 6.45627530371338 0.21616809295369502
    vertex 85.54323252982459 6.53977011477923 0.45275590551181105
    vertex 85.60184071076708 6.532188693198066 0.45275590551181105
  endloop
endfacet
facet normal 0.7451052336632816 0.5744150743829224 0.3389181510176881
  outer loop
    vertex 85.73953648041865 6.427023777920249 0.0
    vertex 85.6480415470255 6.418162700147457 0.21616809295369502
    vertex 85.67160413237703 6.387598380986924 0.21616809295369502
  endloop
endfacet
facet normal 0.7451052336632816 0.5744150743829224 0.3389181510176881
  outer loop
    vertex 85.6480415470255 6.418162700147457 0.21616809295369502
    vertex 85.73953648041865 6.427023777920249 0.0
    vertex 85.7034551128523 6.473826894708759 0.0
  endloop
endfacet
facet normal 0.7522755858321979 0.5799428283005938 -0.312646379898331
  outer loop
    vertex 85.6480415470255 6.418162700147457 0.21616809295369502
    vertex 85.73953648041865 6.427023777920249 0.45275590551181105
    vertex 85.67160413237703 6.387598380986924 0.21616809295369502
  endloop
endfacet
facet normal 0.7522755858321979 0.5799428283005938 -0.312646379898331
  outer loop
    vertex 85.73953648041865 6.427023777920249 0.45275590551181105
    vertex 85.6480415470255 6.418162700147457 0.21616809295369502
    vertex 85.7034551128523 6.473826894708759 0.45275590551181105
  endloop
endfacet
facet normal 0.5710468274543462 0.7476897804337548 0.33891815101769024
  outer loop
    vertex 85.61737120940097 6.441587119546739 0.21616809295369502
    vertex 85.7034551128523 6.473826894708759 0.0
    vertex 85.65648965007709 6.509696688866097 0.0
  endloop
endfacet
facet normal 0.5710468274543462 0.7476897804337548 0.33891815101769024
  outer loop
    vertex 85.7034551128523 6.473826894708759 0.0
    vertex 85.61737120940097 6.441587119546739 0.21616809295369502
    vertex 85.6480415470255 6.418162700147457 0.21616809295369502
  endloop
endfacet
facet normal 0.12069616910898479 0.9330417577328313 0.3389181510176818
  outer loop
    vertex 85.54340975110232 6.461226277169795 0.21616809295369502
    vertex 85.60184071076708 6.532188693198066 0.0
    vertex 85.54323252982459 6.53977011477923 0.0
  endloop
endfacet
facet normal 0.12069616910898479 0.9330417577328313 0.3389181510176818
  outer loop
    vertex 85.60184071076708 6.532188693198066 0.0
    vertex 85.54340975110232 6.461226277169795 0.21616809295369502
    vertex 85.58168325232744 6.45627530371338 0.21616809295369502
  endloop
endfacet
facet normal -0.12610742913473913 0.9414611821278147 -0.31264637989831984
  outer loop
    vertex 85.48465915792626 6.531924292257736 0.45275590551181105
    vertex 85.54340975110232 6.461226277169795 0.21616809295369502
    vertex 85.50515898158415 6.456102639256801 0.21616809295369502
  endloop
endfacet
facet normal -0.12610742913473913 0.9414611821278147 -0.31264637989831984
  outer loop
    vertex 85.54340975110232 6.461226277169795 0.21616809295369502
    vertex 85.48465915792626 6.531924292257736 0.45275590551181105
    vertex 85.54323252982459 6.53977011477923 0.45275590551181105
  endloop
endfacet
facet normal -0.1249054299006255 0.9324875980366172 0.3389181510176762
  outer loop
    vertex 85.50515898158415 6.456102639256801 0.21616809295369502
    vertex 85.54323252982459 6.53977011477923 0.0
    vertex 85.48465915792626 6.531924292257736 0.0
  endloop
endfacet
facet normal -0.1249054299006255 0.9324875980366172 0.3389181510176762
  outer loop
    vertex 85.54323252982459 6.53977011477923 0.0
    vertex 85.50515898158415 6.456102639256801 0.21616809295369502
    vertex 85.54340975110232 6.461226277169795 0.21616809295369502
  endloop
endfacet
facet normal -0.9330417577328238 0.12069616910904198 0.3389181510176819
  outer loop
    vertex 85.39590977432034 6.313059176156253 0.21616809295369502
    vertex 85.32494735829208 6.371490135821012 0.0
    vertex 85.3173659367109 6.312881954878526 0.0
  endloop
endfacet
facet normal -0.9330417577328238 0.12069616910904198 0.3389181510176819
  outer loop
    vertex 85.32494735829208 6.371490135821012 0.0
    vertex 85.39590977432034 6.313059176156253 0.21616809295369502
    vertex 85.40086074777676 6.351332677381379 0.21616809295369502
  endloop
endfacet
facet normal 0.5744150743828051 -0.7451052336633747 0.338918151017682
  outer loop
    vertex 85.64851327509352 6.209094504464645 0.21616809295369502
    vertex 85.65737435286631 6.117599571071492 0.0
    vertex 85.70417746965482 6.153680938637843 0.0
  endloop
endfacet
facet normal 0.5744150743828051 -0.7451052336633747 0.338918151017682
  outer loop
    vertex 85.65737435286631 6.117599571071492 0.0
    vertex 85.64851327509352 6.209094504464645 0.21616809295369502
    vertex 85.61794895593299 6.185531919113112 0.21616809295369502
  endloop
endfacet
facet normal 0.13052619222006728 0.9914448613738085 0.0
  outer loop
    vertex 85.52591129239411 6.246842730555272 0.45275590551181105
    vertex 85.5437433132181 6.2444951004767635 0.0
    vertex 85.52591129239411 6.246842730555272 0.0
  endloop
endfacet
facet normal 0.13052619222006728 0.9914448613738085 0.0
  outer loop
    vertex 85.5437433132181 6.2444951004767635 0.0
    vertex 85.52591129239411 6.246842730555272 0.45275590551181105
    vertex 85.5437433132181 6.2444951004767635 0.45275590551181105
  endloop
endfacet
facet normal 0.9914448613738112 -0.13052619222004688 0.0
  outer loop
    vertex 85.47719330550133 6.331224759096028 0.0
    vertex 85.47484567542283 6.313392738272035 0.45275590551181105
    vertex 85.47484567542283 6.313392738272035 0.0
  endloop
endfacet
facet normal 0.9914448613738112 -0.13052619222004688 0.0
  outer loop
    vertex 85.47484567542283 6.313392738272035 0.45275590551181105
    vertex 85.47719330550133 6.331224759096028 0.0
    vertex 85.47719330550133 6.331224759096028 0.45275590551181105
  endloop
endfacet
facet normal -0.8700106635639522 0.3580725236537545 0.33891815101768047
  outer loop
    vertex 85.41554893194339 6.387020634454905 0.21616809295369502
    vertex 85.32494735829208 6.371490135821012 0.0
    vertex 85.40086074777676 6.351332677381379 0.21616809295369502
  endloop
endfacet
facet normal -0.8700106635639522 0.3580725236537545 0.33891815101768047
  outer loop
    vertex 85.32494735829208 6.371490135821012 0.0
    vertex 85.41554893194339 6.387020634454905 0.21616809295369502
    vertex 85.34743936262404 6.426139075131028 0.0
  endloop
endfacet
facet normal 0.3615183538273224 0.8783830149669627 -0.3126463798983314
  outer loop
    vertex 85.60184071076708 6.532188693198066 0.45275590551181105
    vertex 85.61737120940097 6.441587119546739 0.21616809295369502
    vertex 85.58168325232744 6.45627530371338 0.21616809295369502
  endloop
endfacet
facet normal 0.3615183538273224 0.8783830149669627 -0.3126463798983314
  outer loop
    vertex 85.61737120940097 6.441587119546739 0.21616809295369502
    vertex 85.60184071076708 6.532188693198066 0.45275590551181105
    vertex 85.65648965007709 6.509696688866097 0.45275590551181105
  endloop
endfacet
facet normal 0.3654785068476348 -0.8767426658768843 -0.31264637989830835
  outer loop
    vertex 85.65737435286631 6.117599571071492 0.45275590551181105
    vertex 85.58232764485204 6.170682837287268 0.21616809295369502
    vertex 85.61794895593299 6.185531919113112 0.21616809295369502
  endloop
endfacet
facet normal 0.3654785068476348 -0.8767426658768843 -0.31264637989830835
  outer loop
    vertex 85.58232764485204 6.170682837287268 0.21616809295369502
    vertex 85.65737435286631 6.117599571071492 0.45275590551181105
    vertex 85.60282746850993 6.094861184286333 0.45275590551181105
  endloop
endfacet
facet normal -0.38268343236536095 -0.9238795325111745 0.0
  outer loop
    vertex 85.57819213211573 6.3730598428634835 0.45275590551181105
    vertex 85.56157533404209 6.379942745988808 0.0
    vertex 85.57819213211573 6.3730598428634835 0.0
  endloop
endfacet
facet normal -0.38268343236536095 -0.9238795325111745 0.0
  outer loop
    vertex 85.56157533404209 6.379942745988808 0.0
    vertex 85.57819213211573 6.3730598428634835 0.45275590551181105
    vertex 85.56157533404209 6.379942745988808 0.45275590551181105
  endloop
endfacet
facet normal -0.6087614290089891 0.7933533402910293 -0.0
  outer loop
    vertex 85.57819213211573 6.2537256336805855 0.45275590551181105
    vertex 85.59246130011087 6.264674751379267 0.0
    vertex 85.57819213211573 6.2537256336805855 0.0
  endloop
endfacet
facet normal -0.6087614290089891 0.7933533402910293 -0.0
  outer loop
    vertex 85.59246130011087 6.264674751379267 0.0
    vertex 85.57819213211573 6.2537256336805855 0.45275590551181105
    vertex 85.59246130011087 6.264674751379267 0.45275590551181105
  endloop
endfacet
facet normal 0.6087614290089127 0.7933533402910877 0.0
  outer loop
    vertex 85.49502532632532 6.264674751379267 0.45275590551181105
    vertex 85.50929449432046 6.2537256336805855 0.0
    vertex 85.49502532632532 6.264674751379267 0.0
  endloop
endfacet
facet normal 0.6087614290089127 0.7933533402910877 0.0
  outer loop
    vertex 85.50929449432046 6.2537256336805855 0.0
    vertex 85.49502532632532 6.264674751379267 0.45275590551181105
    vertex 85.50929449432046 6.2537256336805855 0.45275590551181105
  endloop
endfacet
facet normal 0.12490542990062974 -0.9324875980366167 0.3389181510176754
  outer loop
    vertex 85.58232764485204 6.170682837287268 0.21616809295369502
    vertex 85.54425409661161 6.087015361764839 0.0
    vertex 85.60282746850993 6.094861184286333 0.0
  endloop
endfacet
facet normal 0.12490542990062974 -0.9324875980366167 0.3389181510176754
  outer loop
    vertex 85.54425409661161 6.087015361764839 0.0
    vertex 85.58232764485204 6.170682837287268 0.21616809295369502
    vertex 85.54407687533389 6.165559199374274 0.21616809295369502
  endloop
endfacet
facet normal 0.7933533402914339 -0.6087614290084616 0.0
  outer loop
    vertex 85.49502532632532 6.362110725164814 0.0
    vertex 85.48407620862665 6.34784155716967 0.45275590551181105
    vertex 85.48407620862665 6.34784155716967 0.0
  endloop
endfacet
facet normal 0.7933533402914339 -0.6087614290084616 0.0
  outer loop
    vertex 85.48407620862665 6.34784155716967 0.45275590551181105
    vertex 85.49502532632532 6.362110725164814 0.0
    vertex 85.49502532632532 6.362110725164814 0.45275590551181105
  endloop
endfacet
facet normal 0.38268343236536095 -0.9238795325111745 0.0
  outer loop
    vertex 85.52591129239411 6.379942745988808 0.45275590551181105
    vertex 85.50929449432046 6.3730598428634835 0.0
    vertex 85.52591129239411 6.379942745988808 0.0
  endloop
endfacet
facet normal 0.38268343236536095 -0.9238795325111745 0.0
  outer loop
    vertex 85.50929449432046 6.3730598428634835 0.0
    vertex 85.52591129239411 6.379942745988808 0.45275590551181105
    vertex 85.50929449432046 6.3730598428634835 0.45275590551181105
  endloop
endfacet
facet normal 0.9914448613738112 0.13052619222004688 0.0
  outer loop
    vertex 85.47484567542283 6.313392738272035 0.0
    vertex 85.47719330550133 6.295560717448041 0.45275590551181105
    vertex 85.47719330550133 6.295560717448041 0.0
  endloop
endfacet
facet normal 0.9914448613738112 0.13052619222004688 0.0
  outer loop
    vertex 85.47719330550133 6.295560717448041 0.45275590551181105
    vertex 85.47484567542283 6.313392738272035 0.0
    vertex 85.47484567542283 6.313392738272035 0.45275590551181105
  endloop
endfacet
facet normal 0.7933533402911996 0.6087614290087671 0.0
  outer loop
    vertex 85.48407620862665 6.278943919374399 0.0
    vertex 85.49502532632532 6.264674751379267 0.45275590551181105
    vertex 85.49502532632532 6.264674751379267 0.0
  endloop
endfacet
facet normal 0.7933533402911996 0.6087614290087671 0.0
  outer loop
    vertex 85.49502532632532 6.264674751379267 0.45275590551181105
    vertex 85.48407620862665 6.278943919374399 0.0
    vertex 85.48407620862665 6.278943919374399 0.45275590551181105
  endloop
endfacet
facet normal 0.8683859495428401 0.3619949302784915 0.3389181510176906
  outer loop
    vertex 85.7622748672038 6.372476893563873 0.0
    vertex 85.67160413237703 6.387598380986924 0.21616809295369502
    vertex 85.68645321420287 6.351977069905979 0.21616809295369502
  endloop
endfacet
facet normal 0.8683859495428401 0.3619949302784915 0.3389181510176906
  outer loop
    vertex 85.67160413237703 6.387598380986924 0.21616809295369502
    vertex 85.7622748672038 6.372476893563873 0.0
    vertex 85.73953648041865 6.427023777920249 0.0
  endloop
endfacet
facet normal 0.9414611821278139 0.12610742913472422 -0.3126463798983281
  outer loop
    vertex 85.68645321420287 6.351977069905979 0.21616809295369502
    vertex 85.7701206897253 6.3139035216655435 0.45275590551181105
    vertex 85.69157685211586 6.313726300387816 0.21616809295369502
  endloop
endfacet
facet normal 0.9414611821278139 0.12610742913472422 -0.3126463798983281
  outer loop
    vertex 85.7701206897253 6.3139035216655435 0.45275590551181105
    vertex 85.68645321420287 6.351977069905979 0.21616809295369502
    vertex 85.7622748672038 6.372476893563873 0.45275590551181105
  endloop
endfacet
facet normal 0.8767426658769182 0.36547850684753236 -0.31264637989833327
  outer loop
    vertex 85.67160413237703 6.387598380986924 0.21616809295369502
    vertex 85.7622748672038 6.372476893563873 0.45275590551181105
    vertex 85.68645321420287 6.351977069905979 0.21616809295369502
  endloop
endfacet
facet normal 0.8767426658769182 0.36547850684753236 -0.31264637989833327
  outer loop
    vertex 85.7622748672038 6.372476893563873 0.45275590551181105
    vertex 85.67160413237703 6.387598380986924 0.21616809295369502
    vertex 85.73953648041865 6.427023777920249 0.45275590551181105
  endloop
endfacet
facet normal -0.3654785068475459 0.8767426658769146 -0.3126463798983274
  outer loop
    vertex 85.43011227356989 6.509185905472589 0.45275590551181105
    vertex 85.50515898158415 6.456102639256801 0.21616809295369502
    vertex 85.46953767050321 6.441253557430957 0.21616809295369502
  endloop
endfacet
facet normal -0.3654785068475459 0.8767426658769146 -0.3126463798983274
  outer loop
    vertex 85.50515898158415 6.456102639256801 0.21616809295369502
    vertex 85.43011227356989 6.509185905472589 0.45275590551181105
    vertex 85.48465915792626 6.531924292257736 0.45275590551181105
  endloop
endfacet
facet normal 0.0 0.0 -1.0
  outer loop
    vertex 85.32494735829208 6.371490135821012 0.0
    vertex 85.3252117592324 6.254308582980196 0.0
    vertex 85.3173659367109 6.312881954878526 0.0
  endloop
endfacet
facet normal 0.0 0.0 -1.0
  outer loop
    vertex 85.3252117592324 6.254308582980196 0.0
    vertex 85.32494735829208 6.371490135821012 0.0
    vertex 85.34743936262404 6.426139075131028 0.0
  endloop
endfacet
facet normal 0.0 0.0 -1.0
  outer loop
    vertex 85.3252117592324 6.254308582980196 0.0
    vertex 85.34743936262404 6.426139075131028 0.0
    vertex 85.34795014601755 6.199761698623831 0.0
  endloop
endfacet
facet normal 0.0 0.0 -1.0
  outer loop
    vertex 85.34795014601755 6.199761698623831 0.0
    vertex 85.34743936262404 6.426139075131028 0.0
    vertex 85.38330915678138 6.473104537906226 0.0
  endloop
endfacet
facet normal 0.0 0.0 -1.0
  outer loop
    vertex 85.34795014601755 6.199761698623831 0.0
    vertex 85.38330915678138 6.473104537906226 0.0
    vertex 85.3840315135839 6.15295858183531 0.0
  endloop
endfacet
facet normal 0.0 0.0 -1.0
  outer loop
    vertex 85.3840315135839 6.15295858183531 0.0
    vertex 85.38330915678138 6.473104537906226 0.0
    vertex 85.43011227356989 6.509185905472589 0.0
  endloop
endfacet
facet normal 0.0 0.0 -1.0
  outer loop
    vertex 85.3840315135839 6.15295858183531 0.0
    vertex 85.43011227356989 6.509185905472589 0.0
    vertex 85.43099697635911 6.117088787677972 0.0
  endloop
endfacet
facet normal 0.0 0.0 -1.0
  outer loop
    vertex 85.43099697635911 6.117088787677972 0.0
    vertex 85.43011227356989 6.509185905472589 0.0
    vertex 85.48465915792626 6.531924292257736 0.0
  endloop
endfacet
facet normal 0.0 0.0 -1.0
  outer loop
    vertex 85.43099697635911 6.117088787677972 0.0
    vertex 85.48465915792626 6.531924292257736 0.0
    vertex 85.47484567542283 6.313392738272035 0.0
  endloop
endfacet
facet normal 0.0 0.0 -1.0
  outer loop
    vertex 85.47484567542283 6.313392738272035 0.0
    vertex 85.48465915792626 6.531924292257736 0.0
    vertex 85.47719330550133 6.331224759096028 0.0
  endloop
endfacet
facet normal 0.0 0.0 -1.0
  outer loop
    vertex 85.47719330550133 6.331224759096028 0.0
    vertex 85.48465915792626 6.531924292257736 0.0
    vertex 85.48407620862665 6.34784155716967 0.0
  endloop
endfacet
facet normal 0.0 0.0 -1.0
  outer loop
    vertex 85.48407620862665 6.34784155716967 0.0
    vertex 85.48465915792626 6.531924292257736 0.0
    vertex 85.49502532632532 6.362110725164814 0.0
  endloop
endfacet
facet normal 0.0 0.0 -1.0
  outer loop
    vertex 85.49502532632532 6.362110725164814 0.0
    vertex 85.48465915792626 6.531924292257736 0.0
    vertex 85.54323252982459 6.53977011477923 0.0
  endloop
endfacet
facet normal 0.0 0.0 -1.0
  outer loop
    vertex 85.49502532632532 6.362110725164814 0.0
    vertex 85.54323252982459 6.53977011477923 0.0
    vertex 85.50929449432046 6.3730598428634835 0.0
  endloop
endfacet
facet normal 0.0 0.0 -1.0
  outer loop
    vertex 85.50929449432046 6.3730598428634835 0.0
    vertex 85.54323252982459 6.53977011477923 0.0
    vertex 85.52591129239411 6.379942745988808 0.0
  endloop
endfacet
facet normal 0.0 0.0 -1.0
  outer loop
    vertex 85.52591129239411 6.379942745988808 0.0
    vertex 85.54323252982459 6.53977011477923 0.0
    vertex 85.5437433132181 6.382290376067317 0.0
  endloop
endfacet
facet normal 0.0 0.0 -1.0
  outer loop
    vertex 85.5437433132181 6.382290376067317 0.0
    vertex 85.54323252982459 6.53977011477923 0.0
    vertex 85.60184071076708 6.532188693198066 0.0
  endloop
endfacet
facet normal 0.0 0.0 -1.0
  outer loop
    vertex 85.5437433132181 6.382290376067317 0.0
    vertex 85.60184071076708 6.532188693198066 0.0
    vertex 85.56157533404209 6.379942745988808 0.0
  endloop
endfacet
facet normal 0.0 0.0 -1.0
  outer loop
    vertex 85.56157533404209 6.379942745988808 0.0
    vertex 85.60184071076708 6.532188693198066 0.0
    vertex 85.57819213211573 6.3730598428634835 0.0
  endloop
endfacet
facet normal 0.0 0.0 -1.0
  outer loop
    vertex 85.57819213211573 6.3730598428634835 0.0
    vertex 85.60184071076708 6.532188693198066 0.0
    vertex 85.59246130011087 6.362110725164814 0.0
  endloop
endfacet
facet normal 0.0 0.0 -1.0
  outer loop
    vertex 85.59246130011087 6.362110725164814 0.0
    vertex 85.60184071076708 6.532188693198066 0.0
    vertex 85.60341041780954 6.34784155716967 0.0
  endloop
endfacet
facet normal 0.0 0.0 -1.0
  outer loop
    vertex 85.60341041780954 6.34784155716967 0.0
    vertex 85.60184071076708 6.532188693198066 0.0
    vertex 85.65648965007709 6.509696688866097 0.0
  endloop
endfacet
facet normal 0.0 0.0 -1.0
  outer loop
    vertex 85.60341041780954 6.34784155716967 0.0
    vertex 85.65648965007709 6.509696688866097 0.0
    vertex 85.61029332093487 6.331224759096028 0.0
  endloop
endfacet
facet normal 0.0 0.0 -1.0
  outer loop
    vertex 85.61029332093487 6.331224759096028 0.0
    vertex 85.65648965007709 6.509696688866097 0.0
    vertex 85.61264095101338 6.313392738272035 0.0
  endloop
endfacet
facet normal 0.0 0.0 -1.0
  outer loop
    vertex 85.47484567542283 6.313392738272035 0.0
    vertex 85.48564591566912 6.094596783346015 0.0
    vertex 85.43099697635911 6.117088787677972 0.0
  endloop
endfacet
facet normal 0.0 0.0 -1.0
  outer loop
    vertex 85.48564591566912 6.094596783346015 0.0
    vertex 85.47484567542283 6.313392738272035 0.0
    vertex 85.47719330550133 6.295560717448041 0.0
  endloop
endfacet
facet normal 0.0 0.0 -1.0
  outer loop
    vertex 85.48564591566912 6.094596783346015 0.0
    vertex 85.47719330550133 6.295560717448041 0.0
    vertex 85.48407620862665 6.278943919374399 0.0
  endloop
endfacet
facet normal 0.0 0.0 -1.0
  outer loop
    vertex 85.48564591566912 6.094596783346015 0.0
    vertex 85.48407620862665 6.278943919374399 0.0
    vertex 85.49502532632532 6.264674751379267 0.0
  endloop
endfacet
facet normal 0.0 0.0 -1.0
  outer loop
    vertex 85.48564591566912 6.094596783346015 0.0
    vertex 85.49502532632532 6.264674751379267 0.0
    vertex 85.54425409661161 6.087015361764839 0.0
  endloop
endfacet
facet normal 0.0 0.0 -1.0
  outer loop
    vertex 85.54425409661161 6.087015361764839 0.0
    vertex 85.49502532632532 6.264674751379267 0.0
    vertex 85.50929449432046 6.2537256336805855 0.0
  endloop
endfacet
facet normal 0.0 0.0 -1.0
  outer loop
    vertex 85.54425409661161 6.087015361764839 0.0
    vertex 85.50929449432046 6.2537256336805855 0.0
    vertex 85.52591129239411 6.246842730555272 0.0
  endloop
endfacet
facet normal 0.0 0.0 -1.0
  outer loop
    vertex 85.54425409661161 6.087015361764839 0.0
    vertex 85.52591129239411 6.246842730555272 0.0
    vertex 85.5437433132181 6.2444951004767635 0.0
  endloop
endfacet
facet normal 0.0 0.0 -1.0
  outer loop
    vertex 85.54425409661161 6.087015361764839 0.0
    vertex 85.5437433132181 6.2444951004767635 0.0
    vertex 85.56157533404209 6.246842730555272 0.0
  endloop
endfacet
facet normal 0.0 0.0 -1.0
  outer loop
    vertex 85.54425409661161 6.087015361764839 0.0
    vertex 85.56157533404209 6.246842730555272 0.0
    vertex 85.60282746850993 6.094861184286333 0.0
  endloop
endfacet
facet normal 0.0 0.0 -1.0
  outer loop
    vertex 85.60282746850993 6.094861184286333 0.0
    vertex 85.56157533404209 6.246842730555272 0.0
    vertex 85.57819213211573 6.2537256336805855 0.0
  endloop
endfacet
facet normal 0.0 0.0 -1.0
  outer loop
    vertex 85.60282746850993 6.094861184286333 0.0
    vertex 85.57819213211573 6.2537256336805855 0.0
    vertex 85.59246130011087 6.264674751379267 0.0
  endloop
endfacet
facet normal 0.0 0.0 -1.0
  outer loop
    vertex 85.60282746850993 6.094861184286333 0.0
    vertex 85.59246130011087 6.264674751379267 0.0
    vertex 85.60341041780954 6.278943919374399 0.0
  endloop
endfacet
facet normal 0.0 0.0 -1.0
  outer loop
    vertex 85.60282746850993 6.094861184286333 0.0
    vertex 85.60341041780954 6.278943919374399 0.0
    vertex 85.65737435286631 6.117599571071492 0.0
  endloop
endfacet
facet normal 0.0 0.0 -1.0
  outer loop
    vertex 85.65737435286631 6.117599571071492 0.0
    vertex 85.60341041780954 6.278943919374399 0.0
    vertex 85.61029332093487 6.295560717448041 0.0
  endloop
endfacet
facet normal 0.0 0.0 -1.0
  outer loop
    vertex 85.65737435286631 6.117599571071492 0.0
    vertex 85.61029332093487 6.295560717448041 0.0
    vertex 85.61264095101338 6.313392738272035 0.0
  endloop
endfacet
facet normal 0.0 0.0 -1.0
  outer loop
    vertex 85.65737435286631 6.117599571071492 0.0
    vertex 85.61264095101338 6.313392738272035 0.0
    vertex 85.65648965007709 6.509696688866097 0.0
  endloop
endfacet
facet normal 0.0 0.0 -1.0
  outer loop
    vertex 85.65737435286631 6.117599571071492 0.0
    vertex 85.65648965007709 6.509696688866097 0.0
    vertex 85.7034551128523 6.473826894708759 0.0
  endloop
endfacet
facet normal 0.0 0.0 -1.0
  outer loop
    vertex 85.65737435286631 6.117599571071492 0.0
    vertex 85.7034551128523 6.473826894708759 0.0
    vertex 85.70417746965482 6.153680938637843 0.0
  endloop
endfacet
facet normal 0.0 0.0 -1.0
  outer loop
    vertex 85.70417746965482 6.153680938637843 0.0
    vertex 85.7034551128523 6.473826894708759 0.0
    vertex 85.73953648041865 6.427023777920249 0.0
  endloop
endfacet
facet normal 0.0 0.0 -1.0
  outer loop
    vertex 85.70417746965482 6.153680938637843 0.0
    vertex 85.73953648041865 6.427023777920249 0.0
    vertex 85.74004726381216 6.200646401413053 0.0
  endloop
endfacet
facet normal 0.0 0.0 -1.0
  outer loop
    vertex 85.74004726381216 6.200646401413053 0.0
    vertex 85.73953648041865 6.427023777920249 0.0
    vertex 85.7622748672038 6.372476893563873 0.0
  endloop
endfacet
facet normal 0.0 0.0 -1.0
  outer loop
    vertex 85.74004726381216 6.200646401413053 0.0
    vertex 85.7622748672038 6.372476893563873 0.0
    vertex 85.76253926814412 6.255295340723058 0.0
  endloop
endfacet
facet normal 0.0 0.0 -1.0
  outer loop
    vertex 85.76253926814412 6.255295340723058 0.0
    vertex 85.7622748672038 6.372476893563873 0.0
    vertex 85.7701206897253 6.3139035216655435 0.0
  endloop
endfacet
facet normal 0.9324875980366159 0.12490542990061074 0.3389181510176849
  outer loop
    vertex 85.7701206897253 6.3139035216655435 0.0
    vertex 85.68645321420287 6.351977069905979 0.21616809295369502
    vertex 85.69157685211586 6.313726300387816 0.21616809295369502
  endloop
endfacet
facet normal 0.9324875980366159 0.12490542990061074 0.3389181510176849
  outer loop
    vertex 85.68645321420287 6.351977069905979 0.21616809295369502
    vertex 85.7701206897253 6.3139035216655435 0.0
    vertex 85.7622748672038 6.372476893563873 0.0
  endloop
endfacet
facet normal 0.3619949302785937 -0.868385949542808 0.33891815101766404
  outer loop
    vertex 85.61794895593299 6.185531919113112 0.21616809295369502
    vertex 85.60282746850993 6.094861184286333 0.0
    vertex 85.65737435286631 6.117599571071492 0.0
  endloop
endfacet
facet normal 0.3619949302785937 -0.868385949542808 0.33891815101766404
  outer loop
    vertex 85.60282746850993 6.094861184286333 0.0
    vertex 85.61794895593299 6.185531919113112 0.21616809295369502
    vertex 85.58232764485204 6.170682837287268 0.21616809295369502
  endloop
endfacet
facet normal -0.9914448613738112 0.13052619222004688 0.0
  outer loop
    vertex 85.61264095101338 6.313392738272035 0.45275590551181105
    vertex 85.61029332093487 6.295560717448041 0.0
    vertex 85.61029332093487 6.295560717448041 0.45275590551181105
  endloop
endfacet
facet normal -0.9914448613738112 0.13052619222004688 0.0
  outer loop
    vertex 85.61029332093487 6.295560717448041 0.0
    vertex 85.61264095101338 6.313392738272035 0.45275590551181105
    vertex 85.61264095101338 6.313392738272035 0.0
  endloop
endfacet
facet normal -0.5765421678073683 -0.7548850044056044 -0.3126463798983299
  outer loop
    vertex 85.43099697635911 6.117088787677972 0.45275590551181105
    vertex 85.4394450794107 6.208622776396612 0.21616809295369502
    vertex 85.47011541703523 6.18519835699733 0.21616809295369502
  endloop
endfacet
facet normal -0.5765421678073683 -0.7548850044056044 -0.3126463798983299
  outer loop
    vertex 85.4394450794107 6.208622776396612 0.21616809295369502
    vertex 85.43099697635911 6.117088787677972 0.45275590551181105
    vertex 85.3840315135839 6.15295858183531 0.45275590551181105
  endloop
endfacet
facet normal 0.8783830149669744 -0.36151835382729636 -0.31264637989832855
  outer loop
    vertex 85.67193769449281 6.239764842089165 0.21616809295369502
    vertex 85.76253926814412 6.255295340723058 0.45275590551181105
    vertex 85.74004726381216 6.200646401413053 0.45275590551181105
  endloop
endfacet
facet normal 0.8783830149669744 -0.36151835382729636 -0.31264637989832855
  outer loop
    vertex 85.76253926814412 6.255295340723058 0.45275590551181105
    vertex 85.67193769449281 6.239764842089165 0.21616809295369502
    vertex 85.68662587865944 6.275452799162702 0.21616809295369502
  endloop
endfacet
facet normal 0.1261074291347434 -0.9414611821278144 -0.3126463798983191
  outer loop
    vertex 85.60282746850993 6.094861184286333 0.45275590551181105
    vertex 85.54407687533389 6.165559199374274 0.21616809295369502
    vertex 85.58232764485204 6.170682837287268 0.21616809295369502
  endloop
endfacet
facet normal 0.1261074291347434 -0.9414611821278144 -0.3126463798983191
  outer loop
    vertex 85.54407687533389 6.165559199374274 0.21616809295369502
    vertex 85.60282746850993 6.094861184286333 0.45275590551181105
    vertex 85.54425409661161 6.087015361764839 0.45275590551181105
  endloop
endfacet
facet normal -0.745105233663347 -0.5744150743828376 0.3389181510176882
  outer loop
    vertex 85.4394450794107 6.208622776396612 0.21616809295369502
    vertex 85.34795014601755 6.199761698623831 0.0
    vertex 85.3840315135839 6.15295858183531 0.0
  endloop
endfacet
facet normal -0.745105233663347 -0.5744150743828376 0.3389181510176882
  outer loop
    vertex 85.34795014601755 6.199761698623831 0.0
    vertex 85.4394450794107 6.208622776396612 0.21616809295369502
    vertex 85.41588249405918 6.239187095557156 0.21616809295369502
  endloop
endfacet
facet normal 0.9420206746548743 -0.12185766147126811 -0.3126463798983276
  outer loop
    vertex 85.68662587865944 6.275452799162702 0.21616809295369502
    vertex 85.7701206897253 6.3139035216655435 0.45275590551181105
    vertex 85.76253926814412 6.255295340723058 0.45275590551181105
  endloop
endfacet
facet normal 0.9420206746548743 -0.12185766147126811 -0.3126463798983276
  outer loop
    vertex 85.7701206897253 6.3139035216655435 0.45275590551181105
    vertex 85.68662587865944 6.275452799162702 0.21616809295369502
    vertex 85.69157685211586 6.313726300387816 0.21616809295369502
  endloop
endfacet
facet normal -0.3615183538271529 -0.8783830149670332 -0.31264637989832944
  outer loop
    vertex 85.48564591566912 6.094596783346015 0.45275590551181105
    vertex 85.47011541703523 6.18519835699733 0.21616809295369502
    vertex 85.50580337410877 6.1705101728307 0.21616809295369502
  endloop
endfacet
facet normal -0.3615183538271529 -0.8783830149670332 -0.31264637989832944
  outer loop
    vertex 85.47011541703523 6.18519835699733 0.21616809295369502
    vertex 85.48564591566912 6.094596783346015 0.45275590551181105
    vertex 85.43099697635911 6.117088787677972 0.45275590551181105
  endloop
endfacet
facet normal -0.923879532511263 -0.3826834323651471 0.0
  outer loop
    vertex 85.60341041780954 6.34784155716967 0.45275590551181105
    vertex 85.61029332093487 6.331224759096028 0.0
    vertex 85.61029332093487 6.331224759096028 0.45275590551181105
  endloop
endfacet
facet normal -0.923879532511263 -0.3826834323651471 0.0
  outer loop
    vertex 85.61029332093487 6.331224759096028 0.0
    vertex 85.60341041780954 6.34784155716967 0.45275590551181105
    vertex 85.60341041780954 6.34784155716967 0.0
  endloop
endfacet
facet normal -0.6087614290085912 -0.7933533402913345 0.0
  outer loop
    vertex 85.59246130011087 6.362110725164814 0.45275590551181105
    vertex 85.57819213211573 6.3730598428634835 0.0
    vertex 85.59246130011087 6.362110725164814 0.0
  endloop
endfacet
facet normal -0.6087614290085912 -0.7933533402913345 0.0
  outer loop
    vertex 85.57819213211573 6.3730598428634835 0.0
    vertex 85.59246130011087 6.362110725164814 0.45275590551181105
    vertex 85.57819213211573 6.3730598428634835 0.45275590551181105
  endloop
endfacet
facet normal 0.9330417577328222 -0.120696169109047 0.33891815101768463
  outer loop
    vertex 85.7701206897253 6.3139035216655435 0.0
    vertex 85.68662587865944 6.275452799162702 0.21616809295369502
    vertex 85.76253926814412 6.255295340723058 0.0
  endloop
endfacet
facet normal 0.9330417577328222 -0.120696169109047 0.33891815101768463
  outer loop
    vertex 85.68662587865944 6.275452799162702 0.21616809295369502
    vertex 85.7701206897253 6.3139035216655435 0.0
    vertex 85.69157685211586 6.313726300387816 0.21616809295369502
  endloop
endfacet
facet normal -0.8767426658768962 -0.3654785068475852 -0.31264637989833327
  outer loop
    vertex 85.3252117592324 6.254308582980196 0.45275590551181105
    vertex 85.41588249405918 6.239187095557156 0.21616809295369502
    vertex 85.34795014601755 6.199761698623831 0.45275590551181105
  endloop
endfacet
facet normal -0.8767426658768962 -0.3654785068475852 -0.31264637989833327
  outer loop
    vertex 85.41588249405918 6.239187095557156 0.21616809295369502
    vertex 85.3252117592324 6.254308582980196 0.45275590551181105
    vertex 85.40103341223333 6.27480840663809 0.21616809295369502
  endloop
endfacet
facet normal 0.7548850044056783 -0.5765421678072724 -0.3126463798983289
  outer loop
    vertex 85.64851327509352 6.209094504464645 0.21616809295369502
    vertex 85.74004726381216 6.200646401413053 0.45275590551181105
    vertex 85.70417746965482 6.153680938637843 0.45275590551181105
  endloop
endfacet
facet normal 0.7548850044056783 -0.5765421678072724 -0.3126463798983289
  outer loop
    vertex 85.74004726381216 6.200646401413053 0.45275590551181105
    vertex 85.64851327509352 6.209094504464645 0.21616809295369502
    vertex 85.67193769449281 6.239764842089165 0.21616809295369502
  endloop
endfacet
facet normal 0.5799428283004754 -0.7522755858322918 -0.3126463798983254
  outer loop
    vertex 85.70417746965482 6.153680938637843 0.45275590551181105
    vertex 85.61794895593299 6.185531919113112 0.21616809295369502
    vertex 85.64851327509352 6.209094504464645 0.21616809295369502
  endloop
endfacet
facet normal 0.5799428283004754 -0.7522755858322918 -0.3126463798983254
  outer loop
    vertex 85.61794895593299 6.185531919113112 0.21616809295369502
    vertex 85.70417746965482 6.153680938637843 0.45275590551181105
    vertex 85.65737435286631 6.117599571071492 0.45275590551181105
  endloop
endfacet
facet normal -0.7522755858322642 -0.5799428283005079 -0.31264637989833094
  outer loop
    vertex 85.34795014601755 6.199761698623831 0.45275590551181105
    vertex 85.4394450794107 6.208622776396612 0.21616809295369502
    vertex 85.3840315135839 6.15295858183531 0.45275590551181105
  endloop
endfacet
facet normal -0.7522755858322642 -0.5799428283005079 -0.31264637989833094
  outer loop
    vertex 85.4394450794107 6.208622776396612 0.21616809295369502
    vertex 85.34795014601755 6.199761698623831 0.45275590551181105
    vertex 85.41588249405918 6.239187095557156 0.21616809295369502
  endloop
endfacet
facet normal -0.923879532511263 0.3826834323651471 0.0
  outer loop
    vertex 85.61029332093487 6.295560717448041 0.45275590551181105
    vertex 85.60341041780954 6.278943919374399 0.0
    vertex 85.60341041780954 6.278943919374399 0.45275590551181105
  endloop
endfacet
facet normal -0.923879532511263 0.3826834323651471 0.0
  outer loop
    vertex 85.60341041780954 6.278943919374399 0.0
    vertex 85.61029332093487 6.295560717448041 0.45275590551181105
    vertex 85.61029332093487 6.295560717448041 0.0
  endloop
endfacet
facet normal -0.12069616910919106 -0.9330417577328046 0.3389181510176818
  outer loop
    vertex 85.54407687533389 6.165559199374274 0.21616809295369502
    vertex 85.48564591566912 6.094596783346015 0.0
    vertex 85.54425409661161 6.087015361764839 0.0
  endloop
endfacet
facet normal -0.12069616910919106 -0.9330417577328046 0.3389181510176818
  outer loop
    vertex 85.48564591566912 6.094596783346015 0.0
    vertex 85.54407687533389 6.165559199374274 0.21616809295369502
    vertex 85.50580337410877 6.1705101728307 0.21616809295369502
  endloop
endfacet
facet normal -0.7548850044056306 0.576542167807328 -0.31264637989834143
  outer loop
    vertex 85.34743936262404 6.426139075131028 0.45275590551181105
    vertex 85.43897335134268 6.417690972079424 0.21616809295369502
    vertex 85.41554893194339 6.387020634454905 0.21616809295369502
  endloop
endfacet
facet normal -0.7548850044056306 0.576542167807328 -0.31264637989834143
  outer loop
    vertex 85.43897335134268 6.417690972079424 0.21616809295369502
    vertex 85.34743936262404 6.426139075131028 0.45275590551181105
    vertex 85.38330915678138 6.473104537906226 0.45275590551181105
  endloop
endfacet
facet normal -0.9420206746548758 0.12185766147126308 -0.312646379898325
  outer loop
    vertex 85.32494735829208 6.371490135821012 0.45275590551181105
    vertex 85.39590977432034 6.313059176156253 0.21616809295369502
    vertex 85.3173659367109 6.312881954878526 0.45275590551181105
  endloop
endfacet
facet normal -0.9420206746548758 0.12185766147126308 -0.312646379898325
  outer loop
    vertex 85.39590977432034 6.313059176156253 0.21616809295369502
    vertex 85.32494735829208 6.371490135821012 0.45275590551181105
    vertex 85.40086074777676 6.351332677381379 0.21616809295369502
  endloop
endfacet
facet normal -0.3619949302785053 0.8683859495428369 0.3389181510176842
  outer loop
    vertex 85.46953767050321 6.441253557430957 0.21616809295369502
    vertex 85.48465915792626 6.531924292257736 0.0
    vertex 85.43011227356989 6.509185905472589 0.0
  endloop
endfacet
facet normal -0.3619949302785053 0.8683859495428369 0.3389181510176842
  outer loop
    vertex 85.48465915792626 6.531924292257736 0.0
    vertex 85.46953767050321 6.441253557430957 0.21616809295369502
    vertex 85.50515898158415 6.456102639256801 0.21616809295369502
  endloop
endfacet
facet normal 0.7476897804338213 -0.5710468274542616 0.33891815101768596
  outer loop
    vertex 85.74004726381216 6.200646401413053 0.0
    vertex 85.64851327509352 6.209094504464645 0.21616809295369502
    vertex 85.70417746965482 6.153680938637843 0.0
  endloop
endfacet
facet normal 0.7476897804338213 -0.5710468274542616 0.33891815101768596
  outer loop
    vertex 85.64851327509352 6.209094504464645 0.21616809295369502
    vertex 85.74004726381216 6.200646401413053 0.0
    vertex 85.67193769449281 6.239764842089165 0.21616809295369502
  endloop
endfacet
facet normal -0.9324875980366129 -0.1249054299006261 0.33891815101768774
  outer loop
    vertex 85.40103341223333 6.27480840663809 0.21616809295369502
    vertex 85.3173659367109 6.312881954878526 0.0
    vertex 85.3252117592324 6.254308582980196 0.0
  endloop
endfacet
facet normal -0.9324875980366129 -0.1249054299006261 0.33891815101768774
  outer loop
    vertex 85.3173659367109 6.312881954878526 0.0
    vertex 85.40103341223333 6.27480840663809 0.21616809295369502
    vertex 85.39590977432034 6.313059176156253 0.21616809295369502
  endloop
endfacet
facet normal -0.9414611821278112 -0.12610742913473988 -0.3126463798983306
  outer loop
    vertex 85.3173659367109 6.312881954878526 0.45275590551181105
    vertex 85.40103341223333 6.27480840663809 0.21616809295369502
    vertex 85.3252117592324 6.254308582980196 0.45275590551181105
  endloop
endfacet
facet normal -0.9414611821278112 -0.12610742913473988 -0.3126463798983306
  outer loop
    vertex 85.40103341223333 6.27480840663809 0.21616809295369502
    vertex 85.3173659367109 6.312881954878526 0.45275590551181105
    vertex 85.39590977432034 6.313059176156253 0.21616809295369502
  endloop
endfacet
facet normal -0.8683859495428184 -0.3619949302785437 0.3389181510176906
  outer loop
    vertex 85.41588249405918 6.239187095557156 0.21616809295369502
    vertex 85.3252117592324 6.254308582980196 0.0
    vertex 85.34795014601755 6.199761698623831 0.0
  endloop
endfacet
facet normal -0.8683859495428184 -0.3619949302785437 0.3389181510176906
  outer loop
    vertex 85.3252117592324 6.254308582980196 0.0
    vertex 85.41588249405918 6.239187095557156 0.21616809295369502
    vertex 85.40103341223333 6.27480840663809 0.21616809295369502
  endloop
endfacet
facet normal -0.35807252365362674 -0.8700106635640025 0.33891815101768635
  outer loop
    vertex 85.50580337410877 6.1705101728307 0.21616809295369502
    vertex 85.43099697635911 6.117088787677972 0.0
    vertex 85.48564591566912 6.094596783346015 0.0
  endloop
endfacet
facet normal -0.35807252365362674 -0.8700106635640025 0.33891815101768635
  outer loop
    vertex 85.43099697635911 6.117088787677972 0.0
    vertex 85.50580337410877 6.1705101728307 0.21616809295369502
    vertex 85.47011541703523 6.18519835699733 0.21616809295369502
  endloop
endfacet
facet normal -0.7933533402911233 0.6087614290088665 0.0
  outer loop
    vertex 85.60341041780954 6.278943919374399 0.45275590551181105
    vertex 85.59246130011087 6.264674751379267 0.0
    vertex 85.59246130011087 6.264674751379267 0.45275590551181105
  endloop
endfacet
facet normal -0.7933533402911233 0.6087614290088665 0.0
  outer loop
    vertex 85.59246130011087 6.264674751379267 0.0
    vertex 85.60341041780954 6.278943919374399 0.45275590551181105
    vertex 85.60341041780954 6.278943919374399 0.0
  endloop
endfacet
facet normal -0.13052619222004688 -0.9914448613738112 0.0
  outer loop
    vertex 85.56157533404209 6.379942745988808 0.45275590551181105
    vertex 85.5437433132181 6.382290376067317 0.0
    vertex 85.56157533404209 6.379942745988808 0.0
  endloop
endfacet
facet normal -0.13052619222004688 -0.9914448613738112 0.0
  outer loop
    vertex 85.5437433132181 6.382290376067317 0.0
    vertex 85.56157533404209 6.379942745988808 0.45275590551181105
    vertex 85.5437433132181 6.382290376067317 0.45275590551181105
  endloop
endfacet
facet normal -0.7933533402913575 -0.6087614290085611 0.0
  outer loop
    vertex 85.59246130011087 6.362110725164814 0.45275590551181105
    vertex 85.60341041780954 6.34784155716967 0.0
    vertex 85.60341041780954 6.34784155716967 0.45275590551181105
  endloop
endfacet
facet normal -0.7933533402913575 -0.6087614290085611 0.0
  outer loop
    vertex 85.60341041780954 6.34784155716967 0.0
    vertex 85.59246130011087 6.362110725164814 0.45275590551181105
    vertex 85.59246130011087 6.362110725164814 0.0
  endloop
endfacet
facet normal 0.8700106635639442 -0.35807252365376935 0.3389181510176856
  outer loop
    vertex 85.76253926814412 6.255295340723058 0.0
    vertex 85.67193769449281 6.239764842089165 0.21616809295369502
    vertex 85.74004726381216 6.200646401413053 0.0
  endloop
endfacet
facet normal 0.8700106635639442 -0.35807252365376935 0.3389181510176856
  outer loop
    vertex 85.67193769449281 6.239764842089165 0.21616809295369502
    vertex 85.76253926814412 6.255295340723058 0.0
    vertex 85.68662587865944 6.275452799162702 0.21616809295369502
  endloop
endfacet
facet normal -0.5744150743828834 0.7451052336633073 0.3389181510176978
  outer loop
    vertex 85.43897335134268 6.417690972079424 0.21616809295369502
    vertex 85.43011227356989 6.509185905472589 0.0
    vertex 85.38330915678138 6.473104537906226 0.0
  endloop
endfacet
facet normal -0.5744150743828834 0.7451052336633073 0.3389181510176978
  outer loop
    vertex 85.43011227356989 6.509185905472589 0.0
    vertex 85.43897335134268 6.417690972079424 0.21616809295369502
    vertex 85.46953767050321 6.441253557430957 0.21616809295369502
  endloop
endfacet
facet normal -0.5799428283005551 0.7522755858322241 -0.31264637989834004
  outer loop
    vertex 85.38330915678138 6.473104537906226 0.45275590551181105
    vertex 85.46953767050321 6.441253557430957 0.21616809295369502
    vertex 85.43897335134268 6.417690972079424 0.21616809295369502
  endloop
endfacet
facet normal -0.5799428283005551 0.7522755858322241 -0.31264637989834004
  outer loop
    vertex 85.46953767050321 6.441253557430957 0.21616809295369502
    vertex 85.38330915678138 6.473104537906226 0.45275590551181105
    vertex 85.43011227356989 6.509185905472589 0.45275590551181105
  endloop
endfacet
facet normal -0.13052619222004688 0.9914448613738112 -0.0
  outer loop
    vertex 85.5437433132181 6.2444951004767635 0.45275590551181105
    vertex 85.56157533404209 6.246842730555272 0.0
    vertex 85.5437433132181 6.2444951004767635 0.0
  endloop
endfacet
facet normal -0.13052619222004688 0.9914448613738112 -0.0
  outer loop
    vertex 85.56157533404209 6.246842730555272 0.0
    vertex 85.5437433132181 6.2444951004767635 0.45275590551181105
    vertex 85.56157533404209 6.246842730555272 0.45275590551181105
  endloop
endfacet
facet normal -0.12185766147141364 -0.9420206746548564 -0.31264637989832506
  outer loop
    vertex 85.54425409661161 6.087015361764839 0.45275590551181105
    vertex 85.50580337410877 6.1705101728307 0.21616809295369502
    vertex 85.54407687533389 6.165559199374274 0.21616809295369502
  endloop
endfacet
facet normal -0.12185766147141364 -0.9420206746548564 -0.31264637989832506
  outer loop
    vertex 85.50580337410877 6.1705101728307 0.21616809295369502
    vertex 85.54425409661161 6.087015361764839 0.45275590551181105
    vertex 85.48564591566912 6.094596783346015 0.45275590551181105
  endloop
endfacet
endsolid EverythingRightSize
