solid AutoSave_BallServoLifter
facet normal 1.0 0.0 1.1102230246251563e-15
  outer loop
    vertex 86814.70451407696 62284.832394859426 -53493.25000000009
    vertex 86814.70451407685 62275.332394859426 -53490.25000000006
    vertex 86814.70451407693 62275.332394859426 -53493.250000000065
  endloop
endfacet
facet normal 1.0 0.0 1.1102230246251563e-15
  outer loop
    vertex 86814.70451407685 62275.332394859426 -53490.25000000006
    vertex 86814.70451407696 62284.832394859426 -53493.25000000009
    vertex 86814.70451407685 62284.832394859426 -53490.25000000006
  endloop
endfacet
facet normal -0.9914448613738105 -0.13052619222005132 -5.551115123125783e-17
  outer loop
    vertex 86808.38636572946 62265.350032949624 -53490.24999999999
    vertex 86808.42043990328 62265.091213904525 -53493.25000000003
    vertex 86808.4204399032 62265.091213904525 -53490.25
  endloop
endfacet
facet normal -0.9914448613738105 -0.13052619222005132 -5.551115123125783e-17
  outer loop
    vertex 86808.42043990328 62265.091213904525 -53493.25000000003
    vertex 86808.38636572946 62265.350032949624 -53490.24999999999
    vertex 86808.3863657295 62265.350032949624 -53493.249999999985
  endloop
endfacet
facet normal -2.179355228776625e-16 1.0 -1.92509711875271e-15
  outer loop
    vertex 86798.20451407695 62284.832394859426 -53490.250000000015
    vertex 86814.70451407696 62284.832394859426 -53493.25000000009
    vertex 86798.20451407693 62284.832394859426 -53493.25000000011
  endloop
endfacet
facet normal -2.179355228776625e-16 1.0 -1.92509711875271e-15
  outer loop
    vertex 86814.70451407696 62284.832394859426 -53493.25000000009
    vertex 86798.20451407695 62284.832394859426 -53490.250000000015
    vertex 86814.70451407685 62284.832394859426 -53490.25000000006
  endloop
endfacet
facet normal 0.608761429008707 -0.7933533402912456 8.049116928532385e-16
  outer loop
    vertex 86805.45451407698 62282.56444566699 -53493.25000000002
    vertex 86805.04030051455 62282.24660842179 -53490.25000000007
    vertex 86805.04030051459 62282.24660842179 -53493.250000000044
  endloop
endfacet
facet normal 0.608761429008707 -0.7933533402912456 8.049116928532385e-16
  outer loop
    vertex 86805.04030051455 62282.24660842179 -53490.25000000007
    vertex 86805.45451407698 62282.56444566699 -53493.25000000002
    vertex 86805.45451407692 62282.56444566699 -53490.24999999996
  endloop
endfacet
facet normal -3.1493696539541816e-12 4.821301167625635e-29 -1.0
  outer loop
    vertex 86798.20451407693 62284.832394859426 -53493.25000000011
    vertex 86805.04030051459 62282.24660842179 -53493.250000000044
    vertex 86798.20451407693 62275.332394859426 -53493.24999999995
  endloop
endfacet
facet normal -3.1493696539541816e-12 4.821301167625635e-29 -1.0
  outer loop
    vertex 86805.04030051459 62282.24660842179 -53493.250000000044
    vertex 86798.20451407693 62284.832394859426 -53493.25000000011
    vertex 86805.45451407698 62282.56444566699 -53493.25000000002
  endloop
endfacet
facet normal -3.1493696539541816e-12 4.821301167625635e-29 -1.0
  outer loop
    vertex 86805.45451407698 62282.56444566699 -53493.25000000002
    vertex 86798.20451407693 62284.832394859426 -53493.25000000011
    vertex 86805.93687598674 62282.764246512 -53493.24999999997
  endloop
endfacet
facet normal -3.1493696539541816e-12 4.821301167625635e-29 -1.0
  outer loop
    vertex 86805.93687598674 62282.764246512 -53493.24999999997
    vertex 86798.20451407693 62284.832394859426 -53493.25000000011
    vertex 86814.70451407696 62284.832394859426 -53493.25000000009
  endloop
endfacet
facet normal -3.1493696539541816e-12 4.821301167625635e-29 -1.0
  outer loop
    vertex 86798.20451407693 62275.332394859426 -53493.24999999995
    vertex 86805.04030051459 62282.24660842179 -53493.250000000044
    vertex 86804.72246326937 62281.83239485942 -53493.25000000001
  endloop
endfacet
facet normal -3.1493696539541816e-12 4.821301167625635e-29 -1.0
  outer loop
    vertex 86798.20451407693 62275.332394859426 -53493.24999999995
    vertex 86804.72246326937 62281.83239485942 -53493.25000000001
    vertex 86798.20451407693 62270.33239485942 -53493.24999999995
  endloop
endfacet
facet normal -3.1493696539541816e-12 4.821301167625635e-29 -1.0
  outer loop
    vertex 86798.20451407693 62270.33239485942 -53493.24999999995
    vertex 86804.72246326937 62281.83239485942 -53493.25000000001
    vertex 86804.52266242434 62281.350032949624 -53493.24999999999
  endloop
endfacet
facet normal -3.1493696539541816e-12 4.821301167625635e-29 -1.0
  outer loop
    vertex 86798.20451407693 62270.33239485942 -53493.24999999995
    vertex 86804.52266242434 62281.350032949624 -53493.24999999999
    vertex 86798.20451407693 62260.83239485942 -53493.25000000011
  endloop
endfacet
facet normal -3.1493696539541816e-12 4.821301167625635e-29 -1.0
  outer loop
    vertex 86798.20451407693 62260.83239485942 -53493.25000000011
    vertex 86804.52266242434 62281.350032949624 -53493.24999999999
    vertex 86804.454514077 62280.83239485941 -53493.250000000065
  endloop
endfacet
facet normal -3.1493696539541816e-12 4.821301167625635e-29 -1.0
  outer loop
    vertex 86805.93687598674 62282.764246512 -53493.24999999997
    vertex 86814.70451407696 62284.832394859426 -53493.25000000009
    vertex 86806.454514077 62282.832394859426 -53493.250000000044
  endloop
endfacet
facet normal -3.1493696539541816e-12 4.821301167625635e-29 -1.0
  outer loop
    vertex 86806.454514077 62282.832394859426 -53493.250000000044
    vertex 86814.70451407696 62284.832394859426 -53493.25000000009
    vertex 86806.97215216722 62282.764246512 -53493.25000000001
  endloop
endfacet
facet normal -3.1493696539541816e-12 4.821301167625635e-29 -1.0
  outer loop
    vertex 86806.97215216722 62282.764246512 -53493.25000000001
    vertex 86814.70451407696 62284.832394859426 -53493.25000000009
    vertex 86807.45451407695 62282.56444566699 -53493.24999999999
  endloop
endfacet
facet normal -3.1493696539541816e-12 4.821301167625635e-29 -1.0
  outer loop
    vertex 86807.45451407695 62282.56444566699 -53493.24999999999
    vertex 86814.70451407696 62284.832394859426 -53493.25000000009
    vertex 86807.86872763942 62282.24660842179 -53493.25000000002
  endloop
endfacet
facet normal -3.1493696539541816e-12 4.821301167625635e-29 -1.0
  outer loop
    vertex 86807.86872763942 62282.24660842179 -53493.25000000002
    vertex 86814.70451407696 62284.832394859426 -53493.25000000009
    vertex 86808.18656488456 62281.83239485942 -53493.25000000005
  endloop
endfacet
facet normal -3.1493696539541816e-12 4.821301167625635e-29 -1.0
  outer loop
    vertex 86808.18656488456 62281.83239485942 -53493.25000000005
    vertex 86814.70451407696 62284.832394859426 -53493.25000000009
    vertex 86808.3863657295 62281.350032949624 -53493.249999999985
  endloop
endfacet
facet normal -3.1493696539541816e-12 4.821301167625635e-29 -1.0
  outer loop
    vertex 86808.3863657295 62281.350032949624 -53493.249999999985
    vertex 86814.70451407696 62284.832394859426 -53493.25000000009
    vertex 86808.45451407702 62280.83239485941 -53493.24999999997
  endloop
endfacet
facet normal -3.1493696539541816e-12 4.821301167625635e-29 -1.0
  outer loop
    vertex 86808.45451407702 62280.83239485941 -53493.24999999997
    vertex 86814.70451407696 62284.832394859426 -53493.25000000009
    vertex 86808.45451407702 62264.83239485942 -53493.24999999997
  endloop
endfacet
facet normal -3.1493696539541816e-12 4.821301167625635e-29 -1.0
  outer loop
    vertex 86808.45451407702 62264.83239485942 -53493.24999999997
    vertex 86814.70451407696 62284.832394859426 -53493.25000000009
    vertex 86814.70451407693 62275.332394859426 -53493.250000000065
  endloop
endfacet
facet normal -3.1493696539541816e-12 4.821301167625635e-29 -1.0
  outer loop
    vertex 86798.20451407693 62260.83239485942 -53493.25000000011
    vertex 86805.93687598674 62262.900543206844 -53493.24999999997
    vertex 86814.70451407696 62260.83239485942 -53493.25000000009
  endloop
endfacet
facet normal -3.1493696539541816e-12 4.821301167625635e-29 -1.0
  outer loop
    vertex 86805.93687598674 62262.900543206844 -53493.24999999997
    vertex 86798.20451407693 62260.83239485942 -53493.25000000011
    vertex 86805.45451407698 62263.100344051854 -53493.25000000002
  endloop
endfacet
facet normal -3.1493696539541816e-12 4.821301167625635e-29 -1.0
  outer loop
    vertex 86805.45451407698 62263.100344051854 -53493.25000000002
    vertex 86798.20451407693 62260.83239485942 -53493.25000000011
    vertex 86805.04030051459 62263.41818129705 -53493.250000000044
  endloop
endfacet
facet normal -3.1493696539541816e-12 4.821301167625635e-29 -1.0
  outer loop
    vertex 86805.04030051459 62263.41818129705 -53493.250000000044
    vertex 86798.20451407693 62260.83239485942 -53493.25000000011
    vertex 86804.72246326937 62263.832394859426 -53493.25000000001
  endloop
endfacet
facet normal -3.1493696539541816e-12 4.821301167625635e-29 -1.0
  outer loop
    vertex 86804.72246326937 62263.832394859426 -53493.25000000001
    vertex 86798.20451407693 62260.83239485942 -53493.25000000011
    vertex 86804.52266242434 62264.31475676922 -53493.24999999999
  endloop
endfacet
facet normal -3.1493696539541816e-12 4.821301167625635e-29 -1.0
  outer loop
    vertex 86804.52266242434 62264.31475676922 -53493.24999999999
    vertex 86798.20451407693 62260.83239485942 -53493.25000000011
    vertex 86804.454514077 62264.83239485942 -53493.250000000065
  endloop
endfacet
facet normal -3.1493696539541816e-12 4.821301167625635e-29 -1.0
  outer loop
    vertex 86804.454514077 62264.83239485942 -53493.250000000065
    vertex 86798.20451407693 62260.83239485942 -53493.25000000011
    vertex 86804.454514077 62280.83239485941 -53493.250000000065
  endloop
endfacet
facet normal -3.1493696539541816e-12 4.821301167625635e-29 -1.0
  outer loop
    vertex 86814.70451407696 62260.83239485942 -53493.25000000009
    vertex 86805.93687598674 62262.900543206844 -53493.24999999997
    vertex 86806.454514077 62262.83239485942 -53493.250000000044
  endloop
endfacet
facet normal -3.1493696539541816e-12 4.821301167625635e-29 -1.0
  outer loop
    vertex 86814.70451407696 62260.83239485942 -53493.25000000009
    vertex 86806.454514077 62262.83239485942 -53493.250000000044
    vertex 86806.97215216722 62262.900543206844 -53493.25000000001
  endloop
endfacet
facet normal -3.1493696539541816e-12 4.821301167625635e-29 -1.0
  outer loop
    vertex 86814.70451407696 62260.83239485942 -53493.25000000009
    vertex 86806.97215216722 62262.900543206844 -53493.25000000001
    vertex 86807.45451407695 62263.100344051854 -53493.24999999999
  endloop
endfacet
facet normal -3.1493696539541816e-12 4.821301167625635e-29 -1.0
  outer loop
    vertex 86814.70451407696 62260.83239485942 -53493.25000000009
    vertex 86807.45451407695 62263.100344051854 -53493.24999999999
    vertex 86807.86872763942 62263.41818129705 -53493.25000000002
  endloop
endfacet
facet normal -3.1493696539541816e-12 4.821301167625635e-29 -1.0
  outer loop
    vertex 86814.70451407696 62260.83239485942 -53493.25000000009
    vertex 86807.86872763942 62263.41818129705 -53493.25000000002
    vertex 86808.18656488456 62263.832394859426 -53493.25000000005
  endloop
endfacet
facet normal -3.1493696539541816e-12 4.821301167625635e-29 -1.0
  outer loop
    vertex 86814.70451407696 62260.83239485942 -53493.25000000009
    vertex 86808.18656488456 62263.832394859426 -53493.25000000005
    vertex 86808.3863657295 62264.31475676922 -53493.249999999985
  endloop
endfacet
facet normal -3.1493696539541816e-12 4.821301167625635e-29 -1.0
  outer loop
    vertex 86814.70451407696 62260.83239485942 -53493.25000000009
    vertex 86808.3863657295 62264.31475676922 -53493.249999999985
    vertex 86808.45451407702 62264.83239485942 -53493.24999999997
  endloop
endfacet
facet normal -3.1493696539541816e-12 4.821301167625635e-29 -1.0
  outer loop
    vertex 86814.70451407696 62260.83239485942 -53493.25000000009
    vertex 86808.45451407702 62264.83239485942 -53493.24999999997
    vertex 86814.70451407693 62270.33239485942 -53493.250000000065
  endloop
endfacet
facet normal -3.1493696539541816e-12 4.821301167625635e-29 -1.0
  outer loop
    vertex 86814.70451407693 62270.33239485942 -53493.250000000065
    vertex 86808.45451407702 62264.83239485942 -53493.24999999997
    vertex 86814.70451407693 62275.332394859426 -53493.250000000065
  endloop
endfacet
facet normal -3.1493696539541816e-12 4.821301167625635e-29 -1.0
  outer loop
    vertex 86804.48858825064 62280.57357581432 -53493.25000000005
    vertex 86804.454514077 62264.83239485942 -53493.250000000065
    vertex 86804.454514077 62280.83239485941 -53493.250000000065
  endloop
endfacet
facet normal -3.1493696539541816e-12 4.821301167625635e-29 -1.0
  outer loop
    vertex 86804.454514077 62264.83239485942 -53493.250000000065
    vertex 86804.48858825064 62280.57357581432 -53493.25000000005
    vertex 86804.48858825064 62265.091213904525 -53493.25000000005
  endloop
endfacet
facet normal -3.1493696539541816e-12 4.821301167625635e-29 -1.0
  outer loop
    vertex 86804.48858825064 62265.091213904525 -53493.25000000005
    vertex 86804.48858825064 62280.57357581432 -53493.25000000005
    vertex 86804.52266242434 62280.314756769214 -53493.24999999999
  endloop
endfacet
facet normal -3.1493696539541816e-12 4.821301167625635e-29 -1.0
  outer loop
    vertex 86804.48858825064 62265.091213904525 -53493.25000000005
    vertex 86804.52266242434 62280.314756769214 -53493.24999999999
    vertex 86804.52266242434 62265.350032949624 -53493.24999999999
  endloop
endfacet
facet normal -3.1493696539541816e-12 4.821301167625635e-29 -1.0
  outer loop
    vertex 86804.52266242434 62265.350032949624 -53493.24999999999
    vertex 86804.52266242434 62280.314756769214 -53493.24999999999
    vertex 86804.72246326937 62279.83239485942 -53493.25000000001
  endloop
endfacet
facet normal -3.1493696539541816e-12 4.821301167625635e-29 -1.0
  outer loop
    vertex 86804.52266242434 62265.350032949624 -53493.24999999999
    vertex 86804.72246326937 62279.83239485942 -53493.25000000001
    vertex 86804.72246326937 62265.832394859426 -53493.25000000001
  endloop
endfacet
facet normal -3.1493696539541816e-12 4.821301167625635e-29 -1.0
  outer loop
    vertex 86804.72246326937 62265.832394859426 -53493.25000000001
    vertex 86804.72246326937 62279.83239485942 -53493.25000000001
    vertex 86805.04030051459 62279.41818129705 -53493.250000000044
  endloop
endfacet
facet normal -3.1493696539541816e-12 4.821301167625635e-29 -1.0
  outer loop
    vertex 86804.72246326937 62265.832394859426 -53493.25000000001
    vertex 86805.04030051459 62279.41818129705 -53493.250000000044
    vertex 86805.04030051459 62266.246608421796 -53493.250000000044
  endloop
endfacet
facet normal -3.1493696539541816e-12 4.821301167625635e-29 -1.0
  outer loop
    vertex 86805.04030051459 62266.246608421796 -53493.250000000044
    vertex 86805.04030051459 62279.41818129705 -53493.250000000044
    vertex 86805.45451407698 62279.10034405185 -53493.25000000002
  endloop
endfacet
facet normal -3.1493696539541816e-12 4.821301167625635e-29 -1.0
  outer loop
    vertex 86805.04030051459 62266.246608421796 -53493.250000000044
    vertex 86805.45451407698 62279.10034405185 -53493.25000000002
    vertex 86805.45451407698 62266.56444566698 -53493.25000000002
  endloop
endfacet
facet normal -3.1493696539541816e-12 4.821301167625635e-29 -1.0
  outer loop
    vertex 86805.45451407698 62266.56444566698 -53493.25000000002
    vertex 86805.45451407698 62279.10034405185 -53493.25000000002
    vertex 86805.93687598674 62278.90054320684 -53493.24999999997
  endloop
endfacet
facet normal -3.1493696539541816e-12 4.821301167625635e-29 -1.0
  outer loop
    vertex 86805.45451407698 62266.56444566698 -53493.25000000002
    vertex 86805.93687598674 62278.90054320684 -53493.24999999997
    vertex 86805.93687598674 62266.76424651199 -53493.24999999997
  endloop
endfacet
facet normal -3.1493696539541816e-12 4.821301167625635e-29 -1.0
  outer loop
    vertex 86805.93687598674 62266.76424651199 -53493.24999999997
    vertex 86805.93687598674 62278.90054320684 -53493.24999999997
    vertex 86806.454514077 62278.83239485941 -53493.250000000044
  endloop
endfacet
facet normal -3.1493696539541816e-12 4.821301167625635e-29 -1.0
  outer loop
    vertex 86805.93687598674 62266.76424651199 -53493.24999999997
    vertex 86806.454514077 62278.83239485941 -53493.250000000044
    vertex 86806.454514077 62266.83239485942 -53493.250000000044
  endloop
endfacet
facet normal -3.1493696539541816e-12 4.821301167625635e-29 -1.0
  outer loop
    vertex 86806.454514077 62266.83239485942 -53493.250000000044
    vertex 86806.454514077 62278.83239485941 -53493.250000000044
    vertex 86806.97215216722 62278.90054320684 -53493.25000000001
  endloop
endfacet
facet normal -3.1493696539541816e-12 4.821301167625635e-29 -1.0
  outer loop
    vertex 86806.454514077 62266.83239485942 -53493.250000000044
    vertex 86806.97215216722 62278.90054320684 -53493.25000000001
    vertex 86806.97215216722 62266.76424651199 -53493.25000000001
  endloop
endfacet
facet normal -3.1493696539541816e-12 4.821301167625635e-29 -1.0
  outer loop
    vertex 86806.97215216722 62266.76424651199 -53493.25000000001
    vertex 86806.97215216722 62278.90054320684 -53493.25000000001
    vertex 86807.45451407695 62279.10034405185 -53493.24999999999
  endloop
endfacet
facet normal -3.1493696539541816e-12 4.821301167625635e-29 -1.0
  outer loop
    vertex 86806.97215216722 62266.76424651199 -53493.25000000001
    vertex 86807.45451407695 62279.10034405185 -53493.24999999999
    vertex 86807.45451407695 62266.56444566698 -53493.24999999999
  endloop
endfacet
facet normal -3.1493696539541816e-12 4.821301167625635e-29 -1.0
  outer loop
    vertex 86807.45451407695 62266.56444566698 -53493.24999999999
    vertex 86807.45451407695 62279.10034405185 -53493.24999999999
    vertex 86807.86872763942 62279.41818129705 -53493.25000000002
  endloop
endfacet
facet normal -3.1493696539541816e-12 4.821301167625635e-29 -1.0
  outer loop
    vertex 86807.45451407695 62266.56444566698 -53493.24999999999
    vertex 86807.86872763942 62279.41818129705 -53493.25000000002
    vertex 86807.86872763942 62266.246608421796 -53493.25000000002
  endloop
endfacet
facet normal -3.1493696539541816e-12 4.821301167625635e-29 -1.0
  outer loop
    vertex 86807.86872763942 62266.246608421796 -53493.25000000002
    vertex 86807.86872763942 62279.41818129705 -53493.25000000002
    vertex 86808.18656488456 62279.83239485942 -53493.25000000005
  endloop
endfacet
facet normal -3.1493696539541816e-12 4.821301167625635e-29 -1.0
  outer loop
    vertex 86807.86872763942 62266.246608421796 -53493.25000000002
    vertex 86808.18656488456 62279.83239485942 -53493.25000000005
    vertex 86808.18656488456 62265.832394859426 -53493.25000000005
  endloop
endfacet
facet normal -3.1493696539541816e-12 4.821301167625635e-29 -1.0
  outer loop
    vertex 86808.18656488456 62265.832394859426 -53493.25000000005
    vertex 86808.18656488456 62279.83239485942 -53493.25000000005
    vertex 86808.3863657295 62280.314756769214 -53493.249999999985
  endloop
endfacet
facet normal -3.1493696539541816e-12 4.821301167625635e-29 -1.0
  outer loop
    vertex 86808.18656488456 62265.832394859426 -53493.25000000005
    vertex 86808.3863657295 62280.314756769214 -53493.249999999985
    vertex 86808.3863657295 62265.350032949624 -53493.249999999985
  endloop
endfacet
facet normal -3.1493696539541816e-12 4.821301167625635e-29 -1.0
  outer loop
    vertex 86808.3863657295 62265.350032949624 -53493.249999999985
    vertex 86808.3863657295 62280.314756769214 -53493.249999999985
    vertex 86808.42043990328 62280.57357581432 -53493.25000000003
  endloop
endfacet
facet normal -3.1493696539541816e-12 4.821301167625635e-29 -1.0
  outer loop
    vertex 86808.3863657295 62265.350032949624 -53493.249999999985
    vertex 86808.42043990328 62280.57357581432 -53493.25000000003
    vertex 86808.42043990328 62265.091213904525 -53493.25000000003
  endloop
endfacet
facet normal -3.1493696539541816e-12 4.821301167625635e-29 -1.0
  outer loop
    vertex 86808.42043990328 62265.091213904525 -53493.25000000003
    vertex 86808.42043990328 62280.57357581432 -53493.25000000003
    vertex 86808.45451407702 62280.83239485941 -53493.24999999997
  endloop
endfacet
facet normal -3.1493696539541816e-12 4.821301167625635e-29 -1.0
  outer loop
    vertex 86808.42043990328 62265.091213904525 -53493.25000000003
    vertex 86808.45451407702 62280.83239485941 -53493.24999999997
    vertex 86808.45451407702 62264.83239485942 -53493.24999999997
  endloop
endfacet
facet normal -1.0 0.0 -1.1102230246251563e-15
  outer loop
    vertex 86798.20451407695 62270.33239485942 -53490.250000000015
    vertex 86798.20451407693 62260.83239485942 -53493.25000000011
    vertex 86798.20451407695 62260.83239485942 -53490.250000000015
  endloop
endfacet
facet normal -1.0 0.0 -1.1102230246251563e-15
  outer loop
    vertex 86798.20451407693 62260.83239485942 -53493.25000000011
    vertex 86798.20451407695 62270.33239485942 -53490.250000000015
    vertex 86798.20451407693 62270.33239485942 -53493.24999999995
  endloop
endfacet
facet normal -0.9238795325112878 0.3826834323650874 -2.7755575615628914e-16
  outer loop
    vertex 86808.38636572946 62280.314756769214 -53490.24999999999
    vertex 86808.18656488456 62279.83239485942 -53493.25000000005
    vertex 86808.18656488445 62279.83239485942 -53490.25
  endloop
endfacet
facet normal -0.9238795325112878 0.3826834323650874 -2.7755575615628914e-16
  outer loop
    vertex 86808.18656488456 62279.83239485942 -53493.25000000005
    vertex 86808.38636572946 62280.314756769214 -53490.24999999999
    vertex 86808.3863657295 62280.314756769214 -53493.249999999985
  endloop
endfacet
facet normal -0.6087614290087178 0.7933533402912375 -6.661338147750939e-16
  outer loop
    vertex 86807.45451407695 62263.100344051854 -53493.24999999999
    vertex 86807.8687276393 62263.41818129705 -53490.250000000015
    vertex 86807.86872763942 62263.41818129705 -53493.25000000002
  endloop
endfacet
facet normal -0.6087614290087178 0.7933533402912375 -6.661338147750939e-16
  outer loop
    vertex 86807.8687276393 62263.41818129705 -53490.250000000015
    vertex 86807.45451407695 62263.100344051854 -53493.24999999999
    vertex 86807.45451407688 62263.100344051854 -53490.24999999999
  endloop
endfacet
facet normal -0.6087614290087173 -0.7933533402912378 -6.938893903907228e-16
  outer loop
    vertex 86807.8687276393 62266.246608421796 -53490.250000000015
    vertex 86807.45451407695 62266.56444566698 -53493.24999999999
    vertex 86807.86872763942 62266.246608421796 -53493.25000000002
  endloop
endfacet
facet normal -0.6087614290087173 -0.7933533402912378 -6.938893903907228e-16
  outer loop
    vertex 86807.45451407695 62266.56444566698 -53493.24999999999
    vertex 86807.8687276393 62266.246608421796 -53490.250000000015
    vertex 86807.45451407688 62266.56444566698 -53490.24999999999
  endloop
endfacet
facet normal -0.9914448613738105 -0.13052619222005132 -5.551115123125783e-17
  outer loop
    vertex 86808.4204399032 62265.091213904525 -53490.25
    vertex 86808.45451407702 62264.83239485942 -53493.24999999997
    vertex 86808.45451407693 62264.83239485942 -53490.25000000006
  endloop
endfacet
facet normal -0.9914448613738105 -0.13052619222005132 -5.551115123125783e-17
  outer loop
    vertex 86808.45451407702 62264.83239485942 -53493.24999999997
    vertex 86808.4204399032 62265.091213904525 -53490.25
    vertex 86808.42043990328 62265.091213904525 -53493.25000000003
  endloop
endfacet
facet normal 0.7933533402912416 -0.6087614290087123 1.1102230246251565e-15
  outer loop
    vertex 86805.04030051459 62266.246608421796 -53493.250000000044
    vertex 86804.72246326927 62265.832394859426 -53490.25000000008
    vertex 86804.72246326937 62265.832394859426 -53493.25000000001
  endloop
endfacet
facet normal 0.7933533402912416 -0.6087614290087123 1.1102230246251565e-15
  outer loop
    vertex 86804.72246326927 62265.832394859426 -53490.25000000008
    vertex 86805.04030051459 62266.246608421796 -53493.250000000044
    vertex 86805.04030051455 62266.246608421796 -53490.25000000007
  endloop
endfacet
facet normal -0.9914448613738107 0.13052619222005024 -2.220446049250313e-16
  outer loop
    vertex 86808.45451407693 62264.83239485942 -53490.25000000006
    vertex 86808.3863657295 62264.31475676922 -53493.249999999985
    vertex 86808.38636572946 62264.31475676922 -53490.24999999999
  endloop
endfacet
facet normal -0.9914448613738107 0.13052619222005024 -2.220446049250313e-16
  outer loop
    vertex 86808.3863657295 62264.31475676922 -53493.249999999985
    vertex 86808.45451407693 62264.83239485942 -53490.25000000006
    vertex 86808.45451407702 62264.83239485942 -53493.24999999997
  endloop
endfacet
facet normal 0.6087614290087147 0.7933533402912398 5.828670879282072e-16
  outer loop
    vertex 86805.04030051455 62263.41818129705 -53490.25000000007
    vertex 86805.45451407698 62263.100344051854 -53493.25000000002
    vertex 86805.04030051459 62263.41818129705 -53493.250000000044
  endloop
endfacet
facet normal 0.6087614290087147 0.7933533402912398 5.828670879282072e-16
  outer loop
    vertex 86805.45451407698 62263.100344051854 -53493.25000000002
    vertex 86805.04030051455 62263.41818129705 -53490.25000000007
    vertex 86805.45451407692 62263.100344051854 -53490.24999999996
  endloop
endfacet
facet normal 0.9914448613738077 0.1305261922200724 -3.3306690738754696e-16
  outer loop
    vertex 86804.48858825064 62280.57357581432 -53493.25000000005
    vertex 86804.52266242437 62280.314756769214 -53490.25000000005
    vertex 86804.52266242434 62280.314756769214 -53493.24999999999
  endloop
endfacet
facet normal 0.9914448613738077 0.1305261922200724 -3.3306690738754696e-16
  outer loop
    vertex 86804.52266242437 62280.314756769214 -53490.25000000005
    vertex 86804.48858825064 62280.57357581432 -53493.25000000005
    vertex 86804.48858825053 62280.57357581432 -53490.24999999996
  endloop
endfacet
facet normal 0.9914448613738134 -0.1305261922200292 3.885780586188048e-16
  outer loop
    vertex 86804.52266242434 62265.350032949624 -53493.24999999999
    vertex 86804.48858825053 62265.091213904525 -53490.24999999996
    vertex 86804.48858825064 62265.091213904525 -53493.25000000005
  endloop
endfacet
facet normal 0.9914448613738134 -0.1305261922200292 3.885780586188048e-16
  outer loop
    vertex 86804.48858825053 62265.091213904525 -53490.24999999996
    vertex 86804.52266242434 62265.350032949624 -53493.24999999999
    vertex 86804.52266242437 62265.350032949624 -53490.25000000005
  endloop
endfacet
facet normal -0.9238795325112885 0.38268343236508584 -1.1102230246251565e-16
  outer loop
    vertex 86808.38636572946 62264.31475676922 -53490.24999999999
    vertex 86808.18656488456 62263.832394859426 -53493.25000000005
    vertex 86808.18656488445 62263.832394859426 -53490.25
  endloop
endfacet
facet normal -0.9238795325112885 0.38268343236508584 -1.1102230246251565e-16
  outer loop
    vertex 86808.18656488456 62263.832394859426 -53493.25000000005
    vertex 86808.38636572946 62264.31475676922 -53490.24999999999
    vertex 86808.3863657295 62264.31475676922 -53493.249999999985
  endloop
endfacet
facet normal 0.9914448613738134 0.1305261922200301 3.3306690738754696e-16
  outer loop
    vertex 86804.454514077 62280.83239485941 -53493.250000000065
    vertex 86804.48858825053 62280.57357581432 -53490.24999999996
    vertex 86804.48858825064 62280.57357581432 -53493.25000000005
  endloop
endfacet
facet normal 0.9914448613738134 0.1305261922200301 3.3306690738754696e-16
  outer loop
    vertex 86804.48858825053 62280.57357581432 -53490.24999999996
    vertex 86804.454514077 62280.83239485941 -53493.250000000065
    vertex 86804.4545140769 62280.83239485941 -53490.25000000002
  endloop
endfacet
facet normal 0.7933533402912312 -0.608761429008726 1.1102230246251565e-15
  outer loop
    vertex 86805.04030051459 62282.24660842179 -53493.250000000044
    vertex 86804.72246326927 62281.83239485942 -53490.25000000008
    vertex 86804.72246326937 62281.83239485942 -53493.25000000001
  endloop
endfacet
facet normal 0.7933533402912312 -0.608761429008726 1.1102230246251565e-15
  outer loop
    vertex 86804.72246326927 62281.83239485942 -53490.25000000008
    vertex 86805.04030051459 62282.24660842179 -53493.250000000044
    vertex 86805.04030051455 62282.24660842179 -53490.25000000007
  endloop
endfacet
facet normal 0.6087614290087207 -0.7933533402912352 8.604228440844963e-16
  outer loop
    vertex 86805.45451407698 62266.56444566698 -53493.25000000002
    vertex 86805.04030051455 62266.246608421796 -53490.25000000007
    vertex 86805.04030051459 62266.246608421796 -53493.250000000044
  endloop
endfacet
facet normal 0.6087614290087207 -0.7933533402912352 8.604228440844963e-16
  outer loop
    vertex 86805.04030051455 62266.246608421796 -53490.25000000007
    vertex 86805.45451407698 62266.56444566698 -53493.25000000002
    vertex 86805.45451407692 62266.56444566698 -53490.24999999996
  endloop
endfacet
facet normal -0.3826834323651187 -0.9238795325112749 5.551115123125783e-17
  outer loop
    vertex 86807.45451407695 62282.56444566699 -53493.24999999999
    vertex 86806.97215216715 62282.764246512 -53490.24999999996
    vertex 86806.97215216722 62282.764246512 -53493.25000000001
  endloop
endfacet
facet normal -0.3826834323651187 -0.9238795325112749 5.551115123125783e-17
  outer loop
    vertex 86806.97215216715 62282.764246512 -53490.24999999996
    vertex 86807.45451407695 62282.56444566699 -53493.24999999999
    vertex 86807.45451407688 62282.56444566699 -53490.24999999999
  endloop
endfacet
facet normal -0.3826834323650818 -0.9238795325112902 8.326672684688674e-17
  outer loop
    vertex 86807.45451407695 62266.56444566698 -53493.24999999999
    vertex 86806.97215216715 62266.76424651199 -53490.24999999996
    vertex 86806.97215216722 62266.76424651199 -53493.25000000001
  endloop
endfacet
facet normal -0.3826834323650818 -0.9238795325112902 8.326672684688674e-17
  outer loop
    vertex 86806.97215216715 62266.76424651199 -53490.24999999996
    vertex 86807.45451407695 62266.56444566698 -53493.24999999999
    vertex 86807.45451407688 62266.56444566698 -53490.24999999999
  endloop
endfacet
facet normal 0.38268343236508245 -0.9238795325112898 5.273559366969494e-16
  outer loop
    vertex 86805.93687598674 62266.76424651199 -53493.24999999997
    vertex 86805.45451407692 62266.56444566698 -53490.24999999996
    vertex 86805.45451407698 62266.56444566698 -53493.25000000002
  endloop
endfacet
facet normal 0.38268343236508245 -0.9238795325112898 5.273559366969494e-16
  outer loop
    vertex 86805.45451407692 62266.56444566698 -53490.24999999996
    vertex 86805.93687598674 62266.76424651199 -53493.24999999997
    vertex 86805.93687598666 62266.76424651199 -53490.24999999999
  endloop
endfacet
facet normal -0.1305261922200711 -0.9914448613738078 3.469446951953614e-16
  outer loop
    vertex 86806.97215216722 62282.764246512 -53493.25000000001
    vertex 86806.45451407685 62282.832394859426 -53490.24999999996
    vertex 86806.454514077 62282.832394859426 -53493.250000000044
  endloop
endfacet
facet normal -0.1305261922200711 -0.9914448613738078 3.469446951953614e-16
  outer loop
    vertex 86806.45451407685 62282.832394859426 -53490.24999999996
    vertex 86806.97215216722 62282.764246512 -53493.25000000001
    vertex 86806.97215216715 62282.764246512 -53490.24999999996
  endloop
endfacet
facet normal 0.9914448613738078 -0.13052619222007147 -5.551115123125783e-17
  outer loop
    vertex 86804.48858825064 62265.091213904525 -53493.25000000005
    vertex 86804.4545140769 62264.83239485942 -53490.25000000002
    vertex 86804.454514077 62264.83239485942 -53493.250000000065
  endloop
endfacet
facet normal 0.9914448613738078 -0.13052619222007147 -5.551115123125783e-17
  outer loop
    vertex 86804.4545140769 62264.83239485942 -53490.25000000002
    vertex 86804.48858825064 62265.091213904525 -53493.25000000005
    vertex 86804.48858825053 62265.091213904525 -53490.24999999996
  endloop
endfacet
facet normal 0.9914448613738096 -0.1305261922200573 5.551115123125783e-17
  outer loop
    vertex 86804.52266242434 62281.350032949624 -53493.24999999999
    vertex 86804.4545140769 62280.83239485941 -53490.25000000002
    vertex 86804.454514077 62280.83239485941 -53493.250000000065
  endloop
endfacet
facet normal 0.9914448613738096 -0.1305261922200573 5.551115123125783e-17
  outer loop
    vertex 86804.4545140769 62280.83239485941 -53490.25000000002
    vertex 86804.52266242434 62281.350032949624 -53493.24999999999
    vertex 86804.52266242437 62281.350032949624 -53490.25000000005
  endloop
endfacet
facet normal -0.6087614290087031 -0.7933533402912485 -1.1102230246251565e-16
  outer loop
    vertex 86807.8687276393 62282.24660842179 -53490.250000000015
    vertex 86807.45451407695 62282.56444566699 -53493.24999999999
    vertex 86807.86872763942 62282.24660842179 -53493.25000000002
  endloop
endfacet
facet normal -0.6087614290087031 -0.7933533402912485 -1.1102230246251565e-16
  outer loop
    vertex 86807.45451407695 62282.56444566699 -53493.24999999999
    vertex 86807.8687276393 62282.24660842179 -53490.250000000015
    vertex 86807.45451407688 62282.56444566699 -53490.24999999999
  endloop
endfacet
facet normal -0.7933533402912356 -0.6087614290087203 -4.440892098500626e-16
  outer loop
    vertex 86807.8687276393 62266.246608421796 -53490.250000000015
    vertex 86808.18656488456 62265.832394859426 -53493.25000000005
    vertex 86808.18656488445 62265.832394859426 -53490.25
  endloop
endfacet
facet normal -0.7933533402912356 -0.6087614290087203 -4.440892098500626e-16
  outer loop
    vertex 86808.18656488456 62265.832394859426 -53493.25000000005
    vertex 86807.8687276393 62266.246608421796 -53490.250000000015
    vertex 86807.86872763942 62266.246608421796 -53493.25000000002
  endloop
endfacet
facet normal -0.9238795325112875 -0.3826834323650881 1.6653345369377348e-16
  outer loop
    vertex 86808.18656488445 62281.83239485942 -53490.25
    vertex 86808.3863657295 62281.350032949624 -53493.249999999985
    vertex 86808.38636572946 62281.350032949624 -53490.24999999999
  endloop
endfacet
facet normal -0.9238795325112875 -0.3826834323650881 1.6653345369377348e-16
  outer loop
    vertex 86808.3863657295 62281.350032949624 -53493.249999999985
    vertex 86808.18656488445 62281.83239485942 -53490.25
    vertex 86808.18656488456 62281.83239485942 -53493.25000000005
  endloop
endfacet
facet normal 0.38268343236511954 -0.9238795325112744 2.498001805406602e-16
  outer loop
    vertex 86805.93687598674 62282.764246512 -53493.24999999997
    vertex 86805.45451407692 62282.56444566699 -53490.24999999996
    vertex 86805.45451407698 62282.56444566699 -53493.25000000002
  endloop
endfacet
facet normal 0.38268343236511954 -0.9238795325112744 2.498001805406602e-16
  outer loop
    vertex 86805.45451407692 62282.56444566699 -53490.24999999996
    vertex 86805.93687598674 62282.764246512 -53493.24999999997
    vertex 86805.93687598666 62282.764246512 -53490.24999999999
  endloop
endfacet
facet normal -0.9914448613738095 -0.13052619222005832 -5.551115123125783e-17
  outer loop
    vertex 86808.38636572946 62281.350032949624 -53490.24999999999
    vertex 86808.45451407702 62280.83239485941 -53493.24999999997
    vertex 86808.45451407693 62280.83239485941 -53490.25000000006
  endloop
endfacet
facet normal -0.9914448613738095 -0.13052619222005832 -5.551115123125783e-17
  outer loop
    vertex 86808.45451407702 62280.83239485941 -53493.24999999997
    vertex 86808.38636572946 62281.350032949624 -53490.24999999999
    vertex 86808.3863657295 62281.350032949624 -53493.249999999985
  endloop
endfacet
facet normal 0.9914448613738105 0.13052619222005132 5.551115123125783e-17
  outer loop
    vertex 86804.454514077 62264.83239485942 -53493.250000000065
    vertex 86804.52266242437 62264.31475676922 -53490.25000000005
    vertex 86804.52266242434 62264.31475676922 -53493.24999999999
  endloop
endfacet
facet normal 0.9914448613738105 0.13052619222005132 5.551115123125783e-17
  outer loop
    vertex 86804.52266242437 62264.31475676922 -53490.25000000005
    vertex 86804.454514077 62264.83239485942 -53493.250000000065
    vertex 86804.4545140769 62264.83239485942 -53490.25000000002
  endloop
endfacet
facet normal 0.923879532511291 0.3826834323650796 6.661338147750939e-16
  outer loop
    vertex 86804.52266242434 62280.314756769214 -53493.24999999999
    vertex 86804.72246326927 62279.83239485942 -53490.25000000008
    vertex 86804.72246326937 62279.83239485942 -53493.25000000001
  endloop
endfacet
facet normal 0.923879532511291 0.3826834323650796 6.661338147750939e-16
  outer loop
    vertex 86804.72246326927 62279.83239485942 -53490.25000000008
    vertex 86804.52266242434 62280.314756769214 -53493.24999999999
    vertex 86804.52266242437 62280.314756769214 -53490.25000000005
  endloop
endfacet
facet normal -0.9238795325112882 -0.3826834323650867 -1.1102230246251565e-16
  outer loop
    vertex 86808.18656488445 62265.832394859426 -53490.25
    vertex 86808.3863657295 62265.350032949624 -53493.249999999985
    vertex 86808.38636572946 62265.350032949624 -53490.24999999999
  endloop
endfacet
facet normal -0.9238795325112882 -0.3826834323650867 -1.1102230246251565e-16
  outer loop
    vertex 86808.3863657295 62265.350032949624 -53493.249999999985
    vertex 86808.18656488445 62265.832394859426 -53490.25
    vertex 86808.18656488456 62265.832394859426 -53493.25000000005
  endloop
endfacet
facet normal -0.9914448613738107 0.13052619222005024 -2.220446049250313e-16
  outer loop
    vertex 86808.4204399032 62280.57357581432 -53490.25
    vertex 86808.3863657295 62280.314756769214 -53493.249999999985
    vertex 86808.38636572946 62280.314756769214 -53490.24999999999
  endloop
endfacet
facet normal -0.9914448613738107 0.13052619222005024 -2.220446049250313e-16
  outer loop
    vertex 86808.3863657295 62280.314756769214 -53493.249999999985
    vertex 86808.4204399032 62280.57357581432 -53490.25
    vertex 86808.42043990328 62280.57357581432 -53493.25000000003
  endloop
endfacet
facet normal 0.13052619222003026 0.9914448613738133 -4.163336342344337e-16
  outer loop
    vertex 86805.93687598674 62262.900543206844 -53493.24999999997
    vertex 86806.45451407685 62262.83239485942 -53490.24999999996
    vertex 86806.454514077 62262.83239485942 -53493.250000000044
  endloop
endfacet
facet normal 0.13052619222003026 0.9914448613738133 -4.163336342344337e-16
  outer loop
    vertex 86806.45451407685 62262.83239485942 -53490.24999999996
    vertex 86805.93687598674 62262.900543206844 -53493.24999999997
    vertex 86805.93687598666 62262.900543206844 -53490.24999999999
  endloop
endfacet
facet normal 0.3826834323651187 0.9238795325112749 -5.551115123125783e-17
  outer loop
    vertex 86805.45451407692 62279.10034405185 -53490.24999999996
    vertex 86805.93687598674 62278.90054320684 -53493.24999999997
    vertex 86805.45451407698 62279.10034405185 -53493.25000000002
  endloop
endfacet
facet normal 0.3826834323651187 0.9238795325112749 -5.551115123125783e-17
  outer loop
    vertex 86805.93687598674 62278.90054320684 -53493.24999999997
    vertex 86805.45451407692 62279.10034405185 -53490.24999999996
    vertex 86805.93687598666 62278.90054320684 -53490.24999999999
  endloop
endfacet
facet normal 0.7933533402912408 0.6087614290087132 7.771561172376096e-16
  outer loop
    vertex 86804.72246326937 62263.832394859426 -53493.25000000001
    vertex 86805.04030051455 62263.41818129705 -53490.25000000007
    vertex 86805.04030051459 62263.41818129705 -53493.250000000044
  endloop
endfacet
facet normal 0.7933533402912408 0.6087614290087132 7.771561172376096e-16
  outer loop
    vertex 86805.04030051455 62263.41818129705 -53490.25000000007
    vertex 86804.72246326937 62263.832394859426 -53493.25000000001
    vertex 86804.72246326927 62263.832394859426 -53490.25000000008
  endloop
endfacet
facet normal -0.7933533402912416 0.6087614290087123 -1.1102230246251565e-15
  outer loop
    vertex 86808.18656488445 62279.83239485942 -53490.25
    vertex 86807.86872763942 62279.41818129705 -53493.25000000002
    vertex 86807.8687276393 62279.41818129705 -53490.250000000015
  endloop
endfacet
facet normal -0.7933533402912416 0.6087614290087123 -1.1102230246251565e-15
  outer loop
    vertex 86807.86872763942 62279.41818129705 -53493.25000000002
    vertex 86808.18656488445 62279.83239485942 -53490.25
    vertex 86808.18656488456 62279.83239485942 -53493.25000000005
  endloop
endfacet
facet normal -0.3826834323651015 0.9238795325112819 -3.0531133177191805e-16
  outer loop
    vertex 86806.97215216715 62262.900543206844 -53490.24999999996
    vertex 86807.45451407695 62263.100344051854 -53493.24999999999
    vertex 86806.97215216722 62262.900543206844 -53493.25000000001
  endloop
endfacet
facet normal -0.3826834323651015 0.9238795325112819 -3.0531133177191805e-16
  outer loop
    vertex 86807.45451407695 62263.100344051854 -53493.24999999999
    vertex 86806.97215216715 62262.900543206844 -53490.24999999996
    vertex 86807.45451407688 62263.100344051854 -53490.24999999999
  endloop
endfacet
facet normal 5.82867087928207e-16 -1.0 4.9960036108132e-16
  outer loop
    vertex 86814.70451407696 62260.83239485942 -53493.25000000009
    vertex 86798.20451407695 62260.83239485942 -53490.250000000015
    vertex 86798.20451407693 62260.83239485942 -53493.25000000011
  endloop
endfacet
facet normal 5.82867087928207e-16 -1.0 4.9960036108132e-16
  outer loop
    vertex 86798.20451407695 62260.83239485942 -53490.250000000015
    vertex 86814.70451407696 62260.83239485942 -53493.25000000009
    vertex 86814.70451407685 62260.83239485942 -53490.25000000006
  endloop
endfacet
facet normal 0.9238795325112803 0.3826834323651057 -2.220446049250313e-16
  outer loop
    vertex 86804.52266242434 62264.31475676922 -53493.24999999999
    vertex 86804.72246326927 62263.832394859426 -53490.25000000008
    vertex 86804.72246326937 62263.832394859426 -53493.25000000001
  endloop
endfacet
facet normal 0.9238795325112803 0.3826834323651057 -2.220446049250313e-16
  outer loop
    vertex 86804.72246326927 62263.832394859426 -53490.25000000008
    vertex 86804.52266242434 62264.31475676922 -53493.24999999999
    vertex 86804.52266242437 62264.31475676922 -53490.25000000005
  endloop
endfacet
facet normal 0.9238795325112914 -0.3826834323650789 7.216449660063518e-16
  outer loop
    vertex 86804.72246326937 62281.83239485942 -53493.25000000001
    vertex 86804.52266242437 62281.350032949624 -53490.25000000005
    vertex 86804.52266242434 62281.350032949624 -53493.24999999999
  endloop
endfacet
facet normal 0.9238795325112914 -0.3826834323650789 7.216449660063518e-16
  outer loop
    vertex 86804.52266242437 62281.350032949624 -53490.25000000005
    vertex 86804.72246326937 62281.83239485942 -53493.25000000001
    vertex 86804.72246326927 62281.83239485942 -53490.25000000008
  endloop
endfacet
facet normal -0.7933533402912359 0.6087614290087198 -7.771561172376096e-16
  outer loop
    vertex 86808.18656488445 62263.832394859426 -53490.25
    vertex 86807.86872763942 62263.41818129705 -53493.25000000002
    vertex 86807.8687276393 62263.41818129705 -53490.250000000015
  endloop
endfacet
facet normal -0.7933533402912359 0.6087614290087198 -7.771561172376096e-16
  outer loop
    vertex 86807.86872763942 62263.41818129705 -53493.25000000002
    vertex 86808.18656488445 62263.832394859426 -53490.25
    vertex 86808.18656488456 62263.832394859426 -53493.25000000005
  endloop
endfacet
facet normal 0.13052619222003026 0.9914448613738133 -4.163336342344337e-16
  outer loop
    vertex 86805.93687598674 62278.90054320684 -53493.24999999997
    vertex 86806.45451407685 62278.83239485941 -53490.24999999996
    vertex 86806.454514077 62278.83239485941 -53493.250000000044
  endloop
endfacet
facet normal 0.13052619222003026 0.9914448613738133 -4.163336342344337e-16
  outer loop
    vertex 86806.45451407685 62278.83239485941 -53490.24999999996
    vertex 86805.93687598674 62278.90054320684 -53493.24999999997
    vertex 86805.93687598666 62278.90054320684 -53490.24999999999
  endloop
endfacet
facet normal -0.9914448613738107 0.13052619222005024 -2.220446049250313e-16
  outer loop
    vertex 86808.45451407693 62280.83239485941 -53490.25000000006
    vertex 86808.42043990328 62280.57357581432 -53493.25000000003
    vertex 86808.4204399032 62280.57357581432 -53490.25
  endloop
endfacet
facet normal -0.9914448613738107 0.13052619222005024 -2.220446049250313e-16
  outer loop
    vertex 86808.42043990328 62280.57357581432 -53493.25000000003
    vertex 86808.45451407693 62280.83239485941 -53490.25000000006
    vertex 86808.45451407702 62280.83239485941 -53493.24999999997
  endloop
endfacet
facet normal 0.13052619222005118 -0.9914448613738105 6.938893903907228e-16
  outer loop
    vertex 86806.45451407685 62266.83239485942 -53490.24999999996
    vertex 86805.93687598674 62266.76424651199 -53493.24999999997
    vertex 86806.454514077 62266.83239485942 -53493.250000000044
  endloop
endfacet
facet normal 0.13052619222005118 -0.9914448613738105 6.938893903907228e-16
  outer loop
    vertex 86805.93687598674 62266.76424651199 -53493.24999999997
    vertex 86806.45451407685 62266.83239485942 -53490.24999999996
    vertex 86805.93687598666 62266.76424651199 -53490.24999999999
  endloop
endfacet
facet normal -0.38268343236511954 0.9238795325112744 -2.498001805406602e-16
  outer loop
    vertex 86806.97215216715 62278.90054320684 -53490.24999999996
    vertex 86807.45451407695 62279.10034405185 -53493.24999999999
    vertex 86806.97215216722 62278.90054320684 -53493.25000000001
  endloop
endfacet
facet normal -0.38268343236511954 0.9238795325112744 -2.498001805406602e-16
  outer loop
    vertex 86807.45451407695 62279.10034405185 -53493.24999999999
    vertex 86806.97215216715 62278.90054320684 -53490.24999999996
    vertex 86807.45451407688 62279.10034405185 -53490.24999999999
  endloop
endfacet
facet normal -0.13052619222003145 0.991444861373813 -4.926614671774132e-16
  outer loop
    vertex 86806.45451407685 62262.83239485942 -53490.24999999996
    vertex 86806.97215216722 62262.900543206844 -53493.25000000001
    vertex 86806.454514077 62262.83239485942 -53493.250000000044
  endloop
endfacet
facet normal -0.13052619222003145 0.991444861373813 -4.926614671774132e-16
  outer loop
    vertex 86806.97215216722 62262.900543206844 -53493.25000000001
    vertex 86806.45451407685 62262.83239485942 -53490.24999999996
    vertex 86806.97215216715 62262.900543206844 -53490.24999999996
  endloop
endfacet
facet normal 0.7933533402912311 0.608761429008726 7.771561172376096e-16
  outer loop
    vertex 86804.72246326937 62279.83239485942 -53493.25000000001
    vertex 86805.04030051455 62279.41818129705 -53490.25000000007
    vertex 86805.04030051459 62279.41818129705 -53493.250000000044
  endloop
endfacet
facet normal 0.7933533402912311 0.608761429008726 7.771561172376096e-16
  outer loop
    vertex 86805.04030051455 62279.41818129705 -53490.25000000007
    vertex 86804.72246326937 62279.83239485942 -53493.25000000001
    vertex 86804.72246326927 62279.83239485942 -53490.25000000008
  endloop
endfacet
facet normal 0.13052619222007383 -0.9914448613738075 4.440892098500626e-16
  outer loop
    vertex 86806.45451407685 62282.832394859426 -53490.24999999996
    vertex 86805.93687598674 62282.764246512 -53493.24999999997
    vertex 86806.454514077 62282.832394859426 -53493.250000000044
  endloop
endfacet
facet normal 0.13052619222007383 -0.9914448613738075 4.440892098500626e-16
  outer loop
    vertex 86805.93687598674 62282.764246512 -53493.24999999997
    vertex 86806.45451407685 62282.832394859426 -53490.24999999996
    vertex 86805.93687598666 62282.764246512 -53490.24999999999
  endloop
endfacet
facet normal 0.38268343236510033 0.9238795325112824 -2.7755575615628914e-16
  outer loop
    vertex 86805.45451407692 62263.100344051854 -53490.24999999996
    vertex 86805.93687598674 62262.900543206844 -53493.24999999997
    vertex 86805.45451407698 62263.100344051854 -53493.25000000002
  endloop
endfacet
facet normal 0.38268343236510033 0.9238795325112824 -2.7755575615628914e-16
  outer loop
    vertex 86805.93687598674 62262.900543206844 -53493.24999999997
    vertex 86805.45451407692 62263.100344051854 -53490.24999999996
    vertex 86805.93687598666 62262.900543206844 -53490.24999999999
  endloop
endfacet
facet normal 0.6087614290087338 0.7933533402912253 6.661338147750939e-16
  outer loop
    vertex 86805.04030051455 62279.41818129705 -53490.25000000007
    vertex 86805.45451407698 62279.10034405185 -53493.25000000002
    vertex 86805.04030051459 62279.41818129705 -53493.250000000044
  endloop
endfacet
facet normal 0.6087614290087338 0.7933533402912253 6.661338147750939e-16
  outer loop
    vertex 86805.45451407698 62279.10034405185 -53493.25000000002
    vertex 86805.04030051455 62279.41818129705 -53490.25000000007
    vertex 86805.45451407692 62279.10034405185 -53490.24999999996
  endloop
endfacet
facet normal 0.9238795325112805 -0.38268343236510466 3.885780586188048e-16
  outer loop
    vertex 86804.72246326937 62265.832394859426 -53493.25000000001
    vertex 86804.52266242437 62265.350032949624 -53490.25000000005
    vertex 86804.52266242434 62265.350032949624 -53493.24999999999
  endloop
endfacet
facet normal 0.9238795325112805 -0.38268343236510466 3.885780586188048e-16
  outer loop
    vertex 86804.52266242437 62265.350032949624 -53490.25000000005
    vertex 86804.72246326937 62265.832394859426 -53493.25000000001
    vertex 86804.72246326927 62265.832394859426 -53490.25000000008
  endloop
endfacet
facet normal -0.13052619222002995 0.9914448613738133 -3.2612801348363973e-16
  outer loop
    vertex 86806.45451407685 62278.83239485941 -53490.24999999996
    vertex 86806.97215216722 62278.90054320684 -53493.25000000001
    vertex 86806.454514077 62278.83239485941 -53493.250000000044
  endloop
endfacet
facet normal -0.13052619222002995 0.9914448613738133 -3.2612801348363973e-16
  outer loop
    vertex 86806.97215216722 62278.90054320684 -53493.25000000001
    vertex 86806.45451407685 62278.83239485941 -53490.24999999996
    vertex 86806.97215216715 62278.90054320684 -53490.24999999996
  endloop
endfacet
facet normal -0.6087614290087315 0.793353340291227 -1.1379786002407855e-15
  outer loop
    vertex 86807.45451407695 62279.10034405185 -53493.24999999999
    vertex 86807.8687276393 62279.41818129705 -53490.250000000015
    vertex 86807.86872763942 62279.41818129705 -53493.25000000002
  endloop
endfacet
facet normal -0.6087614290087315 0.793353340291227 -1.1379786002407855e-15
  outer loop
    vertex 86807.8687276393 62279.41818129705 -53490.250000000015
    vertex 86807.45451407695 62279.10034405185 -53493.24999999999
    vertex 86807.45451407688 62279.10034405185 -53490.24999999999
  endloop
endfacet
facet normal -0.1305261922200514 -0.9914448613738105 4.718447854656915e-16
  outer loop
    vertex 86806.97215216722 62266.76424651199 -53493.25000000001
    vertex 86806.45451407685 62266.83239485942 -53490.24999999996
    vertex 86806.454514077 62266.83239485942 -53493.250000000044
  endloop
endfacet
facet normal -0.1305261922200514 -0.9914448613738105 4.718447854656915e-16
  outer loop
    vertex 86806.45451407685 62266.83239485942 -53490.24999999996
    vertex 86806.97215216722 62266.76424651199 -53493.25000000001
    vertex 86806.97215216715 62266.76424651199 -53490.24999999996
  endloop
endfacet
facet normal -0.7933533402912408 -0.6087614290087132 -7.771561172376096e-16
  outer loop
    vertex 86807.8687276393 62282.24660842179 -53490.250000000015
    vertex 86808.18656488456 62281.83239485942 -53493.25000000005
    vertex 86808.18656488445 62281.83239485942 -53490.25
  endloop
endfacet
facet normal -0.7933533402912408 -0.6087614290087132 -7.771561172376096e-16
  outer loop
    vertex 86808.18656488456 62281.83239485942 -53493.25000000005
    vertex 86807.8687276393 62282.24660842179 -53490.250000000015
    vertex 86807.86872763942 62282.24660842179 -53493.25000000002
  endloop
endfacet
facet normal -1.0 0.0 -1.1102230246251563e-15
  outer loop
    vertex 86798.20451407695 62284.832394859426 -53490.250000000015
    vertex 86798.20451407693 62275.332394859426 -53493.24999999995
    vertex 86798.20451407695 62275.332394859426 -53490.250000000015
  endloop
endfacet
facet normal -1.0 0.0 -1.1102230246251563e-15
  outer loop
    vertex 86798.20451407693 62275.332394859426 -53493.24999999995
    vertex 86798.20451407695 62284.832394859426 -53490.250000000015
    vertex 86798.20451407693 62284.832394859426 -53493.25000000011
  endloop
endfacet
facet normal -1.1102230246251563e-15 0.0 1.0
  outer loop
    vertex 86866.45451407689 62270.33239485942 -53350.24999999996
    vertex 86746.45451407686 62275.332394859426 -53350.25000000002
    vertex 86746.45451407686 62270.33239485942 -53350.25000000002
  endloop
endfacet
facet normal -1.1102230246251563e-15 0.0 1.0
  outer loop
    vertex 86746.45451407686 62275.332394859426 -53350.25000000002
    vertex 86866.45451407689 62270.33239485942 -53350.24999999996
    vertex 86866.45451407689 62275.332394859426 -53350.24999999996
  endloop
endfacet
facet normal 0.0 -1.0 0.0
  outer loop
    vertex 86866.45451407682 62270.33239485942 -53493.249999999854
    vertex 86814.70451407685 62270.33239485942 -53490.25000000006
    vertex 86814.70451407693 62270.33239485942 -53493.250000000065
  endloop
endfacet
facet normal 0.0 -1.0 0.0
  outer loop
    vertex 86814.70451407685 62270.33239485942 -53490.25000000006
    vertex 86866.45451407682 62270.33239485942 -53493.249999999854
    vertex 86866.45451407689 62270.33239485942 -53350.24999999996
  endloop
endfacet
facet normal 0.0 -1.0 0.0
  outer loop
    vertex 86814.70451407685 62270.33239485942 -53490.25000000006
    vertex 86866.45451407689 62270.33239485942 -53350.24999999996
    vertex 86798.20451407695 62270.33239485942 -53490.250000000015
  endloop
endfacet
facet normal 0.0 -1.0 0.0
  outer loop
    vertex 86798.20451407695 62270.33239485942 -53490.250000000015
    vertex 86866.45451407689 62270.33239485942 -53350.24999999996
    vertex 86746.45451407686 62270.33239485942 -53350.25000000002
  endloop
endfacet
facet normal 0.0 -1.0 0.0
  outer loop
    vertex 86798.20451407695 62270.33239485942 -53490.250000000015
    vertex 86746.45451407696 62270.33239485942 -53493.249999999876
    vertex 86798.20451407693 62270.33239485942 -53493.24999999995
  endloop
endfacet
facet normal 0.0 -1.0 0.0
  outer loop
    vertex 86746.45451407696 62270.33239485942 -53493.249999999876
    vertex 86798.20451407695 62270.33239485942 -53490.250000000015
    vertex 86746.45451407686 62270.33239485942 -53350.25000000002
  endloop
endfacet
facet normal 1.1102230246251563e-15 0.0 -1.0
  outer loop
    vertex 86866.45451407682 62275.332394859426 -53493.249999999854
    vertex 86814.70451407693 62270.33239485942 -53493.250000000065
    vertex 86814.70451407693 62275.332394859426 -53493.250000000065
  endloop
endfacet
facet normal 1.1102230246251563e-15 0.0 -1.0
  outer loop
    vertex 86814.70451407693 62270.33239485942 -53493.250000000065
    vertex 86866.45451407682 62275.332394859426 -53493.249999999854
    vertex 86866.45451407682 62270.33239485942 -53493.249999999854
  endloop
endfacet
facet normal 1.0 0.0 1.1102230246251563e-15
  outer loop
    vertex 86866.45451407682 62275.332394859426 -53493.249999999854
    vertex 86866.45451407689 62270.33239485942 -53350.24999999996
    vertex 86866.45451407682 62270.33239485942 -53493.249999999854
  endloop
endfacet
facet normal 1.0 0.0 1.1102230246251563e-15
  outer loop
    vertex 86866.45451407689 62270.33239485942 -53350.24999999996
    vertex 86866.45451407682 62275.332394859426 -53493.249999999854
    vertex 86866.45451407689 62275.332394859426 -53350.24999999996
  endloop
endfacet
facet normal 1.0 0.0 1.1102230246251563e-15
  outer loop
    vertex 86814.70451407693 62270.33239485942 -53493.250000000065
    vertex 86814.70451407685 62260.83239485942 -53490.25000000006
    vertex 86814.70451407696 62260.83239485942 -53493.25000000009
  endloop
endfacet
facet normal 1.0 0.0 1.1102230246251563e-15
  outer loop
    vertex 86814.70451407685 62260.83239485942 -53490.25000000006
    vertex 86814.70451407693 62270.33239485942 -53493.250000000065
    vertex 86814.70451407685 62270.33239485942 -53490.25000000006
  endloop
endfacet
facet normal 1.1102230246251563e-15 0.0 -1.0
  outer loop
    vertex 86798.20451407693 62275.332394859426 -53493.24999999995
    vertex 86746.45451407696 62270.33239485942 -53493.249999999876
    vertex 86746.45451407696 62275.332394859426 -53493.249999999876
  endloop
endfacet
facet normal 1.1102230246251563e-15 0.0 -1.0
  outer loop
    vertex 86746.45451407696 62270.33239485942 -53493.249999999876
    vertex 86798.20451407693 62275.332394859426 -53493.24999999995
    vertex 86798.20451407693 62270.33239485942 -53493.24999999995
  endloop
endfacet
facet normal -1.0 0.0 -1.1102230246251563e-15
  outer loop
    vertex 86746.45451407686 62275.332394859426 -53350.25000000002
    vertex 86746.45451407696 62270.33239485942 -53493.249999999876
    vertex 86746.45451407686 62270.33239485942 -53350.25000000002
  endloop
endfacet
facet normal -1.0 0.0 -1.1102230246251563e-15
  outer loop
    vertex 86746.45451407696 62270.33239485942 -53493.249999999876
    vertex 86746.45451407686 62275.332394859426 -53350.25000000002
    vertex 86746.45451407696 62275.332394859426 -53493.249999999876
  endloop
endfacet
facet normal -1.1102230246251563e-15 0.0 1.0
  outer loop
    vertex 86798.20451407695 62260.83239485942 -53490.250000000015
    vertex 86805.04030051455 62263.41818129705 -53490.25000000007
    vertex 86798.20451407695 62270.33239485942 -53490.250000000015
  endloop
endfacet
facet normal -1.1102230246251563e-15 0.0 1.0
  outer loop
    vertex 86805.04030051455 62263.41818129705 -53490.25000000007
    vertex 86798.20451407695 62260.83239485942 -53490.250000000015
    vertex 86805.45451407692 62263.100344051854 -53490.24999999996
  endloop
endfacet
facet normal -1.1102230246251563e-15 0.0 1.0
  outer loop
    vertex 86805.45451407692 62263.100344051854 -53490.24999999996
    vertex 86798.20451407695 62260.83239485942 -53490.250000000015
    vertex 86805.93687598666 62262.900543206844 -53490.24999999999
  endloop
endfacet
facet normal -1.1102230246251563e-15 0.0 1.0
  outer loop
    vertex 86805.93687598666 62262.900543206844 -53490.24999999999
    vertex 86798.20451407695 62260.83239485942 -53490.250000000015
    vertex 86814.70451407685 62260.83239485942 -53490.25000000006
  endloop
endfacet
facet normal -1.1102230246251563e-15 0.0 1.0
  outer loop
    vertex 86798.20451407695 62270.33239485942 -53490.250000000015
    vertex 86805.04030051455 62263.41818129705 -53490.25000000007
    vertex 86804.72246326927 62263.832394859426 -53490.25000000008
  endloop
endfacet
facet normal -1.1102230246251563e-15 0.0 1.0
  outer loop
    vertex 86798.20451407695 62270.33239485942 -53490.250000000015
    vertex 86804.72246326927 62263.832394859426 -53490.25000000008
    vertex 86804.52266242437 62264.31475676922 -53490.25000000005
  endloop
endfacet
facet normal -1.1102230246251563e-15 0.0 1.0
  outer loop
    vertex 86798.20451407695 62270.33239485942 -53490.250000000015
    vertex 86804.52266242437 62264.31475676922 -53490.25000000005
    vertex 86804.4545140769 62264.83239485942 -53490.25000000002
  endloop
endfacet
facet normal -1.1102230246251563e-15 0.0 1.0
  outer loop
    vertex 86805.93687598666 62262.900543206844 -53490.24999999999
    vertex 86814.70451407685 62260.83239485942 -53490.25000000006
    vertex 86806.45451407685 62262.83239485942 -53490.24999999996
  endloop
endfacet
facet normal -1.1102230246251563e-15 0.0 1.0
  outer loop
    vertex 86806.45451407685 62262.83239485942 -53490.24999999996
    vertex 86814.70451407685 62260.83239485942 -53490.25000000006
    vertex 86806.97215216715 62262.900543206844 -53490.24999999996
  endloop
endfacet
facet normal -1.1102230246251563e-15 0.0 1.0
  outer loop
    vertex 86806.97215216715 62262.900543206844 -53490.24999999996
    vertex 86814.70451407685 62260.83239485942 -53490.25000000006
    vertex 86807.45451407688 62263.100344051854 -53490.24999999999
  endloop
endfacet
facet normal -1.1102230246251563e-15 0.0 1.0
  outer loop
    vertex 86807.45451407688 62263.100344051854 -53490.24999999999
    vertex 86814.70451407685 62260.83239485942 -53490.25000000006
    vertex 86807.8687276393 62263.41818129705 -53490.250000000015
  endloop
endfacet
facet normal -1.1102230246251563e-15 0.0 1.0
  outer loop
    vertex 86807.8687276393 62263.41818129705 -53490.250000000015
    vertex 86814.70451407685 62260.83239485942 -53490.25000000006
    vertex 86808.18656488445 62263.832394859426 -53490.25
  endloop
endfacet
facet normal -1.1102230246251563e-15 0.0 1.0
  outer loop
    vertex 86808.18656488445 62263.832394859426 -53490.25
    vertex 86814.70451407685 62260.83239485942 -53490.25000000006
    vertex 86808.38636572946 62264.31475676922 -53490.24999999999
  endloop
endfacet
facet normal -1.1102230246251563e-15 0.0 1.0
  outer loop
    vertex 86808.38636572946 62264.31475676922 -53490.24999999999
    vertex 86814.70451407685 62260.83239485942 -53490.25000000006
    vertex 86808.45451407693 62264.83239485942 -53490.25000000006
  endloop
endfacet
facet normal -1.1102230246251563e-15 0.0 1.0
  outer loop
    vertex 86798.20451407695 62270.33239485942 -53490.250000000015
    vertex 86805.93687598666 62266.76424651199 -53490.24999999999
    vertex 86814.70451407685 62270.33239485942 -53490.25000000006
  endloop
endfacet
facet normal -1.1102230246251563e-15 0.0 1.0
  outer loop
    vertex 86805.93687598666 62266.76424651199 -53490.24999999999
    vertex 86798.20451407695 62270.33239485942 -53490.250000000015
    vertex 86805.45451407692 62266.56444566698 -53490.24999999996
  endloop
endfacet
facet normal -1.1102230246251563e-15 0.0 1.0
  outer loop
    vertex 86805.45451407692 62266.56444566698 -53490.24999999996
    vertex 86798.20451407695 62270.33239485942 -53490.250000000015
    vertex 86805.04030051455 62266.246608421796 -53490.25000000007
  endloop
endfacet
facet normal -1.1102230246251563e-15 0.0 1.0
  outer loop
    vertex 86805.04030051455 62266.246608421796 -53490.25000000007
    vertex 86798.20451407695 62270.33239485942 -53490.250000000015
    vertex 86804.72246326927 62265.832394859426 -53490.25000000008
  endloop
endfacet
facet normal -1.1102230246251563e-15 0.0 1.0
  outer loop
    vertex 86804.72246326927 62265.832394859426 -53490.25000000008
    vertex 86798.20451407695 62270.33239485942 -53490.250000000015
    vertex 86804.52266242437 62265.350032949624 -53490.25000000005
  endloop
endfacet
facet normal -1.1102230246251563e-15 0.0 1.0
  outer loop
    vertex 86804.52266242437 62265.350032949624 -53490.25000000005
    vertex 86798.20451407695 62270.33239485942 -53490.250000000015
    vertex 86804.48858825053 62265.091213904525 -53490.24999999996
  endloop
endfacet
facet normal -1.1102230246251563e-15 0.0 1.0
  outer loop
    vertex 86804.48858825053 62265.091213904525 -53490.24999999996
    vertex 86798.20451407695 62270.33239485942 -53490.250000000015
    vertex 86804.4545140769 62264.83239485942 -53490.25000000002
  endloop
endfacet
facet normal -1.1102230246251563e-15 0.0 1.0
  outer loop
    vertex 86814.70451407685 62270.33239485942 -53490.25000000006
    vertex 86805.93687598666 62266.76424651199 -53490.24999999999
    vertex 86806.45451407685 62266.83239485942 -53490.24999999996
  endloop
endfacet
facet normal -1.1102230246251563e-15 0.0 1.0
  outer loop
    vertex 86814.70451407685 62270.33239485942 -53490.25000000006
    vertex 86806.45451407685 62266.83239485942 -53490.24999999996
    vertex 86806.97215216715 62266.76424651199 -53490.24999999996
  endloop
endfacet
facet normal -1.1102230246251563e-15 0.0 1.0
  outer loop
    vertex 86814.70451407685 62270.33239485942 -53490.25000000006
    vertex 86806.97215216715 62266.76424651199 -53490.24999999996
    vertex 86807.45451407688 62266.56444566698 -53490.24999999999
  endloop
endfacet
facet normal -1.1102230246251563e-15 0.0 1.0
  outer loop
    vertex 86814.70451407685 62270.33239485942 -53490.25000000006
    vertex 86807.45451407688 62266.56444566698 -53490.24999999999
    vertex 86807.8687276393 62266.246608421796 -53490.250000000015
  endloop
endfacet
facet normal -1.1102230246251563e-15 0.0 1.0
  outer loop
    vertex 86814.70451407685 62270.33239485942 -53490.25000000006
    vertex 86807.8687276393 62266.246608421796 -53490.250000000015
    vertex 86808.18656488445 62265.832394859426 -53490.25
  endloop
endfacet
facet normal -1.1102230246251563e-15 0.0 1.0
  outer loop
    vertex 86814.70451407685 62270.33239485942 -53490.25000000006
    vertex 86808.18656488445 62265.832394859426 -53490.25
    vertex 86808.38636572946 62265.350032949624 -53490.24999999999
  endloop
endfacet
facet normal -1.1102230246251563e-15 0.0 1.0
  outer loop
    vertex 86814.70451407685 62270.33239485942 -53490.25000000006
    vertex 86808.38636572946 62265.350032949624 -53490.24999999999
    vertex 86808.4204399032 62265.091213904525 -53490.25
  endloop
endfacet
facet normal -1.1102230246251563e-15 0.0 1.0
  outer loop
    vertex 86814.70451407685 62270.33239485942 -53490.25000000006
    vertex 86808.4204399032 62265.091213904525 -53490.25
    vertex 86808.45451407693 62264.83239485942 -53490.25000000006
  endloop
endfacet
facet normal -1.1102230246251563e-15 0.0 1.0
  outer loop
    vertex 86814.70451407685 62270.33239485942 -53490.25000000006
    vertex 86808.45451407693 62264.83239485942 -53490.25000000006
    vertex 86814.70451407685 62260.83239485942 -53490.25000000006
  endloop
endfacet
facet normal -1.1102230246251563e-15 0.0 1.0
  outer loop
    vertex 86798.20451407695 62275.332394859426 -53490.250000000015
    vertex 86805.04030051455 62279.41818129705 -53490.25000000007
    vertex 86798.20451407695 62284.832394859426 -53490.250000000015
  endloop
endfacet
facet normal -1.1102230246251563e-15 0.0 1.0
  outer loop
    vertex 86805.04030051455 62279.41818129705 -53490.25000000007
    vertex 86798.20451407695 62275.332394859426 -53490.250000000015
    vertex 86805.45451407692 62279.10034405185 -53490.24999999996
  endloop
endfacet
facet normal -1.1102230246251563e-15 0.0 1.0
  outer loop
    vertex 86805.45451407692 62279.10034405185 -53490.24999999996
    vertex 86798.20451407695 62275.332394859426 -53490.250000000015
    vertex 86805.93687598666 62278.90054320684 -53490.24999999999
  endloop
endfacet
facet normal -1.1102230246251563e-15 0.0 1.0
  outer loop
    vertex 86805.93687598666 62278.90054320684 -53490.24999999999
    vertex 86798.20451407695 62275.332394859426 -53490.250000000015
    vertex 86814.70451407685 62275.332394859426 -53490.25000000006
  endloop
endfacet
facet normal -1.1102230246251563e-15 0.0 1.0
  outer loop
    vertex 86798.20451407695 62284.832394859426 -53490.250000000015
    vertex 86805.04030051455 62279.41818129705 -53490.25000000007
    vertex 86804.72246326927 62279.83239485942 -53490.25000000008
  endloop
endfacet
facet normal -1.1102230246251563e-15 0.0 1.0
  outer loop
    vertex 86798.20451407695 62284.832394859426 -53490.250000000015
    vertex 86804.72246326927 62279.83239485942 -53490.25000000008
    vertex 86804.52266242437 62280.314756769214 -53490.25000000005
  endloop
endfacet
facet normal -1.1102230246251563e-15 0.0 1.0
  outer loop
    vertex 86798.20451407695 62284.832394859426 -53490.250000000015
    vertex 86804.52266242437 62280.314756769214 -53490.25000000005
    vertex 86804.48858825053 62280.57357581432 -53490.24999999996
  endloop
endfacet
facet normal -1.1102230246251563e-15 0.0 1.0
  outer loop
    vertex 86798.20451407695 62284.832394859426 -53490.250000000015
    vertex 86804.48858825053 62280.57357581432 -53490.24999999996
    vertex 86804.4545140769 62280.83239485941 -53490.25000000002
  endloop
endfacet
facet normal -1.1102230246251563e-15 0.0 1.0
  outer loop
    vertex 86805.93687598666 62278.90054320684 -53490.24999999999
    vertex 86814.70451407685 62275.332394859426 -53490.25000000006
    vertex 86806.45451407685 62278.83239485941 -53490.24999999996
  endloop
endfacet
facet normal -1.1102230246251563e-15 0.0 1.0
  outer loop
    vertex 86806.45451407685 62278.83239485941 -53490.24999999996
    vertex 86814.70451407685 62275.332394859426 -53490.25000000006
    vertex 86806.97215216715 62278.90054320684 -53490.24999999996
  endloop
endfacet
facet normal -1.1102230246251563e-15 0.0 1.0
  outer loop
    vertex 86806.97215216715 62278.90054320684 -53490.24999999996
    vertex 86814.70451407685 62275.332394859426 -53490.25000000006
    vertex 86807.45451407688 62279.10034405185 -53490.24999999999
  endloop
endfacet
facet normal -1.1102230246251563e-15 0.0 1.0
  outer loop
    vertex 86807.45451407688 62279.10034405185 -53490.24999999999
    vertex 86814.70451407685 62275.332394859426 -53490.25000000006
    vertex 86807.8687276393 62279.41818129705 -53490.250000000015
  endloop
endfacet
facet normal -1.1102230246251563e-15 0.0 1.0
  outer loop
    vertex 86807.8687276393 62279.41818129705 -53490.250000000015
    vertex 86814.70451407685 62275.332394859426 -53490.25000000006
    vertex 86808.18656488445 62279.83239485942 -53490.25
  endloop
endfacet
facet normal -1.1102230246251563e-15 0.0 1.0
  outer loop
    vertex 86808.18656488445 62279.83239485942 -53490.25
    vertex 86814.70451407685 62275.332394859426 -53490.25000000006
    vertex 86808.38636572946 62280.314756769214 -53490.24999999999
  endloop
endfacet
facet normal -1.1102230246251563e-15 0.0 1.0
  outer loop
    vertex 86808.38636572946 62280.314756769214 -53490.24999999999
    vertex 86814.70451407685 62275.332394859426 -53490.25000000006
    vertex 86808.4204399032 62280.57357581432 -53490.25
  endloop
endfacet
facet normal -1.1102230246251563e-15 0.0 1.0
  outer loop
    vertex 86808.4204399032 62280.57357581432 -53490.25
    vertex 86814.70451407685 62275.332394859426 -53490.25000000006
    vertex 86808.45451407693 62280.83239485941 -53490.25000000006
  endloop
endfacet
facet normal -1.1102230246251563e-15 0.0 1.0
  outer loop
    vertex 86798.20451407695 62284.832394859426 -53490.250000000015
    vertex 86805.93687598666 62282.764246512 -53490.24999999999
    vertex 86814.70451407685 62284.832394859426 -53490.25000000006
  endloop
endfacet
facet normal -1.1102230246251563e-15 0.0 1.0
  outer loop
    vertex 86805.93687598666 62282.764246512 -53490.24999999999
    vertex 86798.20451407695 62284.832394859426 -53490.250000000015
    vertex 86805.45451407692 62282.56444566699 -53490.24999999996
  endloop
endfacet
facet normal -1.1102230246251563e-15 0.0 1.0
  outer loop
    vertex 86805.45451407692 62282.56444566699 -53490.24999999996
    vertex 86798.20451407695 62284.832394859426 -53490.250000000015
    vertex 86805.04030051455 62282.24660842179 -53490.25000000007
  endloop
endfacet
facet normal -1.1102230246251563e-15 0.0 1.0
  outer loop
    vertex 86805.04030051455 62282.24660842179 -53490.25000000007
    vertex 86798.20451407695 62284.832394859426 -53490.250000000015
    vertex 86804.72246326927 62281.83239485942 -53490.25000000008
  endloop
endfacet
facet normal -1.1102230246251563e-15 0.0 1.0
  outer loop
    vertex 86804.72246326927 62281.83239485942 -53490.25000000008
    vertex 86798.20451407695 62284.832394859426 -53490.250000000015
    vertex 86804.52266242437 62281.350032949624 -53490.25000000005
  endloop
endfacet
facet normal -1.1102230246251563e-15 0.0 1.0
  outer loop
    vertex 86804.52266242437 62281.350032949624 -53490.25000000005
    vertex 86798.20451407695 62284.832394859426 -53490.250000000015
    vertex 86804.4545140769 62280.83239485941 -53490.25000000002
  endloop
endfacet
facet normal -1.1102230246251563e-15 0.0 1.0
  outer loop
    vertex 86814.70451407685 62284.832394859426 -53490.25000000006
    vertex 86805.93687598666 62282.764246512 -53490.24999999999
    vertex 86806.45451407685 62282.832394859426 -53490.24999999996
  endloop
endfacet
facet normal -1.1102230246251563e-15 0.0 1.0
  outer loop
    vertex 86814.70451407685 62284.832394859426 -53490.25000000006
    vertex 86806.45451407685 62282.832394859426 -53490.24999999996
    vertex 86806.97215216715 62282.764246512 -53490.24999999996
  endloop
endfacet
facet normal -1.1102230246251563e-15 0.0 1.0
  outer loop
    vertex 86814.70451407685 62284.832394859426 -53490.25000000006
    vertex 86806.97215216715 62282.764246512 -53490.24999999996
    vertex 86807.45451407688 62282.56444566699 -53490.24999999999
  endloop
endfacet
facet normal -1.1102230246251563e-15 0.0 1.0
  outer loop
    vertex 86814.70451407685 62284.832394859426 -53490.25000000006
    vertex 86807.45451407688 62282.56444566699 -53490.24999999999
    vertex 86807.8687276393 62282.24660842179 -53490.250000000015
  endloop
endfacet
facet normal -1.1102230246251563e-15 0.0 1.0
  outer loop
    vertex 86814.70451407685 62284.832394859426 -53490.25000000006
    vertex 86807.8687276393 62282.24660842179 -53490.250000000015
    vertex 86808.18656488445 62281.83239485942 -53490.25
  endloop
endfacet
facet normal -1.1102230246251563e-15 0.0 1.0
  outer loop
    vertex 86814.70451407685 62284.832394859426 -53490.25000000006
    vertex 86808.18656488445 62281.83239485942 -53490.25
    vertex 86808.38636572946 62281.350032949624 -53490.24999999999
  endloop
endfacet
facet normal -1.1102230246251563e-15 0.0 1.0
  outer loop
    vertex 86814.70451407685 62284.832394859426 -53490.25000000006
    vertex 86808.38636572946 62281.350032949624 -53490.24999999999
    vertex 86808.45451407693 62280.83239485941 -53490.25000000006
  endloop
endfacet
facet normal -1.1102230246251563e-15 0.0 1.0
  outer loop
    vertex 86814.70451407685 62284.832394859426 -53490.25000000006
    vertex 86808.45451407693 62280.83239485941 -53490.25000000006
    vertex 86814.70451407685 62275.332394859426 -53490.25000000006
  endloop
endfacet
facet normal 0.0 1.0 0.0
  outer loop
    vertex 86746.45451407696 62275.332394859426 -53493.249999999876
    vertex 86798.20451407695 62275.332394859426 -53490.250000000015
    vertex 86798.20451407693 62275.332394859426 -53493.24999999995
  endloop
endfacet
facet normal 0.0 1.0 0.0
  outer loop
    vertex 86798.20451407695 62275.332394859426 -53490.250000000015
    vertex 86746.45451407696 62275.332394859426 -53493.249999999876
    vertex 86746.45451407686 62275.332394859426 -53350.25000000002
  endloop
endfacet
facet normal 0.0 1.0 0.0
  outer loop
    vertex 86814.70451407685 62275.332394859426 -53490.25000000006
    vertex 86866.45451407682 62275.332394859426 -53493.249999999854
    vertex 86814.70451407693 62275.332394859426 -53493.250000000065
  endloop
endfacet
facet normal 0.0 1.0 0.0
  outer loop
    vertex 86866.45451407682 62275.332394859426 -53493.249999999854
    vertex 86814.70451407685 62275.332394859426 -53490.25000000006
    vertex 86866.45451407689 62275.332394859426 -53350.24999999996
  endloop
endfacet
facet normal 0.0 1.0 0.0
  outer loop
    vertex 86866.45451407689 62275.332394859426 -53350.24999999996
    vertex 86814.70451407685 62275.332394859426 -53490.25000000006
    vertex 86798.20451407695 62275.332394859426 -53490.250000000015
  endloop
endfacet
facet normal 0.0 1.0 0.0
  outer loop
    vertex 86866.45451407689 62275.332394859426 -53350.24999999996
    vertex 86798.20451407695 62275.332394859426 -53490.250000000015
    vertex 86746.45451407686 62275.332394859426 -53350.25000000002
  endloop
endfacet
endsolid AutoSave_BallServoLifter
