solid FTCField
facet normal 1.0 0.0 0.0
  outer loop
    vertex 437.92689360529204 328.9085299315158 2.0955000000000474
    vertex 437.92689360529204 324.4085299315157 62.24145672448831
    vertex 437.92689360529204 324.4085299315157 2.0955000000000474
  endloop
endfacet
facet normal 1.0 0.0 0.0
  outer loop
    vertex 437.92689360529204 324.4085299315157 62.24145672448831
    vertex 437.92689360529204 328.9085299315158 2.0955000000000474
    vertex 437.92689360529204 328.9085299315158 62.24145672448831
  endloop
endfacet
facet normal 0.0 -1.0 0.0
  outer loop
    vertex 437.92689360529204 324.4085299315157 62.24145672448831
    vertex 433.4268936052921 324.4085299315157 2.0955000000000474
    vertex 437.92689360529204 324.4085299315157 2.0955000000000474
  endloop
endfacet
facet normal 0.0 -1.0 0.0
  outer loop
    vertex 433.4268936052921 324.4085299315157 2.0955000000000474
    vertex 437.92689360529204 324.4085299315157 62.24145672448831
    vertex 433.4268936052921 324.4085299315157 62.24145672448831
  endloop
endfacet
facet normal 0.0 0.0 -1.0
  outer loop
    vertex 437.92689360529204 328.9085299315158 2.0955000000000474
    vertex 433.4268936052921 324.4085299315157 2.0955000000000474
    vertex 433.4268936052921 328.9085299315158 2.0955000000000474
  endloop
endfacet
facet normal 0.0 0.0 -1.0
  outer loop
    vertex 433.4268936052921 324.4085299315157 2.0955000000000474
    vertex 437.92689360529204 328.9085299315158 2.0955000000000474
    vertex 437.92689360529204 324.4085299315157 2.0955000000000474
  endloop
endfacet
facet normal -1.0 0.0 0.0
  outer loop
    vertex 433.4268936052921 328.9085299315158 62.24145672448831
    vertex 433.4268936052921 324.4085299315157 2.0955000000000474
    vertex 433.4268936052921 324.4085299315157 62.24145672448831
  endloop
endfacet
facet normal -1.0 0.0 0.0
  outer loop
    vertex 433.4268936052921 324.4085299315157 2.0955000000000474
    vertex 433.4268936052921 328.9085299315158 62.24145672448831
    vertex 433.4268936052921 328.9085299315158 2.0955000000000474
  endloop
endfacet
facet normal 0.0 1.0 0.0
  outer loop
    vertex 433.4268936052921 328.9085299315158 62.24145672448831
    vertex 437.92689360529204 328.9085299315158 2.0955000000000474
    vertex 433.4268936052921 328.9085299315158 2.0955000000000474
  endloop
endfacet
facet normal 0.0 1.0 0.0
  outer loop
    vertex 437.92689360529204 328.9085299315158 2.0955000000000474
    vertex 433.4268936052921 328.9085299315158 62.24145672448831
    vertex 437.92689360529204 328.9085299315158 62.24145672448831
  endloop
endfacet
facet normal 1.0 0.0 0.0
  outer loop
    vertex 437.92689360529204 294.9445299315157 62.24145672448831
    vertex 437.92689360529204 299.4445299315157 73.26731271946053
    vertex 437.92689360529204 294.94452993151566 73.2673127194605
  endloop
endfacet
facet normal 1.0 0.0 0.0
  outer loop
    vertex 437.92689360529204 299.4445299315157 73.26731271946053
    vertex 437.92689360529204 294.9445299315157 62.24145672448831
    vertex 437.92689360529204 299.4445299315158 66.91731271946054
  endloop
endfacet
facet normal 1.0 0.0 0.0
  outer loop
    vertex 437.92689360529204 299.4445299315158 66.91731271946054
    vertex 437.92689360529204 294.9445299315157 62.24145672448831
    vertex 437.92689360529204 324.4085299315157 62.24145672448831
  endloop
endfacet
facet normal 1.0 0.0 0.0
  outer loop
    vertex 437.92689360529204 299.4445299315158 66.91731271946054
    vertex 437.92689360529204 324.4085299315157 62.24145672448831
    vertex 437.92689360529204 353.8725299315157 66.9173127194608
  endloop
endfacet
facet normal 1.0 0.0 0.0
  outer loop
    vertex 437.92689360529204 353.8725299315157 66.9173127194608
    vertex 437.92689360529204 324.4085299315157 62.24145672448831
    vertex 437.92689360529204 328.9085299315158 62.24145672448831
  endloop
endfacet
facet normal 1.0 0.0 0.0
  outer loop
    vertex 437.92689360529204 353.8725299315157 66.9173127194608
    vertex 437.92689360529204 328.9085299315158 62.24145672448831
    vertex 437.92689360529204 358.37252993151577 62.24145672448859
  endloop
endfacet
facet normal 1.0 0.0 0.0
  outer loop
    vertex 437.92689360529204 353.8725299315157 66.9173127194608
    vertex 437.92689360529204 358.37252993151577 62.24145672448859
    vertex 437.92689360529215 353.8725299315157 73.2673127194606
  endloop
endfacet
facet normal 1.0 0.0 0.0
  outer loop
    vertex 437.92689360529215 353.8725299315157 73.2673127194606
    vertex 437.92689360529204 358.37252993151577 62.24145672448859
    vertex 437.92689360529215 358.37252993151577 73.2673127194606
  endloop
endfacet
facet normal 0.0 0.0 -1.0
  outer loop
    vertex 437.92689360529204 324.4085299315157 62.24145672448831
    vertex 433.4268936052921 294.9445299315157 62.24145672448831
    vertex 433.4268936052921 324.4085299315157 62.24145672448831
  endloop
endfacet
facet normal 0.0 0.0 -1.0
  outer loop
    vertex 433.4268936052921 294.9445299315157 62.24145672448831
    vertex 437.92689360529204 324.4085299315157 62.24145672448831
    vertex 437.92689360529204 294.9445299315157 62.24145672448831
  endloop
endfacet
facet normal -1.0 0.0 0.0
  outer loop
    vertex 433.4268936052921 299.4445299315157 73.26731271946053
    vertex 433.4268936052921 294.9445299315157 62.24145672448831
    vertex 433.4268936052921 294.94452993151566 73.2673127194605
  endloop
endfacet
facet normal -1.0 0.0 0.0
  outer loop
    vertex 433.4268936052921 294.9445299315157 62.24145672448831
    vertex 433.4268936052921 299.4445299315157 73.26731271946053
    vertex 433.4268936052921 299.4445299315158 66.91731271946054
  endloop
endfacet
facet normal -1.0 0.0 0.0
  outer loop
    vertex 433.4268936052921 294.9445299315157 62.24145672448831
    vertex 433.4268936052921 299.4445299315158 66.91731271946054
    vertex 433.4268936052921 324.4085299315157 62.24145672448831
  endloop
endfacet
facet normal -1.0 0.0 0.0
  outer loop
    vertex 433.4268936052921 324.4085299315157 62.24145672448831
    vertex 433.4268936052921 299.4445299315158 66.91731271946054
    vertex 433.4268936052921 353.8725299315157 66.91731271946077
  endloop
endfacet
facet normal -1.0 0.0 0.0
  outer loop
    vertex 433.4268936052921 324.4085299315157 62.24145672448831
    vertex 433.4268936052921 353.8725299315157 66.91731271946077
    vertex 433.4268936052921 328.9085299315158 62.24145672448831
  endloop
endfacet
facet normal -1.0 0.0 0.0
  outer loop
    vertex 433.4268936052921 328.9085299315158 62.24145672448831
    vertex 433.4268936052921 353.8725299315157 66.91731271946077
    vertex 433.4268936052921 358.37252993151577 62.24145672448859
  endloop
endfacet
facet normal -1.0 0.0 0.0
  outer loop
    vertex 433.4268936052921 358.37252993151577 62.24145672448859
    vertex 433.4268936052921 353.8725299315157 66.91731271946077
    vertex 433.42689360529215 353.8725299315157 73.26731271946058
  endloop
endfacet
facet normal -1.0 0.0 0.0
  outer loop
    vertex 433.4268936052921 358.37252993151577 62.24145672448859
    vertex 433.42689360529215 353.8725299315157 73.26731271946058
    vertex 433.42689360529215 358.37252993151577 73.2673127194606
  endloop
endfacet
facet normal 0.0 -1.0 0.0
  outer loop
    vertex 437.92689360529204 294.94452993151566 73.2673127194605
    vertex 433.4268936052921 294.9445299315157 62.24145672448831
    vertex 437.92689360529204 294.9445299315157 62.24145672448831
  endloop
endfacet
facet normal 0.0 -1.0 0.0
  outer loop
    vertex 433.4268936052921 294.9445299315157 62.24145672448831
    vertex 437.92689360529204 294.94452993151566 73.2673127194605
    vertex 433.4268936052921 294.94452993151566 73.2673127194605
  endloop
endfacet
facet normal -2.5066368733759135e-15 -4.5593637551299965e-15 1.0
  outer loop
    vertex 437.92689360529204 299.4445299315158 66.91731271946054
    vertex 433.4268936052921 353.8725299315157 66.91731271946077
    vertex 433.4268936052921 299.4445299315158 66.91731271946054
  endloop
endfacet
facet normal -2.5066368733759135e-15 -4.5593637551299965e-15 1.0
  outer loop
    vertex 433.4268936052921 353.8725299315157 66.91731271946077
    vertex 437.92689360529204 299.4445299315158 66.91731271946054
    vertex 437.92689360529204 353.8725299315157 66.9173127194608
  endloop
endfacet
facet normal 0.0 -5.013273746751751e-15 1.0
  outer loop
    vertex 437.92689360529204 294.94452993151566 73.2673127194605
    vertex 433.4268936052921 299.4445299315157 73.26731271946053
    vertex 433.4268936052921 294.94452993151566 73.2673127194605
  endloop
endfacet
facet normal 0.0 -5.013273746751751e-15 1.0
  outer loop
    vertex 433.4268936052921 299.4445299315157 73.26731271946053
    vertex 437.92689360529204 294.94452993151566 73.2673127194605
    vertex 437.92689360529204 299.4445299315157 73.26731271946053
  endloop
endfacet
facet normal -2.5066368733759135e-15 -2.506636873375901e-15 1.0
  outer loop
    vertex 437.92689360529215 353.8725299315157 73.2673127194606
    vertex 433.42689360529215 358.37252993151577 73.2673127194606
    vertex 433.42689360529215 353.8725299315157 73.26731271946058
  endloop
endfacet
facet normal -2.5066368733759135e-15 -2.506636873375901e-15 1.0
  outer loop
    vertex 433.42689360529215 358.37252993151577 73.2673127194606
    vertex 437.92689360529215 353.8725299315157 73.2673127194606
    vertex 437.92689360529215 358.37252993151577 73.2673127194606
  endloop
endfacet
facet normal 1.2566456829935488e-29 -1.0 -2.506636873375901e-15
  outer loop
    vertex 437.92689360529204 353.8725299315157 66.9173127194608
    vertex 433.42689360529215 353.8725299315157 73.26731271946058
    vertex 433.4268936052921 353.8725299315157 66.91731271946077
  endloop
endfacet
facet normal 1.2566456829935488e-29 -1.0 -2.506636873375901e-15
  outer loop
    vertex 433.42689360529215 353.8725299315157 73.26731271946058
    vertex 437.92689360529204 353.8725299315157 66.9173127194608
    vertex 437.92689360529215 353.8725299315157 73.2673127194606
  endloop
endfacet
facet normal 0.0 1.0 5.013273746751751e-15
  outer loop
    vertex 433.4268936052921 299.4445299315157 73.26731271946053
    vertex 437.92689360529204 299.4445299315158 66.91731271946054
    vertex 433.4268936052921 299.4445299315158 66.91731271946054
  endloop
endfacet
facet normal 0.0 1.0 5.013273746751751e-15
  outer loop
    vertex 437.92689360529204 299.4445299315158 66.91731271946054
    vertex 433.4268936052921 299.4445299315157 73.26731271946053
    vertex 437.92689360529204 299.4445299315157 73.26731271946053
  endloop
endfacet
facet normal 0.0 1.0 9.649455365879935e-15
  outer loop
    vertex 433.42689360529215 358.37252993151577 73.2673127194606
    vertex 437.92689360529204 358.37252993151577 62.24145672448859
    vertex 433.4268936052921 358.37252993151577 62.24145672448859
  endloop
endfacet
facet normal 0.0 1.0 9.649455365879935e-15
  outer loop
    vertex 437.92689360529204 358.37252993151577 62.24145672448859
    vertex 433.42689360529215 358.37252993151577 73.2673127194606
    vertex 437.92689360529215 358.37252993151577 73.2673127194606
  endloop
endfacet
facet normal 0.0 9.649455365879935e-15 -1.0
  outer loop
    vertex 437.92689360529204 358.37252993151577 62.24145672448859
    vertex 433.4268936052921 328.9085299315158 62.24145672448831
    vertex 433.4268936052921 358.37252993151577 62.24145672448859
  endloop
endfacet
facet normal 0.0 9.649455365879935e-15 -1.0
  outer loop
    vertex 433.4268936052921 328.9085299315158 62.24145672448831
    vertex 437.92689360529204 358.37252993151577 62.24145672448859
    vertex 437.92689360529204 328.9085299315158 62.24145672448831
  endloop
endfacet
endsolid FTCField
