solid FTC V-Bearing  (1)
facet normal 0.13052619222005274 -0.9914448613738103 0.0
  outer loop
    vertex 9817.205531240446 9405.840839310356 11500.0
    vertex 9364.272202311035 9346.211035316224 0.0
    vertex 9817.205531240446 9405.840839310356 0.0
  endloop
endfacet
facet normal 0.13052619222005274 -0.9914448613738103 0.0
  outer loop
    vertex 9364.272202311035 9346.211035316224 0.0
    vertex 9817.205531240446 9405.840839310356 11500.0
    vertex 9364.272202311035 9346.211035316224 11500.0
  endloop
endfacet
facet normal 0.3826834323650882 -0.9238795325112876 0.0
  outer loop
    vertex 9364.272202311035 9346.211035316224 11500.0
    vertex 8942.205531240446 9171.385295933123 0.0
    vertex 9364.272202311035 9346.211035316224 0.0
  endloop
endfacet
facet normal 0.3826834323650882 -0.9238795325112876 0.0
  outer loop
    vertex 8942.205531240446 9171.385295933123 0.0
    vertex 9364.272202311035 9346.211035316224 11500.0
    vertex 8942.205531240446 9171.385295933123 11500.0
  endloop
endfacet
facet normal 0.7933533402912372 -0.6087614290087182 0.0
  outer loop
    vertex 8579.768664163987 8893.277706386814 0.0
    vertex 8301.66107461768 8530.840839310355 11500.0
    vertex 8301.66107461768 8530.840839310355 0.0
  endloop
endfacet
facet normal 0.7933533402912372 -0.6087614290087182 0.0
  outer loop
    vertex 8301.66107461768 8530.840839310355 11500.0
    vertex 8579.768664163987 8893.277706386814 0.0
    vertex 8579.768664163987 8893.277706386814 11500.0
  endloop
endfacet
facet normal 0.9238795325112863 -0.3826834323650908 0.0
  outer loop
    vertex 8301.66107461768 8530.840839310355 0.0
    vertex 8126.835335234577 8108.774168239767 11500.0
    vertex 8126.835335234577 8108.774168239767 0.0
  endloop
endfacet
facet normal 0.9238795325112863 -0.3826834323650908 0.0
  outer loop
    vertex 8126.835335234577 8108.774168239767 11500.0
    vertex 8301.66107461768 8530.840839310355 0.0
    vertex 8301.66107461768 8530.840839310355 11500.0
  endloop
endfacet
facet normal 0.9914448613738103 -0.13052619222005274 0.0
  outer loop
    vertex 8126.835335234577 8108.774168239767 0.0
    vertex 8067.205531240446 7655.8408393103555 11500.0
    vertex 8067.205531240446 7655.8408393103555 0.0
  endloop
endfacet
facet normal 0.9914448613738103 -0.13052619222005274 0.0
  outer loop
    vertex 8067.205531240446 7655.8408393103555 11500.0
    vertex 8126.835335234577 8108.774168239767 0.0
    vertex 8126.835335234577 8108.774168239767 11500.0
  endloop
endfacet
facet normal 0.9914448613738103 0.13052619222005316 0.0
  outer loop
    vertex 8067.205531240446 7655.8408393103555 0.0
    vertex 8126.835335234577 7202.907510380945 11500.0
    vertex 8126.835335234577 7202.907510380945 0.0
  endloop
endfacet
facet normal 0.9914448613738103 0.13052619222005316 0.0
  outer loop
    vertex 8126.835335234577 7202.907510380945 11500.0
    vertex 8067.205531240446 7655.8408393103555 0.0
    vertex 8067.205531240446 7655.8408393103555 11500.0
  endloop
endfacet
facet normal 0.9238795325112878 0.38268343236508695 0.0
  outer loop
    vertex 8126.835335234577 7202.907510380945 0.0
    vertex 8301.661074617678 6780.840839310355 11500.0
    vertex 8301.661074617678 6780.840839310355 0.0
  endloop
endfacet
facet normal 0.9238795325112878 0.38268343236508695 0.0
  outer loop
    vertex 8301.661074617678 6780.840839310355 11500.0
    vertex 8126.835335234577 7202.907510380945 0.0
    vertex 8126.835335234577 7202.907510380945 11500.0
  endloop
endfacet
facet normal 0.7933533402912345 0.6087614290087217 0.0
  outer loop
    vertex 8301.661074617678 6780.840839310355 0.0
    vertex 8579.768664163987 6418.403972233898 11500.0
    vertex 8579.768664163987 6418.403972233898 0.0
  endloop
endfacet
facet normal 0.7933533402912345 0.6087614290087217 0.0
  outer loop
    vertex 8579.768664163987 6418.403972233898 11500.0
    vertex 8301.661074617678 6780.840839310355 0.0
    vertex 8301.661074617678 6780.840839310355 11500.0
  endloop
endfacet
facet normal 0.6087614290087201 -0.7933533402912356 0.0
  outer loop
    vertex 8942.205531240446 9171.385295933123 11500.0
    vertex 8579.768664163987 8893.277706386814 0.0
    vertex 8942.205531240446 9171.385295933123 0.0
  endloop
endfacet
facet normal 0.6087614290087201 -0.7933533402912356 0.0
  outer loop
    vertex 8579.768664163987 8893.277706386814 0.0
    vertex 8942.205531240446 9171.385295933123 11500.0
    vertex 8579.768664163987 8893.277706386814 11500.0
  endloop
endfacet
facet normal 0.6087614290087227 0.7933533402912337 0.0
  outer loop
    vertex 8579.768664163987 6418.403972233898 11500.0
    vertex 8942.205531240445 6140.2963826875875 0.0
    vertex 8579.768664163987 6418.403972233898 0.0
  endloop
endfacet
facet normal 0.6087614290087227 0.7933533402912337 0.0
  outer loop
    vertex 8942.205531240445 6140.2963826875875 0.0
    vertex 8579.768664163987 6418.403972233898 11500.0
    vertex 8942.205531240445 6140.2963826875875 11500.0
  endloop
endfacet
facet normal 0.13052619222005235 0.9914448613738105 0.0
  outer loop
    vertex 9364.272202311033 5965.470643304486 11500.0
    vertex 9817.205531240446 5905.840839310355 0.0
    vertex 9364.272202311033 5965.470643304486 0.0
  endloop
endfacet
facet normal 0.13052619222005235 0.9914448613738105 0.0
  outer loop
    vertex 9817.205531240446 5905.840839310355 0.0
    vertex 9364.272202311033 5965.470643304486 11500.0
    vertex 9817.205531240446 5905.840839310355 11500.0
  endloop
endfacet
facet normal 0.38268343236508945 0.9238795325112868 0.0
  outer loop
    vertex 8942.205531240445 6140.2963826875875 11500.0
    vertex 9364.272202311033 5965.470643304486 0.0
    vertex 8942.205531240445 6140.2963826875875 0.0
  endloop
endfacet
facet normal 0.38268343236508945 0.9238795325112868 0.0
  outer loop
    vertex 9364.272202311033 5965.470643304486 0.0
    vertex 8942.205531240445 6140.2963826875875 11500.0
    vertex 9364.272202311033 5965.470643304486 11500.0
  endloop
endfacet
facet normal 0.5799428283005263 -0.752275585832251 -0.3126463798983284
  outer loop
    vertex 13892.23310473327 3599.161128601954 11500.0
    vertex 11702.02885619851 4408.176032673769 5490.669561023853
    vertex 12478.362562876218 5006.665700602588 5490.669561023853
  endloop
endfacet
facet normal 0.5799428283005263 -0.752275585832251 -0.3126463798983284
  outer loop
    vertex 11702.02885619851 4408.176032673769 5490.669561023853
    vertex 13892.23310473327 3599.161128601954 11500.0
    vertex 12703.43393830492 2682.69439241639 11500.0
  endloop
endfacet
facet normal 0.7476897804337916 -0.5710468274543006 0.3389181510176856
  outer loop
    vertex 14803.325876329556 4792.083883092097 0.0
    vertex 12478.362562876218 5006.665700602588 5490.669561023853
    vertex 13892.23310473327 3599.161128601954 0.0
  endloop
endfacet
facet normal 0.7476897804337916 -0.5710468274543006 0.3389181510176856
  outer loop
    vertex 12478.362562876218 5006.665700602588 5490.669561023853
    vertex 14803.325876329556 4792.083883092097 0.0
    vertex 13073.342815617872 5785.692276265423 5490.669561023853
  endloop
endfacet
facet normal 0.3619949302785226 -0.8683859495428293 0.3389181510176854
  outer loop
    vertex 11702.02885619851 4408.176032673769 5490.669561023853
    vertex 11317.943075653087 2105.13936807356 0.0
    vertex 12703.43393830492 2682.69439241639 0.0
  endloop
endfacet
facet normal 0.3619949302785226 -0.8683859495428293 0.3389181510176854
  outer loop
    vertex 11317.943075653087 2105.13936807356 0.0
    vertex 11702.02885619851 4408.176032673769 5490.669561023853
    vertex 10797.247554742728 4031.0093542973786 5490.669561023853
  endloop
endfacet
facet normal -0.0 -0.0 1.0
  outer loop
    vertex 8341.531633496475 2098.4235841893105 11500.0
    vertex 8067.205531240446 7655.8408393103555 11500.0
    vertex 6953.448575022189 2669.7204942212447 11500.0
  endloop
endfacet
facet normal -0.0 -0.0 1.0
  outer loop
    vertex 8067.205531240446 7655.8408393103555 11500.0
    vertex 8341.531633496475 2098.4235841893105 11500.0
    vertex 8126.835335234577 7202.907510380945 11500.0
  endloop
endfacet
facet normal -0.0 -0.0 1.0
  outer loop
    vertex 8126.835335234577 7202.907510380945 11500.0
    vertex 8341.531633496475 2098.4235841893105 11500.0
    vertex 8301.661074617678 6780.840839310355 11500.0
  endloop
endfacet
facet normal -0.0 -0.0 1.0
  outer loop
    vertex 8301.661074617678 6780.840839310355 11500.0
    vertex 8341.531633496475 2098.4235841893105 11500.0
    vertex 8579.768664163987 6418.403972233898 11500.0
  endloop
endfacet
facet normal -0.0 -0.0 1.0
  outer loop
    vertex 8579.768664163987 6418.403972233898 11500.0
    vertex 8341.531633496475 2098.4235841893105 11500.0
    vertex 9830.17942943559 1905.8554760276254 11500.0
  endloop
endfacet
facet normal -0.0 -0.0 1.0
  outer loop
    vertex 8579.768664163987 6418.403972233898 11500.0
    vertex 9830.17942943559 1905.8554760276254 11500.0
    vertex 8942.205531240445 6140.2963826875875 11500.0
  endloop
endfacet
facet normal -0.0 -0.0 1.0
  outer loop
    vertex 8942.205531240445 6140.2963826875875 11500.0
    vertex 9830.17942943559 1905.8554760276254 11500.0
    vertex 9364.272202311033 5965.470643304486 11500.0
  endloop
endfacet
facet normal -0.0 -0.0 1.0
  outer loop
    vertex 9364.272202311033 5965.470643304486 11500.0
    vertex 9830.17942943559 1905.8554760276254 11500.0
    vertex 9817.205531240446 5905.840839310355 11500.0
  endloop
endfacet
facet normal -0.0 -0.0 1.0
  outer loop
    vertex 9817.205531240446 5905.840839310355 11500.0
    vertex 9830.17942943559 1905.8554760276254 11500.0
    vertex 10270.138860169856 5965.470643304485 11500.0
  endloop
endfacet
facet normal -0.0 -0.0 1.0
  outer loop
    vertex 10270.138860169856 5965.470643304485 11500.0
    vertex 9830.17942943559 1905.8554760276254 11500.0
    vertex 11317.943075653087 2105.13936807356 11500.0
  endloop
endfacet
facet normal -0.0 -0.0 1.0
  outer loop
    vertex 10270.138860169856 5965.470643304485 11500.0
    vertex 11317.943075653087 2105.13936807356 11500.0
    vertex 10692.205531240445 6140.296382687587 11500.0
  endloop
endfacet
facet normal -0.0 -0.0 1.0
  outer loop
    vertex 10692.205531240445 6140.296382687587 11500.0
    vertex 11317.943075653087 2105.13936807356 11500.0
    vertex 11054.642398316904 6418.403972233897 11500.0
  endloop
endfacet
facet normal -0.0 -0.0 1.0
  outer loop
    vertex 11054.642398316904 6418.403972233897 11500.0
    vertex 11317.943075653087 2105.13936807356 11500.0
    vertex 11332.749987863213 6780.840839310354 11500.0
  endloop
endfacet
facet normal -0.0 -0.0 1.0
  outer loop
    vertex 11332.749987863213 6780.840839310354 11500.0
    vertex 11317.943075653087 2105.13936807356 11500.0
    vertex 12703.43393830492 2682.69439241639 11500.0
  endloop
endfacet
facet normal -0.0 -0.0 1.0
  outer loop
    vertex 11332.749987863213 6780.840839310354 11500.0
    vertex 12703.43393830492 2682.69439241639 11500.0
    vertex 11507.575727246316 7202.907510380942 11500.0
  endloop
endfacet
facet normal -0.0 -0.0 1.0
  outer loop
    vertex 11507.575727246316 7202.907510380942 11500.0
    vertex 12703.43393830492 2682.69439241639 11500.0
    vertex 11567.205531240446 7655.8408393103555 11500.0
  endloop
endfacet
facet normal -0.0 -0.0 1.0
  outer loop
    vertex 11567.205531240446 7655.8408393103555 11500.0
    vertex 12703.43393830492 2682.69439241639 11500.0
    vertex 12680.962487458703 12641.961184399466 11500.0
  endloop
endfacet
facet normal -0.0 -0.0 1.0
  outer loop
    vertex 12680.962487458703 12641.961184399466 11500.0
    vertex 12703.43393830492 2682.69439241639 11500.0
    vertex 13873.885241948845 11730.86841280318 11500.0
  endloop
endfacet
facet normal -0.0 -0.0 1.0
  outer loop
    vertex 13873.885241948845 11730.86841280318 11500.0
    vertex 12703.43393830492 2682.69439241639 11500.0
    vertex 13892.23310473327 3599.161128601954 11500.0
  endloop
endfacet
facet normal -0.0 -0.0 1.0
  outer loop
    vertex 13873.885241948845 11730.86841280318 11500.0
    vertex 13892.23310473327 3599.161128601954 11500.0
    vertex 14790.351978134411 10542.069246374831 11500.0
  endloop
endfacet
facet normal -0.0 -0.0 1.0
  outer loop
    vertex 14790.351978134411 10542.069246374831 11500.0
    vertex 13892.23310473327 3599.161128601954 11500.0
    vertex 14803.325876329556 4792.083883092097 11500.0
  endloop
endfacet
facet normal -0.0 -0.0 1.0
  outer loop
    vertex 14790.351978134411 10542.069246374831 11500.0
    vertex 14803.325876329556 4792.083883092097 11500.0
    vertex 15367.90700247724 9156.578383723001 11500.0
  endloop
endfacet
facet normal -0.0 -0.0 1.0
  outer loop
    vertex 15367.90700247724 9156.578383723001 11500.0
    vertex 14803.325876329556 4792.083883092097 11500.0
    vertex 15374.62278636149 6180.166941566386 11500.0
  endloop
endfacet
facet normal -0.0 -0.0 1.0
  outer loop
    vertex 15367.90700247724 9156.578383723001 11500.0
    vertex 15374.62278636149 6180.166941566386 11500.0
    vertex 15567.190894523177 7668.814737505503 11500.0
  endloop
endfacet
facet normal -0.0 -0.0 1.0
  outer loop
    vertex 4266.504060003653 6155.103294897711 11500.0
    vertex 4259.788276119402 9131.514737054324 11500.0
    vertex 4067.2201679577174 7642.86694111521 11500.0
  endloop
endfacet
facet normal -0.0 -0.0 1.0
  outer loop
    vertex 4259.788276119402 9131.514737054324 11500.0
    vertex 4266.504060003653 6155.103294897711 11500.0
    vertex 4831.0851861513365 10519.59779552861 11500.0
  endloop
endfacet
facet normal -0.0 -0.0 1.0
  outer loop
    vertex 4831.0851861513365 10519.59779552861 11500.0
    vertex 4266.504060003653 6155.103294897711 11500.0
    vertex 4844.059084346481 4769.612432245882 11500.0
  endloop
endfacet
facet normal -0.0 -0.0 1.0
  outer loop
    vertex 4831.0851861513365 10519.59779552861 11500.0
    vertex 4844.059084346481 4769.612432245882 11500.0
    vertex 5742.1779577476245 11712.520550018757 11500.0
  endloop
endfacet
facet normal -0.0 -0.0 1.0
  outer loop
    vertex 5742.1779577476245 11712.520550018757 11500.0
    vertex 4844.059084346481 4769.612432245882 11500.0
    vertex 5760.525820532045 3580.813265817532 11500.0
  endloop
endfacet
facet normal -0.0 -0.0 1.0
  outer loop
    vertex 5742.1779577476245 11712.520550018757 11500.0
    vertex 5760.525820532045 3580.813265817532 11500.0
    vertex 6930.977124175972 12628.98728620432 11500.0
  endloop
endfacet
facet normal -0.0 -0.0 1.0
  outer loop
    vertex 6930.977124175972 12628.98728620432 11500.0
    vertex 5760.525820532045 3580.813265817532 11500.0
    vertex 6953.448575022189 2669.7204942212447 11500.0
  endloop
endfacet
facet normal -0.0 -0.0 1.0
  outer loop
    vertex 6930.977124175972 12628.98728620432 11500.0
    vertex 6953.448575022189 2669.7204942212447 11500.0
    vertex 8316.467986827804 13206.54231054715 11500.0
  endloop
endfacet
facet normal -0.0 -0.0 1.0
  outer loop
    vertex 8316.467986827804 13206.54231054715 11500.0
    vertex 6953.448575022189 2669.7204942212447 11500.0
    vertex 8067.205531240446 7655.8408393103555 11500.0
  endloop
endfacet
facet normal -0.0 -0.0 1.0
  outer loop
    vertex 8316.467986827804 13206.54231054715 11500.0
    vertex 8067.205531240446 7655.8408393103555 11500.0
    vertex 8126.835335234577 8108.774168239767 11500.0
  endloop
endfacet
facet normal -0.0 -0.0 1.0
  outer loop
    vertex 8316.467986827804 13206.54231054715 11500.0
    vertex 8126.835335234577 8108.774168239767 11500.0
    vertex 8301.66107461768 8530.840839310355 11500.0
  endloop
endfacet
facet normal -0.0 -0.0 1.0
  outer loop
    vertex 8316.467986827804 13206.54231054715 11500.0
    vertex 8301.66107461768 8530.840839310355 11500.0
    vertex 8579.768664163987 8893.277706386814 11500.0
  endloop
endfacet
facet normal -0.0 -0.0 1.0
  outer loop
    vertex 8316.467986827804 13206.54231054715 11500.0
    vertex 8579.768664163987 8893.277706386814 11500.0
    vertex 9804.2316330453 13405.826202593085 11500.0
  endloop
endfacet
facet normal -0.0 -0.0 1.0
  outer loop
    vertex 9804.2316330453 13405.826202593085 11500.0
    vertex 8579.768664163987 8893.277706386814 11500.0
    vertex 8942.205531240446 9171.385295933123 11500.0
  endloop
endfacet
facet normal -0.0 -0.0 1.0
  outer loop
    vertex 9804.2316330453 13405.826202593085 11500.0
    vertex 8942.205531240446 9171.385295933123 11500.0
    vertex 9364.272202311035 9346.211035316224 11500.0
  endloop
endfacet
facet normal -0.0 -0.0 1.0
  outer loop
    vertex 9804.2316330453 13405.826202593085 11500.0
    vertex 9364.272202311035 9346.211035316224 11500.0
    vertex 9817.205531240446 9405.840839310356 11500.0
  endloop
endfacet
facet normal -0.0 -0.0 1.0
  outer loop
    vertex 9804.2316330453 13405.826202593085 11500.0
    vertex 9817.205531240446 9405.840839310356 11500.0
    vertex 11292.879428984415 13213.258094431401 11500.0
  endloop
endfacet
facet normal -0.0 -0.0 1.0
  outer loop
    vertex 11292.879428984415 13213.258094431401 11500.0
    vertex 9817.205531240446 9405.840839310356 11500.0
    vertex 10270.138860169858 9346.211035316224 11500.0
  endloop
endfacet
facet normal -0.0 -0.0 1.0
  outer loop
    vertex 11292.879428984415 13213.258094431401 11500.0
    vertex 10270.138860169858 9346.211035316224 11500.0
    vertex 10692.205531240446 9171.385295933123 11500.0
  endloop
endfacet
facet normal -0.0 -0.0 1.0
  outer loop
    vertex 11292.879428984415 13213.258094431401 11500.0
    vertex 10692.205531240446 9171.385295933123 11500.0
    vertex 11054.642398316906 8893.277706386814 11500.0
  endloop
endfacet
facet normal -0.0 -0.0 1.0
  outer loop
    vertex 11292.879428984415 13213.258094431401 11500.0
    vertex 11054.642398316906 8893.277706386814 11500.0
    vertex 11332.749987863215 8530.840839310355 11500.0
  endloop
endfacet
facet normal -0.0 -0.0 1.0
  outer loop
    vertex 11292.879428984415 13213.258094431401 11500.0
    vertex 11332.749987863215 8530.840839310355 11500.0
    vertex 12680.962487458703 12641.961184399466 11500.0
  endloop
endfacet
facet normal -0.0 -0.0 1.0
  outer loop
    vertex 12680.962487458703 12641.961184399466 11500.0
    vertex 11332.749987863215 8530.840839310355 11500.0
    vertex 11507.575727246316 8108.774168239767 11500.0
  endloop
endfacet
facet normal -0.0 -0.0 1.0
  outer loop
    vertex 12680.962487458703 12641.961184399466 11500.0
    vertex 11507.575727246316 8108.774168239767 11500.0
    vertex 11567.205531240446 7655.8408393103555 11500.0
  endloop
endfacet
facet normal 0.5744150743828557 -0.7451052336633344 0.3389181510176854
  outer loop
    vertex 12478.362562876218 5006.665700602588 5490.669561023853
    vertex 12703.43393830492 2682.69439241639 0.0
    vertex 13892.23310473327 3599.161128601954 0.0
  endloop
endfacet
facet normal 0.5744150743828557 -0.7451052336633344 0.3389181510176854
  outer loop
    vertex 12703.43393830492 2682.69439241639 0.0
    vertex 12478.362562876218 5006.665700602588 5490.669561023853
    vertex 11702.02885619851 4408.176032673769 5490.669561023853
  endloop
endfacet
facet normal 0.7548850044056485 -0.5765421678073118 -0.3126463798983286
  outer loop
    vertex 12478.362562876218 5006.665700602588 5490.669561023853
    vertex 14803.325876329556 4792.083883092097 11500.0
    vertex 13892.23310473327 3599.161128601954 11500.0
  endloop
endfacet
facet normal 0.7548850044056485 -0.5765421678073118 -0.3126463798983286
  outer loop
    vertex 14803.325876329556 4792.083883092097 11500.0
    vertex 12478.362562876218 5006.665700602588 5490.669561023853
    vertex 13073.342815617872 5785.692276265423 5490.669561023853
  endloop
endfacet
facet normal -0.7548850044056483 0.5765421678073118 -0.3126463798983285
  outer loop
    vertex 4831.0851861513365 10519.59779552861 11500.0
    vertex 7156.048499604676 10305.015978018122 5490.669561023853
    vertex 6561.068246863019 9525.989402355286 5490.669561023853
  endloop
endfacet
facet normal -0.7548850044056483 0.5765421678073118 -0.3126463798983285
  outer loop
    vertex 7156.048499604676 10305.015978018122 5490.669561023853
    vertex 4831.0851861513365 10519.59779552861 11500.0
    vertex 5742.1779577476245 11712.520550018757 11500.0
  endloop
endfacet
facet normal -0.12069616910903755 -0.9330417577328232 0.33891815101768547
  outer loop
    vertex 9825.678008981286 3900.868951307363 5490.669561023853
    vertex 8341.531633496475 2098.4235841893105 0.0
    vertex 9830.17942943559 1905.8554760276254 0.0
  endloop
endfacet
facet normal -0.12069616910903755 -0.9330417577328232 0.33891815101768547
  outer loop
    vertex 8341.531633496475 2098.4235841893105 0.0
    vertex 9825.678008981286 3900.868951307363 5490.669561023853
    vertex 8853.53107786324 4026.623677100305 5490.669561023853
  endloop
endfacet
facet normal -0.5799428283005271 0.7522755858322503 -0.31264637989832833
  outer loop
    vertex 5742.1779577476245 11712.520550018757 11500.0
    vertex 7932.382206282382 10903.505645946942 5490.669561023853
    vertex 7156.048499604676 10305.015978018122 5490.669561023853
  endloop
endfacet
facet normal -0.5799428283005271 0.7522755858322503 -0.31264637989832833
  outer loop
    vertex 7932.382206282382 10903.505645946942 5490.669561023853
    vertex 5742.1779577476245 11712.520550018757 11500.0
    vertex 6930.977124175972 12628.98728620432 11500.0
  endloop
endfacet
facet normal -0.36199493027852214 0.8683859495428294 0.3389181510176854
  outer loop
    vertex 7932.382206282382 10903.505645946942 5490.669561023853
    vertex 8316.467986827804 13206.54231054715 0.0
    vertex 6930.977124175972 12628.98728620432 0.0
  endloop
endfacet
facet normal -0.36199493027852214 0.8683859495428294 0.3389181510176854
  outer loop
    vertex 8316.467986827804 13206.54231054715 0.0
    vertex 7932.382206282382 10903.505645946942 5490.669561023853
    vertex 8837.163507738163 11280.672324323332 5490.669561023853
  endloop
endfacet
facet normal -0.12610742913472908 0.9414611821278132 -0.3126463798983286
  outer loop
    vertex 8316.467986827804 13206.54231054715 11500.0
    vertex 9808.733053499605 11410.812727313347 5490.669561023853
    vertex 8837.163507738163 11280.672324323332 5490.669561023853
  endloop
endfacet
facet normal -0.12610742913472908 0.9414611821278132 -0.3126463798983286
  outer loop
    vertex 9808.733053499605 11410.812727313347 5490.669561023853
    vertex 8316.467986827804 13206.54231054715 11500.0
    vertex 9804.2316330453 13405.826202593085 11500.0
  endloop
endfacet
facet normal 0.12069616910903695 0.933041757732823 0.3389181510176856
  outer loop
    vertex 9808.733053499605 11410.812727313347 5490.669561023853
    vertex 11292.879428984415 13213.258094431401 0.0
    vertex 9804.2316330453 13405.826202593085 0.0
  endloop
endfacet
facet normal 0.12069616910903695 0.933041757732823 0.3389181510176856
  outer loop
    vertex 11292.879428984415 13213.258094431401 0.0
    vertex 9808.733053499605 11410.812727313347 5490.669561023853
    vertex 10780.87998461765 11285.058001520407 5490.669561023853
  endloop
endfacet
facet normal -0.9330417577328232 0.12069616910903748 0.33891815101768535
  outer loop
    vertex 6062.233643237454 7647.368361569513 5490.669561023853
    vertex 4259.788276119402 9131.514737054324 0.0
    vertex 4067.2201679577174 7642.86694111521 0.0
  endloop
endfacet
facet normal -0.9330417577328232 0.12069616910903748 0.33891815101768535
  outer loop
    vertex 4259.788276119402 9131.514737054324 0.0
    vertex 6062.233643237454 7647.368361569513 5490.669561023853
    vertex 6187.988369030396 8619.515292687558 5490.669561023853
  endloop
endfacet
facet normal -0.7476897804337916 0.5710468274543008 0.33891815101768547
  outer loop
    vertex 7156.048499604676 10305.015978018122 5490.669561023853
    vertex 4831.0851861513365 10519.59779552861 0.0
    vertex 6561.068246863019 9525.989402355286 5490.669561023853
  endloop
endfacet
facet normal -0.7476897804337916 0.5710468274543008 0.33891815101768547
  outer loop
    vertex 4831.0851861513365 10519.59779552861 0.0
    vertex 7156.048499604676 10305.015978018122 5490.669561023853
    vertex 5742.1779577476245 11712.520550018757 0.0
  endloop
endfacet
facet normal -0.8783830149669787 0.36151835382728575 -0.3126463798983285
  outer loop
    vertex 4259.788276119402 9131.514737054324 11500.0
    vertex 6561.068246863019 9525.989402355286 5490.669561023853
    vertex 6187.988369030396 8619.515292687558 5490.669561023853
  endloop
endfacet
facet normal -0.8783830149669787 0.36151835382728575 -0.3126463798983285
  outer loop
    vertex 6561.068246863019 9525.989402355286 5490.669561023853
    vertex 4259.788276119402 9131.514737054324 11500.0
    vertex 4831.0851861513365 10519.59779552861 11500.0
  endloop
endfacet
facet normal -0.8683859495428292 -0.3619949302785225 0.33891815101768547
  outer loop
    vertex 6569.54072460386 5771.017514352291 5490.669561023853
    vertex 4266.504060003653 6155.103294897711 0.0
    vertex 4844.059084346481 4769.612432245882 0.0
  endloop
endfacet
facet normal -0.8683859495428292 -0.3619949302785225 0.33891815101768547
  outer loop
    vertex 4266.504060003653 6155.103294897711 0.0
    vertex 6569.54072460386 5771.017514352291 5490.669561023853
    vertex 6192.374046227471 6675.798815808072 5490.669561023853
  endloop
endfacet
facet normal -0.36151835382728637 -0.8783830149669787 -0.3126463798983284
  outer loop
    vertex 8341.531633496475 2098.4235841893105 11500.0
    vertex 7947.056968195517 4399.703554932927 5490.669561023853
    vertex 8853.53107786324 4026.623677100305 5490.669561023853
  endloop
endfacet
facet normal -0.36151835382728637 -0.8783830149669787 -0.3126463798983284
  outer loop
    vertex 7947.056968195517 4399.703554932927 5490.669561023853
    vertex 8341.531633496475 2098.4235841893105 11500.0
    vertex 6953.448575022189 2669.7204942212447 11500.0
  endloop
endfacet
facet normal -0.8700106635639485 0.3580725236537584 0.33891815101768547
  outer loop
    vertex 6561.068246863019 9525.989402355286 5490.669561023853
    vertex 4259.788276119402 9131.514737054324 0.0
    vertex 6187.988369030396 8619.515292687558 5490.669561023853
  endloop
endfacet
facet normal -0.8700106635639485 0.3580725236537584 0.33891815101768547
  outer loop
    vertex 4259.788276119402 9131.514737054324 0.0
    vertex 6561.068246863019 9525.989402355286 5490.669561023853
    vertex 4831.0851861513365 10519.59779552861 0.0
  endloop
endfacet
facet normal -0.365478506847563 0.8767426658769071 -0.3126463798983284
  outer loop
    vertex 6930.977124175972 12628.98728620432 11500.0
    vertex 8837.163507738163 11280.672324323332 5490.669561023853
    vertex 7932.382206282382 10903.505645946942 5490.669561023853
  endloop
endfacet
facet normal -0.365478506847563 0.8767426658769071 -0.3126463798983284
  outer loop
    vertex 8837.163507738163 11280.672324323332 5490.669561023853
    vertex 6930.977124175972 12628.98728620432 11500.0
    vertex 8316.467986827804 13206.54231054715 11500.0
  endloop
endfacet
facet normal -0.7522755858322505 -0.579942828300527 -0.3126463798983284
  outer loop
    vertex 4844.059084346481 4769.612432245882 11500.0
    vertex 7168.030392532679 4994.6838076745835 5490.669561023853
    vertex 5760.525820532045 3580.813265817532 11500.0
  endloop
endfacet
facet normal -0.7522755858322505 -0.579942828300527 -0.3126463798983284
  outer loop
    vertex 7168.030392532679 4994.6838076745835 5490.669561023853
    vertex 4844.059084346481 4769.612432245882 11500.0
    vertex 6569.54072460386 5771.017514352291 5490.669561023853
  endloop
endfacet
facet normal 0.3615183538272862 0.8783830149669785 -0.31264637989832866
  outer loop
    vertex 11292.879428984415 13213.258094431401 11500.0
    vertex 11687.354094285374 10911.978123687784 5490.669561023853
    vertex 10780.87998461765 11285.058001520407 5490.669561023853
  endloop
endfacet
facet normal 0.3615183538272862 0.8783830149669785 -0.31264637989832866
  outer loop
    vertex 11687.354094285374 10911.978123687784 5490.669561023853
    vertex 11292.879428984415 13213.258094431401 11500.0
    vertex 12680.962487458703 12641.961184399466 11500.0
  endloop
endfacet
facet normal 0.5765421678073119 0.7548850044056483 -0.31264637989832883
  outer loop
    vertex 12680.962487458703 12641.961184399466 11500.0
    vertex 12466.380669948212 10316.997870946125 5490.669561023853
    vertex 11687.354094285374 10911.978123687784 5490.669561023853
  endloop
endfacet
facet normal 0.5765421678073119 0.7548850044056483 -0.31264637989832883
  outer loop
    vertex 12466.380669948212 10316.997870946125 5490.669561023853
    vertex 12680.962487458703 12641.961184399466 11500.0
    vertex 13873.885241948845 11730.86841280318 11500.0
  endloop
endfacet
facet normal -0.5765421678073122 -0.7548850044056481 -0.3126463798983284
  outer loop
    vertex 6953.448575022189 2669.7204942212447 11500.0
    vertex 7168.030392532679 4994.6838076745835 5490.669561023853
    vertex 7947.056968195517 4399.703554932927 5490.669561023853
  endloop
endfacet
facet normal -0.5765421678073122 -0.7548850044056481 -0.3126463798983284
  outer loop
    vertex 7168.030392532679 4994.6838076745835 5490.669561023853
    vertex 6953.448575022189 2669.7204942212447 11500.0
    vertex 5760.525820532045 3580.813265817532 11500.0
  endloop
endfacet
facet normal -0.9324875980366154 -0.12490542990061435 0.33891815101768535
  outer loop
    vertex 6192.374046227471 6675.798815808072 5490.669561023853
    vertex 4067.2201679577174 7642.86694111521 0.0
    vertex 4266.504060003653 6155.103294897711 0.0
  endloop
endfacet
facet normal -0.9324875980366154 -0.12490542990061435 0.33891815101768535
  outer loop
    vertex 4067.2201679577174 7642.86694111521 0.0
    vertex 6192.374046227471 6675.798815808072 5490.669561023853
    vertex 6062.233643237454 7647.368361569513 5490.669561023853
  endloop
endfacet
facet normal 0.3580725236537588 0.8700106635639483 0.33891815101768563
  outer loop
    vertex 10780.87998461765 11285.058001520407 5490.669561023853
    vertex 12680.962487458703 12641.961184399466 0.0
    vertex 11292.879428984415 13213.258094431401 0.0
  endloop
endfacet
facet normal 0.3580725236537588 0.8700106635639483 0.33891815101768563
  outer loop
    vertex 12680.962487458703 12641.961184399466 0.0
    vertex 10780.87998461765 11285.058001520407 5490.669561023853
    vertex 11687.354094285374 10911.978123687784 5490.669561023853
  endloop
endfacet
facet normal 0.5710468274543008 0.7476897804337915 0.33891815101768574
  outer loop
    vertex 11687.354094285374 10911.978123687784 5490.669561023853
    vertex 13873.885241948845 11730.86841280318 0.0
    vertex 12680.962487458703 12641.961184399466 0.0
  endloop
endfacet
facet normal 0.5710468274543008 0.7476897804337915 0.33891815101768574
  outer loop
    vertex 13873.885241948845 11730.86841280318 0.0
    vertex 11687.354094285374 10911.978123687784 5490.669561023853
    vertex 12466.380669948212 10316.997870946125 5490.669561023853
  endloop
endfacet
facet normal -0.7451052336633338 -0.5744150743828562 0.3389181510176854
  outer loop
    vertex 7168.030392532679 4994.6838076745835 5490.669561023853
    vertex 4844.059084346481 4769.612432245882 0.0
    vertex 5760.525820532045 3580.813265817532 0.0
  endloop
endfacet
facet normal -0.7451052336633338 -0.5744150743828562 0.3389181510176854
  outer loop
    vertex 4844.059084346481 4769.612432245882 0.0
    vertex 7168.030392532679 4994.6838076745835 5490.669561023853
    vertex 6569.54072460386 5771.017514352291 5490.669561023853
  endloop
endfacet
facet normal -0.1249054299006154 0.9324875980366152 0.33891815101768563
  outer loop
    vertex 8837.163507738163 11280.672324323332 5490.669561023853
    vertex 9804.2316330453 13405.826202593085 0.0
    vertex 8316.467986827804 13206.54231054715 0.0
  endloop
endfacet
facet normal -0.1249054299006154 0.9324875980366152 0.33891815101768563
  outer loop
    vertex 9804.2316330453 13405.826202593085 0.0
    vertex 8837.163507738163 11280.672324323332 5490.669561023853
    vertex 9808.733053499605 11410.812727313347 5490.669561023853
  endloop
endfacet
facet normal -0.12185766147125857 -0.9420206746548753 -0.3126463798983285
  outer loop
    vertex 9830.17942943559 1905.8554760276254 11500.0
    vertex 8853.53107786324 4026.623677100305 5490.669561023853
    vertex 9825.678008981286 3900.868951307363 5490.669561023853
  endloop
endfacet
facet normal -0.12185766147125857 -0.9420206746548753 -0.3126463798983285
  outer loop
    vertex 8853.53107786324 4026.623677100305 5490.669561023853
    vertex 9830.17942943559 1905.8554760276254 11500.0
    vertex 8341.531633496475 2098.4235841893105 11500.0
  endloop
endfacet
facet normal -0.5710468274543011 -0.7476897804337915 0.3389181510176854
  outer loop
    vertex 7947.056968195517 4399.703554932927 5490.669561023853
    vertex 5760.525820532045 3580.813265817532 0.0
    vertex 6953.448575022189 2669.7204942212447 0.0
  endloop
endfacet
facet normal -0.5710468274543011 -0.7476897804337915 0.3389181510176854
  outer loop
    vertex 5760.525820532045 3580.813265817532 0.0
    vertex 7947.056968195517 4399.703554932927 5490.669561023853
    vertex 7168.030392532679 4994.6838076745835 5490.669561023853
  endloop
endfacet
facet normal 0.12185766147125798 0.9420206746548754 -0.31264637989832866
  outer loop
    vertex 9804.2316330453 13405.826202593085 11500.0
    vertex 10780.87998461765 11285.058001520407 5490.669561023853
    vertex 9808.733053499605 11410.812727313347 5490.669561023853
  endloop
endfacet
facet normal 0.12185766147125798 0.9420206746548754 -0.31264637989832866
  outer loop
    vertex 10780.87998461765 11285.058001520407 5490.669561023853
    vertex 9804.2316330453 13405.826202593085 11500.0
    vertex 11292.879428984415 13213.258094431401 11500.0
  endloop
endfacet
facet normal -0.876742665876907 -0.36547850684756344 -0.3126463798983285
  outer loop
    vertex 4266.504060003653 6155.103294897711 11500.0
    vertex 6569.54072460386 5771.017514352291 5490.669561023853
    vertex 4844.059084346481 4769.612432245882 11500.0
  endloop
endfacet
facet normal -0.876742665876907 -0.36547850684756344 -0.3126463798983285
  outer loop
    vertex 6569.54072460386 5771.017514352291 5490.669561023853
    vertex 4266.504060003653 6155.103294897711 11500.0
    vertex 6192.374046227471 6675.798815808072 5490.669561023853
  endloop
endfacet
facet normal 0.12610742913472756 -0.9414611821278135 -0.3126463798983286
  outer loop
    vertex 11317.943075653087 2105.13936807356 11500.0
    vertex 9825.678008981286 3900.868951307363 5490.669561023853
    vertex 10797.247554742728 4031.0093542973786 5490.669561023853
  endloop
endfacet
facet normal 0.12610742913472756 -0.9414611821278135 -0.3126463798983286
  outer loop
    vertex 9825.678008981286 3900.868951307363 5490.669561023853
    vertex 11317.943075653087 2105.13936807356 11500.0
    vertex 9830.17942943559 1905.8554760276254 11500.0
  endloop
endfacet
facet normal -0.9414611821278134 -0.12610742913472775 -0.3126463798983284
  outer loop
    vertex 4067.2201679577174 7642.86694111521 11500.0
    vertex 6192.374046227471 6675.798815808072 5490.669561023853
    vertex 4266.504060003653 6155.103294897711 11500.0
  endloop
endfacet
facet normal -0.9414611821278134 -0.12610742913472775 -0.3126463798983284
  outer loop
    vertex 6192.374046227471 6675.798815808072 5490.669561023853
    vertex 4067.2201679577174 7642.86694111521 11500.0
    vertex 6062.233643237454 7647.368361569513 5490.669561023853
  endloop
endfacet
facet normal -0.9420206746548753 0.12185766147125857 -0.3126463798983284
  outer loop
    vertex 4259.788276119402 9131.514737054324 11500.0
    vertex 6062.233643237454 7647.368361569513 5490.669561023853
    vertex 4067.2201679577174 7642.86694111521 11500.0
  endloop
endfacet
facet normal -0.9420206746548753 0.12185766147125857 -0.3126463798983284
  outer loop
    vertex 6062.233643237454 7647.368361569513 5490.669561023853
    vertex 4259.788276119402 9131.514737054324 11500.0
    vertex 6187.988369030396 8619.515292687558 5490.669561023853
  endloop
endfacet
facet normal -0.35807252365375913 -0.8700106635639483 0.3389181510176853
  outer loop
    vertex 8853.53107786324 4026.623677100305 5490.669561023853
    vertex 6953.448575022189 2669.7204942212447 0.0
    vertex 8341.531633496475 2098.4235841893105 0.0
  endloop
endfacet
facet normal -0.35807252365375913 -0.8700106635639483 0.3389181510176853
  outer loop
    vertex 6953.448575022189 2669.7204942212447 0.0
    vertex 8853.53107786324 4026.623677100305 5490.669561023853
    vertex 7947.056968195517 4399.703554932927 5490.669561023853
  endloop
endfacet
facet normal -0.5744150743828563 0.7451052336633338 0.3389181510176853
  outer loop
    vertex 7156.048499604676 10305.015978018122 5490.669561023853
    vertex 6930.977124175972 12628.98728620432 0.0
    vertex 5742.1779577476245 11712.520550018757 0.0
  endloop
endfacet
facet normal -0.5744150743828563 0.7451052336633338 0.3389181510176853
  outer loop
    vertex 6930.977124175972 12628.98728620432 0.0
    vertex 7156.048499604676 10305.015978018122 5490.669561023853
    vertex 7932.382206282382 10903.505645946942 5490.669561023853
  endloop
endfacet
facet normal 0.12490542990061411 -0.9324875980366153 0.3389181510176855
  outer loop
    vertex 10797.247554742728 4031.0093542973786 5490.669561023853
    vertex 9830.17942943559 1905.8554760276254 0.0
    vertex 11317.943075653087 2105.13936807356 0.0
  endloop
endfacet
facet normal 0.12490542990061411 -0.9324875980366153 0.3389181510176855
  outer loop
    vertex 9830.17942943559 1905.8554760276254 0.0
    vertex 10797.247554742728 4031.0093542973786 5490.669561023853
    vertex 9825.678008981286 3900.868951307363 5490.669561023853
  endloop
endfacet
facet normal 0.3654785068475636 -0.876742665876907 -0.3126463798983285
  outer loop
    vertex 12703.43393830492 2682.69439241639 11500.0
    vertex 10797.247554742728 4031.0093542973786 5490.669561023853
    vertex 11702.02885619851 4408.176032673769 5490.669561023853
  endloop
endfacet
facet normal 0.3654785068475636 -0.876742665876907 -0.3126463798983285
  outer loop
    vertex 10797.247554742728 4031.0093542973786 5490.669561023853
    vertex 12703.43393830492 2682.69439241639 11500.0
    vertex 11317.943075653087 2105.13936807356 11500.0
  endloop
endfacet
facet normal 0.0 0.0 -1.0
  outer loop
    vertex 4259.788276119402 9131.514737054324 0.0
    vertex 4266.504060003653 6155.103294897711 0.0
    vertex 4067.2201679577174 7642.86694111521 0.0
  endloop
endfacet
facet normal 0.0 0.0 -1.0
  outer loop
    vertex 4266.504060003653 6155.103294897711 0.0
    vertex 4259.788276119402 9131.514737054324 0.0
    vertex 4831.0851861513365 10519.59779552861 0.0
  endloop
endfacet
facet normal 0.0 0.0 -1.0
  outer loop
    vertex 4266.504060003653 6155.103294897711 0.0
    vertex 4831.0851861513365 10519.59779552861 0.0
    vertex 4844.059084346481 4769.612432245882 0.0
  endloop
endfacet
facet normal 0.0 0.0 -1.0
  outer loop
    vertex 4844.059084346481 4769.612432245882 0.0
    vertex 4831.0851861513365 10519.59779552861 0.0
    vertex 5742.1779577476245 11712.520550018757 0.0
  endloop
endfacet
facet normal 0.0 0.0 -1.0
  outer loop
    vertex 4844.059084346481 4769.612432245882 0.0
    vertex 5742.1779577476245 11712.520550018757 0.0
    vertex 5760.525820532045 3580.813265817532 0.0
  endloop
endfacet
facet normal 0.0 0.0 -1.0
  outer loop
    vertex 5760.525820532045 3580.813265817532 0.0
    vertex 5742.1779577476245 11712.520550018757 0.0
    vertex 6930.977124175972 12628.98728620432 0.0
  endloop
endfacet
facet normal 0.0 0.0 -1.0
  outer loop
    vertex 5760.525820532045 3580.813265817532 0.0
    vertex 6930.977124175972 12628.98728620432 0.0
    vertex 6953.448575022189 2669.7204942212447 0.0
  endloop
endfacet
facet normal 0.0 0.0 -1.0
  outer loop
    vertex 6953.448575022189 2669.7204942212447 0.0
    vertex 6930.977124175972 12628.98728620432 0.0
    vertex 8316.467986827804 13206.54231054715 0.0
  endloop
endfacet
facet normal 0.0 0.0 -1.0
  outer loop
    vertex 6953.448575022189 2669.7204942212447 0.0
    vertex 8316.467986827804 13206.54231054715 0.0
    vertex 8067.205531240446 7655.8408393103555 0.0
  endloop
endfacet
facet normal 0.0 0.0 -1.0
  outer loop
    vertex 8067.205531240446 7655.8408393103555 0.0
    vertex 8316.467986827804 13206.54231054715 0.0
    vertex 8126.835335234577 8108.774168239767 0.0
  endloop
endfacet
facet normal 0.0 0.0 -1.0
  outer loop
    vertex 8126.835335234577 8108.774168239767 0.0
    vertex 8316.467986827804 13206.54231054715 0.0
    vertex 8301.66107461768 8530.840839310355 0.0
  endloop
endfacet
facet normal 0.0 0.0 -1.0
  outer loop
    vertex 8301.66107461768 8530.840839310355 0.0
    vertex 8316.467986827804 13206.54231054715 0.0
    vertex 8579.768664163987 8893.277706386814 0.0
  endloop
endfacet
facet normal 0.0 0.0 -1.0
  outer loop
    vertex 8579.768664163987 8893.277706386814 0.0
    vertex 8316.467986827804 13206.54231054715 0.0
    vertex 9804.2316330453 13405.826202593085 0.0
  endloop
endfacet
facet normal 0.0 0.0 -1.0
  outer loop
    vertex 8579.768664163987 8893.277706386814 0.0
    vertex 9804.2316330453 13405.826202593085 0.0
    vertex 8942.205531240446 9171.385295933123 0.0
  endloop
endfacet
facet normal 0.0 0.0 -1.0
  outer loop
    vertex 8942.205531240446 9171.385295933123 0.0
    vertex 9804.2316330453 13405.826202593085 0.0
    vertex 9364.272202311035 9346.211035316224 0.0
  endloop
endfacet
facet normal 0.0 0.0 -1.0
  outer loop
    vertex 9364.272202311035 9346.211035316224 0.0
    vertex 9804.2316330453 13405.826202593085 0.0
    vertex 9817.205531240446 9405.840839310356 0.0
  endloop
endfacet
facet normal 0.0 0.0 -1.0
  outer loop
    vertex 9817.205531240446 9405.840839310356 0.0
    vertex 9804.2316330453 13405.826202593085 0.0
    vertex 11292.879428984415 13213.258094431401 0.0
  endloop
endfacet
facet normal 0.0 0.0 -1.0
  outer loop
    vertex 9817.205531240446 9405.840839310356 0.0
    vertex 11292.879428984415 13213.258094431401 0.0
    vertex 10270.138860169858 9346.211035316224 0.0
  endloop
endfacet
facet normal 0.0 0.0 -1.0
  outer loop
    vertex 10270.138860169858 9346.211035316224 0.0
    vertex 11292.879428984415 13213.258094431401 0.0
    vertex 10692.205531240446 9171.385295933123 0.0
  endloop
endfacet
facet normal 0.0 0.0 -1.0
  outer loop
    vertex 10692.205531240446 9171.385295933123 0.0
    vertex 11292.879428984415 13213.258094431401 0.0
    vertex 11054.642398316906 8893.277706386814 0.0
  endloop
endfacet
facet normal 0.0 0.0 -1.0
  outer loop
    vertex 11054.642398316906 8893.277706386814 0.0
    vertex 11292.879428984415 13213.258094431401 0.0
    vertex 11332.749987863215 8530.840839310355 0.0
  endloop
endfacet
facet normal 0.0 0.0 -1.0
  outer loop
    vertex 11332.749987863215 8530.840839310355 0.0
    vertex 11292.879428984415 13213.258094431401 0.0
    vertex 12680.962487458703 12641.961184399466 0.0
  endloop
endfacet
facet normal 0.0 0.0 -1.0
  outer loop
    vertex 11332.749987863215 8530.840839310355 0.0
    vertex 12680.962487458703 12641.961184399466 0.0
    vertex 11507.575727246316 8108.774168239767 0.0
  endloop
endfacet
facet normal 0.0 0.0 -1.0
  outer loop
    vertex 11507.575727246316 8108.774168239767 0.0
    vertex 12680.962487458703 12641.961184399466 0.0
    vertex 11567.205531240446 7655.8408393103555 0.0
  endloop
endfacet
facet normal 0.0 0.0 -1.0
  outer loop
    vertex 8067.205531240446 7655.8408393103555 0.0
    vertex 8341.531633496475 2098.4235841893105 0.0
    vertex 6953.448575022189 2669.7204942212447 0.0
  endloop
endfacet
facet normal 0.0 0.0 -1.0
  outer loop
    vertex 8341.531633496475 2098.4235841893105 0.0
    vertex 8067.205531240446 7655.8408393103555 0.0
    vertex 8126.835335234577 7202.907510380945 0.0
  endloop
endfacet
facet normal 0.0 0.0 -1.0
  outer loop
    vertex 8341.531633496475 2098.4235841893105 0.0
    vertex 8126.835335234577 7202.907510380945 0.0
    vertex 8301.661074617678 6780.840839310355 0.0
  endloop
endfacet
facet normal 0.0 0.0 -1.0
  outer loop
    vertex 8341.531633496475 2098.4235841893105 0.0
    vertex 8301.661074617678 6780.840839310355 0.0
    vertex 8579.768664163987 6418.403972233898 0.0
  endloop
endfacet
facet normal 0.0 0.0 -1.0
  outer loop
    vertex 8341.531633496475 2098.4235841893105 0.0
    vertex 8579.768664163987 6418.403972233898 0.0
    vertex 9830.17942943559 1905.8554760276254 0.0
  endloop
endfacet
facet normal 0.0 0.0 -1.0
  outer loop
    vertex 9830.17942943559 1905.8554760276254 0.0
    vertex 8579.768664163987 6418.403972233898 0.0
    vertex 8942.205531240445 6140.2963826875875 0.0
  endloop
endfacet
facet normal 0.0 0.0 -1.0
  outer loop
    vertex 9830.17942943559 1905.8554760276254 0.0
    vertex 8942.205531240445 6140.2963826875875 0.0
    vertex 9364.272202311033 5965.470643304486 0.0
  endloop
endfacet
facet normal 0.0 0.0 -1.0
  outer loop
    vertex 9830.17942943559 1905.8554760276254 0.0
    vertex 9364.272202311033 5965.470643304486 0.0
    vertex 9817.205531240446 5905.840839310355 0.0
  endloop
endfacet
facet normal 0.0 0.0 -1.0
  outer loop
    vertex 9830.17942943559 1905.8554760276254 0.0
    vertex 9817.205531240446 5905.840839310355 0.0
    vertex 10270.138860169856 5965.470643304485 0.0
  endloop
endfacet
facet normal 0.0 0.0 -1.0
  outer loop
    vertex 9830.17942943559 1905.8554760276254 0.0
    vertex 10270.138860169856 5965.470643304485 0.0
    vertex 11317.943075653087 2105.13936807356 0.0
  endloop
endfacet
facet normal 0.0 0.0 -1.0
  outer loop
    vertex 11317.943075653087 2105.13936807356 0.0
    vertex 10270.138860169856 5965.470643304485 0.0
    vertex 10692.205531240445 6140.296382687587 0.0
  endloop
endfacet
facet normal 0.0 0.0 -1.0
  outer loop
    vertex 11317.943075653087 2105.13936807356 0.0
    vertex 10692.205531240445 6140.296382687587 0.0
    vertex 11054.642398316904 6418.403972233897 0.0
  endloop
endfacet
facet normal 0.0 0.0 -1.0
  outer loop
    vertex 11317.943075653087 2105.13936807356 0.0
    vertex 11054.642398316904 6418.403972233897 0.0
    vertex 11332.749987863213 6780.840839310354 0.0
  endloop
endfacet
facet normal 0.0 0.0 -1.0
  outer loop
    vertex 11317.943075653087 2105.13936807356 0.0
    vertex 11332.749987863213 6780.840839310354 0.0
    vertex 12703.43393830492 2682.69439241639 0.0
  endloop
endfacet
facet normal 0.0 0.0 -1.0
  outer loop
    vertex 12703.43393830492 2682.69439241639 0.0
    vertex 11332.749987863213 6780.840839310354 0.0
    vertex 11507.575727246316 7202.907510380942 0.0
  endloop
endfacet
facet normal 0.0 0.0 -1.0
  outer loop
    vertex 12703.43393830492 2682.69439241639 0.0
    vertex 11507.575727246316 7202.907510380942 0.0
    vertex 11567.205531240446 7655.8408393103555 0.0
  endloop
endfacet
facet normal 0.0 0.0 -1.0
  outer loop
    vertex 12703.43393830492 2682.69439241639 0.0
    vertex 11567.205531240446 7655.8408393103555 0.0
    vertex 12680.962487458703 12641.961184399466 0.0
  endloop
endfacet
facet normal 0.0 0.0 -1.0
  outer loop
    vertex 12703.43393830492 2682.69439241639 0.0
    vertex 12680.962487458703 12641.961184399466 0.0
    vertex 13873.885241948845 11730.86841280318 0.0
  endloop
endfacet
facet normal 0.0 0.0 -1.0
  outer loop
    vertex 12703.43393830492 2682.69439241639 0.0
    vertex 13873.885241948845 11730.86841280318 0.0
    vertex 13892.23310473327 3599.161128601954 0.0
  endloop
endfacet
facet normal 0.0 0.0 -1.0
  outer loop
    vertex 13892.23310473327 3599.161128601954 0.0
    vertex 13873.885241948845 11730.86841280318 0.0
    vertex 14790.351978134411 10542.069246374831 0.0
  endloop
endfacet
facet normal 0.0 0.0 -1.0
  outer loop
    vertex 13892.23310473327 3599.161128601954 0.0
    vertex 14790.351978134411 10542.069246374831 0.0
    vertex 14803.325876329556 4792.083883092097 0.0
  endloop
endfacet
facet normal 0.0 0.0 -1.0
  outer loop
    vertex 14803.325876329556 4792.083883092097 0.0
    vertex 14790.351978134411 10542.069246374831 0.0
    vertex 15367.90700247724 9156.578383723001 0.0
  endloop
endfacet
facet normal 0.0 0.0 -1.0
  outer loop
    vertex 14803.325876329556 4792.083883092097 0.0
    vertex 15367.90700247724 9156.578383723001 0.0
    vertex 15374.62278636149 6180.166941566386 0.0
  endloop
endfacet
facet normal 0.0 0.0 -1.0
  outer loop
    vertex 15374.62278636149 6180.166941566386 0.0
    vertex 15367.90700247724 9156.578383723001 0.0
    vertex 15567.190894523177 7668.814737505503 0.0
  endloop
endfacet
facet normal 0.8783830149669789 -0.36151835382728537 -0.31264637989832855
  outer loop
    vertex 13073.342815617872 5785.692276265423 5490.669561023853
    vertex 15374.62278636149 6180.166941566386 11500.0
    vertex 14803.325876329556 4792.083883092097 11500.0
  endloop
endfacet
facet normal 0.8783830149669789 -0.36151835382728537 -0.31264637989832855
  outer loop
    vertex 15374.62278636149 6180.166941566386 11500.0
    vertex 13073.342815617872 5785.692276265423 5490.669561023853
    vertex 13446.422693450497 6692.166385933152 5490.669561023853
  endloop
endfacet
facet normal -0.13052619222005274 -0.9914448613738103 -0.0
  outer loop
    vertex 10270.138860169858 9346.211035316224 11500.0
    vertex 9817.205531240446 9405.840839310356 0.0
    vertex 10270.138860169858 9346.211035316224 0.0
  endloop
endfacet
facet normal -0.13052619222005274 -0.9914448613738103 -0.0
  outer loop
    vertex 9817.205531240446 9405.840839310356 0.0
    vertex 10270.138860169858 9346.211035316224 11500.0
    vertex 9817.205531240446 9405.840839310356 11500.0
  endloop
endfacet
facet normal -0.7933533402912345 0.6087614290087217 0.0
  outer loop
    vertex 11332.749987863213 6780.840839310354 11500.0
    vertex 11054.642398316904 6418.403972233897 0.0
    vertex 11054.642398316904 6418.403972233897 11500.0
  endloop
endfacet
facet normal -0.7933533402912345 0.6087614290087217 0.0
  outer loop
    vertex 11054.642398316904 6418.403972233897 0.0
    vertex 11332.749987863213 6780.840839310354 11500.0
    vertex 11332.749987863213 6780.840839310354 0.0
  endloop
endfacet
facet normal -0.6087614290087201 0.7933533402912356 0.0
  outer loop
    vertex 10692.205531240445 6140.296382687587 11500.0
    vertex 11054.642398316904 6418.403972233897 0.0
    vertex 10692.205531240445 6140.296382687587 0.0
  endloop
endfacet
facet normal -0.6087614290087201 0.7933533402912356 0.0
  outer loop
    vertex 11054.642398316904 6418.403972233897 0.0
    vertex 10692.205531240445 6140.296382687587 11500.0
    vertex 11054.642398316904 6418.403972233897 11500.0
  endloop
endfacet
facet normal -0.9914448613738105 0.13052619222005235 0.0
  outer loop
    vertex 11567.205531240446 7655.8408393103555 11500.0
    vertex 11507.575727246316 7202.907510380942 0.0
    vertex 11507.575727246316 7202.907510380942 11500.0
  endloop
endfacet
facet normal -0.9914448613738105 0.13052619222005235 0.0
  outer loop
    vertex 11507.575727246316 7202.907510380942 0.0
    vertex 11567.205531240446 7655.8408393103555 11500.0
    vertex 11567.205531240446 7655.8408393103555 0.0
  endloop
endfacet
facet normal -0.9238795325112876 -0.3826834323650882 -0.0
  outer loop
    vertex 11332.749987863215 8530.840839310355 11500.0
    vertex 11507.575727246316 8108.774168239767 0.0
    vertex 11507.575727246316 8108.774168239767 11500.0
  endloop
endfacet
facet normal -0.9238795325112876 -0.3826834323650882 -0.0
  outer loop
    vertex 11507.575727246316 8108.774168239767 0.0
    vertex 11332.749987863215 8530.840839310355 11500.0
    vertex 11332.749987863215 8530.840839310355 0.0
  endloop
endfacet
facet normal -0.9238795325112863 0.3826834323650908 0.0
  outer loop
    vertex 11507.575727246316 7202.907510380942 11500.0
    vertex 11332.749987863213 6780.840839310354 0.0
    vertex 11332.749987863213 6780.840839310354 11500.0
  endloop
endfacet
facet normal -0.9238795325112863 0.3826834323650908 0.0
  outer loop
    vertex 11332.749987863213 6780.840839310354 0.0
    vertex 11507.575727246316 7202.907510380942 11500.0
    vertex 11507.575727246316 7202.907510380942 0.0
  endloop
endfacet
facet normal -0.6087614290087201 -0.7933533402912356 -0.0
  outer loop
    vertex 11054.642398316906 8893.277706386814 11500.0
    vertex 10692.205531240446 9171.385295933123 0.0
    vertex 11054.642398316906 8893.277706386814 0.0
  endloop
endfacet
facet normal -0.6087614290087201 -0.7933533402912356 -0.0
  outer loop
    vertex 10692.205531240446 9171.385295933123 0.0
    vertex 11054.642398316906 8893.277706386814 11500.0
    vertex 10692.205531240446 9171.385295933123 11500.0
  endloop
endfacet
facet normal -0.3826834323650882 -0.9238795325112876 -0.0
  outer loop
    vertex 10692.205531240446 9171.385295933123 11500.0
    vertex 10270.138860169858 9346.211035316224 0.0
    vertex 10692.205531240446 9171.385295933123 0.0
  endloop
endfacet
facet normal -0.3826834323650882 -0.9238795325112876 -0.0
  outer loop
    vertex 10270.138860169858 9346.211035316224 0.0
    vertex 10692.205531240446 9171.385295933123 11500.0
    vertex 10270.138860169858 9346.211035316224 11500.0
  endloop
endfacet
facet normal -0.38268343236508945 0.9238795325112868 0.0
  outer loop
    vertex 10270.138860169856 5965.470643304485 11500.0
    vertex 10692.205531240445 6140.296382687587 0.0
    vertex 10270.138860169856 5965.470643304485 0.0
  endloop
endfacet
facet normal -0.38268343236508945 0.9238795325112868 0.0
  outer loop
    vertex 10692.205531240445 6140.296382687587 0.0
    vertex 10270.138860169856 5965.470643304485 11500.0
    vertex 10692.205531240445 6140.296382687587 11500.0
  endloop
endfacet
facet normal -0.9914448613738103 -0.13052619222005274 -0.0
  outer loop
    vertex 11507.575727246316 8108.774168239767 11500.0
    vertex 11567.205531240446 7655.8408393103555 0.0
    vertex 11567.205531240446 7655.8408393103555 11500.0
  endloop
endfacet
facet normal -0.9914448613738103 -0.13052619222005274 -0.0
  outer loop
    vertex 11567.205531240446 7655.8408393103555 0.0
    vertex 11507.575727246316 8108.774168239767 11500.0
    vertex 11507.575727246316 8108.774168239767 0.0
  endloop
endfacet
facet normal -0.1305261922200516 0.9914448613738104 0.0
  outer loop
    vertex 9817.205531240446 5905.840839310355 11500.0
    vertex 10270.138860169856 5965.470643304485 0.0
    vertex 9817.205531240446 5905.840839310355 0.0
  endloop
endfacet
facet normal -0.1305261922200516 0.9914448613738104 0.0
  outer loop
    vertex 10270.138860169856 5965.470643304485 0.0
    vertex 9817.205531240446 5905.840839310355 11500.0
    vertex 10270.138860169856 5965.470643304485 11500.0
  endloop
endfacet
facet normal 0.933041757732823 -0.12069616910903878 0.3389181510176854
  outer loop
    vertex 15567.190894523177 7668.814737505503 0.0
    vertex 13446.422693450497 6692.166385933152 5490.669561023853
    vertex 15374.62278636149 6180.166941566386 0.0
  endloop
endfacet
facet normal 0.933041757732823 -0.12069616910903878 0.3389181510176854
  outer loop
    vertex 13446.422693450497 6692.166385933152 5490.669561023853
    vertex 15567.190894523177 7668.814737505503 0.0
    vertex 13572.17741924344 7664.313317051201 5490.669561023853
  endloop
endfacet
facet normal 0.942020674654875 -0.12185766147126001 -0.3126463798983284
  outer loop
    vertex 13446.422693450497 6692.166385933152 5490.669561023853
    vertex 15567.190894523177 7668.814737505503 11500.0
    vertex 15374.62278636149 6180.166941566386 11500.0
  endloop
endfacet
facet normal 0.942020674654875 -0.12185766147126001 -0.3126463798983284
  outer loop
    vertex 15567.190894523177 7668.814737505503 11500.0
    vertex 13446.422693450497 6692.166385933152 5490.669561023853
    vertex 13572.17741924344 7664.313317051201 5490.669561023853
  endloop
endfacet
facet normal 0.8700106635639487 -0.35807252365375813 0.3389181510176856
  outer loop
    vertex 15374.62278636149 6180.166941566386 0.0
    vertex 13073.342815617872 5785.692276265423 5490.669561023853
    vertex 14803.325876329556 4792.083883092097 0.0
  endloop
endfacet
facet normal 0.8700106635639487 -0.35807252365375813 0.3389181510176856
  outer loop
    vertex 13073.342815617872 5785.692276265423 5490.669561023853
    vertex 15374.62278636149 6180.166941566386 0.0
    vertex 13446.422693450497 6692.166385933152 5490.669561023853
  endloop
endfacet
facet normal -0.7933533402912356 -0.6087614290087201 -0.0
  outer loop
    vertex 11054.642398316906 8893.277706386814 11500.0
    vertex 11332.749987863215 8530.840839310355 0.0
    vertex 11332.749987863215 8530.840839310355 11500.0
  endloop
endfacet
facet normal -0.7933533402912356 -0.6087614290087201 -0.0
  outer loop
    vertex 11332.749987863215 8530.840839310355 0.0
    vertex 11054.642398316906 8893.277706386814 11500.0
    vertex 11054.642398316906 8893.277706386814 0.0
  endloop
endfacet
facet normal 0.8683859495428293 0.3619949302785222 0.3389181510176856
  outer loop
    vertex 15367.90700247724 9156.578383723001 0.0
    vertex 13064.870337877033 9540.664164268419 5490.669561023853
    vertex 13442.03701625342 8635.88286281264 5490.669561023853
  endloop
endfacet
facet normal 0.8683859495428293 0.3619949302785222 0.3389181510176856
  outer loop
    vertex 13064.870337877033 9540.664164268419 5490.669561023853
    vertex 15367.90700247724 9156.578383723001 0.0
    vertex 14790.351978134411 10542.069246374831 0.0
  endloop
endfacet
facet normal 0.8767426658769072 0.3654785068475631 -0.3126463798983286
  outer loop
    vertex 13064.870337877033 9540.664164268419 5490.669561023853
    vertex 15367.90700247724 9156.578383723001 11500.0
    vertex 13442.03701625342 8635.88286281264 5490.669561023853
  endloop
endfacet
facet normal 0.8767426658769072 0.3654785068475631 -0.3126463798983286
  outer loop
    vertex 15367.90700247724 9156.578383723001 11500.0
    vertex 13064.870337877033 9540.664164268419 5490.669561023853
    vertex 14790.351978134411 10542.069246374831 11500.0
  endloop
endfacet
facet normal 0.9414611821278133 0.12610742913472858 -0.3126463798983287
  outer loop
    vertex 13442.03701625342 8635.88286281264 5490.669561023853
    vertex 15567.190894523177 7668.814737505503 11500.0
    vertex 13572.17741924344 7664.313317051201 5490.669561023853
  endloop
endfacet
facet normal 0.9414611821278133 0.12610742913472858 -0.3126463798983287
  outer loop
    vertex 15567.190894523177 7668.814737505503 11500.0
    vertex 13442.03701625342 8635.88286281264 5490.669561023853
    vertex 15367.90700247724 9156.578383723001 11500.0
  endloop
endfacet
facet normal 0.9324875980366151 0.12490542990061493 0.3389181510176857
  outer loop
    vertex 15567.190894523177 7668.814737505503 0.0
    vertex 13442.03701625342 8635.88286281264 5490.669561023853
    vertex 13572.17741924344 7664.313317051201 5490.669561023853
  endloop
endfacet
facet normal 0.9324875980366151 0.12490542990061493 0.3389181510176857
  outer loop
    vertex 13442.03701625342 8635.88286281264 5490.669561023853
    vertex 15567.190894523177 7668.814737505503 0.0
    vertex 15367.90700247724 9156.578383723001 0.0
  endloop
endfacet
facet normal 0.7522755858322494 0.5799428283005281 -0.31264637989832866
  outer loop
    vertex 12466.380669948212 10316.997870946125 5490.669561023853
    vertex 14790.351978134411 10542.069246374831 11500.0
    vertex 13064.870337877033 9540.664164268419 5490.669561023853
  endloop
endfacet
facet normal 0.7522755858322494 0.5799428283005281 -0.31264637989832866
  outer loop
    vertex 14790.351978134411 10542.069246374831 11500.0
    vertex 12466.380669948212 10316.997870946125 5490.669561023853
    vertex 13873.885241948845 11730.86841280318 11500.0
  endloop
endfacet
facet normal 0.7451052336633327 0.5744150743828575 0.3389181510176857
  outer loop
    vertex 14790.351978134411 10542.069246374831 0.0
    vertex 12466.380669948212 10316.997870946125 5490.669561023853
    vertex 13064.870337877033 9540.664164268419 5490.669561023853
  endloop
endfacet
facet normal 0.7451052336633327 0.5744150743828575 0.3389181510176857
  outer loop
    vertex 12466.380669948212 10316.997870946125 5490.669561023853
    vertex 14790.351978134411 10542.069246374831 0.0
    vertex 13873.885241948845 11730.86841280318 0.0
  endloop
endfacet
endsolid FTC V-Bearing  (1)
