solid Untitled-5845cb62
facet normal -1.0 -6.635215253053867e-18 -1.2031856992204402e-17
  outer loop
    vertex -1048.6873357650852 16229.636145645929 7540.000000000006
    vertex -1048.687335765085 2629.636145645946 40.00000000000245
    vertex -1048.6873357650854 2629.6361456459185 7540.000000000012
  endloop
endfacet
facet normal -1.0 -6.635215253053867e-18 -1.2031856992204402e-17
  outer loop
    vertex -1048.687335765085 2629.636145645946 40.00000000000245
    vertex -1048.6873357650852 16229.636145645929 7540.000000000006
    vertex -1048.6873357650854 16229.636145645945 40.00000000000823
  endloop
endfacet
facet normal 0.0 1.0 -4.6202330850064694e-15
  outer loop
    vertex 1951.312664234914 5529.636145645934 4290.000000000009
    vertex 17951.31266423491 5529.636145645929 3040.0000000000073
    vertex 1951.312664234915 5529.636145645929 3040.0000000000073
  endloop
endfacet
facet normal 0.0 1.0 -4.6202330850064694e-15
  outer loop
    vertex 17951.31266423491 5529.636145645929 3040.0000000000073
    vertex 1951.312664234914 5529.636145645934 4290.000000000009
    vertex 17951.31266423491 5529.636145645934 4290.000000000009
  endloop
endfacet
facet normal 1.0 1.9747888443084604e-17 -3.704761318388107e-17
  outer loop
    vertex 1951.312664234914 13229.636145645934 3040.000000000016
    vertex 1951.312664234914 5529.636145645934 4290.000000000009
    vertex 1951.312664234915 5529.636145645929 3040.0000000000073
  endloop
endfacet
facet normal 1.0 1.9747888443084604e-17 -3.704761318388107e-17
  outer loop
    vertex 1951.312664234914 5529.636145645934 4290.000000000009
    vertex 1951.312664234914 13229.636145645934 3040.000000000016
    vertex 1951.312664234914 7029.636145645933 5278.234592312862
  endloop
endfacet
facet normal 1.0 1.9747888443084604e-17 -3.704761318388107e-17
  outer loop
    vertex 1951.312664234914 7029.636145645933 5278.234592312862
    vertex 1951.312664234914 13229.636145645934 3040.000000000016
    vertex 1951.3126642349146 13229.636145645929 7539.999999999989
  endloop
endfacet
facet normal 1.0 1.9747888443084604e-17 -3.704761318388107e-17
  outer loop
    vertex 1951.312664234914 5529.636145645939 6266.469184625716
    vertex 1951.3126642349146 13229.636145645929 7539.999999999989
    vertex 1951.312664234915 5529.6361456459235 7540.000000000012
  endloop
endfacet
facet normal 1.0 1.9747888443084604e-17 -3.704761318388107e-17
  outer loop
    vertex 1951.3126642349146 13229.636145645929 7539.999999999989
    vertex 1951.312664234914 5529.636145645939 6266.469184625716
    vertex 1951.312664234914 7029.636145645933 5278.234592312862
  endloop
endfacet
facet normal 0.0 -1.125056757712615e-15 1.0
  outer loop
    vertex 1951.312664234915 5529.636145645929 3040.0000000000073
    vertex 17951.31266423491 13229.636145645934 3040.000000000016
    vertex 1951.312664234914 13229.636145645934 3040.000000000016
  endloop
endfacet
facet normal 0.0 -1.125056757712615e-15 1.0
  outer loop
    vertex 17951.31266423491 13229.636145645934 3040.000000000016
    vertex 1951.312664234915 5529.636145645929 3040.0000000000073
    vertex 17951.31266423491 5529.636145645929 3040.0000000000073
  endloop
endfacet
facet normal -1.3579106066144361e-16 0.5501574205073969 0.8350609634395848
  outer loop
    vertex 17951.312664234905 5529.636145645939 6266.469184625713
    vertex 1951.312664234914 7029.636145645933 5278.234592312862
    vertex 1951.312664234914 5529.636145645939 6266.469184625716
  endloop
endfacet
facet normal -1.3579106066144361e-16 0.5501574205073969 0.8350609634395848
  outer loop
    vertex 1951.312664234914 7029.636145645933 5278.234592312862
    vertex 17951.312664234905 5529.636145645939 6266.469184625713
    vertex 17951.312664234905 7029.636145645933 5278.234592312862
  endloop
endfacet
facet normal -1.3579106066144361e-16 0.5501574205073969 0.8350609634395848
  outer loop
    vertex 17951.312664234905 7029.636145645933 5278.234592312862
    vertex 17951.312664234905 5529.636145645939 6266.469184625713
    vertex 17951.31266423491 7011.777924867194 5290.0000000000155
  endloop
endfacet
facet normal -1.0 0.0 0.0
  outer loop
    vertex 1951.312664234914 7029.636145645933 5278.234592312862
    vertex 1951.312664234914 5529.636145645934 4290.000000000009
    vertex 1951.312664234914 5529.636145645939 6266.469184625716
  endloop
endfacet
facet normal 1.0 5.936063956241257e-18 1.4522116899174424e-15
  outer loop
    vertex 17951.312664234905 7029.636145645933 5278.234592312862
    vertex 17951.312664234905 5529.636145645939 6266.469184625713
    vertex 17951.31266423491 5529.636145645934 4290.000000000009
  endloop
endfacet
facet normal 1.0 5.936063956241257e-18 1.4522116899174424e-15
  outer loop
    vertex 17951.312664234905 5529.636145645939 6266.469184625713
    vertex 17951.312664234905 7029.636145645933 5278.234592312862
    vertex 17951.31266423491 7011.777924867194 5290.0000000000155
  endloop
endfacet
facet normal -6.980568935682474e-19 0.5501574205073979 -0.8350609634395841
  outer loop
    vertex 17951.312664234905 7029.636145645933 5278.234592312862
    vertex 1951.312664234914 5529.636145645934 4290.000000000009
    vertex 1951.312664234914 7029.636145645933 5278.234592312862
  endloop
endfacet
facet normal -6.980568935682474e-19 0.5501574205073979 -0.8350609634395841
  outer loop
    vertex 1951.312664234914 5529.636145645934 4290.000000000009
    vertex 17951.312664234905 7029.636145645933 5278.234592312862
    vertex 17951.31266423491 5529.636145645934 4290.000000000009
  endloop
endfacet
facet normal -2.1477696765668904e-31 1.0 -2.1915183656222015e-15
  outer loop
    vertex 1951.312664234914 5529.636145645939 6266.469184625716
    vertex 17951.31266423491 5529.636145645934 4290.000000000009
    vertex 1951.312664234914 5529.636145645934 4290.000000000009
  endloop
endfacet
facet normal -2.1477696765668904e-31 1.0 -2.1915183656222015e-15
  outer loop
    vertex 17951.31266423491 5529.636145645934 4290.000000000009
    vertex 1951.312664234914 5529.636145645939 6266.469184625716
    vertex 17951.312664234905 5529.636145645939 6266.469184625713
  endloop
endfacet
facet normal -7.599067574023814e-17 5.3081722024431e-16 -1.0
  outer loop
    vertex 17951.31266423491 16229.636145645945 40.00000000000823
    vertex -1048.687335765085 2629.636145645946 40.00000000000245
    vertex -1048.6873357650854 16229.636145645945 40.00000000000823
  endloop
endfacet
facet normal -7.599067574023814e-17 5.3081722024431e-16 -1.0
  outer loop
    vertex -1048.687335765085 2629.636145645946 40.00000000000245
    vertex 17951.31266423491 16229.636145645945 40.00000000000823
    vertex 17951.31266423491 2629.636145645948 39.99999999999957
  endloop
endfacet
facet normal 3.3246461383986984e-29 1.0 1.8407643119438177e-13
  outer loop
    vertex 17951.31266423491 5529.636145645934 6290.000000000005
    vertex 17951.312664234905 5529.636145645939 6266.469184625713
    vertex 1951.312664234914 5529.636145645939 6266.469184625716
  endloop
endfacet
facet normal 5.699300680517833e-17 -1.0 -3.753939381567755e-15
  outer loop
    vertex 17951.31266423491 2629.6361456459185 7540.000000000012
    vertex -1048.687335765085 2629.636145645946 40.00000000000245
    vertex 17951.31266423491 2629.636145645948 39.99999999999957
  endloop
endfacet
facet normal 5.699300680517833e-17 -1.0 -3.753939381567755e-15
  outer loop
    vertex -1048.687335765085 2629.636145645946 40.00000000000245
    vertex 17951.31266423491 2629.6361456459185 7540.000000000012
    vertex -1048.6873357650854 2629.6361456459185 7540.000000000012
  endloop
endfacet
facet normal 0.0 -1.0 -1.2833980791684732e-15
  outer loop
    vertex 17951.31266423491 13229.636145645929 7539.999999999989
    vertex 1951.312664234914 13229.636145645934 3040.000000000016
    vertex 17951.31266423491 13229.636145645934 3040.000000000016
  endloop
endfacet
facet normal 0.0 -1.0 -1.2833980791684732e-15
  outer loop
    vertex 1951.312664234914 13229.636145645934 3040.000000000016
    vertex 17951.31266423491 13229.636145645929 7539.999999999989
    vertex 1951.3126642349146 13229.636145645929 7539.999999999989
  endloop
endfacet
facet normal 4.206879397601274e-17 1.0462956862030127e-15 1.0
  outer loop
    vertex -1048.6873357650854 2629.6361456459185 7540.000000000012
    vertex 1951.312664234915 5529.6361456459235 7540.000000000012
    vertex -1048.6873357650852 16229.636145645929 7540.000000000006
  endloop
endfacet
facet normal 4.206879397601274e-17 1.0462956862030127e-15 1.0
  outer loop
    vertex 1951.312664234915 5529.6361456459235 7540.000000000012
    vertex -1048.6873357650854 2629.6361456459185 7540.000000000012
    vertex 17951.31266423491 2629.6361456459185 7540.000000000012
  endloop
endfacet
facet normal 4.206879397601274e-17 1.0462956862030127e-15 1.0
  outer loop
    vertex -1048.6873357650852 16229.636145645929 7540.000000000006
    vertex 1951.312664234915 5529.6361456459235 7540.000000000012
    vertex 1951.3126642349146 13229.636145645929 7539.999999999989
  endloop
endfacet
facet normal 4.206879397601274e-17 1.0462956862030127e-15 1.0
  outer loop
    vertex 1951.312664234915 5529.6361456459235 7540.000000000012
    vertex 17951.31266423491 2629.6361456459185 7540.000000000012
    vertex 17951.31266423491 5529.6361456459235 7540.000000000012
  endloop
endfacet
facet normal 4.206879397601274e-17 1.0462956862030127e-15 1.0
  outer loop
    vertex 1951.3126642349146 13229.636145645929 7539.999999999989
    vertex 17951.31266423491 16229.636145645929 7540.000000000006
    vertex -1048.6873357650852 16229.636145645929 7540.000000000006
  endloop
endfacet
facet normal 4.206879397601274e-17 1.0462956862030127e-15 1.0
  outer loop
    vertex 17951.31266423491 16229.636145645929 7540.000000000006
    vertex 1951.3126642349146 13229.636145645929 7539.999999999989
    vertex 17951.31266423491 13229.636145645929 7539.999999999989
  endloop
endfacet
facet normal 0.0 1.0 2.3101165425032383e-15
  outer loop
    vertex -1048.6873357650852 16229.636145645929 7540.000000000006
    vertex 17951.31266423491 16229.636145645945 40.00000000000823
    vertex -1048.6873357650854 16229.636145645945 40.00000000000823
  endloop
endfacet
facet normal 0.0 1.0 2.3101165425032383e-15
  outer loop
    vertex 17951.31266423491 16229.636145645945 40.00000000000823
    vertex -1048.6873357650852 16229.636145645929 7540.000000000006
    vertex 17951.31266423491 16229.636145645929 7540.000000000006
  endloop
endfacet
facet normal 1.0 -2.787414939156349e-17 4.504220461761591e-17
  outer loop
    vertex 17951.31266423491 2629.636145645948 39.99999999999957
    vertex 17951.31266423491 5529.6361456459235 7540.000000000012
    vertex 17951.31266423491 2629.6361456459185 7540.000000000012
  endloop
endfacet
facet normal 1.0 -2.787414939156349e-17 4.504220461761591e-17
  outer loop
    vertex 17951.31266423491 5529.6361456459235 7540.000000000012
    vertex 17951.31266423491 2629.636145645948 39.99999999999957
    vertex 17951.31266423491 5529.636145645929 3040.0000000000073
  endloop
endfacet
facet normal 1.0 -2.787414939156349e-17 4.504220461761591e-17
  outer loop
    vertex 17951.31266423491 5529.636145645929 3040.0000000000073
    vertex 17951.31266423491 2629.636145645948 39.99999999999957
    vertex 17951.31266423491 16229.636145645945 40.00000000000823
  endloop
endfacet
facet normal 1.0 -2.787414939156349e-17 4.504220461761591e-17
  outer loop
    vertex 17951.31266423491 5529.636145645929 3040.0000000000073
    vertex 17951.31266423491 16229.636145645945 40.00000000000823
    vertex 17951.31266423491 13229.636145645934 3040.000000000016
  endloop
endfacet
facet normal 1.0 -2.787414939156349e-17 4.504220461761591e-17
  outer loop
    vertex 17951.31266423491 13229.636145645934 3040.000000000016
    vertex 17951.31266423491 16229.636145645945 40.00000000000823
    vertex 17951.31266423491 16229.636145645929 7540.000000000006
  endloop
endfacet
facet normal 1.0 -2.787414939156349e-17 4.504220461761591e-17
  outer loop
    vertex 17951.31266423491 16229.636145645929 7540.000000000006
    vertex 17951.31266423491 13229.636145645929 7539.999999999989
    vertex 17951.31266423491 13229.636145645934 3040.000000000016
  endloop
endfacet
facet normal 1.0 -2.787414939156349e-17 4.504220461761591e-17
  outer loop
    vertex 17951.31266423491 5529.636145645929 3040.0000000000073
    vertex 17951.31266423491 5529.636145645934 6290.000000000005
    vertex 17951.31266423491 5529.6361456459235 7540.000000000012
  endloop
endfacet
facet normal 1.0 -2.787414939156349e-17 4.504220461761591e-17
  outer loop
    vertex 17951.31266423491 5529.636145645934 6290.000000000005
    vertex 17951.31266423491 5529.636145645929 3040.0000000000073
    vertex 17951.31266423491 5529.636145645934 4290.000000000009
  endloop
endfacet
facet normal 1.0 -2.787414939156349e-17 4.504220461761591e-17
  outer loop
    vertex 17951.31266423491 5529.636145645934 6290.000000000005
    vertex 17951.31266423491 5529.636145645934 4290.000000000009
    vertex 17951.312664234905 5529.636145645939 6266.469184625713
  endloop
endfacet
facet normal 1.2735365400685441e-16 1.0 1.0885793156751991e-14
  outer loop
    vertex 1951.312664234915 5529.6361456459235 7540.000000000012
    vertex 17951.31266423491 5529.636145645934 6290.000000000005
    vertex 1951.312664234914 5529.636145645939 6266.469184625716
  endloop
endfacet
facet normal 1.2735365400685441e-16 1.0 1.0885793156751991e-14
  outer loop
    vertex 17951.31266423491 5529.636145645934 6290.000000000005
    vertex 1951.312664234915 5529.6361456459235 7540.000000000012
    vertex 17951.31266423491 5529.6361456459235 7540.000000000012
  endloop
endfacet
endsolid Untitled-5845cb63
