solid FTCField
facet normal 0.0 -1.0 0.0
  outer loop
    vertex 24.575333240908606 19.89967086252961 0.47620078740156613
    vertex 24.20131749287711 19.89967086252961 0.08249999999999134
    vertex 24.575333240908606 19.89967086252961 0.08249999999999134
  endloop
endfacet
facet normal 0.0 -1.0 0.0
  outer loop
    vertex 24.20131749287711 19.89967086252961 0.08249999999999134
    vertex 24.575333240908606 19.89967086252961 0.47620078740156613
    vertex 24.20131749287711 19.89967086252961 0.47620078740156613
  endloop
endfacet
facet normal 1.0 0.0 0.0
  outer loop
    vertex 25.37940581130602 21.075926926511755 -8.354428260304303e-15
    vertex 25.37940581130602 19.095926926511765 0.08249999999999165
    vertex 25.37940581130602 19.095926926511765 -8.354428260304303e-15
  endloop
endfacet
facet normal 1.0 0.0 0.0
  outer loop
    vertex 25.37940581130602 19.095926926511765 0.08249999999999165
    vertex 25.37940581130602 21.075926926511755 -8.354428260304303e-15
    vertex 25.37940581130602 21.075926926511755 0.08249999999999165
  endloop
endfacet
facet normal 0.0 1.0 0.0
  outer loop
    vertex 24.280057650357428 19.978411020009926 0.47620078740156613
    vertex 24.496593083428294 19.978411020009926 0.08249999999999134
    vertex 24.280057650357428 19.978411020009926 0.08249999999999134
  endloop
endfacet
facet normal 0.0 1.0 0.0
  outer loop
    vertex 24.496593083428294 19.978411020009926 0.08249999999999134
    vertex 24.280057650357428 19.978411020009926 0.47620078740156613
    vertex 24.496593083428294 19.978411020009926 0.47620078740156613
  endloop
endfacet
facet normal 0.0 -1.0 0.0
  outer loop
    vertex 24.496593083428294 20.194946453080792 0.47620078740156613
    vertex 24.280057650357428 20.194946453080792 0.08249999999999134
    vertex 24.496593083428294 20.194946453080792 0.08249999999999134
  endloop
endfacet
facet normal 0.0 -1.0 0.0
  outer loop
    vertex 24.280057650357428 20.194946453080792 0.08249999999999134
    vertex 24.496593083428294 20.194946453080792 0.47620078740156613
    vertex 24.280057650357428 20.194946453080792 0.47620078740156613
  endloop
endfacet
facet normal -1.0 0.0 0.0
  outer loop
    vertex 24.496593083428294 20.194946453080792 0.47620078740156613
    vertex 24.496593083428294 19.978411020009926 0.08249999999999134
    vertex 24.496593083428294 19.978411020009926 0.47620078740156613
  endloop
endfacet
facet normal -1.0 0.0 0.0
  outer loop
    vertex 24.496593083428294 19.978411020009926 0.08249999999999134
    vertex 24.496593083428294 20.194946453080792 0.47620078740156613
    vertex 24.496593083428294 20.194946453080792 0.08249999999999134
  endloop
endfacet
facet normal 0.0 1.0 0.0
  outer loop
    vertex 23.399405811306014 21.075926926511755 0.08249999999999165
    vertex 25.37940581130602 21.075926926511755 -8.354428260304303e-15
    vertex 23.399405811306014 21.075926926511755 -8.354428260304303e-15
  endloop
endfacet
facet normal 0.0 1.0 0.0
  outer loop
    vertex 25.37940581130602 21.075926926511755 -8.354428260304303e-15
    vertex 23.399405811306014 21.075926926511755 0.08249999999999165
    vertex 25.37940581130602 21.075926926511755 0.08249999999999165
  endloop
endfacet
facet normal 0.0 0.0 1.0
  outer loop
    vertex 23.399405811306014 19.095926926511765 0.08249999999999165
    vertex 24.20131749287711 19.89967086252961 0.08249999999999134
    vertex 23.399405811306014 21.075926926511755 0.08249999999999165
  endloop
endfacet
facet normal 0.0 0.0 1.0
  outer loop
    vertex 24.20131749287711 19.89967086252961 0.08249999999999134
    vertex 23.399405811306014 19.095926926511765 0.08249999999999165
    vertex 25.37940581130602 19.095926926511765 0.08249999999999165
  endloop
endfacet
facet normal 0.0 0.0 1.0
  outer loop
    vertex 24.20131749287711 19.89967086252961 0.08249999999999134
    vertex 25.37940581130602 19.095926926511765 0.08249999999999165
    vertex 24.575333240908606 19.89967086252961 0.08249999999999134
  endloop
endfacet
facet normal 0.0 0.0 1.0
  outer loop
    vertex 24.575333240908606 19.89967086252961 0.08249999999999134
    vertex 25.37940581130602 19.095926926511765 0.08249999999999165
    vertex 24.575333240908606 20.273686610561107 0.08249999999999134
  endloop
endfacet
facet normal 0.0 0.0 1.0
  outer loop
    vertex 23.399405811306014 21.075926926511755 0.08249999999999165
    vertex 24.20131749287711 20.273686610561107 0.08249999999999134
    vertex 25.37940581130602 21.075926926511755 0.08249999999999165
  endloop
endfacet
facet normal 0.0 0.0 1.0
  outer loop
    vertex 24.20131749287711 20.273686610561107 0.08249999999999134
    vertex 23.399405811306014 21.075926926511755 0.08249999999999165
    vertex 24.20131749287711 19.89967086252961 0.08249999999999134
  endloop
endfacet
facet normal 0.0 0.0 1.0
  outer loop
    vertex 25.37940581130602 21.075926926511755 0.08249999999999165
    vertex 24.20131749287711 20.273686610561107 0.08249999999999134
    vertex 24.575333240908606 20.273686610561107 0.08249999999999134
  endloop
endfacet
facet normal 0.0 0.0 1.0
  outer loop
    vertex 25.37940581130602 21.075926926511755 0.08249999999999165
    vertex 24.575333240908606 20.273686610561107 0.08249999999999134
    vertex 25.37940581130602 19.095926926511765 0.08249999999999165
  endloop
endfacet
facet normal 0.0 0.0 1.0
  outer loop
    vertex 24.496593083428294 19.978411020009926 0.08249999999999134
    vertex 24.280057650357428 20.194946453080792 0.08249999999999134
    vertex 24.280057650357428 19.978411020009926 0.08249999999999134
  endloop
endfacet
facet normal 0.0 0.0 1.0
  outer loop
    vertex 24.280057650357428 20.194946453080792 0.08249999999999134
    vertex 24.496593083428294 19.978411020009926 0.08249999999999134
    vertex 24.496593083428294 20.194946453080792 0.08249999999999134
  endloop
endfacet
facet normal 0.0 -1.0 0.0
  outer loop
    vertex 25.37940581130602 19.095926926511765 0.08249999999999165
    vertex 23.399405811306014 19.095926926511765 -8.354428260304303e-15
    vertex 25.37940581130602 19.095926926511765 -8.354428260304303e-15
  endloop
endfacet
facet normal 0.0 -1.0 0.0
  outer loop
    vertex 23.399405811306014 19.095926926511765 -8.354428260304303e-15
    vertex 25.37940581130602 19.095926926511765 0.08249999999999165
    vertex 23.399405811306014 19.095926926511765 0.08249999999999165
  endloop
endfacet
facet normal 0.0 1.0 0.0
  outer loop
    vertex 24.20131749287711 20.273686610561107 0.47620078740156613
    vertex 24.575333240908606 20.273686610561107 0.08249999999999134
    vertex 24.20131749287711 20.273686610561107 0.08249999999999134
  endloop
endfacet
facet normal 0.0 1.0 0.0
  outer loop
    vertex 24.575333240908606 20.273686610561107 0.08249999999999134
    vertex 24.20131749287711 20.273686610561107 0.47620078740156613
    vertex 24.575333240908606 20.273686610561107 0.47620078740156613
  endloop
endfacet
facet normal 0.0 0.0 -1.0
  outer loop
    vertex 25.37940581130602 21.075926926511755 -8.354428260304303e-15
    vertex 23.399405811306014 19.095926926511765 -8.354428260304303e-15
    vertex 23.399405811306014 21.075926926511755 -8.354428260304303e-15
  endloop
endfacet
facet normal 0.0 0.0 -1.0
  outer loop
    vertex 23.399405811306014 19.095926926511765 -8.354428260304303e-15
    vertex 25.37940581130602 21.075926926511755 -8.354428260304303e-15
    vertex 25.37940581130602 19.095926926511765 -8.354428260304303e-15
  endloop
endfacet
facet normal -1.0 0.0 0.0
  outer loop
    vertex 23.399405811306014 21.075926926511755 0.08249999999999165
    vertex 23.399405811306014 19.095926926511765 -8.354428260304303e-15
    vertex 23.399405811306014 19.095926926511765 0.08249999999999165
  endloop
endfacet
facet normal -1.0 0.0 0.0
  outer loop
    vertex 23.399405811306014 19.095926926511765 -8.354428260304303e-15
    vertex 23.399405811306014 21.075926926511755 0.08249999999999165
    vertex 23.399405811306014 21.075926926511755 -8.354428260304303e-15
  endloop
endfacet
facet normal -1.0 -0.0 -0.0
  outer loop
    vertex 24.20131749287711 20.273686610561107 0.47620078740156613
    vertex 24.20131749287711 19.89967086252961 0.08249999999999134
    vertex 24.20131749287711 19.89967086252961 0.47620078740156613
  endloop
endfacet
facet normal -1.0 -0.0 -0.0
  outer loop
    vertex 24.20131749287711 19.89967086252961 0.08249999999999134
    vertex 24.20131749287711 20.273686610561107 0.47620078740156613
    vertex 24.20131749287711 20.273686610561107 0.08249999999999134
  endloop
endfacet
facet normal 1.0 0.0 0.0
  outer loop
    vertex 24.575333240908606 20.273686610561107 0.08249999999999134
    vertex 24.575333240908606 19.89967086252961 0.47620078740156613
    vertex 24.575333240908606 19.89967086252961 0.08249999999999134
  endloop
endfacet
facet normal 1.0 0.0 0.0
  outer loop
    vertex 24.575333240908606 19.89967086252961 0.47620078740156613
    vertex 24.575333240908606 20.273686610561107 0.08249999999999134
    vertex 24.575333240908606 20.273686610561107 0.47620078740156613
  endloop
endfacet
facet normal 0.0 0.0 1.0
  outer loop
    vertex 24.20131749287711 19.89967086252961 0.47620078740156613
    vertex 24.280057650357428 19.978411020009926 0.47620078740156613
    vertex 24.20131749287711 20.273686610561107 0.47620078740156613
  endloop
endfacet
facet normal 0.0 0.0 1.0
  outer loop
    vertex 24.280057650357428 19.978411020009926 0.47620078740156613
    vertex 24.20131749287711 19.89967086252961 0.47620078740156613
    vertex 24.575333240908606 19.89967086252961 0.47620078740156613
  endloop
endfacet
facet normal 0.0 0.0 1.0
  outer loop
    vertex 24.280057650357428 19.978411020009926 0.47620078740156613
    vertex 24.575333240908606 19.89967086252961 0.47620078740156613
    vertex 24.496593083428294 19.978411020009926 0.47620078740156613
  endloop
endfacet
facet normal 0.0 0.0 1.0
  outer loop
    vertex 24.496593083428294 19.978411020009926 0.47620078740156613
    vertex 24.575333240908606 19.89967086252961 0.47620078740156613
    vertex 24.496593083428294 20.194946453080792 0.47620078740156613
  endloop
endfacet
facet normal 0.0 0.0 1.0
  outer loop
    vertex 24.20131749287711 20.273686610561107 0.47620078740156613
    vertex 24.280057650357428 20.194946453080792 0.47620078740156613
    vertex 24.575333240908606 20.273686610561107 0.47620078740156613
  endloop
endfacet
facet normal 0.0 0.0 1.0
  outer loop
    vertex 24.280057650357428 20.194946453080792 0.47620078740156613
    vertex 24.20131749287711 20.273686610561107 0.47620078740156613
    vertex 24.280057650357428 19.978411020009926 0.47620078740156613
  endloop
endfacet
facet normal 0.0 0.0 1.0
  outer loop
    vertex 24.575333240908606 20.273686610561107 0.47620078740156613
    vertex 24.280057650357428 20.194946453080792 0.47620078740156613
    vertex 24.496593083428294 20.194946453080792 0.47620078740156613
  endloop
endfacet
facet normal 0.0 0.0 1.0
  outer loop
    vertex 24.575333240908606 20.273686610561107 0.47620078740156613
    vertex 24.496593083428294 20.194946453080792 0.47620078740156613
    vertex 24.575333240908606 19.89967086252961 0.47620078740156613
  endloop
endfacet
facet normal 1.0 0.0 0.0
  outer loop
    vertex 24.280057650357428 20.194946453080792 0.08249999999999134
    vertex 24.280057650357428 19.978411020009926 0.47620078740156613
    vertex 24.280057650357428 19.978411020009926 0.08249999999999134
  endloop
endfacet
facet normal 1.0 0.0 0.0
  outer loop
    vertex 24.280057650357428 19.978411020009926 0.47620078740156613
    vertex 24.280057650357428 20.194946453080792 0.08249999999999134
    vertex 24.280057650357428 20.194946453080792 0.47620078740156613
  endloop
endfacet
endsolid FTCField
