solid FTCMiniFieldCorners
facet normal 2.442123202074849e-14 1.0 1.148277724151531e-31
  outer loop
    vertex 4.470846834400712 28.133848851699334 1.2823722875272767e-30
    vertex 7.470846834400715 28.13384885169926 2.0
    vertex 12.470846834400719 28.13384885169914 1.2823722875272767e-30
  endloop
endfacet
facet normal 2.442123202074849e-14 1.0 1.148277724151531e-31
  outer loop
    vertex 7.470846834400715 28.13384885169926 2.0
    vertex 4.470846834400712 28.133848851699334 1.2823722875272767e-30
    vertex 4.470846834400712 28.133848851699334 27.0
  endloop
endfacet
facet normal 2.442123202074849e-14 1.0 1.148277724151531e-31
  outer loop
    vertex 7.470846834400715 28.13384885169926 2.0
    vertex 4.470846834400712 28.133848851699334 27.0
    vertex 7.470846834400715 28.13384885169926 27.0
  endloop
endfacet
facet normal 2.442123202074849e-14 1.0 1.148277724151531e-31
  outer loop
    vertex 12.470846834400719 28.13384885169914 1.2823722875272767e-30
    vertex 9.47084683440072 28.133848851699213 2.0
    vertex 12.470846834400719 28.13384885169914 27.0
  endloop
endfacet
facet normal 2.442123202074849e-14 1.0 1.148277724151531e-31
  outer loop
    vertex 9.47084683440072 28.133848851699213 2.0
    vertex 12.470846834400719 28.13384885169914 1.2823722875272767e-30
    vertex 7.470846834400715 28.13384885169926 2.0
  endloop
endfacet
facet normal 2.442123202074849e-14 1.0 1.148277724151531e-31
  outer loop
    vertex 12.470846834400719 28.13384885169914 27.0
    vertex 9.47084683440072 28.133848851699213 2.0
    vertex 9.47084683440072 28.133848851699213 27.0
  endloop
endfacet
facet normal 1.0 7.651982348837435e-64 -2.6255029574762576e-32
  outer loop
    vertex 12.470846834400719 28.13384885169914 1.2823722875272767e-30
    vertex 12.470846834400719 6.133848851699218 27.0
    vertex 12.470846834400719 6.133848851699218 6.411861437636384e-31
  endloop
endfacet
facet normal 1.0 7.651982348837435e-64 -2.6255029574762576e-32
  outer loop
    vertex 12.470846834400719 6.133848851699218 27.0
    vertex 12.470846834400719 28.13384885169914 1.2823722875272767e-30
    vertex 12.470846834400719 28.13384885169914 27.0
  endloop
endfacet
facet normal -6.562831086656925e-17 1.0 2.7331483509162354e-32
  outer loop
    vertex 12.470846834400719 6.133848851699218 6.411861437636384e-31
    vertex 34.47084683440072 6.133848851699219 27.0
    vertex 34.47084683440072 6.133848851699219 0.0
  endloop
endfacet
facet normal -6.562831086656925e-17 1.0 2.7331483509162354e-32
  outer loop
    vertex 34.47084683440072 6.133848851699219 27.0
    vertex 12.470846834400719 6.133848851699218 6.411861437636384e-31
    vertex 12.470846834400719 6.133848851699218 27.0
  endloop
endfacet
facet normal -9.900042946338014e-33 3.8216265105521985e-32 -1.0
  outer loop
    vertex 12.470846834400719 28.13384885169914 1.2823722875272767e-30
    vertex 4.470846834400719 -1.8661511483007804 0.0
    vertex 4.470846834400712 28.133848851699334 1.2823722875272767e-30
  endloop
endfacet
facet normal -9.900042946338014e-33 3.8216265105521985e-32 -1.0
  outer loop
    vertex 4.470846834400719 -1.8661511483007804 0.0
    vertex 12.470846834400719 28.13384885169914 1.2823722875272767e-30
    vertex 12.470846834400719 6.133848851699218 6.411861437636384e-31
  endloop
endfacet
facet normal -9.900042946338014e-33 3.8216265105521985e-32 -1.0
  outer loop
    vertex 4.470846834400719 -1.8661511483007804 0.0
    vertex 12.470846834400719 6.133848851699218 6.411861437636384e-31
    vertex 34.47084683440072 -1.8661511483007804 0.0
  endloop
endfacet
facet normal -9.900042946338014e-33 3.8216265105521985e-32 -1.0
  outer loop
    vertex 34.47084683440072 -1.8661511483007804 0.0
    vertex 12.470846834400719 6.133848851699218 6.411861437636384e-31
    vertex 34.47084683440072 6.133848851699219 0.0
  endloop
endfacet
facet normal -0.0 -0.0 1.0
  outer loop
    vertex 34.47084683440072 1.1338488516992193 2.0
    vertex 9.47084683440072 3.133848851699218 2.0
    vertex 7.470846834400719 1.1338488516992193 2.0
  endloop
endfacet
facet normal -0.0 -0.0 1.0
  outer loop
    vertex 9.47084683440072 3.133848851699218 2.0
    vertex 34.47084683440072 1.1338488516992193 2.0
    vertex 34.47084683440072 3.1338488516992196 2.0
  endloop
endfacet
facet normal -0.0 -0.0 1.0
  outer loop
    vertex 7.470846834400719 1.1338488516992193 2.0
    vertex 9.47084683440072 28.133848851699213 2.0
    vertex 7.470846834400715 28.13384885169926 2.0
  endloop
endfacet
facet normal -0.0 -0.0 1.0
  outer loop
    vertex 9.47084683440072 28.133848851699213 2.0
    vertex 7.470846834400719 1.1338488516992193 2.0
    vertex 9.47084683440072 3.133848851699218 2.0
  endloop
endfacet
facet normal 1.0 -0.0 -0.0
  outer loop
    vertex 34.47084683440072 -1.8661511483007804 0.0
    vertex 34.47084683440072 1.1338488516992193 2.0
    vertex 34.47084683440072 -1.8661511483007804 27.0
  endloop
endfacet
facet normal 1.0 -0.0 -0.0
  outer loop
    vertex 34.47084683440072 1.1338488516992193 2.0
    vertex 34.47084683440072 -1.8661511483007804 0.0
    vertex 34.47084683440072 6.133848851699219 0.0
  endloop
endfacet
facet normal 1.0 -0.0 -0.0
  outer loop
    vertex 34.47084683440072 1.1338488516992193 2.0
    vertex 34.47084683440072 6.133848851699219 0.0
    vertex 34.47084683440072 3.1338488516992196 2.0
  endloop
endfacet
facet normal 1.0 -0.0 -0.0
  outer loop
    vertex 34.47084683440072 3.1338488516992196 2.0
    vertex 34.47084683440072 6.133848851699219 0.0
    vertex 34.47084683440072 3.1338488516992196 27.0
  endloop
endfacet
facet normal 1.0 -0.0 -0.0
  outer loop
    vertex 34.47084683440072 3.1338488516992196 27.0
    vertex 34.47084683440072 6.133848851699219 0.0
    vertex 34.47084683440072 6.133848851699219 27.0
  endloop
endfacet
facet normal 1.0 -0.0 -0.0
  outer loop
    vertex 34.47084683440072 1.1338488516992196 27.0
    vertex 34.47084683440072 -1.8661511483007804 27.0
    vertex 34.47084683440072 1.1338488516992193 2.0
  endloop
endfacet
facet normal -0.0 -1.0 -4.1223551963712965e-32
  outer loop
    vertex 34.47084683440072 -1.8661511483007804 27.0
    vertex 4.470846834400719 -1.8661511483007804 0.0
    vertex 34.47084683440072 -1.8661511483007804 0.0
  endloop
endfacet
facet normal -0.0 -1.0 -4.1223551963712965e-32
  outer loop
    vertex 4.470846834400719 -1.8661511483007804 0.0
    vertex 34.47084683440072 -1.8661511483007804 27.0
    vertex 4.470846834400719 -1.8661511483007804 27.0
  endloop
endfacet
facet normal -1.0 -2.4063713984408635e-16 2.5462365056648892e-33
  outer loop
    vertex 4.470846834400712 28.133848851699334 27.0
    vertex 4.470846834400719 -1.8661511483007804 0.0
    vertex 4.470846834400719 -1.8661511483007804 27.0
  endloop
endfacet
facet normal -1.0 -2.4063713984408635e-16 2.5462365056648892e-33
  outer loop
    vertex 4.470846834400719 -1.8661511483007804 0.0
    vertex 4.470846834400712 28.133848851699334 27.0
    vertex 4.470846834400712 28.133848851699334 1.2823722875272767e-30
  endloop
endfacet
facet normal 3.902223889363559e-18 3.902223889363528e-18 1.0
  outer loop
    vertex 4.470846834400719 -1.8661511483007804 27.0
    vertex 7.470846834400715 28.13384885169926 27.0
    vertex 4.470846834400712 28.133848851699334 27.0
  endloop
endfacet
facet normal 3.902223889363559e-18 3.902223889363528e-18 1.0
  outer loop
    vertex 7.470846834400715 28.13384885169926 27.0
    vertex 4.470846834400719 -1.8661511483007804 27.0
    vertex 7.470846834400719 1.1338488516992196 27.0
  endloop
endfacet
facet normal 3.902223889363559e-18 3.902223889363528e-18 1.0
  outer loop
    vertex 7.470846834400719 1.1338488516992196 27.0
    vertex 4.470846834400719 -1.8661511483007804 27.0
    vertex 34.47084683440072 -1.8661511483007804 27.0
  endloop
endfacet
facet normal 3.902223889363559e-18 3.902223889363528e-18 1.0
  outer loop
    vertex 7.470846834400719 1.1338488516992196 27.0
    vertex 34.47084683440072 -1.8661511483007804 27.0
    vertex 34.47084683440072 1.1338488516992196 27.0
  endloop
endfacet
facet normal 0.0 1.0 -3.902223889363529e-18
  outer loop
    vertex 7.470846834400719 1.1338488516992196 27.0
    vertex 34.47084683440072 1.1338488516992193 2.0
    vertex 7.470846834400719 1.1338488516992193 2.0
  endloop
endfacet
facet normal 0.0 1.0 -3.902223889363529e-18
  outer loop
    vertex 34.47084683440072 1.1338488516992193 2.0
    vertex 7.470846834400719 1.1338488516992196 27.0
    vertex 34.47084683440072 1.1338488516992196 27.0
  endloop
endfacet
facet normal 1.0 1.6042475989605794e-16 -3.9022238893635605e-18
  outer loop
    vertex 7.470846834400715 28.13384885169926 2.0
    vertex 7.470846834400719 1.1338488516992196 27.0
    vertex 7.470846834400719 1.1338488516992193 2.0
  endloop
endfacet
facet normal 1.0 1.6042475989605794e-16 -3.9022238893635605e-18
  outer loop
    vertex 7.470846834400719 1.1338488516992196 27.0
    vertex 7.470846834400715 28.13384885169926 2.0
    vertex 7.470846834400715 28.13384885169926 27.0
  endloop
endfacet
facet normal 0.0 0.0 1.0
  outer loop
    vertex 9.47084683440072 3.133848851699218 27.0
    vertex 12.470846834400719 6.133848851699218 27.0
    vertex 9.47084683440072 28.133848851699213 27.0
  endloop
endfacet
facet normal 0.0 0.0 1.0
  outer loop
    vertex 12.470846834400719 6.133848851699218 27.0
    vertex 9.47084683440072 3.133848851699218 27.0
    vertex 34.47084683440072 3.1338488516992196 27.0
  endloop
endfacet
facet normal 0.0 0.0 1.0
  outer loop
    vertex 12.470846834400719 6.133848851699218 27.0
    vertex 34.47084683440072 3.1338488516992196 27.0
    vertex 34.47084683440072 6.133848851699219 27.0
  endloop
endfacet
facet normal 0.0 0.0 1.0
  outer loop
    vertex 12.470846834400719 28.13384885169914 27.0
    vertex 9.47084683440072 28.133848851699213 27.0
    vertex 12.470846834400719 6.133848851699218 27.0
  endloop
endfacet
facet normal -1.0 -0.0 -0.0
  outer loop
    vertex 9.47084683440072 28.133848851699213 27.0
    vertex 9.47084683440072 3.133848851699218 2.0
    vertex 9.47084683440072 3.133848851699218 27.0
  endloop
endfacet
facet normal -1.0 -0.0 -0.0
  outer loop
    vertex 9.47084683440072 3.133848851699218 2.0
    vertex 9.47084683440072 28.133848851699213 27.0
    vertex 9.47084683440072 28.133848851699213 2.0
  endloop
endfacet
facet normal 7.219114195322617e-17 -1.0 0.0
  outer loop
    vertex 34.47084683440072 3.1338488516992196 27.0
    vertex 9.47084683440072 3.133848851699218 2.0
    vertex 34.47084683440072 3.1338488516992196 2.0
  endloop
endfacet
facet normal 7.219114195322617e-17 -1.0 0.0
  outer loop
    vertex 9.47084683440072 3.133848851699218 2.0
    vertex 34.47084683440072 3.1338488516992196 27.0
    vertex 9.47084683440072 3.133848851699218 27.0
  endloop
endfacet
endsolid FTCMiniFieldCorners
