solid GlyphGuideConnector
facet normal 3.908217117915506e-34 3.609557097661306e-16 1.0
  outer loop
    vertex 40027.81180882333 56462.55661854359 14000.000000000002
    vertex 37027.81180882333 60462.55661854359 13999.999999999998
    vertex 37027.81180882333 56462.55661854359 13999.999999999998
  endloop
endfacet
facet normal 3.908217117915506e-34 3.609557097661306e-16 1.0
  outer loop
    vertex 37027.81180882333 60462.55661854359 13999.999999999998
    vertex 40027.81180882333 56462.55661854359 14000.000000000002
    vertex 125027.81180882333 60462.55661854359 13999.999999999998
  endloop
endfacet
facet normal 3.908217117915506e-34 3.609557097661306e-16 1.0
  outer loop
    vertex 125027.81180882333 60462.55661854359 13999.999999999998
    vertex 40027.81180882333 56462.55661854359 14000.000000000002
    vertex 122027.81180882332 56462.55661854359 14000.000000000002
  endloop
endfacet
facet normal 3.908217117915506e-34 3.609557097661306e-16 1.0
  outer loop
    vertex 125027.81180882333 60462.55661854359 13999.999999999998
    vertex 122027.81180882332 56462.55661854359 14000.000000000002
    vertex 125027.81180882333 56462.55661854359 13999.999999999998
  endloop
endfacet
facet normal 0.0 -1.0 0.0
  outer loop
    vertex 122027.81180882332 56462.55661854359 14000.000000000002
    vertex 40027.81180882333 56462.55661854359 4000.0
    vertex 122027.81180882332 56462.55661854359 4000.0
  endloop
endfacet
facet normal 0.0 -1.0 0.0
  outer loop
    vertex 40027.81180882333 56462.55661854359 4000.0
    vertex 122027.81180882332 56462.55661854359 14000.000000000002
    vertex 40027.81180882333 56462.55661854359 14000.000000000002
  endloop
endfacet
facet normal -0.0 -0.0 1.0
  outer loop
    vertex 40027.81180882333 40462.5566185436 4000.0
    vertex 73027.81180882333 42462.5566185436 4000.0
    vertex 40027.81180882333 56462.55661854359 4000.0
  endloop
endfacet
facet normal -0.0 -0.0 1.0
  outer loop
    vertex 73027.81180882333 42462.5566185436 4000.0
    vertex 40027.81180882333 40462.5566185436 4000.0
    vertex 122027.81180882332 40462.5566185436 4000.0
  endloop
endfacet
facet normal -0.0 -0.0 1.0
  outer loop
    vertex 73027.81180882333 42462.5566185436 4000.0
    vertex 122027.81180882332 40462.5566185436 4000.0
    vertex 89027.81180882333 42462.5566185436 4000.0
  endloop
endfacet
facet normal -0.0 -0.0 1.0
  outer loop
    vertex 89027.81180882333 42462.5566185436 4000.0
    vertex 122027.81180882332 40462.5566185436 4000.0
    vertex 89027.81180882333 53462.5566185436 4000.0
  endloop
endfacet
facet normal -0.0 -0.0 1.0
  outer loop
    vertex 40027.81180882333 56462.55661854359 4000.0
    vertex 73027.81180882333 53462.5566185436 4000.0
    vertex 122027.81180882332 56462.55661854359 4000.0
  endloop
endfacet
facet normal -0.0 -0.0 1.0
  outer loop
    vertex 73027.81180882333 53462.5566185436 4000.0
    vertex 40027.81180882333 56462.55661854359 4000.0
    vertex 73027.81180882333 42462.5566185436 4000.0
  endloop
endfacet
facet normal -0.0 -0.0 1.0
  outer loop
    vertex 122027.81180882332 56462.55661854359 4000.0
    vertex 73027.81180882333 53462.5566185436 4000.0
    vertex 89027.81180882333 53462.5566185436 4000.0
  endloop
endfacet
facet normal -0.0 -0.0 1.0
  outer loop
    vertex 122027.81180882332 56462.55661854359 4000.0
    vertex 89027.81180882333 53462.5566185436 4000.0
    vertex 122027.81180882332 40462.5566185436 4000.0
  endloop
endfacet
facet normal -7.005019228762419e-17 1.0 -7.766155921553673e-17
  outer loop
    vertex 15027.811808823337 41462.5566185436 -7.766155921553673e-14
    vertex 19967.151637043513 41462.5566185436 17439.339828220178
    vertex 37027.81180882333 41462.5566185436 -7.766155921553673e-14
  endloop
endfacet
facet normal -7.005019228762419e-17 1.0 -7.766155921553673e-17
  outer loop
    vertex 19967.151637043513 41462.5566185436 17439.339828220178
    vertex 15027.811808823337 41462.5566185436 -7.766155921553673e-14
    vertex 19728.77370314668 41462.5566185436 17750.0
  endloop
endfacet
facet normal -7.005019228762419e-17 1.0 -7.766155921553673e-17
  outer loop
    vertex 19728.77370314668 41462.5566185436 17750.0
    vertex 15027.811808823337 41462.5566185436 -7.766155921553673e-14
    vertex 19578.92306938973 41462.5566185436 18111.771432346217
  endloop
endfacet
facet normal -7.005019228762419e-17 1.0 -7.766155921553673e-17
  outer loop
    vertex 19578.92306938973 41462.5566185436 18111.771432346217
    vertex 15027.811808823337 41462.5566185436 -7.766155921553673e-14
    vertex 19527.811808823335 41462.5566185436 18500.0
  endloop
endfacet
facet normal -7.005019228762419e-17 1.0 -7.766155921553673e-17
  outer loop
    vertex 19527.811808823335 41462.5566185436 18500.0
    vertex 15027.811808823337 41462.5566185436 -7.766155921553673e-14
    vertex 15027.811808823337 41462.556618543604 74000.0
  endloop
endfacet
facet normal -7.005019228762419e-17 1.0 -7.766155921553673e-17
  outer loop
    vertex 37027.81180882333 41462.5566185436 -7.766155921553673e-14
    vertex 19967.151637043513 41462.5566185436 17439.339828220178
    vertex 20277.811808823335 41462.5566185436 17200.961894323344
  endloop
endfacet
facet normal -7.005019228762419e-17 1.0 -7.766155921553673e-17
  outer loop
    vertex 37027.81180882333 41462.5566185436 -7.766155921553673e-14
    vertex 20277.811808823335 41462.5566185436 17200.961894323344
    vertex 20639.583241169552 41462.5566185436 17051.1112605664
  endloop
endfacet
facet normal -7.005019228762419e-17 1.0 -7.766155921553673e-17
  outer loop
    vertex 37027.81180882333 41462.5566185436 -7.766155921553673e-14
    vertex 20639.583241169552 41462.5566185436 17051.1112605664
    vertex 21027.811808823335 41462.5566185436 17000.0
  endloop
endfacet
facet normal -7.005019228762419e-17 1.0 -7.766155921553673e-17
  outer loop
    vertex 19527.811808823335 41462.5566185436 18500.0
    vertex 15027.811808823337 41462.556618543604 74000.0
    vertex 19578.923069389733 41462.5566185436 18888.228567653783
  endloop
endfacet
facet normal -7.005019228762419e-17 1.0 -7.766155921553673e-17
  outer loop
    vertex 19578.923069389733 41462.5566185436 18888.228567653783
    vertex 15027.811808823337 41462.556618543604 74000.0
    vertex 19728.77370314668 41462.5566185436 19250.0
  endloop
endfacet
facet normal -7.005019228762419e-17 1.0 -7.766155921553673e-17
  outer loop
    vertex 19728.77370314668 41462.5566185436 19250.0
    vertex 15027.811808823337 41462.556618543604 74000.0
    vertex 19967.151637043513 41462.5566185436 19560.660171779822
  endloop
endfacet
facet normal -7.005019228762419e-17 1.0 -7.766155921553673e-17
  outer loop
    vertex 19967.151637043513 41462.5566185436 19560.660171779822
    vertex 15027.811808823337 41462.556618543604 74000.0
    vertex 20277.811808823335 41462.5566185436 19799.03810567666
  endloop
endfacet
facet normal -7.005019228762419e-17 1.0 -7.766155921553673e-17
  outer loop
    vertex 20277.811808823335 41462.5566185436 19799.03810567666
    vertex 15027.811808823337 41462.556618543604 74000.0
    vertex 20639.583241169552 41462.5566185436 19948.8887394336
  endloop
endfacet
facet normal -7.005019228762419e-17 1.0 -7.766155921553673e-17
  outer loop
    vertex 20639.583241169552 41462.5566185436 19948.8887394336
    vertex 15027.811808823337 41462.556618543604 74000.0
    vertex 21027.811808823335 41462.5566185436 20000.0
  endloop
endfacet
facet normal -7.005019228762419e-17 1.0 -7.766155921553673e-17
  outer loop
    vertex 21027.811808823335 41462.5566185436 20000.0
    vertex 15027.811808823337 41462.556618543604 74000.0
    vertex 19527.81180882334 41462.5566185436 37000.0
  endloop
endfacet
facet normal -7.005019228762419e-17 1.0 -7.766155921553673e-17
  outer loop
    vertex 21027.811808823335 41462.5566185436 20000.0
    vertex 19527.81180882334 41462.5566185436 37000.0
    vertex 19578.923069389733 41462.5566185436 36611.77143234622
  endloop
endfacet
facet normal -7.005019228762419e-17 1.0 -7.766155921553673e-17
  outer loop
    vertex 21027.811808823335 41462.5566185436 20000.0
    vertex 19578.923069389733 41462.5566185436 36611.77143234622
    vertex 19728.77370314668 41462.5566185436 36250.0
  endloop
endfacet
facet normal -7.005019228762419e-17 1.0 -7.766155921553673e-17
  outer loop
    vertex 21027.811808823335 41462.5566185436 20000.0
    vertex 19728.77370314668 41462.5566185436 36250.0
    vertex 19967.151637043517 41462.5566185436 35939.33982822018
  endloop
endfacet
facet normal -7.005019228762419e-17 1.0 -7.766155921553673e-17
  outer loop
    vertex 21027.811808823335 41462.5566185436 20000.0
    vertex 19967.151637043517 41462.5566185436 35939.33982822018
    vertex 20277.81180882334 41462.5566185436 35700.96189432334
  endloop
endfacet
facet normal -7.005019228762419e-17 1.0 -7.766155921553673e-17
  outer loop
    vertex 21027.811808823335 41462.5566185436 20000.0
    vertex 20277.81180882334 41462.5566185436 35700.96189432334
    vertex 20639.583241169556 41462.5566185436 35551.1112605664
  endloop
endfacet
facet normal -7.005019228762419e-17 1.0 -7.766155921553673e-17
  outer loop
    vertex 21027.811808823335 41462.5566185436 20000.0
    vertex 20639.583241169556 41462.5566185436 35551.1112605664
    vertex 21027.81180882334 41462.5566185436 35500.0
  endloop
endfacet
facet normal -7.005019228762419e-17 1.0 -7.766155921553673e-17
  outer loop
    vertex 19527.81180882334 41462.5566185436 37000.0
    vertex 15027.811808823337 41462.556618543604 74000.0
    vertex 19578.923069389733 41462.5566185436 37388.22856765378
  endloop
endfacet
facet normal -7.005019228762419e-17 1.0 -7.766155921553673e-17
  outer loop
    vertex 19578.923069389733 41462.5566185436 37388.22856765378
    vertex 15027.811808823337 41462.556618543604 74000.0
    vertex 19728.773703146682 41462.5566185436 37750.0
  endloop
endfacet
facet normal -7.005019228762419e-17 1.0 -7.766155921553673e-17
  outer loop
    vertex 19728.773703146682 41462.5566185436 37750.0
    vertex 15027.811808823337 41462.556618543604 74000.0
    vertex 19967.151637043517 41462.5566185436 38060.66017177982
  endloop
endfacet
facet normal -7.005019228762419e-17 1.0 -7.766155921553673e-17
  outer loop
    vertex 19967.151637043517 41462.5566185436 38060.66017177982
    vertex 15027.811808823337 41462.556618543604 74000.0
    vertex 20277.81180882334 41462.5566185436 38299.03810567666
  endloop
endfacet
facet normal -7.005019228762419e-17 1.0 -7.766155921553673e-17
  outer loop
    vertex 20277.81180882334 41462.5566185436 38299.03810567666
    vertex 15027.811808823337 41462.556618543604 74000.0
    vertex 20639.583241169556 41462.5566185436 38448.8887394336
  endloop
endfacet
facet normal -7.005019228762419e-17 1.0 -7.766155921553673e-17
  outer loop
    vertex 20639.583241169556 41462.5566185436 38448.8887394336
    vertex 15027.811808823337 41462.556618543604 74000.0
    vertex 21027.81180882334 41462.5566185436 38500.0
  endloop
endfacet
facet normal -7.005019228762419e-17 1.0 -7.766155921553673e-17
  outer loop
    vertex 21027.81180882334 41462.5566185436 38500.0
    vertex 15027.811808823337 41462.556618543604 74000.0
    vertex 19578.92306938973 41462.5566185436 55111.77143234623
  endloop
endfacet
facet normal -7.005019228762419e-17 1.0 -7.766155921553673e-17
  outer loop
    vertex 21027.81180882334 41462.5566185436 38500.0
    vertex 19578.92306938973 41462.5566185436 55111.77143234623
    vertex 19728.77370314668 41462.5566185436 54750.0
  endloop
endfacet
facet normal -7.005019228762419e-17 1.0 -7.766155921553673e-17
  outer loop
    vertex 21027.81180882334 41462.5566185436 38500.0
    vertex 19728.77370314668 41462.5566185436 54750.0
    vertex 19967.151637043513 41462.5566185436 54439.33982822018
  endloop
endfacet
facet normal -7.005019228762419e-17 1.0 -7.766155921553673e-17
  outer loop
    vertex 21027.81180882334 41462.5566185436 38500.0
    vertex 19967.151637043513 41462.5566185436 54439.33982822018
    vertex 20277.811808823335 41462.5566185436 54200.96189432334
  endloop
endfacet
facet normal -7.005019228762419e-17 1.0 -7.766155921553673e-17
  outer loop
    vertex 21027.81180882334 41462.5566185436 38500.0
    vertex 20277.811808823335 41462.5566185436 54200.96189432334
    vertex 20639.583241169552 41462.5566185436 54051.111260566395
  endloop
endfacet
facet normal -7.005019228762419e-17 1.0 -7.766155921553673e-17
  outer loop
    vertex 21027.81180882334 41462.5566185436 38500.0
    vertex 20639.583241169552 41462.5566185436 54051.111260566395
    vertex 21027.811808823335 41462.5566185436 54000.00000000001
  endloop
endfacet
facet normal -7.005019228762419e-17 1.0 -7.766155921553673e-17
  outer loop
    vertex 19578.92306938973 41462.5566185436 55111.77143234623
    vertex 15027.811808823337 41462.556618543604 74000.0
    vertex 19527.811808823335 41462.5566185436 55500.0
  endloop
endfacet
facet normal -7.005019228762419e-17 1.0 -7.766155921553673e-17
  outer loop
    vertex 19527.811808823335 41462.5566185436 55500.0
    vertex 15027.811808823337 41462.556618543604 74000.0
    vertex 19578.923069389733 41462.5566185436 55888.22856765379
  endloop
endfacet
facet normal -7.005019228762419e-17 1.0 -7.766155921553673e-17
  outer loop
    vertex 19578.923069389733 41462.5566185436 55888.22856765379
    vertex 15027.811808823337 41462.556618543604 74000.0
    vertex 19728.77370314668 41462.5566185436 56250.00000000001
  endloop
endfacet
facet normal -7.005019228762419e-17 1.0 -7.766155921553673e-17
  outer loop
    vertex 19728.77370314668 41462.5566185436 56250.00000000001
    vertex 15027.811808823337 41462.556618543604 74000.0
    vertex 19967.151637043513 41462.5566185436 56560.66017177982
  endloop
endfacet
facet normal -7.005019228762419e-17 1.0 -7.766155921553673e-17
  outer loop
    vertex 19967.151637043513 41462.5566185436 56560.66017177982
    vertex 15027.811808823337 41462.556618543604 74000.0
    vertex 20277.811808823335 41462.5566185436 56799.03810567666
  endloop
endfacet
facet normal -7.005019228762419e-17 1.0 -7.766155921553673e-17
  outer loop
    vertex 20277.811808823335 41462.5566185436 56799.03810567666
    vertex 15027.811808823337 41462.556618543604 74000.0
    vertex 20639.583241169552 41462.5566185436 56948.888739433605
  endloop
endfacet
facet normal -7.005019228762419e-17 1.0 -7.766155921553673e-17
  outer loop
    vertex 20639.583241169552 41462.5566185436 56948.888739433605
    vertex 15027.811808823337 41462.556618543604 74000.0
    vertex 21027.811808823335 41462.5566185436 56999.99999999999
  endloop
endfacet
facet normal -7.005019228762419e-17 1.0 -7.766155921553673e-17
  outer loop
    vertex 37027.81180882333 41462.5566185436 -7.766155921553673e-14
    vertex 22476.700548256937 41462.5566185436 18111.771432346217
    vertex 37027.81180882333 41462.556618543604 74000.0
  endloop
endfacet
facet normal -7.005019228762419e-17 1.0 -7.766155921553673e-17
  outer loop
    vertex 22476.700548256937 41462.5566185436 18111.771432346217
    vertex 37027.81180882333 41462.5566185436 -7.766155921553673e-14
    vertex 22326.84991449999 41462.5566185436 17750.0
  endloop
endfacet
facet normal -7.005019228762419e-17 1.0 -7.766155921553673e-17
  outer loop
    vertex 22326.84991449999 41462.5566185436 17750.0
    vertex 37027.81180882333 41462.5566185436 -7.766155921553673e-14
    vertex 22088.471980603157 41462.5566185436 17439.339828220178
  endloop
endfacet
facet normal -7.005019228762419e-17 1.0 -7.766155921553673e-17
  outer loop
    vertex 22088.471980603157 41462.5566185436 17439.339828220178
    vertex 37027.81180882333 41462.5566185436 -7.766155921553673e-14
    vertex 21777.811808823335 41462.5566185436 17200.96189432334
  endloop
endfacet
facet normal -7.005019228762419e-17 1.0 -7.766155921553673e-17
  outer loop
    vertex 21777.811808823335 41462.5566185436 17200.96189432334
    vertex 37027.81180882333 41462.5566185436 -7.766155921553673e-14
    vertex 21416.040376477114 41462.5566185436 17051.1112605664
  endloop
endfacet
facet normal -7.005019228762419e-17 1.0 -7.766155921553673e-17
  outer loop
    vertex 21416.040376477114 41462.5566185436 17051.1112605664
    vertex 37027.81180882333 41462.5566185436 -7.766155921553673e-14
    vertex 21027.811808823335 41462.5566185436 17000.0
  endloop
endfacet
facet normal -7.005019228762419e-17 1.0 -7.766155921553673e-17
  outer loop
    vertex 37027.81180882333 41462.556618543604 74000.0
    vertex 22476.700548256937 41462.5566185436 18111.771432346217
    vertex 22527.811808823335 41462.5566185436 18500.0
  endloop
endfacet
facet normal -7.005019228762419e-17 1.0 -7.766155921553673e-17
  outer loop
    vertex 37027.81180882333 41462.556618543604 74000.0
    vertex 22527.811808823335 41462.5566185436 18500.0
    vertex 22476.700548256937 41462.5566185436 18888.228567653783
  endloop
endfacet
facet normal -7.005019228762419e-17 1.0 -7.766155921553673e-17
  outer loop
    vertex 37027.81180882333 41462.556618543604 74000.0
    vertex 22476.700548256937 41462.5566185436 18888.228567653783
    vertex 22326.849914499995 41462.5566185436 19250.0
  endloop
endfacet
facet normal -7.005019228762419e-17 1.0 -7.766155921553673e-17
  outer loop
    vertex 37027.81180882333 41462.556618543604 74000.0
    vertex 22326.849914499995 41462.5566185436 19250.0
    vertex 22088.471980603157 41462.5566185436 19560.660171779822
  endloop
endfacet
facet normal -7.005019228762419e-17 1.0 -7.766155921553673e-17
  outer loop
    vertex 37027.81180882333 41462.556618543604 74000.0
    vertex 22088.471980603157 41462.5566185436 19560.660171779822
    vertex 21777.811808823335 41462.5566185436 19799.038105676656
  endloop
endfacet
facet normal -7.005019228762419e-17 1.0 -7.766155921553673e-17
  outer loop
    vertex 37027.81180882333 41462.556618543604 74000.0
    vertex 21777.811808823335 41462.5566185436 19799.038105676656
    vertex 21416.040376477114 41462.5566185436 19948.8887394336
  endloop
endfacet
facet normal -7.005019228762419e-17 1.0 -7.766155921553673e-17
  outer loop
    vertex 37027.81180882333 41462.556618543604 74000.0
    vertex 21416.040376477114 41462.5566185436 19948.8887394336
    vertex 21027.811808823335 41462.5566185436 20000.0
  endloop
endfacet
facet normal -7.005019228762419e-17 1.0 -7.766155921553673e-17
  outer loop
    vertex 37027.81180882333 41462.556618543604 74000.0
    vertex 21027.811808823335 41462.5566185436 20000.0
    vertex 22476.70054825694 41462.5566185436 36611.77143234622
  endloop
endfacet
facet normal -7.005019228762419e-17 1.0 -7.766155921553673e-17
  outer loop
    vertex 22476.70054825694 41462.5566185436 36611.77143234622
    vertex 21027.811808823335 41462.5566185436 20000.0
    vertex 22326.849914499995 41462.5566185436 36250.0
  endloop
endfacet
facet normal -7.005019228762419e-17 1.0 -7.766155921553673e-17
  outer loop
    vertex 22326.849914499995 41462.5566185436 36250.0
    vertex 21027.811808823335 41462.5566185436 20000.0
    vertex 22088.47198060316 41462.5566185436 35939.33982822018
  endloop
endfacet
facet normal -7.005019228762419e-17 1.0 -7.766155921553673e-17
  outer loop
    vertex 22088.47198060316 41462.5566185436 35939.33982822018
    vertex 21027.811808823335 41462.5566185436 20000.0
    vertex 21777.81180882334 41462.5566185436 35700.96189432334
  endloop
endfacet
facet normal -7.005019228762419e-17 1.0 -7.766155921553673e-17
  outer loop
    vertex 21777.81180882334 41462.5566185436 35700.96189432334
    vertex 21027.811808823335 41462.5566185436 20000.0
    vertex 21416.040376477118 41462.5566185436 35551.1112605664
  endloop
endfacet
facet normal -7.005019228762419e-17 1.0 -7.766155921553673e-17
  outer loop
    vertex 21416.040376477118 41462.5566185436 35551.1112605664
    vertex 21027.811808823335 41462.5566185436 20000.0
    vertex 21027.81180882334 41462.5566185436 35500.0
  endloop
endfacet
facet normal -7.005019228762419e-17 1.0 -7.766155921553673e-17
  outer loop
    vertex 37027.81180882333 41462.556618543604 74000.0
    vertex 22476.70054825694 41462.5566185436 36611.77143234622
    vertex 22527.81180882334 41462.5566185436 37000.0
  endloop
endfacet
facet normal -7.005019228762419e-17 1.0 -7.766155921553673e-17
  outer loop
    vertex 37027.81180882333 41462.556618543604 74000.0
    vertex 22527.81180882334 41462.5566185436 37000.0
    vertex 22476.70054825694 41462.5566185436 37388.22856765378
  endloop
endfacet
facet normal -7.005019228762419e-17 1.0 -7.766155921553673e-17
  outer loop
    vertex 37027.81180882333 41462.556618543604 74000.0
    vertex 22476.70054825694 41462.5566185436 37388.22856765378
    vertex 22326.849914499995 41462.5566185436 37750.0
  endloop
endfacet
facet normal -7.005019228762419e-17 1.0 -7.766155921553673e-17
  outer loop
    vertex 37027.81180882333 41462.556618543604 74000.0
    vertex 22326.849914499995 41462.5566185436 37750.0
    vertex 22088.47198060316 41462.5566185436 38060.66017177982
  endloop
endfacet
facet normal -7.005019228762419e-17 1.0 -7.766155921553673e-17
  outer loop
    vertex 37027.81180882333 41462.556618543604 74000.0
    vertex 22088.47198060316 41462.5566185436 38060.66017177982
    vertex 21777.81180882334 41462.5566185436 38299.03810567666
  endloop
endfacet
facet normal -7.005019228762419e-17 1.0 -7.766155921553673e-17
  outer loop
    vertex 37027.81180882333 41462.556618543604 74000.0
    vertex 21777.81180882334 41462.5566185436 38299.03810567666
    vertex 21416.040376477118 41462.5566185436 38448.8887394336
  endloop
endfacet
facet normal -7.005019228762419e-17 1.0 -7.766155921553673e-17
  outer loop
    vertex 37027.81180882333 41462.556618543604 74000.0
    vertex 21416.040376477118 41462.5566185436 38448.8887394336
    vertex 21027.81180882334 41462.5566185436 38500.0
  endloop
endfacet
facet normal -7.005019228762419e-17 1.0 -7.766155921553673e-17
  outer loop
    vertex 37027.81180882333 41462.556618543604 74000.0
    vertex 21027.81180882334 41462.5566185436 38500.0
    vertex 22326.84991449999 41462.5566185436 54750.0
  endloop
endfacet
facet normal -7.005019228762419e-17 1.0 -7.766155921553673e-17
  outer loop
    vertex 22326.84991449999 41462.5566185436 54750.0
    vertex 21027.81180882334 41462.5566185436 38500.0
    vertex 22088.471980603157 41462.5566185436 54439.33982822018
  endloop
endfacet
facet normal -7.005019228762419e-17 1.0 -7.766155921553673e-17
  outer loop
    vertex 22088.471980603157 41462.5566185436 54439.33982822018
    vertex 21027.81180882334 41462.5566185436 38500.0
    vertex 21777.811808823335 41462.5566185436 54200.96189432334
  endloop
endfacet
facet normal -7.005019228762419e-17 1.0 -7.766155921553673e-17
  outer loop
    vertex 21777.811808823335 41462.5566185436 54200.96189432334
    vertex 21027.81180882334 41462.5566185436 38500.0
    vertex 21416.040376477114 41462.5566185436 54051.111260566395
  endloop
endfacet
facet normal -7.005019228762419e-17 1.0 -7.766155921553673e-17
  outer loop
    vertex 21416.040376477114 41462.5566185436 54051.111260566395
    vertex 21027.81180882334 41462.5566185436 38500.0
    vertex 21027.811808823335 41462.5566185436 54000.00000000001
  endloop
endfacet
facet normal -7.005019228762419e-17 1.0 -7.766155921553673e-17
  outer loop
    vertex 37027.81180882333 41462.556618543604 74000.0
    vertex 22326.84991449999 41462.5566185436 54750.0
    vertex 22476.700548256937 41462.5566185436 55111.77143234623
  endloop
endfacet
facet normal -7.005019228762419e-17 1.0 -7.766155921553673e-17
  outer loop
    vertex 37027.81180882333 41462.556618543604 74000.0
    vertex 22476.700548256937 41462.5566185436 55111.77143234623
    vertex 22527.811808823335 41462.5566185436 55500.0
  endloop
endfacet
facet normal -7.005019228762419e-17 1.0 -7.766155921553673e-17
  outer loop
    vertex 37027.81180882333 41462.556618543604 74000.0
    vertex 22527.811808823335 41462.5566185436 55500.0
    vertex 22476.700548256937 41462.5566185436 55888.22856765378
  endloop
endfacet
facet normal -7.005019228762419e-17 1.0 -7.766155921553673e-17
  outer loop
    vertex 37027.81180882333 41462.556618543604 74000.0
    vertex 22476.700548256937 41462.5566185436 55888.22856765378
    vertex 22326.849914499995 41462.5566185436 56250.00000000001
  endloop
endfacet
facet normal -7.005019228762419e-17 1.0 -7.766155921553673e-17
  outer loop
    vertex 37027.81180882333 41462.556618543604 74000.0
    vertex 22326.849914499995 41462.5566185436 56250.00000000001
    vertex 22088.471980603157 41462.5566185436 56560.66017177982
  endloop
endfacet
facet normal -7.005019228762419e-17 1.0 -7.766155921553673e-17
  outer loop
    vertex 37027.81180882333 41462.556618543604 74000.0
    vertex 22088.471980603157 41462.5566185436 56560.66017177982
    vertex 21777.811808823335 41462.5566185436 56799.03810567666
  endloop
endfacet
facet normal -7.005019228762419e-17 1.0 -7.766155921553673e-17
  outer loop
    vertex 37027.81180882333 41462.556618543604 74000.0
    vertex 21777.811808823335 41462.5566185436 56799.03810567666
    vertex 21416.040376477114 41462.5566185436 56948.888739433605
  endloop
endfacet
facet normal -7.005019228762419e-17 1.0 -7.766155921553673e-17
  outer loop
    vertex 37027.81180882333 41462.556618543604 74000.0
    vertex 21416.040376477114 41462.5566185436 56948.888739433605
    vertex 21027.811808823335 41462.5566185436 56999.99999999999
  endloop
endfacet
facet normal -7.005019228762419e-17 1.0 -7.766155921553673e-17
  outer loop
    vertex 37027.81180882333 41462.556618543604 74000.0
    vertex 21027.811808823335 41462.5566185436 56999.99999999999
    vertex 15027.811808823337 41462.556618543604 74000.0
  endloop
endfacet
facet normal -1.0 0.0 0.0
  outer loop
    vertex 15027.811808823337 35462.556618543604 74000.0
    vertex 15027.811808823337 41462.5566185436 -7.766155921553673e-14
    vertex 15027.811808823337 35462.5566185436 0.0
  endloop
endfacet
facet normal -1.0 0.0 0.0
  outer loop
    vertex 15027.811808823337 41462.5566185436 -7.766155921553673e-14
    vertex 15027.811808823337 35462.556618543604 74000.0
    vertex 15027.811808823337 41462.556618543604 74000.0
  endloop
endfacet
facet normal -1.0 0.0 0.0
  outer loop
    vertex 122027.81180882332 40462.556618543604 74000.0
    vertex 122027.81180882332 56462.55661854359 4000.0
    vertex 122027.81180882332 40462.5566185436 4000.0
  endloop
endfacet
facet normal -1.0 0.0 0.0
  outer loop
    vertex 122027.81180882332 56462.55661854359 4000.0
    vertex 122027.81180882332 40462.556618543604 74000.0
    vertex 122027.81180882332 56462.55661854359 74000.0
  endloop
endfacet
facet normal -1.0 0.0 0.0
  outer loop
    vertex 122027.81180882332 56462.55661854359 4000.0
    vertex 122027.81180882332 56462.55661854359 74000.0
    vertex 122027.81180882332 56462.55661854359 14000.000000000002
  endloop
endfacet
facet normal 1.934421387926554e-33 7.529449618800198e-17 1.0
  outer loop
    vertex 125027.81180882333 35462.556618543604 74000.0
    vertex 15027.811808823337 41462.556618543604 74000.0
    vertex 15027.811808823337 35462.556618543604 74000.0
  endloop
endfacet
facet normal 1.934421387926554e-33 7.529449618800198e-17 1.0
  outer loop
    vertex 15027.811808823337 41462.556618543604 74000.0
    vertex 125027.81180882333 35462.556618543604 74000.0
    vertex 40027.81180882333 40462.556618543604 74000.0
  endloop
endfacet
facet normal 1.934421387926554e-33 7.529449618800198e-17 1.0
  outer loop
    vertex 15027.811808823337 41462.556618543604 74000.0
    vertex 40027.81180882333 40462.556618543604 74000.0
    vertex 37027.81180882333 41462.556618543604 74000.0
  endloop
endfacet
facet normal 1.934421387926554e-33 7.529449618800198e-17 1.0
  outer loop
    vertex 37027.81180882333 41462.556618543604 74000.0
    vertex 40027.81180882333 40462.556618543604 74000.0
    vertex 37027.81180882333 56462.55661854359 73999.99999999999
  endloop
endfacet
facet normal 1.934421387926554e-33 7.529449618800198e-17 1.0
  outer loop
    vertex 40027.81180882333 40462.556618543604 74000.0
    vertex 125027.81180882333 35462.556618543604 74000.0
    vertex 122027.81180882332 40462.556618543604 74000.0
  endloop
endfacet
facet normal 1.934421387926554e-33 7.529449618800198e-17 1.0
  outer loop
    vertex 122027.81180882332 40462.556618543604 74000.0
    vertex 125027.81180882333 35462.556618543604 74000.0
    vertex 122027.81180882332 56462.55661854359 74000.0
  endloop
endfacet
facet normal 1.934421387926554e-33 7.529449618800198e-17 1.0
  outer loop
    vertex 122027.81180882332 56462.55661854359 74000.0
    vertex 125027.81180882333 35462.556618543604 74000.0
    vertex 125027.81180882333 56462.55661854359 73999.99999999999
  endloop
endfacet
facet normal 1.934421387926554e-33 7.529449618800198e-17 1.0
  outer loop
    vertex 40027.81180882333 56462.55661854359 74000.0
    vertex 37027.81180882333 56462.55661854359 73999.99999999999
    vertex 40027.81180882333 40462.556618543604 74000.0
  endloop
endfacet
facet normal 7.247460883472934e-32 1.0 -7.5294496188002e-17
  outer loop
    vertex 37027.81180882333 56462.55661854359 73999.99999999999
    vertex 40027.81180882333 56462.55661854359 14000.000000000002
    vertex 37027.81180882333 56462.55661854359 13999.999999999998
  endloop
endfacet
facet normal 7.247460883472934e-32 1.0 -7.5294496188002e-17
  outer loop
    vertex 40027.81180882333 56462.55661854359 14000.000000000002
    vertex 37027.81180882333 56462.55661854359 73999.99999999999
    vertex 40027.81180882333 56462.55661854359 74000.0
  endloop
endfacet
facet normal -7.247460883472905e-32 1.0 -7.529449618800198e-17
  outer loop
    vertex 122027.81180882332 56462.55661854359 14000.000000000002
    vertex 125027.81180882333 56462.55661854359 73999.99999999999
    vertex 125027.81180882333 56462.55661854359 13999.999999999998
  endloop
endfacet
facet normal -7.247460883472905e-32 1.0 -7.529449618800198e-17
  outer loop
    vertex 125027.81180882333 56462.55661854359 73999.99999999999
    vertex 122027.81180882332 56462.55661854359 14000.000000000002
    vertex 122027.81180882332 56462.55661854359 74000.0
  endloop
endfacet
facet normal 1.0 -0.0 -0.0
  outer loop
    vertex 40027.81180882333 56462.55661854359 4000.0
    vertex 40027.81180882333 40462.556618543604 74000.0
    vertex 40027.81180882333 40462.5566185436 4000.0
  endloop
endfacet
facet normal 1.0 -0.0 -0.0
  outer loop
    vertex 40027.81180882333 40462.556618543604 74000.0
    vertex 40027.81180882333 56462.55661854359 4000.0
    vertex 40027.81180882333 56462.55661854359 74000.0
  endloop
endfacet
facet normal 1.0 -0.0 -0.0
  outer loop
    vertex 40027.81180882333 56462.55661854359 74000.0
    vertex 40027.81180882333 56462.55661854359 4000.0
    vertex 40027.81180882333 56462.55661854359 14000.000000000002
  endloop
endfacet
facet normal 0.0 1.0 0.0
  outer loop
    vertex 40027.81180882333 40462.556618543604 74000.0
    vertex 122027.81180882332 40462.5566185436 4000.0
    vertex 40027.81180882333 40462.5566185436 4000.0
  endloop
endfacet
facet normal 0.0 1.0 0.0
  outer loop
    vertex 122027.81180882332 40462.5566185436 4000.0
    vertex 40027.81180882333 40462.556618543604 74000.0
    vertex 122027.81180882332 40462.556618543604 74000.0
  endloop
endfacet
facet normal 0.0 1.0 0.0
  outer loop
    vertex 73027.81180882333 53462.5566185436 4000.0
    vertex 89027.81180882333 53462.5566185436 -3.6095570976613087e-13
    vertex 73027.81180882333 53462.5566185436 -3.6095570976613087e-13
  endloop
endfacet
facet normal 0.0 1.0 0.0
  outer loop
    vertex 89027.81180882333 53462.5566185436 -3.6095570976613087e-13
    vertex 73027.81180882333 53462.5566185436 4000.0
    vertex 89027.81180882333 53462.5566185436 4000.0
  endloop
endfacet
facet normal 1.6596077269825752e-19 -7.463749345132427e-18 -1.0
  outer loop
    vertex 37027.81180882333 60462.55661854359 0.0
    vertex 73027.81180882333 53462.5566185436 -3.6095570976613087e-13
    vertex 37027.81180882333 41462.5566185436 -7.766155921553673e-14
  endloop
endfacet
facet normal 1.6596077269825752e-19 -7.463749345132427e-18 -1.0
  outer loop
    vertex 73027.81180882333 53462.5566185436 -3.6095570976613087e-13
    vertex 37027.81180882333 60462.55661854359 0.0
    vertex 125027.81180882333 60462.55661854359 0.0
  endloop
endfacet
facet normal 1.6596077269825752e-19 -7.463749345132427e-18 -1.0
  outer loop
    vertex 73027.81180882333 53462.5566185436 -3.6095570976613087e-13
    vertex 125027.81180882333 60462.55661854359 0.0
    vertex 89027.81180882333 53462.5566185436 -3.6095570976613087e-13
  endloop
endfacet
facet normal 1.6596077269825752e-19 -7.463749345132427e-18 -1.0
  outer loop
    vertex 89027.81180882333 53462.5566185436 -3.6095570976613087e-13
    vertex 125027.81180882333 60462.55661854359 0.0
    vertex 89027.81180882333 42462.5566185436 -3.6095570976613087e-13
  endloop
endfacet
facet normal 1.6596077269825752e-19 -7.463749345132427e-18 -1.0
  outer loop
    vertex 37027.81180882333 41462.5566185436 -7.766155921553673e-14
    vertex 15027.811808823337 35462.5566185436 0.0
    vertex 15027.811808823337 41462.5566185436 -7.766155921553673e-14
  endloop
endfacet
facet normal 1.6596077269825752e-19 -7.463749345132427e-18 -1.0
  outer loop
    vertex 15027.811808823337 35462.5566185436 0.0
    vertex 37027.81180882333 41462.5566185436 -7.766155921553673e-14
    vertex 125027.81180882333 35462.5566185436 0.0
  endloop
endfacet
facet normal 1.6596077269825752e-19 -7.463749345132427e-18 -1.0
  outer loop
    vertex 125027.81180882333 35462.5566185436 0.0
    vertex 37027.81180882333 41462.5566185436 -7.766155921553673e-14
    vertex 73027.81180882333 42462.5566185436 -3.6095570976613087e-13
  endloop
endfacet
facet normal 1.6596077269825752e-19 -7.463749345132427e-18 -1.0
  outer loop
    vertex 73027.81180882333 42462.5566185436 -3.6095570976613087e-13
    vertex 37027.81180882333 41462.5566185436 -7.766155921553673e-14
    vertex 73027.81180882333 53462.5566185436 -3.6095570976613087e-13
  endloop
endfacet
facet normal 1.6596077269825752e-19 -7.463749345132427e-18 -1.0
  outer loop
    vertex 125027.81180882333 35462.5566185436 0.0
    vertex 73027.81180882333 42462.5566185436 -3.6095570976613087e-13
    vertex 89027.81180882333 42462.5566185436 -3.6095570976613087e-13
  endloop
endfacet
facet normal 1.6596077269825752e-19 -7.463749345132427e-18 -1.0
  outer loop
    vertex 125027.81180882333 35462.5566185436 0.0
    vertex 89027.81180882333 42462.5566185436 -3.6095570976613087e-13
    vertex 125027.81180882333 60462.55661854359 0.0
  endloop
endfacet
facet normal 0.0 1.0 0.0
  outer loop
    vertex 73027.81180882333 42462.5566185436 4000.0
    vertex 89027.81180882333 42462.5566185436 -3.6095570976613087e-13
    vertex 73027.81180882333 42462.5566185436 -3.6095570976613087e-13
  endloop
endfacet
facet normal 0.0 1.0 0.0
  outer loop
    vertex 89027.81180882333 42462.5566185436 -3.6095570976613087e-13
    vertex 73027.81180882333 42462.5566185436 4000.0
    vertex 89027.81180882333 42462.5566185436 4000.0
  endloop
endfacet
facet normal 0.0 1.0 0.0
  outer loop
    vertex 37027.81180882333 60462.55661854359 13999.999999999998
    vertex 125027.81180882333 60462.55661854359 0.0
    vertex 37027.81180882333 60462.55661854359 0.0
  endloop
endfacet
facet normal 0.0 1.0 0.0
  outer loop
    vertex 125027.81180882333 60462.55661854359 0.0
    vertex 37027.81180882333 60462.55661854359 13999.999999999998
    vertex 125027.81180882333 60462.55661854359 13999.999999999998
  endloop
endfacet
facet normal 1.0 0.0 0.0
  outer loop
    vertex 73027.81180882333 53462.5566185436 -3.6095570976613087e-13
    vertex 73027.81180882333 42462.5566185436 4000.0
    vertex 73027.81180882333 42462.5566185436 -3.6095570976613087e-13
  endloop
endfacet
facet normal 1.0 0.0 0.0
  outer loop
    vertex 73027.81180882333 42462.5566185436 4000.0
    vertex 73027.81180882333 53462.5566185436 -3.6095570976613087e-13
    vertex 73027.81180882333 53462.5566185436 4000.0
  endloop
endfacet
facet normal 0.0 -1.0 0.0
  outer loop
    vertex 125027.81180882333 35462.556618543604 74000.0
    vertex 15027.811808823337 35462.5566185436 0.0
    vertex 125027.81180882333 35462.5566185436 0.0
  endloop
endfacet
facet normal 0.0 -1.0 0.0
  outer loop
    vertex 15027.811808823337 35462.5566185436 0.0
    vertex 125027.81180882333 35462.556618543604 74000.0
    vertex 21777.811808823335 35462.5566185436 17200.96189432334
  endloop
endfacet
facet normal 0.0 -1.0 0.0
  outer loop
    vertex 15027.811808823337 35462.5566185436 0.0
    vertex 21777.811808823335 35462.5566185436 17200.96189432334
    vertex 21416.040376477114 35462.5566185436 17051.1112605664
  endloop
endfacet
facet normal 0.0 -1.0 0.0
  outer loop
    vertex 15027.811808823337 35462.5566185436 0.0
    vertex 21416.040376477114 35462.5566185436 17051.1112605664
    vertex 21027.811808823335 35462.5566185436 17000.0
  endloop
endfacet
facet normal 0.0 -1.0 0.0
  outer loop
    vertex 21777.811808823335 35462.5566185436 17200.96189432334
    vertex 125027.81180882333 35462.556618543604 74000.0
    vertex 22088.471980603157 35462.5566185436 17439.339828220178
  endloop
endfacet
facet normal 0.0 -1.0 0.0
  outer loop
    vertex 22088.471980603157 35462.5566185436 17439.339828220178
    vertex 125027.81180882333 35462.556618543604 74000.0
    vertex 22326.84991449999 35462.5566185436 17750.0
  endloop
endfacet
facet normal 0.0 -1.0 0.0
  outer loop
    vertex 22326.84991449999 35462.5566185436 17750.0
    vertex 125027.81180882333 35462.556618543604 74000.0
    vertex 22476.700548256937 35462.5566185436 18111.771432346217
  endloop
endfacet
facet normal 0.0 -1.0 0.0
  outer loop
    vertex 22476.700548256937 35462.5566185436 18111.771432346217
    vertex 125027.81180882333 35462.556618543604 74000.0
    vertex 22527.811808823335 35462.5566185436 18500.0
  endloop
endfacet
facet normal 0.0 -1.0 0.0
  outer loop
    vertex 22527.811808823335 35462.5566185436 18500.0
    vertex 125027.81180882333 35462.556618543604 74000.0
    vertex 22476.700548256937 35462.5566185436 18888.228567653783
  endloop
endfacet
facet normal 0.0 -1.0 0.0
  outer loop
    vertex 22476.700548256937 35462.5566185436 18888.228567653783
    vertex 125027.81180882333 35462.556618543604 74000.0
    vertex 22326.849914499995 35462.5566185436 19250.0
  endloop
endfacet
facet normal 0.0 -1.0 0.0
  outer loop
    vertex 22326.849914499995 35462.5566185436 19250.0
    vertex 125027.81180882333 35462.556618543604 74000.0
    vertex 22088.471980603157 35462.5566185436 19560.660171779822
  endloop
endfacet
facet normal 0.0 -1.0 0.0
  outer loop
    vertex 22088.471980603157 35462.5566185436 19560.660171779822
    vertex 125027.81180882333 35462.556618543604 74000.0
    vertex 21777.811808823335 35462.5566185436 19799.038105676656
  endloop
endfacet
facet normal 0.0 -1.0 0.0
  outer loop
    vertex 21777.811808823335 35462.5566185436 19799.038105676656
    vertex 125027.81180882333 35462.556618543604 74000.0
    vertex 21416.040376477114 35462.5566185436 19948.8887394336
  endloop
endfacet
facet normal 0.0 -1.0 0.0
  outer loop
    vertex 21416.040376477114 35462.5566185436 19948.8887394336
    vertex 125027.81180882333 35462.556618543604 74000.0
    vertex 21027.811808823335 35462.5566185436 20000.0
  endloop
endfacet
facet normal 0.0 -1.0 0.0
  outer loop
    vertex 21027.811808823335 35462.5566185436 20000.0
    vertex 125027.81180882333 35462.556618543604 74000.0
    vertex 21416.040376477118 35462.5566185436 35551.1112605664
  endloop
endfacet
facet normal 0.0 -1.0 0.0
  outer loop
    vertex 21027.811808823335 35462.5566185436 20000.0
    vertex 21416.040376477118 35462.5566185436 35551.1112605664
    vertex 21027.81180882334 35462.5566185436 35500.0
  endloop
endfacet
facet normal 0.0 -1.0 0.0
  outer loop
    vertex 21416.040376477118 35462.5566185436 35551.1112605664
    vertex 125027.81180882333 35462.556618543604 74000.0
    vertex 21777.81180882334 35462.5566185436 35700.96189432334
  endloop
endfacet
facet normal 0.0 -1.0 0.0
  outer loop
    vertex 21777.81180882334 35462.5566185436 35700.96189432334
    vertex 125027.81180882333 35462.556618543604 74000.0
    vertex 22088.47198060316 35462.5566185436 35939.33982822018
  endloop
endfacet
facet normal 0.0 -1.0 0.0
  outer loop
    vertex 22088.47198060316 35462.5566185436 35939.33982822018
    vertex 125027.81180882333 35462.556618543604 74000.0
    vertex 22326.849914499995 35462.5566185436 36250.0
  endloop
endfacet
facet normal 0.0 -1.0 0.0
  outer loop
    vertex 22326.849914499995 35462.5566185436 36250.0
    vertex 125027.81180882333 35462.556618543604 74000.0
    vertex 22476.70054825694 35462.5566185436 36611.77143234622
  endloop
endfacet
facet normal 0.0 -1.0 0.0
  outer loop
    vertex 22476.70054825694 35462.5566185436 36611.77143234622
    vertex 125027.81180882333 35462.556618543604 74000.0
    vertex 22527.81180882334 35462.5566185436 37000.0
  endloop
endfacet
facet normal 0.0 -1.0 0.0
  outer loop
    vertex 22527.81180882334 35462.5566185436 37000.0
    vertex 125027.81180882333 35462.556618543604 74000.0
    vertex 22476.70054825694 35462.5566185436 37388.22856765378
  endloop
endfacet
facet normal 0.0 -1.0 0.0
  outer loop
    vertex 22476.70054825694 35462.5566185436 37388.22856765378
    vertex 125027.81180882333 35462.556618543604 74000.0
    vertex 22326.849914499995 35462.5566185436 37750.0
  endloop
endfacet
facet normal 0.0 -1.0 0.0
  outer loop
    vertex 22326.849914499995 35462.5566185436 37750.0
    vertex 125027.81180882333 35462.556618543604 74000.0
    vertex 22088.47198060316 35462.5566185436 38060.66017177982
  endloop
endfacet
facet normal 0.0 -1.0 0.0
  outer loop
    vertex 22088.47198060316 35462.5566185436 38060.66017177982
    vertex 125027.81180882333 35462.556618543604 74000.0
    vertex 21777.81180882334 35462.5566185436 38299.03810567666
  endloop
endfacet
facet normal 0.0 -1.0 0.0
  outer loop
    vertex 21777.81180882334 35462.5566185436 38299.03810567666
    vertex 125027.81180882333 35462.556618543604 74000.0
    vertex 21416.040376477118 35462.5566185436 38448.8887394336
  endloop
endfacet
facet normal 0.0 -1.0 0.0
  outer loop
    vertex 21416.040376477118 35462.5566185436 38448.8887394336
    vertex 125027.81180882333 35462.556618543604 74000.0
    vertex 21027.81180882334 35462.5566185436 38500.0
  endloop
endfacet
facet normal 0.0 -1.0 0.0
  outer loop
    vertex 21027.81180882334 35462.5566185436 38500.0
    vertex 125027.81180882333 35462.556618543604 74000.0
    vertex 21416.040376477114 35462.5566185436 54051.111260566395
  endloop
endfacet
facet normal 0.0 -1.0 0.0
  outer loop
    vertex 21027.81180882334 35462.5566185436 38500.0
    vertex 21416.040376477114 35462.5566185436 54051.111260566395
    vertex 21027.811808823335 35462.5566185436 54000.00000000001
  endloop
endfacet
facet normal 0.0 -1.0 0.0
  outer loop
    vertex 21416.040376477114 35462.5566185436 54051.111260566395
    vertex 125027.81180882333 35462.556618543604 74000.0
    vertex 21777.811808823335 35462.5566185436 54200.96189432334
  endloop
endfacet
facet normal 0.0 -1.0 0.0
  outer loop
    vertex 21777.811808823335 35462.5566185436 54200.96189432334
    vertex 125027.81180882333 35462.556618543604 74000.0
    vertex 22088.471980603157 35462.5566185436 54439.33982822018
  endloop
endfacet
facet normal 0.0 -1.0 0.0
  outer loop
    vertex 22088.471980603157 35462.5566185436 54439.33982822018
    vertex 125027.81180882333 35462.556618543604 74000.0
    vertex 22326.84991449999 35462.5566185436 54750.0
  endloop
endfacet
facet normal 0.0 -1.0 0.0
  outer loop
    vertex 22326.84991449999 35462.5566185436 54750.0
    vertex 125027.81180882333 35462.556618543604 74000.0
    vertex 22476.700548256937 35462.5566185436 55111.77143234623
  endloop
endfacet
facet normal 0.0 -1.0 0.0
  outer loop
    vertex 22476.700548256937 35462.5566185436 55111.77143234623
    vertex 125027.81180882333 35462.556618543604 74000.0
    vertex 22527.811808823335 35462.5566185436 55500.0
  endloop
endfacet
facet normal 0.0 -1.0 0.0
  outer loop
    vertex 22527.811808823335 35462.5566185436 55500.0
    vertex 125027.81180882333 35462.556618543604 74000.0
    vertex 22476.700548256937 35462.5566185436 55888.22856765378
  endloop
endfacet
facet normal 0.0 -1.0 0.0
  outer loop
    vertex 22476.700548256937 35462.5566185436 55888.22856765378
    vertex 125027.81180882333 35462.556618543604 74000.0
    vertex 22326.849914499995 35462.5566185436 56250.00000000001
  endloop
endfacet
facet normal 0.0 -1.0 0.0
  outer loop
    vertex 22326.849914499995 35462.5566185436 56250.00000000001
    vertex 125027.81180882333 35462.556618543604 74000.0
    vertex 22088.471980603157 35462.5566185436 56560.66017177982
  endloop
endfacet
facet normal 0.0 -1.0 0.0
  outer loop
    vertex 22088.471980603157 35462.5566185436 56560.66017177982
    vertex 125027.81180882333 35462.556618543604 74000.0
    vertex 21777.811808823335 35462.5566185436 56799.03810567666
  endloop
endfacet
facet normal 0.0 -1.0 0.0
  outer loop
    vertex 21777.811808823335 35462.5566185436 56799.03810567666
    vertex 125027.81180882333 35462.556618543604 74000.0
    vertex 21416.040376477114 35462.5566185436 56948.888739433605
  endloop
endfacet
facet normal 0.0 -1.0 0.0
  outer loop
    vertex 21416.040376477114 35462.5566185436 56948.888739433605
    vertex 125027.81180882333 35462.556618543604 74000.0
    vertex 21027.811808823335 35462.5566185436 56999.99999999999
  endloop
endfacet
facet normal 0.0 -1.0 0.0
  outer loop
    vertex 15027.811808823337 35462.5566185436 0.0
    vertex 19527.811808823335 35462.5566185436 18500.0
    vertex 15027.811808823337 35462.556618543604 74000.0
  endloop
endfacet
facet normal 0.0 -1.0 0.0
  outer loop
    vertex 19527.811808823335 35462.5566185436 18500.0
    vertex 15027.811808823337 35462.5566185436 0.0
    vertex 19578.92306938973 35462.5566185436 18111.771432346217
  endloop
endfacet
facet normal 0.0 -1.0 0.0
  outer loop
    vertex 19578.92306938973 35462.5566185436 18111.771432346217
    vertex 15027.811808823337 35462.5566185436 0.0
    vertex 19728.77370314668 35462.5566185436 17750.0
  endloop
endfacet
facet normal 0.0 -1.0 0.0
  outer loop
    vertex 19728.77370314668 35462.5566185436 17750.0
    vertex 15027.811808823337 35462.5566185436 0.0
    vertex 19967.151637043513 35462.5566185436 17439.339828220178
  endloop
endfacet
facet normal 0.0 -1.0 0.0
  outer loop
    vertex 19967.151637043513 35462.5566185436 17439.339828220178
    vertex 15027.811808823337 35462.5566185436 0.0
    vertex 20277.811808823335 35462.5566185436 17200.961894323344
  endloop
endfacet
facet normal 0.0 -1.0 0.0
  outer loop
    vertex 20277.811808823335 35462.5566185436 17200.961894323344
    vertex 15027.811808823337 35462.5566185436 0.0
    vertex 20639.583241169552 35462.5566185436 17051.1112605664
  endloop
endfacet
facet normal 0.0 -1.0 0.0
  outer loop
    vertex 20639.583241169552 35462.5566185436 17051.1112605664
    vertex 15027.811808823337 35462.5566185436 0.0
    vertex 21027.811808823335 35462.5566185436 17000.0
  endloop
endfacet
facet normal 0.0 -1.0 0.0
  outer loop
    vertex 15027.811808823337 35462.556618543604 74000.0
    vertex 19527.811808823335 35462.5566185436 18500.0
    vertex 19578.923069389733 35462.5566185436 18888.228567653783
  endloop
endfacet
facet normal 0.0 -1.0 0.0
  outer loop
    vertex 15027.811808823337 35462.556618543604 74000.0
    vertex 19578.923069389733 35462.5566185436 18888.228567653783
    vertex 19728.77370314668 35462.5566185436 19250.0
  endloop
endfacet
facet normal 0.0 -1.0 0.0
  outer loop
    vertex 15027.811808823337 35462.556618543604 74000.0
    vertex 19728.77370314668 35462.5566185436 19250.0
    vertex 19967.151637043513 35462.5566185436 19560.660171779822
  endloop
endfacet
facet normal 0.0 -1.0 0.0
  outer loop
    vertex 15027.811808823337 35462.556618543604 74000.0
    vertex 19967.151637043513 35462.5566185436 19560.660171779822
    vertex 20277.811808823335 35462.5566185436 19799.03810567666
  endloop
endfacet
facet normal 0.0 -1.0 0.0
  outer loop
    vertex 15027.811808823337 35462.556618543604 74000.0
    vertex 20277.811808823335 35462.5566185436 19799.03810567666
    vertex 20639.583241169552 35462.5566185436 19948.8887394336
  endloop
endfacet
facet normal 0.0 -1.0 0.0
  outer loop
    vertex 15027.811808823337 35462.556618543604 74000.0
    vertex 20639.583241169552 35462.5566185436 19948.8887394336
    vertex 21027.811808823335 35462.5566185436 20000.0
  endloop
endfacet
facet normal 0.0 -1.0 0.0
  outer loop
    vertex 15027.811808823337 35462.556618543604 74000.0
    vertex 21027.811808823335 35462.5566185436 20000.0
    vertex 19527.81180882334 35462.5566185436 37000.0
  endloop
endfacet
facet normal 0.0 -1.0 0.0
  outer loop
    vertex 19527.81180882334 35462.5566185436 37000.0
    vertex 21027.811808823335 35462.5566185436 20000.0
    vertex 19578.923069389733 35462.5566185436 36611.77143234622
  endloop
endfacet
facet normal 0.0 -1.0 0.0
  outer loop
    vertex 19578.923069389733 35462.5566185436 36611.77143234622
    vertex 21027.811808823335 35462.5566185436 20000.0
    vertex 19728.77370314668 35462.5566185436 36250.0
  endloop
endfacet
facet normal 0.0 -1.0 0.0
  outer loop
    vertex 19728.77370314668 35462.5566185436 36250.0
    vertex 21027.811808823335 35462.5566185436 20000.0
    vertex 19967.151637043517 35462.5566185436 35939.33982822018
  endloop
endfacet
facet normal 0.0 -1.0 0.0
  outer loop
    vertex 19967.151637043517 35462.5566185436 35939.33982822018
    vertex 21027.811808823335 35462.5566185436 20000.0
    vertex 20277.81180882334 35462.5566185436 35700.96189432334
  endloop
endfacet
facet normal 0.0 -1.0 0.0
  outer loop
    vertex 20277.81180882334 35462.5566185436 35700.96189432334
    vertex 21027.811808823335 35462.5566185436 20000.0
    vertex 20639.583241169556 35462.5566185436 35551.1112605664
  endloop
endfacet
facet normal 0.0 -1.0 0.0
  outer loop
    vertex 20639.583241169556 35462.5566185436 35551.1112605664
    vertex 21027.811808823335 35462.5566185436 20000.0
    vertex 21027.81180882334 35462.5566185436 35500.0
  endloop
endfacet
facet normal 0.0 -1.0 0.0
  outer loop
    vertex 15027.811808823337 35462.556618543604 74000.0
    vertex 19527.81180882334 35462.5566185436 37000.0
    vertex 19578.923069389733 35462.5566185436 37388.22856765378
  endloop
endfacet
facet normal 0.0 -1.0 0.0
  outer loop
    vertex 15027.811808823337 35462.556618543604 74000.0
    vertex 19578.923069389733 35462.5566185436 37388.22856765378
    vertex 19728.773703146682 35462.5566185436 37750.0
  endloop
endfacet
facet normal 0.0 -1.0 0.0
  outer loop
    vertex 15027.811808823337 35462.556618543604 74000.0
    vertex 19728.773703146682 35462.5566185436 37750.0
    vertex 19967.151637043517 35462.5566185436 38060.66017177982
  endloop
endfacet
facet normal 0.0 -1.0 0.0
  outer loop
    vertex 15027.811808823337 35462.556618543604 74000.0
    vertex 19967.151637043517 35462.5566185436 38060.66017177982
    vertex 20277.81180882334 35462.5566185436 38299.03810567666
  endloop
endfacet
facet normal 0.0 -1.0 0.0
  outer loop
    vertex 15027.811808823337 35462.556618543604 74000.0
    vertex 20277.81180882334 35462.5566185436 38299.03810567666
    vertex 20639.583241169556 35462.5566185436 38448.8887394336
  endloop
endfacet
facet normal 0.0 -1.0 0.0
  outer loop
    vertex 15027.811808823337 35462.556618543604 74000.0
    vertex 20639.583241169556 35462.5566185436 38448.8887394336
    vertex 21027.81180882334 35462.5566185436 38500.0
  endloop
endfacet
facet normal 0.0 -1.0 0.0
  outer loop
    vertex 15027.811808823337 35462.556618543604 74000.0
    vertex 21027.81180882334 35462.5566185436 38500.0
    vertex 19578.92306938973 35462.5566185436 55111.77143234623
  endloop
endfacet
facet normal 0.0 -1.0 0.0
  outer loop
    vertex 19578.92306938973 35462.5566185436 55111.77143234623
    vertex 21027.81180882334 35462.5566185436 38500.0
    vertex 19728.77370314668 35462.5566185436 54750.0
  endloop
endfacet
facet normal 0.0 -1.0 0.0
  outer loop
    vertex 19728.77370314668 35462.5566185436 54750.0
    vertex 21027.81180882334 35462.5566185436 38500.0
    vertex 19967.151637043513 35462.5566185436 54439.33982822018
  endloop
endfacet
facet normal 0.0 -1.0 0.0
  outer loop
    vertex 19967.151637043513 35462.5566185436 54439.33982822018
    vertex 21027.81180882334 35462.5566185436 38500.0
    vertex 20277.811808823335 35462.5566185436 54200.96189432334
  endloop
endfacet
facet normal 0.0 -1.0 0.0
  outer loop
    vertex 20277.811808823335 35462.5566185436 54200.96189432334
    vertex 21027.81180882334 35462.5566185436 38500.0
    vertex 20639.583241169552 35462.5566185436 54051.111260566395
  endloop
endfacet
facet normal 0.0 -1.0 0.0
  outer loop
    vertex 20639.583241169552 35462.5566185436 54051.111260566395
    vertex 21027.81180882334 35462.5566185436 38500.0
    vertex 21027.811808823335 35462.5566185436 54000.00000000001
  endloop
endfacet
facet normal 0.0 -1.0 0.0
  outer loop
    vertex 15027.811808823337 35462.556618543604 74000.0
    vertex 19578.92306938973 35462.5566185436 55111.77143234623
    vertex 19527.811808823335 35462.5566185436 55500.0
  endloop
endfacet
facet normal 0.0 -1.0 0.0
  outer loop
    vertex 15027.811808823337 35462.556618543604 74000.0
    vertex 19527.811808823335 35462.5566185436 55500.0
    vertex 19578.923069389733 35462.5566185436 55888.22856765379
  endloop
endfacet
facet normal 0.0 -1.0 0.0
  outer loop
    vertex 15027.811808823337 35462.556618543604 74000.0
    vertex 19578.923069389733 35462.5566185436 55888.22856765379
    vertex 19728.77370314668 35462.5566185436 56250.00000000001
  endloop
endfacet
facet normal 0.0 -1.0 0.0
  outer loop
    vertex 15027.811808823337 35462.556618543604 74000.0
    vertex 19728.77370314668 35462.5566185436 56250.00000000001
    vertex 19967.151637043513 35462.5566185436 56560.66017177982
  endloop
endfacet
facet normal 0.0 -1.0 0.0
  outer loop
    vertex 15027.811808823337 35462.556618543604 74000.0
    vertex 19967.151637043513 35462.5566185436 56560.66017177982
    vertex 20277.811808823335 35462.5566185436 56799.03810567666
  endloop
endfacet
facet normal 0.0 -1.0 0.0
  outer loop
    vertex 15027.811808823337 35462.556618543604 74000.0
    vertex 20277.811808823335 35462.5566185436 56799.03810567666
    vertex 20639.583241169552 35462.5566185436 56948.888739433605
  endloop
endfacet
facet normal 0.0 -1.0 0.0
  outer loop
    vertex 15027.811808823337 35462.556618543604 74000.0
    vertex 20639.583241169552 35462.5566185436 56948.888739433605
    vertex 21027.811808823335 35462.5566185436 56999.99999999999
  endloop
endfacet
facet normal 0.0 -1.0 0.0
  outer loop
    vertex 15027.811808823337 35462.556618543604 74000.0
    vertex 21027.811808823335 35462.5566185436 56999.99999999999
    vertex 125027.81180882333 35462.556618543604 74000.0
  endloop
endfacet
facet normal -1.0 0.0 0.0
  outer loop
    vertex 89027.81180882333 53462.5566185436 4000.0
    vertex 89027.81180882333 42462.5566185436 -3.6095570976613087e-13
    vertex 89027.81180882333 42462.5566185436 4000.0
  endloop
endfacet
facet normal -1.0 0.0 0.0
  outer loop
    vertex 89027.81180882333 42462.5566185436 -3.6095570976613087e-13
    vertex 89027.81180882333 53462.5566185436 4000.0
    vertex 89027.81180882333 53462.5566185436 -3.6095570976613087e-13
  endloop
endfacet
facet normal -1.0 0.0 0.0
  outer loop
    vertex 37027.81180882333 41462.5566185436 -7.766155921553673e-14
    vertex 37027.81180882333 56462.55661854359 13999.999999999998
    vertex 37027.81180882333 60462.55661854359 0.0
  endloop
endfacet
facet normal -1.0 0.0 0.0
  outer loop
    vertex 37027.81180882333 56462.55661854359 13999.999999999998
    vertex 37027.81180882333 41462.5566185436 -7.766155921553673e-14
    vertex 37027.81180882333 41462.556618543604 74000.0
  endloop
endfacet
facet normal -1.0 0.0 0.0
  outer loop
    vertex 37027.81180882333 56462.55661854359 13999.999999999998
    vertex 37027.81180882333 41462.556618543604 74000.0
    vertex 37027.81180882333 56462.55661854359 73999.99999999999
  endloop
endfacet
facet normal -1.0 0.0 0.0
  outer loop
    vertex 37027.81180882333 60462.55661854359 0.0
    vertex 37027.81180882333 56462.55661854359 13999.999999999998
    vertex 37027.81180882333 60462.55661854359 13999.999999999998
  endloop
endfacet
facet normal 1.0 -0.0 -0.0
  outer loop
    vertex 125027.81180882333 60462.55661854359 0.0
    vertex 125027.81180882333 35462.556618543604 74000.0
    vertex 125027.81180882333 35462.5566185436 0.0
  endloop
endfacet
facet normal 1.0 -0.0 -0.0
  outer loop
    vertex 125027.81180882333 35462.556618543604 74000.0
    vertex 125027.81180882333 60462.55661854359 0.0
    vertex 125027.81180882333 56462.55661854359 13999.999999999998
  endloop
endfacet
facet normal 1.0 -0.0 -0.0
  outer loop
    vertex 125027.81180882333 56462.55661854359 13999.999999999998
    vertex 125027.81180882333 60462.55661854359 0.0
    vertex 125027.81180882333 60462.55661854359 13999.999999999998
  endloop
endfacet
facet normal 1.0 -0.0 -0.0
  outer loop
    vertex 125027.81180882333 56462.55661854359 73999.99999999999
    vertex 125027.81180882333 35462.556618543604 74000.0
    vertex 125027.81180882333 56462.55661854359 13999.999999999998
  endloop
endfacet
facet normal -0.9238795325112854 -0.0 0.3826834323650931
  outer loop
    vertex 22476.70054825694 41462.5566185436 36611.77143234622
    vertex 22326.849914499995 35462.5566185436 36250.0
    vertex 22476.70054825694 35462.5566185436 36611.77143234622
  endloop
endfacet
facet normal -0.9238795325112854 -0.0 0.3826834323650931
  outer loop
    vertex 22326.849914499995 35462.5566185436 36250.0
    vertex 22476.70054825694 41462.5566185436 36611.77143234622
    vertex 22326.849914499995 41462.5566185436 36250.0
  endloop
endfacet
facet normal -0.13052619222005585 -0.0 0.9914448613738099
  outer loop
    vertex 21416.040376477118 35462.5566185436 35551.1112605664
    vertex 21027.81180882334 41462.5566185436 35500.0
    vertex 21027.81180882334 35462.5566185436 35500.0
  endloop
endfacet
facet normal -0.13052619222005585 -0.0 0.9914448613738099
  outer loop
    vertex 21027.81180882334 41462.5566185436 35500.0
    vertex 21416.040376477118 35462.5566185436 35551.1112605664
    vertex 21416.040376477118 41462.5566185436 35551.1112605664
  endloop
endfacet
facet normal -0.9238795325112844 2.3637073095954514e-31 0.3826834323650957
  outer loop
    vertex 22476.700548256937 41462.5566185436 18111.771432346217
    vertex 22326.84991449999 35462.5566185436 17750.0
    vertex 22476.700548256937 35462.5566185436 18111.771432346217
  endloop
endfacet
facet normal -0.9238795325112844 2.3637073095954514e-31 0.3826834323650957
  outer loop
    vertex 22326.84991449999 35462.5566185436 17750.0
    vertex 22476.700548256937 41462.5566185436 18111.771432346217
    vertex 22326.84991449999 41462.5566185436 17750.0
  endloop
endfacet
facet normal 0.13052619222005585 0.0 0.9914448613738099
  outer loop
    vertex 21027.81180882334 35462.5566185436 35500.0
    vertex 20639.583241169556 41462.5566185436 35551.1112605664
    vertex 20639.583241169556 35462.5566185436 35551.1112605664
  endloop
endfacet
facet normal 0.13052619222005585 0.0 0.9914448613738099
  outer loop
    vertex 20639.583241169556 41462.5566185436 35551.1112605664
    vertex 21027.81180882334 35462.5566185436 35500.0
    vertex 21027.81180882334 41462.5566185436 35500.0
  endloop
endfacet
facet normal 0.6087614290087214 -0.0 -0.7933533402912346
  outer loop
    vertex 20277.81180882334 41462.5566185436 38299.03810567666
    vertex 19967.151637043517 35462.5566185436 38060.66017177982
    vertex 19967.151637043517 41462.5566185436 38060.66017177982
  endloop
endfacet
facet normal 0.6087614290087214 -0.0 -0.7933533402912346
  outer loop
    vertex 19967.151637043517 35462.5566185436 38060.66017177982
    vertex 20277.81180882334 41462.5566185436 38299.03810567666
    vertex 20277.81180882334 35462.5566185436 38299.03810567666
  endloop
endfacet
facet normal 0.1305261922200486 6.123822636916105e-31 0.9914448613738109
  outer loop
    vertex 21027.811808823335 35462.5566185436 17000.0
    vertex 20639.583241169552 41462.5566185436 17051.1112605664
    vertex 20639.583241169552 35462.5566185436 17051.1112605664
  endloop
endfacet
facet normal 0.1305261922200486 6.123822636916105e-31 0.9914448613738109
  outer loop
    vertex 20639.583241169552 41462.5566185436 17051.1112605664
    vertex 21027.811808823335 35462.5566185436 17000.0
    vertex 21027.811808823335 41462.5566185436 17000.0
  endloop
endfacet
facet normal 0.6087614290087169 4.900277699373452e-31 0.7933533402912382
  outer loop
    vertex 20277.811808823335 35462.5566185436 17200.961894323344
    vertex 19967.151637043513 41462.5566185436 17439.339828220178
    vertex 19967.151637043513 35462.5566185436 17439.339828220178
  endloop
endfacet
facet normal 0.6087614290087169 4.900277699373452e-31 0.7933533402912382
  outer loop
    vertex 19967.151637043513 41462.5566185436 17439.339828220178
    vertex 20277.811808823335 35462.5566185436 17200.961894323344
    vertex 20277.811808823335 41462.5566185436 17200.961894323344
  endloop
endfacet
facet normal 0.13052619222005585 -0.0 -0.9914448613738099
  outer loop
    vertex 21027.81180882334 41462.5566185436 38500.0
    vertex 20639.583241169556 35462.5566185436 38448.8887394336
    vertex 20639.583241169556 41462.5566185436 38448.8887394336
  endloop
endfacet
facet normal 0.13052619222005585 -0.0 -0.9914448613738099
  outer loop
    vertex 20639.583241169556 35462.5566185436 38448.8887394336
    vertex 21027.81180882334 41462.5566185436 38500.0
    vertex 21027.81180882334 35462.5566185436 38500.0
  endloop
endfacet
facet normal -0.13052619222005585 -0.0 -0.9914448613738099
  outer loop
    vertex 21416.040376477118 41462.5566185436 38448.8887394336
    vertex 21027.81180882334 35462.5566185436 38500.0
    vertex 21027.81180882334 41462.5566185436 38500.0
  endloop
endfacet
facet normal -0.13052619222005585 -0.0 -0.9914448613738099
  outer loop
    vertex 21027.81180882334 35462.5566185436 38500.0
    vertex 21416.040376477118 41462.5566185436 38448.8887394336
    vertex 21416.040376477118 35462.5566185436 38448.8887394336
  endloop
endfacet
facet normal -0.1305261922200486 6.123822636916105e-31 0.9914448613738109
  outer loop
    vertex 21416.040376477114 35462.5566185436 17051.1112605664
    vertex 21027.811808823335 41462.5566185436 17000.0
    vertex 21027.811808823335 35462.5566185436 17000.0
  endloop
endfacet
facet normal -0.1305261922200486 6.123822636916105e-31 0.9914448613738109
  outer loop
    vertex 21027.811808823335 41462.5566185436 17000.0
    vertex 21416.040376477114 35462.5566185436 17051.1112605664
    vertex 21416.040376477114 41462.5566185436 17051.1112605664
  endloop
endfacet
facet normal -0.9914448613738109 8.062165449322184e-32 0.1305261922200486
  outer loop
    vertex 22527.811808823335 41462.5566185436 18500.0
    vertex 22476.700548256937 35462.5566185436 18111.771432346217
    vertex 22527.811808823335 35462.5566185436 18500.0
  endloop
endfacet
facet normal -0.9914448613738109 8.062165449322184e-32 0.1305261922200486
  outer loop
    vertex 22476.700548256937 35462.5566185436 18111.771432346217
    vertex 22527.811808823335 41462.5566185436 18500.0
    vertex 22476.700548256937 41462.5566185436 18111.771432346217
  endloop
endfacet
facet normal 0.7933533402912382 3.760115327320663e-31 0.6087614290087169
  outer loop
    vertex 19967.151637043513 41462.5566185436 17439.339828220178
    vertex 19728.77370314668 35462.5566185436 17750.0
    vertex 19967.151637043513 35462.5566185436 17439.339828220178
  endloop
endfacet
facet normal 0.7933533402912382 3.760115327320663e-31 0.6087614290087169
  outer loop
    vertex 19728.77370314668 35462.5566185436 17750.0
    vertex 19967.151637043513 41462.5566185436 17439.339828220178
    vertex 19728.77370314668 41462.5566185436 17750.0
  endloop
endfacet
facet normal 0.9238795325112844 2.3637073095954523e-31 0.3826834323650957
  outer loop
    vertex 19728.77370314668 41462.5566185436 17750.0
    vertex 19578.92306938973 35462.5566185436 18111.771432346217
    vertex 19728.77370314668 35462.5566185436 17750.0
  endloop
endfacet
facet normal 0.9238795325112844 2.3637073095954523e-31 0.3826834323650957
  outer loop
    vertex 19578.92306938973 35462.5566185436 18111.771432346217
    vertex 19728.77370314668 41462.5566185436 17750.0
    vertex 19578.92306938973 41462.5566185436 18111.771432346217
  endloop
endfacet
facet normal -0.38268343236508945 5.706494244305672e-31 0.923879532511287
  outer loop
    vertex 21777.811808823335 35462.5566185436 17200.96189432334
    vertex 21416.040376477114 41462.5566185436 17051.1112605664
    vertex 21416.040376477114 35462.5566185436 17051.1112605664
  endloop
endfacet
facet normal -0.38268343236508945 5.706494244305672e-31 0.923879532511287
  outer loop
    vertex 21416.040376477114 41462.5566185436 17051.1112605664
    vertex 21777.811808823335 35462.5566185436 17200.96189432334
    vertex 21777.811808823335 41462.5566185436 17200.96189432334
  endloop
endfacet
facet normal -0.6087614290087214 4.90027769937343e-31 0.7933533402912346
  outer loop
    vertex 22088.471980603157 35462.5566185436 17439.339828220178
    vertex 21777.811808823335 41462.5566185436 17200.96189432334
    vertex 21777.811808823335 35462.5566185436 17200.96189432334
  endloop
endfacet
facet normal -0.6087614290087214 4.90027769937343e-31 0.7933533402912346
  outer loop
    vertex 21777.811808823335 41462.5566185436 17200.96189432334
    vertex 22088.471980603157 35462.5566185436 17439.339828220178
    vertex 22088.471980603157 41462.5566185436 17439.339828220178
  endloop
endfacet
facet normal -0.9914448613738109 -0.0 0.1305261922200486
  outer loop
    vertex 22527.81180882334 41462.5566185436 37000.0
    vertex 22476.70054825694 35462.5566185436 36611.77143234622
    vertex 22527.81180882334 35462.5566185436 37000.0
  endloop
endfacet
facet normal -0.9914448613738109 -0.0 0.1305261922200486
  outer loop
    vertex 22476.70054825694 35462.5566185436 36611.77143234622
    vertex 22527.81180882334 41462.5566185436 37000.0
    vertex 22476.70054825694 41462.5566185436 36611.77143234622
  endloop
endfacet
facet normal -0.7933533402912382 3.760115327320662e-31 0.6087614290087169
  outer loop
    vertex 22326.84991449999 41462.5566185436 17750.0
    vertex 22088.471980603157 35462.5566185436 17439.339828220178
    vertex 22326.84991449999 35462.5566185436 17750.0
  endloop
endfacet
facet normal -0.7933533402912382 3.760115327320662e-31 0.6087614290087169
  outer loop
    vertex 22088.471980603157 35462.5566185436 17439.339828220178
    vertex 22326.84991449999 41462.5566185436 17750.0
    vertex 22088.471980603157 41462.5566185436 17439.339828220178
  endloop
endfacet
facet normal -0.6087614290087214 -0.0 -0.7933533402912346
  outer loop
    vertex 22088.47198060316 41462.5566185436 38060.66017177982
    vertex 21777.81180882334 35462.5566185436 38299.03810567666
    vertex 21777.81180882334 41462.5566185436 38299.03810567666
  endloop
endfacet
facet normal -0.6087614290087214 -0.0 -0.7933533402912346
  outer loop
    vertex 21777.81180882334 35462.5566185436 38299.03810567666
    vertex 22088.47198060316 41462.5566185436 38060.66017177982
    vertex 22088.47198060316 35462.5566185436 38060.66017177982
  endloop
endfacet
facet normal -0.7933533402912346 -0.0 -0.6087614290087214
  outer loop
    vertex 22088.47198060316 41462.5566185436 38060.66017177982
    vertex 22326.849914499995 35462.5566185436 37750.0
    vertex 22088.47198060316 35462.5566185436 38060.66017177982
  endloop
endfacet
facet normal -0.7933533402912346 -0.0 -0.6087614290087214
  outer loop
    vertex 22326.849914499995 35462.5566185436 37750.0
    vertex 22088.47198060316 41462.5566185436 38060.66017177982
    vertex 22326.849914499995 41462.5566185436 37750.0
  endloop
endfacet
facet normal 0.6087614290087214 0.0 0.7933533402912346
  outer loop
    vertex 20277.81180882334 35462.5566185436 35700.96189432334
    vertex 19967.151637043517 41462.5566185436 35939.33982822018
    vertex 19967.151637043517 35462.5566185436 35939.33982822018
  endloop
endfacet
facet normal 0.6087614290087214 0.0 0.7933533402912346
  outer loop
    vertex 19967.151637043517 41462.5566185436 35939.33982822018
    vertex 20277.81180882334 35462.5566185436 35700.96189432334
    vertex 20277.81180882334 41462.5566185436 35700.96189432334
  endloop
endfacet
facet normal -0.923879532511286 -0.0 -0.38268343236509206
  outer loop
    vertex 22326.849914499995 41462.5566185436 37750.0
    vertex 22476.70054825694 35462.5566185436 37388.22856765378
    vertex 22326.849914499995 35462.5566185436 37750.0
  endloop
endfacet
facet normal -0.923879532511286 -0.0 -0.38268343236509206
  outer loop
    vertex 22476.70054825694 35462.5566185436 37388.22856765378
    vertex 22326.849914499995 41462.5566185436 37750.0
    vertex 22476.70054825694 41462.5566185436 37388.22856765378
  endloop
endfacet
facet normal 0.38268343236508945 -0.0 -0.923879532511287
  outer loop
    vertex 20639.583241169556 41462.5566185436 38448.8887394336
    vertex 20277.81180882334 35462.5566185436 38299.03810567666
    vertex 20277.81180882334 41462.5566185436 38299.03810567666
  endloop
endfacet
facet normal 0.38268343236508945 -0.0 -0.923879532511287
  outer loop
    vertex 20277.81180882334 35462.5566185436 38299.03810567666
    vertex 20639.583241169556 41462.5566185436 38448.8887394336
    vertex 20639.583241169556 35462.5566185436 38448.8887394336
  endloop
endfacet
facet normal -0.7933533402912326 -0.0 0.6087614290087239
  outer loop
    vertex 22326.849914499995 41462.5566185436 36250.0
    vertex 22088.47198060316 35462.5566185436 35939.33982822018
    vertex 22326.849914499995 35462.5566185436 36250.0
  endloop
endfacet
facet normal -0.7933533402912326 -0.0 0.6087614290087239
  outer loop
    vertex 22088.47198060316 35462.5566185436 35939.33982822018
    vertex 22326.849914499995 41462.5566185436 36250.0
    vertex 22088.47198060316 41462.5566185436 35939.33982822018
  endloop
endfacet
facet normal 0.7933533402912346 0.0 0.6087614290087214
  outer loop
    vertex 19967.151637043517 41462.5566185436 35939.33982822018
    vertex 19728.77370314668 35462.5566185436 36250.0
    vertex 19967.151637043517 35462.5566185436 35939.33982822018
  endloop
endfacet
facet normal 0.7933533402912346 0.0 0.6087614290087214
  outer loop
    vertex 19728.77370314668 35462.5566185436 36250.0
    vertex 19967.151637043517 41462.5566185436 35939.33982822018
    vertex 19728.77370314668 41462.5566185436 36250.0
  endloop
endfacet
facet normal 0.3826834323650957 5.706494244305656e-31 0.9238795325112844
  outer loop
    vertex 20639.583241169552 35462.5566185436 17051.1112605664
    vertex 20277.811808823335 41462.5566185436 17200.961894323344
    vertex 20277.811808823335 35462.5566185436 17200.961894323344
  endloop
endfacet
facet normal 0.3826834323650957 5.706494244305656e-31 0.9238795325112844
  outer loop
    vertex 20277.811808823335 41462.5566185436 17200.961894323344
    vertex 20639.583241169552 35462.5566185436 17051.1112605664
    vertex 20639.583241169552 41462.5566185436 17051.1112605664
  endloop
endfacet
facet normal 0.9914448613738109 0.0 0.1305261922200486
  outer loop
    vertex 19578.923069389733 41462.5566185436 36611.77143234622
    vertex 19527.81180882334 35462.5566185436 37000.0
    vertex 19578.923069389733 35462.5566185436 36611.77143234622
  endloop
endfacet
facet normal 0.9914448613738109 0.0 0.1305261922200486
  outer loop
    vertex 19527.81180882334 35462.5566185436 37000.0
    vertex 19578.923069389733 41462.5566185436 36611.77143234622
    vertex 19527.81180882334 41462.5566185436 37000.0
  endloop
endfacet
facet normal 0.923879532511286 0.0 0.38268343236509206
  outer loop
    vertex 19728.77370314668 41462.5566185436 36250.0
    vertex 19578.923069389733 35462.5566185436 36611.77143234622
    vertex 19728.77370314668 35462.5566185436 36250.0
  endloop
endfacet
facet normal 0.923879532511286 0.0 0.38268343236509206
  outer loop
    vertex 19578.923069389733 35462.5566185436 36611.77143234622
    vertex 19728.77370314668 41462.5566185436 36250.0
    vertex 19578.923069389733 41462.5566185436 36611.77143234622
  endloop
endfacet
facet normal 0.7933533402912326 -0.0 -0.6087614290087239
  outer loop
    vertex 19728.773703146682 41462.5566185436 37750.0
    vertex 19967.151637043517 35462.5566185436 38060.66017177982
    vertex 19728.773703146682 35462.5566185436 37750.0
  endloop
endfacet
facet normal 0.7933533402912326 -0.0 -0.6087614290087239
  outer loop
    vertex 19967.151637043517 35462.5566185436 38060.66017177982
    vertex 19728.773703146682 41462.5566185436 37750.0
    vertex 19967.151637043517 41462.5566185436 38060.66017177982
  endloop
endfacet
facet normal -0.6087614290087214 -0.0 0.7933533402912346
  outer loop
    vertex 22088.47198060316 35462.5566185436 35939.33982822018
    vertex 21777.81180882334 41462.5566185436 35700.96189432334
    vertex 21777.81180882334 35462.5566185436 35700.96189432334
  endloop
endfacet
facet normal -0.6087614290087214 -0.0 0.7933533402912346
  outer loop
    vertex 21777.81180882334 41462.5566185436 35700.96189432334
    vertex 22088.47198060316 35462.5566185436 35939.33982822018
    vertex 22088.47198060316 41462.5566185436 35939.33982822018
  endloop
endfacet
facet normal 0.9914448613738109 -0.0 -0.1305261922200486
  outer loop
    vertex 19527.81180882334 41462.5566185436 37000.0
    vertex 19578.923069389733 35462.5566185436 37388.22856765378
    vertex 19527.81180882334 35462.5566185436 37000.0
  endloop
endfacet
facet normal 0.9914448613738109 -0.0 -0.1305261922200486
  outer loop
    vertex 19578.923069389733 35462.5566185436 37388.22856765378
    vertex 19527.81180882334 41462.5566185436 37000.0
    vertex 19578.923069389733 41462.5566185436 37388.22856765378
  endloop
endfacet
facet normal 0.9238795325112854 -0.0 -0.3826834323650931
  outer loop
    vertex 19578.923069389733 41462.5566185436 37388.22856765378
    vertex 19728.773703146682 35462.5566185436 37750.0
    vertex 19578.923069389733 35462.5566185436 37388.22856765378
  endloop
endfacet
facet normal 0.9238795325112854 -0.0 -0.3826834323650931
  outer loop
    vertex 19728.773703146682 35462.5566185436 37750.0
    vertex 19578.923069389733 41462.5566185436 37388.22856765378
    vertex 19728.773703146682 41462.5566185436 37750.0
  endloop
endfacet
facet normal -0.38268343236508945 -0.0 -0.923879532511287
  outer loop
    vertex 21777.81180882334 41462.5566185436 38299.03810567666
    vertex 21416.040376477118 35462.5566185436 38448.8887394336
    vertex 21416.040376477118 41462.5566185436 38448.8887394336
  endloop
endfacet
facet normal -0.38268343236508945 -0.0 -0.923879532511287
  outer loop
    vertex 21416.040376477118 35462.5566185436 38448.8887394336
    vertex 21777.81180882334 41462.5566185436 38299.03810567666
    vertex 21777.81180882334 35462.5566185436 38299.03810567666
  endloop
endfacet
facet normal -0.9914448613738109 -0.0 -0.1305261922200486
  outer loop
    vertex 22476.70054825694 41462.5566185436 37388.22856765378
    vertex 22527.81180882334 35462.5566185436 37000.0
    vertex 22476.70054825694 35462.5566185436 37388.22856765378
  endloop
endfacet
facet normal -0.9914448613738109 -0.0 -0.1305261922200486
  outer loop
    vertex 22527.81180882334 35462.5566185436 37000.0
    vertex 22476.70054825694 41462.5566185436 37388.22856765378
    vertex 22527.81180882334 41462.5566185436 37000.0
  endloop
endfacet
facet normal 0.38268343236508945 0.0 0.923879532511287
  outer loop
    vertex 20639.583241169556 35462.5566185436 35551.1112605664
    vertex 20277.81180882334 41462.5566185436 35700.96189432334
    vertex 20277.81180882334 35462.5566185436 35700.96189432334
  endloop
endfacet
facet normal 0.38268343236508945 0.0 0.923879532511287
  outer loop
    vertex 20277.81180882334 41462.5566185436 35700.96189432334
    vertex 20639.583241169556 35462.5566185436 35551.1112605664
    vertex 20639.583241169556 41462.5566185436 35551.1112605664
  endloop
endfacet
facet normal -0.38268343236508945 -0.0 0.923879532511287
  outer loop
    vertex 21777.81180882334 35462.5566185436 35700.96189432334
    vertex 21416.040376477118 41462.5566185436 35551.1112605664
    vertex 21416.040376477118 35462.5566185436 35551.1112605664
  endloop
endfacet
facet normal -0.38268343236508945 -0.0 0.923879532511287
  outer loop
    vertex 21416.040376477118 41462.5566185436 35551.1112605664
    vertex 21777.81180882334 35462.5566185436 35700.96189432334
    vertex 21777.81180882334 41462.5566185436 35700.96189432334
  endloop
endfacet
facet normal -0.9914448613738109 -8.06216544932219e-32 -0.1305261922200486
  outer loop
    vertex 22476.700548256937 41462.5566185436 18888.228567653783
    vertex 22527.811808823335 35462.5566185436 18500.0
    vertex 22476.700548256937 35462.5566185436 18888.228567653783
  endloop
endfacet
facet normal -0.9914448613738109 -8.06216544932219e-32 -0.1305261922200486
  outer loop
    vertex 22527.811808823335 35462.5566185436 18500.0
    vertex 22476.700548256937 41462.5566185436 18888.228567653783
    vertex 22527.811808823335 41462.5566185436 18500.0
  endloop
endfacet
facet normal 0.7933533402912326 -4.9002776993734205e-31 -0.6087614290087239
  outer loop
    vertex 19728.77370314668 41462.5566185436 56250.00000000001
    vertex 19967.151637043513 35462.5566185436 56560.66017177982
    vertex 19728.77370314668 35462.5566185436 56250.00000000001
  endloop
endfacet
facet normal 0.7933533402912326 -4.9002776993734205e-31 -0.6087614290087239
  outer loop
    vertex 19967.151637043513 35462.5566185436 56560.66017177982
    vertex 19728.77370314668 41462.5566185436 56250.00000000001
    vertex 19967.151637043513 41462.5566185436 56560.66017177982
  endloop
endfacet
facet normal 0.6087614290087214 -3.7601153273206922e-31 -0.7933533402912346
  outer loop
    vertex 20277.811808823335 41462.5566185436 56799.03810567666
    vertex 19967.151637043513 35462.5566185436 56560.66017177982
    vertex 19967.151637043513 41462.5566185436 56560.66017177982
  endloop
endfacet
facet normal 0.6087614290087214 -3.7601153273206922e-31 -0.7933533402912346
  outer loop
    vertex 19967.151637043513 35462.5566185436 56560.66017177982
    vertex 20277.811808823335 41462.5566185436 56799.03810567666
    vertex 20277.811808823335 35462.5566185436 56799.03810567666
  endloop
endfacet
facet normal 0.38268343236510205 -2.36370730959549e-31 -0.9238795325112819
  outer loop
    vertex 20639.583241169552 41462.5566185436 56948.888739433605
    vertex 20277.811808823335 35462.5566185436 56799.03810567666
    vertex 20277.811808823335 41462.5566185436 56799.03810567666
  endloop
endfacet
facet normal 0.38268343236510205 -2.36370730959549e-31 -0.9238795325112819
  outer loop
    vertex 20277.811808823335 35462.5566185436 56799.03810567666
    vertex 20639.583241169552 41462.5566185436 56948.888739433605
    vertex 20639.583241169552 35462.5566185436 56948.888739433605
  endloop
endfacet
facet normal -0.9914448613738106 6.123822636916107e-31 -0.13052619222005052
  outer loop
    vertex 22476.700548256937 41462.5566185436 55888.22856765378
    vertex 22527.811808823335 35462.5566185436 55500.0
    vertex 22476.700548256937 35462.5566185436 55888.22856765378
  endloop
endfacet
facet normal -0.9914448613738106 6.123822636916107e-31 -0.13052619222005052
  outer loop
    vertex 22527.811808823335 35462.5566185436 55500.0
    vertex 22476.700548256937 41462.5566185436 55888.22856765378
    vertex 22527.811808823335 41462.5566185436 55500.0
  endloop
endfacet
facet normal -0.38268343236510205 2.36370730959549e-31 0.9238795325112819
  outer loop
    vertex 21777.811808823335 35462.5566185436 54200.96189432334
    vertex 21416.040376477114 41462.5566185436 54051.111260566395
    vertex 21416.040376477114 35462.5566185436 54051.111260566395
  endloop
endfacet
facet normal -0.38268343236510205 2.36370730959549e-31 0.9238795325112819
  outer loop
    vertex 21416.040376477114 41462.5566185436 54051.111260566395
    vertex 21777.811808823335 35462.5566185436 54200.96189432334
    vertex 21777.811808823335 41462.5566185436 54200.96189432334
  endloop
endfacet
facet normal 0.9238795325112875 -5.706494244305681e-31 0.3826834323650879
  outer loop
    vertex 19728.77370314668 41462.5566185436 54750.0
    vertex 19578.92306938973 35462.5566185436 55111.77143234623
    vertex 19728.77370314668 35462.5566185436 54750.0
  endloop
endfacet
facet normal 0.9238795325112875 -5.706494244305681e-31 0.3826834323650879
  outer loop
    vertex 19578.92306938973 35462.5566185436 55111.77143234623
    vertex 19728.77370314668 41462.5566185436 54750.0
    vertex 19578.92306938973 41462.5566185436 55111.77143234623
  endloop
endfacet
facet normal 0.9914448613738106 -6.123822636916107e-31 0.13052619222005052
  outer loop
    vertex 19578.92306938973 41462.5566185436 55111.77143234623
    vertex 19527.811808823335 35462.5566185436 55500.0
    vertex 19578.92306938973 35462.5566185436 55111.77143234623
  endloop
endfacet
facet normal 0.9914448613738106 -6.123822636916107e-31 0.13052619222005052
  outer loop
    vertex 19527.811808823335 35462.5566185436 55500.0
    vertex 19578.92306938973 41462.5566185436 55111.77143234623
    vertex 19527.811808823335 41462.5566185436 55500.0
  endloop
endfacet
facet normal -0.9238795325112875 5.7064942443056795e-31 0.3826834323650879
  outer loop
    vertex 22476.700548256937 41462.5566185436 55111.77143234623
    vertex 22326.84991449999 35462.5566185436 54750.0
    vertex 22476.700548256937 35462.5566185436 55111.77143234623
  endloop
endfacet
facet normal -0.9238795325112875 5.7064942443056795e-31 0.3826834323650879
  outer loop
    vertex 22326.84991449999 35462.5566185436 54750.0
    vertex 22476.700548256937 41462.5566185436 55111.77143234623
    vertex 22326.84991449999 41462.5566185436 54750.0
  endloop
endfacet
facet normal -0.9238795325112903 5.706494244305698e-31 -0.3826834323650817
  outer loop
    vertex 22326.849914499995 41462.5566185436 56250.00000000001
    vertex 22476.700548256937 35462.5566185436 55888.22856765378
    vertex 22326.849914499995 35462.5566185436 56250.00000000001
  endloop
endfacet
facet normal -0.9238795325112903 5.706494244305698e-31 -0.3826834323650817
  outer loop
    vertex 22476.700548256937 35462.5566185436 55888.22856765378
    vertex 22326.849914499995 41462.5566185436 56250.00000000001
    vertex 22476.700548256937 41462.5566185436 55888.22856765378
  endloop
endfacet
facet normal -0.38268343236510205 2.363707309595495e-31 -0.9238795325112819
  outer loop
    vertex 21777.811808823335 41462.5566185436 56799.03810567666
    vertex 21416.040376477114 35462.5566185436 56948.888739433605
    vertex 21416.040376477114 41462.5566185436 56948.888739433605
  endloop
endfacet
facet normal -0.38268343236510205 2.363707309595495e-31 -0.9238795325112819
  outer loop
    vertex 21416.040376477114 35462.5566185436 56948.888739433605
    vertex 21777.811808823335 41462.5566185436 56799.03810567666
    vertex 21777.811808823335 35462.5566185436 56799.03810567666
  endloop
endfacet
facet normal -0.923879532511287 -2.363707309595413e-31 -0.38268343236508945
  outer loop
    vertex 22326.849914499995 41462.5566185436 19250.0
    vertex 22476.700548256937 35462.5566185436 18888.228567653783
    vertex 22326.849914499995 35462.5566185436 19250.0
  endloop
endfacet
facet normal -0.923879532511287 -2.363707309595413e-31 -0.38268343236508945
  outer loop
    vertex 22476.700548256937 35462.5566185436 18888.228567653783
    vertex 22326.849914499995 41462.5566185436 19250.0
    vertex 22476.700548256937 41462.5566185436 18888.228567653783
  endloop
endfacet
facet normal -0.7933533402912292 4.900277699373403e-31 -0.6087614290087286
  outer loop
    vertex 22088.471980603157 41462.5566185436 56560.66017177982
    vertex 22326.849914499995 35462.5566185436 56250.00000000001
    vertex 22088.471980603157 35462.5566185436 56560.66017177982
  endloop
endfacet
facet normal -0.7933533402912292 4.900277699373403e-31 -0.6087614290087286
  outer loop
    vertex 22326.849914499995 35462.5566185436 56250.00000000001
    vertex 22088.471980603157 41462.5566185436 56560.66017177982
    vertex 22326.849914499995 41462.5566185436 56250.00000000001
  endloop
endfacet
facet normal -0.6087614290087169 -4.900277699373452e-31 -0.7933533402912382
  outer loop
    vertex 22088.471980603157 41462.5566185436 19560.660171779822
    vertex 21777.811808823335 35462.5566185436 19799.038105676656
    vertex 21777.811808823335 41462.5566185436 19799.038105676656
  endloop
endfacet
facet normal -0.6087614290087169 -4.900277699373452e-31 -0.7933533402912382
  outer loop
    vertex 21777.811808823335 35462.5566185436 19799.038105676656
    vertex 22088.471980603157 41462.5566185436 19560.660171779822
    vertex 22088.471980603157 35462.5566185436 19560.660171779822
  endloop
endfacet
facet normal 0.38268343236510205 -2.363707309595495e-31 0.9238795325112819
  outer loop
    vertex 20639.583241169552 35462.5566185436 54051.111260566395
    vertex 20277.811808823335 41462.5566185436 54200.96189432334
    vertex 20277.811808823335 35462.5566185436 54200.96189432334
  endloop
endfacet
facet normal 0.38268343236510205 -2.363707309595495e-31 0.9238795325112819
  outer loop
    vertex 20277.811808823335 41462.5566185436 54200.96189432334
    vertex 20639.583241169552 35462.5566185436 54051.111260566395
    vertex 20639.583241169552 41462.5566185436 54051.111260566395
  endloop
endfacet
facet normal 0.923879532511286 -5.70649424430567e-31 -0.38268343236509206
  outer loop
    vertex 19578.923069389733 41462.5566185436 55888.22856765379
    vertex 19728.77370314668 35462.5566185436 56250.00000000001
    vertex 19578.923069389733 35462.5566185436 55888.22856765379
  endloop
endfacet
facet normal 0.923879532511286 -5.70649424430567e-31 -0.38268343236509206
  outer loop
    vertex 19728.77370314668 35462.5566185436 56250.00000000001
    vertex 19578.923069389733 41462.5566185436 55888.22856765379
    vertex 19728.77370314668 41462.5566185436 56250.00000000001
  endloop
endfacet
facet normal -0.13052619222002684 8.062165449320821e-32 0.9914448613738137
  outer loop
    vertex 21416.040376477114 35462.5566185436 54051.111260566395
    vertex 21027.811808823335 41462.5566185436 54000.00000000001
    vertex 21027.811808823335 35462.5566185436 54000.00000000001
  endloop
endfacet
facet normal -0.13052619222002684 8.062165449320821e-32 0.9914448613738137
  outer loop
    vertex 21027.811808823335 41462.5566185436 54000.00000000001
    vertex 21416.040376477114 35462.5566185436 54051.111260566395
    vertex 21416.040376477114 41462.5566185436 54051.111260566395
  endloop
endfacet
facet normal 0.9914448613738099 -8.062165449322631e-32 -0.13052619222005585
  outer loop
    vertex 19527.811808823335 41462.5566185436 18500.0
    vertex 19578.923069389733 35462.5566185436 18888.228567653783
    vertex 19527.811808823335 35462.5566185436 18500.0
  endloop
endfacet
facet normal 0.9914448613738099 -8.062165449322631e-32 -0.13052619222005585
  outer loop
    vertex 19578.923069389733 35462.5566185436 18888.228567653783
    vertex 19527.811808823335 41462.5566185436 18500.0
    vertex 19578.923069389733 41462.5566185436 18888.228567653783
  endloop
endfacet
facet normal 0.38268343236508945 -5.706494244305672e-31 -0.923879532511287
  outer loop
    vertex 20639.583241169552 41462.5566185436 19948.8887394336
    vertex 20277.811808823335 35462.5566185436 19799.03810567666
    vertex 20277.811808823335 41462.5566185436 19799.03810567666
  endloop
endfacet
facet normal 0.38268343236508945 -5.706494244305672e-31 -0.923879532511287
  outer loop
    vertex 20277.811808823335 35462.5566185436 19799.03810567666
    vertex 20639.583241169552 41462.5566185436 19948.8887394336
    vertex 20639.583241169552 35462.5566185436 19948.8887394336
  endloop
endfacet
facet normal 0.9914448613738103 -6.1238226369161056e-31 -0.13052619222005396
  outer loop
    vertex 19527.811808823335 41462.5566185436 55500.0
    vertex 19578.923069389733 35462.5566185436 55888.22856765379
    vertex 19527.811808823335 35462.5566185436 55500.0
  endloop
endfacet
facet normal 0.9914448613738103 -6.1238226369161056e-31 -0.13052619222005396
  outer loop
    vertex 19578.923069389733 35462.5566185436 55888.22856765379
    vertex 19527.811808823335 41462.5566185436 55500.0
    vertex 19578.923069389733 41462.5566185436 55888.22856765379
  endloop
endfacet
facet normal 0.13052619222002684 -8.062165449320821e-32 -0.9914448613738137
  outer loop
    vertex 21027.811808823335 41462.5566185436 56999.99999999999
    vertex 20639.583241169552 35462.5566185436 56948.888739433605
    vertex 20639.583241169552 41462.5566185436 56948.888739433605
  endloop
endfacet
facet normal 0.13052619222002684 -8.062165449320821e-32 -0.9914448613738137
  outer loop
    vertex 20639.583241169552 35462.5566185436 56948.888739433605
    vertex 21027.811808823335 41462.5566185436 56999.99999999999
    vertex 21027.811808823335 35462.5566185436 56999.99999999999
  endloop
endfacet
facet normal -0.7933533402912326 4.9002776993734205e-31 0.6087614290087239
  outer loop
    vertex 22326.84991449999 41462.5566185436 54750.0
    vertex 22088.471980603157 35462.5566185436 54439.33982822018
    vertex 22326.84991449999 35462.5566185436 54750.0
  endloop
endfacet
facet normal -0.7933533402912326 4.9002776993734205e-31 0.6087614290087239
  outer loop
    vertex 22088.471980603157 35462.5566185436 54439.33982822018
    vertex 22326.84991449999 41462.5566185436 54750.0
    vertex 22088.471980603157 41462.5566185436 54439.33982822018
  endloop
endfacet
facet normal 0.7933533402912382 -3.760115327320662e-31 -0.6087614290087169
  outer loop
    vertex 19728.77370314668 41462.5566185436 19250.0
    vertex 19967.151637043513 35462.5566185436 19560.660171779822
    vertex 19728.77370314668 35462.5566185436 19250.0
  endloop
endfacet
facet normal 0.7933533402912382 -3.760115327320662e-31 -0.6087614290087169
  outer loop
    vertex 19967.151637043513 35462.5566185436 19560.660171779822
    vertex 19728.77370314668 41462.5566185436 19250.0
    vertex 19967.151637043513 41462.5566185436 19560.660171779822
  endloop
endfacet
facet normal 0.13052619222002684 -8.06216544932088e-32 0.9914448613738137
  outer loop
    vertex 21027.811808823335 35462.5566185436 54000.00000000001
    vertex 20639.583241169552 41462.5566185436 54051.111260566395
    vertex 20639.583241169552 35462.5566185436 54051.111260566395
  endloop
endfacet
facet normal 0.13052619222002684 -8.06216544932088e-32 0.9914448613738137
  outer loop
    vertex 20639.583241169552 41462.5566185436 54051.111260566395
    vertex 21027.811808823335 35462.5566185436 54000.00000000001
    vertex 21027.811808823335 41462.5566185436 54000.00000000001
  endloop
endfacet
facet normal 0.6087614290087214 -4.90027769937343e-31 -0.7933533402912346
  outer loop
    vertex 20277.811808823335 41462.5566185436 19799.03810567666
    vertex 19967.151637043513 35462.5566185436 19560.660171779822
    vertex 19967.151637043513 41462.5566185436 19560.660171779822
  endloop
endfacet
facet normal 0.6087614290087214 -4.90027769937343e-31 -0.7933533402912346
  outer loop
    vertex 19967.151637043513 35462.5566185436 19560.660171779822
    vertex 20277.811808823335 41462.5566185436 19799.03810567666
    vertex 20277.811808823335 35462.5566185436 19799.03810567666
  endloop
endfacet
facet normal 0.1305261922200486 -6.123822636916105e-31 -0.9914448613738109
  outer loop
    vertex 21027.811808823335 41462.5566185436 20000.0
    vertex 20639.583241169552 35462.5566185436 19948.8887394336
    vertex 20639.583241169552 41462.5566185436 19948.8887394336
  endloop
endfacet
facet normal 0.1305261922200486 -6.123822636916105e-31 -0.9914448613738109
  outer loop
    vertex 20639.583241169552 35462.5566185436 19948.8887394336
    vertex 21027.811808823335 41462.5566185436 20000.0
    vertex 21027.811808823335 35462.5566185436 20000.0
  endloop
endfacet
facet normal 0.7933533402912326 -4.900277699373424e-31 0.6087614290087239
  outer loop
    vertex 19967.151637043513 41462.5566185436 54439.33982822018
    vertex 19728.77370314668 35462.5566185436 54750.0
    vertex 19967.151637043513 35462.5566185436 54439.33982822018
  endloop
endfacet
facet normal 0.7933533402912326 -4.900277699373424e-31 0.6087614290087239
  outer loop
    vertex 19728.77370314668 35462.5566185436 54750.0
    vertex 19967.151637043513 41462.5566185436 54439.33982822018
    vertex 19728.77370314668 41462.5566185436 54750.0
  endloop
endfacet
facet normal -0.7933533402912346 -3.7601153273206914e-31 -0.6087614290087214
  outer loop
    vertex 22088.471980603157 41462.5566185436 19560.660171779822
    vertex 22326.849914499995 35462.5566185436 19250.0
    vertex 22088.471980603157 35462.5566185436 19560.660171779822
  endloop
endfacet
facet normal -0.7933533402912346 -3.7601153273206914e-31 -0.6087614290087214
  outer loop
    vertex 22326.849914499995 35462.5566185436 19250.0
    vertex 22088.471980603157 41462.5566185436 19560.660171779822
    vertex 22326.849914499995 41462.5566185436 19250.0
  endloop
endfacet
facet normal -0.9914448613738106 6.123822636916107e-31 0.13052619222005052
  outer loop
    vertex 22527.811808823335 41462.5566185436 55500.0
    vertex 22476.700548256937 35462.5566185436 55111.77143234623
    vertex 22527.811808823335 35462.5566185436 55500.0
  endloop
endfacet
facet normal -0.9914448613738106 6.123822636916107e-31 0.13052619222005052
  outer loop
    vertex 22476.700548256937 35462.5566185436 55111.77143234623
    vertex 22527.811808823335 41462.5566185436 55500.0
    vertex 22476.700548256937 41462.5566185436 55111.77143234623
  endloop
endfacet
facet normal -0.1305261922200486 -6.123822636916105e-31 -0.9914448613738109
  outer loop
    vertex 21416.040376477114 41462.5566185436 19948.8887394336
    vertex 21027.811808823335 35462.5566185436 20000.0
    vertex 21027.811808823335 41462.5566185436 20000.0
  endloop
endfacet
facet normal -0.1305261922200486 -6.123822636916105e-31 -0.9914448613738109
  outer loop
    vertex 21027.811808823335 35462.5566185436 20000.0
    vertex 21416.040376477114 41462.5566185436 19948.8887394336
    vertex 21416.040376477114 35462.5566185436 19948.8887394336
  endloop
endfacet
facet normal 0.923879532511287 -2.363707309595412e-31 -0.38268343236508945
  outer loop
    vertex 19578.923069389733 41462.5566185436 18888.228567653783
    vertex 19728.77370314668 35462.5566185436 19250.0
    vertex 19578.923069389733 35462.5566185436 18888.228567653783
  endloop
endfacet
facet normal 0.923879532511287 -2.363707309595412e-31 -0.38268343236508945
  outer loop
    vertex 19728.77370314668 35462.5566185436 19250.0
    vertex 19578.923069389733 41462.5566185436 18888.228567653783
    vertex 19728.77370314668 41462.5566185436 19250.0
  endloop
endfacet
facet normal 0.9914448613738109 8.06216544932219e-32 0.1305261922200486
  outer loop
    vertex 19578.92306938973 41462.5566185436 18111.771432346217
    vertex 19527.811808823335 35462.5566185436 18500.0
    vertex 19578.92306938973 35462.5566185436 18111.771432346217
  endloop
endfacet
facet normal 0.9914448613738109 8.06216544932219e-32 0.1305261922200486
  outer loop
    vertex 19527.811808823335 35462.5566185436 18500.0
    vertex 19578.92306938973 41462.5566185436 18111.771432346217
    vertex 19527.811808823335 41462.5566185436 18500.0
  endloop
endfacet
facet normal -0.13052619222002684 8.06216544932088e-32 -0.9914448613738137
  outer loop
    vertex 21416.040376477114 41462.5566185436 56948.888739433605
    vertex 21027.811808823335 35462.5566185436 56999.99999999999
    vertex 21027.811808823335 41462.5566185436 56999.99999999999
  endloop
endfacet
facet normal -0.13052619222002684 8.06216544932088e-32 -0.9914448613738137
  outer loop
    vertex 21027.811808823335 35462.5566185436 56999.99999999999
    vertex 21416.040376477114 41462.5566185436 56948.888739433605
    vertex 21416.040376477114 35462.5566185436 56948.888739433605
  endloop
endfacet
facet normal -0.6087614290087214 3.7601153273206966e-31 -0.7933533402912346
  outer loop
    vertex 22088.471980603157 41462.5566185436 56560.66017177982
    vertex 21777.811808823335 35462.5566185436 56799.03810567666
    vertex 21777.811808823335 41462.5566185436 56799.03810567666
  endloop
endfacet
facet normal -0.6087614290087214 3.7601153273206966e-31 -0.7933533402912346
  outer loop
    vertex 21777.811808823335 35462.5566185436 56799.03810567666
    vertex 22088.471980603157 41462.5566185436 56560.66017177982
    vertex 22088.471980603157 35462.5566185436 56560.66017177982
  endloop
endfacet
facet normal -0.3826834323650957 -5.706494244305656e-31 -0.9238795325112844
  outer loop
    vertex 21777.811808823335 41462.5566185436 19799.038105676656
    vertex 21416.040376477114 35462.5566185436 19948.8887394336
    vertex 21416.040376477114 41462.5566185436 19948.8887394336
  endloop
endfacet
facet normal -0.3826834323650957 -5.706494244305656e-31 -0.9238795325112844
  outer loop
    vertex 21416.040376477114 35462.5566185436 19948.8887394336
    vertex 21777.811808823335 41462.5566185436 19799.038105676656
    vertex 21777.811808823335 35462.5566185436 19799.038105676656
  endloop
endfacet
facet normal -0.6087614290087214 3.7601153273206922e-31 0.7933533402912346
  outer loop
    vertex 22088.471980603157 35462.5566185436 54439.33982822018
    vertex 21777.811808823335 41462.5566185436 54200.96189432334
    vertex 21777.811808823335 35462.5566185436 54200.96189432334
  endloop
endfacet
facet normal -0.6087614290087214 3.7601153273206922e-31 0.7933533402912346
  outer loop
    vertex 21777.811808823335 41462.5566185436 54200.96189432334
    vertex 22088.471980603157 35462.5566185436 54439.33982822018
    vertex 22088.471980603157 41462.5566185436 54439.33982822018
  endloop
endfacet
facet normal 0.6087614290087214 -3.7601153273206966e-31 0.7933533402912346
  outer loop
    vertex 20277.811808823335 35462.5566185436 54200.96189432334
    vertex 19967.151637043513 41462.5566185436 54439.33982822018
    vertex 19967.151637043513 35462.5566185436 54439.33982822018
  endloop
endfacet
facet normal 0.6087614290087214 -3.7601153273206966e-31 0.7933533402912346
  outer loop
    vertex 19967.151637043513 41462.5566185436 54439.33982822018
    vertex 20277.811808823335 35462.5566185436 54200.96189432334
    vertex 20277.811808823335 41462.5566185436 54200.96189432334
  endloop
endfacet
endsolid GlyphGuideConnector
