solid NewBeaconPusherFTC
facet normal -0.0 1.0 -0.0
  outer loop
    vertex 49266.906663790774 61135.70474198577 9999.999999999998
    vertex 57852.693101417666 61135.70474198577 21735.786437626884
    vertex 69266.90666379075 61135.70474198577 9999.999999999998
  endloop
endfacet
facet normal -0.0 1.0 -0.0
  outer loop
    vertex 57852.693101417666 61135.70474198577 21735.786437626884
    vertex 49266.906663790774 61135.70474198577 9999.999999999998
    vertex 57534.855856221875 61135.70474198577 22149.99999999998
  endloop
endfacet
facet normal -0.0 1.0 -0.0
  outer loop
    vertex 57534.855856221875 61135.70474198577 22149.99999999998
    vertex 49266.906663790774 61135.70474198577 9999.999999999998
    vertex 57335.05501121262 61135.70474198577 22632.361909794938
  endloop
endfacet
facet normal -0.0 1.0 -0.0
  outer loop
    vertex 57335.05501121262 61135.70474198577 22632.361909794938
    vertex 49266.906663790774 61135.70474198577 9999.999999999998
    vertex 49266.906663790774 61135.70474198577 68149.99999999999
  endloop
endfacet
facet normal -0.0 1.0 -0.0
  outer loop
    vertex 69266.90666379075 61135.70474198577 9999.999999999998
    vertex 57852.693101417666 61135.70474198577 21735.786437626884
    vertex 58266.90666379076 61135.70474198577 21417.949192431104
  endloop
endfacet
facet normal -0.0 1.0 -0.0
  outer loop
    vertex 69266.90666379075 61135.70474198577 9999.999999999998
    vertex 58266.90666379076 61135.70474198577 21417.949192431104
    vertex 58749.26857358571 61135.70474198577 21218.148347421848
  endloop
endfacet
facet normal -0.0 1.0 -0.0
  outer loop
    vertex 69266.90666379075 61135.70474198577 9999.999999999998
    vertex 58749.26857358571 61135.70474198577 21218.148347421848
    vertex 59266.90666379075 61135.70474198577 21149.99999999998
  endloop
endfacet
facet normal -0.0 1.0 -0.0
  outer loop
    vertex 57335.05501121262 61135.70474198577 22632.361909794938
    vertex 49266.906663790774 61135.70474198577 68149.99999999999
    vertex 57266.90666379076 61135.70474198577 23149.999999999978
  endloop
endfacet
facet normal -0.0 1.0 -0.0
  outer loop
    vertex 57266.90666379076 61135.70474198577 23149.999999999978
    vertex 49266.906663790774 61135.70474198577 68149.99999999999
    vertex 57335.05501121262 61135.70474198577 23667.63809020502
  endloop
endfacet
facet normal -0.0 1.0 -0.0
  outer loop
    vertex 57335.05501121262 61135.70474198577 23667.63809020502
    vertex 49266.906663790774 61135.70474198577 68149.99999999999
    vertex 57534.855856221875 61135.70474198577 24149.999999999978
  endloop
endfacet
facet normal -0.0 1.0 -0.0
  outer loop
    vertex 57534.855856221875 61135.70474198577 24149.999999999978
    vertex 49266.906663790774 61135.70474198577 68149.99999999999
    vertex 57852.693101417666 61135.70474198577 24564.21356237307
  endloop
endfacet
facet normal -0.0 1.0 -0.0
  outer loop
    vertex 57852.693101417666 61135.70474198577 24564.21356237307
    vertex 49266.906663790774 61135.70474198577 68149.99999999999
    vertex 58266.906663790745 61135.70474198577 24882.050807568852
  endloop
endfacet
facet normal -0.0 1.0 -0.0
  outer loop
    vertex 58266.906663790745 61135.70474198577 24882.050807568852
    vertex 49266.906663790774 61135.70474198577 68149.99999999999
    vertex 58749.26857358571 61135.70474198577 25081.851652578112
  endloop
endfacet
facet normal -0.0 1.0 -0.0
  outer loop
    vertex 58749.26857358571 61135.70474198577 25081.851652578112
    vertex 49266.906663790774 61135.70474198577 68149.99999999999
    vertex 59266.90666379075 61135.70474198577 25149.999999999975
  endloop
endfacet
facet normal -0.0 1.0 -0.0
  outer loop
    vertex 59266.90666379075 61135.70474198577 25149.999999999975
    vertex 49266.906663790774 61135.70474198577 68149.99999999999
    vertex 57335.05501121262 61135.70474198577 40632.36190979494
  endloop
endfacet
facet normal -0.0 1.0 -0.0
  outer loop
    vertex 59266.90666379075 61135.70474198577 25149.999999999975
    vertex 57335.05501121262 61135.70474198577 40632.36190979494
    vertex 57534.855856221875 61135.70474198577 40149.999999999985
  endloop
endfacet
facet normal -0.0 1.0 -0.0
  outer loop
    vertex 59266.90666379075 61135.70474198577 25149.999999999975
    vertex 57534.855856221875 61135.70474198577 40149.999999999985
    vertex 57852.693101417666 61135.70474198577 39735.786437626884
  endloop
endfacet
facet normal -0.0 1.0 -0.0
  outer loop
    vertex 59266.90666379075 61135.70474198577 25149.999999999975
    vertex 57852.693101417666 61135.70474198577 39735.786437626884
    vertex 58266.90666379076 61135.70474198577 39417.94919243111
  endloop
endfacet
facet normal -0.0 1.0 -0.0
  outer loop
    vertex 59266.90666379075 61135.70474198577 25149.999999999975
    vertex 58266.90666379076 61135.70474198577 39417.94919243111
    vertex 58749.26857358571 61135.70474198577 39218.14834742185
  endloop
endfacet
facet normal -0.0 1.0 -0.0
  outer loop
    vertex 59266.90666379075 61135.70474198577 25149.999999999975
    vertex 58749.26857358571 61135.70474198577 39218.14834742185
    vertex 59266.90666379075 61135.70474198577 39149.999999999985
  endloop
endfacet
facet normal -0.0 1.0 -0.0
  outer loop
    vertex 57335.05501121262 61135.70474198577 40632.36190979494
    vertex 49266.906663790774 61135.70474198577 68149.99999999999
    vertex 57266.90666379076 61135.70474198577 41149.99999999998
  endloop
endfacet
facet normal -0.0 1.0 -0.0
  outer loop
    vertex 57266.90666379076 61135.70474198577 41149.99999999998
    vertex 49266.906663790774 61135.70474198577 68149.99999999999
    vertex 57335.05501121262 61135.70474198577 41667.63809020502
  endloop
endfacet
facet normal -0.0 1.0 -0.0
  outer loop
    vertex 57335.05501121262 61135.70474198577 41667.63809020502
    vertex 49266.906663790774 61135.70474198577 68149.99999999999
    vertex 57534.855856221875 61135.70474198577 42149.99999999998
  endloop
endfacet
facet normal -0.0 1.0 -0.0
  outer loop
    vertex 57534.855856221875 61135.70474198577 42149.99999999998
    vertex 49266.906663790774 61135.70474198577 68149.99999999999
    vertex 57852.693101417666 61135.70474198577 42564.21356237307
  endloop
endfacet
facet normal -0.0 1.0 -0.0
  outer loop
    vertex 57852.693101417666 61135.70474198577 42564.21356237307
    vertex 49266.906663790774 61135.70474198577 68149.99999999999
    vertex 58266.906663790745 61135.70474198577 42882.050807568856
  endloop
endfacet
facet normal -0.0 1.0 -0.0
  outer loop
    vertex 58266.906663790745 61135.70474198577 42882.050807568856
    vertex 49266.906663790774 61135.70474198577 68149.99999999999
    vertex 58749.26857358571 61135.70474198577 43081.85165257811
  endloop
endfacet
facet normal -0.0 1.0 -0.0
  outer loop
    vertex 58749.26857358571 61135.70474198577 43081.85165257811
    vertex 49266.906663790774 61135.70474198577 68149.99999999999
    vertex 59266.90666379075 61135.70474198577 43149.99999999998
  endloop
endfacet
facet normal -0.0 1.0 -0.0
  outer loop
    vertex 59266.90666379075 61135.70474198577 43149.99999999998
    vertex 49266.906663790774 61135.70474198577 68149.99999999999
    vertex 57852.693101417666 61135.70474198577 57735.78643762689
  endloop
endfacet
facet normal -0.0 1.0 -0.0
  outer loop
    vertex 59266.90666379075 61135.70474198577 43149.99999999998
    vertex 57852.693101417666 61135.70474198577 57735.78643762689
    vertex 58266.90666379076 61135.70474198577 57417.94919243111
  endloop
endfacet
facet normal -0.0 1.0 -0.0
  outer loop
    vertex 59266.90666379075 61135.70474198577 43149.99999999998
    vertex 58266.90666379076 61135.70474198577 57417.94919243111
    vertex 58749.26857358571 61135.70474198577 57218.14834742185
  endloop
endfacet
facet normal -0.0 1.0 -0.0
  outer loop
    vertex 59266.90666379075 61135.70474198577 43149.99999999998
    vertex 58749.26857358571 61135.70474198577 57218.14834742185
    vertex 59266.90666379075 61135.70474198577 57149.999999999985
  endloop
endfacet
facet normal -0.0 1.0 -0.0
  outer loop
    vertex 57852.693101417666 61135.70474198577 57735.78643762689
    vertex 49266.906663790774 61135.70474198577 68149.99999999999
    vertex 57534.855856221875 61135.70474198577 58149.99999999998
  endloop
endfacet
facet normal -0.0 1.0 -0.0
  outer loop
    vertex 57534.855856221875 61135.70474198577 58149.99999999998
    vertex 49266.906663790774 61135.70474198577 68149.99999999999
    vertex 57335.05501121262 61135.70474198577 58632.36190979494
  endloop
endfacet
facet normal -0.0 1.0 -0.0
  outer loop
    vertex 57335.05501121262 61135.70474198577 58632.36190979494
    vertex 49266.906663790774 61135.70474198577 68149.99999999999
    vertex 57266.90666379076 61135.70474198577 59149.99999999998
  endloop
endfacet
facet normal -0.0 1.0 -0.0
  outer loop
    vertex 57266.90666379076 61135.70474198577 59149.99999999998
    vertex 49266.906663790774 61135.70474198577 68149.99999999999
    vertex 57335.05501121262 61135.70474198577 59667.63809020502
  endloop
endfacet
facet normal -0.0 1.0 -0.0
  outer loop
    vertex 57335.05501121262 61135.70474198577 59667.63809020502
    vertex 49266.906663790774 61135.70474198577 68149.99999999999
    vertex 57534.855856221875 61135.70474198577 60149.99999999997
  endloop
endfacet
facet normal -0.0 1.0 -0.0
  outer loop
    vertex 57534.855856221875 61135.70474198577 60149.99999999997
    vertex 49266.906663790774 61135.70474198577 68149.99999999999
    vertex 57852.693101417666 61135.70474198577 60564.21356237307
  endloop
endfacet
facet normal -0.0 1.0 -0.0
  outer loop
    vertex 57852.693101417666 61135.70474198577 60564.21356237307
    vertex 49266.906663790774 61135.70474198577 68149.99999999999
    vertex 58266.906663790745 61135.70474198577 60882.050807568856
  endloop
endfacet
facet normal -0.0 1.0 -0.0
  outer loop
    vertex 58266.906663790745 61135.70474198577 60882.050807568856
    vertex 49266.906663790774 61135.70474198577 68149.99999999999
    vertex 58749.26857358571 61135.70474198577 61081.85165257811
  endloop
endfacet
facet normal -0.0 1.0 -0.0
  outer loop
    vertex 58749.26857358571 61135.70474198577 61081.85165257811
    vertex 49266.906663790774 61135.70474198577 68149.99999999999
    vertex 59266.90666379075 61135.70474198577 61149.99999999998
  endloop
endfacet
facet normal -0.0 1.0 -0.0
  outer loop
    vertex 69266.90666379075 61135.70474198577 9999.999999999998
    vertex 61198.75831636888 61135.70474198577 22632.36190979494
    vertex 69266.90666379075 61135.70474198577 68149.99999999999
  endloop
endfacet
facet normal -0.0 1.0 -0.0
  outer loop
    vertex 61198.75831636888 61135.70474198577 22632.36190979494
    vertex 69266.90666379075 61135.70474198577 9999.999999999998
    vertex 60998.95747135963 61135.70474198577 22149.99999999998
  endloop
endfacet
facet normal -0.0 1.0 -0.0
  outer loop
    vertex 60998.95747135963 61135.70474198577 22149.99999999998
    vertex 69266.90666379075 61135.70474198577 9999.999999999998
    vertex 60681.12022616384 61135.70474198577 21735.786437626888
  endloop
endfacet
facet normal -0.0 1.0 -0.0
  outer loop
    vertex 60681.12022616384 61135.70474198577 21735.786437626888
    vertex 69266.90666379075 61135.70474198577 9999.999999999998
    vertex 60266.90666379075 61135.70474198577 21417.949192431104
  endloop
endfacet
facet normal -0.0 1.0 -0.0
  outer loop
    vertex 60266.90666379075 61135.70474198577 21417.949192431104
    vertex 69266.90666379075 61135.70474198577 9999.999999999998
    vertex 59784.5447539958 61135.70474198577 21218.148347421848
  endloop
endfacet
facet normal -0.0 1.0 -0.0
  outer loop
    vertex 59784.5447539958 61135.70474198577 21218.148347421848
    vertex 69266.90666379075 61135.70474198577 9999.999999999998
    vertex 59266.90666379075 61135.70474198577 21149.99999999998
  endloop
endfacet
facet normal -0.0 1.0 -0.0
  outer loop
    vertex 69266.90666379075 61135.70474198577 68149.99999999999
    vertex 61198.75831636888 61135.70474198577 22632.36190979494
    vertex 61266.906663790745 61135.70474198577 23149.999999999978
  endloop
endfacet
facet normal -0.0 1.0 -0.0
  outer loop
    vertex 69266.90666379075 61135.70474198577 68149.99999999999
    vertex 61266.906663790745 61135.70474198577 23149.999999999978
    vertex 61198.75831636888 61135.70474198577 23667.638090205022
  endloop
endfacet
facet normal -0.0 1.0 -0.0
  outer loop
    vertex 69266.90666379075 61135.70474198577 68149.99999999999
    vertex 61198.75831636888 61135.70474198577 23667.638090205022
    vertex 60998.95747135963 61135.70474198577 24149.999999999978
  endloop
endfacet
facet normal -0.0 1.0 -0.0
  outer loop
    vertex 69266.90666379075 61135.70474198577 68149.99999999999
    vertex 60998.95747135963 61135.70474198577 24149.999999999978
    vertex 60681.12022616384 61135.70474198577 24564.213562373072
  endloop
endfacet
facet normal -0.0 1.0 -0.0
  outer loop
    vertex 69266.90666379075 61135.70474198577 68149.99999999999
    vertex 60681.12022616384 61135.70474198577 24564.213562373072
    vertex 60266.906663790745 61135.70474198577 24882.050807568852
  endloop
endfacet
facet normal -0.0 1.0 -0.0
  outer loop
    vertex 69266.90666379075 61135.70474198577 68149.99999999999
    vertex 60266.906663790745 61135.70474198577 24882.050807568852
    vertex 59784.5447539958 61135.70474198577 25081.851652578112
  endloop
endfacet
facet normal -0.0 1.0 -0.0
  outer loop
    vertex 69266.90666379075 61135.70474198577 68149.99999999999
    vertex 59784.5447539958 61135.70474198577 25081.851652578112
    vertex 59266.90666379075 61135.70474198577 25149.999999999975
  endloop
endfacet
facet normal -0.0 1.0 -0.0
  outer loop
    vertex 69266.90666379075 61135.70474198577 68149.99999999999
    vertex 59266.90666379075 61135.70474198577 25149.999999999975
    vertex 61198.75831636888 61135.70474198577 40632.36190979494
  endloop
endfacet
facet normal -0.0 1.0 -0.0
  outer loop
    vertex 61198.75831636888 61135.70474198577 40632.36190979494
    vertex 59266.90666379075 61135.70474198577 25149.999999999975
    vertex 60998.95747135963 61135.70474198577 40149.999999999985
  endloop
endfacet
facet normal -0.0 1.0 -0.0
  outer loop
    vertex 60998.95747135963 61135.70474198577 40149.999999999985
    vertex 59266.90666379075 61135.70474198577 25149.999999999975
    vertex 60681.12022616384 61135.70474198577 39735.786437626884
  endloop
endfacet
facet normal -0.0 1.0 -0.0
  outer loop
    vertex 60681.12022616384 61135.70474198577 39735.786437626884
    vertex 59266.90666379075 61135.70474198577 25149.999999999975
    vertex 60266.90666379075 61135.70474198577 39417.94919243111
  endloop
endfacet
facet normal -0.0 1.0 -0.0
  outer loop
    vertex 60266.90666379075 61135.70474198577 39417.94919243111
    vertex 59266.90666379075 61135.70474198577 25149.999999999975
    vertex 59784.5447539958 61135.70474198577 39218.14834742185
  endloop
endfacet
facet normal -0.0 1.0 -0.0
  outer loop
    vertex 59784.5447539958 61135.70474198577 39218.14834742185
    vertex 59266.90666379075 61135.70474198577 25149.999999999975
    vertex 59266.90666379075 61135.70474198577 39149.999999999985
  endloop
endfacet
facet normal -0.0 1.0 -0.0
  outer loop
    vertex 69266.90666379075 61135.70474198577 68149.99999999999
    vertex 61198.75831636888 61135.70474198577 40632.36190979494
    vertex 61266.906663790745 61135.70474198577 41149.99999999998
  endloop
endfacet
facet normal -0.0 1.0 -0.0
  outer loop
    vertex 69266.90666379075 61135.70474198577 68149.99999999999
    vertex 61266.906663790745 61135.70474198577 41149.99999999998
    vertex 61198.75831636888 61135.70474198577 41667.63809020502
  endloop
endfacet
facet normal -0.0 1.0 -0.0
  outer loop
    vertex 69266.90666379075 61135.70474198577 68149.99999999999
    vertex 61198.75831636888 61135.70474198577 41667.63809020502
    vertex 60998.95747135963 61135.70474198577 42149.99999999998
  endloop
endfacet
facet normal -0.0 1.0 -0.0
  outer loop
    vertex 69266.90666379075 61135.70474198577 68149.99999999999
    vertex 60998.95747135963 61135.70474198577 42149.99999999998
    vertex 60681.12022616384 61135.70474198577 42564.21356237307
  endloop
endfacet
facet normal -0.0 1.0 -0.0
  outer loop
    vertex 69266.90666379075 61135.70474198577 68149.99999999999
    vertex 60681.12022616384 61135.70474198577 42564.21356237307
    vertex 60266.906663790745 61135.70474198577 42882.050807568856
  endloop
endfacet
facet normal -0.0 1.0 -0.0
  outer loop
    vertex 69266.90666379075 61135.70474198577 68149.99999999999
    vertex 60266.906663790745 61135.70474198577 42882.050807568856
    vertex 59784.5447539958 61135.70474198577 43081.851652578116
  endloop
endfacet
facet normal -0.0 1.0 -0.0
  outer loop
    vertex 69266.90666379075 61135.70474198577 68149.99999999999
    vertex 59784.5447539958 61135.70474198577 43081.851652578116
    vertex 59266.90666379075 61135.70474198577 43149.99999999998
  endloop
endfacet
facet normal -0.0 1.0 -0.0
  outer loop
    vertex 69266.90666379075 61135.70474198577 68149.99999999999
    vertex 59266.90666379075 61135.70474198577 43149.99999999998
    vertex 60681.12022616384 61135.70474198577 57735.78643762689
  endloop
endfacet
facet normal -0.0 1.0 -0.0
  outer loop
    vertex 60681.12022616384 61135.70474198577 57735.78643762689
    vertex 59266.90666379075 61135.70474198577 43149.99999999998
    vertex 60266.90666379075 61135.70474198577 57417.94919243111
  endloop
endfacet
facet normal -0.0 1.0 -0.0
  outer loop
    vertex 60266.90666379075 61135.70474198577 57417.94919243111
    vertex 59266.90666379075 61135.70474198577 43149.99999999998
    vertex 59784.5447539958 61135.70474198577 57218.14834742185
  endloop
endfacet
facet normal -0.0 1.0 -0.0
  outer loop
    vertex 59784.5447539958 61135.70474198577 57218.14834742185
    vertex 59266.90666379075 61135.70474198577 43149.99999999998
    vertex 59266.90666379075 61135.70474198577 57149.999999999985
  endloop
endfacet
facet normal -0.0 1.0 -0.0
  outer loop
    vertex 69266.90666379075 61135.70474198577 68149.99999999999
    vertex 60681.12022616384 61135.70474198577 57735.78643762689
    vertex 60998.95747135963 61135.70474198577 58149.999999999985
  endloop
endfacet
facet normal -0.0 1.0 -0.0
  outer loop
    vertex 69266.90666379075 61135.70474198577 68149.99999999999
    vertex 60998.95747135963 61135.70474198577 58149.999999999985
    vertex 61198.75831636888 61135.70474198577 58632.36190979494
  endloop
endfacet
facet normal -0.0 1.0 -0.0
  outer loop
    vertex 69266.90666379075 61135.70474198577 68149.99999999999
    vertex 61198.75831636888 61135.70474198577 58632.36190979494
    vertex 61266.906663790745 61135.70474198577 59149.99999999998
  endloop
endfacet
facet normal -0.0 1.0 -0.0
  outer loop
    vertex 69266.90666379075 61135.70474198577 68149.99999999999
    vertex 61266.906663790745 61135.70474198577 59149.99999999998
    vertex 61198.75831636888 61135.70474198577 59667.63809020502
  endloop
endfacet
facet normal -0.0 1.0 -0.0
  outer loop
    vertex 69266.90666379075 61135.70474198577 68149.99999999999
    vertex 61198.75831636888 61135.70474198577 59667.63809020502
    vertex 60998.95747135963 61135.70474198577 60149.999999999985
  endloop
endfacet
facet normal -0.0 1.0 -0.0
  outer loop
    vertex 69266.90666379075 61135.70474198577 68149.99999999999
    vertex 60998.95747135963 61135.70474198577 60149.999999999985
    vertex 60681.12022616384 61135.70474198577 60564.21356237307
  endloop
endfacet
facet normal -0.0 1.0 -0.0
  outer loop
    vertex 69266.90666379075 61135.70474198577 68149.99999999999
    vertex 60681.12022616384 61135.70474198577 60564.21356237307
    vertex 60266.906663790745 61135.70474198577 60882.050807568856
  endloop
endfacet
facet normal -0.0 1.0 -0.0
  outer loop
    vertex 69266.90666379075 61135.70474198577 68149.99999999999
    vertex 60266.906663790745 61135.70474198577 60882.050807568856
    vertex 59784.5447539958 61135.70474198577 61081.85165257811
  endloop
endfacet
facet normal -0.0 1.0 -0.0
  outer loop
    vertex 69266.90666379075 61135.70474198577 68149.99999999999
    vertex 59784.5447539958 61135.70474198577 61081.85165257811
    vertex 59266.90666379075 61135.70474198577 61149.99999999998
  endloop
endfacet
facet normal -0.0 1.0 -0.0
  outer loop
    vertex 69266.90666379075 61135.70474198577 68149.99999999999
    vertex 59266.90666379075 61135.70474198577 61149.99999999998
    vertex 49266.906663790774 61135.70474198577 68149.99999999999
  endloop
endfacet
facet normal -0.0 1.0 -0.0
  outer loop
    vertex 14266.906663790742 96135.70474198577 10000.0
    vertex 104266.90666379068 96135.70474198577 5000.0
    vertex 14266.906663790742 96135.70474198577 5000.0
  endloop
endfacet
facet normal -0.0 1.0 -0.0
  outer loop
    vertex 104266.90666379068 96135.70474198577 5000.0
    vertex 14266.906663790742 96135.70474198577 10000.0
    vertex 104266.90666379068 96135.70474198577 10000.0
  endloop
endfacet
facet normal 0.0 -1.0 0.0
  outer loop
    vertex 104266.90666379068 6135.704741985767 10000.0
    vertex 14266.906663790742 6135.704741985767 5000.0
    vertex 104266.90666379068 6135.704741985767 5000.0
  endloop
endfacet
facet normal 0.0 -1.0 0.0
  outer loop
    vertex 14266.906663790742 6135.704741985767 5000.0
    vertex 104266.90666379068 6135.704741985767 10000.0
    vertex 14266.906663790742 6135.704741985767 10000.0
  endloop
endfacet
facet normal -1.0 0.0 0.0
  outer loop
    vertex 14266.906663790742 96135.70474198577 10000.0
    vertex 14266.906663790742 6135.704741985767 5000.0
    vertex 14266.906663790742 6135.704741985767 10000.0
  endloop
endfacet
facet normal -1.0 0.0 0.0
  outer loop
    vertex 14266.906663790742 6135.704741985767 5000.0
    vertex 14266.906663790742 96135.70474198577 10000.0
    vertex 14266.906663790742 96135.70474198577 5000.0
  endloop
endfacet
facet normal -1.0 0.0 0.0
  outer loop
    vertex 49266.906663790774 61135.70474198577 68149.99999999999
    vertex 49266.906663790774 41135.70474198576 9999.999999999998
    vertex 49266.906663790774 41135.70474198576 68149.99999999999
  endloop
endfacet
facet normal -1.0 0.0 0.0
  outer loop
    vertex 49266.906663790774 41135.70474198576 9999.999999999998
    vertex 49266.906663790774 61135.70474198577 68149.99999999999
    vertex 49266.906663790774 61135.70474198577 9999.999999999998
  endloop
endfacet
facet normal 0.0 0.0 -1.0
  outer loop
    vertex 104266.90666379068 96135.70474198577 5000.0
    vertex 14266.906663790742 6135.704741985767 5000.0
    vertex 14266.906663790742 96135.70474198577 5000.0
  endloop
endfacet
facet normal 0.0 0.0 -1.0
  outer loop
    vertex 14266.906663790742 6135.704741985767 5000.0
    vertex 104266.90666379068 96135.70474198577 5000.0
    vertex 104266.90666379068 6135.704741985767 5000.0
  endloop
endfacet
facet normal -0.0 -0.0 1.0
  outer loop
    vertex 14266.906663790742 6135.704741985767 10000.0
    vertex 49266.906663790774 41135.70474198576 9999.999999999998
    vertex 14266.906663790742 96135.70474198577 10000.0
  endloop
endfacet
facet normal -0.0 -0.0 1.0
  outer loop
    vertex 49266.906663790774 41135.70474198576 9999.999999999998
    vertex 14266.906663790742 6135.704741985767 10000.0
    vertex 104266.90666379068 6135.704741985767 10000.0
  endloop
endfacet
facet normal -0.0 -0.0 1.0
  outer loop
    vertex 49266.906663790774 41135.70474198576 9999.999999999998
    vertex 104266.90666379068 6135.704741985767 10000.0
    vertex 69266.90666379075 41135.70474198576 9999.999999999998
  endloop
endfacet
facet normal -0.0 -0.0 1.0
  outer loop
    vertex 69266.90666379075 41135.70474198576 9999.999999999998
    vertex 104266.90666379068 6135.704741985767 10000.0
    vertex 69266.90666379075 61135.70474198577 9999.999999999998
  endloop
endfacet
facet normal -0.0 -0.0 1.0
  outer loop
    vertex 14266.906663790742 96135.70474198577 10000.0
    vertex 49266.906663790774 61135.70474198577 9999.999999999998
    vertex 104266.90666379068 96135.70474198577 10000.0
  endloop
endfacet
facet normal -0.0 -0.0 1.0
  outer loop
    vertex 49266.906663790774 61135.70474198577 9999.999999999998
    vertex 14266.906663790742 96135.70474198577 10000.0
    vertex 49266.906663790774 41135.70474198576 9999.999999999998
  endloop
endfacet
facet normal -0.0 -0.0 1.0
  outer loop
    vertex 104266.90666379068 96135.70474198577 10000.0
    vertex 49266.906663790774 61135.70474198577 9999.999999999998
    vertex 69266.90666379075 61135.70474198577 9999.999999999998
  endloop
endfacet
facet normal -0.0 -0.0 1.0
  outer loop
    vertex 104266.90666379068 96135.70474198577 10000.0
    vertex 69266.90666379075 61135.70474198577 9999.999999999998
    vertex 104266.90666379068 6135.704741985767 10000.0
  endloop
endfacet
facet normal 1.0 -0.0 -0.0
  outer loop
    vertex 104266.90666379068 96135.70474198577 5000.0
    vertex 104266.90666379068 6135.704741985767 10000.0
    vertex 104266.90666379068 6135.704741985767 5000.0
  endloop
endfacet
facet normal 1.0 -0.0 -0.0
  outer loop
    vertex 104266.90666379068 6135.704741985767 10000.0
    vertex 104266.90666379068 96135.70474198577 5000.0
    vertex 104266.90666379068 96135.70474198577 10000.0
  endloop
endfacet
facet normal -0.0 -0.0 1.0
  outer loop
    vertex 59266.90666379075 41135.70474198576 68149.99999999999
    vertex 49266.906663790774 61135.70474198577 68149.99999999999
    vertex 49266.906663790774 41135.70474198576 68149.99999999999
  endloop
endfacet
facet normal -0.0 -0.0 1.0
  outer loop
    vertex 49266.906663790774 61135.70474198577 68149.99999999999
    vertex 59266.90666379075 41135.70474198576 68149.99999999999
    vertex 69266.90666379075 61135.70474198577 68149.99999999999
  endloop
endfacet
facet normal -0.0 -0.0 1.0
  outer loop
    vertex 69266.90666379075 61135.70474198577 68149.99999999999
    vertex 59266.90666379075 41135.70474198576 68149.99999999999
    vertex 69266.90666379075 41135.70474198576 68149.99999999999
  endloop
endfacet
facet normal -0.6087614290087332 -0.0 0.7933533402912255
  outer loop
    vertex 60681.12022616384 41135.70474198576 21735.786437626888
    vertex 60266.90666379075 61135.70474198577 21417.949192431104
    vertex 60266.90666379075 41135.70474198576 21417.949192431104
  endloop
endfacet
facet normal -0.6087614290087332 -0.0 0.7933533402912255
  outer loop
    vertex 60266.90666379075 61135.70474198577 21417.949192431104
    vertex 60681.12022616384 41135.70474198576 21735.786437626888
    vertex 60681.12022616384 61135.70474198577 21735.786437626888
  endloop
endfacet
facet normal 0.13052619222005585 0.0 0.9914448613738099
  outer loop
    vertex 59266.90666379075 41135.70474198576 39149.999999999985
    vertex 58749.26857358571 61135.70474198577 39218.14834742185
    vertex 58749.26857358571 41135.70474198576 39218.14834742185
  endloop
endfacet
facet normal 0.13052619222005585 0.0 0.9914448613738099
  outer loop
    vertex 58749.26857358571 61135.70474198577 39218.14834742185
    vertex 59266.90666379075 41135.70474198576 39149.999999999985
    vertex 59266.90666379075 61135.70474198577 39149.999999999985
  endloop
endfacet
facet normal 0.9914448613738099 -0.0 -0.13052619222005585
  outer loop
    vertex 57266.90666379076 61135.70474198577 59149.99999999998
    vertex 57335.05501121262 41135.70474198576 59667.63809020502
    vertex 57266.90666379076 41135.70474198576 59149.99999999998
  endloop
endfacet
facet normal 0.9914448613738099 -0.0 -0.13052619222005585
  outer loop
    vertex 57335.05501121262 41135.70474198576 59667.63809020502
    vertex 57266.90666379076 61135.70474198577 59149.99999999998
    vertex 57335.05501121262 61135.70474198577 59667.63809020502
  endloop
endfacet
facet normal 0.9238795325112906 0.0 0.3826834323650805
  outer loop
    vertex 57534.855856221875 61135.70474198577 58149.99999999998
    vertex 57335.05501121262 41135.70474198576 58632.36190979494
    vertex 57534.855856221875 41135.70474198576 58149.99999999998
  endloop
endfacet
facet normal 0.9238795325112906 0.0 0.3826834323650805
  outer loop
    vertex 57335.05501121262 41135.70474198576 58632.36190979494
    vertex 57534.855856221875 61135.70474198577 58149.99999999998
    vertex 57335.05501121262 61135.70474198577 58632.36190979494
  endloop
endfacet
facet normal -0.13052619222005585 -0.0 0.9914448613738099
  outer loop
    vertex 59784.5447539958 41135.70474198576 57218.14834742185
    vertex 59266.90666379075 61135.70474198577 57149.999999999985
    vertex 59266.90666379075 41135.70474198576 57149.999999999985
  endloop
endfacet
facet normal -0.13052619222005585 -0.0 0.9914448613738099
  outer loop
    vertex 59266.90666379075 61135.70474198577 57149.999999999985
    vertex 59784.5447539958 41135.70474198576 57218.14834742185
    vertex 59784.5447539958 61135.70474198577 57218.14834742185
  endloop
endfacet
facet normal -0.3826834323650805 -0.0 0.9238795325112906
  outer loop
    vertex 60266.90666379075 41135.70474198576 39417.94919243111
    vertex 59784.5447539958 61135.70474198577 39218.14834742185
    vertex 59784.5447539958 41135.70474198576 39218.14834742185
  endloop
endfacet
facet normal -0.3826834323650805 -0.0 0.9238795325112906
  outer loop
    vertex 59784.5447539958 61135.70474198577 39218.14834742185
    vertex 60266.90666379075 41135.70474198576 39417.94919243111
    vertex 60266.90666379075 61135.70474198577 39417.94919243111
  endloop
endfacet
facet normal -0.6087614290087298 -0.0 0.7933533402912282
  outer loop
    vertex 60681.12022616384 41135.70474198576 39735.786437626884
    vertex 60266.90666379075 61135.70474198577 39417.94919243111
    vertex 60266.90666379075 41135.70474198576 39417.94919243111
  endloop
endfacet
facet normal -0.6087614290087298 -0.0 0.7933533402912282
  outer loop
    vertex 60266.90666379075 61135.70474198577 39417.94919243111
    vertex 60681.12022616384 41135.70474198576 39735.786437626884
    vertex 60681.12022616384 61135.70474198577 39735.786437626884
  endloop
endfacet
facet normal -0.7933533402912312 -0.0 0.6087614290087261
  outer loop
    vertex 60998.95747135963 61135.70474198577 40149.999999999985
    vertex 60681.12022616384 41135.70474198576 39735.786437626884
    vertex 60998.95747135963 41135.70474198576 40149.999999999985
  endloop
endfacet
facet normal -0.7933533402912312 -0.0 0.6087614290087261
  outer loop
    vertex 60681.12022616384 41135.70474198576 39735.786437626884
    vertex 60998.95747135963 61135.70474198577 40149.999999999985
    vertex 60681.12022616384 61135.70474198577 39735.786437626884
  endloop
endfacet
facet normal -0.9238795325112891 -0.0 0.3826834323650845
  outer loop
    vertex 61198.75831636888 61135.70474198577 40632.36190979494
    vertex 60998.95747135963 41135.70474198576 40149.999999999985
    vertex 61198.75831636888 41135.70474198576 40632.36190979494
  endloop
endfacet
facet normal -0.9238795325112891 -0.0 0.3826834323650845
  outer loop
    vertex 60998.95747135963 41135.70474198576 40149.999999999985
    vertex 61198.75831636888 61135.70474198577 40632.36190979494
    vertex 60998.95747135963 61135.70474198577 40149.999999999985
  endloop
endfacet
facet normal -0.3826834323650931 -0.0 -0.9238795325112855
  outer loop
    vertex 60266.906663790745 61135.70474198577 24882.050807568852
    vertex 59784.5447539958 41135.70474198576 25081.851652578112
    vertex 59784.5447539958 61135.70474198577 25081.851652578112
  endloop
endfacet
facet normal -0.3826834323650931 -0.0 -0.9238795325112855
  outer loop
    vertex 59784.5447539958 41135.70474198576 25081.851652578112
    vertex 60266.906663790745 61135.70474198577 24882.050807568852
    vertex 60266.906663790745 41135.70474198576 24882.050807568852
  endloop
endfacet
facet normal 0.793353340291229 -0.0 -0.6087614290087288
  outer loop
    vertex 57534.855856221875 61135.70474198577 24149.999999999978
    vertex 57852.693101417666 41135.70474198576 24564.21356237307
    vertex 57534.855856221875 41135.70474198576 24149.999999999978
  endloop
endfacet
facet normal 0.793353340291229 -0.0 -0.6087614290087288
  outer loop
    vertex 57852.693101417666 41135.70474198576 24564.21356237307
    vertex 57534.855856221875 61135.70474198577 24149.999999999978
    vertex 57852.693101417666 61135.70474198577 24564.21356237307
  endloop
endfacet
facet normal -0.9914448613738099 -0.0 0.13052619222005585
  outer loop
    vertex 61266.906663790745 61135.70474198577 41149.99999999998
    vertex 61198.75831636888 41135.70474198576 40632.36190979494
    vertex 61266.906663790745 41135.70474198576 41149.99999999998
  endloop
endfacet
facet normal -0.9914448613738099 -0.0 0.13052619222005585
  outer loop
    vertex 61198.75831636888 41135.70474198576 40632.36190979494
    vertex 61266.906663790745 61135.70474198577 41149.99999999998
    vertex 61198.75831636888 61135.70474198577 40632.36190979494
  endloop
endfacet
facet normal -0.9914448613738099 -0.0 -0.13052619222005585
  outer loop
    vertex 61198.75831636888 61135.70474198577 23667.638090205022
    vertex 61266.906663790745 41135.70474198576 23149.999999999978
    vertex 61198.75831636888 41135.70474198576 23667.638090205022
  endloop
endfacet
facet normal -0.9914448613738099 -0.0 -0.13052619222005585
  outer loop
    vertex 61266.906663790745 41135.70474198576 23149.999999999978
    vertex 61198.75831636888 61135.70474198577 23667.638090205022
    vertex 61266.906663790745 61135.70474198577 23149.999999999978
  endloop
endfacet
facet normal 0.9914448613738099 0.0 0.13052619222005585
  outer loop
    vertex 57335.05501121262 61135.70474198577 22632.361909794938
    vertex 57266.90666379076 41135.70474198576 23149.999999999978
    vertex 57335.05501121262 41135.70474198576 22632.361909794938
  endloop
endfacet
facet normal 0.9914448613738099 0.0 0.13052619222005585
  outer loop
    vertex 57266.90666379076 41135.70474198576 23149.999999999978
    vertex 57335.05501121262 61135.70474198577 22632.361909794938
    vertex 57266.90666379076 61135.70474198577 23149.999999999978
  endloop
endfacet
facet normal 0.9914448613738099 0.0 0.13052619222005585
  outer loop
    vertex 57335.05501121262 61135.70474198577 58632.36190979494
    vertex 57266.90666379076 41135.70474198576 59149.99999999998
    vertex 57335.05501121262 41135.70474198576 58632.36190979494
  endloop
endfacet
facet normal 0.9914448613738099 0.0 0.13052619222005585
  outer loop
    vertex 57266.90666379076 41135.70474198576 59149.99999999998
    vertex 57335.05501121262 61135.70474198577 58632.36190979494
    vertex 57266.90666379076 61135.70474198577 59149.99999999998
  endloop
endfacet
facet normal 0.7933533402912312 0.0 0.6087614290087261
  outer loop
    vertex 57852.693101417666 61135.70474198577 21735.786437626884
    vertex 57534.855856221875 41135.70474198576 22149.99999999998
    vertex 57852.693101417666 41135.70474198576 21735.786437626884
  endloop
endfacet
facet normal 0.7933533402912312 0.0 0.6087614290087261
  outer loop
    vertex 57534.855856221875 41135.70474198576 22149.99999999998
    vertex 57852.693101417666 61135.70474198577 21735.786437626884
    vertex 57534.855856221875 61135.70474198577 22149.99999999998
  endloop
endfacet
facet normal -0.3826834323650805 -0.0 0.9238795325112906
  outer loop
    vertex 60266.90666379075 41135.70474198576 57417.94919243111
    vertex 59784.5447539958 61135.70474198577 57218.14834742185
    vertex 59784.5447539958 41135.70474198576 57218.14834742185
  endloop
endfacet
facet normal -0.3826834323650805 -0.0 0.9238795325112906
  outer loop
    vertex 59784.5447539958 61135.70474198577 57218.14834742185
    vertex 60266.90666379075 41135.70474198576 57417.94919243111
    vertex 60266.90666379075 61135.70474198577 57417.94919243111
  endloop
endfacet
facet normal -0.6087614290087368 -0.0 0.7933533402912228
  outer loop
    vertex 60681.12022616384 41135.70474198576 57735.78643762689
    vertex 60266.90666379075 61135.70474198577 57417.94919243111
    vertex 60266.90666379075 41135.70474198576 57417.94919243111
  endloop
endfacet
facet normal -0.6087614290087368 -0.0 0.7933533402912228
  outer loop
    vertex 60266.90666379075 61135.70474198577 57417.94919243111
    vertex 60681.12022616384 41135.70474198576 57735.78643762689
    vertex 60681.12022616384 61135.70474198577 57735.78643762689
  endloop
endfacet
facet normal -0.9914448613738099 -0.0 0.13052619222005657
  outer loop
    vertex 61266.906663790745 61135.70474198577 23149.999999999978
    vertex 61198.75831636888 41135.70474198576 22632.36190979494
    vertex 61266.906663790745 41135.70474198576 23149.999999999978
  endloop
endfacet
facet normal -0.9914448613738099 -0.0 0.13052619222005657
  outer loop
    vertex 61198.75831636888 41135.70474198576 22632.36190979494
    vertex 61266.906663790745 61135.70474198577 23149.999999999978
    vertex 61198.75831636888 61135.70474198577 22632.36190979494
  endloop
endfacet
facet normal 0.6087614290087191 0.0 0.7933533402912365
  outer loop
    vertex 58266.90666379076 41135.70474198576 21417.949192431104
    vertex 57852.693101417666 61135.70474198577 21735.786437626884
    vertex 57852.693101417666 41135.70474198576 21735.786437626884
  endloop
endfacet
facet normal 0.6087614290087191 0.0 0.7933533402912365
  outer loop
    vertex 57852.693101417666 61135.70474198577 21735.786437626884
    vertex 58266.90666379076 41135.70474198576 21417.949192431104
    vertex 58266.90666379076 61135.70474198577 21417.949192431104
  endloop
endfacet
facet normal 0.1305261922200504 -0.0 -0.9914448613738106
  outer loop
    vertex 59266.90666379075 61135.70474198577 25149.999999999975
    vertex 58749.26857358571 41135.70474198576 25081.851652578112
    vertex 58749.26857358571 61135.70474198577 25081.851652578112
  endloop
endfacet
facet normal 0.1305261922200504 -0.0 -0.9914448613738106
  outer loop
    vertex 58749.26857358571 41135.70474198576 25081.851652578112
    vertex 59266.90666379075 61135.70474198577 25149.999999999975
    vertex 59266.90666379075 41135.70474198576 25149.999999999975
  endloop
endfacet
facet normal 0.3826834323650884 0.0 0.9238795325112875
  outer loop
    vertex 58749.26857358571 41135.70474198576 57218.14834742185
    vertex 58266.90666379076 61135.70474198577 57417.94919243111
    vertex 58266.90666379076 41135.70474198576 57417.94919243111
  endloop
endfacet
facet normal 0.3826834323650884 0.0 0.9238795325112875
  outer loop
    vertex 58266.90666379076 61135.70474198577 57417.94919243111
    vertex 58749.26857358571 41135.70474198576 57218.14834742185
    vertex 58749.26857358571 61135.70474198577 57218.14834742185
  endloop
endfacet
facet normal -0.9238795325112891 -0.0 -0.3826834323650845
  outer loop
    vertex 60998.95747135963 61135.70474198577 24149.999999999978
    vertex 61198.75831636888 41135.70474198576 23667.638090205022
    vertex 60998.95747135963 41135.70474198576 24149.999999999978
  endloop
endfacet
facet normal -0.9238795325112891 -0.0 -0.3826834323650845
  outer loop
    vertex 61198.75831636888 41135.70474198576 23667.638090205022
    vertex 60998.95747135963 61135.70474198577 24149.999999999978
    vertex 61198.75831636888 61135.70474198577 23667.638090205022
  endloop
endfacet
facet normal 0.6087614290087191 0.0 0.7933533402912365
  outer loop
    vertex 58266.90666379076 41135.70474198576 39417.94919243111
    vertex 57852.693101417666 61135.70474198577 39735.786437626884
    vertex 57852.693101417666 41135.70474198576 39735.786437626884
  endloop
endfacet
facet normal 0.6087614290087191 0.0 0.7933533402912365
  outer loop
    vertex 57852.693101417666 61135.70474198577 39735.786437626884
    vertex 58266.90666379076 41135.70474198576 39417.94919243111
    vertex 58266.90666379076 61135.70474198577 39417.94919243111
  endloop
endfacet
facet normal -0.7933533402912312 -0.0 -0.6087614290087261
  outer loop
    vertex 60681.12022616384 61135.70474198577 24564.213562373072
    vertex 60998.95747135963 41135.70474198576 24149.999999999978
    vertex 60681.12022616384 41135.70474198576 24564.213562373072
  endloop
endfacet
facet normal -0.7933533402912312 -0.0 -0.6087614290087261
  outer loop
    vertex 60998.95747135963 41135.70474198576 24149.999999999978
    vertex 60681.12022616384 61135.70474198577 24564.213562373072
    vertex 60998.95747135963 61135.70474198577 24149.999999999978
  endloop
endfacet
facet normal 0.9238795325112898 -0.0 -0.38268343236508245
  outer loop
    vertex 57335.05501121262 61135.70474198577 23667.63809020502
    vertex 57534.855856221875 41135.70474198576 24149.999999999978
    vertex 57335.05501121262 41135.70474198576 23667.63809020502
  endloop
endfacet
facet normal 0.9238795325112898 -0.0 -0.38268343236508245
  outer loop
    vertex 57534.855856221875 41135.70474198576 24149.999999999978
    vertex 57335.05501121262 61135.70474198577 23667.63809020502
    vertex 57534.855856221875 61135.70474198577 24149.999999999978
  endloop
endfacet
facet normal 0.9238795325112891 0.0 0.3826834323650845
  outer loop
    vertex 57534.855856221875 61135.70474198577 22149.99999999998
    vertex 57335.05501121262 41135.70474198576 22632.361909794938
    vertex 57534.855856221875 41135.70474198576 22149.99999999998
  endloop
endfacet
facet normal 0.9238795325112891 0.0 0.3826834323650845
  outer loop
    vertex 57335.05501121262 41135.70474198576 22632.361909794938
    vertex 57534.855856221875 61135.70474198577 22149.99999999998
    vertex 57335.05501121262 61135.70474198577 22632.361909794938
  endloop
endfacet
facet normal 0.3826834323650931 0.0 0.9238795325112855
  outer loop
    vertex 58749.26857358571 41135.70474198576 21218.148347421848
    vertex 58266.90666379076 61135.70474198577 21417.949192431104
    vertex 58266.90666379076 41135.70474198576 21417.949192431104
  endloop
endfacet
facet normal 0.3826834323650931 0.0 0.9238795325112855
  outer loop
    vertex 58266.90666379076 61135.70474198577 21417.949192431104
    vertex 58749.26857358571 41135.70474198576 21218.148347421848
    vertex 58749.26857358571 61135.70474198577 21218.148347421848
  endloop
endfacet
facet normal 0.1305261922200504 0.0 0.9914448613738106
  outer loop
    vertex 59266.90666379075 41135.70474198576 21149.99999999998
    vertex 58749.26857358571 61135.70474198577 21218.148347421848
    vertex 58749.26857358571 41135.70474198576 21218.148347421848
  endloop
endfacet
facet normal 0.1305261922200504 0.0 0.9914448613738106
  outer loop
    vertex 58749.26857358571 61135.70474198577 21218.148347421848
    vertex 59266.90666379075 41135.70474198576 21149.99999999998
    vertex 59266.90666379075 61135.70474198577 21149.99999999998
  endloop
endfacet
facet normal 0.9914448613738099 -0.0 -0.13052619222005657
  outer loop
    vertex 57266.90666379076 61135.70474198577 23149.999999999978
    vertex 57335.05501121262 41135.70474198576 23667.63809020502
    vertex 57266.90666379076 41135.70474198576 23149.999999999978
  endloop
endfacet
facet normal 0.9914448613738099 -0.0 -0.13052619222005657
  outer loop
    vertex 57335.05501121262 41135.70474198576 23667.63809020502
    vertex 57266.90666379076 61135.70474198577 23149.999999999978
    vertex 57335.05501121262 61135.70474198577 23667.63809020502
  endloop
endfacet
facet normal -0.38268343236508523 -0.0 0.9238795325112886
  outer loop
    vertex 60266.90666379075 41135.70474198576 21417.949192431104
    vertex 59784.5447539958 61135.70474198577 21218.148347421848
    vertex 59784.5447539958 41135.70474198576 21218.148347421848
  endloop
endfacet
facet normal -0.38268343236508523 -0.0 0.9238795325112886
  outer loop
    vertex 59784.5447539958 61135.70474198577 21218.148347421848
    vertex 60266.90666379075 41135.70474198576 21417.949192431104
    vertex 60266.90666379075 61135.70474198577 21417.949192431104
  endloop
endfacet
facet normal -0.793353340291229 -0.0 0.6087614290087288
  outer loop
    vertex 60998.95747135963 61135.70474198577 22149.99999999998
    vertex 60681.12022616384 41135.70474198576 21735.786437626888
    vertex 60998.95747135963 41135.70474198576 22149.99999999998
  endloop
endfacet
facet normal -0.793353340291229 -0.0 0.6087614290087288
  outer loop
    vertex 60681.12022616384 41135.70474198576 21735.786437626888
    vertex 60998.95747135963 61135.70474198577 22149.99999999998
    vertex 60681.12022616384 61135.70474198577 21735.786437626888
  endloop
endfacet
facet normal -0.13052619222005585 -0.0 0.9914448613738099
  outer loop
    vertex 59784.5447539958 41135.70474198576 39218.14834742185
    vertex 59266.90666379075 61135.70474198577 39149.999999999985
    vertex 59266.90666379075 41135.70474198576 39149.999999999985
  endloop
endfacet
facet normal -0.13052619222005585 -0.0 0.9914448613738099
  outer loop
    vertex 59266.90666379075 61135.70474198577 39149.999999999985
    vertex 59784.5447539958 41135.70474198576 39218.14834742185
    vertex 59784.5447539958 61135.70474198577 39218.14834742185
  endloop
endfacet
facet normal 0.6087614290087298 -0.0 -0.7933533402912282
  outer loop
    vertex 58266.906663790745 61135.70474198577 24882.050807568852
    vertex 57852.693101417666 41135.70474198576 24564.21356237307
    vertex 57852.693101417666 61135.70474198577 24564.21356237307
  endloop
endfacet
facet normal 0.6087614290087298 -0.0 -0.7933533402912282
  outer loop
    vertex 57852.693101417666 41135.70474198576 24564.21356237307
    vertex 58266.906663790745 61135.70474198577 24882.050807568852
    vertex 58266.906663790745 41135.70474198576 24882.050807568852
  endloop
endfacet
facet normal -0.9238795325112898 -0.0 0.38268343236508245
  outer loop
    vertex 61198.75831636888 61135.70474198577 22632.36190979494
    vertex 60998.95747135963 41135.70474198576 22149.99999999998
    vertex 61198.75831636888 41135.70474198576 22632.36190979494
  endloop
endfacet
facet normal -0.9238795325112898 -0.0 0.38268343236508245
  outer loop
    vertex 60998.95747135963 41135.70474198576 22149.99999999998
    vertex 61198.75831636888 61135.70474198577 22632.36190979494
    vertex 60998.95747135963 61135.70474198577 22149.99999999998
  endloop
endfacet
facet normal 0.9238795325112875 -0.0 -0.3826834323650884
  outer loop
    vertex 57335.05501121262 61135.70474198577 59667.63809020502
    vertex 57534.855856221875 41135.70474198576 60149.99999999997
    vertex 57335.05501121262 41135.70474198576 59667.63809020502
  endloop
endfacet
facet normal 0.9238795325112875 -0.0 -0.3826834323650884
  outer loop
    vertex 57534.855856221875 41135.70474198576 60149.99999999997
    vertex 57335.05501121262 61135.70474198577 59667.63809020502
    vertex 57534.855856221875 61135.70474198577 60149.99999999997
  endloop
endfacet
facet normal -0.6087614290087191 -0.0 -0.7933533402912365
  outer loop
    vertex 60681.12022616384 61135.70474198577 24564.213562373072
    vertex 60266.906663790745 41135.70474198576 24882.050807568852
    vertex 60266.906663790745 61135.70474198577 24882.050807568852
  endloop
endfacet
facet normal -0.6087614290087191 -0.0 -0.7933533402912365
  outer loop
    vertex 60266.906663790745 41135.70474198576 24882.050807568852
    vertex 60681.12022616384 61135.70474198577 24564.213562373072
    vertex 60681.12022616384 41135.70474198576 24564.213562373072
  endloop
endfacet
facet normal 0.7933533402912228 0.0 0.6087614290087368
  outer loop
    vertex 57852.693101417666 61135.70474198577 57735.78643762689
    vertex 57534.855856221875 41135.70474198576 58149.99999999998
    vertex 57852.693101417666 41135.70474198576 57735.78643762689
  endloop
endfacet
facet normal 0.7933533402912228 0.0 0.6087614290087368
  outer loop
    vertex 57534.855856221875 41135.70474198576 58149.99999999998
    vertex 57852.693101417666 61135.70474198577 57735.78643762689
    vertex 57534.855856221875 61135.70474198577 58149.99999999998
  endloop
endfacet
facet normal -0.1305261922200504 -0.0 0.9914448613738106
  outer loop
    vertex 59784.5447539958 41135.70474198576 21218.148347421848
    vertex 59266.90666379075 61135.70474198577 21149.99999999998
    vertex 59266.90666379075 41135.70474198576 21149.99999999998
  endloop
endfacet
facet normal -0.1305261922200504 -0.0 0.9914448613738106
  outer loop
    vertex 59266.90666379075 61135.70474198577 21149.99999999998
    vertex 59784.5447539958 41135.70474198576 21218.148347421848
    vertex 59784.5447539958 61135.70474198577 21218.148347421848
  endloop
endfacet
facet normal 0.38268343236508995 -0.0 -0.9238795325112867
  outer loop
    vertex 58749.26857358571 61135.70474198577 25081.851652578112
    vertex 58266.906663790745 41135.70474198576 24882.050807568852
    vertex 58266.906663790745 61135.70474198577 24882.050807568852
  endloop
endfacet
facet normal 0.38268343236508995 -0.0 -0.9238795325112867
  outer loop
    vertex 58266.906663790745 41135.70474198576 24882.050807568852
    vertex 58749.26857358571 61135.70474198577 25081.851652578112
    vertex 58749.26857358571 41135.70474198576 25081.851652578112
  endloop
endfacet
facet normal 0.6087614290087261 0.0 0.7933533402912312
  outer loop
    vertex 58266.90666379076 41135.70474198576 57417.94919243111
    vertex 57852.693101417666 61135.70474198577 57735.78643762689
    vertex 57852.693101417666 41135.70474198576 57735.78643762689
  endloop
endfacet
facet normal 0.6087614290087261 0.0 0.7933533402912312
  outer loop
    vertex 57852.693101417666 61135.70474198577 57735.78643762689
    vertex 58266.90666379076 41135.70474198576 57417.94919243111
    vertex 58266.90666379076 61135.70474198577 57417.94919243111
  endloop
endfacet
facet normal 0.13052619222005585 0.0 0.9914448613738099
  outer loop
    vertex 59266.90666379075 41135.70474198576 57149.999999999985
    vertex 58749.26857358571 61135.70474198577 57218.14834742185
    vertex 58749.26857358571 41135.70474198576 57218.14834742185
  endloop
endfacet
facet normal 0.13052619222005585 0.0 0.9914448613738099
  outer loop
    vertex 58749.26857358571 61135.70474198577 57218.14834742185
    vertex 59266.90666379075 41135.70474198576 57149.999999999985
    vertex 59266.90666379075 61135.70474198577 57149.999999999985
  endloop
endfacet
facet normal -0.1305261922200504 -0.0 -0.9914448613738106
  outer loop
    vertex 59784.5447539958 61135.70474198577 25081.851652578112
    vertex 59266.90666379075 41135.70474198576 25149.999999999975
    vertex 59266.90666379075 61135.70474198577 25149.999999999975
  endloop
endfacet
facet normal -0.1305261922200504 -0.0 -0.9914448613738106
  outer loop
    vertex 59266.90666379075 41135.70474198576 25149.999999999975
    vertex 59784.5447539958 61135.70474198577 25081.851652578112
    vertex 59784.5447539958 41135.70474198576 25081.851652578112
  endloop
endfacet
facet normal 0.3826834323650884 0.0 0.9238795325112875
  outer loop
    vertex 58749.26857358571 41135.70474198576 39218.14834742185
    vertex 58266.90666379076 61135.70474198577 39417.94919243111
    vertex 58266.90666379076 41135.70474198576 39417.94919243111
  endloop
endfacet
facet normal 0.3826834323650884 0.0 0.9238795325112875
  outer loop
    vertex 58266.90666379076 61135.70474198577 39417.94919243111
    vertex 58749.26857358571 41135.70474198576 39218.14834742185
    vertex 58749.26857358571 61135.70474198577 39218.14834742185
  endloop
endfacet
facet normal -0.9914448613738099 -0.0 -0.13052619222005585
  outer loop
    vertex 61198.75831636888 61135.70474198577 41667.63809020502
    vertex 61266.906663790745 41135.70474198576 41149.99999999998
    vertex 61198.75831636888 41135.70474198576 41667.63809020502
  endloop
endfacet
facet normal -0.9914448613738099 -0.0 -0.13052619222005585
  outer loop
    vertex 61266.906663790745 41135.70474198576 41149.99999999998
    vertex 61198.75831636888 61135.70474198577 41667.63809020502
    vertex 61266.906663790745 61135.70474198577 41149.99999999998
  endloop
endfacet
facet normal -0.9238795325112875 -0.0 0.3826834323650884
  outer loop
    vertex 61198.75831636888 61135.70474198577 58632.36190979494
    vertex 60998.95747135963 41135.70474198576 58149.999999999985
    vertex 61198.75831636888 41135.70474198576 58632.36190979494
  endloop
endfacet
facet normal -0.9238795325112875 -0.0 0.3826834323650884
  outer loop
    vertex 60998.95747135963 41135.70474198576 58149.999999999985
    vertex 61198.75831636888 61135.70474198577 58632.36190979494
    vertex 60998.95747135963 61135.70474198577 58149.999999999985
  endloop
endfacet
facet normal -0.13052619222005585 -0.0 -0.9914448613738099
  outer loop
    vertex 59784.5447539958 61135.70474198577 61081.85165257811
    vertex 59266.90666379075 41135.70474198576 61149.99999999998
    vertex 59266.90666379075 61135.70474198577 61149.99999999998
  endloop
endfacet
facet normal -0.13052619222005585 -0.0 -0.9914448613738099
  outer loop
    vertex 59266.90666379075 41135.70474198576 61149.99999999998
    vertex 59784.5447539958 61135.70474198577 61081.85165257811
    vertex 59784.5447539958 41135.70474198576 61081.85165257811
  endloop
endfacet
facet normal 0.9238795325112891 -0.0 -0.3826834323650845
  outer loop
    vertex 57335.05501121262 61135.70474198577 41667.63809020502
    vertex 57534.855856221875 41135.70474198576 42149.99999999998
    vertex 57335.05501121262 41135.70474198576 41667.63809020502
  endloop
endfacet
facet normal 0.9238795325112891 -0.0 -0.3826834323650845
  outer loop
    vertex 57534.855856221875 41135.70474198576 42149.99999999998
    vertex 57335.05501121262 61135.70474198577 41667.63809020502
    vertex 57534.855856221875 61135.70474198577 42149.99999999998
  endloop
endfacet
facet normal -0.3826834323650978 -0.0 -0.9238795325112835
  outer loop
    vertex 60266.906663790745 61135.70474198577 42882.050807568856
    vertex 59784.5447539958 41135.70474198576 43081.851652578116
    vertex 59784.5447539958 61135.70474198577 43081.851652578116
  endloop
endfacet
facet normal -0.3826834323650978 -0.0 -0.9238795325112835
  outer loop
    vertex 59784.5447539958 41135.70474198576 43081.851652578116
    vertex 60266.906663790745 61135.70474198577 42882.050807568856
    vertex 60266.906663790745 41135.70474198576 42882.050807568856
  endloop
endfacet
facet normal -0.13052619222004497 -0.0 -0.9914448613738113
  outer loop
    vertex 59784.5447539958 61135.70474198577 43081.851652578116
    vertex 59266.90666379075 41135.70474198576 43149.99999999998
    vertex 59266.90666379075 61135.70474198577 43149.99999999998
  endloop
endfacet
facet normal -0.13052619222004497 -0.0 -0.9914448613738113
  outer loop
    vertex 59266.90666379075 41135.70474198576 43149.99999999998
    vertex 59784.5447539958 61135.70474198577 43081.851652578116
    vertex 59784.5447539958 41135.70474198576 43081.851652578116
  endloop
endfacet
facet normal 0.13052619222005585 -0.0 -0.9914448613738099
  outer loop
    vertex 59266.90666379075 61135.70474198577 43149.99999999998
    vertex 58749.26857358571 41135.70474198576 43081.85165257811
    vertex 58749.26857358571 61135.70474198577 43081.85165257811
  endloop
endfacet
facet normal 0.13052619222005585 -0.0 -0.9914448613738099
  outer loop
    vertex 58749.26857358571 41135.70474198576 43081.85165257811
    vertex 59266.90666379075 61135.70474198577 43149.99999999998
    vertex 59266.90666379075 41135.70474198576 43149.99999999998
  endloop
endfacet
facet normal -0.7933533402912228 -0.0 -0.6087614290087368
  outer loop
    vertex 60681.12022616384 61135.70474198577 60564.21356237307
    vertex 60998.95747135963 41135.70474198576 60149.999999999985
    vertex 60681.12022616384 41135.70474198576 60564.21356237307
  endloop
endfacet
facet normal -0.7933533402912228 -0.0 -0.6087614290087368
  outer loop
    vertex 60998.95747135963 41135.70474198576 60149.999999999985
    vertex 60681.12022616384 61135.70474198577 60564.21356237307
    vertex 60998.95747135963 61135.70474198577 60149.999999999985
  endloop
endfacet
facet normal 0.13052619222005585 -0.0 -0.9914448613738099
  outer loop
    vertex 59266.90666379075 61135.70474198577 61149.99999999998
    vertex 58749.26857358571 41135.70474198576 61081.85165257811
    vertex 58749.26857358571 61135.70474198577 61081.85165257811
  endloop
endfacet
facet normal 0.13052619222005585 -0.0 -0.9914448613738099
  outer loop
    vertex 58749.26857358571 41135.70474198576 61081.85165257811
    vertex 59266.90666379075 61135.70474198577 61149.99999999998
    vertex 59266.90666379075 41135.70474198576 61149.99999999998
  endloop
endfacet
facet normal 0.3826834323650805 -0.0 -0.9238795325112906
  outer loop
    vertex 58749.26857358571 61135.70474198577 61081.85165257811
    vertex 58266.906663790745 41135.70474198576 60882.050807568856
    vertex 58266.906663790745 61135.70474198577 60882.050807568856
  endloop
endfacet
facet normal 0.3826834323650805 -0.0 -0.9238795325112906
  outer loop
    vertex 58266.906663790745 41135.70474198576 60882.050807568856
    vertex 58749.26857358571 61135.70474198577 61081.85165257811
    vertex 58749.26857358571 41135.70474198576 61081.85165257811
  endloop
endfacet
facet normal 0.7933533402912312 -0.0 -0.6087614290087261
  outer loop
    vertex 57534.855856221875 61135.70474198577 60149.99999999997
    vertex 57852.693101417666 41135.70474198576 60564.21356237307
    vertex 57534.855856221875 41135.70474198576 60149.99999999997
  endloop
endfacet
facet normal 0.7933533402912312 -0.0 -0.6087614290087261
  outer loop
    vertex 57852.693101417666 41135.70474198576 60564.21356237307
    vertex 57534.855856221875 61135.70474198577 60149.99999999997
    vertex 57852.693101417666 61135.70474198577 60564.21356237307
  endloop
endfacet
facet normal -0.9914448613738099 -0.0 0.13052619222005585
  outer loop
    vertex 61266.906663790745 61135.70474198577 59149.99999999998
    vertex 61198.75831636888 41135.70474198576 58632.36190979494
    vertex 61266.906663790745 41135.70474198576 59149.99999999998
  endloop
endfacet
facet normal -0.9914448613738099 -0.0 0.13052619222005585
  outer loop
    vertex 61198.75831636888 41135.70474198576 58632.36190979494
    vertex 61266.906663790745 61135.70474198577 59149.99999999998
    vertex 61198.75831636888 61135.70474198577 58632.36190979494
  endloop
endfacet
facet normal 0.6087614290087298 -0.0 -0.7933533402912282
  outer loop
    vertex 58266.906663790745 61135.70474198577 42882.050807568856
    vertex 57852.693101417666 41135.70474198576 42564.21356237307
    vertex 57852.693101417666 61135.70474198577 42564.21356237307
  endloop
endfacet
facet normal 0.6087614290087298 -0.0 -0.7933533402912282
  outer loop
    vertex 57852.693101417666 41135.70474198576 42564.21356237307
    vertex 58266.906663790745 61135.70474198577 42882.050807568856
    vertex 58266.906663790745 41135.70474198576 42882.050807568856
  endloop
endfacet
facet normal 0.6087614290087368 -0.0 -0.7933533402912228
  outer loop
    vertex 58266.906663790745 61135.70474198577 60882.050807568856
    vertex 57852.693101417666 41135.70474198576 60564.21356237307
    vertex 57852.693101417666 61135.70474198577 60564.21356237307
  endloop
endfacet
facet normal 0.6087614290087368 -0.0 -0.7933533402912228
  outer loop
    vertex 57852.693101417666 41135.70474198576 60564.21356237307
    vertex 58266.906663790745 61135.70474198577 60882.050807568856
    vertex 58266.906663790745 41135.70474198576 60882.050807568856
  endloop
endfacet
facet normal -0.9238795325112906 -0.0 -0.3826834323650805
  outer loop
    vertex 60998.95747135963 61135.70474198577 60149.999999999985
    vertex 61198.75831636888 41135.70474198576 59667.63809020502
    vertex 60998.95747135963 41135.70474198576 60149.999999999985
  endloop
endfacet
facet normal -0.9238795325112906 -0.0 -0.3826834323650805
  outer loop
    vertex 61198.75831636888 41135.70474198576 59667.63809020502
    vertex 60998.95747135963 61135.70474198577 60149.999999999985
    vertex 61198.75831636888 61135.70474198577 59667.63809020502
  endloop
endfacet
facet normal 0.7933533402912312 0.0 0.6087614290087261
  outer loop
    vertex 57852.693101417666 61135.70474198577 39735.786437626884
    vertex 57534.855856221875 41135.70474198576 40149.999999999985
    vertex 57852.693101417666 41135.70474198576 39735.786437626884
  endloop
endfacet
facet normal 0.7933533402912312 0.0 0.6087614290087261
  outer loop
    vertex 57534.855856221875 41135.70474198576 40149.999999999985
    vertex 57852.693101417666 61135.70474198577 39735.786437626884
    vertex 57534.855856221875 61135.70474198577 40149.999999999985
  endloop
endfacet
facet normal 0.3826834323650805 -0.0 -0.9238795325112906
  outer loop
    vertex 58749.26857358571 61135.70474198577 43081.85165257811
    vertex 58266.906663790745 41135.70474198576 42882.050807568856
    vertex 58266.906663790745 61135.70474198577 42882.050807568856
  endloop
endfacet
facet normal 0.3826834323650805 -0.0 -0.9238795325112906
  outer loop
    vertex 58266.906663790745 41135.70474198576 42882.050807568856
    vertex 58749.26857358571 61135.70474198577 43081.85165257811
    vertex 58749.26857358571 41135.70474198576 43081.85165257811
  endloop
endfacet
facet normal -0.6087614290087191 -0.0 -0.7933533402912365
  outer loop
    vertex 60681.12022616384 61135.70474198577 42564.21356237307
    vertex 60266.906663790745 41135.70474198576 42882.050807568856
    vertex 60266.906663790745 61135.70474198577 42882.050807568856
  endloop
endfacet
facet normal -0.6087614290087191 -0.0 -0.7933533402912365
  outer loop
    vertex 60266.906663790745 41135.70474198576 42882.050807568856
    vertex 60681.12022616384 61135.70474198577 42564.21356237307
    vertex 60681.12022616384 41135.70474198576 42564.21356237307
  endloop
endfacet
facet normal 0.9914448613738099 0.0 0.13052619222005585
  outer loop
    vertex 57335.05501121262 61135.70474198577 40632.36190979494
    vertex 57266.90666379076 41135.70474198576 41149.99999999998
    vertex 57335.05501121262 41135.70474198576 40632.36190979494
  endloop
endfacet
facet normal 0.9914448613738099 0.0 0.13052619222005585
  outer loop
    vertex 57266.90666379076 41135.70474198576 41149.99999999998
    vertex 57335.05501121262 61135.70474198577 40632.36190979494
    vertex 57266.90666379076 61135.70474198577 41149.99999999998
  endloop
endfacet
facet normal -0.3826834323650884 -0.0 -0.9238795325112875
  outer loop
    vertex 60266.906663790745 61135.70474198577 60882.050807568856
    vertex 59784.5447539958 41135.70474198576 61081.85165257811
    vertex 59784.5447539958 61135.70474198577 61081.85165257811
  endloop
endfacet
facet normal -0.3826834323650884 -0.0 -0.9238795325112875
  outer loop
    vertex 59784.5447539958 41135.70474198576 61081.85165257811
    vertex 60266.906663790745 61135.70474198577 60882.050807568856
    vertex 60266.906663790745 41135.70474198576 60882.050807568856
  endloop
endfacet
facet normal 0.7933533402912312 -0.0 -0.6087614290087261
  outer loop
    vertex 57534.855856221875 61135.70474198577 42149.99999999998
    vertex 57852.693101417666 41135.70474198576 42564.21356237307
    vertex 57534.855856221875 41135.70474198576 42149.99999999998
  endloop
endfacet
facet normal 0.7933533402912312 -0.0 -0.6087614290087261
  outer loop
    vertex 57852.693101417666 41135.70474198576 42564.21356237307
    vertex 57534.855856221875 61135.70474198577 42149.99999999998
    vertex 57852.693101417666 61135.70474198577 42564.21356237307
  endloop
endfacet
facet normal -0.7933533402912312 -0.0 0.6087614290087261
  outer loop
    vertex 60998.95747135963 61135.70474198577 58149.999999999985
    vertex 60681.12022616384 41135.70474198576 57735.78643762689
    vertex 60998.95747135963 41135.70474198576 58149.999999999985
  endloop
endfacet
facet normal -0.7933533402912312 -0.0 0.6087614290087261
  outer loop
    vertex 60681.12022616384 41135.70474198576 57735.78643762689
    vertex 60998.95747135963 61135.70474198577 58149.999999999985
    vertex 60681.12022616384 61135.70474198577 57735.78643762689
  endloop
endfacet
facet normal -0.9238795325112891 -0.0 -0.3826834323650845
  outer loop
    vertex 60998.95747135963 61135.70474198577 42149.99999999998
    vertex 61198.75831636888 41135.70474198576 41667.63809020502
    vertex 60998.95747135963 41135.70474198576 42149.99999999998
  endloop
endfacet
facet normal -0.9238795325112891 -0.0 -0.3826834323650845
  outer loop
    vertex 61198.75831636888 41135.70474198576 41667.63809020502
    vertex 60998.95747135963 61135.70474198577 42149.99999999998
    vertex 61198.75831636888 61135.70474198577 41667.63809020502
  endloop
endfacet
facet normal -0.9914448613738099 -0.0 -0.13052619222005585
  outer loop
    vertex 61198.75831636888 61135.70474198577 59667.63809020502
    vertex 61266.906663790745 41135.70474198576 59149.99999999998
    vertex 61198.75831636888 41135.70474198576 59667.63809020502
  endloop
endfacet
facet normal -0.9914448613738099 -0.0 -0.13052619222005585
  outer loop
    vertex 61266.906663790745 41135.70474198576 59149.99999999998
    vertex 61198.75831636888 61135.70474198577 59667.63809020502
    vertex 61266.906663790745 61135.70474198577 59149.99999999998
  endloop
endfacet
facet normal 0.9238795325112891 0.0 0.3826834323650845
  outer loop
    vertex 57534.855856221875 61135.70474198577 40149.999999999985
    vertex 57335.05501121262 41135.70474198576 40632.36190979494
    vertex 57534.855856221875 41135.70474198576 40149.999999999985
  endloop
endfacet
facet normal 0.9238795325112891 0.0 0.3826834323650845
  outer loop
    vertex 57335.05501121262 41135.70474198576 40632.36190979494
    vertex 57534.855856221875 61135.70474198577 40149.999999999985
    vertex 57335.05501121262 61135.70474198577 40632.36190979494
  endloop
endfacet
facet normal -0.7933533402912312 -0.0 -0.6087614290087261
  outer loop
    vertex 60681.12022616384 61135.70474198577 42564.21356237307
    vertex 60998.95747135963 41135.70474198576 42149.99999999998
    vertex 60681.12022616384 41135.70474198576 42564.21356237307
  endloop
endfacet
facet normal -0.7933533402912312 -0.0 -0.6087614290087261
  outer loop
    vertex 60998.95747135963 41135.70474198576 42149.99999999998
    vertex 60681.12022616384 61135.70474198577 42564.21356237307
    vertex 60998.95747135963 61135.70474198577 42149.99999999998
  endloop
endfacet
facet normal 0.9914448613738099 -0.0 -0.13052619222005585
  outer loop
    vertex 57266.90666379076 61135.70474198577 41149.99999999998
    vertex 57335.05501121262 41135.70474198576 41667.63809020502
    vertex 57266.90666379076 41135.70474198576 41149.99999999998
  endloop
endfacet
facet normal 0.9914448613738099 -0.0 -0.13052619222005585
  outer loop
    vertex 57335.05501121262 41135.70474198576 41667.63809020502
    vertex 57266.90666379076 61135.70474198577 41149.99999999998
    vertex 57335.05501121262 61135.70474198577 41667.63809020502
  endloop
endfacet
facet normal -0.6087614290087261 -0.0 -0.7933533402912312
  outer loop
    vertex 60681.12022616384 61135.70474198577 60564.21356237307
    vertex 60266.906663790745 41135.70474198576 60882.050807568856
    vertex 60266.906663790745 61135.70474198577 60882.050807568856
  endloop
endfacet
facet normal -0.6087614290087261 -0.0 -0.7933533402912312
  outer loop
    vertex 60266.906663790745 41135.70474198576 60882.050807568856
    vertex 60681.12022616384 61135.70474198577 60564.21356237307
    vertex 60681.12022616384 41135.70474198576 60564.21356237307
  endloop
endfacet
facet normal 1.0 -0.0 -0.0
  outer loop
    vertex 69266.90666379075 61135.70474198577 9999.999999999998
    vertex 69266.90666379075 41135.70474198576 68149.99999999999
    vertex 69266.90666379075 41135.70474198576 9999.999999999998
  endloop
endfacet
facet normal 1.0 -0.0 -0.0
  outer loop
    vertex 69266.90666379075 41135.70474198576 68149.99999999999
    vertex 69266.90666379075 61135.70474198577 9999.999999999998
    vertex 69266.90666379075 61135.70474198577 68149.99999999999
  endloop
endfacet
facet normal 0.0 -1.0 0.0
  outer loop
    vertex 69266.90666379075 41135.70474198576 9999.999999999998
    vertex 60681.12022616384 41135.70474198576 21735.786437626888
    vertex 49266.906663790774 41135.70474198576 9999.999999999998
  endloop
endfacet
facet normal 0.0 -1.0 0.0
  outer loop
    vertex 60681.12022616384 41135.70474198576 21735.786437626888
    vertex 69266.90666379075 41135.70474198576 9999.999999999998
    vertex 60998.95747135963 41135.70474198576 22149.99999999998
  endloop
endfacet
facet normal 0.0 -1.0 0.0
  outer loop
    vertex 60998.95747135963 41135.70474198576 22149.99999999998
    vertex 69266.90666379075 41135.70474198576 9999.999999999998
    vertex 61198.75831636888 41135.70474198576 22632.36190979494
  endloop
endfacet
facet normal 0.0 -1.0 0.0
  outer loop
    vertex 61198.75831636888 41135.70474198576 22632.36190979494
    vertex 69266.90666379075 41135.70474198576 9999.999999999998
    vertex 69266.90666379075 41135.70474198576 68149.99999999999
  endloop
endfacet
facet normal 0.0 -1.0 0.0
  outer loop
    vertex 49266.906663790774 41135.70474198576 9999.999999999998
    vertex 60681.12022616384 41135.70474198576 21735.786437626888
    vertex 60266.90666379075 41135.70474198576 21417.949192431104
  endloop
endfacet
facet normal 0.0 -1.0 0.0
  outer loop
    vertex 49266.906663790774 41135.70474198576 9999.999999999998
    vertex 60266.90666379075 41135.70474198576 21417.949192431104
    vertex 59784.5447539958 41135.70474198576 21218.148347421848
  endloop
endfacet
facet normal 0.0 -1.0 0.0
  outer loop
    vertex 49266.906663790774 41135.70474198576 9999.999999999998
    vertex 59784.5447539958 41135.70474198576 21218.148347421848
    vertex 59266.90666379075 41135.70474198576 21149.99999999998
  endloop
endfacet
facet normal 0.0 -1.0 0.0
  outer loop
    vertex 61198.75831636888 41135.70474198576 22632.36190979494
    vertex 69266.90666379075 41135.70474198576 68149.99999999999
    vertex 61266.906663790745 41135.70474198576 23149.999999999978
  endloop
endfacet
facet normal 0.0 -1.0 0.0
  outer loop
    vertex 61266.906663790745 41135.70474198576 23149.999999999978
    vertex 69266.90666379075 41135.70474198576 68149.99999999999
    vertex 61198.75831636888 41135.70474198576 23667.638090205022
  endloop
endfacet
facet normal 0.0 -1.0 0.0
  outer loop
    vertex 61198.75831636888 41135.70474198576 23667.638090205022
    vertex 69266.90666379075 41135.70474198576 68149.99999999999
    vertex 60998.95747135963 41135.70474198576 24149.999999999978
  endloop
endfacet
facet normal 0.0 -1.0 0.0
  outer loop
    vertex 60998.95747135963 41135.70474198576 24149.999999999978
    vertex 69266.90666379075 41135.70474198576 68149.99999999999
    vertex 60681.12022616384 41135.70474198576 24564.213562373072
  endloop
endfacet
facet normal 0.0 -1.0 0.0
  outer loop
    vertex 60681.12022616384 41135.70474198576 24564.213562373072
    vertex 69266.90666379075 41135.70474198576 68149.99999999999
    vertex 60266.906663790745 41135.70474198576 24882.050807568852
  endloop
endfacet
facet normal 0.0 -1.0 0.0
  outer loop
    vertex 60266.906663790745 41135.70474198576 24882.050807568852
    vertex 69266.90666379075 41135.70474198576 68149.99999999999
    vertex 59784.5447539958 41135.70474198576 25081.851652578112
  endloop
endfacet
facet normal 0.0 -1.0 0.0
  outer loop
    vertex 59784.5447539958 41135.70474198576 25081.851652578112
    vertex 69266.90666379075 41135.70474198576 68149.99999999999
    vertex 59266.90666379075 41135.70474198576 25149.999999999975
  endloop
endfacet
facet normal 0.0 -1.0 0.0
  outer loop
    vertex 59266.90666379075 41135.70474198576 25149.999999999975
    vertex 69266.90666379075 41135.70474198576 68149.99999999999
    vertex 61198.75831636888 41135.70474198576 40632.36190979494
  endloop
endfacet
facet normal 0.0 -1.0 0.0
  outer loop
    vertex 59266.90666379075 41135.70474198576 25149.999999999975
    vertex 61198.75831636888 41135.70474198576 40632.36190979494
    vertex 60998.95747135963 41135.70474198576 40149.999999999985
  endloop
endfacet
facet normal 0.0 -1.0 0.0
  outer loop
    vertex 59266.90666379075 41135.70474198576 25149.999999999975
    vertex 60998.95747135963 41135.70474198576 40149.999999999985
    vertex 60681.12022616384 41135.70474198576 39735.786437626884
  endloop
endfacet
facet normal 0.0 -1.0 0.0
  outer loop
    vertex 59266.90666379075 41135.70474198576 25149.999999999975
    vertex 60681.12022616384 41135.70474198576 39735.786437626884
    vertex 60266.90666379075 41135.70474198576 39417.94919243111
  endloop
endfacet
facet normal 0.0 -1.0 0.0
  outer loop
    vertex 59266.90666379075 41135.70474198576 25149.999999999975
    vertex 60266.90666379075 41135.70474198576 39417.94919243111
    vertex 59784.5447539958 41135.70474198576 39218.14834742185
  endloop
endfacet
facet normal 0.0 -1.0 0.0
  outer loop
    vertex 59266.90666379075 41135.70474198576 25149.999999999975
    vertex 59784.5447539958 41135.70474198576 39218.14834742185
    vertex 59266.90666379075 41135.70474198576 39149.999999999985
  endloop
endfacet
facet normal 0.0 -1.0 0.0
  outer loop
    vertex 61198.75831636888 41135.70474198576 40632.36190979494
    vertex 69266.90666379075 41135.70474198576 68149.99999999999
    vertex 61266.906663790745 41135.70474198576 41149.99999999998
  endloop
endfacet
facet normal 0.0 -1.0 0.0
  outer loop
    vertex 61266.906663790745 41135.70474198576 41149.99999999998
    vertex 69266.90666379075 41135.70474198576 68149.99999999999
    vertex 61198.75831636888 41135.70474198576 41667.63809020502
  endloop
endfacet
facet normal 0.0 -1.0 0.0
  outer loop
    vertex 61198.75831636888 41135.70474198576 41667.63809020502
    vertex 69266.90666379075 41135.70474198576 68149.99999999999
    vertex 60998.95747135963 41135.70474198576 42149.99999999998
  endloop
endfacet
facet normal 0.0 -1.0 0.0
  outer loop
    vertex 60998.95747135963 41135.70474198576 42149.99999999998
    vertex 69266.90666379075 41135.70474198576 68149.99999999999
    vertex 60681.12022616384 41135.70474198576 42564.21356237307
  endloop
endfacet
facet normal 0.0 -1.0 0.0
  outer loop
    vertex 60681.12022616384 41135.70474198576 42564.21356237307
    vertex 69266.90666379075 41135.70474198576 68149.99999999999
    vertex 60266.906663790745 41135.70474198576 42882.050807568856
  endloop
endfacet
facet normal 0.0 -1.0 0.0
  outer loop
    vertex 60266.906663790745 41135.70474198576 42882.050807568856
    vertex 69266.90666379075 41135.70474198576 68149.99999999999
    vertex 59784.5447539958 41135.70474198576 43081.851652578116
  endloop
endfacet
facet normal 0.0 -1.0 0.0
  outer loop
    vertex 59784.5447539958 41135.70474198576 43081.851652578116
    vertex 69266.90666379075 41135.70474198576 68149.99999999999
    vertex 59266.90666379075 41135.70474198576 43149.99999999998
  endloop
endfacet
facet normal 0.0 -1.0 0.0
  outer loop
    vertex 59266.90666379075 41135.70474198576 43149.99999999998
    vertex 69266.90666379075 41135.70474198576 68149.99999999999
    vertex 60681.12022616384 41135.70474198576 57735.78643762689
  endloop
endfacet
facet normal 0.0 -1.0 0.0
  outer loop
    vertex 59266.90666379075 41135.70474198576 43149.99999999998
    vertex 60681.12022616384 41135.70474198576 57735.78643762689
    vertex 60266.90666379075 41135.70474198576 57417.94919243111
  endloop
endfacet
facet normal 0.0 -1.0 0.0
  outer loop
    vertex 59266.90666379075 41135.70474198576 43149.99999999998
    vertex 60266.90666379075 41135.70474198576 57417.94919243111
    vertex 59784.5447539958 41135.70474198576 57218.14834742185
  endloop
endfacet
facet normal 0.0 -1.0 0.0
  outer loop
    vertex 59266.90666379075 41135.70474198576 43149.99999999998
    vertex 59784.5447539958 41135.70474198576 57218.14834742185
    vertex 59266.90666379075 41135.70474198576 57149.999999999985
  endloop
endfacet
facet normal 0.0 -1.0 0.0
  outer loop
    vertex 60681.12022616384 41135.70474198576 57735.78643762689
    vertex 69266.90666379075 41135.70474198576 68149.99999999999
    vertex 60998.95747135963 41135.70474198576 58149.999999999985
  endloop
endfacet
facet normal 0.0 -1.0 0.0
  outer loop
    vertex 60998.95747135963 41135.70474198576 58149.999999999985
    vertex 69266.90666379075 41135.70474198576 68149.99999999999
    vertex 61198.75831636888 41135.70474198576 58632.36190979494
  endloop
endfacet
facet normal 0.0 -1.0 0.0
  outer loop
    vertex 61198.75831636888 41135.70474198576 58632.36190979494
    vertex 69266.90666379075 41135.70474198576 68149.99999999999
    vertex 61266.906663790745 41135.70474198576 59149.99999999998
  endloop
endfacet
facet normal 0.0 -1.0 0.0
  outer loop
    vertex 61266.906663790745 41135.70474198576 59149.99999999998
    vertex 69266.90666379075 41135.70474198576 68149.99999999999
    vertex 61198.75831636888 41135.70474198576 59667.63809020502
  endloop
endfacet
facet normal 0.0 -1.0 0.0
  outer loop
    vertex 61198.75831636888 41135.70474198576 59667.63809020502
    vertex 69266.90666379075 41135.70474198576 68149.99999999999
    vertex 60998.95747135963 41135.70474198576 60149.999999999985
  endloop
endfacet
facet normal 0.0 -1.0 0.0
  outer loop
    vertex 60998.95747135963 41135.70474198576 60149.999999999985
    vertex 69266.90666379075 41135.70474198576 68149.99999999999
    vertex 60681.12022616384 41135.70474198576 60564.21356237307
  endloop
endfacet
facet normal 0.0 -1.0 0.0
  outer loop
    vertex 60681.12022616384 41135.70474198576 60564.21356237307
    vertex 69266.90666379075 41135.70474198576 68149.99999999999
    vertex 60266.906663790745 41135.70474198576 60882.050807568856
  endloop
endfacet
facet normal 0.0 -1.0 0.0
  outer loop
    vertex 60266.906663790745 41135.70474198576 60882.050807568856
    vertex 69266.90666379075 41135.70474198576 68149.99999999999
    vertex 59784.5447539958 41135.70474198576 61081.85165257811
  endloop
endfacet
facet normal 0.0 -1.0 0.0
  outer loop
    vertex 59784.5447539958 41135.70474198576 61081.85165257811
    vertex 69266.90666379075 41135.70474198576 68149.99999999999
    vertex 59266.90666379075 41135.70474198576 61149.99999999998
  endloop
endfacet
facet normal 0.0 -1.0 0.0
  outer loop
    vertex 49266.906663790774 41135.70474198576 9999.999999999998
    vertex 57335.05501121262 41135.70474198576 22632.361909794938
    vertex 49266.906663790774 41135.70474198576 68149.99999999999
  endloop
endfacet
facet normal 0.0 -1.0 0.0
  outer loop
    vertex 57335.05501121262 41135.70474198576 22632.361909794938
    vertex 49266.906663790774 41135.70474198576 9999.999999999998
    vertex 57534.855856221875 41135.70474198576 22149.99999999998
  endloop
endfacet
facet normal 0.0 -1.0 0.0
  outer loop
    vertex 57534.855856221875 41135.70474198576 22149.99999999998
    vertex 49266.906663790774 41135.70474198576 9999.999999999998
    vertex 57852.693101417666 41135.70474198576 21735.786437626884
  endloop
endfacet
facet normal 0.0 -1.0 0.0
  outer loop
    vertex 57852.693101417666 41135.70474198576 21735.786437626884
    vertex 49266.906663790774 41135.70474198576 9999.999999999998
    vertex 58266.90666379076 41135.70474198576 21417.949192431104
  endloop
endfacet
facet normal 0.0 -1.0 0.0
  outer loop
    vertex 58266.90666379076 41135.70474198576 21417.949192431104
    vertex 49266.906663790774 41135.70474198576 9999.999999999998
    vertex 58749.26857358571 41135.70474198576 21218.148347421848
  endloop
endfacet
facet normal 0.0 -1.0 0.0
  outer loop
    vertex 58749.26857358571 41135.70474198576 21218.148347421848
    vertex 49266.906663790774 41135.70474198576 9999.999999999998
    vertex 59266.90666379075 41135.70474198576 21149.99999999998
  endloop
endfacet
facet normal 0.0 -1.0 0.0
  outer loop
    vertex 49266.906663790774 41135.70474198576 68149.99999999999
    vertex 57335.05501121262 41135.70474198576 22632.361909794938
    vertex 57266.90666379076 41135.70474198576 23149.999999999978
  endloop
endfacet
facet normal 0.0 -1.0 0.0
  outer loop
    vertex 49266.906663790774 41135.70474198576 68149.99999999999
    vertex 57266.90666379076 41135.70474198576 23149.999999999978
    vertex 57335.05501121262 41135.70474198576 23667.63809020502
  endloop
endfacet
facet normal 0.0 -1.0 0.0
  outer loop
    vertex 49266.906663790774 41135.70474198576 68149.99999999999
    vertex 57335.05501121262 41135.70474198576 23667.63809020502
    vertex 57534.855856221875 41135.70474198576 24149.999999999978
  endloop
endfacet
facet normal 0.0 -1.0 0.0
  outer loop
    vertex 49266.906663790774 41135.70474198576 68149.99999999999
    vertex 57534.855856221875 41135.70474198576 24149.999999999978
    vertex 57852.693101417666 41135.70474198576 24564.21356237307
  endloop
endfacet
facet normal 0.0 -1.0 0.0
  outer loop
    vertex 49266.906663790774 41135.70474198576 68149.99999999999
    vertex 57852.693101417666 41135.70474198576 24564.21356237307
    vertex 58266.906663790745 41135.70474198576 24882.050807568852
  endloop
endfacet
facet normal 0.0 -1.0 0.0
  outer loop
    vertex 49266.906663790774 41135.70474198576 68149.99999999999
    vertex 58266.906663790745 41135.70474198576 24882.050807568852
    vertex 58749.26857358571 41135.70474198576 25081.851652578112
  endloop
endfacet
facet normal 0.0 -1.0 0.0
  outer loop
    vertex 49266.906663790774 41135.70474198576 68149.99999999999
    vertex 58749.26857358571 41135.70474198576 25081.851652578112
    vertex 59266.90666379075 41135.70474198576 25149.999999999975
  endloop
endfacet
facet normal 0.0 -1.0 0.0
  outer loop
    vertex 49266.906663790774 41135.70474198576 68149.99999999999
    vertex 59266.90666379075 41135.70474198576 25149.999999999975
    vertex 57335.05501121262 41135.70474198576 40632.36190979494
  endloop
endfacet
facet normal 0.0 -1.0 0.0
  outer loop
    vertex 57335.05501121262 41135.70474198576 40632.36190979494
    vertex 59266.90666379075 41135.70474198576 25149.999999999975
    vertex 57534.855856221875 41135.70474198576 40149.999999999985
  endloop
endfacet
facet normal 0.0 -1.0 0.0
  outer loop
    vertex 57534.855856221875 41135.70474198576 40149.999999999985
    vertex 59266.90666379075 41135.70474198576 25149.999999999975
    vertex 57852.693101417666 41135.70474198576 39735.786437626884
  endloop
endfacet
facet normal 0.0 -1.0 0.0
  outer loop
    vertex 57852.693101417666 41135.70474198576 39735.786437626884
    vertex 59266.90666379075 41135.70474198576 25149.999999999975
    vertex 58266.90666379076 41135.70474198576 39417.94919243111
  endloop
endfacet
facet normal 0.0 -1.0 0.0
  outer loop
    vertex 58266.90666379076 41135.70474198576 39417.94919243111
    vertex 59266.90666379075 41135.70474198576 25149.999999999975
    vertex 58749.26857358571 41135.70474198576 39218.14834742185
  endloop
endfacet
facet normal 0.0 -1.0 0.0
  outer loop
    vertex 58749.26857358571 41135.70474198576 39218.14834742185
    vertex 59266.90666379075 41135.70474198576 25149.999999999975
    vertex 59266.90666379075 41135.70474198576 39149.999999999985
  endloop
endfacet
facet normal 0.0 -1.0 0.0
  outer loop
    vertex 49266.906663790774 41135.70474198576 68149.99999999999
    vertex 57335.05501121262 41135.70474198576 40632.36190979494
    vertex 57266.90666379076 41135.70474198576 41149.99999999998
  endloop
endfacet
facet normal 0.0 -1.0 0.0
  outer loop
    vertex 49266.906663790774 41135.70474198576 68149.99999999999
    vertex 57266.90666379076 41135.70474198576 41149.99999999998
    vertex 57335.05501121262 41135.70474198576 41667.63809020502
  endloop
endfacet
facet normal 0.0 -1.0 0.0
  outer loop
    vertex 49266.906663790774 41135.70474198576 68149.99999999999
    vertex 57335.05501121262 41135.70474198576 41667.63809020502
    vertex 57534.855856221875 41135.70474198576 42149.99999999998
  endloop
endfacet
facet normal 0.0 -1.0 0.0
  outer loop
    vertex 49266.906663790774 41135.70474198576 68149.99999999999
    vertex 57534.855856221875 41135.70474198576 42149.99999999998
    vertex 57852.693101417666 41135.70474198576 42564.21356237307
  endloop
endfacet
facet normal 0.0 -1.0 0.0
  outer loop
    vertex 49266.906663790774 41135.70474198576 68149.99999999999
    vertex 57852.693101417666 41135.70474198576 42564.21356237307
    vertex 58266.906663790745 41135.70474198576 42882.050807568856
  endloop
endfacet
facet normal 0.0 -1.0 0.0
  outer loop
    vertex 49266.906663790774 41135.70474198576 68149.99999999999
    vertex 58266.906663790745 41135.70474198576 42882.050807568856
    vertex 58749.26857358571 41135.70474198576 43081.85165257811
  endloop
endfacet
facet normal 0.0 -1.0 0.0
  outer loop
    vertex 49266.906663790774 41135.70474198576 68149.99999999999
    vertex 58749.26857358571 41135.70474198576 43081.85165257811
    vertex 59266.90666379075 41135.70474198576 43149.99999999998
  endloop
endfacet
facet normal 0.0 -1.0 0.0
  outer loop
    vertex 49266.906663790774 41135.70474198576 68149.99999999999
    vertex 59266.90666379075 41135.70474198576 43149.99999999998
    vertex 57852.693101417666 41135.70474198576 57735.78643762689
  endloop
endfacet
facet normal 0.0 -1.0 0.0
  outer loop
    vertex 57852.693101417666 41135.70474198576 57735.78643762689
    vertex 59266.90666379075 41135.70474198576 43149.99999999998
    vertex 58266.90666379076 41135.70474198576 57417.94919243111
  endloop
endfacet
facet normal 0.0 -1.0 0.0
  outer loop
    vertex 58266.90666379076 41135.70474198576 57417.94919243111
    vertex 59266.90666379075 41135.70474198576 43149.99999999998
    vertex 58749.26857358571 41135.70474198576 57218.14834742185
  endloop
endfacet
facet normal 0.0 -1.0 0.0
  outer loop
    vertex 58749.26857358571 41135.70474198576 57218.14834742185
    vertex 59266.90666379075 41135.70474198576 43149.99999999998
    vertex 59266.90666379075 41135.70474198576 57149.999999999985
  endloop
endfacet
facet normal 0.0 -1.0 0.0
  outer loop
    vertex 49266.906663790774 41135.70474198576 68149.99999999999
    vertex 57852.693101417666 41135.70474198576 57735.78643762689
    vertex 57534.855856221875 41135.70474198576 58149.99999999998
  endloop
endfacet
facet normal 0.0 -1.0 0.0
  outer loop
    vertex 49266.906663790774 41135.70474198576 68149.99999999999
    vertex 57534.855856221875 41135.70474198576 58149.99999999998
    vertex 57335.05501121262 41135.70474198576 58632.36190979494
  endloop
endfacet
facet normal 0.0 -1.0 0.0
  outer loop
    vertex 49266.906663790774 41135.70474198576 68149.99999999999
    vertex 57335.05501121262 41135.70474198576 58632.36190979494
    vertex 57266.90666379076 41135.70474198576 59149.99999999998
  endloop
endfacet
facet normal 0.0 -1.0 0.0
  outer loop
    vertex 49266.906663790774 41135.70474198576 68149.99999999999
    vertex 57266.90666379076 41135.70474198576 59149.99999999998
    vertex 57335.05501121262 41135.70474198576 59667.63809020502
  endloop
endfacet
facet normal 0.0 -1.0 0.0
  outer loop
    vertex 49266.906663790774 41135.70474198576 68149.99999999999
    vertex 57335.05501121262 41135.70474198576 59667.63809020502
    vertex 57534.855856221875 41135.70474198576 60149.99999999997
  endloop
endfacet
facet normal 0.0 -1.0 0.0
  outer loop
    vertex 49266.906663790774 41135.70474198576 68149.99999999999
    vertex 57534.855856221875 41135.70474198576 60149.99999999997
    vertex 57852.693101417666 41135.70474198576 60564.21356237307
  endloop
endfacet
facet normal 0.0 -1.0 0.0
  outer loop
    vertex 49266.906663790774 41135.70474198576 68149.99999999999
    vertex 57852.693101417666 41135.70474198576 60564.21356237307
    vertex 58266.906663790745 41135.70474198576 60882.050807568856
  endloop
endfacet
facet normal 0.0 -1.0 0.0
  outer loop
    vertex 49266.906663790774 41135.70474198576 68149.99999999999
    vertex 58266.906663790745 41135.70474198576 60882.050807568856
    vertex 58749.26857358571 41135.70474198576 61081.85165257811
  endloop
endfacet
facet normal 0.0 -1.0 0.0
  outer loop
    vertex 49266.906663790774 41135.70474198576 68149.99999999999
    vertex 58749.26857358571 41135.70474198576 61081.85165257811
    vertex 59266.90666379075 41135.70474198576 61149.99999999998
  endloop
endfacet
facet normal 0.0 -1.0 0.0
  outer loop
    vertex 49266.906663790774 41135.70474198576 68149.99999999999
    vertex 59266.90666379075 41135.70474198576 61149.99999999998
    vertex 69266.90666379075 41135.70474198576 68149.99999999999
  endloop
endfacet
facet normal 0.0 -1.0 0.0
  outer loop
    vertex 49266.906663790774 41135.70474198576 68149.99999999999
    vertex 69266.90666379075 41135.70474198576 68149.99999999999
    vertex 59266.90666379075 41135.70474198576 68149.99999999999
  endloop
endfacet
endsolid NewBeaconPusherFTC
