solid BatteryBoxHolder
facet normal 0.0 0.0 -1.0
  outer loop
    vertex 4801.808127712076 2663.7355220985605 -1.136990013851544e-13
    vertex 4797.083718263258 2661.680403988324 -1.136990013851544e-13
    vertex 4797.083718263258 2663.7355220985605 -1.136990013851544e-13
  endloop
endfacet
facet normal 0.0 0.0 -1.0
  outer loop
    vertex 4797.083718263258 2661.680403988324 -1.136990013851544e-13
    vertex 4801.808127712076 2663.7355220985605 -1.136990013851544e-13
    vertex 4801.808127712076 2661.680403988324 -1.136990013851544e-13
  endloop
endfacet
facet normal 0.0 0.0 1.0
  outer loop
    vertex 4801.690017475856 2661.7985142245448 0.11811023622035874
    vertex 4797.201828499477 2663.61741186234 0.11811023622035874
    vertex 4797.201828499477 2661.7985142245448 0.11811023622035874
  endloop
endfacet
facet normal 0.0 0.0 1.0
  outer loop
    vertex 4797.201828499477 2663.61741186234 0.11811023622035874
    vertex 4801.690017475856 2661.7985142245448 0.11811023622035874
    vertex 4801.690017475856 2663.61741186234 0.11811023622035874
  endloop
endfacet
facet normal 7.146774888524139e-18 -1.0 -1.6872649724375313e-17
  outer loop
    vertex 4801.808127712076 2661.680403988324 1.9291338582676025
    vertex 4797.083718263258 2661.680403988324 -1.136990013851544e-13
    vertex 4801.808127712076 2661.680403988324 -1.136990013851544e-13
  endloop
endfacet
facet normal 7.146774888524139e-18 -1.0 -1.6872649724375313e-17
  outer loop
    vertex 4797.083718263258 2661.680403988324 -1.136990013851544e-13
    vertex 4801.808127712076 2661.680403988324 1.9291338582676025
    vertex 4797.083718263258 2661.680403988324 1.9291338582676023
  endloop
endfacet
facet normal -1.0 -8.880846342312899e-17 -3.975898877335161e-16
  outer loop
    vertex 4797.083718263258 2663.7355220985605 1.9291338582676023
    vertex 4797.083718263258 2663.162687452891 1.4763779527557914
    vertex 4797.083718263258 2663.162687452891 1.9291338582676023
  endloop
endfacet
facet normal -1.0 -8.880846342312899e-17 -3.975898877335161e-16
  outer loop
    vertex 4797.083718263258 2662.2532386339935 1.9291338582676023
    vertex 4797.083718263258 2661.680403988324 -1.136990013851544e-13
    vertex 4797.083718263258 2661.680403988324 1.9291338582676023
  endloop
endfacet
facet normal -1.0 -8.880846342312899e-17 -3.975898877335161e-16
  outer loop
    vertex 4797.083718263258 2661.680403988324 -1.136990013851544e-13
    vertex 4797.083718263258 2662.2532386339935 1.9291338582676023
    vertex 4797.083718263258 2662.2532386339935 1.4763779527557914
  endloop
endfacet
facet normal -1.0 -8.880846342312899e-17 -3.975898877335161e-16
  outer loop
    vertex 4797.083718263258 2661.680403988324 -1.136990013851544e-13
    vertex 4797.083718263258 2662.2532386339935 1.4763779527557914
    vertex 4797.083718263258 2662.312293752104 1.4173228346455553
  endloop
endfacet
facet normal -1.0 -8.880846342312899e-17 -3.975898877335161e-16
  outer loop
    vertex 4797.083718263258 2661.680403988324 -1.136990013851544e-13
    vertex 4797.083718263258 2662.312293752104 1.4173228346455553
    vertex 4797.083718263258 2663.7355220985605 -1.136990013851544e-13
  endloop
endfacet
facet normal -1.0 -8.880846342312899e-17 -3.975898877335161e-16
  outer loop
    vertex 4797.083718263258 2663.7355220985605 -1.136990013851544e-13
    vertex 4797.083718263258 2662.312293752104 1.4173228346455553
    vertex 4797.083718263258 2663.1036323347807 1.4173228346455553
  endloop
endfacet
facet normal -1.0 -8.880846342312899e-17 -3.975898877335161e-16
  outer loop
    vertex 4797.083718263258 2663.7355220985605 -1.136990013851544e-13
    vertex 4797.083718263258 2663.1036323347807 1.4173228346455553
    vertex 4797.083718263258 2663.162687452891 1.4763779527557914
  endloop
endfacet
facet normal -1.0 -8.880846342312899e-17 -3.975898877335161e-16
  outer loop
    vertex 4797.083718263258 2663.7355220985605 -1.136990013851544e-13
    vertex 4797.083718263258 2663.162687452891 1.4763779527557914
    vertex 4797.083718263258 2663.7355220985605 1.9291338582676023
  endloop
endfacet
facet normal 1.0 -9.877671837310403e-17 3.0858263917401027e-16
  outer loop
    vertex 4797.201828499477 2661.7985142245448 0.11811023622035874
    vertex 4797.201828499477 2662.312293752104 1.4173228346455553
    vertex 4797.201828499477 2661.7985142245448 1.9291338582676025
  endloop
endfacet
facet normal 1.0 -9.877671837310403e-17 3.0858263917401027e-16
  outer loop
    vertex 4797.201828499477 2662.312293752104 1.4173228346455553
    vertex 4797.201828499477 2661.7985142245448 0.11811023622035874
    vertex 4797.201828499477 2663.61741186234 0.11811023622035874
  endloop
endfacet
facet normal 1.0 -9.877671837310403e-17 3.0858263917401027e-16
  outer loop
    vertex 4797.201828499477 2661.7985142245448 1.9291338582676025
    vertex 4797.201828499477 2662.312293752104 1.4173228346455553
    vertex 4797.201828499477 2662.2532386339935 1.4763779527557919
  endloop
endfacet
facet normal 1.0 -9.877671837310403e-17 3.0858263917401027e-16
  outer loop
    vertex 4797.201828499477 2662.312293752104 1.4173228346455553
    vertex 4797.201828499477 2663.61741186234 0.11811023622035874
    vertex 4797.201828499477 2663.1036323347807 1.4173228346455553
  endloop
endfacet
facet normal 1.0 -9.877671837310403e-17 3.0858263917401027e-16
  outer loop
    vertex 4797.201828499477 2663.1036323347807 1.4173228346455553
    vertex 4797.201828499477 2663.61741186234 0.11811023622035874
    vertex 4797.201828499477 2663.162687452891 1.4763779527557914
  endloop
endfacet
facet normal 1.0 -9.877671837310403e-17 3.0858263917401027e-16
  outer loop
    vertex 4797.201828499477 2663.162687452891 1.4763779527557914
    vertex 4797.201828499477 2663.61741186234 0.11811023622035874
    vertex 4797.201828499477 2663.162687452891 1.9291338582676025
  endloop
endfacet
facet normal 1.0 -9.877671837310403e-17 3.0858263917401027e-16
  outer loop
    vertex 4797.201828499477 2663.162687452891 1.9291338582676025
    vertex 4797.201828499477 2663.61741186234 0.11811023622035874
    vertex 4797.201828499477 2663.61741186234 1.9291338582676028
  endloop
endfacet
facet normal 1.0 -9.877671837310403e-17 3.0858263917401027e-16
  outer loop
    vertex 4797.201828499477 2662.2532386339935 1.9291338582676025
    vertex 4797.201828499477 2661.7985142245448 1.9291338582676025
    vertex 4797.201828499477 2662.2532386339935 1.4763779527557919
  endloop
endfacet
facet normal 0.0 -1.0 0.0
  outer loop
    vertex 4801.690017475856 2663.61741186234 1.9291338582676028
    vertex 4797.201828499477 2663.61741186234 0.11811023622035874
    vertex 4801.690017475856 2663.61741186234 0.11811023622035874
  endloop
endfacet
facet normal 0.0 -1.0 0.0
  outer loop
    vertex 4797.201828499477 2663.61741186234 0.11811023622035874
    vertex 4801.690017475856 2663.61741186234 1.9291338582676028
    vertex 4797.201828499477 2663.61741186234 1.9291338582676028
  endloop
endfacet
facet normal -1.0 0.0 0.0
  outer loop
    vertex 4801.690017475856 2663.61741186234 1.9291338582676028
    vertex 4801.690017475856 2661.7985142245448 0.11811023622035874
    vertex 4801.690017475856 2661.7985142245448 1.9291338582676028
  endloop
endfacet
facet normal -1.0 0.0 0.0
  outer loop
    vertex 4801.690017475856 2661.7985142245448 0.11811023622035874
    vertex 4801.690017475856 2663.61741186234 1.9291338582676028
    vertex 4801.690017475856 2663.61741186234 0.11811023622035874
  endloop
endfacet
facet normal -1.2665112623373009e-17 1.0 3.138745302314181e-17
  outer loop
    vertex 4797.201828499477 2661.7985142245448 1.9291338582676025
    vertex 4801.690017475856 2661.7985142245448 0.11811023622035874
    vertex 4797.201828499477 2661.7985142245448 0.11811023622035874
  endloop
endfacet
facet normal -1.2665112623373009e-17 1.0 3.138745302314181e-17
  outer loop
    vertex 4801.690017475856 2661.7985142245448 0.11811023622035874
    vertex 4797.201828499477 2661.7985142245448 1.9291338582676025
    vertex 4801.690017475856 2661.7985142245448 1.9291338582676028
  endloop
endfacet
facet normal -0.0 1.0 -0.0
  outer loop
    vertex 4797.083718263258 2663.7355220985605 1.9291338582676023
    vertex 4801.808127712076 2663.7355220985605 -1.136990013851544e-13
    vertex 4797.083718263258 2663.7355220985605 -1.136990013851544e-13
  endloop
endfacet
facet normal -0.0 1.0 -0.0
  outer loop
    vertex 4801.808127712076 2663.7355220985605 -1.136990013851544e-13
    vertex 4797.083718263258 2663.7355220985605 1.9291338582676023
    vertex 4801.808127712076 2663.7355220985605 1.9291338582676025
  endloop
endfacet
facet normal 1.0 0.0 0.0
  outer loop
    vertex 4801.808127712076 2663.7355220985605 -1.136990013851544e-13
    vertex 4801.808127712076 2661.680403988324 1.9291338582676025
    vertex 4801.808127712076 2661.680403988324 -1.136990013851544e-13
  endloop
endfacet
facet normal 1.0 0.0 0.0
  outer loop
    vertex 4801.808127712076 2661.680403988324 1.9291338582676025
    vertex 4801.808127712076 2663.7355220985605 -1.136990013851544e-13
    vertex 4801.808127712076 2663.7355220985605 1.9291338582676025
  endloop
endfacet
facet normal 0.0 -1.0 0.0
  outer loop
    vertex 4797.201828499477 2663.162687452891 1.9291338582676025
    vertex 4797.083718263258 2663.162687452891 1.4763779527557914
    vertex 4797.201828499477 2663.162687452891 1.4763779527557914
  endloop
endfacet
facet normal 0.0 -1.0 0.0
  outer loop
    vertex 4797.083718263258 2663.162687452891 1.4763779527557914
    vertex 4797.201828499477 2663.162687452891 1.9291338582676025
    vertex 4797.083718263258 2663.162687452891 1.9291338582676023
  endloop
endfacet
facet normal -4.159089586622854e-17 -1.398914896034477e-17 1.0
  outer loop
    vertex 4797.083718263258 2661.680403988324 1.9291338582676023
    vertex 4797.201828499477 2661.7985142245448 1.9291338582676025
    vertex 4797.083718263258 2662.2532386339935 1.9291338582676023
  endloop
endfacet
facet normal -4.159089586622854e-17 -1.398914896034477e-17 1.0
  outer loop
    vertex 4797.201828499477 2661.7985142245448 1.9291338582676025
    vertex 4797.083718263258 2661.680403988324 1.9291338582676023
    vertex 4801.808127712076 2661.680403988324 1.9291338582676025
  endloop
endfacet
facet normal -4.159089586622854e-17 -1.398914896034477e-17 1.0
  outer loop
    vertex 4797.201828499477 2661.7985142245448 1.9291338582676025
    vertex 4801.808127712076 2661.680403988324 1.9291338582676025
    vertex 4801.690017475856 2661.7985142245448 1.9291338582676028
  endloop
endfacet
facet normal -4.159089586622854e-17 -1.398914896034477e-17 1.0
  outer loop
    vertex 4801.690017475856 2661.7985142245448 1.9291338582676028
    vertex 4801.808127712076 2661.680403988324 1.9291338582676025
    vertex 4801.690017475856 2663.61741186234 1.9291338582676028
  endloop
endfacet
facet normal -4.159089586622854e-17 -1.398914896034477e-17 1.0
  outer loop
    vertex 4797.201828499477 2663.162687452891 1.9291338582676025
    vertex 4797.083718263258 2663.7355220985605 1.9291338582676023
    vertex 4797.083718263258 2663.162687452891 1.9291338582676023
  endloop
endfacet
facet normal -4.159089586622854e-17 -1.398914896034477e-17 1.0
  outer loop
    vertex 4797.083718263258 2663.7355220985605 1.9291338582676023
    vertex 4797.201828499477 2663.162687452891 1.9291338582676025
    vertex 4797.201828499477 2663.61741186234 1.9291338582676028
  endloop
endfacet
facet normal -4.159089586622854e-17 -1.398914896034477e-17 1.0
  outer loop
    vertex 4797.083718263258 2663.7355220985605 1.9291338582676023
    vertex 4797.201828499477 2663.61741186234 1.9291338582676028
    vertex 4801.808127712076 2663.7355220985605 1.9291338582676025
  endloop
endfacet
facet normal -4.159089586622854e-17 -1.398914896034477e-17 1.0
  outer loop
    vertex 4801.808127712076 2663.7355220985605 1.9291338582676025
    vertex 4797.201828499477 2663.61741186234 1.9291338582676028
    vertex 4801.690017475856 2663.61741186234 1.9291338582676028
  endloop
endfacet
facet normal -4.159089586622854e-17 -1.398914896034477e-17 1.0
  outer loop
    vertex 4801.808127712076 2663.7355220985605 1.9291338582676025
    vertex 4801.690017475856 2663.61741186234 1.9291338582676028
    vertex 4801.808127712076 2661.680403988324 1.9291338582676025
  endloop
endfacet
facet normal -4.159089586622854e-17 -1.398914896034477e-17 1.0
  outer loop
    vertex 4797.201828499477 2662.2532386339935 1.9291338582676025
    vertex 4797.083718263258 2662.2532386339935 1.9291338582676023
    vertex 4797.201828499477 2661.7985142245448 1.9291338582676025
  endloop
endfacet
facet normal -0.0 1.0 -0.0
  outer loop
    vertex 4797.083718263258 2662.2532386339935 1.9291338582676023
    vertex 4797.201828499477 2662.2532386339935 1.4763779527557919
    vertex 4797.083718263258 2662.2532386339935 1.4763779527557914
  endloop
endfacet
facet normal -0.0 1.0 -0.0
  outer loop
    vertex 4797.201828499477 2662.2532386339935 1.4763779527557919
    vertex 4797.083718263258 2662.2532386339935 1.9291338582676023
    vertex 4797.201828499477 2662.2532386339935 1.9291338582676025
  endloop
endfacet
facet normal -1.1525243456220702e-17 -0.7071067811865464 0.7071067811865488
  outer loop
    vertex 4797.201828499477 2663.1036323347807 1.4173228346455553
    vertex 4797.083718263258 2663.162687452891 1.4763779527557914
    vertex 4797.083718263258 2663.1036323347807 1.4173228346455553
  endloop
endfacet
facet normal -1.1525243456220702e-17 -0.7071067811865464 0.7071067811865488
  outer loop
    vertex 4797.083718263258 2663.162687452891 1.4763779527557914
    vertex 4797.201828499477 2663.1036323347807 1.4173228346455553
    vertex 4797.201828499477 2663.162687452891 1.4763779527557914
  endloop
endfacet
facet normal 0.0 0.0 1.0
  outer loop
    vertex 4797.201828499477 2662.312293752104 1.4173228346455553
    vertex 4797.083718263258 2663.1036323347807 1.4173228346455553
    vertex 4797.083718263258 2662.312293752104 1.4173228346455553
  endloop
endfacet
facet normal 0.0 0.0 1.0
  outer loop
    vertex 4797.083718263258 2663.1036323347807 1.4173228346455553
    vertex 4797.201828499477 2662.312293752104 1.4173228346455553
    vertex 4797.201828499477 2663.1036323347807 1.4173228346455553
  endloop
endfacet
facet normal -1.3715039712903005e-15 0.7071067811865476 0.7071067811865476
  outer loop
    vertex 4797.083718263258 2662.2532386339935 1.4763779527557914
    vertex 4797.201828499477 2662.312293752104 1.4173228346455553
    vertex 4797.083718263258 2662.312293752104 1.4173228346455553
  endloop
endfacet
facet normal -1.3715039712903005e-15 0.7071067811865476 0.7071067811865476
  outer loop
    vertex 4797.201828499477 2662.312293752104 1.4173228346455553
    vertex 4797.083718263258 2662.2532386339935 1.4763779527557914
    vertex 4797.201828499477 2662.2532386339935 1.4763779527557919
  endloop
endfacet
endsolid BatteryBoxHolder
