solid EverythingRightSize
facet normal -0.7933533402912353 -0.6087614290087204 -1.6894806961408065e-32
  outer loop
    vertex 65.55252597806559 40.33316314834334 0.7874015748031518
    vertex 65.65419635669612 40.20066373124564 2.0122792321330962e-15
    vertex 65.65419635669612 40.20066373124564 0.7874015748031518
  endloop
endfacet
facet normal -0.7933533402912353 -0.6087614290087204 -1.6894806961408065e-32
  outer loop
    vertex 65.65419635669612 40.20066373124564 2.0122792321330962e-15
    vertex 65.55252597806559 40.33316314834334 0.7874015748031518
    vertex 65.55252597806559 40.33316314834334 2.0122792321330962e-15
  endloop
endfacet
facet normal -0.7933533402912358 0.6087614290087198 -1.437937637550833e-32
  outer loop
    vertex 66.59243837237366 40.372533227083494 0.7874015748031518
    vertex 66.50328127111304 40.25634143055167 2.0122792321330962e-15
    vertex 66.50328127111304 40.25634143055167 0.7874015748031518
  endloop
endfacet
facet normal -0.7933533402912358 0.6087614290087198 -1.437937637550833e-32
  outer loop
    vertex 66.50328127111304 40.25634143055167 2.0122792321330962e-15
    vertex 66.59243837237366 40.372533227083494 0.7874015748031518
    vertex 66.59243837237366 40.372533227083494 2.0122792321330962e-15
  endloop
endfacet
facet normal -0.9238795325112864 -0.3826834323650906 -1.9000411816093163e-32
  outer loop
    vertex 65.48861330618762 40.487461987598614 0.7874015748031518
    vertex 65.55252597806559 40.33316314834334 2.0122792321330962e-15
    vertex 65.55252597806559 40.33316314834334 0.7874015748031518
  endloop
endfacet
facet normal -0.9238795325112864 -0.3826834323650906 -1.9000411816093163e-32
  outer loop
    vertex 65.55252597806559 40.33316314834334 2.0122792321330962e-15
    vertex 65.48861330618762 40.487461987598614 0.7874015748031518
    vertex 65.48861330618762 40.487461987598614 2.0122792321330962e-15
  endloop
endfacet
facet normal 0.9914448613738106 -0.13052619222005057 1.9271829697913814e-32
  outer loop
    vertex 66.74634144308516 40.653045038107116 2.0122792321330962e-15
    vertex 66.72454202092757 40.487461987598614 0.7874015748031518
    vertex 66.72454202092757 40.487461987598614 2.0122792321330962e-15
  endloop
endfacet
facet normal 0.9914448613738106 -0.13052619222005057 1.9271829697913814e-32
  outer loop
    vertex 66.72454202092757 40.487461987598614 0.7874015748031518
    vertex 66.74634144308516 40.653045038107116 2.0122792321330962e-15
    vertex 66.74634144308516 40.653045038107116 0.7874015748031518
  endloop
endfacet
facet normal 0.0 1.0 0.0
  outer loop
    vertex 64.3349241202505 42.424698581414205 -0.11811023622046964
    vertex 67.87823120686468 42.424698581414205 2.0122792321330962e-15
    vertex 67.87823120686468 42.424698581414205 -0.11811023622047007
  endloop
endfacet
facet normal 0.0 1.0 0.0
  outer loop
    vertex 67.87823120686468 42.424698581414205 2.0122792321330962e-15
    vertex 64.3349241202505 42.424698581414205 -0.11811023622046964
    vertex 64.3349241202505 42.424698581414205 2.0122792321330962e-15
  endloop
endfacet
facet normal -0.7933533402912352 0.6087614290087207 -1.4379376375508313e-32
  outer loop
    vertex 65.65419635669612 41.105426344968585 0.7874015748031518
    vertex 65.55252597806559 40.972926927870894 2.0122792321330962e-15
    vertex 65.55252597806559 40.972926927870894 0.7874015748031518
  endloop
endfacet
facet normal -0.7933533402912352 0.6087614290087207 -1.4379376375508313e-32
  outer loop
    vertex 65.55252597806559 40.972926927870894 2.0122792321330962e-15
    vertex 65.65419635669612 41.105426344968585 0.7874015748031518
    vertex 65.65419635669612 41.105426344968585 2.0122792321330962e-15
  endloop
endfacet
facet normal -0.6087614290087208 0.7933533402912352 -1.0359675969126236e-32
  outer loop
    vertex 66.38708947458122 40.16718432929104 0.7874015748031518
    vertex 66.50328127111304 40.25634143055167 2.0122792321330962e-15
    vertex 66.38708947458122 40.16718432929104 2.0122792321330962e-15
  endloop
endfacet
facet normal -0.6087614290087208 0.7933533402912352 -1.0359675969126236e-32
  outer loop
    vertex 66.50328127111304 40.25634143055167 2.0122792321330962e-15
    vertex 66.38708947458122 40.16718432929104 0.7874015748031518
    vertex 66.50328127111304 40.25634143055167 0.7874015748031518
  endloop
endfacet
facet normal -0.9238795325112872 0.3826834323650888 -1.7419146044942532e-32
  outer loop
    vertex 65.55252597806559 40.972926927870894 0.7874015748031518
    vertex 65.48861330618762 40.81862808861562 2.0122792321330962e-15
    vertex 65.48861330618762 40.81862808861562 0.7874015748031518
  endloop
endfacet
facet normal -0.9238795325112872 0.3826834323650888 -1.7419146044942532e-32
  outer loop
    vertex 65.48861330618762 40.81862808861562 2.0122792321330962e-15
    vertex 65.55252597806559 40.972926927870894 0.7874015748031518
    vertex 65.55252597806559 40.972926927870894 2.0122792321330962e-15
  endloop
endfacet
facet normal 0.38268343236508995 -0.9238795325112867 5.633980765622209e-33
  outer loop
    vertex 65.96137406541938 41.194952243800785 0.7874015748031518
    vertex 65.82606585253397 41.138905746923186 2.0122792321330962e-15
    vertex 65.96137406541938 41.194952243800785 2.0122792321330962e-15
  endloop
endfacet
facet normal 0.38268343236508995 -0.9238795325112867 5.633980765622209e-33
  outer loop
    vertex 65.82606585253397 41.138905746923186 2.0122792321330962e-15
    vertex 65.96137406541938 41.194952243800785 0.7874015748031518
    vertex 65.82606585253397 41.138905746923186 0.7874015748031518
  endloop
endfacet
facet normal 0.38268343236509 -0.9238795325112867 5.633980765622209e-33
  outer loop
    vertex 66.42645955332138 40.0989933526151 0.7874015748031518
    vertex 66.2721607140661 40.03508068073714 2.0122792321330962e-15
    vertex 66.42645955332138 40.0989933526151 2.0122792321330962e-15
  endloop
endfacet
facet normal 0.38268343236509 -0.9238795325112867 5.633980765622209e-33
  outer loop
    vertex 66.2721607140661 40.03508068073714 2.0122792321330962e-15
    vertex 66.42645955332138 40.0989933526151 0.7874015748031518
    vertex 66.2721607140661 40.03508068073714 0.7874015748031518
  endloop
endfacet
facet normal -1.971012268344129e-32 -2.0660232942121192e-33 1.0
  outer loop
    vertex 65.48861330618762 40.487461987598614 0.7874015748031518
    vertex 65.48861330618762 40.81862808861562 0.7874015748031518
    vertex 65.46681388403003 40.653045038107116 0.7874015748031518
  endloop
endfacet
facet normal -1.971012268344129e-32 -2.0660232942121192e-33 1.0
  outer loop
    vertex 65.48861330618762 40.81862808861562 0.7874015748031518
    vertex 65.48861330618762 40.487461987598614 0.7874015748031518
    vertex 65.55252597806559 40.33316314834334 0.7874015748031518
  endloop
endfacet
facet normal -1.971012268344129e-32 -2.0660232942121192e-33 1.0
  outer loop
    vertex 65.48861330618762 40.81862808861562 0.7874015748031518
    vertex 65.55252597806559 40.33316314834334 0.7874015748031518
    vertex 65.54555404151036 40.653045038107116 0.7874015748031518
  endloop
endfacet
facet normal -1.971012268344129e-32 -2.0660232942121192e-33 1.0
  outer loop
    vertex 65.54555404151036 40.653045038107116 0.7874015748031518
    vertex 65.55252597806559 40.33316314834334 0.7874015748031518
    vertex 65.56467045786393 40.50784143996889 0.7874015748031518
  endloop
endfacet
facet normal -1.971012268344129e-32 -2.0660232942121192e-33 1.0
  outer loop
    vertex 65.56467045786393 40.50784143996889 0.7874015748031518
    vertex 65.55252597806559 40.33316314834334 0.7874015748031518
    vertex 65.65419635669612 40.20066373124564 0.7874015748031518
  endloop
endfacet
facet normal -1.971012268344129e-32 -2.0660232942121192e-33 1.0
  outer loop
    vertex 65.56467045786393 40.50784143996889 0.7874015748031518
    vertex 65.65419635669612 40.20066373124564 0.7874015748031518
    vertex 65.62071695474152 40.372533227083494 0.7874015748031518
  endloop
endfacet
facet normal -1.971012268344129e-32 -2.0660232942121192e-33 1.0
  outer loop
    vertex 65.62071695474152 40.372533227083494 0.7874015748031518
    vertex 65.65419635669612 40.20066373124564 0.7874015748031518
    vertex 65.70987405600215 40.25634143055167 0.7874015748031518
  endloop
endfacet
facet normal -1.971012268344129e-32 -2.0660232942121192e-33 1.0
  outer loop
    vertex 65.70987405600215 40.25634143055167 0.7874015748031518
    vertex 65.65419635669612 40.20066373124564 0.7874015748031518
    vertex 65.78669577379382 40.0989933526151 0.7874015748031518
  endloop
endfacet
facet normal -1.971012268344129e-32 -2.0660232942121192e-33 1.0
  outer loop
    vertex 65.70987405600215 40.25634143055167 0.7874015748031518
    vertex 65.78669577379382 40.0989933526151 0.7874015748031518
    vertex 65.82606585253397 40.16718432929104 0.7874015748031518
  endloop
endfacet
facet normal -1.971012268344129e-32 -2.0660232942121192e-33 1.0
  outer loop
    vertex 65.82606585253397 40.16718432929104 0.7874015748031518
    vertex 65.78669577379382 40.0989933526151 0.7874015748031518
    vertex 65.9409946130491 40.03508068073714 0.7874015748031518
  endloop
endfacet
facet normal -1.971012268344129e-32 -2.0660232942121192e-33 1.0
  outer loop
    vertex 65.82606585253397 40.16718432929104 0.7874015748031518
    vertex 65.9409946130491 40.03508068073714 0.7874015748031518
    vertex 65.96137406541938 40.11113783241345 0.7874015748031518
  endloop
endfacet
facet normal -1.971012268344129e-32 -2.0660232942121192e-33 1.0
  outer loop
    vertex 65.96137406541938 40.11113783241345 0.7874015748031518
    vertex 65.9409946130491 40.03508068073714 0.7874015748031518
    vertex 66.1065776635576 40.01328125857955 0.7874015748031518
  endloop
endfacet
facet normal -1.971012268344129e-32 -2.0660232942121192e-33 1.0
  outer loop
    vertex 65.96137406541938 40.11113783241345 0.7874015748031518
    vertex 66.1065776635576 40.01328125857955 0.7874015748031518
    vertex 66.1065776635576 40.09202141605987 0.7874015748031518
  endloop
endfacet
facet normal -1.971012268344129e-32 -2.0660232942121192e-33 1.0
  outer loop
    vertex 66.1065776635576 40.09202141605987 0.7874015748031518
    vertex 66.1065776635576 40.01328125857955 0.7874015748031518
    vertex 66.2721607140661 40.03508068073714 0.7874015748031518
  endloop
endfacet
facet normal -1.971012268344129e-32 -2.0660232942121192e-33 1.0
  outer loop
    vertex 66.1065776635576 40.09202141605987 0.7874015748031518
    vertex 66.2721607140661 40.03508068073714 0.7874015748031518
    vertex 66.25178126169583 40.11113783241345 0.7874015748031518
  endloop
endfacet
facet normal -1.971012268344129e-32 -2.0660232942121192e-33 1.0
  outer loop
    vertex 66.25178126169583 40.11113783241345 0.7874015748031518
    vertex 66.2721607140661 40.03508068073714 0.7874015748031518
    vertex 66.38708947458122 40.16718432929104 0.7874015748031518
  endloop
endfacet
facet normal -1.971012268344129e-32 -2.0660232942121192e-33 1.0
  outer loop
    vertex 66.38708947458122 40.16718432929104 0.7874015748031518
    vertex 66.2721607140661 40.03508068073714 0.7874015748031518
    vertex 66.42645955332138 40.0989933526151 0.7874015748031518
  endloop
endfacet
facet normal -1.971012268344129e-32 -2.0660232942121192e-33 1.0
  outer loop
    vertex 66.38708947458122 40.16718432929104 0.7874015748031518
    vertex 66.42645955332138 40.0989933526151 0.7874015748031518
    vertex 66.50328127111304 40.25634143055167 0.7874015748031518
  endloop
endfacet
facet normal -1.971012268344129e-32 -2.0660232942121192e-33 1.0
  outer loop
    vertex 66.50328127111304 40.25634143055167 0.7874015748031518
    vertex 66.42645955332138 40.0989933526151 0.7874015748031518
    vertex 66.55895897041907 40.20066373124564 0.7874015748031518
  endloop
endfacet
facet normal -1.971012268344129e-32 -2.0660232942121192e-33 1.0
  outer loop
    vertex 66.50328127111304 40.25634143055167 0.7874015748031518
    vertex 66.55895897041907 40.20066373124564 0.7874015748031518
    vertex 66.59243837237366 40.372533227083494 0.7874015748031518
  endloop
endfacet
facet normal -1.971012268344129e-32 -2.0660232942121192e-33 1.0
  outer loop
    vertex 66.59243837237366 40.372533227083494 0.7874015748031518
    vertex 66.55895897041907 40.20066373124564 0.7874015748031518
    vertex 66.66062934904961 40.33316314834334 0.7874015748031518
  endloop
endfacet
facet normal -1.971012268344129e-32 -2.0660232942121192e-33 1.0
  outer loop
    vertex 66.59243837237366 40.372533227083494 0.7874015748031518
    vertex 66.66062934904961 40.33316314834334 0.7874015748031518
    vertex 66.64848486925126 40.50784143996889 0.7874015748031518
  endloop
endfacet
facet normal -1.971012268344129e-32 -2.0660232942121192e-33 1.0
  outer loop
    vertex 66.64848486925126 40.50784143996889 0.7874015748031518
    vertex 66.66062934904961 40.33316314834334 0.7874015748031518
    vertex 66.66760128560485 40.653045038107116 0.7874015748031518
  endloop
endfacet
facet normal -1.971012268344129e-32 -2.0660232942121192e-33 1.0
  outer loop
    vertex 66.66760128560485 40.653045038107116 0.7874015748031518
    vertex 66.66062934904961 40.33316314834334 0.7874015748031518
    vertex 66.72454202092757 40.487461987598614 0.7874015748031518
  endloop
endfacet
facet normal -1.971012268344129e-32 -2.0660232942121192e-33 1.0
  outer loop
    vertex 65.54555404151036 40.653045038107116 0.7874015748031518
    vertex 65.55252597806559 40.972926927870894 0.7874015748031518
    vertex 65.48861330618762 40.81862808861562 0.7874015748031518
  endloop
endfacet
facet normal -1.971012268344129e-32 -2.0660232942121192e-33 1.0
  outer loop
    vertex 65.55252597806559 40.972926927870894 0.7874015748031518
    vertex 65.54555404151036 40.653045038107116 0.7874015748031518
    vertex 65.56467045786393 40.79824863624534 0.7874015748031518
  endloop
endfacet
facet normal -1.971012268344129e-32 -2.0660232942121192e-33 1.0
  outer loop
    vertex 65.55252597806559 40.972926927870894 0.7874015748031518
    vertex 65.56467045786393 40.79824863624534 0.7874015748031518
    vertex 65.65419635669612 41.105426344968585 0.7874015748031518
  endloop
endfacet
facet normal -1.971012268344129e-32 -2.0660232942121192e-33 1.0
  outer loop
    vertex 65.65419635669612 41.105426344968585 0.7874015748031518
    vertex 65.56467045786393 40.79824863624534 0.7874015748031518
    vertex 65.62071695474152 40.93355684913074 0.7874015748031518
  endloop
endfacet
facet normal -1.971012268344129e-32 -2.0660232942121192e-33 1.0
  outer loop
    vertex 65.65419635669612 41.105426344968585 0.7874015748031518
    vertex 65.62071695474152 40.93355684913074 0.7874015748031518
    vertex 65.70987405600215 41.04974864566256 0.7874015748031518
  endloop
endfacet
facet normal -1.971012268344129e-32 -2.0660232942121192e-33 1.0
  outer loop
    vertex 65.65419635669612 41.105426344968585 0.7874015748031518
    vertex 65.70987405600215 41.04974864566256 0.7874015748031518
    vertex 65.78669577379382 41.20709672359913 0.7874015748031518
  endloop
endfacet
facet normal -1.971012268344129e-32 -2.0660232942121192e-33 1.0
  outer loop
    vertex 65.78669577379382 41.20709672359913 0.7874015748031518
    vertex 65.70987405600215 41.04974864566256 0.7874015748031518
    vertex 65.82606585253397 41.138905746923186 0.7874015748031518
  endloop
endfacet
facet normal -1.971012268344129e-32 -2.0660232942121192e-33 1.0
  outer loop
    vertex 65.78669577379382 41.20709672359913 0.7874015748031518
    vertex 65.82606585253397 41.138905746923186 0.7874015748031518
    vertex 65.9409946130491 41.27100939547709 0.7874015748031518
  endloop
endfacet
facet normal -1.971012268344129e-32 -2.0660232942121192e-33 1.0
  outer loop
    vertex 65.9409946130491 41.27100939547709 0.7874015748031518
    vertex 65.82606585253397 41.138905746923186 0.7874015748031518
    vertex 65.96137406541938 41.194952243800785 0.7874015748031518
  endloop
endfacet
facet normal -1.971012268344129e-32 -2.0660232942121192e-33 1.0
  outer loop
    vertex 65.9409946130491 41.27100939547709 0.7874015748031518
    vertex 65.96137406541938 41.194952243800785 0.7874015748031518
    vertex 66.1065776635576 41.29280881763467 0.7874015748031518
  endloop
endfacet
facet normal -1.971012268344129e-32 -2.0660232942121192e-33 1.0
  outer loop
    vertex 66.1065776635576 41.29280881763467 0.7874015748031518
    vertex 65.96137406541938 41.194952243800785 0.7874015748031518
    vertex 66.1065776635576 41.21406866015436 0.7874015748031518
  endloop
endfacet
facet normal -1.971012268344129e-32 -2.0660232942121192e-33 1.0
  outer loop
    vertex 66.1065776635576 41.29280881763467 0.7874015748031518
    vertex 66.1065776635576 41.21406866015436 0.7874015748031518
    vertex 66.25178126169583 41.194952243800785 0.7874015748031518
  endloop
endfacet
facet normal -1.971012268344129e-32 -2.0660232942121192e-33 1.0
  outer loop
    vertex 66.1065776635576 41.29280881763467 0.7874015748031518
    vertex 66.25178126169583 41.194952243800785 0.7874015748031518
    vertex 66.2721607140661 41.27100939547709 0.7874015748031518
  endloop
endfacet
facet normal -1.971012268344129e-32 -2.0660232942121192e-33 1.0
  outer loop
    vertex 66.2721607140661 41.27100939547709 0.7874015748031518
    vertex 66.25178126169583 41.194952243800785 0.7874015748031518
    vertex 66.38708947458122 41.138905746923186 0.7874015748031518
  endloop
endfacet
facet normal -1.971012268344129e-32 -2.0660232942121192e-33 1.0
  outer loop
    vertex 66.2721607140661 41.27100939547709 0.7874015748031518
    vertex 66.38708947458122 41.138905746923186 0.7874015748031518
    vertex 66.42645955332138 41.20709672359913 0.7874015748031518
  endloop
endfacet
facet normal -1.971012268344129e-32 -2.0660232942121192e-33 1.0
  outer loop
    vertex 66.42645955332138 41.20709672359913 0.7874015748031518
    vertex 66.38708947458122 41.138905746923186 0.7874015748031518
    vertex 66.50328127111304 41.04974864566256 0.7874015748031518
  endloop
endfacet
facet normal -1.971012268344129e-32 -2.0660232942121192e-33 1.0
  outer loop
    vertex 66.42645955332138 41.20709672359913 0.7874015748031518
    vertex 66.50328127111304 41.04974864566256 0.7874015748031518
    vertex 66.55895897041907 41.105426344968585 0.7874015748031518
  endloop
endfacet
facet normal -1.971012268344129e-32 -2.0660232942121192e-33 1.0
  outer loop
    vertex 66.55895897041907 41.105426344968585 0.7874015748031518
    vertex 66.50328127111304 41.04974864566256 0.7874015748031518
    vertex 66.59243837237366 40.93355684913074 0.7874015748031518
  endloop
endfacet
facet normal -1.971012268344129e-32 -2.0660232942121192e-33 1.0
  outer loop
    vertex 66.55895897041907 41.105426344968585 0.7874015748031518
    vertex 66.59243837237366 40.93355684913074 0.7874015748031518
    vertex 66.66062934904961 40.972926927870894 0.7874015748031518
  endloop
endfacet
facet normal -1.971012268344129e-32 -2.0660232942121192e-33 1.0
  outer loop
    vertex 66.66062934904961 40.972926927870894 0.7874015748031518
    vertex 66.59243837237366 40.93355684913074 0.7874015748031518
    vertex 66.64848486925126 40.79824863624534 0.7874015748031518
  endloop
endfacet
facet normal -1.971012268344129e-32 -2.0660232942121192e-33 1.0
  outer loop
    vertex 66.66062934904961 40.972926927870894 0.7874015748031518
    vertex 66.64848486925126 40.79824863624534 0.7874015748031518
    vertex 66.66760128560485 40.653045038107116 0.7874015748031518
  endloop
endfacet
facet normal -1.971012268344129e-32 -2.0660232942121192e-33 1.0
  outer loop
    vertex 66.66062934904961 40.972926927870894 0.7874015748031518
    vertex 66.66760128560485 40.653045038107116 0.7874015748031518
    vertex 66.72454202092757 40.81862808861562 0.7874015748031518
  endloop
endfacet
facet normal -1.971012268344129e-32 -2.0660232942121192e-33 1.0
  outer loop
    vertex 66.72454202092757 40.81862808861562 0.7874015748031518
    vertex 66.66760128560485 40.653045038107116 0.7874015748031518
    vertex 66.72454202092757 40.487461987598614 0.7874015748031518
  endloop
endfacet
facet normal -1.971012268344129e-32 -2.0660232942121192e-33 1.0
  outer loop
    vertex 66.72454202092757 40.81862808861562 0.7874015748031518
    vertex 66.72454202092757 40.487461987598614 0.7874015748031518
    vertex 66.74634144308516 40.653045038107116 0.7874015748031518
  endloop
endfacet
facet normal -0.13052619222005074 -0.9914448613738105 -4.6210354405848366e-33
  outer loop
    vertex 66.1065776635576 40.01328125857955 0.7874015748031518
    vertex 65.9409946130491 40.03508068073714 2.0122792321330962e-15
    vertex 66.1065776635576 40.01328125857955 2.0122792321330962e-15
  endloop
endfacet
facet normal -0.13052619222005074 -0.9914448613738105 -4.6210354405848366e-33
  outer loop
    vertex 65.9409946130491 40.03508068073714 2.0122792321330962e-15
    vertex 66.1065776635576 40.01328125857955 0.7874015748031518
    vertex 65.9409946130491 40.03508068073714 0.7874015748031518
  endloop
endfacet
facet normal 0.13052619222004944 -0.9914448613738108 5.243390835344164e-34
  outer loop
    vertex 66.1065776635576 41.21406866015436 0.7874015748031518
    vertex 65.96137406541938 41.194952243800785 2.0122792321330962e-15
    vertex 66.1065776635576 41.21406866015436 2.0122792321330962e-15
  endloop
endfacet
facet normal 0.13052619222004944 -0.9914448613738108 5.243390835344164e-34
  outer loop
    vertex 65.96137406541938 41.194952243800785 2.0122792321330962e-15
    vertex 66.1065776635576 41.21406866015436 0.7874015748031518
    vertex 65.96137406541938 41.194952243800785 0.7874015748031518
  endloop
endfacet
facet normal 0.6087614290087224 0.7933533402912339 1.3637848932291636e-32
  outer loop
    vertex 66.42645955332138 41.20709672359913 0.7874015748031518
    vertex 66.55895897041907 41.105426344968585 2.0122792321330962e-15
    vertex 66.42645955332138 41.20709672359913 2.0122792321330962e-15
  endloop
endfacet
facet normal 0.6087614290087224 0.7933533402912339 1.3637848932291636e-32
  outer loop
    vertex 66.55895897041907 41.105426344968585 2.0122792321330962e-15
    vertex 66.42645955332138 41.20709672359913 0.7874015748031518
    vertex 66.55895897041907 41.105426344968585 0.7874015748031518
  endloop
endfacet
facet normal -0.6087614290087213 0.7933533402912348 -1.0359675969126247e-32
  outer loop
    vertex 65.65419635669612 41.105426344968585 0.7874015748031518
    vertex 65.78669577379382 41.20709672359913 2.0122792321330962e-15
    vertex 65.65419635669612 41.105426344968585 2.0122792321330962e-15
  endloop
endfacet
facet normal -0.6087614290087213 0.7933533402912348 -1.0359675969126247e-32
  outer loop
    vertex 65.78669577379382 41.20709672359913 2.0122792321330962e-15
    vertex 65.65419635669612 41.105426344968585 0.7874015748031518
    vertex 65.78669577379382 41.20709672359913 0.7874015748031518
  endloop
endfacet
facet normal -0.9914448613738104 -0.13052619222005252 -1.981117000517668e-32
  outer loop
    vertex 66.64848486925126 40.79824863624534 0.7874015748031518
    vertex 66.66760128560485 40.653045038107116 2.0122792321330962e-15
    vertex 66.66760128560485 40.653045038107116 0.7874015748031518
  endloop
endfacet
facet normal -0.9914448613738104 -0.13052619222005252 -1.981117000517668e-32
  outer loop
    vertex 66.66760128560485 40.653045038107116 2.0122792321330962e-15
    vertex 66.64848486925126 40.79824863624534 0.7874015748031518
    vertex 66.64848486925126 40.79824863624534 2.0122792321330962e-15
  endloop
endfacet
facet normal -0.7933533402912358 -0.6087614290087198 -1.6894806961408076e-32
  outer loop
    vertex 66.50328127111304 41.04974864566256 0.7874015748031518
    vertex 66.59243837237366 40.93355684913074 2.0122792321330962e-15
    vertex 66.59243837237366 40.93355684913074 0.7874015748031518
  endloop
endfacet
facet normal -0.7933533402912358 -0.6087614290087198 -1.6894806961408076e-32
  outer loop
    vertex 66.59243837237366 40.93355684913074 2.0122792321330962e-15
    vertex 66.50328127111304 41.04974864566256 0.7874015748031518
    vertex 66.50328127111304 41.04974864566256 2.0122792321330962e-15
  endloop
endfacet
facet normal -1.0827612676739615e-33 1.2482713709681615e-33 1.0
  outer loop
    vertex 64.3349241202505 38.88139149480003 2.0122792321330962e-15
    vertex 65.55252597806559 40.33316314834334 2.0122792321330962e-15
    vertex 64.3349241202505 42.424698581414205 2.0122792321330962e-15
  endloop
endfacet
facet normal -1.0827612676739615e-33 1.2482713709681615e-33 1.0
  outer loop
    vertex 65.55252597806559 40.33316314834334 2.0122792321330962e-15
    vertex 64.3349241202505 38.88139149480003 2.0122792321330962e-15
    vertex 65.65419635669612 40.20066373124564 2.0122792321330962e-15
  endloop
endfacet
facet normal -1.0827612676739615e-33 1.2482713709681615e-33 1.0
  outer loop
    vertex 65.65419635669612 40.20066373124564 2.0122792321330962e-15
    vertex 64.3349241202505 38.88139149480003 2.0122792321330962e-15
    vertex 65.78669577379382 40.0989933526151 2.0122792321330962e-15
  endloop
endfacet
facet normal -1.0827612676739615e-33 1.2482713709681615e-33 1.0
  outer loop
    vertex 65.78669577379382 40.0989933526151 2.0122792321330962e-15
    vertex 64.3349241202505 38.88139149480003 2.0122792321330962e-15
    vertex 67.87823120686468 38.88139149480003 2.0122792321330962e-15
  endloop
endfacet
facet normal -1.0827612676739615e-33 1.2482713709681615e-33 1.0
  outer loop
    vertex 64.3349241202505 42.424698581414205 2.0122792321330962e-15
    vertex 65.55252597806559 40.33316314834334 2.0122792321330962e-15
    vertex 65.48861330618762 40.487461987598614 2.0122792321330962e-15
  endloop
endfacet
facet normal -1.0827612676739615e-33 1.2482713709681615e-33 1.0
  outer loop
    vertex 64.3349241202505 42.424698581414205 2.0122792321330962e-15
    vertex 65.48861330618762 40.487461987598614 2.0122792321330962e-15
    vertex 65.46681388403003 40.653045038107116 2.0122792321330962e-15
  endloop
endfacet
facet normal -1.0827612676739615e-33 1.2482713709681615e-33 1.0
  outer loop
    vertex 65.78669577379382 40.0989933526151 2.0122792321330962e-15
    vertex 67.87823120686468 38.88139149480003 2.0122792321330962e-15
    vertex 65.9409946130491 40.03508068073714 2.0122792321330962e-15
  endloop
endfacet
facet normal -1.0827612676739615e-33 1.2482713709681615e-33 1.0
  outer loop
    vertex 65.9409946130491 40.03508068073714 2.0122792321330962e-15
    vertex 67.87823120686468 38.88139149480003 2.0122792321330962e-15
    vertex 66.1065776635576 40.01328125857955 2.0122792321330962e-15
  endloop
endfacet
facet normal -1.0827612676739615e-33 1.2482713709681615e-33 1.0
  outer loop
    vertex 66.1065776635576 40.01328125857955 2.0122792321330962e-15
    vertex 67.87823120686468 38.88139149480003 2.0122792321330962e-15
    vertex 66.2721607140661 40.03508068073714 2.0122792321330962e-15
  endloop
endfacet
facet normal -1.0827612676739615e-33 1.2482713709681615e-33 1.0
  outer loop
    vertex 66.2721607140661 40.03508068073714 2.0122792321330962e-15
    vertex 67.87823120686468 38.88139149480003 2.0122792321330962e-15
    vertex 66.42645955332138 40.0989933526151 2.0122792321330962e-15
  endloop
endfacet
facet normal -1.0827612676739615e-33 1.2482713709681615e-33 1.0
  outer loop
    vertex 66.42645955332138 40.0989933526151 2.0122792321330962e-15
    vertex 67.87823120686468 38.88139149480003 2.0122792321330962e-15
    vertex 66.55895897041907 40.20066373124564 2.0122792321330962e-15
  endloop
endfacet
facet normal -1.0827612676739615e-33 1.2482713709681615e-33 1.0
  outer loop
    vertex 66.55895897041907 40.20066373124564 2.0122792321330962e-15
    vertex 67.87823120686468 38.88139149480003 2.0122792321330962e-15
    vertex 66.66062934904961 40.33316314834334 2.0122792321330962e-15
  endloop
endfacet
facet normal -1.0827612676739615e-33 1.2482713709681615e-33 1.0
  outer loop
    vertex 66.66062934904961 40.33316314834334 2.0122792321330962e-15
    vertex 67.87823120686468 38.88139149480003 2.0122792321330962e-15
    vertex 66.72454202092757 40.487461987598614 2.0122792321330962e-15
  endloop
endfacet
facet normal -1.0827612676739615e-33 1.2482713709681615e-33 1.0
  outer loop
    vertex 66.72454202092757 40.487461987598614 2.0122792321330962e-15
    vertex 67.87823120686468 38.88139149480003 2.0122792321330962e-15
    vertex 66.74634144308516 40.653045038107116 2.0122792321330962e-15
  endloop
endfacet
facet normal -1.0827612676739615e-33 1.2482713709681615e-33 1.0
  outer loop
    vertex 64.3349241202505 42.424698581414205 2.0122792321330962e-15
    vertex 65.78669577379382 41.20709672359913 2.0122792321330962e-15
    vertex 67.87823120686468 42.424698581414205 2.0122792321330962e-15
  endloop
endfacet
facet normal -1.0827612676739615e-33 1.2482713709681615e-33 1.0
  outer loop
    vertex 65.78669577379382 41.20709672359913 2.0122792321330962e-15
    vertex 64.3349241202505 42.424698581414205 2.0122792321330962e-15
    vertex 65.65419635669612 41.105426344968585 2.0122792321330962e-15
  endloop
endfacet
facet normal -1.0827612676739615e-33 1.2482713709681615e-33 1.0
  outer loop
    vertex 65.65419635669612 41.105426344968585 2.0122792321330962e-15
    vertex 64.3349241202505 42.424698581414205 2.0122792321330962e-15
    vertex 65.55252597806559 40.972926927870894 2.0122792321330962e-15
  endloop
endfacet
facet normal -1.0827612676739615e-33 1.2482713709681615e-33 1.0
  outer loop
    vertex 65.55252597806559 40.972926927870894 2.0122792321330962e-15
    vertex 64.3349241202505 42.424698581414205 2.0122792321330962e-15
    vertex 65.48861330618762 40.81862808861562 2.0122792321330962e-15
  endloop
endfacet
facet normal -1.0827612676739615e-33 1.2482713709681615e-33 1.0
  outer loop
    vertex 65.48861330618762 40.81862808861562 2.0122792321330962e-15
    vertex 64.3349241202505 42.424698581414205 2.0122792321330962e-15
    vertex 65.46681388403003 40.653045038107116 2.0122792321330962e-15
  endloop
endfacet
facet normal -1.0827612676739615e-33 1.2482713709681615e-33 1.0
  outer loop
    vertex 67.87823120686468 42.424698581414205 2.0122792321330962e-15
    vertex 65.78669577379382 41.20709672359913 2.0122792321330962e-15
    vertex 65.9409946130491 41.27100939547709 2.0122792321330962e-15
  endloop
endfacet
facet normal -1.0827612676739615e-33 1.2482713709681615e-33 1.0
  outer loop
    vertex 67.87823120686468 42.424698581414205 2.0122792321330962e-15
    vertex 65.9409946130491 41.27100939547709 2.0122792321330962e-15
    vertex 66.1065776635576 41.29280881763467 2.0122792321330962e-15
  endloop
endfacet
facet normal -1.0827612676739615e-33 1.2482713709681615e-33 1.0
  outer loop
    vertex 67.87823120686468 42.424698581414205 2.0122792321330962e-15
    vertex 66.1065776635576 41.29280881763467 2.0122792321330962e-15
    vertex 66.2721607140661 41.27100939547709 2.0122792321330962e-15
  endloop
endfacet
facet normal -1.0827612676739615e-33 1.2482713709681615e-33 1.0
  outer loop
    vertex 67.87823120686468 42.424698581414205 2.0122792321330962e-15
    vertex 66.2721607140661 41.27100939547709 2.0122792321330962e-15
    vertex 66.42645955332138 41.20709672359913 2.0122792321330962e-15
  endloop
endfacet
facet normal -1.0827612676739615e-33 1.2482713709681615e-33 1.0
  outer loop
    vertex 67.87823120686468 42.424698581414205 2.0122792321330962e-15
    vertex 66.42645955332138 41.20709672359913 2.0122792321330962e-15
    vertex 66.55895897041907 41.105426344968585 2.0122792321330962e-15
  endloop
endfacet
facet normal -1.0827612676739615e-33 1.2482713709681615e-33 1.0
  outer loop
    vertex 67.87823120686468 42.424698581414205 2.0122792321330962e-15
    vertex 66.55895897041907 41.105426344968585 2.0122792321330962e-15
    vertex 66.66062934904961 40.972926927870894 2.0122792321330962e-15
  endloop
endfacet
facet normal -1.0827612676739615e-33 1.2482713709681615e-33 1.0
  outer loop
    vertex 67.87823120686468 42.424698581414205 2.0122792321330962e-15
    vertex 66.66062934904961 40.972926927870894 2.0122792321330962e-15
    vertex 66.72454202092757 40.81862808861562 2.0122792321330962e-15
  endloop
endfacet
facet normal -1.0827612676739615e-33 1.2482713709681615e-33 1.0
  outer loop
    vertex 67.87823120686468 42.424698581414205 2.0122792321330962e-15
    vertex 66.72454202092757 40.81862808861562 2.0122792321330962e-15
    vertex 66.74634144308516 40.653045038107116 2.0122792321330962e-15
  endloop
endfacet
facet normal -1.0827612676739615e-33 1.2482713709681615e-33 1.0
  outer loop
    vertex 67.87823120686468 42.424698581414205 2.0122792321330962e-15
    vertex 66.74634144308516 40.653045038107116 2.0122792321330962e-15
    vertex 67.87823120686468 38.88139149480003 2.0122792321330962e-15
  endloop
endfacet
facet normal 0.3826834323650888 0.9238795325112872 9.451494036050429e-33
  outer loop
    vertex 66.2721607140661 41.27100939547709 0.7874015748031518
    vertex 66.42645955332138 41.20709672359913 2.0122792321330962e-15
    vertex 66.2721607140661 41.27100939547709 2.0122792321330962e-15
  endloop
endfacet
facet normal 0.3826834323650888 0.9238795325112872 9.451494036050429e-33
  outer loop
    vertex 66.42645955332138 41.20709672359913 2.0122792321330962e-15
    vertex 66.2721607140661 41.27100939547709 0.7874015748031518
    vertex 66.42645955332138 41.20709672359913 0.7874015748031518
  endloop
endfacet
facet normal 0.7933533402912358 -0.6087614290087198 1.437937637550833e-32
  outer loop
    vertex 65.70987405600215 41.04974864566256 2.0122792321330962e-15
    vertex 65.62071695474152 40.93355684913074 0.7874015748031518
    vertex 65.62071695474152 40.93355684913074 2.0122792321330962e-15
  endloop
endfacet
facet normal 0.7933533402912358 -0.6087614290087198 1.437937637550833e-32
  outer loop
    vertex 65.62071695474152 40.93355684913074 0.7874015748031518
    vertex 65.70987405600215 41.04974864566256 2.0122792321330962e-15
    vertex 65.70987405600215 41.04974864566256 0.7874015748031518
  endloop
endfacet
facet normal 0.0 0.0 1.0
  outer loop
    vertex 66.25178126169583 40.11113783241345 2.0122792321330962e-15
    vertex 66.1065776635576 40.653045038107116 2.0122792321330962e-15
    vertex 66.1065776635576 40.09202141605987 2.0122792321330962e-15
  endloop
endfacet
facet normal 0.0 0.0 1.0
  outer loop
    vertex 66.1065776635576 40.653045038107116 2.0122792321330962e-15
    vertex 66.25178126169583 40.11113783241345 2.0122792321330962e-15
    vertex 66.66760128560485 40.653045038107116 2.0122792321330962e-15
  endloop
endfacet
facet normal 0.0 0.0 1.0
  outer loop
    vertex 66.66760128560485 40.653045038107116 2.0122792321330962e-15
    vertex 66.25178126169583 40.11113783241345 2.0122792321330962e-15
    vertex 66.38708947458122 40.16718432929104 2.0122792321330962e-15
  endloop
endfacet
facet normal 0.0 0.0 1.0
  outer loop
    vertex 66.66760128560485 40.653045038107116 2.0122792321330962e-15
    vertex 66.38708947458122 40.16718432929104 2.0122792321330962e-15
    vertex 66.50328127111304 40.25634143055167 2.0122792321330962e-15
  endloop
endfacet
facet normal 0.0 0.0 1.0
  outer loop
    vertex 66.66760128560485 40.653045038107116 2.0122792321330962e-15
    vertex 66.50328127111304 40.25634143055167 2.0122792321330962e-15
    vertex 66.59243837237366 40.372533227083494 2.0122792321330962e-15
  endloop
endfacet
facet normal 0.0 0.0 1.0
  outer loop
    vertex 66.66760128560485 40.653045038107116 2.0122792321330962e-15
    vertex 66.59243837237366 40.372533227083494 2.0122792321330962e-15
    vertex 66.64848486925126 40.50784143996889 2.0122792321330962e-15
  endloop
endfacet
facet normal 0.1305261922200519 -0.9914448613738104 5.2433908353446565e-34
  outer loop
    vertex 66.2721607140661 40.03508068073714 0.7874015748031518
    vertex 66.1065776635576 40.01328125857955 2.0122792321330962e-15
    vertex 66.2721607140661 40.03508068073714 2.0122792321330962e-15
  endloop
endfacet
facet normal 0.1305261922200519 -0.9914448613738104 5.2433908353446565e-34
  outer loop
    vertex 66.1065776635576 40.01328125857955 2.0122792321330962e-15
    vertex 66.2721607140661 40.03508068073714 0.7874015748031518
    vertex 66.1065776635576 40.01328125857955 0.7874015748031518
  endloop
endfacet
facet normal 0.9914448613738104 0.1305261922200529 1.9811170005176684e-32
  outer loop
    vertex 65.54555404151036 40.653045038107116 2.0122792321330962e-15
    vertex 65.56467045786393 40.50784143996889 0.7874015748031518
    vertex 65.56467045786393 40.50784143996889 2.0122792321330962e-15
  endloop
endfacet
facet normal 0.9914448613738104 0.1305261922200529 1.9811170005176684e-32
  outer loop
    vertex 65.56467045786393 40.50784143996889 0.7874015748031518
    vertex 65.54555404151036 40.653045038107116 2.0122792321330962e-15
    vertex 65.54555404151036 40.653045038107116 0.7874015748031518
  endloop
endfacet
facet normal 0.9238795325112871 0.38268343236508945 1.9000411816093174e-32
  outer loop
    vertex 65.56467045786393 40.50784143996889 2.0122792321330962e-15
    vertex 65.62071695474152 40.372533227083494 0.7874015748031518
    vertex 65.62071695474152 40.372533227083494 2.0122792321330962e-15
  endloop
endfacet
facet normal 0.9238795325112871 0.38268343236508945 1.9000411816093174e-32
  outer loop
    vertex 65.62071695474152 40.372533227083494 0.7874015748031518
    vertex 65.56467045786393 40.50784143996889 2.0122792321330962e-15
    vertex 65.56467045786393 40.50784143996889 0.7874015748031518
  endloop
endfacet
facet normal -0.9914448613738106 -0.13052619222005057 -1.9811170005176678e-32
  outer loop
    vertex 65.46681388403003 40.653045038107116 0.7874015748031518
    vertex 65.48861330618762 40.487461987598614 2.0122792321330962e-15
    vertex 65.48861330618762 40.487461987598614 0.7874015748031518
  endloop
endfacet
facet normal -0.9914448613738106 -0.13052619222005057 -1.9811170005176678e-32
  outer loop
    vertex 65.48861330618762 40.487461987598614 2.0122792321330962e-15
    vertex 65.46681388403003 40.653045038107116 0.7874015748031518
    vertex 65.46681388403003 40.653045038107116 2.0122792321330962e-15
  endloop
endfacet
facet normal 0.9238795325112872 -0.3826834323650888 1.7419146044942532e-32
  outer loop
    vertex 66.72454202092757 40.487461987598614 2.0122792321330962e-15
    vertex 66.66062934904961 40.33316314834334 0.7874015748031518
    vertex 66.66062934904961 40.33316314834334 2.0122792321330962e-15
  endloop
endfacet
facet normal 0.9238795325112872 -0.3826834323650888 1.7419146044942532e-32
  outer loop
    vertex 66.66062934904961 40.33316314834334 0.7874015748031518
    vertex 66.72454202092757 40.487461987598614 2.0122792321330962e-15
    vertex 66.72454202092757 40.487461987598614 0.7874015748031518
  endloop
endfacet
facet normal 0.0 0.0 1.0
  outer loop
    vertex 66.1065776635576 40.653045038107116 2.0122792321330962e-15
    vertex 65.56467045786393 40.79824863624534 2.0122792321330962e-15
    vertex 65.54555404151036 40.653045038107116 2.0122792321330962e-15
  endloop
endfacet
facet normal 0.0 0.0 1.0
  outer loop
    vertex 65.56467045786393 40.79824863624534 2.0122792321330962e-15
    vertex 66.1065776635576 40.653045038107116 2.0122792321330962e-15
    vertex 65.62071695474152 40.93355684913074 2.0122792321330962e-15
  endloop
endfacet
facet normal 0.0 0.0 1.0
  outer loop
    vertex 65.62071695474152 40.93355684913074 2.0122792321330962e-15
    vertex 66.1065776635576 40.653045038107116 2.0122792321330962e-15
    vertex 65.70987405600215 41.04974864566256 2.0122792321330962e-15
  endloop
endfacet
facet normal 0.0 0.0 1.0
  outer loop
    vertex 65.70987405600215 41.04974864566256 2.0122792321330962e-15
    vertex 66.1065776635576 40.653045038107116 2.0122792321330962e-15
    vertex 65.82606585253397 41.138905746923186 2.0122792321330962e-15
  endloop
endfacet
facet normal 0.0 0.0 1.0
  outer loop
    vertex 65.82606585253397 41.138905746923186 2.0122792321330962e-15
    vertex 66.1065776635576 40.653045038107116 2.0122792321330962e-15
    vertex 65.96137406541938 41.194952243800785 2.0122792321330962e-15
  endloop
endfacet
facet normal 0.0 0.0 1.0
  outer loop
    vertex 65.96137406541938 41.194952243800785 2.0122792321330962e-15
    vertex 66.1065776635576 40.653045038107116 2.0122792321330962e-15
    vertex 66.1065776635576 41.21406866015436 2.0122792321330962e-15
  endloop
endfacet
facet normal 0.13052619222005074 0.9914448613738105 4.6210354405848366e-33
  outer loop
    vertex 66.1065776635576 41.29280881763467 0.7874015748031518
    vertex 66.2721607140661 41.27100939547709 2.0122792321330962e-15
    vertex 66.1065776635576 41.29280881763467 2.0122792321330962e-15
  endloop
endfacet
facet normal 0.13052619222005074 0.9914448613738105 4.6210354405848366e-33
  outer loop
    vertex 66.2721607140661 41.27100939547709 2.0122792321330962e-15
    vertex 66.1065776635576 41.29280881763467 0.7874015748031518
    vertex 66.2721607140661 41.27100939547709 0.7874015748031518
  endloop
endfacet
facet normal -0.9914448613738105 0.13052619222005074 -1.9271829697913814e-32
  outer loop
    vertex 65.48861330618762 40.81862808861562 0.7874015748031518
    vertex 65.46681388403003 40.653045038107116 2.0122792321330962e-15
    vertex 65.46681388403003 40.653045038107116 0.7874015748031518
  endloop
endfacet
facet normal -0.9914448613738105 0.13052619222005074 -1.9271829697913814e-32
  outer loop
    vertex 65.46681388403003 40.653045038107116 2.0122792321330962e-15
    vertex 65.48861330618762 40.81862808861562 0.7874015748031518
    vertex 65.48861330618762 40.81862808861562 2.0122792321330962e-15
  endloop
endfacet
facet normal -0.13052619222005307 0.9914448613738103 -5.243390835344892e-34
  outer loop
    vertex 65.9409946130491 41.27100939547709 0.7874015748031518
    vertex 66.1065776635576 41.29280881763467 2.0122792321330962e-15
    vertex 65.9409946130491 41.27100939547709 2.0122792321330962e-15
  endloop
endfacet
facet normal -0.13052619222005307 0.9914448613738103 -5.243390835344892e-34
  outer loop
    vertex 66.1065776635576 41.29280881763467 2.0122792321330962e-15
    vertex 65.9409946130491 41.27100939547709 0.7874015748031518
    vertex 66.1065776635576 41.29280881763467 0.7874015748031518
  endloop
endfacet
facet normal 0.9914448613738107 0.13052619222005024 1.9811170005176684e-32
  outer loop
    vertex 66.72454202092757 40.81862808861562 2.0122792321330962e-15
    vertex 66.74634144308516 40.653045038107116 0.7874015748031518
    vertex 66.74634144308516 40.653045038107116 2.0122792321330962e-15
  endloop
endfacet
facet normal 0.9914448613738107 0.13052619222005024 1.9811170005176684e-32
  outer loop
    vertex 66.74634144308516 40.653045038107116 0.7874015748031518
    vertex 66.72454202092757 40.81862808861562 2.0122792321330962e-15
    vertex 66.72454202092757 40.81862808861562 0.7874015748031518
  endloop
endfacet
facet normal 0.0 0.0 1.0
  outer loop
    vertex 65.56467045786393 40.50784143996889 2.0122792321330962e-15
    vertex 66.1065776635576 40.653045038107116 2.0122792321330962e-15
    vertex 65.54555404151036 40.653045038107116 2.0122792321330962e-15
  endloop
endfacet
facet normal 0.0 0.0 1.0
  outer loop
    vertex 66.1065776635576 40.653045038107116 2.0122792321330962e-15
    vertex 65.56467045786393 40.50784143996889 2.0122792321330962e-15
    vertex 65.62071695474152 40.372533227083494 2.0122792321330962e-15
  endloop
endfacet
facet normal 0.0 0.0 1.0
  outer loop
    vertex 66.1065776635576 40.653045038107116 2.0122792321330962e-15
    vertex 65.62071695474152 40.372533227083494 2.0122792321330962e-15
    vertex 65.70987405600215 40.25634143055167 2.0122792321330962e-15
  endloop
endfacet
facet normal 0.0 0.0 1.0
  outer loop
    vertex 66.1065776635576 40.653045038107116 2.0122792321330962e-15
    vertex 65.70987405600215 40.25634143055167 2.0122792321330962e-15
    vertex 65.82606585253397 40.16718432929104 2.0122792321330962e-15
  endloop
endfacet
facet normal 0.0 0.0 1.0
  outer loop
    vertex 66.1065776635576 40.653045038107116 2.0122792321330962e-15
    vertex 65.82606585253397 40.16718432929104 2.0122792321330962e-15
    vertex 65.96137406541938 40.11113783241345 2.0122792321330962e-15
  endloop
endfacet
facet normal 0.0 0.0 1.0
  outer loop
    vertex 66.1065776635576 40.653045038107116 2.0122792321330962e-15
    vertex 65.96137406541938 40.11113783241345 2.0122792321330962e-15
    vertex 66.1065776635576 40.09202141605987 2.0122792321330962e-15
  endloop
endfacet
facet normal -1.0 0.0 0.0
  outer loop
    vertex 64.3349241202505 42.424698581414205 2.0122792321330962e-15
    vertex 64.3349241202505 38.88139149480003 -0.11811023622046919
    vertex 64.3349241202505 38.88139149480003 2.0122792321330962e-15
  endloop
endfacet
facet normal -1.0 0.0 0.0
  outer loop
    vertex 64.3349241202505 38.88139149480003 -0.11811023622046919
    vertex 64.3349241202505 42.424698581414205 2.0122792321330962e-15
    vertex 64.3349241202505 42.424698581414205 -0.11811023622046964
  endloop
endfacet
facet normal 0.0 -1.0 0.0
  outer loop
    vertex 67.87823120686468 38.88139149480003 2.0122792321330962e-15
    vertex 64.3349241202505 38.88139149480003 -0.11811023622046919
    vertex 67.87823120686468 38.88139149480003 -0.11811023622047051
  endloop
endfacet
facet normal 0.0 -1.0 0.0
  outer loop
    vertex 64.3349241202505 38.88139149480003 -0.11811023622046919
    vertex 67.87823120686468 38.88139149480003 2.0122792321330962e-15
    vertex 64.3349241202505 38.88139149480003 2.0122792321330962e-15
  endloop
endfacet
facet normal 0.7933533402912348 -0.6087614290087213 1.4379376375508305e-32
  outer loop
    vertex 66.66062934904961 40.33316314834334 2.0122792321330962e-15
    vertex 66.55895897041907 40.20066373124564 0.7874015748031518
    vertex 66.55895897041907 40.20066373124564 2.0122792321330962e-15
  endloop
endfacet
facet normal 0.7933533402912348 -0.6087614290087213 1.4379376375508305e-32
  outer loop
    vertex 66.55895897041907 40.20066373124564 0.7874015748031518
    vertex 66.66062934904961 40.33316314834334 2.0122792321330962e-15
    vertex 66.66062934904961 40.33316314834334 0.7874015748031518
  endloop
endfacet
facet normal 0.6087614290087207 -0.7933533402912352 1.035967596912623e-32
  outer loop
    vertex 66.55895897041907 40.20066373124564 0.7874015748031518
    vertex 66.42645955332138 40.0989933526151 2.0122792321330962e-15
    vertex 66.55895897041907 40.20066373124564 2.0122792321330962e-15
  endloop
endfacet
facet normal 0.6087614290087207 -0.7933533402912352 1.035967596912623e-32
  outer loop
    vertex 66.42645955332138 40.0989933526151 2.0122792321330962e-15
    vertex 66.55895897041907 40.20066373124564 0.7874015748031518
    vertex 66.42645955332138 40.0989933526151 0.7874015748031518
  endloop
endfacet
facet normal -0.3826834323650911 -0.9238795325112864 -9.451494036050473e-33
  outer loop
    vertex 65.9409946130491 40.03508068073714 0.7874015748031518
    vertex 65.78669577379382 40.0989933526151 2.0122792321330962e-15
    vertex 65.9409946130491 40.03508068073714 2.0122792321330962e-15
  endloop
endfacet
facet normal -0.3826834323650911 -0.9238795325112864 -9.451494036050473e-33
  outer loop
    vertex 65.78669577379382 40.0989933526151 2.0122792321330962e-15
    vertex 65.9409946130491 40.03508068073714 0.7874015748031518
    vertex 65.78669577379382 40.0989933526151 0.7874015748031518
  endloop
endfacet
facet normal -0.3826834323650892 0.923879532511287 -5.6339807656221936e-33
  outer loop
    vertex 65.78669577379382 41.20709672359913 0.7874015748031518
    vertex 65.9409946130491 41.27100939547709 2.0122792321330962e-15
    vertex 65.78669577379382 41.20709672359913 2.0122792321330962e-15
  endloop
endfacet
facet normal -0.3826834323650892 0.923879532511287 -5.6339807656221936e-33
  outer loop
    vertex 65.9409946130491 41.27100939547709 2.0122792321330962e-15
    vertex 65.78669577379382 41.20709672359913 0.7874015748031518
    vertex 65.9409946130491 41.27100939547709 0.7874015748031518
  endloop
endfacet
facet normal 0.0 0.0 1.0
  outer loop
    vertex 66.66760128560485 40.653045038107116 2.0122792321330962e-15
    vertex 66.1065776635576 41.21406866015436 2.0122792321330962e-15
    vertex 66.1065776635576 40.653045038107116 2.0122792321330962e-15
  endloop
endfacet
facet normal 0.0 0.0 1.0
  outer loop
    vertex 66.1065776635576 41.21406866015436 2.0122792321330962e-15
    vertex 66.66760128560485 40.653045038107116 2.0122792321330962e-15
    vertex 66.25178126169583 41.194952243800785 2.0122792321330962e-15
  endloop
endfacet
facet normal 0.0 0.0 1.0
  outer loop
    vertex 66.25178126169583 41.194952243800785 2.0122792321330962e-15
    vertex 66.66760128560485 40.653045038107116 2.0122792321330962e-15
    vertex 66.38708947458122 41.138905746923186 2.0122792321330962e-15
  endloop
endfacet
facet normal 0.0 0.0 1.0
  outer loop
    vertex 66.38708947458122 41.138905746923186 2.0122792321330962e-15
    vertex 66.66760128560485 40.653045038107116 2.0122792321330962e-15
    vertex 66.50328127111304 41.04974864566256 2.0122792321330962e-15
  endloop
endfacet
facet normal 0.0 0.0 1.0
  outer loop
    vertex 66.50328127111304 41.04974864566256 2.0122792321330962e-15
    vertex 66.66760128560485 40.653045038107116 2.0122792321330962e-15
    vertex 66.59243837237366 40.93355684913074 2.0122792321330962e-15
  endloop
endfacet
facet normal 0.0 0.0 1.0
  outer loop
    vertex 66.59243837237366 40.93355684913074 2.0122792321330962e-15
    vertex 66.66760128560485 40.653045038107116 2.0122792321330962e-15
    vertex 66.64848486925126 40.79824863624534 2.0122792321330962e-15
  endloop
endfacet
facet normal -2.5066368733759153e-16 4.177728122293193e-17 -1.0
  outer loop
    vertex 67.87823120686468 42.424698581414205 -0.11811023622047007
    vertex 64.3349241202505 38.88139149480003 -0.11811023622046919
    vertex 64.3349241202505 42.424698581414205 -0.11811023622046964
  endloop
endfacet
facet normal -2.5066368733759153e-16 4.177728122293193e-17 -1.0
  outer loop
    vertex 64.3349241202505 38.88139149480003 -0.11811023622046919
    vertex 67.87823120686468 42.424698581414205 -0.11811023622047007
    vertex 67.87823120686468 38.88139149480003 -0.11811023622047051
  endloop
endfacet
facet normal 1.0 0.0 0.0
  outer loop
    vertex 67.87823120686468 42.424698581414205 -0.11811023622047007
    vertex 67.87823120686468 38.88139149480003 2.0122792321330962e-15
    vertex 67.87823120686468 38.88139149480003 -0.11811023622047051
  endloop
endfacet
facet normal 1.0 0.0 0.0
  outer loop
    vertex 67.87823120686468 38.88139149480003 2.0122792321330962e-15
    vertex 67.87823120686468 42.424698581414205 -0.11811023622047007
    vertex 67.87823120686468 42.424698581414205 2.0122792321330962e-15
  endloop
endfacet
facet normal -0.6087614290087197 -0.7933533402912359 -1.363784893229159e-32
  outer loop
    vertex 65.78669577379382 40.0989933526151 0.7874015748031518
    vertex 65.65419635669612 40.20066373124564 2.0122792321330962e-15
    vertex 65.78669577379382 40.0989933526151 2.0122792321330962e-15
  endloop
endfacet
facet normal -0.6087614290087197 -0.7933533402912359 -1.363784893229159e-32
  outer loop
    vertex 65.65419635669612 40.20066373124564 2.0122792321330962e-15
    vertex 65.78669577379382 40.0989933526151 0.7874015748031518
    vertex 65.65419635669612 40.20066373124564 0.7874015748031518
  endloop
endfacet
facet normal 0.6087614290087208 0.7933533402912352 1.3637848932291609e-32
  outer loop
    vertex 65.70987405600215 40.25634143055167 0.7874015748031518
    vertex 65.82606585253397 40.16718432929104 2.0122792321330962e-15
    vertex 65.70987405600215 40.25634143055167 2.0122792321330962e-15
  endloop
endfacet
facet normal 0.6087614290087208 0.7933533402912352 1.3637848932291609e-32
  outer loop
    vertex 65.82606585253397 40.16718432929104 2.0122792321330962e-15
    vertex 65.70987405600215 40.25634143055167 0.7874015748031518
    vertex 65.82606585253397 40.16718432929104 0.7874015748031518
  endloop
endfacet
facet normal 0.9914448613738105 -0.1305261922200516 1.9271829697913812e-32
  outer loop
    vertex 65.56467045786393 40.79824863624534 2.0122792321330962e-15
    vertex 65.54555404151036 40.653045038107116 0.7874015748031518
    vertex 65.54555404151036 40.653045038107116 2.0122792321330962e-15
  endloop
endfacet
facet normal 0.9914448613738105 -0.1305261922200516 1.9271829697913812e-32
  outer loop
    vertex 65.54555404151036 40.653045038107116 0.7874015748031518
    vertex 65.56467045786393 40.79824863624534 2.0122792321330962e-15
    vertex 65.56467045786393 40.79824863624534 0.7874015748031518
  endloop
endfacet
facet normal -0.3826834323650906 -0.9238795325112866 -9.451494036050462e-33
  outer loop
    vertex 66.38708947458122 41.138905746923186 0.7874015748031518
    vertex 66.25178126169583 41.194952243800785 2.0122792321330962e-15
    vertex 66.38708947458122 41.138905746923186 2.0122792321330962e-15
  endloop
endfacet
facet normal -0.3826834323650906 -0.9238795325112866 -9.451494036050462e-33
  outer loop
    vertex 66.25178126169583 41.194952243800785 2.0122792321330962e-15
    vertex 66.38708947458122 41.138905746923186 0.7874015748031518
    vertex 66.25178126169583 41.194952243800785 0.7874015748031518
  endloop
endfacet
facet normal -0.1305261922200514 0.9914448613738106 -5.243390835344548e-34
  outer loop
    vertex 66.1065776635576 40.09202141605987 0.7874015748031518
    vertex 66.25178126169583 40.11113783241345 2.0122792321330962e-15
    vertex 66.1065776635576 40.09202141605987 2.0122792321330962e-15
  endloop
endfacet
facet normal -0.1305261922200514 0.9914448613738106 -5.243390835344548e-34
  outer loop
    vertex 66.25178126169583 40.11113783241345 2.0122792321330962e-15
    vertex 66.1065776635576 40.09202141605987 0.7874015748031518
    vertex 66.25178126169583 40.11113783241345 0.7874015748031518
  endloop
endfacet
facet normal -0.9238795325112866 -0.3826834323650906 -1.9000411816093168e-32
  outer loop
    vertex 66.59243837237366 40.93355684913074 0.7874015748031518
    vertex 66.64848486925126 40.79824863624534 2.0122792321330962e-15
    vertex 66.64848486925126 40.79824863624534 0.7874015748031518
  endloop
endfacet
facet normal -0.9238795325112866 -0.3826834323650906 -1.9000411816093168e-32
  outer loop
    vertex 66.64848486925126 40.79824863624534 2.0122792321330962e-15
    vertex 66.59243837237366 40.93355684913074 0.7874015748031518
    vertex 66.59243837237366 40.93355684913074 2.0122792321330962e-15
  endloop
endfacet
facet normal 0.6087614290087227 -0.7933533402912338 1.0359675969126274e-32
  outer loop
    vertex 65.82606585253397 41.138905746923186 0.7874015748031518
    vertex 65.70987405600215 41.04974864566256 2.0122792321330962e-15
    vertex 65.82606585253397 41.138905746923186 2.0122792321330962e-15
  endloop
endfacet
facet normal 0.6087614290087227 -0.7933533402912338 1.0359675969126274e-32
  outer loop
    vertex 65.70987405600215 41.04974864566256 2.0122792321330962e-15
    vertex 65.82606585253397 41.138905746923186 0.7874015748031518
    vertex 65.70987405600215 41.04974864566256 0.7874015748031518
  endloop
endfacet
facet normal 0.9238795325112867 -0.38268343236508995 1.7419146044942524e-32
  outer loop
    vertex 65.62071695474152 40.93355684913074 2.0122792321330962e-15
    vertex 65.56467045786393 40.79824863624534 0.7874015748031518
    vertex 65.56467045786393 40.79824863624534 2.0122792321330962e-15
  endloop
endfacet
facet normal 0.9238795325112867 -0.38268343236508995 1.7419146044942524e-32
  outer loop
    vertex 65.56467045786393 40.79824863624534 0.7874015748031518
    vertex 65.62071695474152 40.93355684913074 2.0122792321330962e-15
    vertex 65.62071695474152 40.93355684913074 0.7874015748031518
  endloop
endfacet
facet normal 0.7933533402912343 0.6087614290087221 1.689480696140805e-32
  outer loop
    vertex 66.55895897041907 41.105426344968585 2.0122792321330962e-15
    vertex 66.66062934904961 40.972926927870894 0.7874015748031518
    vertex 66.66062934904961 40.972926927870894 2.0122792321330962e-15
  endloop
endfacet
facet normal 0.7933533402912343 0.6087614290087221 1.689480696140805e-32
  outer loop
    vertex 66.66062934904961 40.972926927870894 0.7874015748031518
    vertex 66.55895897041907 41.105426344968585 2.0122792321330962e-15
    vertex 66.55895897041907 41.105426344968585 0.7874015748031518
  endloop
endfacet
facet normal -0.13052619222005005 -0.9914448613738107 -4.6210354405848236e-33
  outer loop
    vertex 66.25178126169583 41.194952243800785 0.7874015748031518
    vertex 66.1065776635576 41.21406866015436 2.0122792321330962e-15
    vertex 66.25178126169583 41.194952243800785 2.0122792321330962e-15
  endloop
endfacet
facet normal -0.13052619222005005 -0.9914448613738107 -4.6210354405848236e-33
  outer loop
    vertex 66.1065776635576 41.21406866015436 2.0122792321330962e-15
    vertex 66.25178126169583 41.194952243800785 0.7874015748031518
    vertex 66.1065776635576 41.21406866015436 0.7874015748031518
  endloop
endfacet
facet normal 0.9238795325112861 0.38268343236509156 1.9000411816093157e-32
  outer loop
    vertex 66.66062934904961 40.972926927870894 2.0122792321330962e-15
    vertex 66.72454202092757 40.81862808861562 0.7874015748031518
    vertex 66.72454202092757 40.81862808861562 2.0122792321330962e-15
  endloop
endfacet
facet normal 0.9238795325112861 0.38268343236509156 1.9000411816093157e-32
  outer loop
    vertex 66.72454202092757 40.81862808861562 0.7874015748031518
    vertex 66.66062934904961 40.972926927870894 2.0122792321330962e-15
    vertex 66.66062934904961 40.972926927870894 0.7874015748031518
  endloop
endfacet
facet normal -0.9914448613738104 0.1305261922200529 -1.9271829697913804e-32
  outer loop
    vertex 66.66760128560485 40.653045038107116 0.7874015748031518
    vertex 66.64848486925126 40.50784143996889 2.0122792321330962e-15
    vertex 66.64848486925126 40.50784143996889 0.7874015748031518
  endloop
endfacet
facet normal -0.9914448613738104 0.1305261922200529 -1.9271829697913804e-32
  outer loop
    vertex 66.64848486925126 40.50784143996889 2.0122792321330962e-15
    vertex 66.66760128560485 40.653045038107116 0.7874015748031518
    vertex 66.66760128560485 40.653045038107116 2.0122792321330962e-15
  endloop
endfacet
facet normal 0.1305261922200516 0.9914448613738105 4.621035440584853e-33
  outer loop
    vertex 65.96137406541938 40.11113783241345 0.7874015748031518
    vertex 66.1065776635576 40.09202141605987 2.0122792321330962e-15
    vertex 65.96137406541938 40.11113783241345 2.0122792321330962e-15
  endloop
endfacet
facet normal 0.1305261922200516 0.9914448613738105 4.621035440584853e-33
  outer loop
    vertex 66.1065776635576 40.09202141605987 2.0122792321330962e-15
    vertex 65.96137406541938 40.11113783241345 0.7874015748031518
    vertex 66.1065776635576 40.09202141605987 0.7874015748031518
  endloop
endfacet
facet normal -0.6087614290087183 -0.7933533402912369 -1.3637848932291565e-32
  outer loop
    vertex 66.50328127111304 41.04974864566256 0.7874015748031518
    vertex 66.38708947458122 41.138905746923186 2.0122792321330962e-15
    vertex 66.50328127111304 41.04974864566256 2.0122792321330962e-15
  endloop
endfacet
facet normal -0.6087614290087183 -0.7933533402912369 -1.3637848932291565e-32
  outer loop
    vertex 66.38708947458122 41.138905746923186 2.0122792321330962e-15
    vertex 66.50328127111304 41.04974864566256 0.7874015748031518
    vertex 66.38708947458122 41.138905746923186 0.7874015748031518
  endloop
endfacet
facet normal -0.9238795325112867 0.38268343236508995 -1.7419146044942524e-32
  outer loop
    vertex 66.64848486925126 40.50784143996889 0.7874015748031518
    vertex 66.59243837237366 40.372533227083494 2.0122792321330962e-15
    vertex 66.59243837237366 40.372533227083494 0.7874015748031518
  endloop
endfacet
facet normal -0.9238795325112867 0.38268343236508995 -1.7419146044942524e-32
  outer loop
    vertex 66.59243837237366 40.372533227083494 2.0122792321330962e-15
    vertex 66.64848486925126 40.50784143996889 0.7874015748031518
    vertex 66.64848486925126 40.50784143996889 2.0122792321330962e-15
  endloop
endfacet
facet normal -0.38268343236508995 0.9238795325112867 -5.633980765622209e-33
  outer loop
    vertex 66.25178126169583 40.11113783241345 0.7874015748031518
    vertex 66.38708947458122 40.16718432929104 2.0122792321330962e-15
    vertex 66.25178126169583 40.11113783241345 2.0122792321330962e-15
  endloop
endfacet
facet normal -0.38268343236508995 0.9238795325112867 -5.633980765622209e-33
  outer loop
    vertex 66.38708947458122 40.16718432929104 2.0122792321330962e-15
    vertex 66.25178126169583 40.11113783241345 0.7874015748031518
    vertex 66.38708947458122 40.16718432929104 0.7874015748031518
  endloop
endfacet
facet normal 0.7933533402912354 0.6087614290087207 1.6894806961408065e-32
  outer loop
    vertex 65.62071695474152 40.372533227083494 2.0122792321330962e-15
    vertex 65.70987405600215 40.25634143055167 0.7874015748031518
    vertex 65.70987405600215 40.25634143055167 2.0122792321330962e-15
  endloop
endfacet
facet normal 0.7933533402912354 0.6087614290087207 1.6894806961408065e-32
  outer loop
    vertex 65.70987405600215 40.25634143055167 0.7874015748031518
    vertex 65.62071695474152 40.372533227083494 2.0122792321330962e-15
    vertex 65.62071695474152 40.372533227083494 0.7874015748031518
  endloop
endfacet
facet normal 0.38268343236508945 0.9238795325112871 9.451494036050441e-33
  outer loop
    vertex 65.82606585253397 40.16718432929104 0.7874015748031518
    vertex 65.96137406541938 40.11113783241345 2.0122792321330962e-15
    vertex 65.82606585253397 40.16718432929104 2.0122792321330962e-15
  endloop
endfacet
facet normal 0.38268343236508945 0.9238795325112871 9.451494036050441e-33
  outer loop
    vertex 65.96137406541938 40.11113783241345 2.0122792321330962e-15
    vertex 65.82606585253397 40.16718432929104 0.7874015748031518
    vertex 65.96137406541938 40.11113783241345 0.7874015748031518
  endloop
endfacet
endsolid EverythingRightSize
