solid FTCField
facet normal 0.0 0.0 -1.0
  outer loop
    vertex 275.95532262402656 815.4126142851003 -2.8199664825478976e-14
    vertex 252.49732262402685 813.9126142851003 -2.8199664825478976e-14
    vertex 252.49732262402685 815.4126142851003 -2.8199664825478976e-14
  endloop
endfacet
facet normal 0.0 0.0 -1.0
  outer loop
    vertex 252.49732262402685 813.9126142851003 -2.8199664825478976e-14
    vertex 275.95532262402656 815.4126142851003 -2.8199664825478976e-14
    vertex 253.89532262402682 811.491207256119 -2.8199664825478976e-14
  endloop
endfacet
facet normal 0.0 0.0 -1.0
  outer loop
    vertex 253.89532262402682 811.491207256119 -2.8199664825478976e-14
    vertex 275.95532262402656 815.4126142851003 -2.8199664825478976e-14
    vertex 254.5824822240216 811.491207256119 -2.8199664825478976e-14
  endloop
endfacet
facet normal 0.0 0.0 -1.0
  outer loop
    vertex 254.5824822240216 811.491207256119 -2.8199664825478976e-14
    vertex 275.95532262402656 815.4126142851003 -2.8199664825478976e-14
    vertex 255.8524822240216 811.491207256119 -2.8199664825478976e-14
  endloop
endfacet
facet normal 0.0 0.0 -1.0
  outer loop
    vertex 255.8524822240216 811.491207256119 -2.8199664825478976e-14
    vertex 275.95532262402656 815.4126142851003 -2.8199664825478976e-14
    vertex 274.8113226240266 811.4912072561189 -2.8199664825478976e-14
  endloop
endfacet
facet normal 0.0 0.0 -1.0
  outer loop
    vertex 274.8113226240266 811.4912072561189 -2.8199664825478976e-14
    vertex 275.95532262402656 815.4126142851003 -2.8199664825478976e-14
    vertex 275.95532262402656 813.9126142851003 -2.8199664825478976e-14
  endloop
endfacet
facet normal 0.0 0.0 -1.0
  outer loop
    vertex 274.8113226240266 811.4912072561189 -2.8199664825478976e-14
    vertex 275.95532262402656 813.9126142851003 -2.8199664825478976e-14
    vertex 276.2093226240266 813.9126142851003 -2.8199664825478976e-14
  endloop
endfacet
facet normal -6.918220538420765e-15 -1.0 -5.620441758123196e-31
  outer loop
    vertex 274.8113226240267 811.4912072561189 15.28799999999997
    vertex 255.8524822240216 811.491207256119 -2.8199664825478976e-14
    vertex 274.8113226240266 811.4912072561189 -2.8199664825478976e-14
  endloop
endfacet
facet normal -6.918220538420765e-15 -1.0 -5.620441758123196e-31
  outer loop
    vertex 255.8524822240216 811.491207256119 -2.8199664825478976e-14
    vertex 274.8113226240267 811.4912072561189 15.28799999999997
    vertex 254.5824822240216 811.491207256119 -2.8199664825478976e-14
  endloop
endfacet
facet normal -6.918220538420765e-15 -1.0 -5.620441758123196e-31
  outer loop
    vertex 254.5824822240216 811.491207256119 -2.8199664825478976e-14
    vertex 274.8113226240267 811.4912072561189 15.28799999999997
    vertex 253.89532262402682 811.491207256119 -2.8199664825478976e-14
  endloop
endfacet
facet normal -6.918220538420765e-15 -1.0 -5.620441758123196e-31
  outer loop
    vertex 253.89532262402682 811.491207256119 -2.8199664825478976e-14
    vertex 274.8113226240267 811.4912072561189 15.28799999999997
    vertex 253.89532262402687 811.491207256119 15.28799999999997
  endloop
endfacet
facet normal -0.3702254707458329 -0.30105602140278415 0.8788050823636335
  outer loop
    vertex 256.4052426240268 813.8340972484049 17.14799999999998
    vertex 254.2802826240267 816.4472797140817 17.14799999999998
    vertex 253.89532262402687 811.491207256119 15.28799999999997
  endloop
endfacet
facet normal -0.3851904378720346 0.2843380815702522 0.8779408761077816
  outer loop
    vertex 256.40524262402687 819.3259453797581 17.14799999999998
    vertex 253.89532262402696 821.668835372044 15.28799999999997
    vertex 254.2802826240267 816.4472797140817 17.14799999999998
  endloop
endfacet
facet normal 0.0 0.0 1.0
  outer loop
    vertex 256.4052426240268 813.8340972484049 17.14799999999998
    vertex 256.40524262402687 819.3259453797581 17.14799999999998
    vertex 254.2802826240267 816.4472797140817 17.14799999999998
  endloop
endfacet
facet normal 0.0 0.0 1.0
  outer loop
    vertex 256.40524262402687 819.3259453797581 17.14799999999998
    vertex 256.4052426240268 813.8340972484049 17.14799999999998
    vertex 272.30140262402665 813.8340972484048 17.14799999999998
  endloop
endfacet
facet normal 0.0 0.0 1.0
  outer loop
    vertex 256.40524262402687 819.3259453797581 17.14799999999998
    vertex 272.30140262402665 813.8340972484048 17.14799999999998
    vertex 272.3014026240266 819.325945379758 17.14799999999998
  endloop
endfacet
facet normal 0.0 0.0 1.0
  outer loop
    vertex 272.3014026240266 819.325945379758 17.14799999999998
    vertex 272.30140262402665 813.8340972484048 17.14799999999998
    vertex 274.42636262402664 816.4472797140812 17.14799999999998
  endloop
endfacet
facet normal 0.0 0.0 -1.0
  outer loop
    vertex 252.49732262402688 819.0014283430628 3.8099999999999716
    vertex 252.49732262402685 815.4126142851003 3.8099999999999716
    vertex 251.09932262402685 816.3340213140815 3.8099999999999716
  endloop
endfacet
facet normal 0.0 0.0 -1.0
  outer loop
    vertex 252.49732262402685 815.4126142851003 3.8099999999999716
    vertex 252.49732262402688 819.0014283430628 3.8099999999999716
    vertex 252.49732262402688 817.5014283430628 3.8099999999999716
  endloop
endfacet
facet normal 0.0 0.0 -1.0
  outer loop
    vertex 252.49732262402685 815.4126142851003 3.8099999999999716
    vertex 252.49732262402688 817.5014283430628 3.8099999999999716
    vertex 275.95532262402656 815.4126142851003 3.8099999999999716
  endloop
endfacet
facet normal 0.0 0.0 -1.0
  outer loop
    vertex 275.95532262402656 815.4126142851003 3.8099999999999716
    vertex 252.49732262402688 817.5014283430628 3.8099999999999716
    vertex 275.9553226240267 817.5014283430628 3.8099999999999716
  endloop
endfacet
facet normal 0.0 0.0 -1.0
  outer loop
    vertex 252.49732262402685 813.9126142851003 3.8099999999999716
    vertex 251.09932262402685 816.3340213140815 3.8099999999999716
    vertex 252.49732262402685 815.4126142851003 3.8099999999999716
  endloop
endfacet
facet normal 7.112366251504958e-15 1.0 8.853897904388946e-17
  outer loop
    vertex 253.89532262402693 821.668835372044 -2.8199664825478976e-14
    vertex 255.8976659711207 821.6688353720439 4.9205822797367285
    vertex 274.8113226240266 821.6688353720439 -2.8199664825478976e-14
  endloop
endfacet
facet normal 7.112366251504958e-15 1.0 8.853897904388946e-17
  outer loop
    vertex 255.8976659711207 821.6688353720439 4.9205822797367285
    vertex 253.89532262402693 821.668835372044 -2.8199664825478976e-14
    vertex 255.63719053983144 821.6688353720439 5.028474736041729
  endloop
endfacet
facet normal 7.112366251504958e-15 1.0 8.853897904388946e-17
  outer loop
    vertex 255.63719053983144 821.6688353720439 5.028474736041729
    vertex 253.89532262402693 821.668835372044 -2.8199664825478976e-14
    vertex 255.41351521614988 821.6688353720439 5.200106848447454
  endloop
endfacet
facet normal 7.112366251504958e-15 1.0 8.853897904388946e-17
  outer loop
    vertex 255.41351521614988 821.6688353720439 5.200106848447454
    vertex 253.89532262402693 821.668835372044 -2.8199664825478976e-14
    vertex 255.24188310374413 821.6688353720439 5.423782172128926
  endloop
endfacet
facet normal 7.112366251504958e-15 1.0 8.853897904388946e-17
  outer loop
    vertex 255.24188310374413 821.6688353720439 5.423782172128926
    vertex 253.89532262402693 821.668835372044 -2.8199664825478976e-14
    vertex 255.13399064743922 821.6688353720439 5.6842576034182075
  endloop
endfacet
facet normal 7.112366251504958e-15 1.0 8.853897904388946e-17
  outer loop
    vertex 255.13399064743922 821.6688353720439 5.6842576034182075
    vertex 253.89532262402693 821.668835372044 -2.8199664825478976e-14
    vertex 255.0971905398314 821.6688353720439 5.963782172128933
  endloop
endfacet
facet normal 7.112366251504958e-15 1.0 8.853897904388946e-17
  outer loop
    vertex 255.0971905398314 821.6688353720439 5.963782172128933
    vertex 253.89532262402693 821.668835372044 -2.8199664825478976e-14
    vertex 253.89532262402696 821.668835372044 15.28799999999997
  endloop
endfacet
facet normal 7.112366251504958e-15 1.0 8.853897904388946e-17
  outer loop
    vertex 274.8113226240266 821.6688353720439 -2.8199664825478976e-14
    vertex 255.8976659711207 821.6688353720439 4.9205822797367285
    vertex 256.1771905398315 821.6688353720439 4.883782172128919
  endloop
endfacet
facet normal 7.112366251504958e-15 1.0 8.853897904388946e-17
  outer loop
    vertex 255.0971905398314 821.6688353720439 5.963782172128933
    vertex 253.89532262402696 821.668835372044 15.28799999999997
    vertex 255.13399064743922 821.6688353720439 6.243306740839659
  endloop
endfacet
facet normal 7.112366251504958e-15 1.0 8.853897904388946e-17
  outer loop
    vertex 255.13399064743922 821.6688353720439 6.243306740839659
    vertex 253.89532262402696 821.668835372044 15.28799999999997
    vertex 255.24188310374413 821.6688353720439 6.50378217212894
  endloop
endfacet
facet normal 7.112366251504958e-15 1.0 8.853897904388946e-17
  outer loop
    vertex 255.24188310374413 821.6688353720439 6.50378217212894
    vertex 253.89532262402696 821.668835372044 15.28799999999997
    vertex 255.41351521614988 821.6688353720439 6.727457495810421
  endloop
endfacet
facet normal 7.112366251504958e-15 1.0 8.853897904388946e-17
  outer loop
    vertex 255.41351521614988 821.6688353720439 6.727457495810421
    vertex 253.89532262402696 821.668835372044 15.28799999999997
    vertex 255.63719053983144 821.6688353720439 6.899089608216138
  endloop
endfacet
facet normal 7.112366251504958e-15 1.0 8.853897904388946e-17
  outer loop
    vertex 255.63719053983144 821.6688353720439 6.899089608216138
    vertex 253.89532262402696 821.668835372044 15.28799999999997
    vertex 255.8976659711207 821.6688353720439 7.006982064521147
  endloop
endfacet
facet normal 7.112366251504958e-15 1.0 8.853897904388946e-17
  outer loop
    vertex 255.8976659711207 821.6688353720439 7.006982064521147
    vertex 253.89532262402696 821.668835372044 15.28799999999997
    vertex 256.1771905398315 821.6688353720439 7.043782172128947
  endloop
endfacet
facet normal 7.112366251504958e-15 1.0 8.853897904388946e-17
  outer loop
    vertex 256.1771905398315 821.6688353720439 7.043782172128947
    vertex 253.89532262402696 821.668835372044 15.28799999999997
    vertex 272.18519053983135 821.6688353720439 7.043782172128947
  endloop
endfacet
facet normal 7.112366251504958e-15 1.0 8.853897904388946e-17
  outer loop
    vertex 274.8113226240266 821.6688353720439 -2.8199664825478976e-14
    vertex 273.2283904322235 821.6688353720439 5.6842576034182075
    vertex 274.8113226240267 821.6688353720439 15.28799999999997
  endloop
endfacet
facet normal 7.112366251504958e-15 1.0 8.853897904388946e-17
  outer loop
    vertex 273.2283904322235 821.6688353720439 5.6842576034182075
    vertex 274.8113226240266 821.6688353720439 -2.8199664825478976e-14
    vertex 273.12049797591857 821.6688353720439 5.423782172128926
  endloop
endfacet
facet normal 7.112366251504958e-15 1.0 8.853897904388946e-17
  outer loop
    vertex 273.12049797591857 821.6688353720439 5.423782172128926
    vertex 274.8113226240266 821.6688353720439 -2.8199664825478976e-14
    vertex 272.9488658635128 821.6688353720439 5.200106848447454
  endloop
endfacet
facet normal 7.112366251504958e-15 1.0 8.853897904388946e-17
  outer loop
    vertex 272.9488658635128 821.6688353720439 5.200106848447454
    vertex 274.8113226240266 821.6688353720439 -2.8199664825478976e-14
    vertex 272.72519053983126 821.6688353720439 5.028474736041729
  endloop
endfacet
facet normal 7.112366251504958e-15 1.0 8.853897904388946e-17
  outer loop
    vertex 272.72519053983126 821.6688353720439 5.028474736041729
    vertex 274.8113226240266 821.6688353720439 -2.8199664825478976e-14
    vertex 272.464715108542 821.6688353720439 4.9205822797367285
  endloop
endfacet
facet normal 7.112366251504958e-15 1.0 8.853897904388946e-17
  outer loop
    vertex 272.464715108542 821.6688353720439 4.9205822797367285
    vertex 274.8113226240266 821.6688353720439 -2.8199664825478976e-14
    vertex 272.18519053983135 821.6688353720439 4.883782172128919
  endloop
endfacet
facet normal 7.112366251504958e-15 1.0 8.853897904388946e-17
  outer loop
    vertex 272.18519053983135 821.6688353720439 4.883782172128919
    vertex 274.8113226240266 821.6688353720439 -2.8199664825478976e-14
    vertex 256.1771905398315 821.6688353720439 4.883782172128919
  endloop
endfacet
facet normal 7.112366251504958e-15 1.0 8.853897904388946e-17
  outer loop
    vertex 274.8113226240267 821.6688353720439 15.28799999999997
    vertex 273.2283904322235 821.6688353720439 5.6842576034182075
    vertex 273.2651905398313 821.6688353720439 5.963782172128933
  endloop
endfacet
facet normal 7.112366251504958e-15 1.0 8.853897904388946e-17
  outer loop
    vertex 274.8113226240267 821.6688353720439 15.28799999999997
    vertex 273.2651905398313 821.6688353720439 5.963782172128933
    vertex 273.2283904322235 821.6688353720439 6.243306740839659
  endloop
endfacet
facet normal 7.112366251504958e-15 1.0 8.853897904388946e-17
  outer loop
    vertex 274.8113226240267 821.6688353720439 15.28799999999997
    vertex 273.2283904322235 821.6688353720439 6.243306740839659
    vertex 273.12049797591857 821.6688353720439 6.50378217212894
  endloop
endfacet
facet normal 7.112366251504958e-15 1.0 8.853897904388946e-17
  outer loop
    vertex 274.8113226240267 821.6688353720439 15.28799999999997
    vertex 273.12049797591857 821.6688353720439 6.50378217212894
    vertex 272.9488658635128 821.6688353720439 6.727457495810412
  endloop
endfacet
facet normal 7.112366251504958e-15 1.0 8.853897904388946e-17
  outer loop
    vertex 274.8113226240267 821.6688353720439 15.28799999999997
    vertex 272.9488658635128 821.6688353720439 6.727457495810412
    vertex 272.72519053983126 821.6688353720439 6.899089608216138
  endloop
endfacet
facet normal 7.112366251504958e-15 1.0 8.853897904388946e-17
  outer loop
    vertex 274.8113226240267 821.6688353720439 15.28799999999997
    vertex 272.72519053983126 821.6688353720439 6.899089608216138
    vertex 272.464715108542 821.6688353720439 7.006982064521138
  endloop
endfacet
facet normal 7.112366251504958e-15 1.0 8.853897904388946e-17
  outer loop
    vertex 274.8113226240267 821.6688353720439 15.28799999999997
    vertex 272.464715108542 821.6688353720439 7.006982064521138
    vertex 272.18519053983135 821.6688353720439 7.043782172128947
  endloop
endfacet
facet normal 7.112366251504958e-15 1.0 8.853897904388946e-17
  outer loop
    vertex 274.8113226240267 821.6688353720439 15.28799999999997
    vertex 272.18519053983135 821.6688353720439 7.043782172128947
    vertex 253.89532262402696 821.668835372044 15.28799999999997
  endloop
endfacet
facet normal 7.112366251504958e-15 1.0 8.853897904388946e-17
  outer loop
    vertex 256.45671510854214 821.6688353720439 4.9205822797367285
    vertex 272.18519053983135 821.6688353720439 4.883782172128919
    vertex 256.1771905398315 821.6688353720439 4.883782172128919
  endloop
endfacet
facet normal 7.112366251504958e-15 1.0 8.853897904388946e-17
  outer loop
    vertex 272.18519053983135 821.6688353720439 4.883782172128919
    vertex 256.45671510854214 821.6688353720439 4.9205822797367285
    vertex 271.9056659711206 821.6688353720439 4.9205822797367285
  endloop
endfacet
facet normal 7.112366251504958e-15 1.0 8.853897904388946e-17
  outer loop
    vertex 271.9056659711206 821.6688353720439 4.9205822797367285
    vertex 256.45671510854214 821.6688353720439 4.9205822797367285
    vertex 256.7171905398314 821.6688353720439 5.028474736041729
  endloop
endfacet
facet normal 7.112366251504958e-15 1.0 8.853897904388946e-17
  outer loop
    vertex 271.9056659711206 821.6688353720439 4.9205822797367285
    vertex 256.7171905398314 821.6688353720439 5.028474736041729
    vertex 271.64519053983133 821.6688353720439 5.028474736041729
  endloop
endfacet
facet normal 7.112366251504958e-15 1.0 8.853897904388946e-17
  outer loop
    vertex 271.64519053983133 821.6688353720439 5.028474736041729
    vertex 256.7171905398314 821.6688353720439 5.028474736041729
    vertex 256.9408658635129 821.6688353720439 5.200106848447454
  endloop
endfacet
facet normal 7.112366251504958e-15 1.0 8.853897904388946e-17
  outer loop
    vertex 271.64519053983133 821.6688353720439 5.028474736041729
    vertex 256.9408658635129 821.6688353720439 5.200106848447454
    vertex 271.42151521614977 821.6688353720439 5.200106848447454
  endloop
endfacet
facet normal 7.112366251504958e-15 1.0 8.853897904388946e-17
  outer loop
    vertex 271.42151521614977 821.6688353720439 5.200106848447454
    vertex 256.9408658635129 821.6688353720439 5.200106848447454
    vertex 257.11249797591864 821.6688353720439 5.423782172128926
  endloop
endfacet
facet normal 7.112366251504958e-15 1.0 8.853897904388946e-17
  outer loop
    vertex 271.42151521614977 821.6688353720439 5.200106848447454
    vertex 257.11249797591864 821.6688353720439 5.423782172128926
    vertex 271.249883103744 821.6688353720439 5.423782172128926
  endloop
endfacet
facet normal 7.112366251504958e-15 1.0 8.853897904388946e-17
  outer loop
    vertex 271.249883103744 821.6688353720439 5.423782172128926
    vertex 257.11249797591864 821.6688353720439 5.423782172128926
    vertex 257.22039043222355 821.6688353720439 5.6842576034182075
  endloop
endfacet
facet normal 7.112366251504958e-15 1.0 8.853897904388946e-17
  outer loop
    vertex 271.249883103744 821.6688353720439 5.423782172128926
    vertex 257.22039043222355 821.6688353720439 5.6842576034182075
    vertex 271.1419906474391 821.6688353720439 5.6842576034182075
  endloop
endfacet
facet normal 7.112366251504958e-15 1.0 8.853897904388946e-17
  outer loop
    vertex 271.1419906474391 821.6688353720439 5.6842576034182075
    vertex 257.22039043222355 821.6688353720439 5.6842576034182075
    vertex 257.2571905398314 821.6688353720439 5.963782172128933
  endloop
endfacet
facet normal 7.112366251504958e-15 1.0 8.853897904388946e-17
  outer loop
    vertex 271.1419906474391 821.6688353720439 5.6842576034182075
    vertex 257.2571905398314 821.6688353720439 5.963782172128933
    vertex 271.10519053983126 821.6688353720439 5.963782172128933
  endloop
endfacet
facet normal 7.112366251504958e-15 1.0 8.853897904388946e-17
  outer loop
    vertex 271.10519053983126 821.6688353720439 5.963782172128933
    vertex 257.2571905398314 821.6688353720439 5.963782172128933
    vertex 257.22039043222355 821.6688353720439 6.243306740839659
  endloop
endfacet
facet normal 7.112366251504958e-15 1.0 8.853897904388946e-17
  outer loop
    vertex 271.10519053983126 821.6688353720439 5.963782172128933
    vertex 257.22039043222355 821.6688353720439 6.243306740839659
    vertex 271.1419906474391 821.6688353720439 6.243306740839659
  endloop
endfacet
facet normal 7.112366251504958e-15 1.0 8.853897904388946e-17
  outer loop
    vertex 271.1419906474391 821.6688353720439 6.243306740839659
    vertex 257.22039043222355 821.6688353720439 6.243306740839659
    vertex 257.11249797591864 821.6688353720439 6.50378217212894
  endloop
endfacet
facet normal 7.112366251504958e-15 1.0 8.853897904388946e-17
  outer loop
    vertex 271.1419906474391 821.6688353720439 6.243306740839659
    vertex 257.11249797591864 821.6688353720439 6.50378217212894
    vertex 271.249883103744 821.6688353720439 6.50378217212894
  endloop
endfacet
facet normal 7.112366251504958e-15 1.0 8.853897904388946e-17
  outer loop
    vertex 271.249883103744 821.6688353720439 6.50378217212894
    vertex 257.11249797591864 821.6688353720439 6.50378217212894
    vertex 256.9408658635129 821.6688353720439 6.727457495810412
  endloop
endfacet
facet normal 7.112366251504958e-15 1.0 8.853897904388946e-17
  outer loop
    vertex 271.249883103744 821.6688353720439 6.50378217212894
    vertex 256.9408658635129 821.6688353720439 6.727457495810412
    vertex 271.42151521614977 821.6688353720439 6.727457495810421
  endloop
endfacet
facet normal 7.112366251504958e-15 1.0 8.853897904388946e-17
  outer loop
    vertex 271.42151521614977 821.6688353720439 6.727457495810421
    vertex 256.9408658635129 821.6688353720439 6.727457495810412
    vertex 256.7171905398314 821.6688353720439 6.899089608216138
  endloop
endfacet
facet normal 7.112366251504958e-15 1.0 8.853897904388946e-17
  outer loop
    vertex 271.42151521614977 821.6688353720439 6.727457495810421
    vertex 256.7171905398314 821.6688353720439 6.899089608216138
    vertex 271.64519053983133 821.6688353720439 6.899089608216138
  endloop
endfacet
facet normal 7.112366251504958e-15 1.0 8.853897904388946e-17
  outer loop
    vertex 271.64519053983133 821.6688353720439 6.899089608216138
    vertex 256.7171905398314 821.6688353720439 6.899089608216138
    vertex 256.45671510854214 821.6688353720439 7.006982064521138
  endloop
endfacet
facet normal 7.112366251504958e-15 1.0 8.853897904388946e-17
  outer loop
    vertex 271.64519053983133 821.6688353720439 6.899089608216138
    vertex 256.45671510854214 821.6688353720439 7.006982064521138
    vertex 271.9056659711206 821.6688353720439 7.006982064521147
  endloop
endfacet
facet normal 7.112366251504958e-15 1.0 8.853897904388946e-17
  outer loop
    vertex 271.9056659711206 821.6688353720439 7.006982064521147
    vertex 256.45671510854214 821.6688353720439 7.006982064521138
    vertex 256.1771905398315 821.6688353720439 7.043782172128947
  endloop
endfacet
facet normal 7.112366251504958e-15 1.0 8.853897904388946e-17
  outer loop
    vertex 271.9056659711206 821.6688353720439 7.006982064521147
    vertex 256.1771905398315 821.6688353720439 7.043782172128947
    vertex 272.18519053983135 821.6688353720439 7.043782172128947
  endloop
endfacet
facet normal 0.0 1.0 0.0
  outer loop
    vertex 275.95532262402656 813.9126142851003 3.8099999999999716
    vertex 276.2093226240266 813.9126142851003 -2.8199664825478976e-14
    vertex 275.95532262402656 813.9126142851003 -2.8199664825478976e-14
  endloop
endfacet
facet normal 0.0 1.0 0.0
  outer loop
    vertex 276.2093226240266 813.9126142851003 -2.8199664825478976e-14
    vertex 275.95532262402656 813.9126142851003 3.8099999999999716
    vertex 276.2093226240266 813.9126142851003 3.8099999999999716
  endloop
endfacet
facet normal -0.8857241259504515 0.46421199113046263 2.10081935674492e-15
  outer loop
    vertex 253.89532262402696 821.668835372044 15.28799999999997
    vertex 251.09932262402685 816.3340213140815 3.8099999999999716
    vertex 251.09932262402688 816.3340213140815 15.28799999999997
  endloop
endfacet
facet normal -0.8857241259504515 0.46421199113046263 2.10081935674492e-15
  outer loop
    vertex 251.09932262402685 816.3340213140815 3.8099999999999716
    vertex 253.89532262402696 821.668835372044 15.28799999999997
    vertex 252.49732262402688 819.0014283430628 3.8099999999999716
  endloop
endfacet
facet normal -0.8857241259504515 0.46421199113046263 2.10081935674492e-15
  outer loop
    vertex 252.49732262402688 819.0014283430628 3.8099999999999716
    vertex 253.89532262402696 821.668835372044 15.28799999999997
    vertex 252.49732262402688 819.0014283430628 -2.8199664825478976e-14
  endloop
endfacet
facet normal -0.8857241259504515 0.46421199113046263 2.10081935674492e-15
  outer loop
    vertex 252.49732262402688 819.0014283430628 -2.8199664825478976e-14
    vertex 253.89532262402696 821.668835372044 15.28799999999997
    vertex 253.89532262402693 821.668835372044 -2.8199664825478976e-14
  endloop
endfacet
facet normal 0.0 0.0 -1.0
  outer loop
    vertex 276.2093226240267 819.0014283430628 3.8099999999999716
    vertex 275.9553226240267 817.5014283430628 3.8099999999999716
    vertex 275.9553226240267 819.0014283430628 3.8099999999999716
  endloop
endfacet
facet normal 0.0 0.0 -1.0
  outer loop
    vertex 275.9553226240267 817.5014283430628 3.8099999999999716
    vertex 276.2093226240267 819.0014283430628 3.8099999999999716
    vertex 276.2093226240266 813.9126142851003 3.8099999999999716
  endloop
endfacet
facet normal 0.0 0.0 -1.0
  outer loop
    vertex 275.9553226240267 817.5014283430628 3.8099999999999716
    vertex 275.95532262402656 813.9126142851003 3.8099999999999716
    vertex 275.95532262402656 815.4126142851003 3.8099999999999716
  endloop
endfacet
facet normal 0.0 0.0 -1.0
  outer loop
    vertex 275.95532262402656 813.9126142851003 3.8099999999999716
    vertex 275.9553226240267 817.5014283430628 3.8099999999999716
    vertex 276.2093226240266 813.9126142851003 3.8099999999999716
  endloop
endfacet
facet normal 0.385190437872039 0.28433808157023516 0.877940876107785
  outer loop
    vertex 274.8113226240267 821.6688353720439 15.28799999999997
    vertex 272.3014026240266 819.325945379758 17.14799999999998
    vertex 274.42636262402664 816.4472797140812 17.14799999999998
  endloop
endfacet
facet normal 0.3702254707458358 -0.3010560214027709 0.8788050823636369
  outer loop
    vertex 274.8113226240267 811.4912072561189 15.28799999999997
    vertex 274.42636262402664 816.4472797140812 17.14799999999998
    vertex 272.30140262402665 813.8340972484048 17.14799999999998
  endloop
endfacet
facet normal 0.4778415218916807 -0.27588193129414473 0.8340003836579785
  outer loop
    vertex 277.60732262402666 816.3340213140813 15.28799999999997
    vertex 274.42636262402664 816.4472797140812 17.14799999999998
    vertex 274.8113226240267 811.4912072561189 15.28799999999997
  endloop
endfacet
facet normal 0.0 0.0 -1.0
  outer loop
    vertex 276.2093226240267 819.0014283430628 -2.8199664825478976e-14
    vertex 275.9553226240267 819.0014283430628 -2.8199664825478976e-14
    vertex 253.89532262402693 821.668835372044 -2.8199664825478976e-14
  endloop
endfacet
facet normal 0.0 0.0 -1.0
  outer loop
    vertex 253.89532262402693 821.668835372044 -2.8199664825478976e-14
    vertex 252.49732262402688 817.5014283430628 -2.8199664825478976e-14
    vertex 252.49732262402688 819.0014283430628 -2.8199664825478976e-14
  endloop
endfacet
facet normal 0.0 0.0 -1.0
  outer loop
    vertex 252.49732262402688 817.5014283430628 -2.8199664825478976e-14
    vertex 253.89532262402693 821.668835372044 -2.8199664825478976e-14
    vertex 275.9553226240267 817.5014283430628 -2.8199664825478976e-14
  endloop
endfacet
facet normal 0.0 0.0 -1.0
  outer loop
    vertex 275.9553226240267 817.5014283430628 -2.8199664825478976e-14
    vertex 253.89532262402693 821.668835372044 -2.8199664825478976e-14
    vertex 275.9553226240267 819.0014283430628 -2.8199664825478976e-14
  endloop
endfacet
facet normal -0.866025403784439 -0.49999999999999933 3.5938417865107354e-15
  outer loop
    vertex 251.09932262402688 816.3340213140815 15.28799999999997
    vertex 253.89532262402682 811.491207256119 -2.8199664825478976e-14
    vertex 253.89532262402687 811.491207256119 15.28799999999997
  endloop
endfacet
facet normal -0.866025403784439 -0.49999999999999933 3.5938417865107354e-15
  outer loop
    vertex 253.89532262402682 811.491207256119 -2.8199664825478976e-14
    vertex 251.09932262402688 816.3340213140815 15.28799999999997
    vertex 252.49732262402685 813.9126142851003 3.8099999999999716
  endloop
endfacet
facet normal -0.866025403784439 -0.49999999999999933 3.5938417865107354e-15
  outer loop
    vertex 252.49732262402685 813.9126142851003 3.8099999999999716
    vertex 251.09932262402688 816.3340213140815 15.28799999999997
    vertex 251.09932262402685 816.3340213140815 3.8099999999999716
  endloop
endfacet
facet normal -0.866025403784439 -0.49999999999999933 3.5938417865107354e-15
  outer loop
    vertex 252.49732262402685 813.9126142851003 -2.8199664825478976e-14
    vertex 253.89532262402682 811.491207256119 -2.8199664825478976e-14
    vertex 252.49732262402685 813.9126142851003 3.8099999999999716
  endloop
endfacet
facet normal -0.49438905575139563 0.25911152382485814 0.829723254931669
  outer loop
    vertex 254.2802826240267 816.4472797140817 17.14799999999998
    vertex 253.89532262402696 821.668835372044 15.28799999999997
    vertex 251.09932262402688 816.3340213140815 15.28799999999997
  endloop
endfacet
facet normal -4.328893385570119e-15 -0.6217734256096464 0.7831971700699931
  outer loop
    vertex 274.8113226240267 811.4912072561189 15.28799999999997
    vertex 256.4052426240268 813.8340972484049 17.14799999999998
    vertex 253.89532262402687 811.491207256119 15.28799999999997
  endloop
endfacet
facet normal -4.328893385570119e-15 -0.6217734256096464 0.7831971700699931
  outer loop
    vertex 256.4052426240268 813.8340972484049 17.14799999999998
    vertex 274.8113226240267 811.4912072561189 15.28799999999997
    vertex 272.30140262402665 813.8340972484048 17.14799999999998
  endloop
endfacet
facet normal -0.47784152189170126 -0.27588193129415567 0.8340003836579633
  outer loop
    vertex 254.2802826240267 816.4472797140817 17.14799999999998
    vertex 251.09932262402688 816.3340213140815 15.28799999999997
    vertex 253.89532262402687 811.491207256119 15.28799999999997
  endloop
endfacet
facet normal 0.0 0.0 -1.0
  outer loop
    vertex 276.2093226240267 819.0014283430628 -2.8199664825478976e-14
    vertex 253.89532262402693 821.668835372044 -2.8199664825478976e-14
    vertex 274.8113226240266 821.6688353720439 -2.8199664825478976e-14
  endloop
endfacet
facet normal 4.42274535700585e-15 0.6217734256096465 0.783197170069993
  outer loop
    vertex 256.40524262402687 819.3259453797581 17.14799999999998
    vertex 274.8113226240267 821.6688353720439 15.28799999999997
    vertex 253.89532262402696 821.668835372044 15.28799999999997
  endloop
endfacet
facet normal 4.42274535700585e-15 0.6217734256096465 0.783197170069993
  outer loop
    vertex 274.8113226240267 821.6688353720439 15.28799999999997
    vertex 256.40524262402687 819.3259453797581 17.14799999999998
    vertex 272.3014026240266 819.325945379758 17.14799999999998
  endloop
endfacet
facet normal 0.4943890557513803 0.25911152382484115 0.8297232549316834
  outer loop
    vertex 277.60732262402666 816.3340213140813 15.28799999999997
    vertex 274.8113226240267 821.6688353720439 15.28799999999997
    vertex 274.42636262402664 816.4472797140812 17.14799999999998
  endloop
endfacet
facet normal 0.866025403784435 -0.5000000000000067 -5.472516740833576e-15
  outer loop
    vertex 276.2093226240266 813.9126142851003 -2.8199664825478976e-14
    vertex 274.8113226240267 811.4912072561189 15.28799999999997
    vertex 274.8113226240266 811.4912072561189 -2.8199664825478976e-14
  endloop
endfacet
facet normal 0.866025403784435 -0.5000000000000067 -5.472516740833576e-15
  outer loop
    vertex 274.8113226240267 811.4912072561189 15.28799999999997
    vertex 276.2093226240266 813.9126142851003 -2.8199664825478976e-14
    vertex 276.2093226240266 813.9126142851003 3.8099999999999716
  endloop
endfacet
facet normal 0.866025403784435 -0.5000000000000067 -5.472516740833576e-15
  outer loop
    vertex 274.8113226240267 811.4912072561189 15.28799999999997
    vertex 276.2093226240266 813.9126142851003 3.8099999999999716
    vertex 277.60732262402666 816.3340213140813 15.28799999999997
  endloop
endfacet
facet normal 0.866025403784435 -0.5000000000000067 -5.472516740833576e-15
  outer loop
    vertex 277.60732262402666 816.3340213140813 15.28799999999997
    vertex 276.2093226240266 813.9126142851003 3.8099999999999716
    vertex 277.60732262402666 816.3340213140813 3.8099999999999716
  endloop
endfacet
facet normal 0.0 0.0 -1.0
  outer loop
    vertex 277.60732262402666 816.3340213140813 3.8099999999999716
    vertex 276.2093226240266 813.9126142851003 3.8099999999999716
    vertex 276.2093226240267 819.0014283430628 3.8099999999999716
  endloop
endfacet
facet normal 0.8857241259504591 0.46421199113044825 3.560424773278471e-15
  outer loop
    vertex 274.8113226240266 821.6688353720439 -2.8199664825478976e-14
    vertex 276.2093226240267 819.0014283430628 3.8099999999999716
    vertex 276.2093226240267 819.0014283430628 -2.8199664825478976e-14
  endloop
endfacet
facet normal 0.8857241259504591 0.46421199113044825 3.560424773278471e-15
  outer loop
    vertex 276.2093226240267 819.0014283430628 3.8099999999999716
    vertex 277.60732262402666 816.3340213140813 15.28799999999997
    vertex 277.60732262402666 816.3340213140813 3.8099999999999716
  endloop
endfacet
facet normal 0.8857241259504591 0.46421199113044825 3.560424773278471e-15
  outer loop
    vertex 277.60732262402666 816.3340213140813 15.28799999999997
    vertex 276.2093226240267 819.0014283430628 3.8099999999999716
    vertex 274.8113226240267 821.6688353720439 15.28799999999997
  endloop
endfacet
facet normal 0.8857241259504591 0.46421199113044825 3.560424773278471e-15
  outer loop
    vertex 274.8113226240267 821.6688353720439 15.28799999999997
    vertex 276.2093226240267 819.0014283430628 3.8099999999999716
    vertex 274.8113226240266 821.6688353720439 -2.8199664825478976e-14
  endloop
endfacet
facet normal 0.0 -1.0 0.0
  outer loop
    vertex 276.2093226240267 819.0014283430628 3.8099999999999716
    vertex 275.9553226240267 819.0014283430628 -2.8199664825478976e-14
    vertex 276.2093226240267 819.0014283430628 -2.8199664825478976e-14
  endloop
endfacet
facet normal 0.0 -1.0 0.0
  outer loop
    vertex 275.9553226240267 819.0014283430628 -2.8199664825478976e-14
    vertex 276.2093226240267 819.0014283430628 3.8099999999999716
    vertex 275.9553226240267 819.0014283430628 3.8099999999999716
  endloop
endfacet
facet normal 0.9760244635173838 0.17568440343303993 0.128496058328573
  outer loop
    vertex 257.0843905398315 822.6288353720439 5.963782172128955
    vertex 257.22039043222355 821.6688353720439 6.243306740839659
    vertex 257.2571905398314 821.6688353720439 5.963782172128933
  endloop
endfacet
facet normal 0.9760244635173838 0.17568440343303993 0.128496058328573
  outer loop
    vertex 257.22039043222355 821.6688353720439 6.243306740839659
    vertex 257.0843905398315 822.6288353720439 5.963782172128955
    vertex 257.05347844944095 822.6288353720439 6.198582809845963
  endloop
endfacet
facet normal -0.9095100092856088 0.17568440343319267 0.3767313809594513
  outer loop
    vertex 255.39153229351805 822.6288353720439 6.417382172128966
    vertex 255.13399064743922 821.6688353720439 6.243306740839659
    vertex 255.24188310374413 821.6688353720439 6.50378217212894
  endloop
endfacet
facet normal -0.9095100092856088 0.17568440343319267 0.3767313809594513
  outer loop
    vertex 255.13399064743922 821.6688353720439 6.243306740839659
    vertex 255.39153229351805 822.6288353720439 6.417382172128966
    vertex 255.30090263022214 822.6288353720439 6.198582809845963
  endloop
endfacet
facet normal -0.12849605832850725 0.1756844034331484 -0.976024463517373
  outer loop
    vertex 255.9423899021146 822.6288353720439 5.087494262519495
    vertex 256.1771905398315 821.6688353720439 4.883782172128919
    vertex 255.8976659711207 821.6688353720439 4.9205822797367285
  endloop
endfacet
facet normal -0.12849605832850725 0.1756844034331484 -0.976024463517373
  outer loop
    vertex 256.1771905398315 821.6688353720439 4.883782172128919
    vertex 255.9423899021146 822.6288353720439 5.087494262519495
    vertex 256.1771905398315 822.6288353720439 5.056582172128916
  endloop
endfacet
facet normal 0.9095100092854728 0.17568440343306038 0.3767313809598408
  outer loop
    vertex 257.05347844944095 822.6288353720439 6.198582809845963
    vertex 257.11249797591864 821.6688353720439 6.50378217212894
    vertex 257.22039043222355 821.6688353720439 6.243306740839659
  endloop
endfacet
facet normal 0.9095100092854728 0.17568440343306038 0.3767313809598408
  outer loop
    vertex 257.11249797591864 821.6688353720439 6.50378217212894
    vertex 257.05347844944095 822.6288353720439 6.198582809845963
    vertex 256.9628487861448 822.6288353720439 6.417382172128966
  endloop
endfacet
facet normal -0.9760244635173425 0.1756844034332729 -0.12849605832856792
  outer loop
    vertex 271.2779905398314 822.6288353720439 5.963782172128955
    vertex 271.1419906474391 821.6688353720439 5.6842576034182075
    vertex 271.10519053983126 821.6688353720439 5.963782172128933
  endloop
endfacet
facet normal -0.9760244635173425 0.1756844034332729 -0.12849605832856792
  outer loop
    vertex 271.1419906474391 821.6688353720439 5.6842576034182075
    vertex 271.2779905398314 822.6288353720439 5.963782172128955
    vertex 271.308902630222 822.6288353720439 5.728981534411947
  endloop
endfacet
facet normal 0.9760244635173829 0.17568440343304564 -0.12849605832857286
  outer loop
    vertex 273.0614784494408 822.6288353720439 5.728981534411947
    vertex 273.2651905398313 821.6688353720439 5.963782172128933
    vertex 273.2283904322235 821.6688353720439 5.6842576034182075
  endloop
endfacet
facet normal 0.9760244635173829 0.17568440343304564 -0.12849605832857286
  outer loop
    vertex 273.2651905398313 821.6688353720439 5.963782172128933
    vertex 273.0614784494408 822.6288353720439 5.728981534411947
    vertex 273.09239053983134 822.6288353720439 5.963782172128955
  endloop
endfacet
facet normal -0.599293082557 0.17568440343313751 0.7810139509571333
  outer loop
    vertex 271.64519053983133 821.6688353720439 6.899089608216138
    vertex 271.5437032679387 822.6288353720439 6.605269444021389
    vertex 271.42151521614977 821.6688353720439 6.727457495810421
  endloop
endfacet
facet normal -0.599293082557 0.17568440343313751 0.7810139509571333
  outer loop
    vertex 271.5437032679387 822.6288353720439 6.605269444021389
    vertex 271.64519053983133 821.6688353720439 6.899089608216138
    vertex 271.7315905398315 822.6288353720439 6.74944041844221
  endloop
endfacet
facet normal 0.7810139509569036 0.17568440343311623 0.5992930825573057
  outer loop
    vertex 272.9708487861446 822.6288353720439 6.417382172128966
    vertex 272.9488658635128 821.6688353720439 6.727457495810412
    vertex 273.12049797591857 821.6688353720439 6.50378217212894
  endloop
endfacet
facet normal 0.7810139509569036 0.17568440343311623 0.5992930825573057
  outer loop
    vertex 272.9488658635128 821.6688353720439 6.727457495810412
    vertex 272.9708487861446 822.6288353720439 6.417382172128966
    vertex 272.8266778117238 822.6288353720439 6.605269444021389
  endloop
endfacet
facet normal -0.9760244635173436 0.17568440343326724 0.128496058328568
  outer loop
    vertex 271.308902630222 822.6288353720439 6.198582809845963
    vertex 271.10519053983126 821.6688353720439 5.963782172128933
    vertex 271.1419906474391 821.6688353720439 6.243306740839659
  endloop
endfacet
facet normal -0.9760244635173436 0.17568440343326724 0.128496058328568
  outer loop
    vertex 271.10519053983126 821.6688353720439 5.963782172128933
    vertex 271.308902630222 822.6288353720439 6.198582809845963
    vertex 271.2779905398314 822.6288353720439 5.963782172128955
  endloop
endfacet
facet normal 0.37673138096011866 0.1756844034331095 -0.9095100092853483
  outer loop
    vertex 272.6387905398313 822.6288353720439 5.178123925815694
    vertex 272.464715108542 821.6688353720439 4.9205822797367285
    vertex 272.41999117754835 822.6288353720439 5.087494262519495
  endloop
endfacet
facet normal 0.37673138096011866 0.1756844034331095 -0.9095100092853483
  outer loop
    vertex 272.464715108542 821.6688353720439 4.9205822797367285
    vertex 272.6387905398313 822.6288353720439 5.178123925815694
    vertex 272.72519053983126 821.6688353720439 5.028474736041729
  endloop
endfacet
facet normal -0.9095100092855858 0.1756844034331728 0.3767313809595162
  outer loop
    vertex 271.39953229351795 822.6288353720439 6.417382172128966
    vertex 271.1419906474391 821.6688353720439 6.243306740839659
    vertex 271.249883103744 821.6688353720439 6.50378217212894
  endloop
endfacet
facet normal -0.9095100092855858 0.1756844034331728 0.3767313809595162
  outer loop
    vertex 271.1419906474391 821.6688353720439 6.243306740839659
    vertex 271.39953229351795 822.6288353720439 6.417382172128966
    vertex 271.308902630222 822.6288353720439 6.198582809845963
  endloop
endfacet
facet normal -0.7810139509569196 0.17568440343311778 -0.5992930825572842
  outer loop
    vertex 271.39953229351795 822.6288353720439 5.510182172128954
    vertex 271.42151521614977 821.6688353720439 5.200106848447454
    vertex 271.249883103744 821.6688353720439 5.423782172128926
  endloop
endfacet
facet normal -0.7810139509569196 0.17568440343311778 -0.5992930825572842
  outer loop
    vertex 271.42151521614977 821.6688353720439 5.200106848447454
    vertex 271.39953229351795 822.6288353720439 5.510182172128954
    vertex 271.5437032679387 822.6288353720439 5.322294900236504
  endloop
endfacet
facet normal 0.7810139509569173 0.17568440343314085 -0.5992930825572805
  outer loop
    vertex 272.8266778117238 822.6288353720439 5.322294900236504
    vertex 273.12049797591857 821.6688353720439 5.423782172128926
    vertex 272.9488658635128 821.6688353720439 5.200106848447454
  endloop
endfacet
facet normal 0.7810139509569173 0.17568440343314085 -0.5992930825572805
  outer loop
    vertex 273.12049797591857 821.6688353720439 5.423782172128926
    vertex 272.8266778117238 822.6288353720439 5.322294900236504
    vertex 272.9708487861446 822.6288353720439 5.510182172128954
  endloop
endfacet
facet normal -0.9095100092855799 0.1756844034331913 -0.3767313809595215
  outer loop
    vertex 271.308902630222 822.6288353720439 5.728981534411947
    vertex 271.249883103744 821.6688353720439 5.423782172128926
    vertex 271.1419906474391 821.6688353720439 5.6842576034182075
  endloop
endfacet
facet normal -0.9095100092855799 0.1756844034331913 -0.3767313809595215
  outer loop
    vertex 271.249883103744 821.6688353720439 5.423782172128926
    vertex 271.308902630222 822.6288353720439 5.728981534411947
    vertex 271.39953229351795 822.6288353720439 5.510182172128954
  endloop
endfacet
facet normal 7.11236625150496e-15 1.0 -3.778678011583711e-16
  outer loop
    vertex 271.95038990211447 822.6288353720439 5.087494262519495
    vertex 272.41999117754835 822.6288353720439 5.087494262519495
    vertex 272.18519053983135 822.6288353720439 5.056582172128916
  endloop
endfacet
facet normal 7.11236625150496e-15 1.0 -3.778678011583711e-16
  outer loop
    vertex 272.41999117754835 822.6288353720439 5.087494262519495
    vertex 271.95038990211447 822.6288353720439 5.087494262519495
    vertex 271.7315905398315 822.6288353720439 5.178123925815694
  endloop
endfacet
facet normal 7.11236625150496e-15 1.0 -3.778678011583711e-16
  outer loop
    vertex 272.41999117754835 822.6288353720439 5.087494262519495
    vertex 271.7315905398315 822.6288353720439 5.178123925815694
    vertex 272.6387905398313 822.6288353720439 5.178123925815694
  endloop
endfacet
facet normal 7.11236625150496e-15 1.0 -3.778678011583711e-16
  outer loop
    vertex 272.6387905398313 822.6288353720439 5.178123925815694
    vertex 271.7315905398315 822.6288353720439 5.178123925815694
    vertex 271.5437032679387 822.6288353720439 5.322294900236504
  endloop
endfacet
facet normal 7.11236625150496e-15 1.0 -3.778678011583711e-16
  outer loop
    vertex 272.6387905398313 822.6288353720439 5.178123925815694
    vertex 271.5437032679387 822.6288353720439 5.322294900236504
    vertex 272.8266778117238 822.6288353720439 5.322294900236504
  endloop
endfacet
facet normal 7.11236625150496e-15 1.0 -3.778678011583711e-16
  outer loop
    vertex 272.8266778117238 822.6288353720439 5.322294900236504
    vertex 271.5437032679387 822.6288353720439 5.322294900236504
    vertex 271.39953229351795 822.6288353720439 5.510182172128954
  endloop
endfacet
facet normal 7.11236625150496e-15 1.0 -3.778678011583711e-16
  outer loop
    vertex 272.8266778117238 822.6288353720439 5.322294900236504
    vertex 271.39953229351795 822.6288353720439 5.510182172128954
    vertex 272.9708487861446 822.6288353720439 5.510182172128954
  endloop
endfacet
facet normal 7.11236625150496e-15 1.0 -3.778678011583711e-16
  outer loop
    vertex 272.9708487861446 822.6288353720439 5.510182172128954
    vertex 271.39953229351795 822.6288353720439 5.510182172128954
    vertex 271.308902630222 822.6288353720439 5.728981534411947
  endloop
endfacet
facet normal 7.11236625150496e-15 1.0 -3.778678011583711e-16
  outer loop
    vertex 272.9708487861446 822.6288353720439 5.510182172128954
    vertex 271.308902630222 822.6288353720439 5.728981534411947
    vertex 273.0614784494408 822.6288353720439 5.728981534411947
  endloop
endfacet
facet normal 7.11236625150496e-15 1.0 -3.778678011583711e-16
  outer loop
    vertex 273.0614784494408 822.6288353720439 5.728981534411947
    vertex 271.308902630222 822.6288353720439 5.728981534411947
    vertex 271.2779905398314 822.6288353720439 5.963782172128955
  endloop
endfacet
facet normal 7.11236625150496e-15 1.0 -3.778678011583711e-16
  outer loop
    vertex 273.0614784494408 822.6288353720439 5.728981534411947
    vertex 271.2779905398314 822.6288353720439 5.963782172128955
    vertex 273.09239053983134 822.6288353720439 5.963782172128955
  endloop
endfacet
facet normal 7.11236625150496e-15 1.0 -3.778678011583711e-16
  outer loop
    vertex 273.09239053983134 822.6288353720439 5.963782172128955
    vertex 271.2779905398314 822.6288353720439 5.963782172128955
    vertex 271.308902630222 822.6288353720439 6.198582809845963
  endloop
endfacet
facet normal 7.11236625150496e-15 1.0 -3.778678011583711e-16
  outer loop
    vertex 273.09239053983134 822.6288353720439 5.963782172128955
    vertex 271.308902630222 822.6288353720439 6.198582809845963
    vertex 273.0614784494408 822.6288353720439 6.198582809845963
  endloop
endfacet
facet normal 7.11236625150496e-15 1.0 -3.778678011583711e-16
  outer loop
    vertex 273.0614784494408 822.6288353720439 6.198582809845963
    vertex 271.308902630222 822.6288353720439 6.198582809845963
    vertex 271.39953229351795 822.6288353720439 6.417382172128966
  endloop
endfacet
facet normal 7.11236625150496e-15 1.0 -3.778678011583711e-16
  outer loop
    vertex 273.0614784494408 822.6288353720439 6.198582809845963
    vertex 271.39953229351795 822.6288353720439 6.417382172128966
    vertex 272.9708487861446 822.6288353720439 6.417382172128966
  endloop
endfacet
facet normal 7.11236625150496e-15 1.0 -3.778678011583711e-16
  outer loop
    vertex 272.9708487861446 822.6288353720439 6.417382172128966
    vertex 271.39953229351795 822.6288353720439 6.417382172128966
    vertex 271.5437032679387 822.6288353720439 6.605269444021389
  endloop
endfacet
facet normal 7.11236625150496e-15 1.0 -3.778678011583711e-16
  outer loop
    vertex 272.9708487861446 822.6288353720439 6.417382172128966
    vertex 271.5437032679387 822.6288353720439 6.605269444021389
    vertex 272.8266778117238 822.6288353720439 6.605269444021389
  endloop
endfacet
facet normal 7.11236625150496e-15 1.0 -3.778678011583711e-16
  outer loop
    vertex 272.8266778117238 822.6288353720439 6.605269444021389
    vertex 271.5437032679387 822.6288353720439 6.605269444021389
    vertex 271.7315905398315 822.6288353720439 6.74944041844221
  endloop
endfacet
facet normal 7.11236625150496e-15 1.0 -3.778678011583711e-16
  outer loop
    vertex 272.8266778117238 822.6288353720439 6.605269444021389
    vertex 271.7315905398315 822.6288353720439 6.74944041844221
    vertex 272.6387905398313 822.6288353720439 6.74944041844221
  endloop
endfacet
facet normal 7.11236625150496e-15 1.0 -3.778678011583711e-16
  outer loop
    vertex 272.6387905398313 822.6288353720439 6.74944041844221
    vertex 271.7315905398315 822.6288353720439 6.74944041844221
    vertex 271.95038990211447 822.6288353720439 6.840070081738407
  endloop
endfacet
facet normal 7.11236625150496e-15 1.0 -3.778678011583711e-16
  outer loop
    vertex 272.6387905398313 822.6288353720439 6.74944041844221
    vertex 271.95038990211447 822.6288353720439 6.840070081738407
    vertex 272.41999117754835 822.6288353720439 6.840070081738407
  endloop
endfacet
facet normal 7.11236625150496e-15 1.0 -3.778678011583711e-16
  outer loop
    vertex 272.41999117754835 822.6288353720439 6.840070081738407
    vertex 271.95038990211447 822.6288353720439 6.840070081738407
    vertex 272.18519053983135 822.6288353720439 6.870982172128967
  endloop
endfacet
facet normal -0.12849605832849756 0.1756844034331456 -0.9760244635173747
  outer loop
    vertex 271.95038990211447 822.6288353720439 5.087494262519495
    vertex 272.18519053983135 821.6688353720439 4.883782172128919
    vertex 271.9056659711206 821.6688353720439 4.9205822797367285
  endloop
endfacet
facet normal -0.12849605832849756 0.1756844034331456 -0.9760244635173747
  outer loop
    vertex 272.18519053983135 821.6688353720439 4.883782172128919
    vertex 271.95038990211447 822.6288353720439 5.087494262519495
    vertex 272.18519053983135 822.6288353720439 5.056582172128916
  endloop
endfacet
facet normal 0.12849605832853672 0.17568440343312966 -0.9760244635173724
  outer loop
    vertex 272.41999117754835 822.6288353720439 5.087494262519495
    vertex 272.18519053983135 821.6688353720439 4.883782172128919
    vertex 272.18519053983135 822.6288353720439 5.056582172128916
  endloop
endfacet
facet normal 0.12849605832853672 0.17568440343312966 -0.9760244635173724
  outer loop
    vertex 272.18519053983135 821.6688353720439 4.883782172128919
    vertex 272.41999117754835 822.6288353720439 5.087494262519495
    vertex 272.464715108542 821.6688353720439 4.9205822797367285
  endloop
endfacet
facet normal 0.9095100092854432 0.17568440343308023 0.37673138095990305
  outer loop
    vertex 273.0614784494408 822.6288353720439 6.198582809845963
    vertex 273.12049797591857 821.6688353720439 6.50378217212894
    vertex 273.2283904322235 821.6688353720439 6.243306740839659
  endloop
endfacet
facet normal 0.9095100092854432 0.17568440343308023 0.37673138095990305
  outer loop
    vertex 273.12049797591857 821.6688353720439 6.50378217212894
    vertex 273.0614784494408 822.6288353720439 6.198582809845963
    vertex 272.9708487861446 822.6288353720439 6.417382172128966
  endloop
endfacet
facet normal 0.9095100092854377 0.17568440343309882 -0.37673138095990827
  outer loop
    vertex 272.9708487861446 822.6288353720439 5.510182172128954
    vertex 273.2283904322235 821.6688353720439 5.6842576034182075
    vertex 273.12049797591857 821.6688353720439 5.423782172128926
  endloop
endfacet
facet normal 0.9095100092854377 0.17568440343309882 -0.37673138095990827
  outer loop
    vertex 273.2283904322235 821.6688353720439 5.6842576034182075
    vertex 272.9708487861446 822.6288353720439 5.510182172128954
    vertex 273.0614784494408 822.6288353720439 5.728981534411947
  endloop
endfacet
facet normal -0.781013950956914 0.17568440343309644 0.599293082557298
  outer loop
    vertex 271.5437032679387 822.6288353720439 6.605269444021389
    vertex 271.249883103744 821.6688353720439 6.50378217212894
    vertex 271.42151521614977 821.6688353720439 6.727457495810421
  endloop
endfacet
facet normal -0.781013950956914 0.17568440343309644 0.599293082557298
  outer loop
    vertex 271.249883103744 821.6688353720439 6.50378217212894
    vertex 271.5437032679387 822.6288353720439 6.605269444021389
    vertex 271.39953229351795 822.6288353720439 6.417382172128966
  endloop
endfacet
facet normal 0.37673138096012104 0.1756844034330746 0.9095100092853541
  outer loop
    vertex 272.464715108542 821.6688353720439 7.006982064521138
    vertex 272.6387905398313 822.6288353720439 6.74944041844221
    vertex 272.41999117754835 822.6288353720439 6.840070081738407
  endloop
endfacet
facet normal 0.37673138096012104 0.1756844034330746 0.9095100092853541
  outer loop
    vertex 272.6387905398313 822.6288353720439 6.74944041844221
    vertex 272.464715108542 821.6688353720439 7.006982064521138
    vertex 272.72519053983126 821.6688353720439 6.899089608216138
  endloop
endfacet
facet normal -0.3767313809601059 0.17568440343315908 0.909510009285344
  outer loop
    vertex 271.9056659711206 821.6688353720439 7.006982064521147
    vertex 271.7315905398315 822.6288353720439 6.74944041844221
    vertex 271.64519053983133 821.6688353720439 6.899089608216138
  endloop
endfacet
facet normal -0.3767313809601059 0.17568440343315908 0.909510009285344
  outer loop
    vertex 271.7315905398315 822.6288353720439 6.74944041844221
    vertex 271.9056659711206 821.6688353720439 7.006982064521147
    vertex 271.95038990211447 822.6288353720439 6.840070081738407
  endloop
endfacet
facet normal -0.37673138096008485 0.17568440343318903 -0.9095100092853469
  outer loop
    vertex 271.7315905398315 822.6288353720439 5.178123925815694
    vertex 271.9056659711206 821.6688353720439 4.9205822797367285
    vertex 271.64519053983133 821.6688353720439 5.028474736041729
  endloop
endfacet
facet normal -0.37673138096008485 0.17568440343318903 -0.9095100092853469
  outer loop
    vertex 271.9056659711206 821.6688353720439 4.9205822797367285
    vertex 271.7315905398315 822.6288353720439 5.178123925815694
    vertex 271.95038990211447 822.6288353720439 5.087494262519495
  endloop
endfacet
facet normal -0.12849605832843972 0.17568440343312408 0.9760244635173861
  outer loop
    vertex 272.18519053983135 821.6688353720439 7.043782172128947
    vertex 271.95038990211447 822.6288353720439 6.840070081738407
    vertex 271.9056659711206 821.6688353720439 7.006982064521147
  endloop
endfacet
facet normal -0.12849605832843972 0.17568440343312408 0.9760244635173861
  outer loop
    vertex 271.95038990211447 822.6288353720439 6.840070081738407
    vertex 272.18519053983135 821.6688353720439 7.043782172128947
    vertex 272.18519053983135 822.6288353720439 6.870982172128967
  endloop
endfacet
facet normal 0.12849605832850072 0.17568440343310285 0.9760244635173819
  outer loop
    vertex 272.464715108542 821.6688353720439 7.006982064521138
    vertex 272.18519053983135 822.6288353720439 6.870982172128967
    vertex 272.18519053983135 821.6688353720439 7.043782172128947
  endloop
endfacet
facet normal 0.12849605832850072 0.17568440343310285 0.9760244635173819
  outer loop
    vertex 272.18519053983135 822.6288353720439 6.870982172128967
    vertex 272.464715108542 821.6688353720439 7.006982064521138
    vertex 272.41999117754835 822.6288353720439 6.840070081738407
  endloop
endfacet
facet normal 0.9760244635173838 0.17568440343303993 0.128496058328573
  outer loop
    vertex 273.09239053983134 822.6288353720439 5.963782172128955
    vertex 273.2283904322235 821.6688353720439 6.243306740839659
    vertex 273.2651905398313 821.6688353720439 5.963782172128933
  endloop
endfacet
facet normal 0.9760244635173838 0.17568440343303993 0.128496058328573
  outer loop
    vertex 273.2283904322235 821.6688353720439 6.243306740839659
    vertex 273.09239053983134 822.6288353720439 5.963782172128955
    vertex 273.0614784494408 822.6288353720439 6.198582809845963
  endloop
endfacet
facet normal 0.5992930825571864 0.1756844034331111 -0.7810139509569961
  outer loop
    vertex 272.8266778117238 822.6288353720439 5.322294900236504
    vertex 272.72519053983126 821.6688353720439 5.028474736041729
    vertex 272.6387905398313 822.6288353720439 5.178123925815694
  endloop
endfacet
facet normal 0.5992930825571864 0.1756844034331111 -0.7810139509569961
  outer loop
    vertex 272.72519053983126 821.6688353720439 5.028474736041729
    vertex 272.8266778117238 822.6288353720439 5.322294900236504
    vertex 272.9488658635128 821.6688353720439 5.200106848447454
  endloop
endfacet
facet normal -0.909510009285603 0.17568440343321118 -0.3767313809594565
  outer loop
    vertex 255.30090263022214 822.6288353720439 5.728981534411947
    vertex 255.24188310374413 821.6688353720439 5.423782172128926
    vertex 255.13399064743922 821.6688353720439 5.6842576034182075
  endloop
endfacet
facet normal -0.909510009285603 0.17568440343321118 -0.3767313809594565
  outer loop
    vertex 255.24188310374413 821.6688353720439 5.423782172128926
    vertex 255.30090263022214 822.6288353720439 5.728981534411947
    vertex 255.39153229351805 822.6288353720439 5.510182172128954
  endloop
endfacet
facet normal -0.3767313809601048 0.17568440343317557 0.9095100092853414
  outer loop
    vertex 255.8976659711207 821.6688353720439 7.006982064521147
    vertex 255.72359053983155 822.6288353720439 6.74944041844221
    vertex 255.63719053983144 821.6688353720439 6.899089608216138
  endloop
endfacet
facet normal -0.3767313809601048 0.17568440343317557 0.9095100092853414
  outer loop
    vertex 255.72359053983155 822.6288353720439 6.74944041844221
    vertex 255.8976659711207 821.6688353720439 7.006982064521147
    vertex 255.9423899021146 822.6288353720439 6.840070081738407
  endloop
endfacet
facet normal 0.5992930825572385 0.17568440343307234 0.7810139509569651
  outer loop
    vertex 256.7171905398314 821.6688353720439 6.899089608216138
    vertex 256.81867781172394 822.6288353720439 6.605269444021389
    vertex 256.6307905398315 822.6288353720439 6.74944041844221
  endloop
endfacet
facet normal 0.5992930825572385 0.17568440343307234 0.7810139509569651
  outer loop
    vertex 256.81867781172394 822.6288353720439 6.605269444021389
    vertex 256.7171905398314 821.6688353720439 6.899089608216138
    vertex 256.9408658635129 821.6688353720439 6.727457495810412
  endloop
endfacet
facet normal -0.7810139509568754 0.17568440343311345 0.5992930825573429
  outer loop
    vertex 255.53570326793889 822.6288353720439 6.605269444021389
    vertex 255.24188310374413 821.6688353720439 6.50378217212894
    vertex 255.41351521614988 821.6688353720439 6.727457495810421
  endloop
endfacet
facet normal -0.7810139509568754 0.17568440343311345 0.5992930825573429
  outer loop
    vertex 255.24188310374413 821.6688353720439 6.50378217212894
    vertex 255.53570326793889 822.6288353720439 6.605269444021389
    vertex 255.39153229351805 822.6288353720439 6.417382172128966
  endloop
endfacet
facet normal 0.37673138096009523 0.17568440343306635 0.9095100092853663
  outer loop
    vertex 256.45671510854214 821.6688353720439 7.006982064521138
    vertex 256.6307905398315 822.6288353720439 6.74944041844221
    vertex 256.4119911775485 822.6288353720439 6.840070081738407
  endloop
endfacet
facet normal 0.37673138096009523 0.17568440343306635 0.9095100092853663
  outer loop
    vertex 256.6307905398315 822.6288353720439 6.74944041844221
    vertex 256.45671510854214 821.6688353720439 7.006982064521138
    vertex 256.7171905398314 821.6688353720439 6.899089608216138
  endloop
endfacet
facet normal 0.5992930825572009 0.17568440343308545 0.7810139509569908
  outer loop
    vertex 272.72519053983126 821.6688353720439 6.899089608216138
    vertex 272.8266778117238 822.6288353720439 6.605269444021389
    vertex 272.6387905398313 822.6288353720439 6.74944041844221
  endloop
endfacet
facet normal 0.5992930825572009 0.17568440343308545 0.7810139509569908
  outer loop
    vertex 272.8266778117238 822.6288353720439 6.605269444021389
    vertex 272.72519053983126 821.6688353720439 6.899089608216138
    vertex 272.9488658635128 821.6688353720439 6.727457495810412
  endloop
endfacet
facet normal 0.7810139509568838 0.17568440343312372 -0.5992930825573292
  outer loop
    vertex 256.81867781172394 822.6288353720439 5.322294900236504
    vertex 257.11249797591864 821.6688353720439 5.423782172128926
    vertex 256.9408658635129 821.6688353720439 5.200106848447454
  endloop
endfacet
facet normal 0.7810139509568838 0.17568440343312372 -0.5992930825573292
  outer loop
    vertex 257.11249797591864 821.6688353720439 5.423782172128926
    vertex 256.81867781172394 822.6288353720439 5.322294900236504
    vertex 256.9628487861448 822.6288353720439 5.510182172128954
  endloop
endfacet
facet normal 0.37673138096009295 0.17568440343310132 -0.9095100092853605
  outer loop
    vertex 256.6307905398315 822.6288353720439 5.178123925815694
    vertex 256.45671510854214 821.6688353720439 4.9205822797367285
    vertex 256.4119911775485 822.6288353720439 5.087494262519495
  endloop
endfacet
facet normal 0.37673138096009295 0.17568440343310132 -0.9095100092853605
  outer loop
    vertex 256.45671510854214 821.6688353720439 4.9205822797367285
    vertex 256.6307905398315 822.6288353720439 5.178123925815694
    vertex 256.7171905398314 821.6688353720439 5.028474736041729
  endloop
endfacet
facet normal 0.9095100092854671 0.17568440343307892 -0.37673138095984615
  outer loop
    vertex 256.9628487861448 822.6288353720439 5.510182172128954
    vertex 257.22039043222355 821.6688353720439 5.6842576034182075
    vertex 257.11249797591864 821.6688353720439 5.423782172128926
  endloop
endfacet
facet normal 0.9095100092854671 0.17568440343307892 -0.37673138095984615
  outer loop
    vertex 257.22039043222355 821.6688353720439 5.6842576034182075
    vertex 256.9628487861448 822.6288353720439 5.510182172128954
    vertex 257.05347844944095 822.6288353720439 5.728981534411947
  endloop
endfacet
facet normal -0.37673138096008374 0.17568440343320546 -0.9095100092853442
  outer loop
    vertex 255.72359053983155 822.6288353720439 5.178123925815694
    vertex 255.8976659711207 821.6688353720439 4.9205822797367285
    vertex 255.63719053983144 821.6688353720439 5.028474736041729
  endloop
endfacet
facet normal -0.37673138096008374 0.17568440343320546 -0.9095100092853442
  outer loop
    vertex 255.8976659711207 821.6688353720439 4.9205822797367285
    vertex 255.72359053983155 822.6288353720439 5.178123925815694
    vertex 255.9423899021146 822.6288353720439 5.087494262519495
  endloop
endfacet
facet normal -0.5992930825569999 0.17568440343315894 -0.7810139509571284
  outer loop
    vertex 271.5437032679387 822.6288353720439 5.322294900236504
    vertex 271.64519053983133 821.6688353720439 5.028474736041729
    vertex 271.42151521614977 821.6688353720439 5.200106848447454
  endloop
endfacet
facet normal -0.5992930825569999 0.17568440343315894 -0.7810139509571284
  outer loop
    vertex 271.64519053983133 821.6688353720439 5.028474736041729
    vertex 271.5437032679387 822.6288353720439 5.322294900236504
    vertex 271.7315905398315 822.6288353720439 5.178123925815694
  endloop
endfacet
facet normal 0.7810139509568701 0.17568440343309916 0.5992930825573541
  outer loop
    vertex 256.9628487861448 822.6288353720439 6.417382172128966
    vertex 256.9408658635129 821.6688353720439 6.727457495810412
    vertex 257.11249797591864 821.6688353720439 6.50378217212894
  endloop
endfacet
facet normal 0.7810139509568701 0.17568440343309916 0.5992930825573541
  outer loop
    vertex 256.9408658635129 821.6688353720439 6.727457495810412
    vertex 256.9628487861448 822.6288353720439 6.417382172128966
    vertex 256.81867781172394 822.6288353720439 6.605269444021389
  endloop
endfacet
facet normal 7.11236625150496e-15 1.0 -3.7786780115837106e-16
  outer loop
    vertex 255.9423899021146 822.6288353720439 5.087494262519495
    vertex 256.4119911775485 822.6288353720439 5.087494262519495
    vertex 256.1771905398315 822.6288353720439 5.056582172128916
  endloop
endfacet
facet normal 7.11236625150496e-15 1.0 -3.7786780115837106e-16
  outer loop
    vertex 256.4119911775485 822.6288353720439 5.087494262519495
    vertex 255.9423899021146 822.6288353720439 5.087494262519495
    vertex 255.72359053983155 822.6288353720439 5.178123925815694
  endloop
endfacet
facet normal 7.11236625150496e-15 1.0 -3.7786780115837106e-16
  outer loop
    vertex 256.4119911775485 822.6288353720439 5.087494262519495
    vertex 255.72359053983155 822.6288353720439 5.178123925815694
    vertex 256.6307905398315 822.6288353720439 5.178123925815694
  endloop
endfacet
facet normal 7.11236625150496e-15 1.0 -3.7786780115837106e-16
  outer loop
    vertex 256.6307905398315 822.6288353720439 5.178123925815694
    vertex 255.72359053983155 822.6288353720439 5.178123925815694
    vertex 255.53570326793889 822.6288353720439 5.322294900236504
  endloop
endfacet
facet normal 7.11236625150496e-15 1.0 -3.7786780115837106e-16
  outer loop
    vertex 256.6307905398315 822.6288353720439 5.178123925815694
    vertex 255.53570326793889 822.6288353720439 5.322294900236504
    vertex 256.81867781172394 822.6288353720439 5.322294900236504
  endloop
endfacet
facet normal 7.11236625150496e-15 1.0 -3.7786780115837106e-16
  outer loop
    vertex 256.81867781172394 822.6288353720439 5.322294900236504
    vertex 255.53570326793889 822.6288353720439 5.322294900236504
    vertex 255.39153229351805 822.6288353720439 5.510182172128954
  endloop
endfacet
facet normal 7.11236625150496e-15 1.0 -3.7786780115837106e-16
  outer loop
    vertex 256.81867781172394 822.6288353720439 5.322294900236504
    vertex 255.39153229351805 822.6288353720439 5.510182172128954
    vertex 256.9628487861448 822.6288353720439 5.510182172128954
  endloop
endfacet
facet normal 7.11236625150496e-15 1.0 -3.7786780115837106e-16
  outer loop
    vertex 256.9628487861448 822.6288353720439 5.510182172128954
    vertex 255.39153229351805 822.6288353720439 5.510182172128954
    vertex 255.30090263022214 822.6288353720439 5.728981534411947
  endloop
endfacet
facet normal 7.11236625150496e-15 1.0 -3.7786780115837106e-16
  outer loop
    vertex 256.9628487861448 822.6288353720439 5.510182172128954
    vertex 255.30090263022214 822.6288353720439 5.728981534411947
    vertex 257.05347844944095 822.6288353720439 5.728981534411947
  endloop
endfacet
facet normal 7.11236625150496e-15 1.0 -3.7786780115837106e-16
  outer loop
    vertex 257.05347844944095 822.6288353720439 5.728981534411947
    vertex 255.30090263022214 822.6288353720439 5.728981534411947
    vertex 255.2699905398316 822.6288353720439 5.963782172128955
  endloop
endfacet
facet normal 7.11236625150496e-15 1.0 -3.7786780115837106e-16
  outer loop
    vertex 257.05347844944095 822.6288353720439 5.728981534411947
    vertex 255.2699905398316 822.6288353720439 5.963782172128955
    vertex 257.0843905398315 822.6288353720439 5.963782172128955
  endloop
endfacet
facet normal 7.11236625150496e-15 1.0 -3.7786780115837106e-16
  outer loop
    vertex 257.0843905398315 822.6288353720439 5.963782172128955
    vertex 255.2699905398316 822.6288353720439 5.963782172128955
    vertex 255.30090263022214 822.6288353720439 6.198582809845963
  endloop
endfacet
facet normal 7.11236625150496e-15 1.0 -3.7786780115837106e-16
  outer loop
    vertex 257.0843905398315 822.6288353720439 5.963782172128955
    vertex 255.30090263022214 822.6288353720439 6.198582809845963
    vertex 257.05347844944095 822.6288353720439 6.198582809845963
  endloop
endfacet
facet normal 7.11236625150496e-15 1.0 -3.7786780115837106e-16
  outer loop
    vertex 257.05347844944095 822.6288353720439 6.198582809845963
    vertex 255.30090263022214 822.6288353720439 6.198582809845963
    vertex 255.39153229351805 822.6288353720439 6.417382172128966
  endloop
endfacet
facet normal 7.11236625150496e-15 1.0 -3.7786780115837106e-16
  outer loop
    vertex 257.05347844944095 822.6288353720439 6.198582809845963
    vertex 255.39153229351805 822.6288353720439 6.417382172128966
    vertex 256.9628487861448 822.6288353720439 6.417382172128966
  endloop
endfacet
facet normal 7.11236625150496e-15 1.0 -3.7786780115837106e-16
  outer loop
    vertex 256.9628487861448 822.6288353720439 6.417382172128966
    vertex 255.39153229351805 822.6288353720439 6.417382172128966
    vertex 255.53570326793889 822.6288353720439 6.605269444021389
  endloop
endfacet
facet normal 7.11236625150496e-15 1.0 -3.7786780115837106e-16
  outer loop
    vertex 256.9628487861448 822.6288353720439 6.417382172128966
    vertex 255.53570326793889 822.6288353720439 6.605269444021389
    vertex 256.81867781172394 822.6288353720439 6.605269444021389
  endloop
endfacet
facet normal 7.11236625150496e-15 1.0 -3.7786780115837106e-16
  outer loop
    vertex 256.81867781172394 822.6288353720439 6.605269444021389
    vertex 255.53570326793889 822.6288353720439 6.605269444021389
    vertex 255.72359053983155 822.6288353720439 6.74944041844221
  endloop
endfacet
facet normal 7.11236625150496e-15 1.0 -3.7786780115837106e-16
  outer loop
    vertex 256.81867781172394 822.6288353720439 6.605269444021389
    vertex 255.72359053983155 822.6288353720439 6.74944041844221
    vertex 256.6307905398315 822.6288353720439 6.74944041844221
  endloop
endfacet
facet normal 7.11236625150496e-15 1.0 -3.7786780115837106e-16
  outer loop
    vertex 256.6307905398315 822.6288353720439 6.74944041844221
    vertex 255.72359053983155 822.6288353720439 6.74944041844221
    vertex 255.9423899021146 822.6288353720439 6.840070081738407
  endloop
endfacet
facet normal 7.11236625150496e-15 1.0 -3.7786780115837106e-16
  outer loop
    vertex 256.6307905398315 822.6288353720439 6.74944041844221
    vertex 255.9423899021146 822.6288353720439 6.840070081738407
    vertex 256.4119911775485 822.6288353720439 6.840070081738407
  endloop
endfacet
facet normal 7.11236625150496e-15 1.0 -3.7786780115837106e-16
  outer loop
    vertex 256.4119911775485 822.6288353720439 6.840070081738407
    vertex 255.9423899021146 822.6288353720439 6.840070081738407
    vertex 256.1771905398315 822.6288353720439 6.870982172128967
  endloop
endfacet
facet normal -0.7810139509568812 0.1756844034331349 -0.5992930825573292
  outer loop
    vertex 255.39153229351805 822.6288353720439 5.510182172128954
    vertex 255.41351521614988 821.6688353720439 5.200106848447454
    vertex 255.24188310374413 821.6688353720439 5.423782172128926
  endloop
endfacet
facet normal -0.7810139509568812 0.1756844034331349 -0.5992930825573292
  outer loop
    vertex 255.41351521614988 821.6688353720439 5.200106848447454
    vertex 255.39153229351805 822.6288353720439 5.510182172128954
    vertex 255.53570326793889 822.6288353720439 5.322294900236504
  endloop
endfacet
facet normal -0.599293082556997 0.17568440343318523 -0.7810139509571249
  outer loop
    vertex 255.53570326793889 822.6288353720439 5.322294900236504
    vertex 255.63719053983144 821.6688353720439 5.028474736041729
    vertex 255.41351521614988 821.6688353720439 5.200106848447454
  endloop
endfacet
facet normal -0.599293082556997 0.17568440343318523 -0.7810139509571249
  outer loop
    vertex 255.63719053983144 821.6688353720439 5.028474736041729
    vertex 255.53570326793889 822.6288353720439 5.322294900236504
    vertex 255.72359053983155 822.6288353720439 5.178123925815694
  endloop
endfacet
facet normal -0.5992930825569972 0.17568440343316374 0.7810139509571296
  outer loop
    vertex 255.63719053983144 821.6688353720439 6.899089608216138
    vertex 255.53570326793889 822.6288353720439 6.605269444021389
    vertex 255.41351521614988 821.6688353720439 6.727457495810421
  endloop
endfacet
facet normal -0.5992930825569972 0.17568440343316374 0.7810139509571296
  outer loop
    vertex 255.53570326793889 822.6288353720439 6.605269444021389
    vertex 255.63719053983144 821.6688353720439 6.899089608216138
    vertex 255.72359053983155 822.6288353720439 6.74944041844221
  endloop
endfacet
facet normal 0.5992930825572239 0.17568440343309807 -0.7810139509569705
  outer loop
    vertex 256.81867781172394 822.6288353720439 5.322294900236504
    vertex 256.7171905398314 821.6688353720439 5.028474736041729
    vertex 256.6307905398315 822.6288353720439 5.178123925815694
  endloop
endfacet
facet normal 0.5992930825572239 0.17568440343309807 -0.7810139509569705
  outer loop
    vertex 256.7171905398314 821.6688353720439 5.028474736041729
    vertex 256.81867781172394 822.6288353720439 5.322294900236504
    vertex 256.9408658635129 821.6688353720439 5.200106848447454
  endloop
endfacet
facet normal -0.976024463517336 0.17568440343331 0.128496058328567
  outer loop
    vertex 255.30090263022214 822.6288353720439 6.198582809845963
    vertex 255.0971905398314 821.6688353720439 5.963782172128933
    vertex 255.13399064743922 821.6688353720439 6.243306740839659
  endloop
endfacet
facet normal -0.976024463517336 0.17568440343331 0.128496058328567
  outer loop
    vertex 255.0971905398314 821.6688353720439 5.963782172128933
    vertex 255.30090263022214 822.6288353720439 6.198582809845963
    vertex 255.2699905398316 822.6288353720439 5.963782172128955
  endloop
endfacet
facet normal 0.12849605832853672 0.17568440343312966 -0.9760244635173724
  outer loop
    vertex 256.4119911775485 822.6288353720439 5.087494262519495
    vertex 256.1771905398315 821.6688353720439 4.883782172128919
    vertex 256.1771905398315 822.6288353720439 5.056582172128916
  endloop
endfacet
facet normal 0.12849605832853672 0.17568440343312966 -0.9760244635173724
  outer loop
    vertex 256.1771905398315 821.6688353720439 4.883782172128919
    vertex 256.4119911775485 822.6288353720439 5.087494262519495
    vertex 256.45671510854214 821.6688353720439 4.9205822797367285
  endloop
endfacet
facet normal 0.9760244635173829 0.17568440343304564 -0.12849605832857286
  outer loop
    vertex 257.05347844944095 822.6288353720439 5.728981534411947
    vertex 257.2571905398314 821.6688353720439 5.963782172128933
    vertex 257.22039043222355 821.6688353720439 5.6842576034182075
  endloop
endfacet
facet normal 0.9760244635173829 0.17568440343304564 -0.12849605832857286
  outer loop
    vertex 257.2571905398314 821.6688353720439 5.963782172128933
    vertex 257.05347844944095 822.6288353720439 5.728981534411947
    vertex 257.0843905398315 822.6288353720439 5.963782172128955
  endloop
endfacet
facet normal -0.9760244635173351 0.17568440343331557 -0.12849605832856686
  outer loop
    vertex 255.2699905398316 822.6288353720439 5.963782172128955
    vertex 255.13399064743922 821.6688353720439 5.6842576034182075
    vertex 255.0971905398314 821.6688353720439 5.963782172128933
  endloop
endfacet
facet normal -0.9760244635173351 0.17568440343331557 -0.12849605832856686
  outer loop
    vertex 255.13399064743922 821.6688353720439 5.6842576034182075
    vertex 255.2699905398316 822.6288353720439 5.963782172128955
    vertex 255.30090263022214 822.6288353720439 5.728981534411947
  endloop
endfacet
facet normal -0.12849605832844932 0.17568440343312694 0.9760244635173845
  outer loop
    vertex 256.1771905398315 821.6688353720439 7.043782172128947
    vertex 255.9423899021146 822.6288353720439 6.840070081738407
    vertex 255.8976659711207 821.6688353720439 7.006982064521147
  endloop
endfacet
facet normal -0.12849605832844932 0.17568440343312694 0.9760244635173845
  outer loop
    vertex 255.9423899021146 822.6288353720439 6.840070081738407
    vertex 256.1771905398315 821.6688353720439 7.043782172128947
    vertex 256.1771905398315 822.6288353720439 6.870982172128967
  endloop
endfacet
facet normal 0.12849605832850072 0.17568440343310285 0.9760244635173819
  outer loop
    vertex 256.45671510854214 821.6688353720439 7.006982064521138
    vertex 256.1771905398315 822.6288353720439 6.870982172128967
    vertex 256.1771905398315 821.6688353720439 7.043782172128947
  endloop
endfacet
facet normal 0.12849605832850072 0.17568440343310285 0.9760244635173819
  outer loop
    vertex 256.1771905398315 822.6288353720439 6.870982172128967
    vertex 256.45671510854214 821.6688353720439 7.006982064521138
    vertex 256.4119911775485 822.6288353720439 6.840070081738407
  endloop
endfacet
facet normal -1.0 0.0 0.0
  outer loop
    vertex 252.49732262402685 815.4126142851003 3.8099999999999716
    vertex 252.49732262402685 813.9126142851003 -2.8199664825478976e-14
    vertex 252.49732262402685 813.9126142851003 3.8099999999999716
  endloop
endfacet
facet normal -1.0 0.0 0.0
  outer loop
    vertex 252.49732262402685 813.9126142851003 -2.8199664825478976e-14
    vertex 252.49732262402685 815.4126142851003 3.8099999999999716
    vertex 252.49732262402685 815.4126142851003 -2.8199664825478976e-14
  endloop
endfacet
facet normal 1.0 0.0 0.0
  outer loop
    vertex 275.95532262402656 815.4126142851003 -2.8199664825478976e-14
    vertex 275.95532262402656 813.9126142851003 3.8099999999999716
    vertex 275.95532262402656 813.9126142851003 -2.8199664825478976e-14
  endloop
endfacet
facet normal 1.0 0.0 0.0
  outer loop
    vertex 275.95532262402656 813.9126142851003 3.8099999999999716
    vertex 275.95532262402656 815.4126142851003 -2.8199664825478976e-14
    vertex 275.95532262402656 815.4126142851003 3.8099999999999716
  endloop
endfacet
facet normal 0.0 -1.0 0.0
  outer loop
    vertex 275.9553226240267 817.5014283430628 3.8099999999999716
    vertex 252.49732262402688 817.5014283430628 -2.8199664825478976e-14
    vertex 275.9553226240267 817.5014283430628 -2.8199664825478976e-14
  endloop
endfacet
facet normal 0.0 -1.0 0.0
  outer loop
    vertex 252.49732262402688 817.5014283430628 -2.8199664825478976e-14
    vertex 275.9553226240267 817.5014283430628 3.8099999999999716
    vertex 252.49732262402688 817.5014283430628 3.8099999999999716
  endloop
endfacet
facet normal -1.0 -0.0 -0.0
  outer loop
    vertex 252.49732262402688 819.0014283430628 3.8099999999999716
    vertex 252.49732262402688 817.5014283430628 -2.8199664825478976e-14
    vertex 252.49732262402688 817.5014283430628 3.8099999999999716
  endloop
endfacet
facet normal -1.0 -0.0 -0.0
  outer loop
    vertex 252.49732262402688 817.5014283430628 -2.8199664825478976e-14
    vertex 252.49732262402688 819.0014283430628 3.8099999999999716
    vertex 252.49732262402688 819.0014283430628 -2.8199664825478976e-14
  endloop
endfacet
facet normal 0.0 1.0 0.0
  outer loop
    vertex 252.49732262402685 815.4126142851003 3.8099999999999716
    vertex 275.95532262402656 815.4126142851003 -2.8199664825478976e-14
    vertex 252.49732262402685 815.4126142851003 -2.8199664825478976e-14
  endloop
endfacet
facet normal 0.0 1.0 0.0
  outer loop
    vertex 275.95532262402656 815.4126142851003 -2.8199664825478976e-14
    vertex 252.49732262402685 815.4126142851003 3.8099999999999716
    vertex 275.95532262402656 815.4126142851003 3.8099999999999716
  endloop
endfacet
facet normal 1.0 0.0 0.0
  outer loop
    vertex 275.9553226240267 819.0014283430628 -2.8199664825478976e-14
    vertex 275.9553226240267 817.5014283430628 3.8099999999999716
    vertex 275.9553226240267 817.5014283430628 -2.8199664825478976e-14
  endloop
endfacet
facet normal 1.0 0.0 0.0
  outer loop
    vertex 275.9553226240267 817.5014283430628 3.8099999999999716
    vertex 275.9553226240267 819.0014283430628 -2.8199664825478976e-14
    vertex 275.9553226240267 819.0014283430628 3.8099999999999716
  endloop
endfacet
endsolid FTCField
