solid FTCField
facet normal 0.0 0.0 1.0
  outer loop
    vertex 410.53089360529196 301.2225299315159 2.0955000000000474
    vertex 430.89945031719776 321.6376259063692 2.09550000000004
    vertex 410.53089360529196 351.5145299315156 2.0955000000000474
  endloop
endfacet
facet normal 0.0 0.0 1.0
  outer loop
    vertex 430.89945031719776 321.6376259063692 2.09550000000004
    vertex 410.53089360529196 301.2225299315159 2.0955000000000474
    vertex 460.82289360529217 301.2225299315159 2.0955000000000474
  endloop
endfacet
facet normal 0.0 0.0 1.0
  outer loop
    vertex 430.89945031719776 321.6376259063692 2.09550000000004
    vertex 460.82289360529217 301.2225299315159 2.0955000000000474
    vertex 440.39945031719776 321.6376259063692 2.09550000000004
  endloop
endfacet
facet normal 0.0 0.0 1.0
  outer loop
    vertex 440.39945031719776 321.6376259063692 2.09550000000004
    vertex 460.82289360529217 301.2225299315159 2.0955000000000474
    vertex 440.39945031719776 331.1376259063692 2.09550000000004
  endloop
endfacet
facet normal 0.0 0.0 1.0
  outer loop
    vertex 410.53089360529196 351.5145299315156 2.0955000000000474
    vertex 430.89945031719776 331.1376259063692 2.09550000000004
    vertex 460.82289360529217 351.5145299315156 2.0955000000000474
  endloop
endfacet
facet normal 0.0 0.0 1.0
  outer loop
    vertex 430.89945031719776 331.1376259063692 2.09550000000004
    vertex 410.53089360529196 351.5145299315156 2.0955000000000474
    vertex 430.89945031719776 321.6376259063692 2.09550000000004
  endloop
endfacet
facet normal 0.0 0.0 1.0
  outer loop
    vertex 460.82289360529217 351.5145299315156 2.0955000000000474
    vertex 430.89945031719776 331.1376259063692 2.09550000000004
    vertex 440.39945031719776 331.1376259063692 2.09550000000004
  endloop
endfacet
facet normal 0.0 0.0 1.0
  outer loop
    vertex 460.82289360529217 351.5145299315156 2.0955000000000474
    vertex 440.39945031719776 331.1376259063692 2.09550000000004
    vertex 460.82289360529217 301.2225299315159 2.0955000000000474
  endloop
endfacet
facet normal 0.0 -1.0 0.0
  outer loop
    vertex 460.82289360529217 301.2225299315159 2.0955000000000474
    vertex 410.53089360529196 301.2225299315159 4.745122106668377e-14
    vertex 460.82289360529217 301.2225299315159 4.745122106668377e-14
  endloop
endfacet
facet normal 0.0 -1.0 0.0
  outer loop
    vertex 410.53089360529196 301.2225299315159 4.745122106668377e-14
    vertex 460.82289360529217 301.2225299315159 2.0955000000000474
    vertex 410.53089360529196 301.2225299315159 2.0955000000000474
  endloop
endfacet
facet normal -1.0 0.0 0.0
  outer loop
    vertex 410.53089360529196 351.5145299315156 2.0955000000000474
    vertex 410.53089360529196 301.2225299315159 4.745122106668377e-14
    vertex 410.53089360529196 301.2225299315159 2.0955000000000474
  endloop
endfacet
facet normal -1.0 0.0 0.0
  outer loop
    vertex 410.53089360529196 301.2225299315159 4.745122106668377e-14
    vertex 410.53089360529196 351.5145299315156 2.0955000000000474
    vertex 410.53089360529196 351.5145299315156 4.745122106668377e-14
  endloop
endfacet
facet normal 1.0 0.0 0.0
  outer loop
    vertex 460.82289360529217 351.5145299315156 4.745122106668377e-14
    vertex 460.82289360529217 301.2225299315159 2.0955000000000474
    vertex 460.82289360529217 301.2225299315159 4.745122106668377e-14
  endloop
endfacet
facet normal 1.0 0.0 0.0
  outer loop
    vertex 460.82289360529217 301.2225299315159 2.0955000000000474
    vertex 460.82289360529217 351.5145299315156 4.745122106668377e-14
    vertex 460.82289360529217 351.5145299315156 2.0955000000000474
  endloop
endfacet
facet normal 0.0 1.0 0.0
  outer loop
    vertex 410.53089360529196 351.5145299315156 2.0955000000000474
    vertex 460.82289360529217 351.5145299315156 4.745122106668377e-14
    vertex 410.53089360529196 351.5145299315156 4.745122106668377e-14
  endloop
endfacet
facet normal 0.0 1.0 0.0
  outer loop
    vertex 460.82289360529217 351.5145299315156 4.745122106668377e-14
    vertex 410.53089360529196 351.5145299315156 2.0955000000000474
    vertex 460.82289360529217 351.5145299315156 2.0955000000000474
  endloop
endfacet
facet normal 0.0 0.0 1.0
  outer loop
    vertex 430.89945031719776 321.6376259063692 2.09550000000004
    vertex 432.8994503171979 323.6376259063691 2.09550000000004
    vertex 430.89945031719776 331.1376259063692 2.09550000000004
  endloop
endfacet
facet normal 0.0 0.0 1.0
  outer loop
    vertex 432.8994503171979 323.6376259063691 2.09550000000004
    vertex 430.89945031719776 321.6376259063692 2.09550000000004
    vertex 440.39945031719776 321.6376259063692 2.09550000000004
  endloop
endfacet
facet normal 0.0 0.0 1.0
  outer loop
    vertex 432.8994503171979 323.6376259063691 2.09550000000004
    vertex 440.39945031719776 321.6376259063692 2.09550000000004
    vertex 438.3994503171979 323.6376259063691 2.09550000000004
  endloop
endfacet
facet normal 0.0 0.0 1.0
  outer loop
    vertex 438.3994503171979 323.6376259063691 2.09550000000004
    vertex 440.39945031719776 321.6376259063692 2.09550000000004
    vertex 438.3994503171979 329.1376259063692 2.09550000000004
  endloop
endfacet
facet normal 0.0 0.0 1.0
  outer loop
    vertex 430.89945031719776 331.1376259063692 2.09550000000004
    vertex 432.8994503171979 329.1376259063692 2.09550000000004
    vertex 440.39945031719776 331.1376259063692 2.09550000000004
  endloop
endfacet
facet normal 0.0 0.0 1.0
  outer loop
    vertex 432.8994503171979 329.1376259063692 2.09550000000004
    vertex 430.89945031719776 331.1376259063692 2.09550000000004
    vertex 432.8994503171979 323.6376259063691 2.09550000000004
  endloop
endfacet
facet normal 0.0 0.0 1.0
  outer loop
    vertex 440.39945031719776 331.1376259063692 2.09550000000004
    vertex 432.8994503171979 329.1376259063692 2.09550000000004
    vertex 438.3994503171979 329.1376259063692 2.09550000000004
  endloop
endfacet
facet normal 0.0 0.0 1.0
  outer loop
    vertex 440.39945031719776 331.1376259063692 2.09550000000004
    vertex 438.3994503171979 329.1376259063692 2.09550000000004
    vertex 440.39945031719776 321.6376259063692 2.09550000000004
  endloop
endfacet
facet normal 0.0 0.0 1.0
  outer loop
    vertex 438.3994503171979 323.6376259063691 2.09550000000004
    vertex 432.8994503171979 329.1376259063692 2.09550000000004
    vertex 432.8994503171979 323.6376259063691 2.09550000000004
  endloop
endfacet
facet normal 0.0 0.0 1.0
  outer loop
    vertex 432.8994503171979 329.1376259063692 2.09550000000004
    vertex 438.3994503171979 323.6376259063691 2.09550000000004
    vertex 438.3994503171979 329.1376259063692 2.09550000000004
  endloop
endfacet
facet normal 0.0 0.0 -1.0
  outer loop
    vertex 460.82289360529217 351.5145299315156 4.745122106668377e-14
    vertex 410.53089360529196 301.2225299315159 4.745122106668377e-14
    vertex 410.53089360529196 351.5145299315156 4.745122106668377e-14
  endloop
endfacet
facet normal 0.0 0.0 -1.0
  outer loop
    vertex 410.53089360529196 301.2225299315159 4.745122106668377e-14
    vertex 460.82289360529217 351.5145299315156 4.745122106668377e-14
    vertex 460.82289360529217 301.2225299315159 4.745122106668377e-14
  endloop
endfacet
facet normal 0.0 -1.0 0.0
  outer loop
    vertex 438.3994503171979 329.1376259063692 12.09550000000004
    vertex 432.8994503171979 329.1376259063692 2.09550000000004
    vertex 438.3994503171979 329.1376259063692 2.09550000000004
  endloop
endfacet
facet normal 0.0 -1.0 0.0
  outer loop
    vertex 432.8994503171979 329.1376259063692 2.09550000000004
    vertex 438.3994503171979 329.1376259063692 12.09550000000004
    vertex 432.8994503171979 329.1376259063692 12.09550000000004
  endloop
endfacet
facet normal 0.0 0.0 1.0
  outer loop
    vertex 430.89945031719776 321.6376259063692 12.09550000000004
    vertex 432.8994503171979 323.6376259063691 12.09550000000004
    vertex 430.89945031719776 331.1376259063692 12.09550000000004
  endloop
endfacet
facet normal 0.0 0.0 1.0
  outer loop
    vertex 432.8994503171979 323.6376259063691 12.09550000000004
    vertex 430.89945031719776 321.6376259063692 12.09550000000004
    vertex 440.39945031719776 321.6376259063692 12.09550000000004
  endloop
endfacet
facet normal 0.0 0.0 1.0
  outer loop
    vertex 432.8994503171979 323.6376259063691 12.09550000000004
    vertex 440.39945031719776 321.6376259063692 12.09550000000004
    vertex 438.3994503171979 323.6376259063691 12.09550000000004
  endloop
endfacet
facet normal 0.0 0.0 1.0
  outer loop
    vertex 438.3994503171979 323.6376259063691 12.09550000000004
    vertex 440.39945031719776 321.6376259063692 12.09550000000004
    vertex 438.3994503171979 329.1376259063692 12.09550000000004
  endloop
endfacet
facet normal 0.0 0.0 1.0
  outer loop
    vertex 430.89945031719776 331.1376259063692 12.09550000000004
    vertex 432.8994503171979 329.1376259063692 12.09550000000004
    vertex 440.39945031719776 331.1376259063692 12.09550000000004
  endloop
endfacet
facet normal 0.0 0.0 1.0
  outer loop
    vertex 432.8994503171979 329.1376259063692 12.09550000000004
    vertex 430.89945031719776 331.1376259063692 12.09550000000004
    vertex 432.8994503171979 323.6376259063691 12.09550000000004
  endloop
endfacet
facet normal 0.0 0.0 1.0
  outer loop
    vertex 440.39945031719776 331.1376259063692 12.09550000000004
    vertex 432.8994503171979 329.1376259063692 12.09550000000004
    vertex 438.3994503171979 329.1376259063692 12.09550000000004
  endloop
endfacet
facet normal 0.0 0.0 1.0
  outer loop
    vertex 440.39945031719776 331.1376259063692 12.09550000000004
    vertex 438.3994503171979 329.1376259063692 12.09550000000004
    vertex 440.39945031719776 321.6376259063692 12.09550000000004
  endloop
endfacet
facet normal 0.0 1.0 0.0
  outer loop
    vertex 430.89945031719776 331.1376259063692 12.09550000000004
    vertex 440.39945031719776 331.1376259063692 2.09550000000004
    vertex 430.89945031719776 331.1376259063692 2.09550000000004
  endloop
endfacet
facet normal 0.0 1.0 0.0
  outer loop
    vertex 440.39945031719776 331.1376259063692 2.09550000000004
    vertex 430.89945031719776 331.1376259063692 12.09550000000004
    vertex 440.39945031719776 331.1376259063692 12.09550000000004
  endloop
endfacet
facet normal -1.0 0.0 0.0
  outer loop
    vertex 438.3994503171979 329.1376259063692 12.09550000000004
    vertex 438.3994503171979 323.6376259063691 2.09550000000004
    vertex 438.3994503171979 323.6376259063691 12.09550000000004
  endloop
endfacet
facet normal -1.0 0.0 0.0
  outer loop
    vertex 438.3994503171979 323.6376259063691 2.09550000000004
    vertex 438.3994503171979 329.1376259063692 12.09550000000004
    vertex 438.3994503171979 329.1376259063692 2.09550000000004
  endloop
endfacet
facet normal -1.0 -0.0 -0.0
  outer loop
    vertex 430.89945031719776 331.1376259063692 12.09550000000004
    vertex 430.89945031719776 321.6376259063692 2.09550000000004
    vertex 430.89945031719776 321.6376259063692 12.09550000000004
  endloop
endfacet
facet normal -1.0 -0.0 -0.0
  outer loop
    vertex 430.89945031719776 321.6376259063692 2.09550000000004
    vertex 430.89945031719776 331.1376259063692 12.09550000000004
    vertex 430.89945031719776 331.1376259063692 2.09550000000004
  endloop
endfacet
facet normal 1.0 0.0 0.0
  outer loop
    vertex 440.39945031719776 331.1376259063692 2.09550000000004
    vertex 440.39945031719776 321.6376259063692 12.09550000000004
    vertex 440.39945031719776 321.6376259063692 2.09550000000004
  endloop
endfacet
facet normal 1.0 0.0 0.0
  outer loop
    vertex 440.39945031719776 321.6376259063692 12.09550000000004
    vertex 440.39945031719776 331.1376259063692 2.09550000000004
    vertex 440.39945031719776 331.1376259063692 12.09550000000004
  endloop
endfacet
facet normal 1.0 0.0 0.0
  outer loop
    vertex 432.8994503171979 329.1376259063692 2.09550000000004
    vertex 432.8994503171979 323.6376259063691 12.09550000000004
    vertex 432.8994503171979 323.6376259063691 2.09550000000004
  endloop
endfacet
facet normal 1.0 0.0 0.0
  outer loop
    vertex 432.8994503171979 323.6376259063691 12.09550000000004
    vertex 432.8994503171979 329.1376259063692 2.09550000000004
    vertex 432.8994503171979 329.1376259063692 12.09550000000004
  endloop
endfacet
facet normal 0.0 -1.0 0.0
  outer loop
    vertex 440.39945031719776 321.6376259063692 12.09550000000004
    vertex 430.89945031719776 321.6376259063692 2.09550000000004
    vertex 440.39945031719776 321.6376259063692 2.09550000000004
  endloop
endfacet
facet normal 0.0 -1.0 0.0
  outer loop
    vertex 430.89945031719776 321.6376259063692 2.09550000000004
    vertex 440.39945031719776 321.6376259063692 12.09550000000004
    vertex 430.89945031719776 321.6376259063692 12.09550000000004
  endloop
endfacet
facet normal 0.0 1.0 0.0
  outer loop
    vertex 432.8994503171979 323.6376259063691 12.09550000000004
    vertex 438.3994503171979 323.6376259063691 2.09550000000004
    vertex 432.8994503171979 323.6376259063691 2.09550000000004
  endloop
endfacet
facet normal 0.0 1.0 0.0
  outer loop
    vertex 438.3994503171979 323.6376259063691 2.09550000000004
    vertex 432.8994503171979 323.6376259063691 12.09550000000004
    vertex 438.3994503171979 323.6376259063691 12.09550000000004
  endloop
endfacet
endsolid FTCField
