solid FTCField
facet normal -8.770761894538735e-15 1.0 9.646806470555402e-16
  outer loop
    vertex 18.90989972342008 26.085926926511753 0.7612401574803145
    vertex 18.38940581130609 26.08592692651175 0.08249999999999957
    vertex 18.38940581130609 26.08592692651175 0.7612401574803145
  endloop
endfacet
facet normal -8.770761894538735e-15 1.0 9.646806470555402e-16
  outer loop
    vertex 18.38940581130609 26.08592692651175 0.08249999999999957
    vertex 18.90989972342008 26.085926926511753 0.7612401574803145
    vertex 21.029742532256655 26.08592692651177 0.08249999999999957
  endloop
endfacet
facet normal -8.770761894538735e-15 1.0 9.646806470555402e-16
  outer loop
    vertex 21.029742532256655 26.08592692651177 0.08249999999999957
    vertex 18.90989972342008 26.085926926511753 0.7612401574803145
    vertex 21.029742532256655 26.08592692651177 0.1612401574803163
  endloop
endfacet
facet normal 0.7071067811865535 -0.7071067811865417 0.0
  outer loop
    vertex 21.424308116158755 25.69136134260968 0.08249999999999957
    vertex 21.272123089718107 25.53917631616903 0.1112401574803155
    vertex 21.272123089718107 25.53917631616903 0.08249999999999957
  endloop
endfacet
facet normal 0.7071067811865535 -0.7071067811865417 0.0
  outer loop
    vertex 21.272123089718107 25.53917631616903 0.1112401574803155
    vertex 21.424308116158755 25.69136134260968 0.08249999999999957
    vertex 21.272123089718107 25.53917631616903 0.4574999999999995
  endloop
endfacet
facet normal 0.7071067811865535 -0.7071067811865417 0.0
  outer loop
    vertex 21.272123089718107 25.53917631616903 0.4574999999999995
    vertex 21.424308116158755 25.69136134260968 0.08249999999999957
    vertex 21.424308116158755 25.69136134260968 0.4574999999999995
  endloop
endfacet
facet normal 0.7071067811865535 -0.7071067811865417 0.0
  outer loop
    vertex 21.424308116158755 25.69136134260968 0.4574999999999995
    vertex 21.424308116158755 25.69136134260968 0.08249999999999957
    vertex 21.424308116158755 25.69136134260968 0.1612401574803163
  endloop
endfacet
facet normal 0.0 0.0 1.0
  outer loop
    vertex 18.389405811306094 25.56543301439776 0.7612401574803145
    vertex 18.90989972342008 26.085926926511753 0.7612401574803145
    vertex 18.38940581130609 26.08592692651175 0.7612401574803145
  endloop
endfacet
facet normal 0.0 0.0 1.0
  outer loop
    vertex 18.90989972342008 26.085926926511753 0.7612401574803145
    vertex 18.389405811306094 25.56543301439776 0.7612401574803145
    vertex 18.852946118370742 25.10189270733312 0.7612401574803145
  endloop
endfacet
facet normal 0.0 0.0 1.0
  outer loop
    vertex 18.90989972342008 26.085926926511753 0.7612401574803145
    vertex 18.852946118370742 25.10189270733312 0.7612401574803145
    vertex 19.373440030484726 25.622386619447113 0.7612401574803145
  endloop
endfacet
facet normal 0.0 0.0 1.0
  outer loop
    vertex 19.373440030484726 25.622386619447113 0.7612401574803145
    vertex 18.852946118370742 25.10189270733312 0.7612401574803145
    vertex 18.936462667329785 25.01837615837408 0.7612401574803145
  endloop
endfacet
facet normal 0.0 0.0 1.0
  outer loop
    vertex 19.373440030484726 25.622386619447113 0.7612401574803145
    vertex 18.936462667329785 25.01837615837408 0.7612401574803145
    vertex 19.45695657944377 25.53887007048807 0.7612401574803145
  endloop
endfacet
facet normal -0.2627706375301573 -0.26277063753016233 0.9283874105695245
  outer loop
    vertex 18.389405811306112 23.445590205561178 0.16124015748031453
    vertex 18.852946118370742 25.10189270733312 0.7612401574803145
    vertex 18.389405811306094 25.56543301439776 0.7612401574803145
  endloop
endfacet
facet normal -0.2627706375301573 -0.26277063753016233 0.9283874105695245
  outer loop
    vertex 18.852946118370742 25.10189270733312 0.7612401574803145
    vertex 18.389405811306112 23.445590205561178 0.16124015748031453
    vertex 18.78397139520821 23.05102462165909 0.16124015748031453
  endloop
endfacet
facet normal 0.7071067811865417 0.7071067811865535 0.0
  outer loop
    vertex 21.029742532256655 26.08592692651177 0.1612401574803163
    vertex 21.424308116158755 25.69136134260968 0.08249999999999957
    vertex 21.029742532256655 26.08592692651177 0.08249999999999957
  endloop
endfacet
facet normal 0.7071067811865417 0.7071067811865535 0.0
  outer loop
    vertex 21.424308116158755 25.69136134260968 0.08249999999999957
    vertex 21.029742532256655 26.08592692651177 0.1612401574803163
    vertex 21.424308116158755 25.69136134260968 0.1612401574803163
  endloop
endfacet
facet normal 0.0 0.0 -1.0
  outer loop
    vertex 21.029742532256655 26.08592692651177 0.08249999999999957
    vertex 18.389405811306112 23.445590205561178 0.08249999999999957
    vertex 18.38940581130609 26.08592692651175 0.08249999999999957
  endloop
endfacet
facet normal 0.0 0.0 -1.0
  outer loop
    vertex 18.389405811306112 23.445590205561178 0.08249999999999957
    vertex 21.029742532256655 26.08592692651177 0.08249999999999957
    vertex 21.424308116158755 25.69136134260968 0.08249999999999957
  endloop
endfacet
facet normal 0.0 0.0 -1.0
  outer loop
    vertex 18.389405811306112 23.445590205561178 0.08249999999999957
    vertex 21.424308116158755 25.69136134260968 0.08249999999999957
    vertex 18.78397139520821 23.05102462165909 0.08249999999999957
  endloop
endfacet
facet normal 0.0 0.0 -1.0
  outer loop
    vertex 18.78397139520821 23.05102462165909 0.08249999999999957
    vertex 21.424308116158755 25.69136134260968 0.08249999999999957
    vertex 21.272123089718107 25.53917631616903 0.08249999999999957
  endloop
endfacet
facet normal 0.9999999857676375 -0.00016871492220638107 6.26713349155558e-16
  outer loop
    vertex 18.936462667329785 25.01837615837408 0.7612401574803145
    vertex 18.936156421648857 23.20320964809974 0.4574999999999995
    vertex 18.936156421648857 23.20320964809974 0.11124015748031453
  endloop
endfacet
facet normal 0.9999999857676375 -0.00016871492220638107 6.26713349155558e-16
  outer loop
    vertex 18.936156421648857 23.20320964809974 0.4574999999999995
    vertex 18.936462667329785 25.01837615837408 0.7612401574803145
    vertex 18.936462667329785 25.01837615837408 1.2990354330708656
  endloop
endfacet
facet normal 0.9999999857676375 -0.00016871492220638107 6.26713349155558e-16
  outer loop
    vertex 18.936462667329785 25.01837615837408 1.2990354330708656
    vertex 18.936462667329785 25.01837615837408 0.7612401574803145
    vertex 18.936462667329785 25.01837615837408 1.1612401574803144
  endloop
endfacet
facet normal -0.34615857245279874 -0.3461585724528045 0.871979635906067
  outer loop
    vertex 18.936462667329785 25.01837615837408 1.2990354330708656
    vertex 18.852946118370742 25.10189270733312 1.2990354330708656
    vertex 18.847132959143412 24.929046450187702 1.2281111981687742
  endloop
endfacet
facet normal 0.34615857245278076 0.3461585724527864 0.8719796359060813
  outer loop
    vertex 19.546286287630156 25.628199778674457 1.2281111981687691
    vertex 19.373440030484726 25.622386619447113 1.2990354330708656
    vertex 19.45695657944377 25.53887007048807 1.2990354330708656
  endloop
endfacet
facet normal 0.3640226538353753 -0.3640226538353798 0.8573068382961248
  outer loop
    vertex 21.424308116158755 25.69136134260968 0.4574999999999995
    vertex 19.546286287630156 25.628199778674457 1.2281111981687691
    vertex 21.272123089718107 25.53917631616903 0.4574999999999995
  endloop
endfacet
facet normal 0.0 0.0 1.0
  outer loop
    vertex 18.936462667329785 25.01837615837408 1.2990354330708656
    vertex 19.373440030484726 25.622386619447113 1.2990354330708656
    vertex 18.852946118370742 25.10189270733312 1.2990354330708656
  endloop
endfacet
facet normal 0.0 0.0 1.0
  outer loop
    vertex 19.373440030484726 25.622386619447113 1.2990354330708656
    vertex 18.936462667329785 25.01837615837408 1.2990354330708656
    vertex 19.45695657944377 25.53887007048807 1.2990354330708656
  endloop
endfacet
facet normal 0.4028573288748984 0.2871382345582425 0.8690555832779384
  outer loop
    vertex 21.272123089718107 25.53917631616903 0.4574999999999995
    vertex 19.546286287630156 25.628199778674457 1.2281111981687691
    vertex 19.45695657944377 25.53887007048807 1.2990354330708656
  endloop
endfacet
facet normal -0.03361296015994325 0.9994349247996521 -2.2355121283733382e-14
  outer loop
    vertex 19.546286287630156 25.628199778674457 1.2281111981687691
    vertex 19.373440030484726 25.622386619447113 1.2006102362204718
    vertex 19.373440030484726 25.622386619447113 1.2990354330708656
  endloop
endfacet
facet normal -0.03361296015994325 0.9994349247996521 -2.2355121283733382e-14
  outer loop
    vertex 19.373440030484726 25.622386619447113 1.2006102362204718
    vertex 19.546286287630156 25.628199778674457 1.2281111981687691
    vertex 21.424308116158755 25.69136134260968 0.4574999999999995
  endloop
endfacet
facet normal -0.2871382345582605 -0.40285732887489434 0.8690555832779343
  outer loop
    vertex 18.936156421648857 23.20320964809974 0.4574999999999995
    vertex 18.936462667329785 25.01837615837408 1.2990354330708656
    vertex 18.847132959143412 24.929046450187702 1.2281111981687742
  endloop
endfacet
facet normal 0.7071067811865417 0.7071067811865535 0.0
  outer loop
    vertex 18.852946118370742 25.10189270733312 1.1612401574803144
    vertex 18.936462667329785 25.01837615837408 0.7612401574803145
    vertex 18.852946118370742 25.10189270733312 0.7612401574803145
  endloop
endfacet
facet normal 0.7071067811865417 0.7071067811865535 0.0
  outer loop
    vertex 18.936462667329785 25.01837615837408 0.7612401574803145
    vertex 18.852946118370742 25.10189270733312 1.1612401574803144
    vertex 18.936462667329785 25.01837615837408 1.1612401574803144
  endloop
endfacet
facet normal 0.3640226538353798 -0.36402265383537374 0.8573068382961254
  outer loop
    vertex 18.936156421648857 23.20320964809974 0.4574999999999995
    vertex 18.847132959143412 24.929046450187702 1.2281111981687742
    vertex 18.78397139520821 23.05102462165909 0.4574999999999995
  endloop
endfacet
facet normal -0.7071067811865417 -0.7071067811865535 0.0
  outer loop
    vertex 18.78397139520821 23.05102462165909 0.16124015748031453
    vertex 18.389405811306112 23.445590205561178 0.08249999999999957
    vertex 18.78397139520821 23.05102462165909 0.08249999999999957
  endloop
endfacet
facet normal -0.7071067811865417 -0.7071067811865535 0.0
  outer loop
    vertex 18.389405811306112 23.445590205561178 0.08249999999999957
    vertex 18.78397139520821 23.05102462165909 0.16124015748031453
    vertex 18.389405811306112 23.445590205561178 0.16124015748031453
  endloop
endfacet
facet normal 0.7071067811865535 -0.7071067811865417 0.0
  outer loop
    vertex 19.45695657944377 25.53887007048807 1.1612401574803144
    vertex 18.936462667329785 25.01837615837408 1.2990354330708656
    vertex 18.936462667329785 25.01837615837408 1.1612401574803144
  endloop
endfacet
facet normal 0.7071067811865535 -0.7071067811865417 0.0
  outer loop
    vertex 18.936462667329785 25.01837615837408 1.2990354330708656
    vertex 19.45695657944377 25.53887007048807 1.1612401574803144
    vertex 19.45695657944377 25.53887007048807 1.2990354330708656
  endloop
endfacet
facet normal 0.7071067811865535 -0.7071067811865417 0.0
  outer loop
    vertex 19.45695657944377 25.53887007048807 1.2990354330708656
    vertex 19.45695657944377 25.53887007048807 1.1612401574803144
    vertex 19.45695657944377 25.53887007048807 1.2006102362204718
  endloop
endfacet
facet normal -0.9994349247996528 0.03361296015992499 3.4471095250722145e-15
  outer loop
    vertex 18.847132959143412 24.929046450187702 1.2281111981687742
    vertex 18.78397139520821 23.05102462165909 0.16124015748031453
    vertex 18.78397139520821 23.05102462165909 0.4574999999999995
  endloop
endfacet
facet normal -0.9994349247996528 0.03361296015992499 3.4471095250722145e-15
  outer loop
    vertex 18.78397139520821 23.05102462165909 0.16124015748031453
    vertex 18.847132959143412 24.929046450187702 1.2281111981687742
    vertex 18.852946118370742 25.10189270733312 0.7612401574803145
  endloop
endfacet
facet normal -0.9994349247996528 0.03361296015992499 3.4471095250722145e-15
  outer loop
    vertex 18.852946118370742 25.10189270733312 0.7612401574803145
    vertex 18.847132959143412 24.929046450187702 1.2281111981687742
    vertex 18.852946118370742 25.10189270733312 1.2990354330708656
  endloop
endfacet
facet normal -0.9994349247996528 0.03361296015992499 3.4471095250722145e-15
  outer loop
    vertex 18.852946118370742 25.10189270733312 0.7612401574803145
    vertex 18.852946118370742 25.10189270733312 1.2990354330708656
    vertex 18.852946118370742 25.10189270733312 1.1612401574803144
  endloop
endfacet
facet normal 0.0 0.0 -1.0
  outer loop
    vertex 19.45695657944377 25.53887007048807 1.1612401574803144
    vertex 18.852946118370742 25.10189270733312 1.1612401574803144
    vertex 19.373440030484726 25.622386619447113 1.1612401574803144
  endloop
endfacet
facet normal 0.0 0.0 -1.0
  outer loop
    vertex 18.852946118370742 25.10189270733312 1.1612401574803144
    vertex 19.45695657944377 25.53887007048807 1.1612401574803144
    vertex 18.936462667329785 25.01837615837408 1.1612401574803144
  endloop
endfacet
facet normal -1.0 -8.326672684688674e-15 1.152669781465769e-15
  outer loop
    vertex 18.389405811306094 25.56543301439776 0.7612401574803145
    vertex 18.389405811306112 23.445590205561178 0.08249999999999957
    vertex 18.389405811306112 23.445590205561178 0.16124015748031453
  endloop
endfacet
facet normal -1.0 -8.326672684688674e-15 1.152669781465769e-15
  outer loop
    vertex 18.389405811306112 23.445590205561178 0.08249999999999957
    vertex 18.389405811306094 25.56543301439776 0.7612401574803145
    vertex 18.38940581130609 26.08592692651175 0.08249999999999957
  endloop
endfacet
facet normal -1.0 -8.326672684688674e-15 1.152669781465769e-15
  outer loop
    vertex 18.38940581130609 26.08592692651175 0.08249999999999957
    vertex 18.389405811306094 25.56543301439776 0.7612401574803145
    vertex 18.38940581130609 26.08592692651175 0.7612401574803145
  endloop
endfacet
facet normal -0.7071067811865535 0.7071067811865417 0.0
  outer loop
    vertex 19.373440030484726 25.622386619447113 1.2990354330708656
    vertex 18.852946118370742 25.10189270733312 1.1612401574803144
    vertex 18.852946118370742 25.10189270733312 1.2990354330708656
  endloop
endfacet
facet normal -0.7071067811865535 0.7071067811865417 0.0
  outer loop
    vertex 18.852946118370742 25.10189270733312 1.1612401574803144
    vertex 19.373440030484726 25.622386619447113 1.2990354330708656
    vertex 19.373440030484726 25.622386619447113 1.1612401574803144
  endloop
endfacet
facet normal -0.7071067811865535 0.7071067811865417 0.0
  outer loop
    vertex 19.373440030484726 25.622386619447113 1.1612401574803144
    vertex 19.373440030484726 25.622386619447113 1.2990354330708656
    vertex 19.373440030484726 25.622386619447113 1.2006102362204718
  endloop
endfacet
facet normal 0.3195070535602515 -0.3195070535602465 0.8920933165597065
  outer loop
    vertex 18.936156421648857 23.20320964809974 0.11124015748031453
    vertex 19.45695657944377 25.53887007048807 0.7612401574803145
    vertex 18.936462667329785 25.01837615837408 0.7612401574803145
  endloop
endfacet
facet normal 0.3195070535602515 -0.3195070535602465 0.8920933165597065
  outer loop
    vertex 19.45695657944377 25.53887007048807 0.7612401574803145
    vertex 18.936156421648857 23.20320964809974 0.11124015748031453
    vertex 21.272123089718107 25.53917631616903 0.1112401574803155
  endloop
endfacet
facet normal -0.7071067811865417 -0.7071067811865535 0.0
  outer loop
    vertex 19.45695657944377 25.53887007048807 1.1612401574803144
    vertex 19.373440030484726 25.622386619447113 0.7612401574803145
    vertex 19.45695657944377 25.53887007048807 0.7612401574803145
  endloop
endfacet
facet normal -0.7071067811865417 -0.7071067811865535 0.0
  outer loop
    vertex 19.373440030484726 25.622386619447113 0.7612401574803145
    vertex 19.45695657944377 25.53887007048807 1.1612401574803144
    vertex 19.373440030484726 25.622386619447113 1.1612401574803144
  endloop
endfacet
facet normal 0.7071067811865535 -0.7071067811865417 0.0
  outer loop
    vertex 18.78397139520821 23.05102462165909 0.08249999999999957
    vertex 18.936156421648857 23.20320964809974 0.11124015748031453
    vertex 18.78397139520821 23.05102462165909 0.16124015748031453
  endloop
endfacet
facet normal 0.7071067811865535 -0.7071067811865417 0.0
  outer loop
    vertex 18.936156421648857 23.20320964809974 0.11124015748031453
    vertex 18.78397139520821 23.05102462165909 0.08249999999999957
    vertex 21.272123089718107 25.53917631616903 0.08249999999999957
  endloop
endfacet
facet normal 0.7071067811865535 -0.7071067811865417 0.0
  outer loop
    vertex 18.78397139520821 23.05102462165909 0.16124015748031453
    vertex 18.936156421648857 23.20320964809974 0.11124015748031453
    vertex 18.78397139520821 23.05102462165909 0.4574999999999995
  endloop
endfacet
facet normal 0.7071067811865535 -0.7071067811865417 0.0
  outer loop
    vertex 18.936156421648857 23.20320964809974 0.11124015748031453
    vertex 21.272123089718107 25.53917631616903 0.08249999999999957
    vertex 21.272123089718107 25.53917631616903 0.1112401574803155
  endloop
endfacet
facet normal 0.7071067811865535 -0.7071067811865417 0.0
  outer loop
    vertex 18.936156421648857 23.20320964809974 0.4574999999999995
    vertex 18.78397139520821 23.05102462165909 0.4574999999999995
    vertex 18.936156421648857 23.20320964809974 0.11124015748031453
  endloop
endfacet
facet normal 0.2627706375301578 0.26277063753016144 0.9283874105695247
  outer loop
    vertex 19.373440030484726 25.622386619447113 0.7612401574803145
    vertex 21.029742532256655 26.08592692651177 0.1612401574803163
    vertex 18.90989972342008 26.085926926511753 0.7612401574803145
  endloop
endfacet
facet normal 0.2627706375301578 0.26277063753016144 0.9283874105695247
  outer loop
    vertex 21.029742532256655 26.08592692651177 0.1612401574803163
    vertex 19.373440030484726 25.622386619447113 0.7612401574803145
    vertex 21.424308116158755 25.69136134260968 0.1612401574803163
  endloop
endfacet
facet normal -0.03361296015994263 0.999434924799652 0.0
  outer loop
    vertex 21.424308116158755 25.69136134260968 0.4574999999999995
    vertex 19.373440030484726 25.622386619447113 1.1612401574803144
    vertex 19.373440030484726 25.622386619447113 1.2006102362204718
  endloop
endfacet
facet normal -0.03361296015994263 0.999434924799652 0.0
  outer loop
    vertex 19.373440030484726 25.622386619447113 1.1612401574803144
    vertex 21.424308116158755 25.69136134260968 0.4574999999999995
    vertex 19.373440030484726 25.622386619447113 0.7612401574803145
  endloop
endfacet
facet normal -0.03361296015994263 0.999434924799652 0.0
  outer loop
    vertex 19.373440030484726 25.622386619447113 0.7612401574803145
    vertex 21.424308116158755 25.69136134260968 0.4574999999999995
    vertex 21.424308116158755 25.69136134260968 0.1612401574803163
  endloop
endfacet
facet normal 0.00016871492222303441 -0.9999999857676375 1.2534266983111193e-15
  outer loop
    vertex 21.272123089718107 25.53917631616903 0.1112401574803155
    vertex 19.45695657944377 25.53887007048807 1.1612401574803144
    vertex 19.45695657944377 25.53887007048807 0.7612401574803145
  endloop
endfacet
facet normal 0.00016871492222303441 -0.9999999857676375 1.2534266983111193e-15
  outer loop
    vertex 19.45695657944377 25.53887007048807 1.1612401574803144
    vertex 21.272123089718107 25.53917631616903 0.1112401574803155
    vertex 19.45695657944377 25.53887007048807 1.2006102362204718
  endloop
endfacet
facet normal 0.00016871492222303441 -0.9999999857676375 1.2534266983111193e-15
  outer loop
    vertex 19.45695657944377 25.53887007048807 1.2006102362204718
    vertex 21.272123089718107 25.53917631616903 0.1112401574803155
    vertex 19.45695657944377 25.53887007048807 1.2990354330708656
  endloop
endfacet
facet normal 0.00016871492222303441 -0.9999999857676375 1.2534266983111193e-15
  outer loop
    vertex 19.45695657944377 25.53887007048807 1.2990354330708656
    vertex 21.272123089718107 25.53917631616903 0.1112401574803155
    vertex 21.272123089718107 25.53917631616903 0.4574999999999995
  endloop
endfacet
facet normal -0.7071067811865417 -0.7071067811865535 0.0
  outer loop
    vertex 19.45695657944377 25.53887007048807 1.2006102362204718
    vertex 19.373440030484726 25.622386619447113 1.1612401574803144
    vertex 19.45695657944377 25.53887007048807 1.1612401574803144
  endloop
endfacet
facet normal -0.7071067811865417 -0.7071067811865535 0.0
  outer loop
    vertex 19.373440030484726 25.622386619447113 1.1612401574803144
    vertex 19.45695657944377 25.53887007048807 1.2006102362204718
    vertex 19.373440030484726 25.622386619447113 1.2006102362204718
  endloop
endfacet
endsolid FTCField
