solid FTCField
facet normal 0.0 0.0 1.0
  outer loop
    vertex 515.3508114643273 145.5667231264453 0.0
    vertex 515.3508114643272 240.4103231264453 0.0
    vertex 467.9290114643273 192.98852312644533 0.0
  endloop
endfacet
facet normal 0.0 0.0 1.0
  outer loop
    vertex 515.3508114643272 240.4103231264453 0.0
    vertex 515.3508114643273 145.5667231264453 0.0
    vertex 529.5240114643273 240.4103231264453 0.0
  endloop
endfacet
facet normal 0.0 0.0 1.0
  outer loop
    vertex 529.5240114643273 240.4103231264453 0.0
    vertex 515.3508114643273 145.5667231264453 0.0
    vertex 529.5240114643273 145.5667231264453 0.0
  endloop
endfacet
facet normal 0.0 0.0 1.0
  outer loop
    vertex 529.5240114643273 240.4103231264453 0.0
    vertex 529.5240114643273 145.5667231264453 0.0
    vertex 529.5240114643273 234.94368106553048 0.0
  endloop
endfacet
facet normal -0.7071067811865479 0.7071067811865472 9.646806470555404e-16
  outer loop
    vertex 477.27734874480905 202.33686040692706 17.24
    vertex 467.9290114643273 192.98852312644533 0.0
    vertex 467.9290114643273 192.98852312644533 17.24
  endloop
endfacet
facet normal -0.7071067811865479 0.7071067811865472 9.646806470555404e-16
  outer loop
    vertex 467.9290114643273 192.98852312644533 0.0
    vertex 477.27734874480905 202.33686040692706 17.24
    vertex 515.3508114643272 240.4103231264453 0.0
  endloop
endfacet
facet normal -0.7071067811865479 0.7071067811865472 9.646806470555404e-16
  outer loop
    vertex 515.3508114643272 240.4103231264453 0.0
    vertex 477.27734874480905 202.33686040692706 17.24
    vertex 515.3508114643272 240.4103231264453 2.000000000000045
  endloop
endfacet
facet normal 0.0 1.0 0.0
  outer loop
    vertex 515.3508114643272 240.4103231264453 2.000000000000045
    vertex 529.5240114643273 240.4103231264453 0.0
    vertex 515.3508114643272 240.4103231264453 0.0
  endloop
endfacet
facet normal 0.0 1.0 0.0
  outer loop
    vertex 529.5240114643273 240.4103231264453 0.0
    vertex 515.3508114643272 240.4103231264453 2.000000000000045
    vertex 529.5240114643273 240.4103231264453 2.000000000000045
  endloop
endfacet
facet normal 1.0 0.0 0.0
  outer loop
    vertex 529.5240114643273 240.4103231264453 0.0
    vertex 529.5240114643273 234.94368106553048 0.7300000000000245
    vertex 529.5240114643273 234.94368106553048 0.0
  endloop
endfacet
facet normal 1.0 0.0 0.0
  outer loop
    vertex 529.5240114643273 234.94368106553048 0.7300000000000245
    vertex 529.5240114643273 240.4103231264453 0.0
    vertex 529.5240114643273 234.94368106553048 9.524999999999999
  endloop
endfacet
facet normal 1.0 0.0 0.0
  outer loop
    vertex 529.5240114643273 234.94368106553048 9.524999999999999
    vertex 529.5240114643273 240.4103231264453 0.0
    vertex 529.5240114643273 240.4103231264453 9.524999999999999
  endloop
endfacet
facet normal 1.0 0.0 0.0
  outer loop
    vertex 529.5240114643273 240.4103231264453 9.524999999999999
    vertex 529.5240114643273 240.4103231264453 0.0
    vertex 529.5240114643273 240.4103231264453 2.000000000000045
  endloop
endfacet
facet normal 0.0 0.0 1.0
  outer loop
    vertex 477.27734874480905 183.6401858459636 17.24
    vertex 477.27734874480905 202.33686040692706 17.24
    vertex 467.9290114643273 192.98852312644533 17.24
  endloop
endfacet
facet normal 0.0 0.0 1.0
  outer loop
    vertex 477.27734874480905 202.33686040692706 17.24
    vertex 477.27734874480905 183.6401858459636 17.24
    vertex 493.92819146432726 183.6401858459636 17.24
  endloop
endfacet
facet normal 0.0 0.0 1.0
  outer loop
    vertex 477.27734874480905 202.33686040692706 17.24
    vertex 493.92819146432726 183.6401858459636 17.24
    vertex 493.92819146432726 202.33686040692706 17.24
  endloop
endfacet
facet normal 0.0 0.0 1.0
  outer loop
    vertex 493.92819146432726 202.33686040692706 17.24
    vertex 493.92819146432726 183.6401858459636 17.24
    vertex 496.92819146432726 183.6401858459636 17.24
  endloop
endfacet
facet normal 0.0 0.0 1.0
  outer loop
    vertex 493.92819146432726 202.33686040692706 17.24
    vertex 496.92819146432726 183.6401858459636 17.24
    vertex 496.92819146432726 202.33686040692706 17.24
  endloop
endfacet
facet normal 4.951917846760663e-16 -0.3716137993885766 0.9283874105695245
  outer loop
    vertex 515.3508114643273 145.5667231264453 1.9999999999999998
    vertex 493.92819146432726 183.6401858459636 17.24
    vertex 477.27734874480905 183.6401858459636 17.24
  endloop
endfacet
facet normal 4.951917846760663e-16 -0.3716137993885766 0.9283874105695245
  outer loop
    vertex 493.92819146432726 183.6401858459636 17.24
    vertex 515.3508114643273 145.5667231264453 1.9999999999999998
    vertex 529.5240114643273 145.5667231264453 1.9999999999999998
  endloop
endfacet
facet normal 0.7072260705883324 0.7069874716571626 0.0
  outer loop
    vertex 496.92819146432726 183.6401858459636 17.24
    vertex 529.5240114643273 151.03336518736015 9.524999999999999
    vertex 529.5240114643273 151.03336518736015 0.7299999999999999
  endloop
endfacet
facet normal 0.7072260705883324 0.7069874716571626 0.0
  outer loop
    vertex 529.5240114643273 151.03336518736015 9.524999999999999
    vertex 496.92819146432726 183.6401858459636 17.24
    vertex 496.92819146432726 183.6401858459636 27.399999999999995
  endloop
endfacet
facet normal 0.0 -1.0 0.0
  outer loop
    vertex 529.5240114643273 145.5667231264453 1.9999999999999998
    vertex 515.3508114643273 145.5667231264453 0.0
    vertex 529.5240114643273 145.5667231264453 0.0
  endloop
endfacet
facet normal 0.0 -1.0 0.0
  outer loop
    vertex 515.3508114643273 145.5667231264453 0.0
    vertex 529.5240114643273 145.5667231264453 1.9999999999999998
    vertex 515.3508114643273 145.5667231264453 1.9999999999999998
  endloop
endfacet
facet normal -0.7071067811865476 -0.7071067811865476 1.152669781465769e-15
  outer loop
    vertex 477.27734874480905 183.6401858459636 17.24
    vertex 515.3508114643273 145.5667231264453 0.0
    vertex 515.3508114643273 145.5667231264453 1.9999999999999998
  endloop
endfacet
facet normal -0.7071067811865476 -0.7071067811865476 1.152669781465769e-15
  outer loop
    vertex 515.3508114643273 145.5667231264453 0.0
    vertex 477.27734874480905 183.6401858459636 17.24
    vertex 467.9290114643273 192.98852312644533 0.0
  endloop
endfacet
facet normal -0.7071067811865476 -0.7071067811865476 1.152669781465769e-15
  outer loop
    vertex 467.9290114643273 192.98852312644533 0.0
    vertex 477.27734874480905 183.6401858459636 17.24
    vertex 467.9290114643273 192.98852312644533 17.24
  endloop
endfacet
facet normal 0.7072260705883321 -0.7069874716571627 0.0
  outer loop
    vertex 529.5240114643273 234.94368106553048 0.7300000000000245
    vertex 496.92819146432726 202.33686040692706 27.399999999999995
    vertex 496.92819146432726 202.33686040692706 17.24
  endloop
endfacet
facet normal 0.7072260705883321 -0.7069874716571627 0.0
  outer loop
    vertex 496.92819146432726 202.33686040692706 27.399999999999995
    vertex 529.5240114643273 234.94368106553048 0.7300000000000245
    vertex 529.5240114643273 234.94368106553048 9.524999999999999
  endloop
endfacet
facet normal 1.0 0.0 0.0
  outer loop
    vertex 529.5240114643273 145.5667231264453 0.0
    vertex 529.5240114643273 151.03336518736015 0.7299999999999999
    vertex 529.5240114643273 145.5667231264453 1.9999999999999998
  endloop
endfacet
facet normal 1.0 0.0 0.0
  outer loop
    vertex 529.5240114643273 151.03336518736015 0.7299999999999999
    vertex 529.5240114643273 145.5667231264453 0.0
    vertex 529.5240114643273 234.94368106553048 0.0
  endloop
endfacet
facet normal 1.0 0.0 0.0
  outer loop
    vertex 529.5240114643273 145.5667231264453 1.9999999999999998
    vertex 529.5240114643273 151.03336518736015 0.7299999999999999
    vertex 529.5240114643273 145.5667231264453 9.524999999999999
  endloop
endfacet
facet normal 1.0 0.0 0.0
  outer loop
    vertex 529.5240114643273 151.03336518736015 0.7299999999999999
    vertex 529.5240114643273 234.94368106553048 0.0
    vertex 529.5240114643273 234.94368106553048 0.7300000000000245
  endloop
endfacet
facet normal 1.0 0.0 0.0
  outer loop
    vertex 529.5240114643273 151.03336518736015 9.524999999999999
    vertex 529.5240114643273 145.5667231264453 9.524999999999999
    vertex 529.5240114643273 151.03336518736015 0.7299999999999999
  endloop
endfacet
facet normal 0.45185120841877097 -2.5776499920163397e-16 0.8920933165597065
  outer loop
    vertex 529.5240114643273 151.03336518736015 0.7299999999999999
    vertex 496.92819146432726 202.33686040692706 17.24
    vertex 496.92819146432726 183.6401858459636 17.24
  endloop
endfacet
facet normal 0.45185120841877097 -2.5776499920163397e-16 0.8920933165597065
  outer loop
    vertex 496.92819146432726 202.33686040692706 17.24
    vertex 529.5240114643273 151.03336518736015 0.7299999999999999
    vertex 529.5240114643273 234.94368106553048 0.7300000000000245
  endloop
endfacet
facet normal 0.46847219220849196 -1.980194870315305e-17 0.8834782425885597
  outer loop
    vertex 529.5240114643273 240.4103231264453 9.524999999999999
    vertex 525.9697732577429 236.6086926019995 11.40966640603532
    vertex 529.5240114643273 234.94368106553048 9.524999999999999
  endloop
endfacet
facet normal 0.4788985209301241 0.029152559824611783 0.8773860808712503
  outer loop
    vertex 529.5240114643273 234.94368106553048 9.524999999999999
    vertex 525.9697732577429 236.6086926019995 11.40966640603532
    vertex 496.92819146432726 202.33686040692706 28.39999999999999
  endloop
endfacet
facet normal 0.46847219220849556 0.0 0.8834782425885578
  outer loop
    vertex 529.5240114643273 151.03336518736015 9.524999999999999
    vertex 524.4131128776064 151.03336518736015 12.235099411232987
    vertex 529.5240114643273 145.5667231264453 9.524999999999999
  endloop
endfacet
facet normal 0.46803763950780053 -0.04306193888771799 0.8826587321401159
  outer loop
    vertex 529.5240114643273 151.03336518736015 9.524999999999999
    vertex 496.92819146432726 183.6401858459636 28.39999999999999
    vertex 524.4131128776064 151.03336518736015 12.235099411232987
  endloop
endfacet
facet normal 4.951917846760643e-16 0.3716137993885763 0.9283874105695247
  outer loop
    vertex 493.92819146432726 202.33686040692706 17.24
    vertex 515.3508114643272 240.4103231264453 2.000000000000045
    vertex 477.27734874480905 202.33686040692706 17.24
  endloop
endfacet
facet normal 4.951917846760643e-16 0.3716137993885763 0.9283874105695247
  outer loop
    vertex 515.3508114643272 240.4103231264453 2.000000000000045
    vertex 493.92819146432726 202.33686040692706 17.24
    vertex 529.5240114643273 240.4103231264453 2.000000000000045
  endloop
endfacet
facet normal 0.0 0.0 1.0
  outer loop
    vertex 496.92819146432726 183.6401858459636 28.39999999999999
    vertex 493.92819146432726 202.33686040692706 28.39999999999999
    vertex 493.92819146432726 183.6401858459636 28.39999999999999
  endloop
endfacet
facet normal 0.0 0.0 1.0
  outer loop
    vertex 493.92819146432726 202.33686040692706 28.39999999999999
    vertex 496.92819146432726 183.6401858459636 28.39999999999999
    vertex 496.92819146432726 202.33686040692706 28.39999999999999
  endloop
endfacet
facet normal -1.1749793463778823e-14 0.44416631578914506 0.8959443531371228
  outer loop
    vertex 525.9697732577429 236.6086926019995 11.40966640603532
    vertex 493.92819146432726 202.33686040692706 28.39999999999999
    vertex 496.92819146432726 202.33686040692706 28.39999999999999
  endloop
endfacet
facet normal 0.0 1.0 0.0
  outer loop
    vertex 493.92819146432726 183.6401858459636 28.39999999999999
    vertex 496.92819146432726 183.6401858459636 27.399999999999995
    vertex 493.92819146432726 183.6401858459636 27.399999999999995
  endloop
endfacet
facet normal 0.0 1.0 0.0
  outer loop
    vertex 496.92819146432726 183.6401858459636 27.399999999999995
    vertex 493.92819146432726 183.6401858459636 28.39999999999999
    vertex 496.92819146432726 183.6401858459636 28.39999999999999
  endloop
endfacet
facet normal 0.0 1.0 0.0
  outer loop
    vertex 493.92819146432726 183.6401858459636 27.399999999999995
    vertex 496.92819146432726 183.6401858459636 17.24
    vertex 493.92819146432726 183.6401858459636 17.24
  endloop
endfacet
facet normal 0.0 1.0 0.0
  outer loop
    vertex 496.92819146432726 183.6401858459636 17.24
    vertex 493.92819146432726 183.6401858459636 27.399999999999995
    vertex 496.92819146432726 183.6401858459636 27.399999999999995
  endloop
endfacet
facet normal 0.0 0.0 -1.0
  outer loop
    vertex 496.92819146432726 202.33686040692706 27.399999999999995
    vertex 493.92819146432726 183.6401858459636 27.399999999999995
    vertex 493.92819146432726 202.33686040692706 27.399999999999995
  endloop
endfacet
facet normal 0.0 0.0 -1.0
  outer loop
    vertex 493.92819146432726 183.6401858459636 27.399999999999995
    vertex 496.92819146432726 202.33686040692706 27.399999999999995
    vertex 496.92819146432726 183.6401858459636 27.399999999999995
  endloop
endfacet
facet normal 0.0 -1.0 0.0
  outer loop
    vertex 496.92819146432726 202.33686040692706 27.399999999999995
    vertex 493.92819146432726 202.33686040692706 17.24
    vertex 496.92819146432726 202.33686040692706 17.24
  endloop
endfacet
facet normal 0.0 -1.0 0.0
  outer loop
    vertex 493.92819146432726 202.33686040692706 17.24
    vertex 496.92819146432726 202.33686040692706 27.399999999999995
    vertex 493.92819146432726 202.33686040692706 27.399999999999995
  endloop
endfacet
facet normal 1.0 0.0 0.0
  outer loop
    vertex 496.92819146432726 202.33686040692706 27.399999999999995
    vertex 496.92819146432726 183.6401858459636 28.39999999999999
    vertex 496.92819146432726 183.6401858459636 27.399999999999995
  endloop
endfacet
facet normal 1.0 0.0 0.0
  outer loop
    vertex 496.92819146432726 183.6401858459636 28.39999999999999
    vertex 496.92819146432726 202.33686040692706 27.399999999999995
    vertex 496.92819146432726 202.33686040692706 28.39999999999999
  endloop
endfacet
facet normal 0.7072260705883489 -0.706987471657146 9.221630215472075e-14
  outer loop
    vertex 529.5240114643273 234.94368106553048 9.524999999999999
    vertex 496.92819146432726 202.33686040692706 28.39999999999999
    vertex 496.92819146432726 202.33686040692706 27.399999999999995
  endloop
endfacet
facet normal 0.7072260705883258 0.7069874716571691 0.0
  outer loop
    vertex 496.92819146432726 183.6401858459636 28.39999999999999
    vertex 529.5240114643273 151.03336518736015 9.524999999999999
    vertex 496.92819146432726 183.6401858459636 27.399999999999995
  endloop
endfacet
facet normal 0.0 -1.0 0.0
  outer loop
    vertex 496.92819146432726 202.33686040692706 28.39999999999999
    vertex 493.92819146432726 202.33686040692706 27.399999999999995
    vertex 496.92819146432726 202.33686040692706 27.399999999999995
  endloop
endfacet
facet normal 0.0 -1.0 0.0
  outer loop
    vertex 493.92819146432726 202.33686040692706 27.399999999999995
    vertex 496.92819146432726 202.33686040692706 28.39999999999999
    vertex 493.92819146432726 202.33686040692706 28.39999999999999
  endloop
endfacet
facet normal -1.0 0.0 0.0
  outer loop
    vertex 493.92819146432726 202.33686040692706 28.39999999999999
    vertex 493.92819146432726 183.6401858459636 27.399999999999995
    vertex 493.92819146432726 183.6401858459636 28.39999999999999
  endloop
endfacet
facet normal -1.0 0.0 0.0
  outer loop
    vertex 493.92819146432726 183.6401858459636 27.399999999999995
    vertex 493.92819146432726 202.33686040692706 28.39999999999999
    vertex 493.92819146432726 202.33686040692706 27.399999999999995
  endloop
endfacet
facet normal -0.7304751647453442 0.6829392606156586 0.0
  outer loop
    vertex 525.9697732577429 236.6086926019995 11.40966640603532
    vertex 493.92819146432726 202.33686040692706 27.399999999999995
    vertex 493.92819146432726 202.33686040692706 28.39999999999999
  endloop
endfacet
facet normal -0.7304751647453442 0.6829392606156586 0.0
  outer loop
    vertex 493.92819146432726 202.33686040692706 27.399999999999995
    vertex 525.9697732577429 236.6086926019995 11.40966640603532
    vertex 493.92819146432726 202.33686040692706 17.24
  endloop
endfacet
facet normal -0.7304751647453442 0.6829392606156586 0.0
  outer loop
    vertex 493.92819146432726 202.33686040692706 17.24
    vertex 525.9697732577429 236.6086926019995 11.40966640603532
    vertex 529.5240114643273 240.4103231264453 2.000000000000045
  endloop
endfacet
facet normal -0.7304751647453442 0.6829392606156586 0.0
  outer loop
    vertex 529.5240114643273 240.4103231264453 2.000000000000045
    vertex 525.9697732577429 236.6086926019995 11.40966640603532
    vertex 529.5240114643273 240.4103231264453 9.524999999999999
  endloop
endfacet
facet normal -0.7304751647453441 -0.6829392606156587 1.4845947900185673e-15
  outer loop
    vertex 524.4131128776064 151.03336518736015 12.235099411232987
    vertex 529.5240114643273 145.5667231264453 1.9999999999999998
    vertex 529.5240114643273 145.5667231264453 9.524999999999999
  endloop
endfacet
facet normal -0.7304751647453441 -0.6829392606156587 1.4845947900185673e-15
  outer loop
    vertex 529.5240114643273 145.5667231264453 1.9999999999999998
    vertex 524.4131128776064 151.03336518736015 12.235099411232987
    vertex 493.92819146432726 183.6401858459636 17.24
  endloop
endfacet
facet normal -0.7304751647453441 -0.6829392606156587 1.4845947900185673e-15
  outer loop
    vertex 493.92819146432726 183.6401858459636 17.24
    vertex 524.4131128776064 151.03336518736015 12.235099411232987
    vertex 493.92819146432726 183.6401858459636 28.39999999999999
  endloop
endfacet
facet normal -0.7304751647453441 -0.6829392606156587 1.4845947900185673e-15
  outer loop
    vertex 493.92819146432726 183.6401858459636 17.24
    vertex 493.92819146432726 183.6401858459636 28.39999999999999
    vertex 493.92819146432726 183.6401858459636 27.399999999999995
  endloop
endfacet
facet normal 0.0 -0.44416631578913707 0.895944353137127
  outer loop
    vertex 524.4131128776064 151.03336518736015 12.235099411232987
    vertex 496.92819146432726 183.6401858459636 28.39999999999999
    vertex 493.92819146432726 183.6401858459636 28.39999999999999
  endloop
endfacet
endsolid FTCField
