solid Ball Lifter Flappy
facet normal -1.0 -6.843322455931962e-16 -2.255973186038208e-17
  outer loop
    vertex 261.14214671833446 3277.848745757657 50000.0
    vertex 261.14214671833486 2177.8487457576566 1499.9999999999998
    vertex 261.1421467183348 2177.848745757653 50000.0
  endloop
endfacet
facet normal -1.0 -6.843322455931962e-16 -2.255973186038208e-17
  outer loop
    vertex 261.14214671833486 2177.8487457576566 1499.9999999999998
    vertex 261.14214671833616 727.848745757657 0.0
    vertex 261.14214671833616 727.848745757657 1500.0
  endloop
endfacet
facet normal -1.0 -6.843322455931962e-16 -2.255973186038208e-17
  outer loop
    vertex 261.14214671833616 727.848745757657 0.0
    vertex 261.14214671833486 2177.8487457576566 1499.9999999999998
    vertex 261.1421467183334 4727.848745757651 0.0
  endloop
endfacet
facet normal -1.0 -6.843322455931962e-16 -2.255973186038208e-17
  outer loop
    vertex 261.1421467183334 4727.848745757651 0.0
    vertex 261.14214671833486 2177.8487457576566 1499.9999999999998
    vertex 261.1421467183346 3277.8487457576616 1500.0
  endloop
endfacet
facet normal -1.0 -6.843322455931962e-16 -2.255973186038208e-17
  outer loop
    vertex 261.1421467183346 3277.8487457576616 1500.0
    vertex 261.14214671833486 2177.8487457576566 1499.9999999999998
    vertex 261.14214671833446 3277.848745757657 50000.0
  endloop
endfacet
facet normal -1.0 -6.843322455931962e-16 -2.255973186038208e-17
  outer loop
    vertex 261.1421467183334 4727.848745757651 0.0
    vertex 261.1421467183346 3277.8487457576616 1500.0
    vertex 261.1421467183334 4727.848745757651 1500.0
  endloop
endfacet
facet normal -2.2559731860384134e-18 6.223374306312633e-17 1.0
  outer loop
    vertex 261.14214671833616 727.848745757657 1500.0
    vertex 40261.14214671833 2177.8487457577144 1500.0
    vertex 261.14214671833486 2177.8487457576566 1499.9999999999998
  endloop
endfacet
facet normal -2.2559731860384134e-18 6.223374306312633e-17 1.0
  outer loop
    vertex 40261.14214671833 2177.8487457577144 1500.0
    vertex 261.14214671833616 727.848745757657 1500.0
    vertex 40261.14214671834 727.848745757722 1500.0
  endloop
endfacet
facet normal 1.443822839064524e-15 -1.0 -8.203538858321123e-17
  outer loop
    vertex 40261.14214671833 2177.8487457577144 1500.0
    vertex 261.1421467183348 2177.848745757653 50000.0
    vertex 261.14214671833486 2177.8487457576566 1499.9999999999998
  endloop
endfacet
facet normal 1.443822839064524e-15 -1.0 -8.203538858321123e-17
  outer loop
    vertex 261.1421467183348 2177.848745757653 50000.0
    vertex 40261.14214671833 2177.8487457577144 1500.0
    vertex 40261.14214671833 2177.8487457577107 50000.0
  endloop
endfacet
facet normal -0.0 -0.0 1.0
  outer loop
    vertex 261.1421467183346 3277.8487457576616 1500.0
    vertex 40261.14214671833 4727.848745757718 1500.0
    vertex 261.1421467183334 4727.848745757651 1500.0
  endloop
endfacet
facet normal -0.0 -0.0 1.0
  outer loop
    vertex 40261.14214671833 4727.848745757718 1500.0
    vertex 261.1421467183346 3277.8487457576616 1500.0
    vertex 40261.14214671833 3277.8487457577194 1500.0
  endloop
endfacet
facet normal -2.2559731860381996e-18 -8.203538858321122e-17 1.0
  outer loop
    vertex 261.1421467183348 2177.848745757653 50000.0
    vertex 40261.14214671833 3277.848745757715 50000.0
    vertex 261.14214671833446 3277.848745757657 50000.0
  endloop
endfacet
facet normal -2.2559731860381996e-18 -8.203538858321122e-17 1.0
  outer loop
    vertex 40261.14214671833 3277.848745757715 50000.0
    vertex 261.1421467183348 2177.848745757653 50000.0
    vertex 40261.14214671833 2177.8487457577107 50000.0
  endloop
endfacet
facet normal -1.1550582712516185e-15 1.0 0.0
  outer loop
    vertex 261.1421467183334 4727.848745757651 1500.0
    vertex 40261.14214671833 4727.848745757718 0.0
    vertex 261.1421467183334 4727.848745757651 0.0
  endloop
endfacet
facet normal -1.1550582712516185e-15 1.0 0.0
  outer loop
    vertex 40261.14214671833 4727.848745757718 0.0
    vertex 261.1421467183334 4727.848745757651 1500.0
    vertex 40261.14214671833 4727.848745757718 1500.0
  endloop
endfacet
facet normal 1.0 1.3912174299929168e-15 9.625485593763503e-16
  outer loop
    vertex 40261.14214671833 4727.848745757718 0.0
    vertex 40261.14214671834 727.848745757722 1500.0
    vertex 40261.14214671834 727.848745757722 0.0
  endloop
endfacet
facet normal 1.0 1.3912174299929168e-15 9.625485593763503e-16
  outer loop
    vertex 40261.14214671834 727.848745757722 1500.0
    vertex 40261.14214671833 4727.848745757718 0.0
    vertex 40261.14214671833 2177.8487457577144 1500.0
  endloop
endfacet
facet normal 1.0 1.3912174299929168e-15 9.625485593763503e-16
  outer loop
    vertex 40261.14214671833 2177.8487457577144 1500.0
    vertex 40261.14214671833 4727.848745757718 0.0
    vertex 40261.14214671833 3277.8487457577194 1500.0
  endloop
endfacet
facet normal 1.0 1.3912174299929168e-15 9.625485593763503e-16
  outer loop
    vertex 40261.14214671833 2177.8487457577144 1500.0
    vertex 40261.14214671833 3277.8487457577194 1500.0
    vertex 40261.14214671833 3277.848745757715 50000.0
  endloop
endfacet
facet normal 1.0 1.3912174299929168e-15 9.625485593763503e-16
  outer loop
    vertex 40261.14214671833 3277.8487457577194 1500.0
    vertex 40261.14214671833 4727.848745757718 0.0
    vertex 40261.14214671833 4727.848745757718 1500.0
  endloop
endfacet
facet normal 1.0 1.3912174299929168e-15 9.625485593763503e-16
  outer loop
    vertex 40261.14214671833 3277.848745757715 50000.0
    vertex 40261.14214671833 2177.8487457577107 50000.0
    vertex 40261.14214671833 2177.8487457577144 1500.0
  endloop
endfacet
facet normal 8.662937034387134e-16 -1.0 0.0
  outer loop
    vertex 40261.14214671834 727.848745757722 1500.0
    vertex 261.14214671833616 727.848745757657 0.0
    vertex 40261.14214671834 727.848745757722 0.0
  endloop
endfacet
facet normal 8.662937034387134e-16 -1.0 0.0
  outer loop
    vertex 261.14214671833616 727.848745757657 0.0
    vertex 40261.14214671834 727.848745757722 1500.0
    vertex 261.14214671833616 727.848745757657 1500.0
  endloop
endfacet
facet normal -1.443822839064524e-15 1.0 8.203538858321123e-17
  outer loop
    vertex 261.14214671833446 3277.848745757657 50000.0
    vertex 40261.14214671833 3277.8487457577194 1500.0
    vertex 261.1421467183346 3277.8487457576616 1500.0
  endloop
endfacet
facet normal -1.443822839064524e-15 1.0 8.203538858321123e-17
  outer loop
    vertex 40261.14214671833 3277.8487457577194 1500.0
    vertex 261.14214671833446 3277.848745757657 50000.0
    vertex 40261.14214671833 3277.848745757715 50000.0
  endloop
endfacet
facet normal 0.0 0.0 -1.0
  outer loop
    vertex 40261.14214671833 4727.848745757718 0.0
    vertex 261.14214671833616 727.848745757657 0.0
    vertex 261.1421467183334 4727.848745757651 0.0
  endloop
endfacet
facet normal 0.0 0.0 -1.0
  outer loop
    vertex 261.14214671833616 727.848745757657 0.0
    vertex 40261.14214671833 4727.848745757718 0.0
    vertex 40261.14214671834 727.848745757722 0.0
  endloop
endfacet
endsolid Ball Lifter Flappy
