solid FTC V-Bearing  (1)
facet normal -0.9238795325112862 0.38268343236509134 -0.0
  outer loop
    vertex 28348.64504573398 9833.328807315555 7499.999999999999
    vertex 28023.968672593935 9049.490703898748 2500.0
    vertex 28023.968672593935 9049.490703898748 7499.999999999999
  endloop
endfacet
facet normal -0.9238795325112862 0.38268343236509134 -0.0
  outer loop
    vertex 28023.968672593935 9049.490703898748 2500.0
    vertex 28348.64504573398 9833.328807315555 7499.999999999999
    vertex 28348.64504573398 9833.328807315555 2500.0
  endloop
endfacet
facet normal -0.9914448613738106 -0.13052619222005005 -0.0
  outer loop
    vertex 27913.22760803341 8208.32880731556 7499.999999999999
    vertex 28023.968672593935 7367.166910732371 2500.0
    vertex 28023.968672593935 7367.166910732371 7499.999999999999
  endloop
endfacet
facet normal -0.9914448613738106 -0.13052619222005005 -0.0
  outer loop
    vertex 28023.968672593935 7367.166910732371 2500.0
    vertex 27913.22760803341 8208.32880731556 7499.999999999999
    vertex 27913.22760803341 8208.32880731556 2500.0
  endloop
endfacet
facet normal -0.7933533402912355 -0.6087614290087202 -0.0
  outer loop
    vertex 28348.64504573398 6583.328807315569 7499.999999999999
    vertex 28865.130569177127 5910.231768459293 2500.0
    vertex 28865.130569177127 5910.231768459293 7499.999999999999
  endloop
endfacet
facet normal -0.7933533402912355 -0.6087614290087202 -0.0
  outer loop
    vertex 28865.130569177127 5910.231768459293 2500.0
    vertex 28348.64504573398 6583.328807315569 7499.999999999999
    vertex 28348.64504573398 6583.328807315569 2500.0
  endloop
endfacet
facet normal 0.13052619222005296 0.9914448613738103 -0.0
  outer loop
    vertex 31163.227608033398 11458.32880731555 7499.999999999999
    vertex 32004.38950461659 11347.587742755022 2500.0
    vertex 31163.227608033398 11458.32880731555 2500.0
  endloop
endfacet
facet normal 0.13052619222005296 0.9914448613738103 -0.0
  outer loop
    vertex 32004.38950461659 11347.587742755022 2500.0
    vertex 31163.227608033398 11458.32880731555 7499.999999999999
    vertex 32004.38950461659 11347.587742755022 7499.999999999999
  endloop
endfacet
facet normal -0.9238795325112859 -0.38268343236509195 -0.0
  outer loop
    vertex 28023.968672593935 7367.166910732371 7499.999999999999
    vertex 28348.64504573398 6583.328807315569 2500.0
    vertex 28348.64504573398 6583.328807315569 7499.999999999999
  endloop
endfacet
facet normal -0.9238795325112859 -0.38268343236509195 -0.0
  outer loop
    vertex 28348.64504573398 6583.328807315569 2500.0
    vertex 28023.968672593935 7367.166910732371 7499.999999999999
    vertex 28023.968672593935 7367.166910732371 2500.0
  endloop
endfacet
facet normal -0.9914448613738109 0.13052619222004896 -0.0
  outer loop
    vertex 28023.968672593935 9049.490703898748 7499.999999999999
    vertex 27913.22760803341 8208.32880731556 2500.0
    vertex 27913.22760803341 8208.32880731556 7499.999999999999
  endloop
endfacet
facet normal -0.9914448613738109 0.13052619222004896 -0.0
  outer loop
    vertex 27913.22760803341 8208.32880731556 2500.0
    vertex 28023.968672593935 9049.490703898748 7499.999999999999
    vertex 28023.968672593935 9049.490703898748 2500.0
  endloop
endfacet
facet normal -0.13052619222005296 0.9914448613738103 -0.0
  outer loop
    vertex 30322.065711450206 11347.587742755022 7499.999999999999
    vertex 31163.227608033398 11458.32880731555 2500.0
    vertex 30322.065711450206 11347.587742755022 2500.0
  endloop
endfacet
facet normal -0.13052619222005296 0.9914448613738103 -0.0
  outer loop
    vertex 31163.227608033398 11458.32880731555 2500.0
    vertex 30322.065711450206 11347.587742755022 7499.999999999999
    vertex 31163.227608033398 11458.32880731555 7499.999999999999
  endloop
endfacet
facet normal -0.38268343236508845 0.9238795325112873 -0.0
  outer loop
    vertex 29538.227608033405 11022.911369614978 7499.999999999999
    vertex 30322.065711450206 11347.587742755022 2500.0
    vertex 29538.227608033405 11022.911369614978 2500.0
  endloop
endfacet
facet normal -0.38268343236508845 0.9238795325112873 -0.0
  outer loop
    vertex 30322.065711450206 11347.587742755022 2500.0
    vertex 29538.227608033405 11022.911369614978 7499.999999999999
    vertex 30322.065711450206 11347.587742755022 7499.999999999999
  endloop
endfacet
facet normal -0.6087614290087213 0.7933533402912347 -0.0
  outer loop
    vertex 28865.130569177127 10506.425846171831 7499.999999999999
    vertex 29538.227608033405 11022.911369614978 2500.0
    vertex 28865.130569177127 10506.425846171831 2500.0
  endloop
endfacet
facet normal -0.6087614290087213 0.7933533402912347 -0.0
  outer loop
    vertex 29538.227608033405 11022.911369614978 2500.0
    vertex 28865.130569177127 10506.425846171831 7499.999999999999
    vertex 29538.227608033405 11022.911369614978 7499.999999999999
  endloop
endfacet
facet normal -0.7933533402912343 0.6087614290087218 -0.0
  outer loop
    vertex 28865.130569177127 10506.425846171831 7499.999999999999
    vertex 28348.64504573398 9833.328807315555 2500.0
    vertex 28348.64504573398 9833.328807315555 7499.999999999999
  endloop
endfacet
facet normal -0.7933533402912343 0.6087614290087218 -0.0
  outer loop
    vertex 28348.64504573398 9833.328807315555 2500.0
    vertex 28865.130569177127 10506.425846171831 7499.999999999999
    vertex 28865.130569177127 10506.425846171831 2500.0
  endloop
endfacet
facet normal -0.6087614290087202 -0.7933533402912356 -0.0
  outer loop
    vertex 29538.22760803341 5393.746245016144 7499.999999999999
    vertex 28865.130569177127 5910.231768459293 2500.0
    vertex 29538.22760803341 5393.746245016144 2500.0
  endloop
endfacet
facet normal -0.6087614290087202 -0.7933533402912356 -0.0
  outer loop
    vertex 28865.130569177127 5910.231768459293 2500.0
    vertex 29538.22760803341 5393.746245016144 7499.999999999999
    vertex 28865.130569177127 5910.231768459293 7499.999999999999
  endloop
endfacet
facet normal -0.9238795325112863 -0.3826834323650908 -0.0
  outer loop
    vertex 32678.772064656165 9083.328807315562 10000.0
    vertex 32853.597804039266 8661.262136244972 0.0
    vertex 32853.597804039266 8661.262136244972 10000.0
  endloop
endfacet
facet normal -0.9238795325112863 -0.3826834323650908 -0.0
  outer loop
    vertex 32853.597804039266 8661.262136244972 0.0
    vertex 32678.772064656165 9083.328807315562 10000.0
    vertex 32678.772064656165 9083.328807315562 0.0
  endloop
endfacet
facet normal -0.7933533402912388 -0.6087614290087162 -0.0
  outer loop
    vertex 32400.664475109857 9445.76567439202 10000.0
    vertex 32678.772064656165 9083.328807315562 0.0
    vertex 32678.772064656165 9083.328807315562 10000.0
  endloop
endfacet
facet normal -0.7933533402912388 -0.6087614290087162 -0.0
  outer loop
    vertex 32678.772064656165 9083.328807315562 0.0
    vertex 32400.664475109857 9445.76567439202 10000.0
    vertex 32400.664475109857 9445.76567439202 0.0
  endloop
endfacet
facet normal -0.6087614290087171 0.7933533402912379 0.0
  outer loop
    vertex 32038.227608033394 6692.784350692792 10000.0
    vertex 32400.664475109857 6970.891940239102 0.0
    vertex 32038.227608033394 6692.784350692792 0.0
  endloop
endfacet
facet normal -0.6087614290087171 0.7933533402912379 0.0
  outer loop
    vertex 32400.664475109857 6970.891940239102 0.0
    vertex 32038.227608033394 6692.784350692792 10000.0
    vertex 32400.664475109857 6970.891940239102 10000.0
  endloop
endfacet
facet normal -0.6087614290087232 -0.7933533402912334 -0.0
  outer loop
    vertex 32400.664475109857 9445.76567439202 10000.0
    vertex 32038.2276080334 9723.873263938329 0.0
    vertex 32400.664475109857 9445.76567439202 0.0
  endloop
endfacet
facet normal -0.6087614290087232 -0.7933533402912334 -0.0
  outer loop
    vertex 32038.2276080334 9723.873263938329 0.0
    vertex 32400.664475109857 9445.76567439202 10000.0
    vertex 32038.2276080334 9723.873263938329 10000.0
  endloop
endfacet
facet normal -0.3826834323650882 -0.9238795325112876 -0.0
  outer loop
    vertex 32038.2276080334 9723.873263938329 10000.0
    vertex 31616.160936962813 9898.69900332143 0.0
    vertex 32038.2276080334 9723.873263938329 0.0
  endloop
endfacet
facet normal -0.3826834323650882 -0.9238795325112876 -0.0
  outer loop
    vertex 31616.160936962813 9898.69900332143 0.0
    vertex 32038.2276080334 9723.873263938329 10000.0
    vertex 31616.160936962813 9898.69900332143 10000.0
  endloop
endfacet
facet normal 0.7933533402912349 0.608761429008721 -0.0
  outer loop
    vertex 33461.32464688967 10506.425846171833 2500.0
    vertex 33977.810170332814 9833.328807315558 7499.999999999999
    vertex 33977.810170332814 9833.328807315558 2500.0
  endloop
endfacet
facet normal 0.7933533402912349 0.608761429008721 -0.0
  outer loop
    vertex 33977.810170332814 9833.328807315558 7499.999999999999
    vertex 33461.32464688967 10506.425846171833 2500.0
    vertex 33461.32464688967 10506.425846171833 7499.999999999999
  endloop
endfacet
facet normal -0.9914448613738099 0.13052619222005543 0.0
  outer loop
    vertex 32913.2276080334 8208.32880731556 10000.0
    vertex 32853.597804039266 7755.395478386147 0.0
    vertex 32853.597804039266 7755.395478386147 10000.0
  endloop
endfacet
facet normal -0.9914448613738099 0.13052619222005543 0.0
  outer loop
    vertex 32853.597804039266 7755.395478386147 0.0
    vertex 32913.2276080334 8208.32880731556 10000.0
    vertex 32913.2276080334 8208.32880731556 0.0
  endloop
endfacet
facet normal 0.6087614290087213 0.7933533402912347 -0.0
  outer loop
    vertex 32788.22760803338 11022.911369614982 7499.999999999999
    vertex 33461.32464688967 10506.425846171833 2500.0
    vertex 32788.22760803338 11022.911369614982 2500.0
  endloop
endfacet
facet normal 0.6087614290087213 0.7933533402912347 -0.0
  outer loop
    vertex 33461.32464688967 10506.425846171833 2500.0
    vertex 32788.22760803338 11022.911369614982 7499.999999999999
    vertex 33461.32464688967 10506.425846171833 7499.999999999999
  endloop
endfacet
facet normal 0.38268343236508845 0.9238795325112873 -0.0
  outer loop
    vertex 32004.38950461659 11347.587742755022 7499.999999999999
    vertex 32788.22760803338 11022.911369614982 2500.0
    vertex 32004.38950461659 11347.587742755022 2500.0
  endloop
endfacet
facet normal 0.38268343236508845 0.9238795325112873 -0.0
  outer loop
    vertex 32788.22760803338 11022.911369614982 2500.0
    vertex 32004.38950461659 11347.587742755022 7499.999999999999
    vertex 32788.22760803338 11022.911369614982 7499.999999999999
  endloop
endfacet
facet normal -0.7933533402912388 0.6087614290087162 0.0
  outer loop
    vertex 32678.772064656165 7333.32880731556 10000.0
    vertex 32400.664475109857 6970.891940239102 0.0
    vertex 32400.664475109857 6970.891940239102 10000.0
  endloop
endfacet
facet normal -0.7933533402912388 0.6087614290087162 0.0
  outer loop
    vertex 32400.664475109857 6970.891940239102 0.0
    vertex 32678.772064656165 7333.32880731556 10000.0
    vertex 32678.772064656165 7333.32880731556 0.0
  endloop
endfacet
facet normal -0.9238795325112859 0.38268343236509195 0.0
  outer loop
    vertex 32853.597804039266 7755.395478386147 10000.0
    vertex 32678.772064656165 7333.32880731556 0.0
    vertex 32678.772064656165 7333.32880731556 10000.0
  endloop
endfacet
facet normal -0.9238795325112859 0.38268343236509195 0.0
  outer loop
    vertex 32678.772064656165 7333.32880731556 0.0
    vertex 32853.597804039266 7755.395478386147 10000.0
    vertex 32853.597804039266 7755.395478386147 0.0
  endloop
endfacet
facet normal -0.0 -0.0 1.0
  outer loop
    vertex 25609.154106871254 6720.119297976069 10000.0
    vertex 25609.154106871258 9696.538316655055 10000.0
    vertex 25413.2276080334 8208.32880731556 10000.0
  endloop
endfacet
facet normal -0.0 -0.0 1.0
  outer loop
    vertex 25609.154106871258 9696.538316655055 10000.0
    vertex 25609.154106871254 6720.119297976069 10000.0
    vertex 26183.581536272875 5333.328807315564 10000.0
  endloop
endfacet
facet normal -0.0 -0.0 1.0
  outer loop
    vertex 25609.154106871258 9696.538316655055 10000.0
    vertex 26183.581536272875 5333.328807315564 10000.0
    vertex 26183.581536272875 11083.32880731556 10000.0
  endloop
endfacet
facet normal -0.0 -0.0 1.0
  outer loop
    vertex 26183.581536272875 11083.32880731556 10000.0
    vertex 26183.581536272875 5333.328807315564 10000.0
    vertex 27097.36361621075 4142.464815492916 10000.0
  endloop
endfacet
facet normal -0.0 -0.0 1.0
  outer loop
    vertex 26183.581536272875 11083.32880731556 10000.0
    vertex 27097.36361621075 4142.464815492916 10000.0
    vertex 27097.36361621075 12274.192799138207 10000.0
  endloop
endfacet
facet normal -0.0 -0.0 1.0
  outer loop
    vertex 27097.36361621075 12274.192799138207 10000.0
    vertex 27097.36361621075 4142.464815492916 10000.0
    vertex 28288.227608033398 3228.682735555042 10000.0
  endloop
endfacet
facet normal -0.0 -0.0 1.0
  outer loop
    vertex 27097.36361621075 12274.192799138207 10000.0
    vertex 28288.227608033398 3228.682735555042 10000.0
    vertex 28288.227608033398 13187.974879076082 10000.0
  endloop
endfacet
facet normal -0.0 -0.0 1.0
  outer loop
    vertex 28288.227608033398 13187.974879076082 10000.0
    vertex 28288.227608033398 3228.682735555042 10000.0
    vertex 29675.018098693898 2654.2553061534213 10000.0
  endloop
endfacet
facet normal -0.0 -0.0 1.0
  outer loop
    vertex 28288.227608033398 13187.974879076082 10000.0
    vertex 29675.018098693898 2654.2553061534213 10000.0
    vertex 29413.227608033398 8208.32880731556 10000.0
  endloop
endfacet
facet normal -0.0 -0.0 1.0
  outer loop
    vertex 29413.227608033398 8208.32880731556 10000.0
    vertex 29675.018098693898 2654.2553061534213 10000.0
    vertex 29472.85741202753 7755.39547838615 10000.0
  endloop
endfacet
facet normal -0.0 -0.0 1.0
  outer loop
    vertex 29472.85741202753 7755.39547838615 10000.0
    vertex 29675.018098693898 2654.2553061534213 10000.0
    vertex 29647.68315141063 7333.32880731556 10000.0
  endloop
endfacet
facet normal -0.0 -0.0 1.0
  outer loop
    vertex 29647.68315141063 7333.32880731556 10000.0
    vertex 29675.018098693898 2654.2553061534213 10000.0
    vertex 29925.790740956938 6970.891940239103 10000.0
  endloop
endfacet
facet normal -0.0 -0.0 1.0
  outer loop
    vertex 29925.790740956938 6970.891940239103 10000.0
    vertex 29675.018098693898 2654.2553061534213 10000.0
    vertex 31163.227608033398 2458.328807315563 10000.0
  endloop
endfacet
facet normal -0.0 -0.0 1.0
  outer loop
    vertex 29925.790740956938 6970.891940239103 10000.0
    vertex 31163.227608033398 2458.328807315563 10000.0
    vertex 30288.227608033394 6692.784350692794 10000.0
  endloop
endfacet
facet normal -0.0 -0.0 1.0
  outer loop
    vertex 30288.227608033394 6692.784350692794 10000.0
    vertex 31163.227608033398 2458.328807315563 10000.0
    vertex 30710.294279103982 6517.958611309691 10000.0
  endloop
endfacet
facet normal -0.0 -0.0 1.0
  outer loop
    vertex 30710.294279103982 6517.958611309691 10000.0
    vertex 31163.227608033398 2458.328807315563 10000.0
    vertex 31163.227608033398 6458.32880731556 10000.0
  endloop
endfacet
facet normal -0.0 -0.0 1.0
  outer loop
    vertex 31163.227608033398 6458.32880731556 10000.0
    vertex 31163.227608033398 2458.328807315563 10000.0
    vertex 32651.43711737289 2654.2553061534195 10000.0
  endloop
endfacet
facet normal -0.0 -0.0 1.0
  outer loop
    vertex 31163.227608033398 6458.32880731556 10000.0
    vertex 32651.43711737289 2654.2553061534195 10000.0
    vertex 31616.160936962806 6517.95861130969 10000.0
  endloop
endfacet
facet normal -0.0 -0.0 1.0
  outer loop
    vertex 31616.160936962806 6517.95861130969 10000.0
    vertex 32651.43711737289 2654.2553061534195 10000.0
    vertex 32038.227608033394 6692.784350692792 10000.0
  endloop
endfacet
facet normal -0.0 -0.0 1.0
  outer loop
    vertex 32038.227608033394 6692.784350692792 10000.0
    vertex 32651.43711737289 2654.2553061534195 10000.0
    vertex 32400.664475109857 6970.891940239102 10000.0
  endloop
endfacet
facet normal -0.0 -0.0 1.0
  outer loop
    vertex 32400.664475109857 6970.891940239102 10000.0
    vertex 32651.43711737289 2654.2553061534195 10000.0
    vertex 32678.772064656165 7333.32880731556 10000.0
  endloop
endfacet
facet normal -0.0 -0.0 1.0
  outer loop
    vertex 32678.772064656165 7333.32880731556 10000.0
    vertex 32651.43711737289 2654.2553061534195 10000.0
    vertex 34038.22760803339 3228.6827355550386 10000.0
  endloop
endfacet
facet normal -0.0 -0.0 1.0
  outer loop
    vertex 32678.772064656165 7333.32880731556 10000.0
    vertex 34038.22760803339 3228.6827355550386 10000.0
    vertex 32853.597804039266 7755.395478386147 10000.0
  endloop
endfacet
facet normal -0.0 -0.0 1.0
  outer loop
    vertex 32853.597804039266 7755.395478386147 10000.0
    vertex 34038.22760803339 3228.6827355550386 10000.0
    vertex 32913.2276080334 8208.32880731556 10000.0
  endloop
endfacet
facet normal -0.0 -0.0 1.0
  outer loop
    vertex 29413.227608033398 8208.32880731556 10000.0
    vertex 29675.018098693905 13762.4023084777 10000.0
    vertex 28288.227608033398 13187.974879076082 10000.0
  endloop
endfacet
facet normal -0.0 -0.0 1.0
  outer loop
    vertex 29675.018098693905 13762.4023084777 10000.0
    vertex 29413.227608033398 8208.32880731556 10000.0
    vertex 29472.85741202753 8661.262136244972 10000.0
  endloop
endfacet
facet normal -0.0 -0.0 1.0
  outer loop
    vertex 29675.018098693905 13762.4023084777 10000.0
    vertex 29472.85741202753 8661.262136244972 10000.0
    vertex 29647.68315141063 9083.328807315562 10000.0
  endloop
endfacet
facet normal -0.0 -0.0 1.0
  outer loop
    vertex 29675.018098693905 13762.4023084777 10000.0
    vertex 29647.68315141063 9083.328807315562 10000.0
    vertex 29925.790740956938 9445.76567439202 10000.0
  endloop
endfacet
facet normal -0.0 -0.0 1.0
  outer loop
    vertex 29675.018098693905 13762.4023084777 10000.0
    vertex 29925.790740956938 9445.76567439202 10000.0
    vertex 31163.227608033398 13958.328807315558 10000.0
  endloop
endfacet
facet normal -0.0 -0.0 1.0
  outer loop
    vertex 31163.227608033398 13958.328807315558 10000.0
    vertex 29925.790740956938 9445.76567439202 10000.0
    vertex 30288.2276080334 9723.873263938329 10000.0
  endloop
endfacet
facet normal -0.0 -0.0 1.0
  outer loop
    vertex 31163.227608033398 13958.328807315558 10000.0
    vertex 30288.2276080334 9723.873263938329 10000.0
    vertex 30710.29427910399 9898.699003321432 10000.0
  endloop
endfacet
facet normal -0.0 -0.0 1.0
  outer loop
    vertex 31163.227608033398 13958.328807315558 10000.0
    vertex 30710.29427910399 9898.699003321432 10000.0
    vertex 31163.227608033398 9958.328807315562 10000.0
  endloop
endfacet
facet normal -0.0 -0.0 1.0
  outer loop
    vertex 31163.227608033398 13958.328807315558 10000.0
    vertex 31163.227608033398 9958.328807315562 10000.0
    vertex 31616.160936962813 9898.69900332143 10000.0
  endloop
endfacet
facet normal -0.0 -0.0 1.0
  outer loop
    vertex 31163.227608033398 13958.328807315558 10000.0
    vertex 31616.160936962813 9898.69900332143 10000.0
    vertex 32651.43711737289 13762.4023084777 10000.0
  endloop
endfacet
facet normal -0.0 -0.0 1.0
  outer loop
    vertex 32651.43711737289 13762.4023084777 10000.0
    vertex 31616.160936962813 9898.69900332143 10000.0
    vertex 32038.2276080334 9723.873263938329 10000.0
  endloop
endfacet
facet normal -0.0 -0.0 1.0
  outer loop
    vertex 32651.43711737289 13762.4023084777 10000.0
    vertex 32038.2276080334 9723.873263938329 10000.0
    vertex 32400.664475109857 9445.76567439202 10000.0
  endloop
endfacet
facet normal -0.0 -0.0 1.0
  outer loop
    vertex 32651.43711737289 13762.4023084777 10000.0
    vertex 32400.664475109857 9445.76567439202 10000.0
    vertex 32678.772064656165 9083.328807315562 10000.0
  endloop
endfacet
facet normal -0.0 -0.0 1.0
  outer loop
    vertex 32651.43711737289 13762.4023084777 10000.0
    vertex 32678.772064656165 9083.328807315562 10000.0
    vertex 34038.2276080334 13187.974879076082 10000.0
  endloop
endfacet
facet normal -0.0 -0.0 1.0
  outer loop
    vertex 34038.2276080334 13187.974879076082 10000.0
    vertex 32678.772064656165 9083.328807315562 10000.0
    vertex 32853.597804039266 8661.262136244972 10000.0
  endloop
endfacet
facet normal -0.0 -0.0 1.0
  outer loop
    vertex 34038.2276080334 13187.974879076082 10000.0
    vertex 32853.597804039266 8661.262136244972 10000.0
    vertex 32913.2276080334 8208.32880731556 10000.0
  endloop
endfacet
facet normal -0.0 -0.0 1.0
  outer loop
    vertex 34038.2276080334 13187.974879076082 10000.0
    vertex 32913.2276080334 8208.32880731556 10000.0
    vertex 34038.22760803339 3228.6827355550386 10000.0
  endloop
endfacet
facet normal -0.0 -0.0 1.0
  outer loop
    vertex 34038.2276080334 13187.974879076082 10000.0
    vertex 34038.22760803339 3228.6827355550386 10000.0
    vertex 35229.091599856045 4142.464815492913 10000.0
  endloop
endfacet
facet normal -0.0 -0.0 1.0
  outer loop
    vertex 34038.2276080334 13187.974879076082 10000.0
    vertex 35229.091599856045 4142.464815492913 10000.0
    vertex 35229.091599856045 12274.192799138207 10000.0
  endloop
endfacet
facet normal -0.0 -0.0 1.0
  outer loop
    vertex 35229.091599856045 12274.192799138207 10000.0
    vertex 35229.091599856045 4142.464815492913 10000.0
    vertex 36142.87367979391 5333.328807315559 10000.0
  endloop
endfacet
facet normal -0.0 -0.0 1.0
  outer loop
    vertex 35229.091599856045 12274.192799138207 10000.0
    vertex 36142.87367979391 5333.328807315559 10000.0
    vertex 36142.87367979392 11083.32880731556 10000.0
  endloop
endfacet
facet normal -0.0 -0.0 1.0
  outer loop
    vertex 36142.87367979392 11083.32880731556 10000.0
    vertex 36142.87367979391 5333.328807315559 10000.0
    vertex 36717.301109195534 6720.119297976062 10000.0
  endloop
endfacet
facet normal -0.0 -0.0 1.0
  outer loop
    vertex 36142.87367979392 11083.32880731556 10000.0
    vertex 36717.301109195534 6720.119297976062 10000.0
    vertex 36717.301109195534 9696.538316655055 10000.0
  endloop
endfacet
facet normal -0.0 -0.0 1.0
  outer loop
    vertex 36717.301109195534 9696.538316655055 10000.0
    vertex 36717.301109195534 6720.119297976062 10000.0
    vertex 36913.2276080334 8208.32880731556 10000.0
  endloop
endfacet
facet normal -0.9914448613738098 -0.13052619222005585 -0.0
  outer loop
    vertex 32853.597804039266 8661.262136244972 10000.0
    vertex 32913.2276080334 8208.32880731556 0.0
    vertex 32913.2276080334 8208.32880731556 10000.0
  endloop
endfacet
facet normal -0.9914448613738098 -0.13052619222005585 -0.0
  outer loop
    vertex 32913.2276080334 8208.32880731556 0.0
    vertex 32853.597804039266 8661.262136244972 10000.0
    vertex 32853.597804039266 8661.262136244972 0.0
  endloop
endfacet
facet normal 0.9238795325112867 0.3826834323650902 -0.0
  outer loop
    vertex 33977.810170332814 9833.328807315558 2500.0
    vertex 34302.486543472856 9049.490703898751 7499.999999999999
    vertex 34302.486543472856 9049.490703898751 2500.0
  endloop
endfacet
facet normal 0.9238795325112867 0.3826834323650902 -0.0
  outer loop
    vertex 34302.486543472856 9049.490703898751 7499.999999999999
    vertex 33977.810170332814 9833.328807315558 2500.0
    vertex 33977.810170332814 9833.328807315558 7499.999999999999
  endloop
endfacet
facet normal 0.9914448613738108 -0.13052619222004963 -0.0
  outer loop
    vertex 34413.22760803338 8208.32880731556 2500.0
    vertex 34302.486543472856 7367.1669107323705 7499.999999999999
    vertex 34302.486543472856 7367.1669107323705 2500.0
  endloop
endfacet
facet normal 0.9914448613738108 -0.13052619222004963 -0.0
  outer loop
    vertex 34302.486543472856 7367.1669107323705 7499.999999999999
    vertex 34413.22760803338 8208.32880731556 2500.0
    vertex 34413.22760803338 8208.32880731556 7499.999999999999
  endloop
endfacet
facet normal 0.1305261922200513 -0.9914448613738106 -0.0
  outer loop
    vertex 32004.38950461658 5069.0698718760905 7499.999999999999
    vertex 31163.22760803339 4958.328807315563 2500.0
    vertex 32004.38950461658 5069.0698718760905 2500.0
  endloop
endfacet
facet normal 0.1305261922200513 -0.9914448613738106 -0.0
  outer loop
    vertex 31163.22760803339 4958.328807315563 2500.0
    vertex 32004.38950461658 5069.0698718760905 7499.999999999999
    vertex 31163.22760803339 4958.328807315563 7499.999999999999
  endloop
endfacet
facet normal 0.38268343236509 -0.9238795325112868 -0.0
  outer loop
    vertex 32788.22760803339 5393.746245016139 7499.999999999999
    vertex 32004.38950461658 5069.0698718760905 2500.0
    vertex 32788.22760803339 5393.746245016139 2500.0
  endloop
endfacet
facet normal 0.38268343236509 -0.9238795325112868 -0.0
  outer loop
    vertex 32004.38950461658 5069.0698718760905 2500.0
    vertex 32788.22760803339 5393.746245016139 7499.999999999999
    vertex 32004.38950461658 5069.0698718760905 7499.999999999999
  endloop
endfacet
facet normal 0.6087614290087187 -0.7933533402912369 -0.0
  outer loop
    vertex 33461.32464688967 5910.231768459283 7499.999999999999
    vertex 32788.22760803339 5393.746245016139 2500.0
    vertex 33461.32464688967 5910.231768459283 2500.0
  endloop
endfacet
facet normal 0.6087614290087187 -0.7933533402912369 -0.0
  outer loop
    vertex 32788.22760803339 5393.746245016139 2500.0
    vertex 33461.32464688967 5910.231768459283 7499.999999999999
    vertex 32788.22760803339 5393.746245016139 7499.999999999999
  endloop
endfacet
facet normal 0.9238795325112867 -0.3826834323650902 -0.0
  outer loop
    vertex 34302.486543472856 7367.1669107323705 2500.0
    vertex 33977.810170332814 6583.328807315562 7499.999999999999
    vertex 33977.810170332814 6583.328807315562 2500.0
  endloop
endfacet
facet normal 0.9238795325112867 -0.3826834323650902 -0.0
  outer loop
    vertex 33977.810170332814 6583.328807315562 7499.999999999999
    vertex 34302.486543472856 7367.1669107323705 2500.0
    vertex 34302.486543472856 7367.1669107323705 7499.999999999999
  endloop
endfacet
facet normal 0.7933533402912388 -0.608761429008716 -0.0
  outer loop
    vertex 33977.810170332814 6583.328807315562 2500.0
    vertex 33461.32464688967 5910.231768459283 7499.999999999999
    vertex 33461.32464688967 5910.231768459283 2500.0
  endloop
endfacet
facet normal 0.7933533402912388 -0.608761429008716 -0.0
  outer loop
    vertex 33461.32464688967 5910.231768459283 7499.999999999999
    vertex 33977.810170332814 6583.328807315562 2500.0
    vertex 33977.810170332814 6583.328807315562 7499.999999999999
  endloop
endfacet
facet normal 0.9914448613738108 0.13052619222004938 -0.0
  outer loop
    vertex 34302.486543472856 9049.490703898751 2500.0
    vertex 34413.22760803338 8208.32880731556 7499.999999999999
    vertex 34413.22760803338 8208.32880731556 2500.0
  endloop
endfacet
facet normal 0.9914448613738108 0.13052619222004938 -0.0
  outer loop
    vertex 34413.22760803338 8208.32880731556 7499.999999999999
    vertex 34302.486543472856 9049.490703898751 2500.0
    vertex 34302.486543472856 9049.490703898751 7499.999999999999
  endloop
endfacet
facet normal -0.1305261922200519 -0.9914448613738104 -0.0
  outer loop
    vertex 31616.160936962813 9898.69900332143 10000.0
    vertex 31163.227608033398 9958.328807315562 0.0
    vertex 31616.160936962813 9898.69900332143 0.0
  endloop
endfacet
facet normal -0.1305261922200519 -0.9914448613738104 -0.0
  outer loop
    vertex 31163.227608033398 9958.328807315562 0.0
    vertex 31616.160936962813 9898.69900332143 10000.0
    vertex 31163.227608033398 9958.328807315562 10000.0
  endloop
endfacet
facet normal 0.7933533402912375 0.6087614290087177 0.0
  outer loop
    vertex 29647.68315141063 7333.32880731556 0.0
    vertex 29925.790740956938 6970.891940239103 10000.0
    vertex 29925.790740956938 6970.891940239103 0.0
  endloop
endfacet
facet normal 0.7933533402912375 0.6087614290087177 0.0
  outer loop
    vertex 29925.790740956938 6970.891940239103 10000.0
    vertex 29647.68315141063 7333.32880731556 0.0
    vertex 29647.68315141063 7333.32880731556 10000.0
  endloop
endfacet
facet normal 0.3826834323650908 0.9238795325112863 0.0
  outer loop
    vertex 30288.227608033394 6692.784350692794 10000.0
    vertex 30710.294279103982 6517.958611309691 0.0
    vertex 30288.227608033394 6692.784350692794 0.0
  endloop
endfacet
facet normal 0.3826834323650908 0.9238795325112863 0.0
  outer loop
    vertex 30710.294279103982 6517.958611309691 0.0
    vertex 30288.227608033394 6692.784350692794 10000.0
    vertex 30710.294279103982 6517.958611309691 10000.0
  endloop
endfacet
facet normal 0.1305261922200519 0.9914448613738104 0.0
  outer loop
    vertex 30710.294279103982 6517.958611309691 10000.0
    vertex 31163.227608033398 6458.32880731556 0.0
    vertex 30710.294279103982 6517.958611309691 0.0
  endloop
endfacet
facet normal 0.1305261922200519 0.9914448613738104 0.0
  outer loop
    vertex 31163.227608033398 6458.32880731556 0.0
    vertex 30710.294279103982 6517.958611309691 10000.0
    vertex 31163.227608033398 6458.32880731556 10000.0
  endloop
endfacet
facet normal 0.6087614290087232 0.7933533402912334 0.0
  outer loop
    vertex 29925.790740956938 6970.891940239103 10000.0
    vertex 30288.227608033394 6692.784350692794 0.0
    vertex 29925.790740956938 6970.891940239103 0.0
  endloop
endfacet
facet normal 0.6087614290087232 0.7933533402912334 0.0
  outer loop
    vertex 30288.227608033394 6692.784350692794 0.0
    vertex 29925.790740956938 6970.891940239103 10000.0
    vertex 30288.227608033394 6692.784350692794 10000.0
  endloop
endfacet
facet normal -0.13052619222005046 0.9914448613738106 0.0
  outer loop
    vertex 31163.227608033398 6458.32880731556 10000.0
    vertex 31616.160936962806 6517.95861130969 0.0
    vertex 31163.227608033398 6458.32880731556 0.0
  endloop
endfacet
facet normal -0.13052619222005046 0.9914448613738106 0.0
  outer loop
    vertex 31616.160936962806 6517.95861130969 0.0
    vertex 31163.227608033398 6458.32880731556 10000.0
    vertex 31616.160936962806 6517.95861130969 10000.0
  endloop
endfacet
facet normal 0.9914448613738098 -0.13052619222005585 0.0
  outer loop
    vertex 29472.85741202753 8661.262136244972 0.0
    vertex 29413.227608033398 8208.32880731556 10000.0
    vertex 29413.227608033398 8208.32880731556 0.0
  endloop
endfacet
facet normal 0.9914448613738098 -0.13052619222005585 0.0
  outer loop
    vertex 29413.227608033398 8208.32880731556 10000.0
    vertex 29472.85741202753 8661.262136244972 0.0
    vertex 29472.85741202753 8661.262136244972 10000.0
  endloop
endfacet
facet normal -0.3826834323650908 0.9238795325112863 0.0
  outer loop
    vertex 31616.160936962806 6517.95861130969 10000.0
    vertex 32038.227608033394 6692.784350692792 0.0
    vertex 31616.160936962806 6517.95861130969 0.0
  endloop
endfacet
facet normal -0.3826834323650908 0.9238795325112863 0.0
  outer loop
    vertex 32038.227608033394 6692.784350692792 0.0
    vertex 31616.160936962806 6517.95861130969 10000.0
    vertex 32038.227608033394 6692.784350692792 10000.0
  endloop
endfacet
facet normal 0.7933533402912388 -0.6087614290087162 0.0
  outer loop
    vertex 29925.790740956938 9445.76567439202 0.0
    vertex 29647.68315141063 9083.328807315562 10000.0
    vertex 29647.68315141063 9083.328807315562 0.0
  endloop
endfacet
facet normal 0.7933533402912388 -0.6087614290087162 0.0
  outer loop
    vertex 29647.68315141063 9083.328807315562 10000.0
    vertex 29925.790740956938 9445.76567439202 0.0
    vertex 29925.790740956938 9445.76567439202 10000.0
  endloop
endfacet
facet normal 0.9238795325112863 -0.3826834323650908 0.0
  outer loop
    vertex 29647.68315141063 9083.328807315562 0.0
    vertex 29472.85741202753 8661.262136244972 10000.0
    vertex 29472.85741202753 8661.262136244972 0.0
  endloop
endfacet
facet normal 0.9238795325112863 -0.3826834323650908 0.0
  outer loop
    vertex 29472.85741202753 8661.262136244972 10000.0
    vertex 29647.68315141063 9083.328807315562 0.0
    vertex 29647.68315141063 9083.328807315562 10000.0
  endloop
endfacet
facet normal 0.3826834323650908 -0.9238795325112863 0.0
  outer loop
    vertex 30710.29427910399 9898.699003321432 10000.0
    vertex 30288.2276080334 9723.873263938329 0.0
    vertex 30710.29427910399 9898.699003321432 0.0
  endloop
endfacet
facet normal 0.3826834323650908 -0.9238795325112863 0.0
  outer loop
    vertex 30288.2276080334 9723.873263938329 0.0
    vertex 30710.29427910399 9898.699003321432 10000.0
    vertex 30288.2276080334 9723.873263938329 10000.0
  endloop
endfacet
facet normal 0.13052619222005046 -0.9914448613738106 0.0
  outer loop
    vertex 31163.227608033398 9958.328807315562 10000.0
    vertex 30710.29427910399 9898.699003321432 0.0
    vertex 31163.227608033398 9958.328807315562 0.0
  endloop
endfacet
facet normal 0.13052619222005046 -0.9914448613738106 0.0
  outer loop
    vertex 30710.29427910399 9898.699003321432 0.0
    vertex 31163.227608033398 9958.328807315562 10000.0
    vertex 30710.29427910399 9898.699003321432 10000.0
  endloop
endfacet
facet normal 0.6087614290087171 -0.7933533402912379 0.0
  outer loop
    vertex 30288.2276080334 9723.873263938329 10000.0
    vertex 29925.790740956938 9445.76567439202 0.0
    vertex 30288.2276080334 9723.873263938329 0.0
  endloop
endfacet
facet normal 0.6087614290087171 -0.7933533402912379 0.0
  outer loop
    vertex 29925.790740956938 9445.76567439202 0.0
    vertex 30288.2276080334 9723.873263938329 10000.0
    vertex 29925.790740956938 9445.76567439202 10000.0
  endloop
endfacet
facet normal 0.9914448613738098 0.13052619222005626 0.0
  outer loop
    vertex 29413.227608033398 8208.32880731556 0.0
    vertex 29472.85741202753 7755.39547838615 10000.0
    vertex 29472.85741202753 7755.39547838615 0.0
  endloop
endfacet
facet normal 0.9914448613738098 0.13052619222005626 0.0
  outer loop
    vertex 29472.85741202753 7755.39547838615 10000.0
    vertex 29413.227608033398 8208.32880731556 0.0
    vertex 29413.227608033398 8208.32880731556 10000.0
  endloop
endfacet
facet normal 0.923879532511287 0.3826834323650898 0.0
  outer loop
    vertex 29472.85741202753 7755.39547838615 0.0
    vertex 29647.68315141063 7333.32880731556 10000.0
    vertex 29647.68315141063 7333.32880731556 0.0
  endloop
endfacet
facet normal 0.923879532511287 0.3826834323650898 0.0
  outer loop
    vertex 29647.68315141063 7333.32880731556 10000.0
    vertex 29472.85741202753 7755.39547838615 0.0
    vertex 29472.85741202753 7755.39547838615 10000.0
  endloop
endfacet
facet normal 0.0 0.0 -1.0
  outer loop
    vertex 25609.154106871258 9696.538316655055 0.0
    vertex 25609.154106871254 6720.119297976069 0.0
    vertex 25413.2276080334 8208.32880731556 0.0
  endloop
endfacet
facet normal 0.0 0.0 -1.0
  outer loop
    vertex 25609.154106871254 6720.119297976069 0.0
    vertex 25609.154106871258 9696.538316655055 0.0
    vertex 26183.581536272875 5333.328807315564 0.0
  endloop
endfacet
facet normal 0.0 0.0 -1.0
  outer loop
    vertex 26183.581536272875 5333.328807315564 0.0
    vertex 25609.154106871258 9696.538316655055 0.0
    vertex 26183.581536272875 11083.32880731556 0.0
  endloop
endfacet
facet normal 0.0 0.0 -1.0
  outer loop
    vertex 26183.581536272875 5333.328807315564 0.0
    vertex 26183.581536272875 11083.32880731556 0.0
    vertex 27097.36361621075 12274.192799138207 0.0
  endloop
endfacet
facet normal 0.0 0.0 -1.0
  outer loop
    vertex 26183.581536272875 5333.328807315564 0.0
    vertex 27097.36361621075 12274.192799138207 0.0
    vertex 27097.36361621075 4142.464815492916 0.0
  endloop
endfacet
facet normal 0.0 0.0 -1.0
  outer loop
    vertex 27097.36361621075 4142.464815492916 0.0
    vertex 27097.36361621075 12274.192799138207 0.0
    vertex 28288.227608033398 13187.974879076082 0.0
  endloop
endfacet
facet normal 0.0 0.0 -1.0
  outer loop
    vertex 27097.36361621075 4142.464815492916 0.0
    vertex 28288.227608033398 13187.974879076082 0.0
    vertex 28288.227608033398 3228.682735555042 0.0
  endloop
endfacet
facet normal 0.0 0.0 -1.0
  outer loop
    vertex 28288.227608033398 3228.682735555042 0.0
    vertex 28288.227608033398 13187.974879076082 0.0
    vertex 29675.018098693905 13762.4023084777 0.0
  endloop
endfacet
facet normal 0.0 0.0 -1.0
  outer loop
    vertex 28288.227608033398 3228.682735555042 0.0
    vertex 29675.018098693905 13762.4023084777 0.0
    vertex 29413.227608033398 8208.32880731556 0.0
  endloop
endfacet
facet normal 0.0 0.0 -1.0
  outer loop
    vertex 29413.227608033398 8208.32880731556 0.0
    vertex 29675.018098693905 13762.4023084777 0.0
    vertex 29472.85741202753 8661.262136244972 0.0
  endloop
endfacet
facet normal 0.0 0.0 -1.0
  outer loop
    vertex 29472.85741202753 8661.262136244972 0.0
    vertex 29675.018098693905 13762.4023084777 0.0
    vertex 29647.68315141063 9083.328807315562 0.0
  endloop
endfacet
facet normal 0.0 0.0 -1.0
  outer loop
    vertex 29647.68315141063 9083.328807315562 0.0
    vertex 29675.018098693905 13762.4023084777 0.0
    vertex 29925.790740956938 9445.76567439202 0.0
  endloop
endfacet
facet normal 0.0 0.0 -1.0
  outer loop
    vertex 29925.790740956938 9445.76567439202 0.0
    vertex 29675.018098693905 13762.4023084777 0.0
    vertex 31163.227608033398 13958.328807315558 0.0
  endloop
endfacet
facet normal 0.0 0.0 -1.0
  outer loop
    vertex 29925.790740956938 9445.76567439202 0.0
    vertex 31163.227608033398 13958.328807315558 0.0
    vertex 30288.2276080334 9723.873263938329 0.0
  endloop
endfacet
facet normal 0.0 0.0 -1.0
  outer loop
    vertex 30288.2276080334 9723.873263938329 0.0
    vertex 31163.227608033398 13958.328807315558 0.0
    vertex 30710.29427910399 9898.699003321432 0.0
  endloop
endfacet
facet normal 0.0 0.0 -1.0
  outer loop
    vertex 30710.29427910399 9898.699003321432 0.0
    vertex 31163.227608033398 13958.328807315558 0.0
    vertex 31163.227608033398 9958.328807315562 0.0
  endloop
endfacet
facet normal 0.0 0.0 -1.0
  outer loop
    vertex 31163.227608033398 9958.328807315562 0.0
    vertex 31163.227608033398 13958.328807315558 0.0
    vertex 32651.43711737289 13762.4023084777 0.0
  endloop
endfacet
facet normal 0.0 0.0 -1.0
  outer loop
    vertex 31163.227608033398 9958.328807315562 0.0
    vertex 32651.43711737289 13762.4023084777 0.0
    vertex 31616.160936962813 9898.69900332143 0.0
  endloop
endfacet
facet normal 0.0 0.0 -1.0
  outer loop
    vertex 31616.160936962813 9898.69900332143 0.0
    vertex 32651.43711737289 13762.4023084777 0.0
    vertex 32038.2276080334 9723.873263938329 0.0
  endloop
endfacet
facet normal 0.0 0.0 -1.0
  outer loop
    vertex 32038.2276080334 9723.873263938329 0.0
    vertex 32651.43711737289 13762.4023084777 0.0
    vertex 32400.664475109857 9445.76567439202 0.0
  endloop
endfacet
facet normal 0.0 0.0 -1.0
  outer loop
    vertex 32400.664475109857 9445.76567439202 0.0
    vertex 32651.43711737289 13762.4023084777 0.0
    vertex 32678.772064656165 9083.328807315562 0.0
  endloop
endfacet
facet normal 0.0 0.0 -1.0
  outer loop
    vertex 32678.772064656165 9083.328807315562 0.0
    vertex 32651.43711737289 13762.4023084777 0.0
    vertex 34038.2276080334 13187.974879076082 0.0
  endloop
endfacet
facet normal 0.0 0.0 -1.0
  outer loop
    vertex 32678.772064656165 9083.328807315562 0.0
    vertex 34038.2276080334 13187.974879076082 0.0
    vertex 32853.597804039266 8661.262136244972 0.0
  endloop
endfacet
facet normal 0.0 0.0 -1.0
  outer loop
    vertex 32853.597804039266 8661.262136244972 0.0
    vertex 34038.2276080334 13187.974879076082 0.0
    vertex 32913.2276080334 8208.32880731556 0.0
  endloop
endfacet
facet normal 0.0 0.0 -1.0
  outer loop
    vertex 32913.2276080334 8208.32880731556 0.0
    vertex 34038.2276080334 13187.974879076082 0.0
    vertex 34038.22760803339 3228.6827355550386 0.0
  endloop
endfacet
facet normal 0.0 0.0 -1.0
  outer loop
    vertex 34038.22760803339 3228.6827355550386 0.0
    vertex 34038.2276080334 13187.974879076082 0.0
    vertex 35229.091599856045 4142.464815492913 0.0
  endloop
endfacet
facet normal 0.0 0.0 -1.0
  outer loop
    vertex 35229.091599856045 4142.464815492913 0.0
    vertex 34038.2276080334 13187.974879076082 0.0
    vertex 35229.091599856045 12274.192799138207 0.0
  endloop
endfacet
facet normal 0.0 0.0 -1.0
  outer loop
    vertex 35229.091599856045 4142.464815492913 0.0
    vertex 35229.091599856045 12274.192799138207 0.0
    vertex 36142.87367979392 11083.32880731556 0.0
  endloop
endfacet
facet normal 0.0 0.0 -1.0
  outer loop
    vertex 35229.091599856045 4142.464815492913 0.0
    vertex 36142.87367979392 11083.32880731556 0.0
    vertex 36142.87367979391 5333.328807315559 0.0
  endloop
endfacet
facet normal 0.0 0.0 -1.0
  outer loop
    vertex 36142.87367979391 5333.328807315559 0.0
    vertex 36142.87367979392 11083.32880731556 0.0
    vertex 36717.301109195534 6720.119297976062 0.0
  endloop
endfacet
facet normal 0.0 0.0 -1.0
  outer loop
    vertex 36717.301109195534 6720.119297976062 0.0
    vertex 36142.87367979392 11083.32880731556 0.0
    vertex 36717.301109195534 9696.538316655055 0.0
  endloop
endfacet
facet normal 0.0 0.0 -1.0
  outer loop
    vertex 36717.301109195534 6720.119297976062 0.0
    vertex 36717.301109195534 9696.538316655055 0.0
    vertex 36913.2276080334 8208.32880731556 0.0
  endloop
endfacet
facet normal 0.0 0.0 -1.0
  outer loop
    vertex 29413.227608033398 8208.32880731556 0.0
    vertex 29675.018098693898 2654.2553061534213 0.0
    vertex 28288.227608033398 3228.682735555042 0.0
  endloop
endfacet
facet normal 0.0 0.0 -1.0
  outer loop
    vertex 29675.018098693898 2654.2553061534213 0.0
    vertex 29413.227608033398 8208.32880731556 0.0
    vertex 29472.85741202753 7755.39547838615 0.0
  endloop
endfacet
facet normal 0.0 0.0 -1.0
  outer loop
    vertex 29675.018098693898 2654.2553061534213 0.0
    vertex 29472.85741202753 7755.39547838615 0.0
    vertex 29647.68315141063 7333.32880731556 0.0
  endloop
endfacet
facet normal 0.0 0.0 -1.0
  outer loop
    vertex 29675.018098693898 2654.2553061534213 0.0
    vertex 29647.68315141063 7333.32880731556 0.0
    vertex 29925.790740956938 6970.891940239103 0.0
  endloop
endfacet
facet normal 0.0 0.0 -1.0
  outer loop
    vertex 29675.018098693898 2654.2553061534213 0.0
    vertex 29925.790740956938 6970.891940239103 0.0
    vertex 31163.227608033398 2458.328807315563 0.0
  endloop
endfacet
facet normal 0.0 0.0 -1.0
  outer loop
    vertex 31163.227608033398 2458.328807315563 0.0
    vertex 29925.790740956938 6970.891940239103 0.0
    vertex 30288.227608033394 6692.784350692794 0.0
  endloop
endfacet
facet normal 0.0 0.0 -1.0
  outer loop
    vertex 31163.227608033398 2458.328807315563 0.0
    vertex 30288.227608033394 6692.784350692794 0.0
    vertex 30710.294279103982 6517.958611309691 0.0
  endloop
endfacet
facet normal 0.0 0.0 -1.0
  outer loop
    vertex 31163.227608033398 2458.328807315563 0.0
    vertex 30710.294279103982 6517.958611309691 0.0
    vertex 31163.227608033398 6458.32880731556 0.0
  endloop
endfacet
facet normal 0.0 0.0 -1.0
  outer loop
    vertex 31163.227608033398 2458.328807315563 0.0
    vertex 31163.227608033398 6458.32880731556 0.0
    vertex 31616.160936962806 6517.95861130969 0.0
  endloop
endfacet
facet normal 0.0 0.0 -1.0
  outer loop
    vertex 31163.227608033398 2458.328807315563 0.0
    vertex 31616.160936962806 6517.95861130969 0.0
    vertex 32651.43711737289 2654.2553061534195 0.0
  endloop
endfacet
facet normal 0.0 0.0 -1.0
  outer loop
    vertex 32651.43711737289 2654.2553061534195 0.0
    vertex 31616.160936962806 6517.95861130969 0.0
    vertex 32038.227608033394 6692.784350692792 0.0
  endloop
endfacet
facet normal 0.0 0.0 -1.0
  outer loop
    vertex 32651.43711737289 2654.2553061534195 0.0
    vertex 32038.227608033394 6692.784350692792 0.0
    vertex 32400.664475109857 6970.891940239102 0.0
  endloop
endfacet
facet normal 0.0 0.0 -1.0
  outer loop
    vertex 32651.43711737289 2654.2553061534195 0.0
    vertex 32400.664475109857 6970.891940239102 0.0
    vertex 32678.772064656165 7333.32880731556 0.0
  endloop
endfacet
facet normal 0.0 0.0 -1.0
  outer loop
    vertex 32651.43711737289 2654.2553061534195 0.0
    vertex 32678.772064656165 7333.32880731556 0.0
    vertex 34038.22760803339 3228.6827355550386 0.0
  endloop
endfacet
facet normal 0.0 0.0 -1.0
  outer loop
    vertex 34038.22760803339 3228.6827355550386 0.0
    vertex 32678.772064656165 7333.32880731556 0.0
    vertex 32853.597804039266 7755.395478386147 0.0
  endloop
endfacet
facet normal 0.0 0.0 -1.0
  outer loop
    vertex 34038.22760803339 3228.6827355550386 0.0
    vertex 32853.597804039266 7755.395478386147 0.0
    vertex 32913.2276080334 8208.32880731556 0.0
  endloop
endfacet
facet normal -0.9238795325112875 0.38268343236508845 0.0
  outer loop
    vertex 26183.581536272875 11083.32880731556 10000.0
    vertex 25609.154106871258 9696.538316655055 7499.999999999999
    vertex 25609.154106871258 9696.538316655055 10000.0
  endloop
endfacet
facet normal -0.9238795325112875 0.38268343236508845 0.0
  outer loop
    vertex 25609.154106871258 9696.538316655055 7499.999999999999
    vertex 26183.581536272875 11083.32880731556 10000.0
    vertex 26183.581536272875 11083.32880731556 7499.999999999999
  endloop
endfacet
facet normal -0.3826834323650913 -0.9238795325112862 0.0
  outer loop
    vertex 29675.018098693898 2654.2553061534213 2500.0
    vertex 28288.227608033398 3228.682735555042 0.0
    vertex 29675.018098693898 2654.2553061534213 0.0
  endloop
endfacet
facet normal -0.3826834323650913 -0.9238795325112862 0.0
  outer loop
    vertex 28288.227608033398 3228.682735555042 0.0
    vertex 29675.018098693898 2654.2553061534213 2500.0
    vertex 28288.227608033398 3228.682735555042 2500.0
  endloop
endfacet
facet normal 0.793353340291236 -0.6087614290087198 -0.0
  outer loop
    vertex 36142.87367979391 5333.328807315559 7499.999999999999
    vertex 35229.091599856045 4142.464815492913 10000.0
    vertex 35229.091599856045 4142.464815492913 7499.999999999999
  endloop
endfacet
facet normal 0.793353340291236 -0.6087614290087198 -0.0
  outer loop
    vertex 35229.091599856045 4142.464815492913 10000.0
    vertex 36142.87367979391 5333.328807315559 7499.999999999999
    vertex 36142.87367979391 5333.328807315559 10000.0
  endloop
endfacet
facet normal 0.9914448613738105 -0.13052619222005182 -0.0
  outer loop
    vertex 36913.2276080334 8208.32880731556 7499.999999999999
    vertex 36717.301109195534 6720.119297976062 10000.0
    vertex 36717.301109195534 6720.119297976062 7499.999999999999
  endloop
endfacet
facet normal 0.9914448613738105 -0.13052619222005182 -0.0
  outer loop
    vertex 36717.301109195534 6720.119297976062 10000.0
    vertex 36913.2276080334 8208.32880731556 7499.999999999999
    vertex 36913.2276080334 8208.32880731556 10000.0
  endloop
endfacet
facet normal 0.6087614290087194 -0.793353340291236 0.0
  outer loop
    vertex 35229.091599856045 4142.464815492913 10000.0
    vertex 34038.22760803339 3228.6827355550386 7499.999999999999
    vertex 35229.091599856045 4142.464815492913 7499.999999999999
  endloop
endfacet
facet normal 0.6087614290087194 -0.793353340291236 0.0
  outer loop
    vertex 34038.22760803339 3228.6827355550386 7499.999999999999
    vertex 35229.091599856045 4142.464815492913 10000.0
    vertex 34038.22760803339 3228.6827355550386 10000.0
  endloop
endfacet
facet normal 0.38268343236508834 0.9238795325112875 -0.0
  outer loop
    vertex 32651.43711737289 13762.4023084777 2500.0
    vertex 34038.2276080334 13187.974879076082 0.0
    vertex 32651.43711737289 13762.4023084777 0.0
  endloop
endfacet
facet normal 0.38268343236508834 0.9238795325112875 -0.0
  outer loop
    vertex 34038.2276080334 13187.974879076082 0.0
    vertex 32651.43711737289 13762.4023084777 2500.0
    vertex 34038.2276080334 13187.974879076082 2500.0
  endloop
endfacet
facet normal -0.6087614290087215 0.7933533402912345 -0.0
  outer loop
    vertex 27097.36361621075 12274.192799138207 2500.0
    vertex 28288.227608033398 13187.974879076082 0.0
    vertex 27097.36361621075 12274.192799138207 0.0
  endloop
endfacet
facet normal -0.6087614290087215 0.7933533402912345 -0.0
  outer loop
    vertex 28288.227608033398 13187.974879076082 0.0
    vertex 27097.36361621075 12274.192799138207 2500.0
    vertex 28288.227608033398 13187.974879076082 2500.0
  endloop
endfacet
facet normal -0.9238795325112867 -0.3826834323650899 0.0
  outer loop
    vertex 25609.154106871254 6720.119297976069 10000.0
    vertex 26183.581536272875 5333.328807315564 7499.999999999999
    vertex 26183.581536272875 5333.328807315564 10000.0
  endloop
endfacet
facet normal -0.9238795325112867 -0.3826834323650899 0.0
  outer loop
    vertex 26183.581536272875 5333.328807315564 7499.999999999999
    vertex 25609.154106871254 6720.119297976069 10000.0
    vertex 25609.154106871254 6720.119297976069 7499.999999999999
  endloop
endfacet
facet normal 0.38268343236508834 0.9238795325112875 -0.0
  outer loop
    vertex 32651.43711737289 13762.4023084777 10000.0
    vertex 34038.2276080334 13187.974879076082 7499.999999999999
    vertex 32651.43711737289 13762.4023084777 7499.999999999999
  endloop
endfacet
facet normal 0.38268343236508834 0.9238795325112875 -0.0
  outer loop
    vertex 34038.2276080334 13187.974879076082 7499.999999999999
    vertex 32651.43711737289 13762.4023084777 10000.0
    vertex 34038.2276080334 13187.974879076082 10000.0
  endloop
endfacet
facet normal -0.13052619222005185 -0.9914448613738105 0.0
  outer loop
    vertex 31163.227608033398 2458.328807315563 2500.0
    vertex 29675.018098693898 2654.2553061534213 0.0
    vertex 31163.227608033398 2458.328807315563 0.0
  endloop
endfacet
facet normal -0.13052619222005185 -0.9914448613738105 0.0
  outer loop
    vertex 29675.018098693898 2654.2553061534213 0.0
    vertex 31163.227608033398 2458.328807315563 2500.0
    vertex 29675.018098693898 2654.2553061534213 2500.0
  endloop
endfacet
facet normal 0.9238795325112857 -0.3826834323650922 -0.0
  outer loop
    vertex 36717.301109195534 6720.119297976062 0.0
    vertex 36142.87367979391 5333.328807315559 2500.0
    vertex 36142.87367979391 5333.328807315559 0.0
  endloop
endfacet
facet normal 0.9238795325112857 -0.3826834323650922 -0.0
  outer loop
    vertex 36142.87367979391 5333.328807315559 2500.0
    vertex 36717.301109195534 6720.119297976062 0.0
    vertex 36717.301109195534 6720.119297976062 2500.0
  endloop
endfacet
facet normal -0.6087614290087215 0.7933533402912345 -0.0
  outer loop
    vertex 27097.36361621075 12274.192799138207 10000.0
    vertex 28288.227608033398 13187.974879076082 7499.999999999999
    vertex 27097.36361621075 12274.192799138207 7499.999999999999
  endloop
endfacet
facet normal -0.6087614290087215 0.7933533402912345 -0.0
  outer loop
    vertex 28288.227608033398 13187.974879076082 7499.999999999999
    vertex 27097.36361621075 12274.192799138207 10000.0
    vertex 28288.227608033398 13187.974879076082 10000.0
  endloop
endfacet
facet normal -0.6087614290087212 -0.7933533402912349 0.0
  outer loop
    vertex 28288.227608033398 3228.682735555042 2500.0
    vertex 27097.36361621075 4142.464815492916 0.0
    vertex 28288.227608033398 3228.682735555042 0.0
  endloop
endfacet
facet normal -0.6087614290087212 -0.7933533402912349 0.0
  outer loop
    vertex 27097.36361621075 4142.464815492916 0.0
    vertex 28288.227608033398 3228.682735555042 2500.0
    vertex 27097.36361621075 4142.464815492916 2500.0
  endloop
endfacet
facet normal 0.9238795325112875 0.38268343236508834 -0.0
  outer loop
    vertex 36142.87367979392 11083.32880731556 7499.999999999999
    vertex 36717.301109195534 9696.538316655055 10000.0
    vertex 36717.301109195534 9696.538316655055 7499.999999999999
  endloop
endfacet
facet normal 0.9238795325112875 0.38268343236508834 -0.0
  outer loop
    vertex 36717.301109195534 9696.538316655055 10000.0
    vertex 36142.87367979392 11083.32880731556 7499.999999999999
    vertex 36142.87367979392 11083.32880731556 10000.0
  endloop
endfacet
facet normal 0.13052619222005235 0.9914448613738105 -0.0
  outer loop
    vertex 31163.227608033398 13958.328807315558 10000.0
    vertex 32651.43711737289 13762.4023084777 7499.999999999999
    vertex 31163.227608033398 13958.328807315558 7499.999999999999
  endloop
endfacet
facet normal 0.13052619222005235 0.9914448613738105 -0.0
  outer loop
    vertex 32651.43711737289 13762.4023084777 7499.999999999999
    vertex 31163.227608033398 13958.328807315558 10000.0
    vertex 32651.43711737289 13762.4023084777 10000.0
  endloop
endfacet
facet normal -0.7933533402912343 -0.6087614290087219 0.0
  outer loop
    vertex 26183.581536272875 5333.328807315564 10000.0
    vertex 27097.36361621075 4142.464815492916 7499.999999999999
    vertex 27097.36361621075 4142.464815492916 10000.0
  endloop
endfacet
facet normal -0.7933533402912343 -0.6087614290087219 0.0
  outer loop
    vertex 27097.36361621075 4142.464815492916 7499.999999999999
    vertex 26183.581536272875 5333.328807315564 10000.0
    vertex 26183.581536272875 5333.328807315564 7499.999999999999
  endloop
endfacet
facet normal 0.9914448613738105 -0.13052619222005182 -0.0
  outer loop
    vertex 36913.2276080334 8208.32880731556 0.0
    vertex 36717.301109195534 6720.119297976062 2500.0
    vertex 36717.301109195534 6720.119297976062 0.0
  endloop
endfacet
facet normal 0.9914448613738105 -0.13052619222005182 -0.0
  outer loop
    vertex 36717.301109195534 6720.119297976062 2500.0
    vertex 36913.2276080334 8208.32880731556 0.0
    vertex 36913.2276080334 8208.32880731556 2500.0
  endloop
endfacet
facet normal 0.38268343236509045 -0.9238795325112865 0.0
  outer loop
    vertex 34038.22760803339 3228.6827355550386 2500.0
    vertex 32651.43711737289 2654.2553061534195 0.0
    vertex 34038.22760803339 3228.6827355550386 0.0
  endloop
endfacet
facet normal 0.38268343236509045 -0.9238795325112865 0.0
  outer loop
    vertex 32651.43711737289 2654.2553061534195 0.0
    vertex 34038.22760803339 3228.6827355550386 2500.0
    vertex 32651.43711737289 2654.2553061534195 2500.0
  endloop
endfacet
facet normal 0.38268343236509056 -0.9238795325112865 0.0
  outer loop
    vertex 34038.22760803339 3228.6827355550386 10000.0
    vertex 32651.43711737289 2654.2553061534195 7499.999999999999
    vertex 34038.22760803339 3228.6827355550386 7499.999999999999
  endloop
endfacet
facet normal 0.38268343236509056 -0.9238795325112865 0.0
  outer loop
    vertex 32651.43711737289 2654.2553061534195 7499.999999999999
    vertex 34038.22760803339 3228.6827355550386 10000.0
    vertex 32651.43711737289 2654.2553061534195 10000.0
  endloop
endfacet
facet normal -0.3826834323650912 -0.9238795325112862 0.0
  outer loop
    vertex 29675.018098693898 2654.2553061534213 10000.0
    vertex 28288.227608033398 3228.682735555042 7499.999999999999
    vertex 29675.018098693898 2654.2553061534213 7499.999999999999
  endloop
endfacet
facet normal -0.3826834323650912 -0.9238795325112862 0.0
  outer loop
    vertex 28288.227608033398 3228.682735555042 7499.999999999999
    vertex 29675.018098693898 2654.2553061534213 10000.0
    vertex 28288.227608033398 3228.682735555042 10000.0
  endloop
endfacet
facet normal -0.7933533402912342 0.608761429008722 0.0
  outer loop
    vertex 27097.36361621075 12274.192799138207 2500.0
    vertex 26183.581536272875 11083.32880731556 0.0
    vertex 26183.581536272875 11083.32880731556 2500.0
  endloop
endfacet
facet normal -0.7933533402912342 0.608761429008722 0.0
  outer loop
    vertex 26183.581536272875 11083.32880731556 0.0
    vertex 27097.36361621075 12274.192799138207 2500.0
    vertex 27097.36361621075 12274.192799138207 0.0
  endloop
endfacet
facet normal -0.7933533402912342 0.6087614290087221 0.0
  outer loop
    vertex 27097.36361621075 12274.192799138207 10000.0
    vertex 26183.581536272875 11083.32880731556 7499.999999999999
    vertex 26183.581536272875 11083.32880731556 10000.0
  endloop
endfacet
facet normal -0.7933533402912342 0.6087614290087221 0.0
  outer loop
    vertex 26183.581536272875 11083.32880731556 7499.999999999999
    vertex 27097.36361621075 12274.192799138207 10000.0
    vertex 27097.36361621075 12274.192799138207 7499.999999999999
  endloop
endfacet
facet normal 0.13052619222005235 0.9914448613738105 -0.0
  outer loop
    vertex 31163.227608033398 13958.328807315558 2500.0
    vertex 32651.43711737289 13762.4023084777 0.0
    vertex 31163.227608033398 13958.328807315558 0.0
  endloop
endfacet
facet normal 0.13052619222005235 0.9914448613738105 -0.0
  outer loop
    vertex 32651.43711737289 13762.4023084777 0.0
    vertex 31163.227608033398 13958.328807315558 2500.0
    vertex 32651.43711737289 13762.4023084777 2500.0
  endloop
endfacet
facet normal -0.13052619222005185 -0.9914448613738105 0.0
  outer loop
    vertex 31163.227608033398 2458.328807315563 10000.0
    vertex 29675.018098693898 2654.2553061534213 7499.999999999999
    vertex 31163.227608033398 2458.328807315563 7499.999999999999
  endloop
endfacet
facet normal -0.13052619222005185 -0.9914448613738105 0.0
  outer loop
    vertex 29675.018098693898 2654.2553061534213 7499.999999999999
    vertex 31163.227608033398 2458.328807315563 10000.0
    vertex 29675.018098693898 2654.2553061534213 10000.0
  endloop
endfacet
facet normal -0.6087614290087212 -0.7933533402912347 0.0
  outer loop
    vertex 28288.227608033398 3228.682735555042 10000.0
    vertex 27097.36361621075 4142.464815492916 7499.999999999999
    vertex 28288.227608033398 3228.682735555042 7499.999999999999
  endloop
endfacet
facet normal -0.6087614290087212 -0.7933533402912347 0.0
  outer loop
    vertex 27097.36361621075 4142.464815492916 7499.999999999999
    vertex 28288.227608033398 3228.682735555042 10000.0
    vertex 27097.36361621075 4142.464815492916 10000.0
  endloop
endfacet
facet normal 0.9238795325112857 -0.3826834323650922 -0.0
  outer loop
    vertex 36717.301109195534 6720.119297976062 7499.999999999999
    vertex 36142.87367979391 5333.328807315559 10000.0
    vertex 36142.87367979391 5333.328807315559 7499.999999999999
  endloop
endfacet
facet normal 0.9238795325112857 -0.3826834323650922 -0.0
  outer loop
    vertex 36142.87367979391 5333.328807315559 10000.0
    vertex 36717.301109195534 6720.119297976062 7499.999999999999
    vertex 36717.301109195534 6720.119297976062 10000.0
  endloop
endfacet
facet normal -0.9914448613738107 -0.13052619222005057 0.0
  outer loop
    vertex 25413.2276080334 8208.32880731556 2500.0
    vertex 25609.154106871254 6720.119297976069 0.0
    vertex 25609.154106871254 6720.119297976069 2500.0
  endloop
endfacet
facet normal -0.9914448613738107 -0.13052619222005057 0.0
  outer loop
    vertex 25609.154106871254 6720.119297976069 0.0
    vertex 25413.2276080334 8208.32880731556 2500.0
    vertex 25413.2276080334 8208.32880731556 0.0
  endloop
endfacet
facet normal -0.9238795325112867 -0.3826834323650899 0.0
  outer loop
    vertex 25609.154106871254 6720.119297976069 2500.0
    vertex 26183.581536272875 5333.328807315564 0.0
    vertex 26183.581536272875 5333.328807315564 2500.0
  endloop
endfacet
facet normal -0.9238795325112867 -0.3826834323650899 0.0
  outer loop
    vertex 26183.581536272875 5333.328807315564 0.0
    vertex 25609.154106871254 6720.119297976069 2500.0
    vertex 25609.154106871254 6720.119297976069 0.0
  endloop
endfacet
facet normal -0.9914448613738107 -0.13052619222005057 0.0
  outer loop
    vertex 25413.2276080334 8208.32880731556 10000.0
    vertex 25609.154106871254 6720.119297976069 7499.999999999999
    vertex 25609.154106871254 6720.119297976069 10000.0
  endloop
endfacet
facet normal -0.9914448613738107 -0.13052619222005057 0.0
  outer loop
    vertex 25609.154106871254 6720.119297976069 7499.999999999999
    vertex 25413.2276080334 8208.32880731556 10000.0
    vertex 25413.2276080334 8208.32880731556 7499.999999999999
  endloop
endfacet
facet normal 0.6087614290087194 -0.793353340291236 0.0
  outer loop
    vertex 35229.091599856045 4142.464815492913 2500.0
    vertex 34038.22760803339 3228.6827355550386 0.0
    vertex 35229.091599856045 4142.464815492913 0.0
  endloop
endfacet
facet normal 0.6087614290087194 -0.793353340291236 0.0
  outer loop
    vertex 34038.22760803339 3228.6827355550386 0.0
    vertex 35229.091599856045 4142.464815492913 2500.0
    vertex 34038.22760803339 3228.6827355550386 2500.0
  endloop
endfacet
facet normal -0.9238795325112875 0.3826834323650884 0.0
  outer loop
    vertex 26183.581536272875 11083.32880731556 2500.0
    vertex 25609.154106871258 9696.538316655055 0.0
    vertex 25609.154106871258 9696.538316655055 2500.0
  endloop
endfacet
facet normal -0.9238795325112875 0.3826834323650884 0.0
  outer loop
    vertex 25609.154106871258 9696.538316655055 0.0
    vertex 26183.581536272875 11083.32880731556 2500.0
    vertex 26183.581536272875 11083.32880731556 0.0
  endloop
endfacet
facet normal 0.7933533402912362 -0.6087614290087197 -0.0
  outer loop
    vertex 36142.87367979391 5333.328807315559 0.0
    vertex 35229.091599856045 4142.464815492913 2500.0
    vertex 35229.091599856045 4142.464815492913 0.0
  endloop
endfacet
facet normal 0.7933533402912362 -0.6087614290087197 -0.0
  outer loop
    vertex 35229.091599856045 4142.464815492913 2500.0
    vertex 36142.87367979391 5333.328807315559 0.0
    vertex 36142.87367979391 5333.328807315559 2500.0
  endloop
endfacet
facet normal -0.7933533402912344 -0.6087614290087218 0.0
  outer loop
    vertex 26183.581536272875 5333.328807315564 2500.0
    vertex 27097.36361621075 4142.464815492916 0.0
    vertex 27097.36361621075 4142.464815492916 2500.0
  endloop
endfacet
facet normal -0.7933533402912344 -0.6087614290087218 0.0
  outer loop
    vertex 27097.36361621075 4142.464815492916 0.0
    vertex 26183.581536272875 5333.328807315564 2500.0
    vertex 26183.581536272875 5333.328807315564 0.0
  endloop
endfacet
facet normal 0.9238795325112875 0.3826834323650884 -0.0
  outer loop
    vertex 36142.87367979392 11083.32880731556 0.0
    vertex 36717.301109195534 9696.538316655055 2500.0
    vertex 36717.301109195534 9696.538316655055 0.0
  endloop
endfacet
facet normal 0.9238795325112875 0.3826834323650884 -0.0
  outer loop
    vertex 36717.301109195534 9696.538316655055 2500.0
    vertex 36142.87367979392 11083.32880731556 0.0
    vertex 36142.87367979392 11083.32880731556 2500.0
  endloop
endfacet
facet normal -0.1305261922200512 -0.9914448613738105 -0.0
  outer loop
    vertex 31163.22760803339 4958.328807315563 7499.999999999999
    vertex 30322.065711450206 5069.069871876098 2500.0
    vertex 31163.22760803339 4958.328807315563 2500.0
  endloop
endfacet
facet normal -0.1305261922200512 -0.9914448613738105 -0.0
  outer loop
    vertex 30322.065711450206 5069.069871876098 2500.0
    vertex 31163.22760803339 4958.328807315563 7499.999999999999
    vertex 30322.065711450206 5069.069871876098 7499.999999999999
  endloop
endfacet
facet normal 0.0 0.0 -1.0
  outer loop
    vertex 25609.154106871258 9696.538316655055 7499.999999999999
    vertex 25609.154106871254 6720.119297976069 7499.999999999999
    vertex 25413.2276080334 8208.32880731556 7499.999999999999
  endloop
endfacet
facet normal 0.0 0.0 -1.0
  outer loop
    vertex 25609.154106871254 6720.119297976069 7499.999999999999
    vertex 25609.154106871258 9696.538316655055 7499.999999999999
    vertex 26183.581536272875 5333.328807315564 7499.999999999999
  endloop
endfacet
facet normal 0.0 0.0 -1.0
  outer loop
    vertex 26183.581536272875 5333.328807315564 7499.999999999999
    vertex 25609.154106871258 9696.538316655055 7499.999999999999
    vertex 26183.581536272875 11083.32880731556 7499.999999999999
  endloop
endfacet
facet normal 0.0 0.0 -1.0
  outer loop
    vertex 26183.581536272875 5333.328807315564 7499.999999999999
    vertex 26183.581536272875 11083.32880731556 7499.999999999999
    vertex 27097.36361621075 12274.192799138207 7499.999999999999
  endloop
endfacet
facet normal 0.0 0.0 -1.0
  outer loop
    vertex 26183.581536272875 5333.328807315564 7499.999999999999
    vertex 27097.36361621075 12274.192799138207 7499.999999999999
    vertex 27097.36361621075 4142.464815492916 7499.999999999999
  endloop
endfacet
facet normal 0.0 0.0 -1.0
  outer loop
    vertex 27097.36361621075 4142.464815492916 7499.999999999999
    vertex 27097.36361621075 12274.192799138207 7499.999999999999
    vertex 28288.227608033398 13187.974879076082 7499.999999999999
  endloop
endfacet
facet normal 0.0 0.0 -1.0
  outer loop
    vertex 27097.36361621075 4142.464815492916 7499.999999999999
    vertex 28288.227608033398 13187.974879076082 7499.999999999999
    vertex 27913.22760803341 8208.32880731556 7499.999999999999
  endloop
endfacet
facet normal 0.0 0.0 -1.0
  outer loop
    vertex 27913.22760803341 8208.32880731556 7499.999999999999
    vertex 28288.227608033398 13187.974879076082 7499.999999999999
    vertex 28023.968672593935 9049.490703898748 7499.999999999999
  endloop
endfacet
facet normal 0.0 0.0 -1.0
  outer loop
    vertex 28023.968672593935 9049.490703898748 7499.999999999999
    vertex 28288.227608033398 13187.974879076082 7499.999999999999
    vertex 28348.64504573398 9833.328807315555 7499.999999999999
  endloop
endfacet
facet normal 0.0 0.0 -1.0
  outer loop
    vertex 28348.64504573398 9833.328807315555 7499.999999999999
    vertex 28288.227608033398 13187.974879076082 7499.999999999999
    vertex 29675.018098693905 13762.4023084777 7499.999999999999
  endloop
endfacet
facet normal 0.0 0.0 -1.0
  outer loop
    vertex 28348.64504573398 9833.328807315555 7499.999999999999
    vertex 29675.018098693905 13762.4023084777 7499.999999999999
    vertex 28865.130569177127 10506.425846171831 7499.999999999999
  endloop
endfacet
facet normal 0.0 0.0 -1.0
  outer loop
    vertex 28865.130569177127 10506.425846171831 7499.999999999999
    vertex 29675.018098693905 13762.4023084777 7499.999999999999
    vertex 29538.227608033405 11022.911369614978 7499.999999999999
  endloop
endfacet
facet normal 0.0 0.0 -1.0
  outer loop
    vertex 29538.227608033405 11022.911369614978 7499.999999999999
    vertex 29675.018098693905 13762.4023084777 7499.999999999999
    vertex 30322.065711450206 11347.587742755022 7499.999999999999
  endloop
endfacet
facet normal 0.0 0.0 -1.0
  outer loop
    vertex 30322.065711450206 11347.587742755022 7499.999999999999
    vertex 29675.018098693905 13762.4023084777 7499.999999999999
    vertex 31163.227608033398 13958.328807315558 7499.999999999999
  endloop
endfacet
facet normal 0.0 0.0 -1.0
  outer loop
    vertex 30322.065711450206 11347.587742755022 7499.999999999999
    vertex 31163.227608033398 13958.328807315558 7499.999999999999
    vertex 31163.227608033398 11458.32880731555 7499.999999999999
  endloop
endfacet
facet normal 0.0 0.0 -1.0
  outer loop
    vertex 31163.227608033398 11458.32880731555 7499.999999999999
    vertex 31163.227608033398 13958.328807315558 7499.999999999999
    vertex 32651.43711737289 13762.4023084777 7499.999999999999
  endloop
endfacet
facet normal 0.0 0.0 -1.0
  outer loop
    vertex 31163.227608033398 11458.32880731555 7499.999999999999
    vertex 32651.43711737289 13762.4023084777 7499.999999999999
    vertex 32004.38950461659 11347.587742755022 7499.999999999999
  endloop
endfacet
facet normal 0.0 0.0 -1.0
  outer loop
    vertex 32004.38950461659 11347.587742755022 7499.999999999999
    vertex 32651.43711737289 13762.4023084777 7499.999999999999
    vertex 32788.22760803338 11022.911369614982 7499.999999999999
  endloop
endfacet
facet normal 0.0 0.0 -1.0
  outer loop
    vertex 32788.22760803338 11022.911369614982 7499.999999999999
    vertex 32651.43711737289 13762.4023084777 7499.999999999999
    vertex 34038.2276080334 13187.974879076082 7499.999999999999
  endloop
endfacet
facet normal 0.0 0.0 -1.0
  outer loop
    vertex 32788.22760803338 11022.911369614982 7499.999999999999
    vertex 34038.2276080334 13187.974879076082 7499.999999999999
    vertex 33461.32464688967 10506.425846171833 7499.999999999999
  endloop
endfacet
facet normal 0.0 0.0 -1.0
  outer loop
    vertex 33461.32464688967 10506.425846171833 7499.999999999999
    vertex 34038.2276080334 13187.974879076082 7499.999999999999
    vertex 33977.810170332814 9833.328807315558 7499.999999999999
  endloop
endfacet
facet normal 0.0 0.0 -1.0
  outer loop
    vertex 33977.810170332814 9833.328807315558 7499.999999999999
    vertex 34038.2276080334 13187.974879076082 7499.999999999999
    vertex 34302.486543472856 9049.490703898751 7499.999999999999
  endloop
endfacet
facet normal 0.0 0.0 -1.0
  outer loop
    vertex 34302.486543472856 9049.490703898751 7499.999999999999
    vertex 34038.2276080334 13187.974879076082 7499.999999999999
    vertex 35229.091599856045 12274.192799138207 7499.999999999999
  endloop
endfacet
facet normal 0.0 0.0 -1.0
  outer loop
    vertex 34302.486543472856 9049.490703898751 7499.999999999999
    vertex 35229.091599856045 12274.192799138207 7499.999999999999
    vertex 34413.22760803338 8208.32880731556 7499.999999999999
  endloop
endfacet
facet normal 0.0 0.0 -1.0
  outer loop
    vertex 27913.22760803341 8208.32880731556 7499.999999999999
    vertex 28288.227608033398 3228.682735555042 7499.999999999999
    vertex 27097.36361621075 4142.464815492916 7499.999999999999
  endloop
endfacet
facet normal 0.0 0.0 -1.0
  outer loop
    vertex 28288.227608033398 3228.682735555042 7499.999999999999
    vertex 27913.22760803341 8208.32880731556 7499.999999999999
    vertex 28023.968672593935 7367.166910732371 7499.999999999999
  endloop
endfacet
facet normal 0.0 0.0 -1.0
  outer loop
    vertex 28288.227608033398 3228.682735555042 7499.999999999999
    vertex 28023.968672593935 7367.166910732371 7499.999999999999
    vertex 28348.64504573398 6583.328807315569 7499.999999999999
  endloop
endfacet
facet normal 0.0 0.0 -1.0
  outer loop
    vertex 28288.227608033398 3228.682735555042 7499.999999999999
    vertex 28348.64504573398 6583.328807315569 7499.999999999999
    vertex 29675.018098693898 2654.2553061534213 7499.999999999999
  endloop
endfacet
facet normal 0.0 0.0 -1.0
  outer loop
    vertex 29675.018098693898 2654.2553061534213 7499.999999999999
    vertex 28348.64504573398 6583.328807315569 7499.999999999999
    vertex 28865.130569177127 5910.231768459293 7499.999999999999
  endloop
endfacet
facet normal 0.0 0.0 -1.0
  outer loop
    vertex 29675.018098693898 2654.2553061534213 7499.999999999999
    vertex 28865.130569177127 5910.231768459293 7499.999999999999
    vertex 29538.22760803341 5393.746245016144 7499.999999999999
  endloop
endfacet
facet normal 0.0 0.0 -1.0
  outer loop
    vertex 29675.018098693898 2654.2553061534213 7499.999999999999
    vertex 29538.22760803341 5393.746245016144 7499.999999999999
    vertex 30322.065711450206 5069.069871876098 7499.999999999999
  endloop
endfacet
facet normal 0.0 0.0 -1.0
  outer loop
    vertex 29675.018098693898 2654.2553061534213 7499.999999999999
    vertex 30322.065711450206 5069.069871876098 7499.999999999999
    vertex 31163.227608033398 2458.328807315563 7499.999999999999
  endloop
endfacet
facet normal 0.0 0.0 -1.0
  outer loop
    vertex 31163.227608033398 2458.328807315563 7499.999999999999
    vertex 30322.065711450206 5069.069871876098 7499.999999999999
    vertex 31163.22760803339 4958.328807315563 7499.999999999999
  endloop
endfacet
facet normal 0.0 0.0 -1.0
  outer loop
    vertex 31163.227608033398 2458.328807315563 7499.999999999999
    vertex 31163.22760803339 4958.328807315563 7499.999999999999
    vertex 32004.38950461658 5069.0698718760905 7499.999999999999
  endloop
endfacet
facet normal 0.0 0.0 -1.0
  outer loop
    vertex 31163.227608033398 2458.328807315563 7499.999999999999
    vertex 32004.38950461658 5069.0698718760905 7499.999999999999
    vertex 32651.43711737289 2654.2553061534195 7499.999999999999
  endloop
endfacet
facet normal 0.0 0.0 -1.0
  outer loop
    vertex 32651.43711737289 2654.2553061534195 7499.999999999999
    vertex 32004.38950461658 5069.0698718760905 7499.999999999999
    vertex 32788.22760803339 5393.746245016139 7499.999999999999
  endloop
endfacet
facet normal 0.0 0.0 -1.0
  outer loop
    vertex 32651.43711737289 2654.2553061534195 7499.999999999999
    vertex 32788.22760803339 5393.746245016139 7499.999999999999
    vertex 34038.22760803339 3228.6827355550386 7499.999999999999
  endloop
endfacet
facet normal 0.0 0.0 -1.0
  outer loop
    vertex 34038.22760803339 3228.6827355550386 7499.999999999999
    vertex 32788.22760803339 5393.746245016139 7499.999999999999
    vertex 33461.32464688967 5910.231768459283 7499.999999999999
  endloop
endfacet
facet normal 0.0 0.0 -1.0
  outer loop
    vertex 34038.22760803339 3228.6827355550386 7499.999999999999
    vertex 33461.32464688967 5910.231768459283 7499.999999999999
    vertex 33977.810170332814 6583.328807315562 7499.999999999999
  endloop
endfacet
facet normal 0.0 0.0 -1.0
  outer loop
    vertex 34038.22760803339 3228.6827355550386 7499.999999999999
    vertex 33977.810170332814 6583.328807315562 7499.999999999999
    vertex 34302.486543472856 7367.1669107323705 7499.999999999999
  endloop
endfacet
facet normal 0.0 0.0 -1.0
  outer loop
    vertex 34038.22760803339 3228.6827355550386 7499.999999999999
    vertex 34302.486543472856 7367.1669107323705 7499.999999999999
    vertex 35229.091599856045 4142.464815492913 7499.999999999999
  endloop
endfacet
facet normal 0.0 0.0 -1.0
  outer loop
    vertex 35229.091599856045 4142.464815492913 7499.999999999999
    vertex 34302.486543472856 7367.1669107323705 7499.999999999999
    vertex 34413.22760803338 8208.32880731556 7499.999999999999
  endloop
endfacet
facet normal 0.0 0.0 -1.0
  outer loop
    vertex 35229.091599856045 4142.464815492913 7499.999999999999
    vertex 34413.22760803338 8208.32880731556 7499.999999999999
    vertex 35229.091599856045 12274.192799138207 7499.999999999999
  endloop
endfacet
facet normal 0.0 0.0 -1.0
  outer loop
    vertex 35229.091599856045 4142.464815492913 7499.999999999999
    vertex 35229.091599856045 12274.192799138207 7499.999999999999
    vertex 36142.87367979392 11083.32880731556 7499.999999999999
  endloop
endfacet
facet normal 0.0 0.0 -1.0
  outer loop
    vertex 35229.091599856045 4142.464815492913 7499.999999999999
    vertex 36142.87367979392 11083.32880731556 7499.999999999999
    vertex 36142.87367979391 5333.328807315559 7499.999999999999
  endloop
endfacet
facet normal 0.0 0.0 -1.0
  outer loop
    vertex 36142.87367979391 5333.328807315559 7499.999999999999
    vertex 36142.87367979392 11083.32880731556 7499.999999999999
    vertex 36717.301109195534 6720.119297976062 7499.999999999999
  endloop
endfacet
facet normal 0.0 0.0 -1.0
  outer loop
    vertex 36717.301109195534 6720.119297976062 7499.999999999999
    vertex 36142.87367979392 11083.32880731556 7499.999999999999
    vertex 36717.301109195534 9696.538316655055 7499.999999999999
  endloop
endfacet
facet normal 0.0 0.0 -1.0
  outer loop
    vertex 36717.301109195534 6720.119297976062 7499.999999999999
    vertex 36717.301109195534 9696.538316655055 7499.999999999999
    vertex 36913.2276080334 8208.32880731556 7499.999999999999
  endloop
endfacet
facet normal 0.9914448613738105 0.13052619222005235 -0.0
  outer loop
    vertex 36717.301109195534 9696.538316655055 7499.999999999999
    vertex 36913.2276080334 8208.32880731556 10000.0
    vertex 36913.2276080334 8208.32880731556 7499.999999999999
  endloop
endfacet
facet normal 0.9914448613738105 0.13052619222005235 -0.0
  outer loop
    vertex 36913.2276080334 8208.32880731556 10000.0
    vertex 36717.301109195534 9696.538316655055 7499.999999999999
    vertex 36717.301109195534 9696.538316655055 10000.0
  endloop
endfacet
facet normal 0.7933533402912344 0.6087614290087217 -0.0
  outer loop
    vertex 35229.091599856045 12274.192799138207 7499.999999999999
    vertex 36142.87367979392 11083.32880731556 10000.0
    vertex 36142.87367979392 11083.32880731556 7499.999999999999
  endloop
endfacet
facet normal 0.7933533402912344 0.6087614290087217 -0.0
  outer loop
    vertex 36142.87367979392 11083.32880731556 10000.0
    vertex 35229.091599856045 12274.192799138207 7499.999999999999
    vertex 35229.091599856045 12274.192799138207 10000.0
  endloop
endfacet
facet normal -0.9914448613738105 0.1305261922200522 0.0
  outer loop
    vertex 25609.154106871258 9696.538316655055 2500.0
    vertex 25413.2276080334 8208.32880731556 0.0
    vertex 25413.2276080334 8208.32880731556 2500.0
  endloop
endfacet
facet normal -0.9914448613738105 0.1305261922200522 0.0
  outer loop
    vertex 25413.2276080334 8208.32880731556 0.0
    vertex 25609.154106871258 9696.538316655055 2500.0
    vertex 25609.154106871258 9696.538316655055 0.0
  endloop
endfacet
facet normal 0.1305261922200509 -0.9914448613738105 0.0
  outer loop
    vertex 32651.43711737289 2654.2553061534195 2500.0
    vertex 31163.227608033398 2458.328807315563 0.0
    vertex 32651.43711737289 2654.2553061534195 0.0
  endloop
endfacet
facet normal 0.1305261922200509 -0.9914448613738105 0.0
  outer loop
    vertex 31163.227608033398 2458.328807315563 0.0
    vertex 32651.43711737289 2654.2553061534195 2500.0
    vertex 31163.227608033398 2458.328807315563 2500.0
  endloop
endfacet
facet normal -0.13052619222005235 0.9914448613738105 -0.0
  outer loop
    vertex 29675.018098693905 13762.4023084777 10000.0
    vertex 31163.227608033398 13958.328807315558 7499.999999999999
    vertex 29675.018098693905 13762.4023084777 7499.999999999999
  endloop
endfacet
facet normal -0.13052619222005235 0.9914448613738105 -0.0
  outer loop
    vertex 31163.227608033398 13958.328807315558 7499.999999999999
    vertex 29675.018098693905 13762.4023084777 10000.0
    vertex 31163.227608033398 13958.328807315558 10000.0
  endloop
endfacet
facet normal 0.1305261922200509 -0.9914448613738105 0.0
  outer loop
    vertex 32651.43711737289 2654.2553061534195 10000.0
    vertex 31163.227608033398 2458.328807315563 7499.999999999999
    vertex 32651.43711737289 2654.2553061534195 7499.999999999999
  endloop
endfacet
facet normal 0.1305261922200509 -0.9914448613738105 0.0
  outer loop
    vertex 31163.227608033398 2458.328807315563 7499.999999999999
    vertex 32651.43711737289 2654.2553061534195 10000.0
    vertex 31163.227608033398 2458.328807315563 10000.0
  endloop
endfacet
facet normal -0.9914448613738105 0.1305261922200522 0.0
  outer loop
    vertex 25609.154106871258 9696.538316655055 10000.0
    vertex 25413.2276080334 8208.32880731556 7499.999999999999
    vertex 25413.2276080334 8208.32880731556 10000.0
  endloop
endfacet
facet normal -0.9914448613738105 0.1305261922200522 0.0
  outer loop
    vertex 25413.2276080334 8208.32880731556 7499.999999999999
    vertex 25609.154106871258 9696.538316655055 10000.0
    vertex 25609.154106871258 9696.538316655055 7499.999999999999
  endloop
endfacet
facet normal -7.881377658239483e-33 -2.8241603275358145e-32 1.0
  outer loop
    vertex 25609.154106871254 6720.119297976069 2500.0
    vertex 25609.154106871258 9696.538316655055 2500.0
    vertex 25413.2276080334 8208.32880731556 2500.0
  endloop
endfacet
facet normal -7.881377658239483e-33 -2.8241603275358145e-32 1.0
  outer loop
    vertex 25609.154106871258 9696.538316655055 2500.0
    vertex 25609.154106871254 6720.119297976069 2500.0
    vertex 26183.581536272875 5333.328807315564 2500.0
  endloop
endfacet
facet normal -7.881377658239483e-33 -2.8241603275358145e-32 1.0
  outer loop
    vertex 25609.154106871258 9696.538316655055 2500.0
    vertex 26183.581536272875 5333.328807315564 2500.0
    vertex 26183.581536272875 11083.32880731556 2500.0
  endloop
endfacet
facet normal -7.881377658239483e-33 -2.8241603275358145e-32 1.0
  outer loop
    vertex 26183.581536272875 11083.32880731556 2500.0
    vertex 26183.581536272875 5333.328807315564 2500.0
    vertex 27097.36361621075 4142.464815492916 2500.0
  endloop
endfacet
facet normal -7.881377658239483e-33 -2.8241603275358145e-32 1.0
  outer loop
    vertex 26183.581536272875 11083.32880731556 2500.0
    vertex 27097.36361621075 4142.464815492916 2500.0
    vertex 27097.36361621075 12274.192799138207 2500.0
  endloop
endfacet
facet normal -7.881377658239483e-33 -2.8241603275358145e-32 1.0
  outer loop
    vertex 27097.36361621075 12274.192799138207 2500.0
    vertex 27097.36361621075 4142.464815492916 2500.0
    vertex 28288.227608033398 3228.682735555042 2500.0
  endloop
endfacet
facet normal -7.881377658239483e-33 -2.8241603275358145e-32 1.0
  outer loop
    vertex 27097.36361621075 12274.192799138207 2500.0
    vertex 28288.227608033398 3228.682735555042 2500.0
    vertex 27913.22760803341 8208.32880731556 2500.0
  endloop
endfacet
facet normal -7.881377658239483e-33 -2.8241603275358145e-32 1.0
  outer loop
    vertex 27913.22760803341 8208.32880731556 2500.0
    vertex 28288.227608033398 3228.682735555042 2500.0
    vertex 28023.968672593935 7367.166910732371 2500.0
  endloop
endfacet
facet normal -7.881377658239483e-33 -2.8241603275358145e-32 1.0
  outer loop
    vertex 28023.968672593935 7367.166910732371 2500.0
    vertex 28288.227608033398 3228.682735555042 2500.0
    vertex 28348.64504573398 6583.328807315569 2500.0
  endloop
endfacet
facet normal -7.881377658239483e-33 -2.8241603275358145e-32 1.0
  outer loop
    vertex 28348.64504573398 6583.328807315569 2500.0
    vertex 28288.227608033398 3228.682735555042 2500.0
    vertex 29675.018098693898 2654.2553061534213 2500.0
  endloop
endfacet
facet normal -7.881377658239483e-33 -2.8241603275358145e-32 1.0
  outer loop
    vertex 28348.64504573398 6583.328807315569 2500.0
    vertex 29675.018098693898 2654.2553061534213 2500.0
    vertex 28865.130569177127 5910.231768459293 2500.0
  endloop
endfacet
facet normal -7.881377658239483e-33 -2.8241603275358145e-32 1.0
  outer loop
    vertex 28865.130569177127 5910.231768459293 2500.0
    vertex 29675.018098693898 2654.2553061534213 2500.0
    vertex 29538.22760803341 5393.746245016144 2500.0
  endloop
endfacet
facet normal -7.881377658239483e-33 -2.8241603275358145e-32 1.0
  outer loop
    vertex 29538.22760803341 5393.746245016144 2500.0
    vertex 29675.018098693898 2654.2553061534213 2500.0
    vertex 30322.065711450206 5069.069871876098 2500.0
  endloop
endfacet
facet normal -7.881377658239483e-33 -2.8241603275358145e-32 1.0
  outer loop
    vertex 30322.065711450206 5069.069871876098 2500.0
    vertex 29675.018098693898 2654.2553061534213 2500.0
    vertex 31163.227608033398 2458.328807315563 2500.0
  endloop
endfacet
facet normal -7.881377658239483e-33 -2.8241603275358145e-32 1.0
  outer loop
    vertex 30322.065711450206 5069.069871876098 2500.0
    vertex 31163.227608033398 2458.328807315563 2500.0
    vertex 31163.22760803339 4958.328807315563 2500.0
  endloop
endfacet
facet normal -7.881377658239483e-33 -2.8241603275358145e-32 1.0
  outer loop
    vertex 31163.22760803339 4958.328807315563 2500.0
    vertex 31163.227608033398 2458.328807315563 2500.0
    vertex 32004.38950461658 5069.0698718760905 2500.0
  endloop
endfacet
facet normal -7.881377658239483e-33 -2.8241603275358145e-32 1.0
  outer loop
    vertex 32004.38950461658 5069.0698718760905 2500.0
    vertex 31163.227608033398 2458.328807315563 2500.0
    vertex 32651.43711737289 2654.2553061534195 2500.0
  endloop
endfacet
facet normal -7.881377658239483e-33 -2.8241603275358145e-32 1.0
  outer loop
    vertex 32004.38950461658 5069.0698718760905 2500.0
    vertex 32651.43711737289 2654.2553061534195 2500.0
    vertex 32788.22760803339 5393.746245016139 2500.0
  endloop
endfacet
facet normal -7.881377658239483e-33 -2.8241603275358145e-32 1.0
  outer loop
    vertex 32788.22760803339 5393.746245016139 2500.0
    vertex 32651.43711737289 2654.2553061534195 2500.0
    vertex 34038.22760803339 3228.6827355550386 2500.0
  endloop
endfacet
facet normal -7.881377658239483e-33 -2.8241603275358145e-32 1.0
  outer loop
    vertex 32788.22760803339 5393.746245016139 2500.0
    vertex 34038.22760803339 3228.6827355550386 2500.0
    vertex 33461.32464688967 5910.231768459283 2500.0
  endloop
endfacet
facet normal -7.881377658239483e-33 -2.8241603275358145e-32 1.0
  outer loop
    vertex 33461.32464688967 5910.231768459283 2500.0
    vertex 34038.22760803339 3228.6827355550386 2500.0
    vertex 33977.810170332814 6583.328807315562 2500.0
  endloop
endfacet
facet normal -7.881377658239483e-33 -2.8241603275358145e-32 1.0
  outer loop
    vertex 33977.810170332814 6583.328807315562 2500.0
    vertex 34038.22760803339 3228.6827355550386 2500.0
    vertex 34302.486543472856 7367.1669107323705 2500.0
  endloop
endfacet
facet normal -7.881377658239483e-33 -2.8241603275358145e-32 1.0
  outer loop
    vertex 34302.486543472856 7367.1669107323705 2500.0
    vertex 34038.22760803339 3228.6827355550386 2500.0
    vertex 35229.091599856045 4142.464815492913 2500.0
  endloop
endfacet
facet normal -7.881377658239483e-33 -2.8241603275358145e-32 1.0
  outer loop
    vertex 34302.486543472856 7367.1669107323705 2500.0
    vertex 35229.091599856045 4142.464815492913 2500.0
    vertex 34413.22760803338 8208.32880731556 2500.0
  endloop
endfacet
facet normal -7.881377658239483e-33 -2.8241603275358145e-32 1.0
  outer loop
    vertex 27913.22760803341 8208.32880731556 2500.0
    vertex 28288.227608033398 13187.974879076082 2500.0
    vertex 27097.36361621075 12274.192799138207 2500.0
  endloop
endfacet
facet normal -7.881377658239483e-33 -2.8241603275358145e-32 1.0
  outer loop
    vertex 28288.227608033398 13187.974879076082 2500.0
    vertex 27913.22760803341 8208.32880731556 2500.0
    vertex 28023.968672593935 9049.490703898748 2500.0
  endloop
endfacet
facet normal -7.881377658239483e-33 -2.8241603275358145e-32 1.0
  outer loop
    vertex 28288.227608033398 13187.974879076082 2500.0
    vertex 28023.968672593935 9049.490703898748 2500.0
    vertex 28348.64504573398 9833.328807315555 2500.0
  endloop
endfacet
facet normal -7.881377658239483e-33 -2.8241603275358145e-32 1.0
  outer loop
    vertex 28288.227608033398 13187.974879076082 2500.0
    vertex 28348.64504573398 9833.328807315555 2500.0
    vertex 29675.018098693905 13762.4023084777 2500.0
  endloop
endfacet
facet normal -7.881377658239483e-33 -2.8241603275358145e-32 1.0
  outer loop
    vertex 29675.018098693905 13762.4023084777 2500.0
    vertex 28348.64504573398 9833.328807315555 2500.0
    vertex 28865.130569177127 10506.425846171831 2500.0
  endloop
endfacet
facet normal -7.881377658239483e-33 -2.8241603275358145e-32 1.0
  outer loop
    vertex 29675.018098693905 13762.4023084777 2500.0
    vertex 28865.130569177127 10506.425846171831 2500.0
    vertex 29538.227608033405 11022.911369614978 2500.0
  endloop
endfacet
facet normal -7.881377658239483e-33 -2.8241603275358145e-32 1.0
  outer loop
    vertex 29675.018098693905 13762.4023084777 2500.0
    vertex 29538.227608033405 11022.911369614978 2500.0
    vertex 30322.065711450206 11347.587742755022 2500.0
  endloop
endfacet
facet normal -7.881377658239483e-33 -2.8241603275358145e-32 1.0
  outer loop
    vertex 29675.018098693905 13762.4023084777 2500.0
    vertex 30322.065711450206 11347.587742755022 2500.0
    vertex 31163.227608033398 13958.328807315558 2500.0
  endloop
endfacet
facet normal -7.881377658239483e-33 -2.8241603275358145e-32 1.0
  outer loop
    vertex 31163.227608033398 13958.328807315558 2500.0
    vertex 30322.065711450206 11347.587742755022 2500.0
    vertex 31163.227608033398 11458.32880731555 2500.0
  endloop
endfacet
facet normal -7.881377658239483e-33 -2.8241603275358145e-32 1.0
  outer loop
    vertex 31163.227608033398 13958.328807315558 2500.0
    vertex 31163.227608033398 11458.32880731555 2500.0
    vertex 32004.38950461659 11347.587742755022 2500.0
  endloop
endfacet
facet normal -7.881377658239483e-33 -2.8241603275358145e-32 1.0
  outer loop
    vertex 31163.227608033398 13958.328807315558 2500.0
    vertex 32004.38950461659 11347.587742755022 2500.0
    vertex 32651.43711737289 13762.4023084777 2500.0
  endloop
endfacet
facet normal -7.881377658239483e-33 -2.8241603275358145e-32 1.0
  outer loop
    vertex 32651.43711737289 13762.4023084777 2500.0
    vertex 32004.38950461659 11347.587742755022 2500.0
    vertex 32788.22760803338 11022.911369614982 2500.0
  endloop
endfacet
facet normal -7.881377658239483e-33 -2.8241603275358145e-32 1.0
  outer loop
    vertex 32651.43711737289 13762.4023084777 2500.0
    vertex 32788.22760803338 11022.911369614982 2500.0
    vertex 34038.2276080334 13187.974879076082 2500.0
  endloop
endfacet
facet normal -7.881377658239483e-33 -2.8241603275358145e-32 1.0
  outer loop
    vertex 34038.2276080334 13187.974879076082 2500.0
    vertex 32788.22760803338 11022.911369614982 2500.0
    vertex 33461.32464688967 10506.425846171833 2500.0
  endloop
endfacet
facet normal -7.881377658239483e-33 -2.8241603275358145e-32 1.0
  outer loop
    vertex 34038.2276080334 13187.974879076082 2500.0
    vertex 33461.32464688967 10506.425846171833 2500.0
    vertex 33977.810170332814 9833.328807315558 2500.0
  endloop
endfacet
facet normal -7.881377658239483e-33 -2.8241603275358145e-32 1.0
  outer loop
    vertex 34038.2276080334 13187.974879076082 2500.0
    vertex 33977.810170332814 9833.328807315558 2500.0
    vertex 34302.486543472856 9049.490703898751 2500.0
  endloop
endfacet
facet normal -7.881377658239483e-33 -2.8241603275358145e-32 1.0
  outer loop
    vertex 34038.2276080334 13187.974879076082 2500.0
    vertex 34302.486543472856 9049.490703898751 2500.0
    vertex 35229.091599856045 12274.192799138207 2500.0
  endloop
endfacet
facet normal -7.881377658239483e-33 -2.8241603275358145e-32 1.0
  outer loop
    vertex 35229.091599856045 12274.192799138207 2500.0
    vertex 34302.486543472856 9049.490703898751 2500.0
    vertex 34413.22760803338 8208.32880731556 2500.0
  endloop
endfacet
facet normal -7.881377658239483e-33 -2.8241603275358145e-32 1.0
  outer loop
    vertex 35229.091599856045 12274.192799138207 2500.0
    vertex 34413.22760803338 8208.32880731556 2500.0
    vertex 35229.091599856045 4142.464815492913 2500.0
  endloop
endfacet
facet normal -7.881377658239483e-33 -2.8241603275358145e-32 1.0
  outer loop
    vertex 35229.091599856045 12274.192799138207 2500.0
    vertex 35229.091599856045 4142.464815492913 2500.0
    vertex 36142.87367979391 5333.328807315559 2500.0
  endloop
endfacet
facet normal -7.881377658239483e-33 -2.8241603275358145e-32 1.0
  outer loop
    vertex 35229.091599856045 12274.192799138207 2500.0
    vertex 36142.87367979391 5333.328807315559 2500.0
    vertex 36142.87367979392 11083.32880731556 2500.0
  endloop
endfacet
facet normal -7.881377658239483e-33 -2.8241603275358145e-32 1.0
  outer loop
    vertex 36142.87367979392 11083.32880731556 2500.0
    vertex 36142.87367979391 5333.328807315559 2500.0
    vertex 36717.301109195534 6720.119297976062 2500.0
  endloop
endfacet
facet normal -7.881377658239483e-33 -2.8241603275358145e-32 1.0
  outer loop
    vertex 36142.87367979392 11083.32880731556 2500.0
    vertex 36717.301109195534 6720.119297976062 2500.0
    vertex 36717.301109195534 9696.538316655055 2500.0
  endloop
endfacet
facet normal -7.881377658239483e-33 -2.8241603275358145e-32 1.0
  outer loop
    vertex 36717.301109195534 9696.538316655055 2500.0
    vertex 36717.301109195534 6720.119297976062 2500.0
    vertex 36913.2276080334 8208.32880731556 2500.0
  endloop
endfacet
facet normal 0.9914448613738105 0.13052619222005235 -0.0
  outer loop
    vertex 36717.301109195534 9696.538316655055 0.0
    vertex 36913.2276080334 8208.32880731556 2500.0
    vertex 36913.2276080334 8208.32880731556 0.0
  endloop
endfacet
facet normal 0.9914448613738105 0.13052619222005235 -0.0
  outer loop
    vertex 36913.2276080334 8208.32880731556 2500.0
    vertex 36717.301109195534 9696.538316655055 0.0
    vertex 36717.301109195534 9696.538316655055 2500.0
  endloop
endfacet
facet normal 0.6087614290087215 0.7933533402912345 -0.0
  outer loop
    vertex 34038.2276080334 13187.974879076082 10000.0
    vertex 35229.091599856045 12274.192799138207 7499.999999999999
    vertex 34038.2276080334 13187.974879076082 7499.999999999999
  endloop
endfacet
facet normal 0.6087614290087215 0.7933533402912345 -0.0
  outer loop
    vertex 35229.091599856045 12274.192799138207 7499.999999999999
    vertex 34038.2276080334 13187.974879076082 10000.0
    vertex 35229.091599856045 12274.192799138207 10000.0
  endloop
endfacet
facet normal -0.38268343236509234 -0.9238795325112857 -0.0
  outer loop
    vertex 30322.065711450206 5069.069871876098 7499.999999999999
    vertex 29538.22760803341 5393.746245016144 2500.0
    vertex 30322.065711450206 5069.069871876098 2500.0
  endloop
endfacet
facet normal -0.38268343236509234 -0.9238795325112857 -0.0
  outer loop
    vertex 29538.22760803341 5393.746245016144 2500.0
    vertex 30322.065711450206 5069.069871876098 7499.999999999999
    vertex 29538.22760803341 5393.746245016144 7499.999999999999
  endloop
endfacet
facet normal -0.38268343236508834 0.9238795325112875 -0.0
  outer loop
    vertex 28288.227608033398 13187.974879076082 2500.0
    vertex 29675.018098693905 13762.4023084777 0.0
    vertex 28288.227608033398 13187.974879076082 0.0
  endloop
endfacet
facet normal -0.38268343236508834 0.9238795325112875 -0.0
  outer loop
    vertex 29675.018098693905 13762.4023084777 0.0
    vertex 28288.227608033398 13187.974879076082 2500.0
    vertex 29675.018098693905 13762.4023084777 2500.0
  endloop
endfacet
facet normal -0.13052619222005235 0.9914448613738105 -0.0
  outer loop
    vertex 29675.018098693905 13762.4023084777 2500.0
    vertex 31163.227608033398 13958.328807315558 0.0
    vertex 29675.018098693905 13762.4023084777 0.0
  endloop
endfacet
facet normal -0.13052619222005235 0.9914448613738105 -0.0
  outer loop
    vertex 31163.227608033398 13958.328807315558 0.0
    vertex 29675.018098693905 13762.4023084777 2500.0
    vertex 31163.227608033398 13958.328807315558 2500.0
  endloop
endfacet
facet normal -0.38268343236508834 0.9238795325112875 -0.0
  outer loop
    vertex 28288.227608033398 13187.974879076082 10000.0
    vertex 29675.018098693905 13762.4023084777 7499.999999999999
    vertex 28288.227608033398 13187.974879076082 7499.999999999999
  endloop
endfacet
facet normal -0.38268343236508834 0.9238795325112875 -0.0
  outer loop
    vertex 29675.018098693905 13762.4023084777 7499.999999999999
    vertex 28288.227608033398 13187.974879076082 10000.0
    vertex 29675.018098693905 13762.4023084777 10000.0
  endloop
endfacet
facet normal 0.6087614290087215 0.7933533402912345 -0.0
  outer loop
    vertex 34038.2276080334 13187.974879076082 2500.0
    vertex 35229.091599856045 12274.192799138207 0.0
    vertex 34038.2276080334 13187.974879076082 0.0
  endloop
endfacet
facet normal 0.6087614290087215 0.7933533402912345 -0.0
  outer loop
    vertex 35229.091599856045 12274.192799138207 0.0
    vertex 34038.2276080334 13187.974879076082 2500.0
    vertex 35229.091599856045 12274.192799138207 2500.0
  endloop
endfacet
facet normal 0.7933533402912344 0.6087614290087217 -0.0
  outer loop
    vertex 35229.091599856045 12274.192799138207 0.0
    vertex 36142.87367979392 11083.32880731556 2500.0
    vertex 36142.87367979392 11083.32880731556 0.0
  endloop
endfacet
facet normal 0.7933533402912344 0.6087614290087217 -0.0
  outer loop
    vertex 36142.87367979392 11083.32880731556 2500.0
    vertex 35229.091599856045 12274.192799138207 0.0
    vertex 35229.091599856045 12274.192799138207 2500.0
  endloop
endfacet
endsolid FTC V-Bearing  (1)
