solid FunnelAndHolder
facet normal -1.6919798895287378e-15 2.4494045459191335e-41 1.0
  outer loop
    vertex 776.8657032481306 1757.2116584257299 -26.88289440614885
    vertex 736.8657032481306 1758.71165842573 -26.882894406148917
    vertex 736.8657032481306 1757.2116584257299 -26.882894406148917
  endloop
endfacet
facet normal -1.6919798895287378e-15 2.4494045459191335e-41 1.0
  outer loop
    vertex 736.8657032481306 1758.71165842573 -26.882894406148917
    vertex 776.8657032481306 1757.2116584257299 -26.88289440614885
    vertex 776.8657032481306 1758.71165842573 -26.88289440614885
  endloop
endfacet
facet normal 0.0 -1.0 0.0
  outer loop
    vertex 736.8657032481306 1757.2116584257299 -29.432894406148915
    vertex 736.8657032481306 1757.2116584257299 -30.88289440614891
    vertex 776.8657032481306 1757.2116584257299 -30.88289440614885
  endloop
endfacet
facet normal 0.0 -1.0 0.0
  outer loop
    vertex 776.8657032481306 1757.2116584257299 -26.88289440614885
    vertex 736.8657032481306 1757.2116584257299 -26.882894406148917
    vertex 776.8657032481306 1757.2116584257299 -28.33289440614885
  endloop
endfacet
facet normal -1.4804824033376456e-15 -9.399888275159535e-16 1.0
  outer loop
    vertex 776.8657032481306 1754.2116584257299 -28.33289440614885
    vertex 736.8657032481306 1757.2116584257299 -28.332894406148906
    vertex 736.8657032481306 1754.2116584257299 -28.33289440614891
  endloop
endfacet
facet normal -1.4804824033376456e-15 -9.399888275159535e-16 1.0
  outer loop
    vertex 736.8657032481306 1757.2116584257299 -28.332894406148906
    vertex 776.8657032481306 1754.2116584257299 -28.33289440614885
    vertex 776.8657032481306 1757.2116584257299 -28.33289440614885
  endloop
endfacet
facet normal 1.0 -0.0 -0.0
  outer loop
    vertex 776.8657032481306 1757.2116584257299 -29.432894406148858
    vertex 776.8657032481306 1754.2116584257299 -28.33289440614885
    vertex 776.8657032481306 1754.2116584257299 -29.432894406148918
  endloop
endfacet
facet normal 1.0 -0.0 -0.0
  outer loop
    vertex 776.8657032481306 1754.2116584257299 -28.33289440614885
    vertex 776.8657032481306 1757.2116584257299 -29.432894406148858
    vertex 776.8657032481306 1757.2116584257299 -28.33289440614885
  endloop
endfacet
facet normal 0.0 -1.0 0.0
  outer loop
    vertex 736.8657032481306 1757.2116584257299 -26.882894406148917
    vertex 736.8657032481306 1757.2116584257299 -28.332894406148906
    vertex 776.8657032481306 1757.2116584257299 -28.33289440614885
  endloop
endfacet
facet normal -1.0 0.0 0.0
  outer loop
    vertex 736.8657032481306 1758.71165842573 -26.882894406148917
    vertex 736.8657032481306 1757.2116584257299 -28.332894406148906
    vertex 736.8657032481306 1757.2116584257299 -26.882894406148917
  endloop
endfacet
facet normal -1.0 0.0 0.0
  outer loop
    vertex 736.8657032481306 1757.2116584257299 -28.332894406148906
    vertex 736.8657032481306 1758.71165842573 -26.882894406148917
    vertex 736.8657032481306 1757.2116584257299 -29.432894406148915
  endloop
endfacet
facet normal -1.0 0.0 0.0
  outer loop
    vertex 736.8657032481306 1757.2116584257299 -29.432894406148915
    vertex 736.8657032481306 1758.71165842573 -26.882894406148917
    vertex 736.8657032481306 1757.2116584257299 -30.88289440614891
  endloop
endfacet
facet normal -1.0 0.0 0.0
  outer loop
    vertex 736.8657032481306 1757.2116584257299 -30.88289440614891
    vertex 736.8657032481306 1758.71165842573 -26.882894406148917
    vertex 736.8657032481306 1758.71165842573 -30.88289440614891
  endloop
endfacet
facet normal -1.0 0.0 0.0
  outer loop
    vertex 736.8657032481306 1757.2116584257299 -28.332894406148906
    vertex 736.8657032481306 1754.2116584257299 -29.432894406148975
    vertex 736.8657032481306 1754.2116584257299 -28.33289440614891
  endloop
endfacet
facet normal -1.0 0.0 0.0
  outer loop
    vertex 736.8657032481306 1754.2116584257299 -29.432894406148975
    vertex 736.8657032481306 1757.2116584257299 -28.332894406148906
    vertex 736.8657032481306 1757.2116584257299 -29.432894406148915
  endloop
endfacet
facet normal 0.0 -1.0 0.0
  outer loop
    vertex 776.8657032481306 1692.2116584257299 -28.332894406148803
    vertex 736.8657032481306 1692.2116584257299 -28.332894406148867
    vertex 776.8657032481306 1692.2116584257299 -29.43289440614881
  endloop
endfacet
facet normal 1.0 -0.0 -0.0
  outer loop
    vertex 776.8657032481306 1754.2116584257299 -29.432894406148918
    vertex 776.8657032481306 1692.2116584257299 -28.332894406148803
    vertex 776.8657032481306 1692.2116584257299 -29.43289440614881
  endloop
endfacet
facet normal 1.0 -0.0 -0.0
  outer loop
    vertex 776.8657032481306 1692.2116584257299 -28.332894406148803
    vertex 776.8657032481306 1754.2116584257299 -29.432894406148918
    vertex 776.8657032481306 1754.2116584257299 -28.33289440614885
  endloop
endfacet
facet normal -0.0 1.0 -0.0
  outer loop
    vertex 736.8657032481306 1758.71165842573 -26.882894406148917
    vertex 776.8657032481306 1758.71165842573 -30.88289440614885
    vertex 736.8657032481306 1758.71165842573 -30.88289440614891
  endloop
endfacet
facet normal -0.0 1.0 -0.0
  outer loop
    vertex 776.8657032481306 1758.71165842573 -30.88289440614885
    vertex 736.8657032481306 1758.71165842573 -26.882894406148917
    vertex 776.8657032481306 1758.71165842573 -26.88289440614885
  endloop
endfacet
facet normal 1.550981565401343e-15 -7.277332858188126e-16 -1.0
  outer loop
    vertex 736.8657032481306 1754.2116584257299 -32.33289440614891
    vertex 746.8657032481306 1744.21165842573 -32.33289440614889
    vertex 736.8657032481306 1692.2116584257299 -32.33289440614887
  endloop
endfacet
facet normal 1.550981565401343e-15 -7.277332858188126e-16 -1.0
  outer loop
    vertex 746.8657032481306 1744.21165842573 -32.33289440614889
    vertex 736.8657032481306 1754.2116584257299 -32.33289440614891
    vertex 776.8657032481306 1754.2116584257299 -32.332894406148846
  endloop
endfacet
facet normal 1.550981565401343e-15 -7.277332858188126e-16 -1.0
  outer loop
    vertex 746.8657032481306 1744.21165842573 -32.33289440614889
    vertex 776.8657032481306 1754.2116584257299 -32.332894406148846
    vertex 766.8657032481306 1744.21165842573 -32.33289440614886
  endloop
endfacet
facet normal 1.550981565401343e-15 -7.277332858188126e-16 -1.0
  outer loop
    vertex 766.8657032481306 1744.21165842573 -32.33289440614886
    vertex 776.8657032481306 1754.2116584257299 -32.332894406148846
    vertex 766.8657032481306 1702.2116584257299 -32.332894406148824
  endloop
endfacet
facet normal 1.550981565401343e-15 -7.277332858188126e-16 -1.0
  outer loop
    vertex 736.8657032481306 1692.2116584257299 -32.33289440614887
    vertex 746.8657032481306 1702.2116584257299 -32.33289440614885
    vertex 776.8657032481306 1692.2116584257299 -32.3328944061488
  endloop
endfacet
facet normal 1.550981565401343e-15 -7.277332858188126e-16 -1.0
  outer loop
    vertex 746.8657032481306 1702.2116584257299 -32.33289440614885
    vertex 736.8657032481306 1692.2116584257299 -32.33289440614887
    vertex 746.8657032481306 1744.21165842573 -32.33289440614889
  endloop
endfacet
facet normal 1.550981565401343e-15 -7.277332858188126e-16 -1.0
  outer loop
    vertex 776.8657032481306 1692.2116584257299 -32.3328944061488
    vertex 746.8657032481306 1702.2116584257299 -32.33289440614885
    vertex 766.8657032481306 1702.2116584257299 -32.332894406148824
  endloop
endfacet
facet normal 1.550981565401343e-15 -7.277332858188126e-16 -1.0
  outer loop
    vertex 776.8657032481306 1692.2116584257299 -32.3328944061488
    vertex 766.8657032481306 1702.2116584257299 -32.332894406148824
    vertex 776.8657032481306 1754.2116584257299 -32.332894406148846
  endloop
endfacet
facet normal 0.0 -1.0 0.0
  outer loop
    vertex 776.8657032481306 1757.2116584257299 -29.432894406148858
    vertex 736.8657032481306 1757.2116584257299 -29.432894406148915
    vertex 776.8657032481306 1757.2116584257299 -30.88289440614885
  endloop
endfacet
facet normal 1.0 -0.0 -0.0
  outer loop
    vertex 776.8657032481306 1758.71165842573 -30.88289440614885
    vertex 776.8657032481306 1757.2116584257299 -29.432894406148858
    vertex 776.8657032481306 1757.2116584257299 -30.88289440614885
  endloop
endfacet
facet normal 1.0 -0.0 -0.0
  outer loop
    vertex 776.8657032481306 1757.2116584257299 -29.432894406148858
    vertex 776.8657032481306 1758.71165842573 -30.88289440614885
    vertex 776.8657032481306 1757.2116584257299 -28.33289440614885
  endloop
endfacet
facet normal 1.0 -0.0 -0.0
  outer loop
    vertex 776.8657032481306 1757.2116584257299 -28.33289440614885
    vertex 776.8657032481306 1758.71165842573 -30.88289440614885
    vertex 776.8657032481306 1757.2116584257299 -26.88289440614885
  endloop
endfacet
facet normal 1.0 -0.0 -0.0
  outer loop
    vertex 776.8657032481306 1757.2116584257299 -26.88289440614885
    vertex 776.8657032481306 1758.71165842573 -30.88289440614885
    vertex 776.8657032481306 1758.71165842573 -26.88289440614885
  endloop
endfacet
facet normal 1.550981565401343e-15 -2.2452875004258723e-41 -1.0
  outer loop
    vertex 776.8657032481306 1758.71165842573 -30.88289440614885
    vertex 736.8657032481306 1757.2116584257299 -30.88289440614891
    vertex 736.8657032481306 1758.71165842573 -30.88289440614891
  endloop
endfacet
facet normal 1.550981565401343e-15 -2.2452875004258723e-41 -1.0
  outer loop
    vertex 736.8657032481306 1757.2116584257299 -30.88289440614891
    vertex 776.8657032481306 1758.71165842573 -30.88289440614885
    vertex 776.8657032481306 1757.2116584257299 -30.88289440614885
  endloop
endfacet
facet normal 1.4099832412739483e-15 2.0679754205350976e-14 -1.0
  outer loop
    vertex 776.8657032481306 1757.2116584257299 -29.432894406148858
    vertex 736.8657032481306 1754.2116584257299 -29.432894406148975
    vertex 736.8657032481306 1757.2116584257299 -29.432894406148915
  endloop
endfacet
facet normal 1.4099832412739483e-15 2.0679754205350976e-14 -1.0
  outer loop
    vertex 736.8657032481306 1754.2116584257299 -29.432894406148975
    vertex 776.8657032481306 1757.2116584257299 -29.432894406148858
    vertex 776.8657032481306 1754.2116584257299 -29.432894406148918
  endloop
endfacet
facet normal -0.0 1.0 -0.0
  outer loop
    vertex 736.8657032481306 1754.2116584257299 -28.33289440614891
    vertex 776.8657032481306 1754.2116584257299 -29.432894406148918
    vertex 736.8657032481306 1754.2116584257299 -29.432894406148975
  endloop
endfacet
facet normal -0.0 1.0 -0.0
  outer loop
    vertex 776.8657032481306 1754.2116584257299 -29.432894406148918
    vertex 736.8657032481306 1754.2116584257299 -28.33289440614891
    vertex 776.8657032481306 1754.2116584257299 -28.33289440614885
  endloop
endfacet
facet normal -1.0 0.0 0.0
  outer loop
    vertex 736.8657032481306 1754.2116584257299 -28.33289440614891
    vertex 736.8657032481306 1692.2116584257299 -29.43289440614887
    vertex 736.8657032481306 1692.2116584257299 -28.332894406148867
  endloop
endfacet
facet normal -1.0 0.0 0.0
  outer loop
    vertex 736.8657032481306 1692.2116584257299 -29.43289440614887
    vertex 736.8657032481306 1754.2116584257299 -28.33289440614891
    vertex 736.8657032481306 1754.2116584257299 -29.432894406148975
  endloop
endfacet
facet normal 0.0 -1.0 0.0
  outer loop
    vertex 736.8657032481306 1692.2116584257299 -28.332894406148867
    vertex 736.8657032481306 1692.2116584257299 -29.43289440614887
    vertex 776.8657032481306 1692.2116584257299 -29.43289440614881
  endloop
endfacet
facet normal 1.550981565401343e-15 -7.277332858188126e-16 -1.0
  outer loop
    vertex 776.8657032481306 1754.2116584257299 -28.33289440614885
    vertex 736.8657032481306 1692.2116584257299 -28.332894406148867
    vertex 736.8657032481306 1754.2116584257299 -28.33289440614891
  endloop
endfacet
facet normal 1.550981565401343e-15 -7.277332858188126e-16 -1.0
  outer loop
    vertex 736.8657032481306 1692.2116584257299 -28.332894406148867
    vertex 776.8657032481306 1754.2116584257299 -28.33289440614885
    vertex 776.8657032481306 1692.2116584257299 -28.332894406148803
  endloop
endfacet
facet normal 1.0 -0.0 -0.0
  outer loop
    vertex 776.8657032481306 1754.2116584257299 -32.332894406148846
    vertex 776.8657032481306 1692.2116584257299 -29.43289440614881
    vertex 776.8657032481306 1692.2116584257299 -32.3328944061488
  endloop
endfacet
facet normal 1.0 -0.0 -0.0
  outer loop
    vertex 776.8657032481306 1692.2116584257299 -29.43289440614881
    vertex 776.8657032481306 1754.2116584257299 -32.332894406148846
    vertex 776.8657032481306 1754.2116584257299 -29.432894406148918
  endloop
endfacet
facet normal -1.0 0.0 0.0
  outer loop
    vertex 736.8657032481306 1754.2116584257299 -29.432894406148975
    vertex 736.8657032481306 1692.2116584257299 -32.33289440614887
    vertex 736.8657032481306 1692.2116584257299 -29.43289440614887
  endloop
endfacet
facet normal -1.0 0.0 0.0
  outer loop
    vertex 736.8657032481306 1692.2116584257299 -32.33289440614887
    vertex 736.8657032481306 1754.2116584257299 -29.432894406148975
    vertex 736.8657032481306 1754.2116584257299 -32.33289440614891
  endloop
endfacet
facet normal -1.1360301375276432e-30 -1.0 8.057047092993956e-16
  outer loop
    vertex 766.8657032481306 1744.21165842573 -32.33289440614886
    vertex 746.8657032481306 1744.21165842573 -30.332894406148885
    vertex 746.8657032481306 1744.21165842573 -32.33289440614889
  endloop
endfacet
facet normal -1.1360301375276432e-30 -1.0 8.057047092993956e-16
  outer loop
    vertex 746.8657032481306 1744.21165842573 -30.332894406148885
    vertex 766.8657032481306 1744.21165842573 -32.33289440614886
    vertex 766.8657032481306 1744.21165842573 -30.332894406148856
  endloop
endfacet
facet normal -0.0 1.0 -0.0
  outer loop
    vertex 736.8657032481306 1754.2116584257299 -29.432894406148975
    vertex 776.8657032481306 1754.2116584257299 -32.332894406148846
    vertex 736.8657032481306 1754.2116584257299 -32.33289440614891
  endloop
endfacet
facet normal -0.0 1.0 -0.0
  outer loop
    vertex 776.8657032481306 1754.2116584257299 -32.332894406148846
    vertex 736.8657032481306 1754.2116584257299 -29.432894406148975
    vertex 776.8657032481306 1754.2116584257299 -29.432894406148918
  endloop
endfacet
facet normal 0.0 -1.0 0.0
  outer loop
    vertex 776.8657032481306 1692.2116584257299 -32.3328944061488
    vertex 736.8657032481306 1692.2116584257299 -29.43289440614887
    vertex 736.8657032481306 1692.2116584257299 -32.33289440614887
  endloop
endfacet
facet normal 0.0 -1.0 0.0
  outer loop
    vertex 736.8657032481306 1692.2116584257299 -29.43289440614887
    vertex 776.8657032481306 1692.2116584257299 -32.3328944061488
    vertex 776.8657032481306 1692.2116584257299 -29.43289440614881
  endloop
endfacet
facet normal 1.0 1.1360301375276433e-30 1.4099832412739452e-15
  outer loop
    vertex 746.8657032481306 1744.21165842573 -32.33289440614889
    vertex 746.8657032481306 1702.2116584257299 -30.33289440614885
    vertex 746.8657032481306 1702.2116584257299 -32.33289440614885
  endloop
endfacet
facet normal 1.0 1.1360301375276433e-30 1.4099832412739452e-15
  outer loop
    vertex 746.8657032481306 1702.2116584257299 -30.33289440614885
    vertex 746.8657032481306 1744.21165842573 -32.33289440614889
    vertex 746.8657032481306 1744.21165842573 -30.332894406148885
  endloop
endfacet
facet normal 1.409983241273945e-15 -8.057047092993956e-16 -1.0
  outer loop
    vertex 766.8657032481306 1744.21165842573 -30.332894406148856
    vertex 746.8657032481306 1702.2116584257299 -30.33289440614885
    vertex 746.8657032481306 1744.21165842573 -30.332894406148885
  endloop
endfacet
facet normal 1.409983241273945e-15 -8.057047092993956e-16 -1.0
  outer loop
    vertex 746.8657032481306 1702.2116584257299 -30.33289440614885
    vertex 766.8657032481306 1744.21165842573 -30.332894406148856
    vertex 766.8657032481306 1702.2116584257299 -30.33289440614882
  endloop
endfacet
facet normal -1.0 -1.1360301375276433e-30 -1.4099832412739452e-15
  outer loop
    vertex 766.8657032481306 1744.21165842573 -30.332894406148856
    vertex 766.8657032481306 1702.2116584257299 -32.332894406148824
    vertex 766.8657032481306 1702.2116584257299 -30.33289440614882
  endloop
endfacet
facet normal -1.0 -1.1360301375276433e-30 -1.4099832412739452e-15
  outer loop
    vertex 766.8657032481306 1702.2116584257299 -32.332894406148824
    vertex 766.8657032481306 1744.21165842573 -30.332894406148856
    vertex 766.8657032481306 1744.21165842573 -32.33289440614886
  endloop
endfacet
facet normal 1.1360301375276432e-30 1.0 -8.057047092993956e-16
  outer loop
    vertex 746.8657032481306 1702.2116584257299 -30.33289440614885
    vertex 766.8657032481306 1702.2116584257299 -32.332894406148824
    vertex 746.8657032481306 1702.2116584257299 -32.33289440614885
  endloop
endfacet
facet normal 1.1360301375276432e-30 1.0 -8.057047092993956e-16
  outer loop
    vertex 766.8657032481306 1702.2116584257299 -32.332894406148824
    vertex 746.8657032481306 1702.2116584257299 -30.33289440614885
    vertex 766.8657032481306 1702.2116584257299 -30.33289440614882
  endloop
endfacet
endsolid FunnelAndHolder
