solid ChannelAdapter
facet normal -0.0 1.0 -1.2031856992204363e-13
  outer loop
    vertex 3733.36823147015 4490.927526465175 0.0
    vertex 3735.1361806625814 4490.9275264651715 8.7
    vertex 3740.36823147015 4490.927526465175 0.0
  endloop
endfacet
facet normal -0.0 1.0 -1.2031856992204363e-13
  outer loop
    vertex 3735.1361806625814 4490.9275264651715 8.7
    vertex 3733.36823147015 4490.927526465175 0.0
    vertex 3734.936379817572 4490.9275264651715 9.182361909794958
  endloop
endfacet
facet normal -0.0 1.0 -1.2031856992204363e-13
  outer loop
    vertex 3734.936379817572 4490.9275264651715 9.182361909794958
    vertex 3733.36823147015 4490.927526465175 0.0
    vertex 3733.36823147015 4490.927526465175 14.0
  endloop
endfacet
facet normal -0.0 1.0 -1.2031856992204363e-13
  outer loop
    vertex 3740.36823147015 4490.927526465175 0.0
    vertex 3735.1361806625814 4490.9275264651715 8.7
    vertex 3735.454017907777 4490.9275264651715 8.285786437626905
  endloop
endfacet
facet normal -0.0 1.0 -1.2031856992204363e-13
  outer loop
    vertex 3740.36823147015 4490.927526465175 0.0
    vertex 3735.454017907777 4490.9275264651715 8.285786437626905
    vertex 3735.8682314701505 4490.9275264651715 7.9679491924311225
  endloop
endfacet
facet normal -0.0 1.0 -1.2031856992204363e-13
  outer loop
    vertex 3740.36823147015 4490.927526465175 0.0
    vertex 3735.8682314701505 4490.9275264651715 7.9679491924311225
    vertex 3736.350593379945 4490.9275264651715 7.768148347421864
  endloop
endfacet
facet normal -0.0 1.0 -1.2031856992204363e-13
  outer loop
    vertex 3740.36823147015 4490.927526465175 0.0
    vertex 3736.350593379945 4490.9275264651715 7.768148347421864
    vertex 3736.86823147015 4490.9275264651715 7.7
  endloop
endfacet
facet normal -0.0 1.0 -1.2031856992204363e-13
  outer loop
    vertex 3734.936379817572 4490.9275264651715 9.182361909794958
    vertex 3733.36823147015 4490.927526465175 14.0
    vertex 3734.8682314701496 4490.9275264651715 9.7
  endloop
endfacet
facet normal -0.0 1.0 -1.2031856992204363e-13
  outer loop
    vertex 3734.8682314701496 4490.9275264651715 9.7
    vertex 3733.36823147015 4490.927526465175 14.0
    vertex 3734.936379817572 4490.9275264651715 10.21763809020504
  endloop
endfacet
facet normal -0.0 1.0 -1.2031856992204363e-13
  outer loop
    vertex 3734.936379817572 4490.9275264651715 10.21763809020504
    vertex 3733.36823147015 4490.927526465175 14.0
    vertex 3735.1361806625814 4490.9275264651715 10.7
  endloop
endfacet
facet normal -0.0 1.0 -1.2031856992204363e-13
  outer loop
    vertex 3735.1361806625814 4490.9275264651715 10.7
    vertex 3733.36823147015 4490.927526465175 14.0
    vertex 3735.454017907777 4490.9275264651715 11.114213562373093
  endloop
endfacet
facet normal -0.0 1.0 -1.2031856992204363e-13
  outer loop
    vertex 3735.454017907777 4490.9275264651715 11.114213562373093
    vertex 3733.36823147015 4490.927526465175 14.0
    vertex 3735.8682314701505 4490.9275264651715 11.432050807568874
  endloop
endfacet
facet normal -0.0 1.0 -1.2031856992204363e-13
  outer loop
    vertex 3735.8682314701505 4490.9275264651715 11.432050807568874
    vertex 3733.36823147015 4490.927526465175 14.0
    vertex 3736.350593379945 4490.9275264651715 11.631851652578135
  endloop
endfacet
facet normal -0.0 1.0 -1.2031856992204363e-13
  outer loop
    vertex 3736.350593379945 4490.9275264651715 11.631851652578135
    vertex 3733.36823147015 4490.927526465175 14.0
    vertex 3736.86823147015 4490.9275264651715 11.699999999999998
  endloop
endfacet
facet normal -0.0 1.0 -1.2031856992204363e-13
  outer loop
    vertex 3740.36823147015 4490.927526465175 0.0
    vertex 3738.800083122728 4490.9275264651715 9.18236190979496
    vertex 3740.36823147015 4490.927526465175 14.0
  endloop
endfacet
facet normal -0.0 1.0 -1.2031856992204363e-13
  outer loop
    vertex 3738.800083122728 4490.9275264651715 9.18236190979496
    vertex 3740.36823147015 4490.927526465175 0.0
    vertex 3738.6002822777186 4490.9275264651715 8.700000000000001
  endloop
endfacet
facet normal -0.0 1.0 -1.2031856992204363e-13
  outer loop
    vertex 3738.6002822777186 4490.9275264651715 8.700000000000001
    vertex 3740.36823147015 4490.927526465175 0.0
    vertex 3738.282445032523 4490.9275264651715 8.285786437626905
  endloop
endfacet
facet normal -0.0 1.0 -1.2031856992204363e-13
  outer loop
    vertex 3738.282445032523 4490.9275264651715 8.285786437626905
    vertex 3740.36823147015 4490.927526465175 0.0
    vertex 3737.86823147015 4490.9275264651715 7.967949192431123
  endloop
endfacet
facet normal -0.0 1.0 -1.2031856992204363e-13
  outer loop
    vertex 3737.86823147015 4490.9275264651715 7.967949192431123
    vertex 3740.36823147015 4490.927526465175 0.0
    vertex 3737.385869560355 4490.9275264651715 7.768148347421864
  endloop
endfacet
facet normal -0.0 1.0 -1.2031856992204363e-13
  outer loop
    vertex 3737.385869560355 4490.9275264651715 7.768148347421864
    vertex 3740.36823147015 4490.927526465175 0.0
    vertex 3736.86823147015 4490.9275264651715 7.7
  endloop
endfacet
facet normal -0.0 1.0 -1.2031856992204363e-13
  outer loop
    vertex 3740.36823147015 4490.927526465175 14.0
    vertex 3738.800083122728 4490.9275264651715 9.18236190979496
    vertex 3738.8682314701505 4490.9275264651715 9.7
  endloop
endfacet
facet normal -0.0 1.0 -1.2031856992204363e-13
  outer loop
    vertex 3740.36823147015 4490.927526465175 14.0
    vertex 3738.8682314701505 4490.9275264651715 9.7
    vertex 3738.800083122728 4490.9275264651715 10.217638090205043
  endloop
endfacet
facet normal -0.0 1.0 -1.2031856992204363e-13
  outer loop
    vertex 3740.36823147015 4490.927526465175 14.0
    vertex 3738.800083122728 4490.9275264651715 10.217638090205043
    vertex 3738.6002822777186 4490.9275264651715 10.7
  endloop
endfacet
facet normal -0.0 1.0 -1.2031856992204363e-13
  outer loop
    vertex 3740.36823147015 4490.927526465175 14.0
    vertex 3738.6002822777186 4490.9275264651715 10.7
    vertex 3738.282445032523 4490.9275264651715 11.114213562373095
  endloop
endfacet
facet normal -0.0 1.0 -1.2031856992204363e-13
  outer loop
    vertex 3740.36823147015 4490.927526465175 14.0
    vertex 3738.282445032523 4490.9275264651715 11.114213562373095
    vertex 3737.86823147015 4490.9275264651715 11.432050807568876
  endloop
endfacet
facet normal -0.0 1.0 -1.2031856992204363e-13
  outer loop
    vertex 3740.36823147015 4490.927526465175 14.0
    vertex 3737.86823147015 4490.9275264651715 11.432050807568876
    vertex 3737.385869560355 4490.9275264651715 11.631851652578135
  endloop
endfacet
facet normal -0.0 1.0 -1.2031856992204363e-13
  outer loop
    vertex 3740.36823147015 4490.927526465175 14.0
    vertex 3737.385869560355 4490.9275264651715 11.631851652578135
    vertex 3736.86823147015 4490.9275264651715 11.699999999999998
  endloop
endfacet
facet normal -0.0 1.0 -1.2031856992204363e-13
  outer loop
    vertex 3740.36823147015 4490.927526465175 14.0
    vertex 3736.86823147015 4490.9275264651715 11.699999999999998
    vertex 3733.36823147015 4490.927526465175 14.0
  endloop
endfacet
facet normal 0.6087614290080882 0.7933533402917204 -0.0
  outer loop
    vertex 3735.454017907777 4484.513312902803 1.9999999999999998
    vertex 3735.8682314701505 4484.195475657607 0.0
    vertex 3735.454017907777 4484.513312902803 0.0
  endloop
endfacet
facet normal 0.6087614290080882 0.7933533402917204 -0.0
  outer loop
    vertex 3735.8682314701505 4484.195475657607 0.0
    vertex 3735.454017907777 4484.513312902803 1.9999999999999998
    vertex 3735.8682314701505 4484.195475657607 1.9999999999999998
  endloop
endfacet
facet normal 0.9914448613739892 0.13052619221869372 -0.0
  outer loop
    vertex 3734.9023056438614 4485.668707420074 0.0
    vertex 3734.936379817572 4485.40988837497 1.9999999999999998
    vertex 3734.936379817572 4485.40988837497 0.0
  endloop
endfacet
facet normal 0.9914448613739892 0.13052619221869372 -0.0
  outer loop
    vertex 3734.936379817572 4485.40988837497 1.9999999999999998
    vertex 3734.9023056438614 4485.668707420074 0.0
    vertex 3734.9023056438614 4485.668707420074 1.9999999999999998
  endloop
endfacet
facet normal -0.793353340291053 -0.6087614290089584 0.0
  outer loop
    vertex 3738.282445032523 4487.341740027548 1.9999999999999998
    vertex 3738.6002822777186 4486.927526465176 0.0
    vertex 3738.6002822777186 4486.927526465176 1.9999999999999998
  endloop
endfacet
facet normal -0.793353340291053 -0.6087614290089584 0.0
  outer loop
    vertex 3738.6002822777186 4486.927526465176 0.0
    vertex 3738.282445032523 4487.341740027548 1.9999999999999998
    vertex 3738.282445032523 4487.341740027548 0.0
  endloop
endfacet
facet normal -0.38268343236537833 0.9238795325111673 -0.0
  outer loop
    vertex 3737.385869560355 4483.995674812598 1.9999999999999998
    vertex 3737.86823147015 4484.195475657607 0.0
    vertex 3737.385869560355 4483.995674812598 0.0
  endloop
endfacet
facet normal -0.38268343236537833 0.9238795325111673 -0.0
  outer loop
    vertex 3737.86823147015 4484.195475657607 0.0
    vertex 3737.385869560355 4483.995674812598 1.9999999999999998
    vertex 3737.86823147015 4484.195475657607 1.9999999999999998
  endloop
endfacet
facet normal 0.1305261922204107 0.9914448613737632 -0.0
  outer loop
    vertex 3736.350593379945 4483.995674812598 1.9999999999999998
    vertex 3736.86823147015 4483.927526465175 0.0
    vertex 3736.350593379945 4483.995674812598 0.0
  endloop
endfacet
facet normal 0.1305261922204107 0.9914448613737632 -0.0
  outer loop
    vertex 3736.86823147015 4483.927526465175 0.0
    vertex 3736.350593379945 4483.995674812598 1.9999999999999998
    vertex 3736.86823147015 4483.927526465175 1.9999999999999998
  endloop
endfacet
facet normal -0.1305261922204107 0.9914448613737632 -0.0
  outer loop
    vertex 3736.86823147015 4483.927526465175 1.9999999999999998
    vertex 3737.385869560355 4483.995674812598 0.0
    vertex 3736.86823147015 4483.927526465175 0.0
  endloop
endfacet
facet normal -0.1305261922204107 0.9914448613737632 -0.0
  outer loop
    vertex 3737.385869560355 4483.995674812598 0.0
    vertex 3736.86823147015 4483.927526465175 1.9999999999999998
    vertex 3737.385869560355 4483.995674812598 1.9999999999999998
  endloop
endfacet
facet normal 0.38268343236537833 0.9238795325111673 -0.0
  outer loop
    vertex 3735.8682314701505 4484.195475657607 1.9999999999999998
    vertex 3736.350593379945 4483.995674812598 0.0
    vertex 3735.8682314701505 4484.195475657607 0.0
  endloop
endfacet
facet normal 0.38268343236537833 0.9238795325111673 -0.0
  outer loop
    vertex 3736.350593379945 4483.995674812598 0.0
    vertex 3735.8682314701505 4484.195475657607 1.9999999999999998
    vertex 3736.350593379945 4483.995674812598 1.9999999999999998
  endloop
endfacet
facet normal -0.6087614290089584 -0.7933533402910528 0.0
  outer loop
    vertex 3738.282445032523 4487.341740027548 1.9999999999999998
    vertex 3737.86823147015 4487.659577272744 0.0
    vertex 3738.282445032523 4487.341740027548 0.0
  endloop
endfacet
facet normal -0.6087614290089584 -0.7933533402910528 0.0
  outer loop
    vertex 3737.86823147015 4487.659577272744 0.0
    vertex 3738.282445032523 4487.341740027548 1.9999999999999998
    vertex 3737.86823147015 4487.659577272744 1.9999999999999998
  endloop
endfacet
facet normal 0.9238795325111673 0.38268343236537833 -0.0
  outer loop
    vertex 3734.936379817572 4485.40988837497 0.0
    vertex 3735.1361806625814 4484.927526465175 1.9999999999999998
    vertex 3735.1361806625814 4484.927526465175 0.0
  endloop
endfacet
facet normal 0.9238795325111673 0.38268343236537833 -0.0
  outer loop
    vertex 3735.1361806625814 4484.927526465175 1.9999999999999998
    vertex 3734.936379817572 4485.40988837497 0.0
    vertex 3734.936379817572 4485.40988837497 1.9999999999999998
  endloop
endfacet
facet normal 0.38268343236537833 -0.9238795325111673 0.0
  outer loop
    vertex 3736.350593379945 4487.859378117754 1.9999999999999998
    vertex 3735.8682314701505 4487.659577272744 0.0
    vertex 3736.350593379945 4487.859378117754 0.0
  endloop
endfacet
facet normal 0.38268343236537833 -0.9238795325111673 0.0
  outer loop
    vertex 3735.8682314701505 4487.659577272744 0.0
    vertex 3736.350593379945 4487.859378117754 1.9999999999999998
    vertex 3735.8682314701505 4487.659577272744 1.9999999999999998
  endloop
endfacet
facet normal 0.6087614290089586 -0.7933533402910528 0.0
  outer loop
    vertex 3735.8682314701505 4487.659577272744 1.9999999999999998
    vertex 3735.454017907777 4487.341740027548 0.0
    vertex 3735.8682314701505 4487.659577272744 0.0
  endloop
endfacet
facet normal 0.6087614290089586 -0.7933533402910528 0.0
  outer loop
    vertex 3735.454017907777 4487.341740027548 0.0
    vertex 3735.8682314701505 4487.659577272744 1.9999999999999998
    vertex 3735.454017907777 4487.341740027548 1.9999999999999998
  endloop
endfacet
facet normal -0.9238795325111673 0.3826834323653783 0.0
  outer loop
    vertex 3738.800083122728 4485.40988837497 1.9999999999999998
    vertex 3738.6002822777186 4484.927526465175 0.0
    vertex 3738.6002822777186 4484.927526465175 1.9999999999999998
  endloop
endfacet
facet normal -0.9238795325111673 0.3826834323653783 0.0
  outer loop
    vertex 3738.6002822777186 4484.927526465175 0.0
    vertex 3738.800083122728 4485.40988837497 1.9999999999999998
    vertex 3738.800083122728 4485.40988837497 0.0
  endloop
endfacet
facet normal -0.38268343236537833 -0.9238795325111673 0.0
  outer loop
    vertex 3737.86823147015 4487.659577272744 1.9999999999999998
    vertex 3737.385869560355 4487.859378117754 0.0
    vertex 3737.86823147015 4487.659577272744 0.0
  endloop
endfacet
facet normal -0.38268343236537833 -0.9238795325111673 0.0
  outer loop
    vertex 3737.385869560355 4487.859378117754 0.0
    vertex 3737.86823147015 4487.659577272744 1.9999999999999998
    vertex 3737.385869560355 4487.859378117754 1.9999999999999998
  endloop
endfacet
facet normal 0.9914448613737632 -0.1305261922204107 -0.0
  outer loop
    vertex 3734.936379817572 4486.445164555381 0.0
    vertex 3734.8682314701496 4485.927526465176 1.9999999999999998
    vertex 3734.8682314701496 4485.927526465176 0.0
  endloop
endfacet
facet normal 0.9914448613737632 -0.1305261922204107 -0.0
  outer loop
    vertex 3734.8682314701496 4485.927526465176 1.9999999999999998
    vertex 3734.936379817572 4486.445164555381 0.0
    vertex 3734.936379817572 4486.445164555381 1.9999999999999998
  endloop
endfacet
facet normal -0.6087614290080882 0.7933533402917204 -0.0
  outer loop
    vertex 3737.86823147015 4484.195475657607 1.9999999999999998
    vertex 3738.282445032523 4484.513312902803 0.0
    vertex 3737.86823147015 4484.195475657607 0.0
  endloop
endfacet
facet normal -0.6087614290080882 0.7933533402917204 -0.0
  outer loop
    vertex 3738.282445032523 4484.513312902803 0.0
    vertex 3737.86823147015 4484.195475657607 1.9999999999999998
    vertex 3738.282445032523 4484.513312902803 1.9999999999999998
  endloop
endfacet
facet normal -0.9238795325111673 -0.38268343236537833 0.0
  outer loop
    vertex 3738.6002822777186 4486.927526465176 1.9999999999999998
    vertex 3738.800083122728 4486.445164555381 0.0
    vertex 3738.800083122728 4486.445164555381 1.9999999999999998
  endloop
endfacet
facet normal -0.9238795325111673 -0.38268343236537833 0.0
  outer loop
    vertex 3738.800083122728 4486.445164555381 0.0
    vertex 3738.6002822777186 4486.927526465176 1.9999999999999998
    vertex 3738.6002822777186 4486.927526465176 0.0
  endloop
endfacet
facet normal 0.7933533402910528 -0.6087614290089584 -0.0
  outer loop
    vertex 3735.454017907777 4487.341740027548 0.0
    vertex 3735.1361806625814 4486.927526465176 1.9999999999999998
    vertex 3735.1361806625814 4486.927526465176 0.0
  endloop
endfacet
facet normal 0.7933533402910528 -0.6087614290089584 -0.0
  outer loop
    vertex 3735.1361806625814 4486.927526465176 1.9999999999999998
    vertex 3735.454017907777 4487.341740027548 0.0
    vertex 3735.454017907777 4487.341740027548 1.9999999999999998
  endloop
endfacet
facet normal -0.9914448613739892 0.13052619221869372 0.0
  outer loop
    vertex 3738.834157296439 4485.668707420074 1.9999999999999998
    vertex 3738.800083122728 4485.40988837497 0.0
    vertex 3738.800083122728 4485.40988837497 1.9999999999999998
  endloop
endfacet
facet normal -0.9914448613739892 0.13052619221869372 0.0
  outer loop
    vertex 3738.800083122728 4485.40988837497 0.0
    vertex 3738.834157296439 4485.668707420074 1.9999999999999998
    vertex 3738.834157296439 4485.668707420074 0.0
  endloop
endfacet
facet normal -0.9914448613737632 -0.1305261922204107 0.0
  outer loop
    vertex 3738.800083122728 4486.445164555381 1.9999999999999998
    vertex 3738.8682314701505 4485.927526465176 0.0
    vertex 3738.8682314701505 4485.927526465176 1.9999999999999998
  endloop
endfacet
facet normal -0.9914448613737632 -0.1305261922204107 0.0
  outer loop
    vertex 3738.8682314701505 4485.927526465176 0.0
    vertex 3738.800083122728 4486.445164555381 1.9999999999999998
    vertex 3738.800083122728 4486.445164555381 0.0
  endloop
endfacet
facet normal -0.13052619221905157 -0.9914448613739422 0.0
  outer loop
    vertex 3737.385869560355 4487.859378117754 1.9999999999999998
    vertex 3736.86823147015 4487.927526465175 0.0
    vertex 3737.385869560355 4487.859378117754 0.0
  endloop
endfacet
facet normal -0.13052619221905157 -0.9914448613739422 0.0
  outer loop
    vertex 3736.86823147015 4487.927526465175 0.0
    vertex 3737.385869560355 4487.859378117754 1.9999999999999998
    vertex 3736.86823147015 4487.927526465175 1.9999999999999998
  endloop
endfacet
facet normal 0.9238795325111673 -0.38268343236537833 -0.0
  outer loop
    vertex 3735.1361806625814 4486.927526465176 0.0
    vertex 3734.936379817572 4486.445164555381 1.9999999999999998
    vertex 3734.936379817572 4486.445164555381 0.0
  endloop
endfacet
facet normal 0.9238795325111673 -0.38268343236537833 -0.0
  outer loop
    vertex 3734.936379817572 4486.445164555381 1.9999999999999998
    vertex 3735.1361806625814 4486.927526465176 0.0
    vertex 3735.1361806625814 4486.927526465176 1.9999999999999998
  endloop
endfacet
facet normal 0.9914448613735842 0.13052619222176984 -0.0
  outer loop
    vertex 3734.8682314701496 4485.927526465176 0.0
    vertex 3734.9023056438614 4485.668707420074 1.9999999999999998
    vertex 3734.9023056438614 4485.668707420074 0.0
  endloop
endfacet
facet normal 0.9914448613735842 0.13052619222176984 -0.0
  outer loop
    vertex 3734.9023056438614 4485.668707420074 1.9999999999999998
    vertex 3734.8682314701496 4485.927526465176 0.0
    vertex 3734.8682314701496 4485.927526465176 1.9999999999999998
  endloop
endfacet
facet normal 0.13052619221905157 -0.9914448613739422 0.0
  outer loop
    vertex 3736.86823147015 4487.927526465175 1.9999999999999998
    vertex 3736.350593379945 4487.859378117754 0.0
    vertex 3736.86823147015 4487.927526465175 0.0
  endloop
endfacet
facet normal 0.13052619221905157 -0.9914448613739422 0.0
  outer loop
    vertex 3736.350593379945 4487.859378117754 0.0
    vertex 3736.86823147015 4487.927526465175 1.9999999999999998
    vertex 3736.350593379945 4487.859378117754 1.9999999999999998
  endloop
endfacet
facet normal 0.7933533402910528 0.6087614290089584 -0.0
  outer loop
    vertex 3735.1361806625814 4484.927526465175 0.0
    vertex 3735.454017907777 4484.513312902803 1.9999999999999998
    vertex 3735.454017907777 4484.513312902803 0.0
  endloop
endfacet
facet normal 0.7933533402910528 0.6087614290089584 -0.0
  outer loop
    vertex 3735.454017907777 4484.513312902803 1.9999999999999998
    vertex 3735.1361806625814 4484.927526465175 0.0
    vertex 3735.1361806625814 4484.927526465175 1.9999999999999998
  endloop
endfacet
facet normal -0.9914448613735842 0.13052619222176984 0.0
  outer loop
    vertex 3738.8682314701505 4485.927526465176 1.9999999999999998
    vertex 3738.834157296439 4485.668707420074 0.0
    vertex 3738.834157296439 4485.668707420074 1.9999999999999998
  endloop
endfacet
facet normal -0.9914448613735842 0.13052619222176984 0.0
  outer loop
    vertex 3738.834157296439 4485.668707420074 0.0
    vertex 3738.8682314701505 4485.927526465176 1.9999999999999998
    vertex 3738.8682314701505 4485.927526465176 0.0
  endloop
endfacet
facet normal -0.793353340291053 0.6087614290089584 0.0
  outer loop
    vertex 3738.6002822777186 4484.927526465175 1.9999999999999998
    vertex 3738.282445032523 4484.513312902803 0.0
    vertex 3738.282445032523 4484.513312902803 1.9999999999999998
  endloop
endfacet
facet normal -0.793353340291053 0.6087614290089584 0.0
  outer loop
    vertex 3738.282445032523 4484.513312902803 0.0
    vertex 3738.6002822777186 4484.927526465175 1.9999999999999998
    vertex 3738.6002822777186 4484.927526465175 0.0
  endloop
endfacet
facet normal 1.0 0.0 0.0
  outer loop
    vertex 3740.36823147015 4490.927526465175 0.0
    vertex 3740.36823147015 4482.9273239279455 1.9999999999999996
    vertex 3740.36823147015 4482.9273239279455 0.0
  endloop
endfacet
facet normal 1.0 0.0 0.0
  outer loop
    vertex 3740.36823147015 4482.9273239279455 1.9999999999999996
    vertex 3740.36823147015 4490.927526465175 0.0
    vertex 3740.36823147015 4488.927526465174 1.9999999999999991
  endloop
endfacet
facet normal 1.0 0.0 0.0
  outer loop
    vertex 3740.36823147015 4488.927526465174 1.9999999999999991
    vertex 3740.36823147015 4490.927526465175 0.0
    vertex 3740.36823147015 4488.927526465174 14.0
  endloop
endfacet
facet normal 1.0 0.0 0.0
  outer loop
    vertex 3740.36823147015 4488.927526465174 14.0
    vertex 3740.36823147015 4490.927526465175 0.0
    vertex 3740.36823147015 4490.927526465175 14.0
  endloop
endfacet
facet normal 1.9722530961842217e-17 8.047899692208012e-17 1.0
  outer loop
    vertex 3733.36823147015 4482.9273239279455 2.0
    vertex 3735.1361806625814 4484.927526465175 1.9999999999999998
    vertex 3733.36823147015 4488.927526465174 1.9999999999999998
  endloop
endfacet
facet normal 1.9722530961842217e-17 8.047899692208012e-17 1.0
  outer loop
    vertex 3735.1361806625814 4484.927526465175 1.9999999999999998
    vertex 3733.36823147015 4482.9273239279455 2.0
    vertex 3735.454017907777 4484.513312902803 1.9999999999999998
  endloop
endfacet
facet normal 1.9722530961842217e-17 8.047899692208012e-17 1.0
  outer loop
    vertex 3735.454017907777 4484.513312902803 1.9999999999999998
    vertex 3733.36823147015 4482.9273239279455 2.0
    vertex 3735.8682314701505 4484.195475657607 1.9999999999999998
  endloop
endfacet
facet normal 1.9722530961842217e-17 8.047899692208012e-17 1.0
  outer loop
    vertex 3735.8682314701505 4484.195475657607 1.9999999999999998
    vertex 3733.36823147015 4482.9273239279455 2.0
    vertex 3736.350593379945 4483.995674812598 1.9999999999999998
  endloop
endfacet
facet normal 1.9722530961842217e-17 8.047899692208012e-17 1.0
  outer loop
    vertex 3736.350593379945 4483.995674812598 1.9999999999999998
    vertex 3733.36823147015 4482.9273239279455 2.0
    vertex 3740.36823147015 4482.9273239279455 1.9999999999999996
  endloop
endfacet
facet normal 1.9722530961842217e-17 8.047899692208012e-17 1.0
  outer loop
    vertex 3733.36823147015 4488.927526465174 1.9999999999999998
    vertex 3735.1361806625814 4484.927526465175 1.9999999999999998
    vertex 3734.936379817572 4485.40988837497 1.9999999999999998
  endloop
endfacet
facet normal 1.9722530961842217e-17 8.047899692208012e-17 1.0
  outer loop
    vertex 3733.36823147015 4488.927526465174 1.9999999999999998
    vertex 3734.936379817572 4485.40988837497 1.9999999999999998
    vertex 3734.8682314701496 4485.927526465176 1.9999999999999998
  endloop
endfacet
facet normal 1.9722530961842217e-17 8.047899692208012e-17 1.0
  outer loop
    vertex 3734.8682314701496 4485.927526465176 1.9999999999999998
    vertex 3734.936379817572 4485.40988837497 1.9999999999999998
    vertex 3734.9023056438614 4485.668707420074 1.9999999999999998
  endloop
endfacet
facet normal 1.9722530961842217e-17 8.047899692208012e-17 1.0
  outer loop
    vertex 3736.350593379945 4483.995674812598 1.9999999999999998
    vertex 3740.36823147015 4482.9273239279455 1.9999999999999996
    vertex 3736.86823147015 4483.927526465175 1.9999999999999998
  endloop
endfacet
facet normal 1.9722530961842217e-17 8.047899692208012e-17 1.0
  outer loop
    vertex 3736.86823147015 4483.927526465175 1.9999999999999998
    vertex 3740.36823147015 4482.9273239279455 1.9999999999999996
    vertex 3737.385869560355 4483.995674812598 1.9999999999999998
  endloop
endfacet
facet normal 1.9722530961842217e-17 8.047899692208012e-17 1.0
  outer loop
    vertex 3737.385869560355 4483.995674812598 1.9999999999999998
    vertex 3740.36823147015 4482.9273239279455 1.9999999999999996
    vertex 3737.86823147015 4484.195475657607 1.9999999999999998
  endloop
endfacet
facet normal 1.9722530961842217e-17 8.047899692208012e-17 1.0
  outer loop
    vertex 3737.86823147015 4484.195475657607 1.9999999999999998
    vertex 3740.36823147015 4482.9273239279455 1.9999999999999996
    vertex 3738.282445032523 4484.513312902803 1.9999999999999998
  endloop
endfacet
facet normal 1.9722530961842217e-17 8.047899692208012e-17 1.0
  outer loop
    vertex 3738.282445032523 4484.513312902803 1.9999999999999998
    vertex 3740.36823147015 4482.9273239279455 1.9999999999999996
    vertex 3738.6002822777186 4484.927526465175 1.9999999999999998
  endloop
endfacet
facet normal 1.9722530961842217e-17 8.047899692208012e-17 1.0
  outer loop
    vertex 3738.6002822777186 4484.927526465175 1.9999999999999998
    vertex 3740.36823147015 4482.9273239279455 1.9999999999999996
    vertex 3738.800083122728 4485.40988837497 1.9999999999999998
  endloop
endfacet
facet normal 1.9722530961842217e-17 8.047899692208012e-17 1.0
  outer loop
    vertex 3738.800083122728 4485.40988837497 1.9999999999999998
    vertex 3740.36823147015 4482.9273239279455 1.9999999999999996
    vertex 3738.834157296439 4485.668707420074 1.9999999999999998
  endloop
endfacet
facet normal 1.9722530961842217e-17 8.047899692208012e-17 1.0
  outer loop
    vertex 3738.834157296439 4485.668707420074 1.9999999999999998
    vertex 3740.36823147015 4482.9273239279455 1.9999999999999996
    vertex 3738.8682314701505 4485.927526465176 1.9999999999999998
  endloop
endfacet
facet normal 1.9722530961842217e-17 8.047899692208012e-17 1.0
  outer loop
    vertex 3733.36823147015 4488.927526465174 1.9999999999999998
    vertex 3736.350593379945 4487.859378117754 1.9999999999999998
    vertex 3740.36823147015 4488.927526465174 1.9999999999999991
  endloop
endfacet
facet normal 1.9722530961842217e-17 8.047899692208012e-17 1.0
  outer loop
    vertex 3736.350593379945 4487.859378117754 1.9999999999999998
    vertex 3733.36823147015 4488.927526465174 1.9999999999999998
    vertex 3735.8682314701505 4487.659577272744 1.9999999999999998
  endloop
endfacet
facet normal 1.9722530961842217e-17 8.047899692208012e-17 1.0
  outer loop
    vertex 3735.8682314701505 4487.659577272744 1.9999999999999998
    vertex 3733.36823147015 4488.927526465174 1.9999999999999998
    vertex 3735.454017907777 4487.341740027548 1.9999999999999998
  endloop
endfacet
facet normal 1.9722530961842217e-17 8.047899692208012e-17 1.0
  outer loop
    vertex 3735.454017907777 4487.341740027548 1.9999999999999998
    vertex 3733.36823147015 4488.927526465174 1.9999999999999998
    vertex 3735.1361806625814 4486.927526465176 1.9999999999999998
  endloop
endfacet
facet normal 1.9722530961842217e-17 8.047899692208012e-17 1.0
  outer loop
    vertex 3735.1361806625814 4486.927526465176 1.9999999999999998
    vertex 3733.36823147015 4488.927526465174 1.9999999999999998
    vertex 3734.936379817572 4486.445164555381 1.9999999999999998
  endloop
endfacet
facet normal 1.9722530961842217e-17 8.047899692208012e-17 1.0
  outer loop
    vertex 3734.936379817572 4486.445164555381 1.9999999999999998
    vertex 3733.36823147015 4488.927526465174 1.9999999999999998
    vertex 3734.8682314701496 4485.927526465176 1.9999999999999998
  endloop
endfacet
facet normal 1.9722530961842217e-17 8.047899692208012e-17 1.0
  outer loop
    vertex 3740.36823147015 4488.927526465174 1.9999999999999991
    vertex 3736.350593379945 4487.859378117754 1.9999999999999998
    vertex 3736.86823147015 4487.927526465175 1.9999999999999998
  endloop
endfacet
facet normal 1.9722530961842217e-17 8.047899692208012e-17 1.0
  outer loop
    vertex 3740.36823147015 4488.927526465174 1.9999999999999991
    vertex 3736.86823147015 4487.927526465175 1.9999999999999998
    vertex 3737.385869560355 4487.859378117754 1.9999999999999998
  endloop
endfacet
facet normal 1.9722530961842217e-17 8.047899692208012e-17 1.0
  outer loop
    vertex 3740.36823147015 4488.927526465174 1.9999999999999991
    vertex 3737.385869560355 4487.859378117754 1.9999999999999998
    vertex 3737.86823147015 4487.659577272744 1.9999999999999998
  endloop
endfacet
facet normal 1.9722530961842217e-17 8.047899692208012e-17 1.0
  outer loop
    vertex 3740.36823147015 4488.927526465174 1.9999999999999991
    vertex 3737.86823147015 4487.659577272744 1.9999999999999998
    vertex 3738.282445032523 4487.341740027548 1.9999999999999998
  endloop
endfacet
facet normal 1.9722530961842217e-17 8.047899692208012e-17 1.0
  outer loop
    vertex 3740.36823147015 4488.927526465174 1.9999999999999991
    vertex 3738.282445032523 4487.341740027548 1.9999999999999998
    vertex 3738.6002822777186 4486.927526465176 1.9999999999999998
  endloop
endfacet
facet normal 1.9722530961842217e-17 8.047899692208012e-17 1.0
  outer loop
    vertex 3740.36823147015 4488.927526465174 1.9999999999999991
    vertex 3738.6002822777186 4486.927526465176 1.9999999999999998
    vertex 3738.800083122728 4486.445164555381 1.9999999999999998
  endloop
endfacet
facet normal 1.9722530961842217e-17 8.047899692208012e-17 1.0
  outer loop
    vertex 3740.36823147015 4488.927526465174 1.9999999999999991
    vertex 3738.800083122728 4486.445164555381 1.9999999999999998
    vertex 3738.8682314701505 4485.927526465176 1.9999999999999998
  endloop
endfacet
facet normal 1.9722530961842217e-17 8.047899692208012e-17 1.0
  outer loop
    vertex 3740.36823147015 4488.927526465174 1.9999999999999991
    vertex 3738.8682314701505 4485.927526465176 1.9999999999999998
    vertex 3740.36823147015 4482.9273239279455 1.9999999999999996
  endloop
endfacet
facet normal 0.0 0.0 -1.0
  outer loop
    vertex 3733.36823147015 4490.927526465175 0.0
    vertex 3735.1361806625814 4486.927526465176 0.0
    vertex 3733.36823147015 4482.9273239279455 0.0
  endloop
endfacet
facet normal 0.0 0.0 -1.0
  outer loop
    vertex 3735.1361806625814 4486.927526465176 0.0
    vertex 3733.36823147015 4490.927526465175 0.0
    vertex 3735.454017907777 4487.341740027548 0.0
  endloop
endfacet
facet normal 0.0 0.0 -1.0
  outer loop
    vertex 3735.454017907777 4487.341740027548 0.0
    vertex 3733.36823147015 4490.927526465175 0.0
    vertex 3735.8682314701505 4487.659577272744 0.0
  endloop
endfacet
facet normal 0.0 0.0 -1.0
  outer loop
    vertex 3735.8682314701505 4487.659577272744 0.0
    vertex 3733.36823147015 4490.927526465175 0.0
    vertex 3740.36823147015 4490.927526465175 0.0
  endloop
endfacet
facet normal 0.0 0.0 -1.0
  outer loop
    vertex 3733.36823147015 4482.9273239279455 0.0
    vertex 3735.1361806625814 4486.927526465176 0.0
    vertex 3734.936379817572 4486.445164555381 0.0
  endloop
endfacet
facet normal 0.0 0.0 -1.0
  outer loop
    vertex 3733.36823147015 4482.9273239279455 0.0
    vertex 3734.936379817572 4486.445164555381 0.0
    vertex 3734.8682314701496 4485.927526465176 0.0
  endloop
endfacet
facet normal 0.0 0.0 -1.0
  outer loop
    vertex 3735.8682314701505 4487.659577272744 0.0
    vertex 3740.36823147015 4490.927526465175 0.0
    vertex 3736.350593379945 4487.859378117754 0.0
  endloop
endfacet
facet normal 0.0 0.0 -1.0
  outer loop
    vertex 3736.350593379945 4487.859378117754 0.0
    vertex 3740.36823147015 4490.927526465175 0.0
    vertex 3736.86823147015 4487.927526465175 0.0
  endloop
endfacet
facet normal 0.0 0.0 -1.0
  outer loop
    vertex 3736.86823147015 4487.927526465175 0.0
    vertex 3740.36823147015 4490.927526465175 0.0
    vertex 3737.385869560355 4487.859378117754 0.0
  endloop
endfacet
facet normal 0.0 0.0 -1.0
  outer loop
    vertex 3737.385869560355 4487.859378117754 0.0
    vertex 3740.36823147015 4490.927526465175 0.0
    vertex 3737.86823147015 4487.659577272744 0.0
  endloop
endfacet
facet normal 0.0 0.0 -1.0
  outer loop
    vertex 3737.86823147015 4487.659577272744 0.0
    vertex 3740.36823147015 4490.927526465175 0.0
    vertex 3738.282445032523 4487.341740027548 0.0
  endloop
endfacet
facet normal 0.0 0.0 -1.0
  outer loop
    vertex 3738.282445032523 4487.341740027548 0.0
    vertex 3740.36823147015 4490.927526465175 0.0
    vertex 3738.6002822777186 4486.927526465176 0.0
  endloop
endfacet
facet normal 0.0 0.0 -1.0
  outer loop
    vertex 3738.6002822777186 4486.927526465176 0.0
    vertex 3740.36823147015 4490.927526465175 0.0
    vertex 3738.800083122728 4486.445164555381 0.0
  endloop
endfacet
facet normal 0.0 0.0 -1.0
  outer loop
    vertex 3738.800083122728 4486.445164555381 0.0
    vertex 3740.36823147015 4490.927526465175 0.0
    vertex 3738.8682314701505 4485.927526465176 0.0
  endloop
endfacet
facet normal 0.0 0.0 -1.0
  outer loop
    vertex 3733.36823147015 4482.9273239279455 0.0
    vertex 3736.350593379945 4483.995674812598 0.0
    vertex 3740.36823147015 4482.9273239279455 0.0
  endloop
endfacet
facet normal 0.0 0.0 -1.0
  outer loop
    vertex 3736.350593379945 4483.995674812598 0.0
    vertex 3733.36823147015 4482.9273239279455 0.0
    vertex 3735.8682314701505 4484.195475657607 0.0
  endloop
endfacet
facet normal 0.0 0.0 -1.0
  outer loop
    vertex 3735.8682314701505 4484.195475657607 0.0
    vertex 3733.36823147015 4482.9273239279455 0.0
    vertex 3735.454017907777 4484.513312902803 0.0
  endloop
endfacet
facet normal 0.0 0.0 -1.0
  outer loop
    vertex 3735.454017907777 4484.513312902803 0.0
    vertex 3733.36823147015 4482.9273239279455 0.0
    vertex 3735.1361806625814 4484.927526465175 0.0
  endloop
endfacet
facet normal 0.0 0.0 -1.0
  outer loop
    vertex 3735.1361806625814 4484.927526465175 0.0
    vertex 3733.36823147015 4482.9273239279455 0.0
    vertex 3734.936379817572 4485.40988837497 0.0
  endloop
endfacet
facet normal 0.0 0.0 -1.0
  outer loop
    vertex 3734.936379817572 4485.40988837497 0.0
    vertex 3733.36823147015 4482.9273239279455 0.0
    vertex 3734.8682314701496 4485.927526465176 0.0
  endloop
endfacet
facet normal 0.0 0.0 -1.0
  outer loop
    vertex 3734.936379817572 4485.40988837497 0.0
    vertex 3734.8682314701496 4485.927526465176 0.0
    vertex 3734.9023056438614 4485.668707420074 0.0
  endloop
endfacet
facet normal 0.0 0.0 -1.0
  outer loop
    vertex 3740.36823147015 4482.9273239279455 0.0
    vertex 3736.350593379945 4483.995674812598 0.0
    vertex 3736.86823147015 4483.927526465175 0.0
  endloop
endfacet
facet normal 0.0 0.0 -1.0
  outer loop
    vertex 3740.36823147015 4482.9273239279455 0.0
    vertex 3736.86823147015 4483.927526465175 0.0
    vertex 3737.385869560355 4483.995674812598 0.0
  endloop
endfacet
facet normal 0.0 0.0 -1.0
  outer loop
    vertex 3740.36823147015 4482.9273239279455 0.0
    vertex 3737.385869560355 4483.995674812598 0.0
    vertex 3737.86823147015 4484.195475657607 0.0
  endloop
endfacet
facet normal 0.0 0.0 -1.0
  outer loop
    vertex 3740.36823147015 4482.9273239279455 0.0
    vertex 3737.86823147015 4484.195475657607 0.0
    vertex 3738.282445032523 4484.513312902803 0.0
  endloop
endfacet
facet normal 0.0 0.0 -1.0
  outer loop
    vertex 3740.36823147015 4482.9273239279455 0.0
    vertex 3738.282445032523 4484.513312902803 0.0
    vertex 3738.6002822777186 4484.927526465175 0.0
  endloop
endfacet
facet normal 0.0 0.0 -1.0
  outer loop
    vertex 3740.36823147015 4482.9273239279455 0.0
    vertex 3738.6002822777186 4484.927526465175 0.0
    vertex 3738.800083122728 4485.40988837497 0.0
  endloop
endfacet
facet normal 0.0 0.0 -1.0
  outer loop
    vertex 3740.36823147015 4482.9273239279455 0.0
    vertex 3738.800083122728 4485.40988837497 0.0
    vertex 3738.834157296439 4485.668707420074 0.0
  endloop
endfacet
facet normal 0.0 0.0 -1.0
  outer loop
    vertex 3740.36823147015 4482.9273239279455 0.0
    vertex 3738.834157296439 4485.668707420074 0.0
    vertex 3738.8682314701505 4485.927526465176 0.0
  endloop
endfacet
facet normal 0.0 0.0 -1.0
  outer loop
    vertex 3740.36823147015 4482.9273239279455 0.0
    vertex 3738.8682314701505 4485.927526465176 0.0
    vertex 3740.36823147015 4490.927526465175 0.0
  endloop
endfacet
facet normal 0.0 -1.0 0.0
  outer loop
    vertex 3740.36823147015 4482.9273239279455 1.9999999999999996
    vertex 3733.36823147015 4482.9273239279455 0.0
    vertex 3740.36823147015 4482.9273239279455 0.0
  endloop
endfacet
facet normal 0.0 -1.0 0.0
  outer loop
    vertex 3733.36823147015 4482.9273239279455 0.0
    vertex 3740.36823147015 4482.9273239279455 1.9999999999999996
    vertex 3733.36823147015 4482.9273239279455 2.0
  endloop
endfacet
facet normal 0.13052619222013462 0.0 0.9914448613737995
  outer loop
    vertex 3736.86823147015 4488.927526465174 7.7
    vertex 3736.350593379945 4490.9275264651715 7.768148347421864
    vertex 3736.350593379945 4488.927526465174 7.768148347421864
  endloop
endfacet
facet normal 0.13052619222013462 0.0 0.9914448613737995
  outer loop
    vertex 3736.350593379945 4490.9275264651715 7.768148347421864
    vertex 3736.86823147015 4488.927526465174 7.7
    vertex 3736.86823147015 4490.9275264651715 7.7
  endloop
endfacet
facet normal 0.9238795325111372 -0.0 -0.3826834323654509
  outer loop
    vertex 3734.936379817572 4490.9275264651715 10.21763809020504
    vertex 3735.1361806625814 4488.927526465174 10.7
    vertex 3734.936379817572 4488.927526465174 10.21763809020504
  endloop
endfacet
facet normal 0.9238795325111372 -0.0 -0.3826834323654509
  outer loop
    vertex 3735.1361806625814 4488.927526465174 10.7
    vertex 3734.936379817572 4490.9275264651715 10.21763809020504
    vertex 3735.1361806625814 4490.9275264651715 10.7
  endloop
endfacet
facet normal -0.9238795325111372 -0.0 -0.3826834323654509
  outer loop
    vertex 3738.6002822777186 4490.9275264651715 10.7
    vertex 3738.800083122728 4488.927526465174 10.217638090205043
    vertex 3738.6002822777186 4488.927526465174 10.7
  endloop
endfacet
facet normal -0.9238795325111372 -0.0 -0.3826834323654509
  outer loop
    vertex 3738.800083122728 4488.927526465174 10.217638090205043
    vertex 3738.6002822777186 4490.9275264651715 10.7
    vertex 3738.800083122728 4490.9275264651715 10.217638090205043
  endloop
endfacet
facet normal -0.7933533402910817 -0.0 0.6087614290089206
  outer loop
    vertex 3738.6002822777186 4490.9275264651715 8.700000000000001
    vertex 3738.282445032523 4488.927526465174 8.285786437626905
    vertex 3738.6002822777186 4488.927526465174 8.700000000000001
  endloop
endfacet
facet normal -0.7933533402910817 -0.0 0.6087614290089206
  outer loop
    vertex 3738.282445032523 4488.927526465174 8.285786437626905
    vertex 3738.6002822777186 4490.9275264651715 8.700000000000001
    vertex 3738.282445032523 4490.9275264651715 8.285786437626905
  endloop
endfacet
facet normal -0.6087614290087562 -0.0 -0.793353340291208
  outer loop
    vertex 3738.282445032523 4490.9275264651715 11.114213562373095
    vertex 3737.86823147015 4488.927526465174 11.432050807568876
    vertex 3737.86823147015 4490.9275264651715 11.432050807568876
  endloop
endfacet
facet normal -0.6087614290087562 -0.0 -0.793353340291208
  outer loop
    vertex 3737.86823147015 4488.927526465174 11.432050807568876
    vertex 3738.282445032523 4490.9275264651715 11.114213562373095
    vertex 3738.282445032523 4488.927526465174 11.114213562373095
  endloop
endfacet
facet normal -0.9238795325111372 -0.0 0.3826834323654509
  outer loop
    vertex 3738.800083122728 4490.9275264651715 9.18236190979496
    vertex 3738.6002822777186 4488.927526465174 8.700000000000001
    vertex 3738.800083122728 4488.927526465174 9.18236190979496
  endloop
endfacet
facet normal -0.9238795325111372 -0.0 0.3826834323654509
  outer loop
    vertex 3738.6002822777186 4488.927526465174 8.700000000000001
    vertex 3738.800083122728 4490.9275264651715 9.18236190979496
    vertex 3738.6002822777186 4490.9275264651715 8.700000000000001
  endloop
endfacet
facet normal -0.6087614290087562 -0.0 0.793353340291208
  outer loop
    vertex 3738.282445032523 4488.927526465174 8.285786437626905
    vertex 3737.86823147015 4490.9275264651715 7.967949192431123
    vertex 3737.86823147015 4488.927526465174 7.967949192431123
  endloop
endfacet
facet normal -0.6087614290087562 -0.0 0.793353340291208
  outer loop
    vertex 3737.86823147015 4490.9275264651715 7.967949192431123
    vertex 3738.282445032523 4488.927526465174 8.285786437626905
    vertex 3738.282445032523 4490.9275264651715 8.285786437626905
  endloop
endfacet
facet normal 0.13052619222013462 -0.0 -0.9914448613737995
  outer loop
    vertex 3736.86823147015 4490.9275264651715 11.699999999999998
    vertex 3736.350593379945 4488.927526465174 11.631851652578135
    vertex 3736.350593379945 4490.9275264651715 11.631851652578135
  endloop
endfacet
facet normal 0.13052619222013462 -0.0 -0.9914448613737995
  outer loop
    vertex 3736.350593379945 4488.927526465174 11.631851652578135
    vertex 3736.86823147015 4490.9275264651715 11.699999999999998
    vertex 3736.86823147015 4488.927526465174 11.699999999999998
  endloop
endfacet
facet normal 0.6087614290087562 -0.0 -0.793353340291208
  outer loop
    vertex 3735.8682314701505 4490.9275264651715 11.432050807568874
    vertex 3735.454017907777 4488.927526465174 11.114213562373093
    vertex 3735.454017907777 4490.9275264651715 11.114213562373093
  endloop
endfacet
facet normal 0.6087614290087562 -0.0 -0.793353340291208
  outer loop
    vertex 3735.454017907777 4488.927526465174 11.114213562373093
    vertex 3735.8682314701505 4490.9275264651715 11.432050807568874
    vertex 3735.8682314701505 4488.927526465174 11.432050807568874
  endloop
endfacet
facet normal -0.3826834323650188 -0.0 0.9238795325113163
  outer loop
    vertex 3737.86823147015 4488.927526465174 7.967949192431123
    vertex 3737.385869560355 4490.9275264651715 7.768148347421864
    vertex 3737.385869560355 4488.927526465174 7.768148347421864
  endloop
endfacet
facet normal -0.3826834323650188 -0.0 0.9238795325113163
  outer loop
    vertex 3737.385869560355 4490.9275264651715 7.768148347421864
    vertex 3737.86823147015 4488.927526465174 7.967949192431123
    vertex 3737.86823147015 4490.9275264651715 7.967949192431123
  endloop
endfacet
facet normal -0.9914448613737743 -0.0 -0.13052619222032755
  outer loop
    vertex 3738.800083122728 4490.9275264651715 10.217638090205043
    vertex 3738.8682314701505 4488.927526465174 9.7
    vertex 3738.800083122728 4488.927526465174 10.217638090205043
  endloop
endfacet
facet normal -0.9914448613737743 -0.0 -0.13052619222032755
  outer loop
    vertex 3738.8682314701505 4488.927526465174 9.7
    vertex 3738.800083122728 4490.9275264651715 10.217638090205043
    vertex 3738.8682314701505 4490.9275264651715 9.7
  endloop
endfacet
facet normal -0.7933533402910808 -0.0 -0.6087614290089219
  outer loop
    vertex 3738.282445032523 4490.9275264651715 11.114213562373095
    vertex 3738.6002822777186 4488.927526465174 10.7
    vertex 3738.282445032523 4488.927526465174 11.114213562373095
  endloop
endfacet
facet normal -0.7933533402910808 -0.0 -0.6087614290089219
  outer loop
    vertex 3738.6002822777186 4488.927526465174 10.7
    vertex 3738.282445032523 4490.9275264651715 11.114213562373095
    vertex 3738.6002822777186 4490.9275264651715 10.7
  endloop
endfacet
facet normal -0.9914448613737742 -0.0 0.13052619222032824
  outer loop
    vertex 3738.8682314701505 4490.9275264651715 9.7
    vertex 3738.800083122728 4488.927526465174 9.18236190979496
    vertex 3738.8682314701505 4488.927526465174 9.7
  endloop
endfacet
facet normal -0.9914448613737742 -0.0 0.13052619222032824
  outer loop
    vertex 3738.800083122728 4488.927526465174 9.18236190979496
    vertex 3738.8682314701505 4490.9275264651715 9.7
    vertex 3738.800083122728 4490.9275264651715 9.18236190979496
  endloop
endfacet
facet normal -0.13052619222013462 -0.0 -0.9914448613737995
  outer loop
    vertex 3737.385869560355 4490.9275264651715 11.631851652578135
    vertex 3736.86823147015 4488.927526465174 11.699999999999998
    vertex 3736.86823147015 4490.9275264651715 11.699999999999998
  endloop
endfacet
facet normal -0.13052619222013462 -0.0 -0.9914448613737995
  outer loop
    vertex 3736.86823147015 4488.927526465174 11.699999999999998
    vertex 3737.385869560355 4490.9275264651715 11.631851652578135
    vertex 3737.385869560355 4488.927526465174 11.631851652578135
  endloop
endfacet
facet normal -0.13052619222013462 -0.0 0.9914448613737995
  outer loop
    vertex 3737.385869560355 4488.927526465174 7.768148347421864
    vertex 3736.86823147015 4490.9275264651715 7.7
    vertex 3736.86823147015 4488.927526465174 7.7
  endloop
endfacet
facet normal -0.13052619222013462 -0.0 0.9914448613737995
  outer loop
    vertex 3736.86823147015 4490.9275264651715 7.7
    vertex 3737.385869560355 4488.927526465174 7.768148347421864
    vertex 3737.385869560355 4490.9275264651715 7.768148347421864
  endloop
endfacet
facet normal -0.38268343236501645 -0.0 -0.9238795325113172
  outer loop
    vertex 3737.86823147015 4490.9275264651715 11.432050807568876
    vertex 3737.385869560355 4488.927526465174 11.631851652578135
    vertex 3737.385869560355 4490.9275264651715 11.631851652578135
  endloop
endfacet
facet normal -0.38268343236501645 -0.0 -0.9238795325113172
  outer loop
    vertex 3737.385869560355 4488.927526465174 11.631851652578135
    vertex 3737.86823147015 4490.9275264651715 11.432050807568876
    vertex 3737.86823147015 4488.927526465174 11.432050807568876
  endloop
endfacet
facet normal 0.9238795325111372 0.0 0.3826834323654509
  outer loop
    vertex 3735.1361806625814 4490.9275264651715 8.7
    vertex 3734.936379817572 4488.927526465174 9.182361909794958
    vertex 3735.1361806625814 4488.927526465174 8.7
  endloop
endfacet
facet normal 0.9238795325111372 0.0 0.3826834323654509
  outer loop
    vertex 3734.936379817572 4488.927526465174 9.182361909794958
    vertex 3735.1361806625814 4490.9275264651715 8.7
    vertex 3734.936379817572 4490.9275264651715 9.182361909794958
  endloop
endfacet
facet normal 0.7933533402910808 0.0 0.6087614290089219
  outer loop
    vertex 3735.454017907777 4490.9275264651715 8.285786437626905
    vertex 3735.1361806625814 4488.927526465174 8.7
    vertex 3735.454017907777 4488.927526465174 8.285786437626905
  endloop
endfacet
facet normal 0.7933533402910808 0.0 0.6087614290089219
  outer loop
    vertex 3735.1361806625814 4488.927526465174 8.7
    vertex 3735.454017907777 4490.9275264651715 8.285786437626905
    vertex 3735.1361806625814 4490.9275264651715 8.7
  endloop
endfacet
facet normal 0.7933533402910808 -0.0 -0.6087614290089219
  outer loop
    vertex 3735.1361806625814 4490.9275264651715 10.7
    vertex 3735.454017907777 4488.927526465174 11.114213562373093
    vertex 3735.1361806625814 4488.927526465174 10.7
  endloop
endfacet
facet normal 0.7933533402910808 -0.0 -0.6087614290089219
  outer loop
    vertex 3735.454017907777 4488.927526465174 11.114213562373093
    vertex 3735.1361806625814 4490.9275264651715 10.7
    vertex 3735.454017907777 4490.9275264651715 11.114213562373093
  endloop
endfacet
facet normal 0.9914448613737742 -0.0 -0.13052619222032788
  outer loop
    vertex 3734.8682314701496 4490.9275264651715 9.7
    vertex 3734.936379817572 4488.927526465174 10.21763809020504
    vertex 3734.8682314701496 4488.927526465174 9.7
  endloop
endfacet
facet normal 0.9914448613737742 -0.0 -0.13052619222032788
  outer loop
    vertex 3734.936379817572 4488.927526465174 10.21763809020504
    vertex 3734.8682314701496 4490.9275264651715 9.7
    vertex 3734.936379817572 4490.9275264651715 10.21763809020504
  endloop
endfacet
facet normal 0.6087614290087578 0.0 0.7933533402912067
  outer loop
    vertex 3735.8682314701505 4488.927526465174 7.9679491924311225
    vertex 3735.454017907777 4490.9275264651715 8.285786437626905
    vertex 3735.454017907777 4488.927526465174 8.285786437626905
  endloop
endfacet
facet normal 0.6087614290087578 0.0 0.7933533402912067
  outer loop
    vertex 3735.454017907777 4490.9275264651715 8.285786437626905
    vertex 3735.8682314701505 4488.927526465174 7.9679491924311225
    vertex 3735.8682314701505 4490.9275264651715 7.9679491924311225
  endloop
endfacet
facet normal 0.38268343236501645 0.0 0.9238795325113172
  outer loop
    vertex 3736.350593379945 4488.927526465174 7.768148347421864
    vertex 3735.8682314701505 4490.9275264651715 7.9679491924311225
    vertex 3735.8682314701505 4488.927526465174 7.9679491924311225
  endloop
endfacet
facet normal 0.38268343236501645 0.0 0.9238795325113172
  outer loop
    vertex 3735.8682314701505 4490.9275264651715 7.9679491924311225
    vertex 3736.350593379945 4488.927526465174 7.768148347421864
    vertex 3736.350593379945 4490.9275264651715 7.768148347421864
  endloop
endfacet
facet normal 0.3826834323650188 -0.0 -0.9238795325113163
  outer loop
    vertex 3736.350593379945 4490.9275264651715 11.631851652578135
    vertex 3735.8682314701505 4488.927526465174 11.432050807568874
    vertex 3735.8682314701505 4490.9275264651715 11.432050807568874
  endloop
endfacet
facet normal 0.3826834323650188 -0.0 -0.9238795325113163
  outer loop
    vertex 3735.8682314701505 4488.927526465174 11.432050807568874
    vertex 3736.350593379945 4490.9275264651715 11.631851652578135
    vertex 3736.350593379945 4488.927526465174 11.631851652578135
  endloop
endfacet
facet normal 0.9914448613737742 0.0 0.13052619222032788
  outer loop
    vertex 3734.936379817572 4490.9275264651715 9.182361909794958
    vertex 3734.8682314701496 4488.927526465174 9.7
    vertex 3734.936379817572 4488.927526465174 9.182361909794958
  endloop
endfacet
facet normal 0.9914448613737742 0.0 0.13052619222032788
  outer loop
    vertex 3734.8682314701496 4488.927526465174 9.7
    vertex 3734.936379817572 4490.9275264651715 9.182361909794958
    vertex 3734.8682314701496 4490.9275264651715 9.7
  endloop
endfacet
facet normal -1.0 0.0 0.0
  outer loop
    vertex 3733.36823147015 4490.927526465175 14.0
    vertex 3733.36823147015 4488.927526465174 1.9999999999999998
    vertex 3733.36823147015 4488.927526465174 14.0
  endloop
endfacet
facet normal -1.0 0.0 0.0
  outer loop
    vertex 3733.36823147015 4488.927526465174 1.9999999999999998
    vertex 3733.36823147015 4482.9273239279455 0.0
    vertex 3733.36823147015 4482.9273239279455 2.0
  endloop
endfacet
facet normal -1.0 0.0 0.0
  outer loop
    vertex 3733.36823147015 4482.9273239279455 0.0
    vertex 3733.36823147015 4488.927526465174 1.9999999999999998
    vertex 3733.36823147015 4490.927526465175 0.0
  endloop
endfacet
facet normal -1.0 0.0 0.0
  outer loop
    vertex 3733.36823147015 4490.927526465175 0.0
    vertex 3733.36823147015 4488.927526465174 1.9999999999999998
    vertex 3733.36823147015 4490.927526465175 14.0
  endloop
endfacet
facet normal -5.177220678836195e-33 -1.0 -1.762479051592201e-16
  outer loop
    vertex 3740.36823147015 4488.927526465174 1.9999999999999991
    vertex 3738.282445032523 4488.927526465174 8.285786437626905
    vertex 3733.36823147015 4488.927526465174 1.9999999999999998
  endloop
endfacet
facet normal -5.177220678836195e-33 -1.0 -1.762479051592201e-16
  outer loop
    vertex 3738.282445032523 4488.927526465174 8.285786437626905
    vertex 3740.36823147015 4488.927526465174 1.9999999999999991
    vertex 3738.6002822777186 4488.927526465174 8.700000000000001
  endloop
endfacet
facet normal -5.177220678836195e-33 -1.0 -1.762479051592201e-16
  outer loop
    vertex 3738.6002822777186 4488.927526465174 8.700000000000001
    vertex 3740.36823147015 4488.927526465174 1.9999999999999991
    vertex 3738.800083122728 4488.927526465174 9.18236190979496
  endloop
endfacet
facet normal -5.177220678836195e-33 -1.0 -1.762479051592201e-16
  outer loop
    vertex 3738.800083122728 4488.927526465174 9.18236190979496
    vertex 3740.36823147015 4488.927526465174 1.9999999999999991
    vertex 3740.36823147015 4488.927526465174 14.0
  endloop
endfacet
facet normal -5.177220678836195e-33 -1.0 -1.762479051592201e-16
  outer loop
    vertex 3733.36823147015 4488.927526465174 1.9999999999999998
    vertex 3738.282445032523 4488.927526465174 8.285786437626905
    vertex 3737.86823147015 4488.927526465174 7.967949192431123
  endloop
endfacet
facet normal -5.177220678836195e-33 -1.0 -1.762479051592201e-16
  outer loop
    vertex 3733.36823147015 4488.927526465174 1.9999999999999998
    vertex 3737.86823147015 4488.927526465174 7.967949192431123
    vertex 3737.385869560355 4488.927526465174 7.768148347421864
  endloop
endfacet
facet normal -5.177220678836195e-33 -1.0 -1.762479051592201e-16
  outer loop
    vertex 3733.36823147015 4488.927526465174 1.9999999999999998
    vertex 3737.385869560355 4488.927526465174 7.768148347421864
    vertex 3736.86823147015 4488.927526465174 7.7
  endloop
endfacet
facet normal -5.177220678836195e-33 -1.0 -1.762479051592201e-16
  outer loop
    vertex 3738.800083122728 4488.927526465174 9.18236190979496
    vertex 3740.36823147015 4488.927526465174 14.0
    vertex 3738.8682314701505 4488.927526465174 9.7
  endloop
endfacet
facet normal -5.177220678836195e-33 -1.0 -1.762479051592201e-16
  outer loop
    vertex 3738.8682314701505 4488.927526465174 9.7
    vertex 3740.36823147015 4488.927526465174 14.0
    vertex 3738.800083122728 4488.927526465174 10.217638090205043
  endloop
endfacet
facet normal -5.177220678836195e-33 -1.0 -1.762479051592201e-16
  outer loop
    vertex 3738.800083122728 4488.927526465174 10.217638090205043
    vertex 3740.36823147015 4488.927526465174 14.0
    vertex 3738.6002822777186 4488.927526465174 10.7
  endloop
endfacet
facet normal -5.177220678836195e-33 -1.0 -1.762479051592201e-16
  outer loop
    vertex 3738.6002822777186 4488.927526465174 10.7
    vertex 3740.36823147015 4488.927526465174 14.0
    vertex 3738.282445032523 4488.927526465174 11.114213562373095
  endloop
endfacet
facet normal -5.177220678836195e-33 -1.0 -1.762479051592201e-16
  outer loop
    vertex 3738.282445032523 4488.927526465174 11.114213562373095
    vertex 3740.36823147015 4488.927526465174 14.0
    vertex 3737.86823147015 4488.927526465174 11.432050807568876
  endloop
endfacet
facet normal -5.177220678836195e-33 -1.0 -1.762479051592201e-16
  outer loop
    vertex 3737.86823147015 4488.927526465174 11.432050807568876
    vertex 3740.36823147015 4488.927526465174 14.0
    vertex 3737.385869560355 4488.927526465174 11.631851652578135
  endloop
endfacet
facet normal -5.177220678836195e-33 -1.0 -1.762479051592201e-16
  outer loop
    vertex 3737.385869560355 4488.927526465174 11.631851652578135
    vertex 3740.36823147015 4488.927526465174 14.0
    vertex 3736.86823147015 4488.927526465174 11.699999999999998
  endloop
endfacet
facet normal -5.177220678836195e-33 -1.0 -1.762479051592201e-16
  outer loop
    vertex 3733.36823147015 4488.927526465174 1.9999999999999998
    vertex 3734.936379817572 4488.927526465174 9.182361909794958
    vertex 3733.36823147015 4488.927526465174 14.0
  endloop
endfacet
facet normal -5.177220678836195e-33 -1.0 -1.762479051592201e-16
  outer loop
    vertex 3734.936379817572 4488.927526465174 9.182361909794958
    vertex 3733.36823147015 4488.927526465174 1.9999999999999998
    vertex 3735.1361806625814 4488.927526465174 8.7
  endloop
endfacet
facet normal -5.177220678836195e-33 -1.0 -1.762479051592201e-16
  outer loop
    vertex 3735.1361806625814 4488.927526465174 8.7
    vertex 3733.36823147015 4488.927526465174 1.9999999999999998
    vertex 3735.454017907777 4488.927526465174 8.285786437626905
  endloop
endfacet
facet normal -5.177220678836195e-33 -1.0 -1.762479051592201e-16
  outer loop
    vertex 3735.454017907777 4488.927526465174 8.285786437626905
    vertex 3733.36823147015 4488.927526465174 1.9999999999999998
    vertex 3735.8682314701505 4488.927526465174 7.9679491924311225
  endloop
endfacet
facet normal -5.177220678836195e-33 -1.0 -1.762479051592201e-16
  outer loop
    vertex 3735.8682314701505 4488.927526465174 7.9679491924311225
    vertex 3733.36823147015 4488.927526465174 1.9999999999999998
    vertex 3736.350593379945 4488.927526465174 7.768148347421864
  endloop
endfacet
facet normal -5.177220678836195e-33 -1.0 -1.762479051592201e-16
  outer loop
    vertex 3736.350593379945 4488.927526465174 7.768148347421864
    vertex 3733.36823147015 4488.927526465174 1.9999999999999998
    vertex 3736.86823147015 4488.927526465174 7.7
  endloop
endfacet
facet normal -5.177220678836195e-33 -1.0 -1.762479051592201e-16
  outer loop
    vertex 3733.36823147015 4488.927526465174 14.0
    vertex 3734.936379817572 4488.927526465174 9.182361909794958
    vertex 3734.8682314701496 4488.927526465174 9.7
  endloop
endfacet
facet normal -5.177220678836195e-33 -1.0 -1.762479051592201e-16
  outer loop
    vertex 3733.36823147015 4488.927526465174 14.0
    vertex 3734.8682314701496 4488.927526465174 9.7
    vertex 3734.936379817572 4488.927526465174 10.21763809020504
  endloop
endfacet
facet normal -5.177220678836195e-33 -1.0 -1.762479051592201e-16
  outer loop
    vertex 3733.36823147015 4488.927526465174 14.0
    vertex 3734.936379817572 4488.927526465174 10.21763809020504
    vertex 3735.1361806625814 4488.927526465174 10.7
  endloop
endfacet
facet normal -5.177220678836195e-33 -1.0 -1.762479051592201e-16
  outer loop
    vertex 3733.36823147015 4488.927526465174 14.0
    vertex 3735.1361806625814 4488.927526465174 10.7
    vertex 3735.454017907777 4488.927526465174 11.114213562373093
  endloop
endfacet
facet normal -5.177220678836195e-33 -1.0 -1.762479051592201e-16
  outer loop
    vertex 3733.36823147015 4488.927526465174 14.0
    vertex 3735.454017907777 4488.927526465174 11.114213562373093
    vertex 3735.8682314701505 4488.927526465174 11.432050807568874
  endloop
endfacet
facet normal -5.177220678836195e-33 -1.0 -1.762479051592201e-16
  outer loop
    vertex 3733.36823147015 4488.927526465174 14.0
    vertex 3735.8682314701505 4488.927526465174 11.432050807568874
    vertex 3736.350593379945 4488.927526465174 11.631851652578135
  endloop
endfacet
facet normal -5.177220678836195e-33 -1.0 -1.762479051592201e-16
  outer loop
    vertex 3733.36823147015 4488.927526465174 14.0
    vertex 3736.350593379945 4488.927526465174 11.631851652578135
    vertex 3736.86823147015 4488.927526465174 11.699999999999998
  endloop
endfacet
facet normal -5.177220678836195e-33 -1.0 -1.762479051592201e-16
  outer loop
    vertex 3733.36823147015 4488.927526465174 14.0
    vertex 3736.86823147015 4488.927526465174 11.699999999999998
    vertex 3740.36823147015 4488.927526465174 14.0
  endloop
endfacet
facet normal 1.4687325429936773e-17 -1.7624790515922007e-16 1.0
  outer loop
    vertex 3740.36823147015 4488.927526465174 14.0
    vertex 3733.36823147015 4490.927526465175 14.0
    vertex 3733.36823147015 4488.927526465174 14.0
  endloop
endfacet
facet normal 1.4687325429936773e-17 -1.7624790515922007e-16 1.0
  outer loop
    vertex 3733.36823147015 4490.927526465175 14.0
    vertex 3740.36823147015 4488.927526465174 14.0
    vertex 3740.36823147015 4490.927526465175 14.0
  endloop
endfacet
endsolid ChannelAdapter
