solid FTCField
facet normal 0.7071067811865417 0.7071067811865535 0.0
  outer loop
    vertex 685.358495013326 947.5758869210712 29.495499999999996
    vertex 687.4798153568856 945.4545665775115 19.335499999999996
    vertex 685.358495013326 947.5758869210712 19.335499999999996
  endloop
endfacet
facet normal 0.7071067811865417 0.7071067811865535 0.0
  outer loop
    vertex 687.4798153568856 945.4545665775115 19.335499999999996
    vertex 685.358495013326 947.5758869210712 29.495499999999996
    vertex 687.4798153568856 945.4545665775115 29.495499999999996
  endloop
endfacet
facet normal 0.2627706375301578 0.26277063753016144 0.9283874105695247
  outer loop
    vertex 698.5790403810212 960.7964322887666 19.335499999999996
    vertex 740.6491239260282 972.570356088209 4.095500000000042
    vertex 686.8051165815791 972.5703560882084 19.335499999999996
  endloop
endfacet
facet normal 0.2627706375301578 0.26277063753016144 0.9283874105695247
  outer loop
    vertex 740.6491239260282 972.570356088209 4.095500000000042
    vertex 698.5790403810212 960.7964322887666 19.335499999999996
    vertex 750.6710897571415 962.5483902570958 4.095500000000042
  endloop
endfacet
facet normal -0.03361296015994264 0.9994349247996522 0.0
  outer loop
    vertex 698.5790403810212 960.7964322887666 19.335499999999996
    vertex 750.6710897571415 962.5483902570958 11.620499999999996
    vertex 750.6710897571415 962.5483902570958 4.095500000000042
  endloop
endfacet
facet normal -0.03361296015994264 0.9994349247996522 0.0
  outer loop
    vertex 750.6710897571415 962.5483902570958 11.620499999999996
    vertex 698.5790403810212 960.7964322887666 19.335499999999996
    vertex 698.5790403810212 960.7964322887666 30.495499999999993
  endloop
endfacet
facet normal -0.03361296015994264 0.9994349247996522 0.0
  outer loop
    vertex 698.5790403810212 960.7964322887666 30.495499999999993
    vertex 698.5790403810212 960.7964322887666 19.335499999999996
    vertex 698.5790403810212 960.7964322887666 29.495499999999996
  endloop
endfacet
facet normal -8.770761894538735e-15 1.0 9.646806470555402e-16
  outer loop
    vertex 673.5845712138838 972.5703560882082 19.335499999999996
    vertex 740.6491239260282 972.570356088209 2.0954999999999977
    vertex 673.5845712138838 972.5703560882082 2.0954999999999977
  endloop
endfacet
facet normal -8.770761894538735e-15 1.0 9.646806470555402e-16
  outer loop
    vertex 740.6491239260282 972.570356088209 2.0954999999999977
    vertex 673.5845712138838 972.5703560882082 19.335499999999996
    vertex 740.6491239260282 972.570356088209 4.095500000000042
  endloop
endfacet
facet normal -8.770761894538735e-15 1.0 9.646806470555402e-16
  outer loop
    vertex 740.6491239260282 972.570356088209 4.095500000000042
    vertex 673.5845712138838 972.5703560882082 19.335499999999996
    vertex 686.8051165815791 972.5703560882084 19.335499999999996
  endloop
endfacet
facet normal 0.7071067811865535 -0.7071067811865417 0.0
  outer loop
    vertex 700.700360724581 958.6751119452069 29.495499999999996
    vertex 687.4798153568856 945.4545665775115 32.995499999999986
    vertex 687.4798153568856 945.4545665775115 29.495499999999996
  endloop
endfacet
facet normal 0.7071067811865535 -0.7071067811865417 0.0
  outer loop
    vertex 687.4798153568856 945.4545665775115 32.995499999999986
    vertex 700.700360724581 958.6751119452069 29.495499999999996
    vertex 700.700360724581 958.6751119452069 32.995499999999986
  endloop
endfacet
facet normal -0.2871382345582605 -0.40285732887489434 0.8690555832779343
  outer loop
    vertex 687.4798153568856 945.4545665775115 32.995499999999986
    vertex 685.2108407689518 943.1855919895776 31.19402443348687
    vertex 687.4720367165901 899.3493372165432 11.620499999999996
  endloop
endfacet
facet normal 0.0 0.0 -1.0
  outer loop
    vertex 698.5790403810212 960.7964322887666 29.495499999999996
    vertex 687.4798153568856 945.4545665775115 29.495499999999996
    vertex 685.358495013326 947.5758869210712 29.495499999999996
  endloop
endfacet
facet normal 0.0 0.0 -1.0
  outer loop
    vertex 687.4798153568856 945.4545665775115 29.495499999999996
    vertex 698.5790403810212 960.7964322887666 29.495499999999996
    vertex 700.700360724581 958.6751119452069 29.495499999999996
  endloop
endfacet
facet normal -0.2627706375301573 -0.26277063753016233 0.9283874105695245
  outer loop
    vertex 673.5845712138844 905.5058033760639 4.095499999999998
    vertex 685.358495013326 947.5758869210712 19.335499999999996
    vertex 673.5845712138839 959.349810720513 19.335499999999996
  endloop
endfacet
facet normal -0.2627706375301573 -0.26277063753016233 0.9283874105695245
  outer loop
    vertex 685.358495013326 947.5758869210712 19.335499999999996
    vertex 673.5845712138844 905.5058033760639 4.095499999999998
    vertex 683.6065370449977 895.4838375449507 4.095499999999998
  endloop
endfacet
facet normal 0.7071067811865417 0.7071067811865535 0.0
  outer loop
    vertex 740.6491239260282 972.570356088209 4.095500000000042
    vertex 750.6710897571415 962.5483902570958 2.0954999999999977
    vertex 740.6491239260282 972.570356088209 2.0954999999999977
  endloop
endfacet
facet normal 0.7071067811865417 0.7071067811865535 0.0
  outer loop
    vertex 750.6710897571415 962.5483902570958 2.0954999999999977
    vertex 740.6491239260282 972.570356088209 4.095500000000042
    vertex 750.6710897571415 962.5483902570958 4.095500000000042
  endloop
endfacet
facet normal 0.7071067811865535 -0.7071067811865417 0.0
  outer loop
    vertex 750.6710897571415 962.5483902570958 2.0954999999999977
    vertex 746.805590085549 958.6828905855033 2.825500000000022
    vertex 746.805590085549 958.6828905855033 2.0954999999999977
  endloop
endfacet
facet normal 0.7071067811865535 -0.7071067811865417 0.0
  outer loop
    vertex 746.805590085549 958.6828905855033 2.825500000000022
    vertex 750.6710897571415 962.5483902570958 2.0954999999999977
    vertex 746.805590085549 958.6828905855033 11.620499999999996
  endloop
endfacet
facet normal 0.7071067811865535 -0.7071067811865417 0.0
  outer loop
    vertex 746.805590085549 958.6828905855033 11.620499999999996
    vertex 750.6710897571415 962.5483902570958 2.0954999999999977
    vertex 750.6710897571415 962.5483902570958 11.620499999999996
  endloop
endfacet
facet normal 0.7071067811865535 -0.7071067811865417 0.0
  outer loop
    vertex 750.6710897571415 962.5483902570958 11.620499999999996
    vertex 750.6710897571415 962.5483902570958 2.0954999999999977
    vertex 750.6710897571415 962.5483902570958 4.095500000000042
  endloop
endfacet
facet normal 0.9999999857676375 -0.00016871492220638107 6.26713349155558e-16
  outer loop
    vertex 687.4798153568856 945.4545665775115 19.335499999999996
    vertex 687.4720367165901 899.3493372165432 11.620499999999996
    vertex 687.4720367165901 899.3493372165432 2.8254999999999972
  endloop
endfacet
facet normal 0.9999999857676375 -0.00016871492220638107 6.26713349155558e-16
  outer loop
    vertex 687.4720367165901 899.3493372165432 11.620499999999996
    vertex 687.4798153568856 945.4545665775115 19.335499999999996
    vertex 687.4798153568856 945.4545665775115 32.995499999999986
  endloop
endfacet
facet normal 0.9999999857676375 -0.00016871492220638107 6.26713349155558e-16
  outer loop
    vertex 687.4798153568856 945.4545665775115 32.995499999999986
    vertex 687.4798153568856 945.4545665775115 19.335499999999996
    vertex 687.4798153568856 945.4545665775115 29.495499999999996
  endloop
endfacet
facet normal -0.34615857245279874 -0.3461585724528045 0.871979635906067
  outer loop
    vertex 687.4798153568856 945.4545665775115 32.995499999999986
    vertex 685.358495013326 947.5758869210712 32.995499999999986
    vertex 685.2108407689518 943.1855919895776 31.19402443348687
  endloop
endfacet
facet normal 0.0 0.0 1.0
  outer loop
    vertex 687.4798153568856 945.4545665775115 32.995499999999986
    vertex 698.5790403810212 960.7964322887666 32.995499999999986
    vertex 685.358495013326 947.5758869210712 32.995499999999986
  endloop
endfacet
facet normal 0.0 0.0 1.0
  outer loop
    vertex 698.5790403810212 960.7964322887666 32.995499999999986
    vertex 687.4798153568856 945.4545665775115 32.995499999999986
    vertex 700.700360724581 958.6751119452069 32.995499999999986
  endloop
endfacet
facet normal 0.4028573288748984 0.2871382345582425 0.8690555832779384
  outer loop
    vertex 746.805590085549 958.6828905855033 11.620499999999996
    vertex 702.9693353125151 960.9440865331411 31.194024433486746
    vertex 700.700360724581 958.6751119452069 32.995499999999986
  endloop
endfacet
facet normal 0.0 0.0 -1.0
  outer loop
    vertex 740.6491239260282 972.570356088209 2.0954999999999977
    vertex 673.5845712138844 905.5058033760639 2.0954999999999977
    vertex 673.5845712138838 972.5703560882082 2.0954999999999977
  endloop
endfacet
facet normal 0.0 0.0 -1.0
  outer loop
    vertex 673.5845712138844 905.5058033760639 2.0954999999999977
    vertex 740.6491239260282 972.570356088209 2.0954999999999977
    vertex 683.6065370449977 895.4838375449507 2.0954999999999977
  endloop
endfacet
facet normal 0.0 0.0 -1.0
  outer loop
    vertex 683.6065370449977 895.4838375449507 2.0954999999999977
    vertex 740.6491239260282 972.570356088209 2.0954999999999977
    vertex 746.805590085549 958.6828905855033 2.0954999999999977
  endloop
endfacet
facet normal 0.0 0.0 -1.0
  outer loop
    vertex 746.805590085549 958.6828905855033 2.0954999999999977
    vertex 740.6491239260282 972.570356088209 2.0954999999999977
    vertex 750.6710897571415 962.5483902570958 2.0954999999999977
  endloop
endfacet
facet normal 0.3640226538353798 -0.36402265383537374 0.8573068382961254
  outer loop
    vertex 687.4720367165901 899.3493372165432 11.620499999999996
    vertex 685.2108407689518 943.1855919895776 31.19402443348687
    vertex 683.6065370449977 895.4838375449507 11.620499999999996
  endloop
endfacet
facet normal 0.3640226538353753 -0.3640226538353798 0.8573068382961248
  outer loop
    vertex 750.6710897571415 962.5483902570958 11.620499999999996
    vertex 702.9693353125151 960.9440865331411 31.194024433486746
    vertex 746.805590085549 958.6828905855033 11.620499999999996
  endloop
endfacet
facet normal -1.0 -8.326672684688674e-15 1.152669781465769e-15
  outer loop
    vertex 673.5845712138839 959.349810720513 19.335499999999996
    vertex 673.5845712138844 905.5058033760639 2.0954999999999977
    vertex 673.5845712138844 905.5058033760639 4.095499999999998
  endloop
endfacet
facet normal -1.0 -8.326672684688674e-15 1.152669781465769e-15
  outer loop
    vertex 673.5845712138844 905.5058033760639 2.0954999999999977
    vertex 673.5845712138839 959.349810720513 19.335499999999996
    vertex 673.5845712138838 972.5703560882082 2.0954999999999977
  endloop
endfacet
facet normal -1.0 -8.326672684688674e-15 1.152669781465769e-15
  outer loop
    vertex 673.5845712138838 972.5703560882082 2.0954999999999977
    vertex 673.5845712138839 959.349810720513 19.335499999999996
    vertex 673.5845712138838 972.5703560882082 19.335499999999996
  endloop
endfacet
facet normal -0.7071067811865535 0.7071067811865417 0.0
  outer loop
    vertex 698.5790403810212 960.7964322887666 32.995499999999986
    vertex 685.358495013326 947.5758869210712 29.495499999999996
    vertex 685.358495013326 947.5758869210712 32.995499999999986
  endloop
endfacet
facet normal -0.7071067811865535 0.7071067811865417 0.0
  outer loop
    vertex 685.358495013326 947.5758869210712 29.495499999999996
    vertex 698.5790403810212 960.7964322887666 32.995499999999986
    vertex 698.5790403810212 960.7964322887666 29.495499999999996
  endloop
endfacet
facet normal -0.7071067811865535 0.7071067811865417 0.0
  outer loop
    vertex 698.5790403810212 960.7964322887666 29.495499999999996
    vertex 698.5790403810212 960.7964322887666 32.995499999999986
    vertex 698.5790403810212 960.7964322887666 30.495499999999993
  endloop
endfacet
facet normal 0.3195070535602515 -0.3195070535602465 0.8920933165597065
  outer loop
    vertex 746.805590085549 958.6828905855033 2.825500000000022
    vertex 687.4798153568856 945.4545665775115 19.335499999999996
    vertex 687.4720367165901 899.3493372165432 2.8254999999999972
  endloop
endfacet
facet normal 0.3195070535602515 -0.3195070535602465 0.8920933165597065
  outer loop
    vertex 687.4798153568856 945.4545665775115 19.335499999999996
    vertex 746.805590085549 958.6828905855033 2.825500000000022
    vertex 700.700360724581 958.6751119452069 19.335499999999996
  endloop
endfacet
facet normal -0.7071067811865417 -0.7071067811865535 0.0
  outer loop
    vertex 700.700360724581 958.6751119452069 29.495499999999996
    vertex 698.5790403810212 960.7964322887666 19.335499999999996
    vertex 700.700360724581 958.6751119452069 19.335499999999996
  endloop
endfacet
facet normal -0.7071067811865417 -0.7071067811865535 0.0
  outer loop
    vertex 698.5790403810212 960.7964322887666 19.335499999999996
    vertex 700.700360724581 958.6751119452069 29.495499999999996
    vertex 698.5790403810212 960.7964322887666 29.495499999999996
  endloop
endfacet
facet normal -0.7071067811865417 -0.7071067811865535 0.0
  outer loop
    vertex 683.6065370449977 895.4838375449507 4.095499999999998
    vertex 673.5845712138844 905.5058033760639 2.0954999999999977
    vertex 683.6065370449977 895.4838375449507 2.0954999999999977
  endloop
endfacet
facet normal -0.7071067811865417 -0.7071067811865535 0.0
  outer loop
    vertex 673.5845712138844 905.5058033760639 2.0954999999999977
    vertex 683.6065370449977 895.4838375449507 4.095499999999998
    vertex 673.5845712138844 905.5058033760639 4.095499999999998
  endloop
endfacet
facet normal 0.7071067811865535 -0.7071067811865417 0.0
  outer loop
    vertex 683.6065370449977 895.4838375449507 2.0954999999999977
    vertex 687.4720367165901 899.3493372165432 2.8254999999999972
    vertex 683.6065370449977 895.4838375449507 4.095499999999998
  endloop
endfacet
facet normal 0.7071067811865535 -0.7071067811865417 0.0
  outer loop
    vertex 687.4720367165901 899.3493372165432 2.8254999999999972
    vertex 683.6065370449977 895.4838375449507 2.0954999999999977
    vertex 746.805590085549 958.6828905855033 2.0954999999999977
  endloop
endfacet
facet normal 0.7071067811865535 -0.7071067811865417 0.0
  outer loop
    vertex 683.6065370449977 895.4838375449507 4.095499999999998
    vertex 687.4720367165901 899.3493372165432 2.8254999999999972
    vertex 683.6065370449977 895.4838375449507 11.620499999999996
  endloop
endfacet
facet normal 0.7071067811865535 -0.7071067811865417 0.0
  outer loop
    vertex 687.4720367165901 899.3493372165432 2.8254999999999972
    vertex 746.805590085549 958.6828905855033 2.0954999999999977
    vertex 746.805590085549 958.6828905855033 2.825500000000022
  endloop
endfacet
facet normal 0.7071067811865535 -0.7071067811865417 0.0
  outer loop
    vertex 687.4720367165901 899.3493372165432 11.620499999999996
    vertex 683.6065370449977 895.4838375449507 11.620499999999996
    vertex 687.4720367165901 899.3493372165432 2.8254999999999972
  endloop
endfacet
facet normal 0.0 0.0 1.0
  outer loop
    vertex 673.5845712138839 959.349810720513 19.335499999999996
    vertex 686.8051165815791 972.5703560882084 19.335499999999996
    vertex 673.5845712138838 972.5703560882082 19.335499999999996
  endloop
endfacet
facet normal 0.0 0.0 1.0
  outer loop
    vertex 686.8051165815791 972.5703560882084 19.335499999999996
    vertex 673.5845712138839 959.349810720513 19.335499999999996
    vertex 685.358495013326 947.5758869210712 19.335499999999996
  endloop
endfacet
facet normal 0.0 0.0 1.0
  outer loop
    vertex 686.8051165815791 972.5703560882084 19.335499999999996
    vertex 685.358495013326 947.5758869210712 19.335499999999996
    vertex 687.4798153568856 945.4545665775115 19.335499999999996
  endloop
endfacet
facet normal 0.0 0.0 1.0
  outer loop
    vertex 686.8051165815791 972.5703560882084 19.335499999999996
    vertex 687.4798153568856 945.4545665775115 19.335499999999996
    vertex 698.5790403810212 960.7964322887666 19.335499999999996
  endloop
endfacet
facet normal 0.0 0.0 1.0
  outer loop
    vertex 698.5790403810212 960.7964322887666 19.335499999999996
    vertex 687.4798153568856 945.4545665775115 19.335499999999996
    vertex 700.700360724581 958.6751119452069 19.335499999999996
  endloop
endfacet
facet normal 0.34615857245278076 0.3461585724527864 0.8719796359060813
  outer loop
    vertex 702.9693353125151 960.9440865331411 31.194024433486746
    vertex 698.5790403810212 960.7964322887666 32.995499999999986
    vertex 700.700360724581 958.6751119452069 32.995499999999986
  endloop
endfacet
facet normal -0.03361296015994325 0.9994349247996521 -2.2355121283733382e-14
  outer loop
    vertex 698.5790403810212 960.7964322887666 30.495499999999993
    vertex 702.9693353125151 960.9440865331411 31.194024433486746
    vertex 750.6710897571415 962.5483902570958 11.620499999999996
  endloop
endfacet
facet normal -0.03361296015994325 0.9994349247996521 -2.2355121283733382e-14
  outer loop
    vertex 702.9693353125151 960.9440865331411 31.194024433486746
    vertex 698.5790403810212 960.7964322887666 30.495499999999993
    vertex 698.5790403810212 960.7964322887666 32.995499999999986
  endloop
endfacet
facet normal -0.9994349247996528 0.03361296015992499 3.4471095250722145e-15
  outer loop
    vertex 685.2108407689518 943.1855919895776 31.19402443348687
    vertex 683.6065370449977 895.4838375449507 4.095499999999998
    vertex 683.6065370449977 895.4838375449507 11.620499999999996
  endloop
endfacet
facet normal -0.9994349247996528 0.03361296015992499 3.4471095250722145e-15
  outer loop
    vertex 683.6065370449977 895.4838375449507 4.095499999999998
    vertex 685.2108407689518 943.1855919895776 31.19402443348687
    vertex 685.358495013326 947.5758869210712 19.335499999999996
  endloop
endfacet
facet normal -0.9994349247996528 0.03361296015992499 3.4471095250722145e-15
  outer loop
    vertex 685.358495013326 947.5758869210712 19.335499999999996
    vertex 685.2108407689518 943.1855919895776 31.19402443348687
    vertex 685.358495013326 947.5758869210712 32.995499999999986
  endloop
endfacet
facet normal -0.9994349247996528 0.03361296015992499 3.4471095250722145e-15
  outer loop
    vertex 685.358495013326 947.5758869210712 19.335499999999996
    vertex 685.358495013326 947.5758869210712 32.995499999999986
    vertex 685.358495013326 947.5758869210712 29.495499999999996
  endloop
endfacet
facet normal 0.00016871492222303441 -0.9999999857676375 1.2534266983111193e-15
  outer loop
    vertex 746.805590085549 958.6828905855033 11.620499999999996
    vertex 700.700360724581 958.6751119452069 19.335499999999996
    vertex 746.805590085549 958.6828905855033 2.825500000000022
  endloop
endfacet
facet normal 0.00016871492222303441 -0.9999999857676375 1.2534266983111193e-15
  outer loop
    vertex 700.700360724581 958.6751119452069 19.335499999999996
    vertex 746.805590085549 958.6828905855033 11.620499999999996
    vertex 700.700360724581 958.6751119452069 32.995499999999986
  endloop
endfacet
facet normal 0.00016871492222303441 -0.9999999857676375 1.2534266983111193e-15
  outer loop
    vertex 700.700360724581 958.6751119452069 19.335499999999996
    vertex 700.700360724581 958.6751119452069 32.995499999999986
    vertex 700.700360724581 958.6751119452069 29.495499999999996
  endloop
endfacet
endsolid FTCField
