solid Cube
facet normal -2.406371398440873e-16 1.0 -1.1040998181081646e-16
  outer loop
    vertex 395.15433539262807 40412.85097030842 40000.00000000001
    vertex 40395.15433539262 40412.85097030842 0.0
    vertex 395.15433539261244 40412.850970308406 0.0
  endloop
endfacet
facet normal -2.406371398440873e-16 1.0 -1.1040998181081646e-16
  outer loop
    vertex 40395.15433539262 40412.85097030842 0.0
    vertex 395.15433539262807 40412.85097030842 40000.00000000001
    vertex 40395.154335392624 40412.85097030842 40000.00000000001
  endloop
endfacet
facet normal 1.0 4.812742796881746e-17 -1.9682560246221594e-33
  outer loop
    vertex 40395.154335392624 412.8509703084261 0.0
    vertex 40395.154335392624 40412.85097030842 40000.00000000001
    vertex 40395.15433539262 412.8509703084189 40000.0
  endloop
endfacet
facet normal 1.0 4.812742796881746e-17 -1.9682560246221594e-33
  outer loop
    vertex 40395.154335392624 40412.85097030842 40000.00000000001
    vertex 40395.154335392624 412.8509703084261 0.0
    vertex 40395.15433539262 40412.85097030842 0.0
  endloop
endfacet
facet normal -1.5108574708782346e-16 -1.0 1.665552775063718e-16
  outer loop
    vertex 40395.15433539262 412.8509703084189 40000.0
    vertex 395.15433539262807 412.8509703084218 0.0
    vertex 40395.154335392624 412.8509703084261 0.0
  endloop
endfacet
facet normal -1.5108574708782346e-16 -1.0 1.665552775063718e-16
  outer loop
    vertex 395.15433539262807 412.8509703084218 0.0
    vertex 40395.15433539262 412.8509703084189 40000.0
    vertex 395.15433539261244 412.85097030844196 40000.0
  endloop
endfacet
facet normal -1.0 -5.575476588351846e-17 -5.575476588351837e-17
  outer loop
    vertex 395.15433539261244 412.85097030844196 40000.0
    vertex 395.15433539261244 40412.850970308406 0.0
    vertex 395.15433539262807 412.8509703084218 0.0
  endloop
endfacet
facet normal -1.0 -5.575476588351846e-17 -5.575476588351837e-17
  outer loop
    vertex 395.15433539261244 40412.850970308406 0.0
    vertex 395.15433539261244 412.85097030844196 40000.0
    vertex 395.15433539262807 40412.85097030842 40000.00000000001
  endloop
endfacet
facet normal 0.0 0.0 -1.0
  outer loop
    vertex 40395.15433539262 40412.85097030842 0.0
    vertex 395.15433539262807 412.8509703084218 0.0
    vertex 395.15433539261244 40412.850970308406 0.0
  endloop
endfacet
facet normal 0.0 0.0 -1.0
  outer loop
    vertex 395.15433539262807 412.8509703084218 0.0
    vertex 40395.15433539262 40412.85097030842 0.0
    vertex 40395.154335392624 412.8509703084261 0.0
  endloop
endfacet
facet normal -3.3357325648694435e-32 -1.443822839064524e-16 1.0
  outer loop
    vertex 40395.15433539262 412.8509703084189 40000.0
    vertex 395.15433539262807 40412.85097030842 40000.00000000001
    vertex 395.15433539261244 412.85097030844196 40000.0
  endloop
endfacet
facet normal -3.3357325648694435e-32 -1.443822839064524e-16 1.0
  outer loop
    vertex 395.15433539262807 40412.85097030842 40000.00000000001
    vertex 40395.15433539262 412.8509703084189 40000.0
    vertex 40395.154335392624 40412.85097030842 40000.00000000001
  endloop
endfacet
endsolid Cube
