solid Untitled-58fe430b
facet normal 0.0 0.0 -1.0
  outer loop
    vertex 20395.154335392624 20412.85097030842 0.0
    vertex 395.15433539262807 412.8509703084218 0.0
    vertex 395.15433539262807 20412.85097030842 0.0
  endloop
endfacet
facet normal 0.0 0.0 -1.0
  outer loop
    vertex 395.15433539262807 412.8509703084218 0.0
    vertex 20395.154335392624 20412.85097030842 0.0
    vertex 20395.154335392624 412.8509703084218 0.0
  endloop
endfacet
facet normal -0.0 1.0 0.0
  outer loop
    vertex 395.15433539262807 20412.85097030842 20000.0
    vertex 20395.154335392624 20412.85097030842 0.0
    vertex 395.15433539262807 20412.85097030842 0.0
  endloop
endfacet
facet normal -0.0 1.0 0.0
  outer loop
    vertex 20395.154335392624 20412.85097030842 0.0
    vertex 395.15433539262807 20412.85097030842 20000.0
    vertex 20395.154335392624 20412.85097030842 20000.0
  endloop
endfacet
facet normal -0.0 -0.0 1.0
  outer loop
    vertex 20395.154335392624 412.8509703084218 20000.0
    vertex 395.15433539262807 20412.85097030842 20000.0
    vertex 395.15433539262807 412.8509703084218 20000.0
  endloop
endfacet
facet normal -0.0 -0.0 1.0
  outer loop
    vertex 395.15433539262807 20412.85097030842 20000.0
    vertex 20395.154335392624 412.8509703084218 20000.0
    vertex 20395.154335392624 20412.85097030842 20000.0
  endloop
endfacet
facet normal -1.0 0.0 0.0
  outer loop
    vertex 395.15433539262807 20412.85097030842 20000.0
    vertex 395.15433539262807 412.8509703084218 0.0
    vertex 395.15433539262807 412.8509703084218 20000.0
  endloop
endfacet
facet normal -1.0 0.0 0.0
  outer loop
    vertex 395.15433539262807 412.8509703084218 0.0
    vertex 395.15433539262807 20412.85097030842 20000.0
    vertex 395.15433539262807 20412.85097030842 0.0
  endloop
endfacet
facet normal 1.0 0.0 0.0
  outer loop
    vertex 20395.154335392624 20412.85097030842 0.0
    vertex 20395.154335392624 412.8509703084218 20000.0
    vertex 20395.154335392624 412.8509703084218 0.0
  endloop
endfacet
facet normal 1.0 0.0 0.0
  outer loop
    vertex 20395.154335392624 412.8509703084218 20000.0
    vertex 20395.154335392624 20412.85097030842 0.0
    vertex 20395.154335392624 20412.85097030842 20000.0
  endloop
endfacet
facet normal -0.0 -1.0 -0.0
  outer loop
    vertex 20395.154335392624 412.8509703084218 20000.0
    vertex 395.15433539262807 412.8509703084218 0.0
    vertex 20395.154335392624 412.8509703084218 0.0
  endloop
endfacet
facet normal -0.0 -1.0 -0.0
  outer loop
    vertex 395.15433539262807 412.8509703084218 0.0
    vertex 20395.154335392624 412.8509703084218 20000.0
    vertex 395.15433539262807 412.8509703084218 20000.0
  endloop
endfacet
endsolid Untitled-58fe430b
