solid CutPVCBeaconPusher
facet normal 0.0 0.0 1.0
  outer loop
    vertex 32722.830005126645 41843.85894988847 2997.000000000002
    vertex 46487.27302974586 45532.03034259939 2997.000000000002
    vertex 32237.273029745862 45532.03034259939 2997.000000000002
  endloop
endfacet
facet normal 0.0 0.0 1.0
  outer loop
    vertex 46487.27302974586 45532.03034259939 2997.000000000002
    vertex 32722.830005126645 41843.85894988847 2997.000000000002
    vertex 34146.411025817615 38407.030342599384 2997.000000000002
  endloop
endfacet
facet normal 0.0 0.0 1.0
  outer loop
    vertex 46487.27302974586 45532.03034259939 2997.000000000002
    vertex 34146.411025817615 38407.030342599384 2997.000000000002
    vertex 36411.001397837565 35455.75871069109 2997.000000000002
  endloop
endfacet
facet normal 0.0 0.0 1.0
  outer loop
    vertex 46487.27302974586 45532.03034259939 2997.000000000002
    vertex 36411.001397837565 35455.75871069109 2997.000000000002
    vertex 39362.27302974587 33191.16833867114 2997.000000000002
  endloop
endfacet
facet normal 0.0 0.0 1.0
  outer loop
    vertex 46487.27302974586 45532.03034259939 2997.000000000002
    vertex 39362.27302974587 33191.16833867114 2997.000000000002
    vertex 42799.101637034946 31767.587317980167 2997.000000000002
  endloop
endfacet
facet normal 0.0 0.0 1.0
  outer loop
    vertex 46487.27302974586 45532.03034259939 2997.000000000002
    vertex 42799.101637034946 31767.587317980167 2997.000000000002
    vertex 46487.27302974586 31282.030342599388 2997.000000000002
  endloop
endfacet
facet normal -2.2556402733285736e-16 4.538835475556058e-17 -1.0
  outer loop
    vertex 1487.2730297458913 78532.03034259939 -2.9999999999761084
    vertex 91487.27302974585 532.0303425993949 -2.9999999999999494
    vertex 1487.273029745891 532.0303425993949 -2.9999999999663807
  endloop
endfacet
facet normal -2.2556402733285736e-16 4.538835475556058e-17 -1.0
  outer loop
    vertex 91487.27302974585 532.0303425993949 -2.9999999999999494
    vertex 1487.2730297458913 78532.03034259939 -2.9999999999761084
    vertex 91487.27302974585 78532.03034259938 -2.999999999983141
  endloop
endfacet
facet normal 0.0 0.0 1.0
  outer loop
    vertex 46487.27302974586 45532.03034259939 2997.000000000002
    vertex 32722.83000512664 49220.20173531031 2997.000000000002
    vertex 32237.273029745862 45532.03034259939 2997.000000000002
  endloop
endfacet
facet normal 0.0 0.0 1.0
  outer loop
    vertex 32722.83000512664 49220.20173531031 2997.000000000002
    vertex 46487.27302974586 45532.03034259939 2997.000000000002
    vertex 34146.41102581761 52657.03034259938 2997.000000000002
  endloop
endfacet
facet normal 0.0 0.0 1.0
  outer loop
    vertex 34146.41102581761 52657.03034259938 2997.000000000002
    vertex 46487.27302974586 45532.03034259939 2997.000000000002
    vertex 36411.00139783756 55608.30197450769 2997.000000000002
  endloop
endfacet
facet normal 0.0 0.0 1.0
  outer loop
    vertex 36411.00139783756 55608.30197450769 2997.000000000002
    vertex 46487.27302974586 45532.03034259939 2997.000000000002
    vertex 39362.273029745855 57872.892346527646 2997.000000000002
  endloop
endfacet
facet normal 0.0 0.0 1.0
  outer loop
    vertex 39362.273029745855 57872.892346527646 2997.000000000002
    vertex 46487.27302974586 45532.03034259939 2997.000000000002
    vertex 42799.10163703493 59296.473367218605 2997.000000000002
  endloop
endfacet
facet normal 0.0 0.0 1.0
  outer loop
    vertex 42799.10163703493 59296.473367218605 2997.000000000002
    vertex 46487.27302974586 45532.03034259939 2997.000000000002
    vertex 46487.27302974586 59782.030342599384 2997.000000000002
  endloop
endfacet
facet normal 0.0 0.0 1.0
  outer loop
    vertex 60737.27302974586 45532.03034259939 2997.000000000002
    vertex 46487.27302974586 59782.030342599384 2997.000000000002
    vertex 46487.27302974586 45532.03034259939 2997.000000000002
  endloop
endfacet
facet normal 0.0 0.0 1.0
  outer loop
    vertex 46487.27302974586 59782.030342599384 2997.000000000002
    vertex 60737.27302974586 45532.03034259939 2997.000000000002
    vertex 50175.44442245678 59296.473367218605 2997.000000000002
  endloop
endfacet
facet normal 0.0 0.0 1.0
  outer loop
    vertex 50175.44442245678 59296.473367218605 2997.000000000002
    vertex 60737.27302974586 45532.03034259939 2997.000000000002
    vertex 53612.27302974585 57872.892346527646 2997.000000000002
  endloop
endfacet
facet normal 0.0 0.0 1.0
  outer loop
    vertex 53612.27302974585 57872.892346527646 2997.000000000002
    vertex 60737.27302974586 45532.03034259939 2997.000000000002
    vertex 56563.54466165417 55608.30197450769 2997.000000000002
  endloop
endfacet
facet normal 0.0 0.0 1.0
  outer loop
    vertex 56563.54466165417 55608.30197450769 2997.000000000002
    vertex 60737.27302974586 45532.03034259939 2997.000000000002
    vertex 58828.13503367411 52657.0303425994 2997.000000000002
  endloop
endfacet
facet normal 0.0 0.0 1.0
  outer loop
    vertex 58828.13503367411 52657.0303425994 2997.000000000002
    vertex 60737.27302974586 45532.03034259939 2997.000000000002
    vertex 60251.71605436508 49220.20173531032 2997.000000000002
  endloop
endfacet
facet normal 0.13052619222005077 0.9914448613738106 4.621035440584837e-33
  outer loop
    vertex 46487.273029745855 61782.03034259939 22997.000000000004
    vertex 50693.082512661815 61228.32501979675 2997.000000000002
    vertex 46487.273029745855 61782.03034259939 2997.000000000002
  endloop
endfacet
facet normal 0.13052619222005077 0.9914448613738106 4.621035440584837e-33
  outer loop
    vertex 50693.082512661815 61228.32501979675 2997.000000000002
    vertex 46487.273029745855 61782.03034259939 22997.000000000004
    vertex 50693.082512661815 61228.32501979675 22997.000000000004
  endloop
endfacet
facet normal -1.9710122683441288e-32 -2.066023294212119e-33 1.0
  outer loop
    vertex 30790.978352548504 41326.220859683424 22997.000000000004
    vertex 30790.978352548504 49737.839825515344 22997.000000000004
    vertex 30237.27302974587 45532.03034259939 22997.000000000004
  endloop
endfacet
facet normal -1.9710122683441288e-32 -2.066023294212119e-33 1.0
  outer loop
    vertex 30790.978352548504 49737.839825515344 22997.000000000004
    vertex 30790.978352548504 41326.220859683424 22997.000000000004
    vertex 32414.36021824874 37407.030342599384 22997.000000000004
  endloop
endfacet
facet normal -1.9710122683441288e-32 -2.066023294212119e-33 1.0
  outer loop
    vertex 30790.978352548504 49737.839825515344 22997.000000000004
    vertex 32414.36021824874 37407.030342599384 22997.000000000004
    vertex 32237.273029745862 45532.03034259939 22997.000000000004
  endloop
endfacet
facet normal -1.9710122683441288e-32 -2.066023294212119e-33 1.0
  outer loop
    vertex 32237.273029745862 45532.03034259939 22997.000000000004
    vertex 32414.36021824874 37407.030342599384 22997.000000000004
    vertex 32722.830005126645 41843.85894988847 22997.000000000004
  endloop
endfacet
facet normal -1.9710122683441288e-32 -2.066023294212119e-33 1.0
  outer loop
    vertex 32722.830005126645 41843.85894988847 22997.000000000004
    vertex 32414.36021824874 37407.030342599384 22997.000000000004
    vertex 34996.78783546447 34041.545148317986 22997.000000000004
  endloop
endfacet
facet normal -1.9710122683441288e-32 -2.066023294212119e-33 1.0
  outer loop
    vertex 32722.830005126645 41843.85894988847 22997.000000000004
    vertex 34996.78783546447 34041.545148317986 22997.000000000004
    vertex 34146.411025817615 38407.030342599384 22997.000000000004
  endloop
endfacet
facet normal -1.9710122683441288e-32 -2.066023294212119e-33 1.0
  outer loop
    vertex 34146.411025817615 38407.030342599384 22997.000000000004
    vertex 34996.78783546447 34041.545148317986 22997.000000000004
    vertex 36411.001397837565 35455.75871069109 22997.000000000004
  endloop
endfacet
facet normal -1.9710122683441288e-32 -2.066023294212119e-33 1.0
  outer loop
    vertex 36411.001397837565 35455.75871069109 22997.000000000004
    vertex 34996.78783546447 34041.545148317986 22997.000000000004
    vertex 38362.27302974587 31459.117531102263 22997.000000000004
  endloop
endfacet
facet normal -1.9710122683441288e-32 -2.066023294212119e-33 1.0
  outer loop
    vertex 36411.001397837565 35455.75871069109 22997.000000000004
    vertex 38362.27302974587 31459.117531102263 22997.000000000004
    vertex 39362.27302974587 33191.16833867114 22997.000000000004
  endloop
endfacet
facet normal -1.9710122683441288e-32 -2.066023294212119e-33 1.0
  outer loop
    vertex 39362.27302974587 33191.16833867114 22997.000000000004
    vertex 38362.27302974587 31459.117531102263 22997.000000000004
    vertex 42281.4635468299 29835.735665402026 22997.000000000004
  endloop
endfacet
facet normal -1.9710122683441288e-32 -2.066023294212119e-33 1.0
  outer loop
    vertex 39362.27302974587 33191.16833867114 22997.000000000004
    vertex 42281.4635468299 29835.735665402026 22997.000000000004
    vertex 42799.101637034946 31767.587317980167 22997.000000000004
  endloop
endfacet
facet normal -1.9710122683441288e-32 -2.066023294212119e-33 1.0
  outer loop
    vertex 42799.101637034946 31767.587317980167 22997.000000000004
    vertex 42281.4635468299 29835.735665402026 22997.000000000004
    vertex 46487.27302974586 29282.030342599388 22997.000000000004
  endloop
endfacet
facet normal -1.9710122683441288e-32 -2.066023294212119e-33 1.0
  outer loop
    vertex 42799.101637034946 31767.587317980167 22997.000000000004
    vertex 46487.27302974586 29282.030342599388 22997.000000000004
    vertex 46487.27302974586 31282.030342599388 22997.000000000004
  endloop
endfacet
facet normal -1.9710122683441288e-32 -2.066023294212119e-33 1.0
  outer loop
    vertex 46487.27302974586 31282.030342599388 22997.000000000004
    vertex 46487.27302974586 29282.030342599388 22997.000000000004
    vertex 50693.08251266183 29835.73566540203 22997.000000000004
  endloop
endfacet
facet normal -1.9710122683441288e-32 -2.066023294212119e-33 1.0
  outer loop
    vertex 46487.27302974586 31282.030342599388 22997.000000000004
    vertex 50693.08251266183 29835.73566540203 22997.000000000004
    vertex 50175.444422456785 31767.587317980167 22997.000000000004
  endloop
endfacet
facet normal -1.9710122683441288e-32 -2.066023294212119e-33 1.0
  outer loop
    vertex 50175.444422456785 31767.587317980167 22997.000000000004
    vertex 50693.08251266183 29835.73566540203 22997.000000000004
    vertex 53612.27302974586 33191.16833867114 22997.000000000004
  endloop
endfacet
facet normal -1.9710122683441288e-32 -2.066023294212119e-33 1.0
  outer loop
    vertex 53612.27302974586 33191.16833867114 22997.000000000004
    vertex 50693.08251266183 29835.73566540203 22997.000000000004
    vertex 54612.27302974586 31459.117531102263 22997.000000000004
  endloop
endfacet
facet normal -1.9710122683441288e-32 -2.066023294212119e-33 1.0
  outer loop
    vertex 53612.27302974586 33191.16833867114 22997.000000000004
    vertex 54612.27302974586 31459.117531102263 22997.000000000004
    vertex 56563.54466165417 35455.75871069109 22997.000000000004
  endloop
endfacet
facet normal -1.9710122683441288e-32 -2.066023294212119e-33 1.0
  outer loop
    vertex 56563.54466165417 35455.75871069109 22997.000000000004
    vertex 54612.27302974586 31459.117531102263 22997.000000000004
    vertex 57977.75822402726 34041.54514831799 22997.000000000004
  endloop
endfacet
facet normal -1.9710122683441288e-32 -2.066023294212119e-33 1.0
  outer loop
    vertex 56563.54466165417 35455.75871069109 22997.000000000004
    vertex 57977.75822402726 34041.54514831799 22997.000000000004
    vertex 58828.13503367411 38407.03034259939 22997.000000000004
  endloop
endfacet
facet normal -1.9710122683441288e-32 -2.066023294212119e-33 1.0
  outer loop
    vertex 58828.13503367411 38407.03034259939 22997.000000000004
    vertex 57977.75822402726 34041.54514831799 22997.000000000004
    vertex 60560.185841242994 37407.03034259939 22997.000000000004
  endloop
endfacet
facet normal -1.9710122683441288e-32 -2.066023294212119e-33 1.0
  outer loop
    vertex 58828.13503367411 38407.03034259939 22997.000000000004
    vertex 60560.185841242994 37407.03034259939 22997.000000000004
    vertex 60251.71605436508 41843.85894988847 22997.000000000004
  endloop
endfacet
facet normal -1.9710122683441288e-32 -2.066023294212119e-33 1.0
  outer loop
    vertex 60251.71605436508 41843.85894988847 22997.000000000004
    vertex 60560.185841242994 37407.03034259939 22997.000000000004
    vertex 60737.27302974586 45532.03034259939 22997.000000000004
  endloop
endfacet
facet normal -1.9710122683441288e-32 -2.066023294212119e-33 1.0
  outer loop
    vertex 60737.27302974586 45532.03034259939 22997.000000000004
    vertex 60560.185841242994 37407.03034259939 22997.000000000004
    vertex 62183.56770694322 41326.220859683424 22997.000000000004
  endloop
endfacet
facet normal -1.9710122683441288e-32 -2.066023294212119e-33 1.0
  outer loop
    vertex 32237.273029745862 45532.03034259939 22997.000000000004
    vertex 32414.36021824873 53657.03034259938 22997.000000000004
    vertex 30790.978352548504 49737.839825515344 22997.000000000004
  endloop
endfacet
facet normal -1.9710122683441288e-32 -2.066023294212119e-33 1.0
  outer loop
    vertex 32414.36021824873 53657.03034259938 22997.000000000004
    vertex 32237.273029745862 45532.03034259939 22997.000000000004
    vertex 32722.83000512664 49220.20173531031 22997.000000000004
  endloop
endfacet
facet normal -1.9710122683441288e-32 -2.066023294212119e-33 1.0
  outer loop
    vertex 32414.36021824873 53657.03034259938 22997.000000000004
    vertex 32722.83000512664 49220.20173531031 22997.000000000004
    vertex 34996.78783546446 57022.51553688079 22997.000000000004
  endloop
endfacet
facet normal -1.9710122683441288e-32 -2.066023294212119e-33 1.0
  outer loop
    vertex 34996.78783546446 57022.51553688079 22997.000000000004
    vertex 32722.83000512664 49220.20173531031 22997.000000000004
    vertex 34146.41102581761 52657.03034259938 22997.000000000004
  endloop
endfacet
facet normal -1.9710122683441288e-32 -2.066023294212119e-33 1.0
  outer loop
    vertex 34996.78783546446 57022.51553688079 22997.000000000004
    vertex 34146.41102581761 52657.03034259938 22997.000000000004
    vertex 36411.00139783756 55608.30197450769 22997.000000000004
  endloop
endfacet
facet normal -1.9710122683441288e-32 -2.066023294212119e-33 1.0
  outer loop
    vertex 34996.78783546446 57022.51553688079 22997.000000000004
    vertex 36411.00139783756 55608.30197450769 22997.000000000004
    vertex 38362.273029745855 59604.94315409652 22997.000000000004
  endloop
endfacet
facet normal -1.9710122683441288e-32 -2.066023294212119e-33 1.0
  outer loop
    vertex 38362.273029745855 59604.94315409652 22997.000000000004
    vertex 36411.00139783756 55608.30197450769 22997.000000000004
    vertex 39362.273029745855 57872.892346527646 22997.000000000004
  endloop
endfacet
facet normal -1.9710122683441288e-32 -2.066023294212119e-33 1.0
  outer loop
    vertex 38362.273029745855 59604.94315409652 22997.000000000004
    vertex 39362.273029745855 57872.892346527646 22997.000000000004
    vertex 42281.46354682989 61228.32501979675 22997.000000000004
  endloop
endfacet
facet normal -1.9710122683441288e-32 -2.066023294212119e-33 1.0
  outer loop
    vertex 42281.46354682989 61228.32501979675 22997.000000000004
    vertex 39362.273029745855 57872.892346527646 22997.000000000004
    vertex 42799.10163703493 59296.473367218605 22997.000000000004
  endloop
endfacet
facet normal -1.9710122683441288e-32 -2.066023294212119e-33 1.0
  outer loop
    vertex 42281.46354682989 61228.32501979675 22997.000000000004
    vertex 42799.10163703493 59296.473367218605 22997.000000000004
    vertex 46487.273029745855 61782.03034259939 22997.000000000004
  endloop
endfacet
facet normal -1.9710122683441288e-32 -2.066023294212119e-33 1.0
  outer loop
    vertex 46487.273029745855 61782.03034259939 22997.000000000004
    vertex 42799.10163703493 59296.473367218605 22997.000000000004
    vertex 46487.27302974586 59782.030342599384 22997.000000000004
  endloop
endfacet
facet normal -1.9710122683441288e-32 -2.066023294212119e-33 1.0
  outer loop
    vertex 46487.273029745855 61782.03034259939 22997.000000000004
    vertex 46487.27302974586 59782.030342599384 22997.000000000004
    vertex 50693.082512661815 61228.32501979675 22997.000000000004
  endloop
endfacet
facet normal -1.9710122683441288e-32 -2.066023294212119e-33 1.0
  outer loop
    vertex 50693.082512661815 61228.32501979675 22997.000000000004
    vertex 46487.27302974586 59782.030342599384 22997.000000000004
    vertex 50175.44442245678 59296.473367218605 22997.000000000004
  endloop
endfacet
facet normal -1.9710122683441288e-32 -2.066023294212119e-33 1.0
  outer loop
    vertex 50693.082512661815 61228.32501979675 22997.000000000004
    vertex 50175.44442245678 59296.473367218605 22997.000000000004
    vertex 53612.27302974585 57872.892346527646 22997.000000000004
  endloop
endfacet
facet normal -1.9710122683441288e-32 -2.066023294212119e-33 1.0
  outer loop
    vertex 50693.082512661815 61228.32501979675 22997.000000000004
    vertex 53612.27302974585 57872.892346527646 22997.000000000004
    vertex 54612.273029745855 59604.94315409652 22997.000000000004
  endloop
endfacet
facet normal -1.9710122683441288e-32 -2.066023294212119e-33 1.0
  outer loop
    vertex 54612.273029745855 59604.94315409652 22997.000000000004
    vertex 53612.27302974585 57872.892346527646 22997.000000000004
    vertex 56563.54466165417 55608.30197450769 22997.000000000004
  endloop
endfacet
facet normal -1.9710122683441288e-32 -2.066023294212119e-33 1.0
  outer loop
    vertex 54612.273029745855 59604.94315409652 22997.000000000004
    vertex 56563.54466165417 55608.30197450769 22997.000000000004
    vertex 57977.75822402725 57022.51553688079 22997.000000000004
  endloop
endfacet
facet normal -1.9710122683441288e-32 -2.066023294212119e-33 1.0
  outer loop
    vertex 57977.75822402725 57022.51553688079 22997.000000000004
    vertex 56563.54466165417 55608.30197450769 22997.000000000004
    vertex 58828.13503367411 52657.0303425994 22997.000000000004
  endloop
endfacet
facet normal -1.9710122683441288e-32 -2.066023294212119e-33 1.0
  outer loop
    vertex 57977.75822402725 57022.51553688079 22997.000000000004
    vertex 58828.13503367411 52657.0303425994 22997.000000000004
    vertex 60560.18584124299 53657.0303425994 22997.000000000004
  endloop
endfacet
facet normal -1.9710122683441288e-32 -2.066023294212119e-33 1.0
  outer loop
    vertex 60560.18584124299 53657.0303425994 22997.000000000004
    vertex 58828.13503367411 52657.0303425994 22997.000000000004
    vertex 60251.71605436508 49220.20173531032 22997.000000000004
  endloop
endfacet
facet normal -1.9710122683441288e-32 -2.066023294212119e-33 1.0
  outer loop
    vertex 60560.18584124299 53657.0303425994 22997.000000000004
    vertex 60251.71605436508 49220.20173531032 22997.000000000004
    vertex 60737.27302974586 45532.03034259939 22997.000000000004
  endloop
endfacet
facet normal -1.9710122683441288e-32 -2.066023294212119e-33 1.0
  outer loop
    vertex 60560.18584124299 53657.0303425994 22997.000000000004
    vertex 60737.27302974586 45532.03034259939 22997.000000000004
    vertex 62183.56770694322 49737.839825515366 22997.000000000004
  endloop
endfacet
facet normal -1.9710122683441288e-32 -2.066023294212119e-33 1.0
  outer loop
    vertex 62183.56770694322 49737.839825515366 22997.000000000004
    vertex 60737.27302974586 45532.03034259939 22997.000000000004
    vertex 62183.56770694322 41326.220859683424 22997.000000000004
  endloop
endfacet
facet normal -1.9710122683441288e-32 -2.066023294212119e-33 1.0
  outer loop
    vertex 62183.56770694322 49737.839825515366 22997.000000000004
    vertex 62183.56770694322 41326.220859683424 22997.000000000004
    vertex 62737.273029745855 45532.03034259939 22997.000000000004
  endloop
endfacet
facet normal -1.0 3.470727978520491e-18 3.007964248051122e-17
  outer loop
    vertex 1487.2730297458916 78532.03034259939 2997.000000000002
    vertex 1487.273029745891 532.0303425993949 -2.9999999999663807
    vertex 1487.273029745891 532.0303425993949 2997.000000000002
  endloop
endfacet
facet normal -1.0 3.470727978520491e-18 3.007964248051122e-17
  outer loop
    vertex 1487.273029745891 532.0303425993949 -2.9999999999663807
    vertex 1487.2730297458916 78532.03034259939 2997.000000000002
    vertex 1487.2730297458913 78532.03034259939 -2.9999999999761084
  endloop
endfacet
facet normal 0.0 -1.0 0.0
  outer loop
    vertex 91487.27302974585 532.0303425993949 2997.000000000002
    vertex 1487.273029745891 532.0303425993949 -2.9999999999663807
    vertex 91487.27302974585 532.0303425993949 -2.9999999999999494
  endloop
endfacet
facet normal 0.0 -1.0 0.0
  outer loop
    vertex 1487.273029745891 532.0303425993949 -2.9999999999663807
    vertex 91487.27302974585 532.0303425993949 2997.000000000002
    vertex 1487.273029745891 532.0303425993949 2997.000000000002
  endloop
endfacet
facet normal -0.13052619222005307 0.9914448613738102 -5.243390835344892e-34
  outer loop
    vertex 42281.46354682989 61228.32501979675 22997.000000000004
    vertex 46487.273029745855 61782.03034259939 2997.000000000002
    vertex 42281.46354682989 61228.32501979675 2997.000000000002
  endloop
endfacet
facet normal -0.13052619222005307 0.9914448613738102 -5.243390835344892e-34
  outer loop
    vertex 46487.273029745855 61782.03034259939 2997.000000000002
    vertex 42281.46354682989 61228.32501979675 22997.000000000004
    vertex 46487.273029745855 61782.03034259939 22997.000000000004
  endloop
endfacet
facet normal -0.6087614290087213 0.7933533402912348 -1.0359675969126248e-32
  outer loop
    vertex 34996.78783546446 57022.51553688079 22997.000000000004
    vertex 38362.273029745855 59604.94315409652 2997.000000000002
    vertex 34996.78783546446 57022.51553688079 2997.000000000002
  endloop
endfacet
facet normal -0.6087614290087213 0.7933533402912348 -1.0359675969126248e-32
  outer loop
    vertex 38362.273029745855 59604.94315409652 2997.000000000002
    vertex 34996.78783546446 57022.51553688079 22997.000000000004
    vertex 38362.273029745855 59604.94315409652 22997.000000000004
  endloop
endfacet
facet normal -0.7933533402912352 0.6087614290087207 -1.4379376375508316e-32
  outer loop
    vertex 34996.78783546446 57022.51553688079 22997.000000000004
    vertex 32414.36021824873 53657.03034259938 2997.000000000002
    vertex 32414.36021824873 53657.03034259938 22997.000000000004
  endloop
endfacet
facet normal -0.7933533402912352 0.6087614290087207 -1.4379376375508316e-32
  outer loop
    vertex 32414.36021824873 53657.03034259938 2997.000000000002
    vertex 34996.78783546446 57022.51553688079 22997.000000000004
    vertex 34996.78783546446 57022.51553688079 2997.000000000002
  endloop
endfacet
facet normal -0.3826834323650893 0.9238795325112871 -5.633980765622194e-33
  outer loop
    vertex 38362.273029745855 59604.94315409652 22997.000000000004
    vertex 42281.46354682989 61228.32501979675 2997.000000000002
    vertex 38362.273029745855 59604.94315409652 2997.000000000002
  endloop
endfacet
facet normal -0.3826834323650893 0.9238795325112871 -5.633980765622194e-33
  outer loop
    vertex 42281.46354682989 61228.32501979675 2997.000000000002
    vertex 38362.273029745855 59604.94315409652 22997.000000000004
    vertex 42281.46354682989 61228.32501979675 22997.000000000004
  endloop
endfacet
facet normal -0.9238795325112873 0.38268343236508884 -1.7419146044942534e-32
  outer loop
    vertex 32414.36021824873 53657.03034259938 22997.000000000004
    vertex 30790.978352548504 49737.839825515344 2997.000000000002
    vertex 30790.978352548504 49737.839825515344 22997.000000000004
  endloop
endfacet
facet normal -0.9238795325112873 0.38268343236508884 -1.7419146044942534e-32
  outer loop
    vertex 30790.978352548504 49737.839825515344 2997.000000000002
    vertex 32414.36021824873 53657.03034259938 22997.000000000004
    vertex 32414.36021824873 53657.03034259938 2997.000000000002
  endloop
endfacet
facet normal -0.9914448613738106 0.13052619222005077 -1.9271829697913817e-32
  outer loop
    vertex 30790.978352548504 49737.839825515344 22997.000000000004
    vertex 30237.27302974587 45532.03034259939 2997.000000000002
    vertex 30237.27302974587 45532.03034259939 22997.000000000004
  endloop
endfacet
facet normal -0.9914448613738106 0.13052619222005077 -1.9271829697913817e-32
  outer loop
    vertex 30237.27302974587 45532.03034259939 2997.000000000002
    vertex 30790.978352548504 49737.839825515344 22997.000000000004
    vertex 30790.978352548504 49737.839825515344 2997.000000000002
  endloop
endfacet
facet normal 1.0 -0.0 -0.0
  outer loop
    vertex 91487.27302974585 78532.03034259938 -2.999999999983141
    vertex 91487.27302974585 532.0303425993949 2997.000000000002
    vertex 91487.27302974585 532.0303425993949 -2.9999999999999494
  endloop
endfacet
facet normal 1.0 -0.0 -0.0
  outer loop
    vertex 91487.27302974585 532.0303425993949 2997.000000000002
    vertex 91487.27302974585 78532.03034259938 -2.999999999983141
    vertex 91487.27302974585 78532.03034259938 2997.000000000002
  endloop
endfacet
facet normal 0.0 0.0 1.0
  outer loop
    vertex 50175.444422456785 31767.587317980167 2997.000000000002
    vertex 46487.27302974586 45532.03034259939 2997.000000000002
    vertex 46487.27302974586 31282.030342599388 2997.000000000002
  endloop
endfacet
facet normal 0.0 0.0 1.0
  outer loop
    vertex 46487.27302974586 45532.03034259939 2997.000000000002
    vertex 50175.444422456785 31767.587317980167 2997.000000000002
    vertex 60737.27302974586 45532.03034259939 2997.000000000002
  endloop
endfacet
facet normal 0.0 0.0 1.0
  outer loop
    vertex 60737.27302974586 45532.03034259939 2997.000000000002
    vertex 50175.444422456785 31767.587317980167 2997.000000000002
    vertex 53612.27302974586 33191.16833867114 2997.000000000002
  endloop
endfacet
facet normal 0.0 0.0 1.0
  outer loop
    vertex 60737.27302974586 45532.03034259939 2997.000000000002
    vertex 53612.27302974586 33191.16833867114 2997.000000000002
    vertex 56563.54466165417 35455.75871069109 2997.000000000002
  endloop
endfacet
facet normal 0.0 0.0 1.0
  outer loop
    vertex 60737.27302974586 45532.03034259939 2997.000000000002
    vertex 56563.54466165417 35455.75871069109 2997.000000000002
    vertex 58828.13503367411 38407.03034259939 2997.000000000002
  endloop
endfacet
facet normal 0.0 0.0 1.0
  outer loop
    vertex 60737.27302974586 45532.03034259939 2997.000000000002
    vertex 58828.13503367411 38407.03034259939 2997.000000000002
    vertex 60251.71605436508 41843.85894988847 2997.000000000002
  endloop
endfacet
facet normal -0.6087614290087198 -0.7933533402912359 -1.363784893229159e-32
  outer loop
    vertex 38362.27302974587 31459.117531102263 22997.000000000004
    vertex 34996.78783546447 34041.545148317986 2997.000000000002
    vertex 38362.27302974587 31459.117531102263 2997.000000000002
  endloop
endfacet
facet normal -0.6087614290087198 -0.7933533402912359 -1.363784893229159e-32
  outer loop
    vertex 34996.78783546447 34041.545148317986 2997.000000000002
    vertex 38362.27302974587 31459.117531102263 22997.000000000004
    vertex 34996.78783546447 34041.545148317986 22997.000000000004
  endloop
endfacet
facet normal -0.6087614290087183 -0.7933533402912369 -1.3637848932291562e-32
  outer loop
    vertex 56563.54466165417 55608.30197450769 22997.000000000004
    vertex 53612.27302974585 57872.892346527646 2997.000000000002
    vertex 56563.54466165417 55608.30197450769 2997.000000000002
  endloop
endfacet
facet normal -0.6087614290087183 -0.7933533402912369 -1.3637848932291562e-32
  outer loop
    vertex 53612.27302974585 57872.892346527646 2997.000000000002
    vertex 56563.54466165417 55608.30197450769 22997.000000000004
    vertex 53612.27302974585 57872.892346527646 22997.000000000004
  endloop
endfacet
facet normal -0.38268343236509106 -0.9238795325112862 -9.451494036050471e-33
  outer loop
    vertex 42281.4635468299 29835.735665402026 22997.000000000004
    vertex 38362.27302974587 31459.117531102263 2997.000000000002
    vertex 42281.4635468299 29835.735665402026 2997.000000000002
  endloop
endfacet
facet normal -0.38268343236509106 -0.9238795325112862 -9.451494036050471e-33
  outer loop
    vertex 38362.27302974587 31459.117531102263 2997.000000000002
    vertex 42281.4635468299 29835.735665402026 22997.000000000004
    vertex 38362.27302974587 31459.117531102263 22997.000000000004
  endloop
endfacet
facet normal -0.7933533402912358 -0.6087614290087199 -1.6894806961408076e-32
  outer loop
    vertex 56563.54466165417 55608.30197450769 22997.000000000004
    vertex 58828.13503367411 52657.0303425994 2997.000000000002
    vertex 58828.13503367411 52657.0303425994 22997.000000000004
  endloop
endfacet
facet normal -0.7933533402912358 -0.6087614290087199 -1.6894806961408076e-32
  outer loop
    vertex 58828.13503367411 52657.0303425994 2997.000000000002
    vertex 56563.54466165417 55608.30197450769 22997.000000000004
    vertex 56563.54466165417 55608.30197450769 2997.000000000002
  endloop
endfacet
facet normal 0.38268343236508884 0.9238795325112873 9.451494036050429e-33
  outer loop
    vertex 50693.082512661815 61228.32501979675 22997.000000000004
    vertex 54612.273029745855 59604.94315409652 2997.000000000002
    vertex 50693.082512661815 61228.32501979675 2997.000000000002
  endloop
endfacet
facet normal 0.38268343236508884 0.9238795325112873 9.451494036050429e-33
  outer loop
    vertex 54612.273029745855 59604.94315409652 2997.000000000002
    vertex 50693.082512661815 61228.32501979675 22997.000000000004
    vertex 54612.273029745855 59604.94315409652 22997.000000000004
  endloop
endfacet
facet normal 0.7933533402912342 0.608761429008722 1.689480696140805e-32
  outer loop
    vertex 57977.75822402725 57022.51553688079 2997.000000000002
    vertex 60560.18584124299 53657.0303425994 22997.000000000004
    vertex 60560.18584124299 53657.0303425994 2997.000000000002
  endloop
endfacet
facet normal 0.7933533402912342 0.608761429008722 1.689480696140805e-32
  outer loop
    vertex 60560.18584124299 53657.0303425994 22997.000000000004
    vertex 57977.75822402725 57022.51553688079 2997.000000000002
    vertex 57977.75822402725 57022.51553688079 22997.000000000004
  endloop
endfacet
facet normal 0.3826834323650894 0.923879532511287 9.451494036050439e-33
  outer loop
    vertex 39362.27302974587 33191.16833867114 22997.000000000004
    vertex 42799.101637034946 31767.587317980167 2997.000000000002
    vertex 39362.27302974587 33191.16833867114 2997.000000000002
  endloop
endfacet
facet normal 0.3826834323650894 0.923879532511287 9.451494036050439e-33
  outer loop
    vertex 42799.101637034946 31767.587317980167 2997.000000000002
    vertex 39362.27302974587 33191.16833867114 22997.000000000004
    vertex 42799.101637034946 31767.587317980167 22997.000000000004
  endloop
endfacet
facet normal 0.6087614290087225 -0.7933533402912337 1.0359675969126273e-32
  outer loop
    vertex 39362.273029745855 57872.892346527646 22997.000000000004
    vertex 36411.00139783756 55608.30197450769 2997.000000000002
    vertex 39362.273029745855 57872.892346527646 2997.000000000002
  endloop
endfacet
facet normal 0.6087614290087225 -0.7933533402912337 1.0359675969126273e-32
  outer loop
    vertex 36411.00139783756 55608.30197450769 2997.000000000002
    vertex 39362.273029745855 57872.892346527646 22997.000000000004
    vertex 36411.00139783756 55608.30197450769 22997.000000000004
  endloop
endfacet
facet normal -0.9238795325112864 -0.3826834323650906 -1.9000411816093165e-32
  outer loop
    vertex 30790.978352548504 41326.220859683424 22997.000000000004
    vertex 32414.36021824874 37407.030342599384 2997.000000000002
    vertex 32414.36021824874 37407.030342599384 22997.000000000004
  endloop
endfacet
facet normal -0.9238795325112864 -0.3826834323650906 -1.9000411816093165e-32
  outer loop
    vertex 32414.36021824874 37407.030342599384 2997.000000000002
    vertex 30790.978352548504 41326.220859683424 22997.000000000004
    vertex 30790.978352548504 41326.220859683424 2997.000000000002
  endloop
endfacet
facet normal 0.13052619222005193 -0.9914448613738105 5.2433908353446565e-34
  outer loop
    vertex 50693.08251266183 29835.73566540203 22997.000000000004
    vertex 46487.27302974586 29282.030342599388 2997.000000000002
    vertex 50693.08251266183 29835.73566540203 2997.000000000002
  endloop
endfacet
facet normal 0.13052619222005193 -0.9914448613738105 5.2433908353446565e-34
  outer loop
    vertex 46487.27302974586 29282.030342599388 2997.000000000002
    vertex 50693.08251266183 29835.73566540203 22997.000000000004
    vertex 46487.27302974586 29282.030342599388 22997.000000000004
  endloop
endfacet
facet normal 0.9914448613738106 0.1305261922200502 1.9811170005176678e-32
  outer loop
    vertex 62183.56770694322 49737.839825515366 2997.000000000002
    vertex 62737.273029745855 45532.03034259939 22997.000000000004
    vertex 62737.273029745855 45532.03034259939 2997.000000000002
  endloop
endfacet
facet normal 0.9914448613738106 0.1305261922200502 1.9811170005176678e-32
  outer loop
    vertex 62737.273029745855 45532.03034259939 22997.000000000004
    vertex 62183.56770694322 49737.839825515366 2997.000000000002
    vertex 62183.56770694322 49737.839825515366 22997.000000000004
  endloop
endfacet
facet normal -0.13052619222005002 -0.9914448613738106 -4.6210354405848236e-33
  outer loop
    vertex 50175.44442245678 59296.473367218605 22997.000000000004
    vertex 46487.27302974586 59782.030342599384 2997.000000000002
    vertex 50175.44442245678 59296.473367218605 2997.000000000002
  endloop
endfacet
facet normal -0.13052619222005002 -0.9914448613738106 -4.6210354405848236e-33
  outer loop
    vertex 46487.27302974586 59782.030342599384 2997.000000000002
    vertex 50175.44442245678 59296.473367218605 22997.000000000004
    vertex 46487.27302974586 59782.030342599384 22997.000000000004
  endloop
endfacet
facet normal -0.9914448613738103 -0.1305261922200525 -1.9811170005176678e-32
  outer loop
    vertex 60251.71605436508 49220.20173531032 22997.000000000004
    vertex 60737.27302974586 45532.03034259939 2997.000000000002
    vertex 60737.27302974586 45532.03034259939 22997.000000000004
  endloop
endfacet
facet normal -0.9914448613738103 -0.1305261922200525 -1.9811170005176678e-32
  outer loop
    vertex 60737.27302974586 45532.03034259939 2997.000000000002
    vertex 60251.71605436508 49220.20173531032 22997.000000000004
    vertex 60251.71605436508 49220.20173531032 2997.000000000002
  endloop
endfacet
facet normal 0.7933533402912348 -0.6087614290087213 1.4379376375508308e-32
  outer loop
    vertex 60560.185841242994 37407.03034259939 2997.000000000002
    vertex 57977.75822402726 34041.54514831799 22997.000000000004
    vertex 57977.75822402726 34041.54514831799 2997.000000000002
  endloop
endfacet
facet normal 0.7933533402912348 -0.6087614290087213 1.4379376375508308e-32
  outer loop
    vertex 57977.75822402726 34041.54514831799 22997.000000000004
    vertex 60560.185841242994 37407.03034259939 2997.000000000002
    vertex 60560.185841242994 37407.03034259939 22997.000000000004
  endloop
endfacet
facet normal -0.7933533402912358 0.6087614290087199 -1.4379376375508332e-32
  outer loop
    vertex 58828.13503367411 38407.03034259939 22997.000000000004
    vertex 56563.54466165417 35455.75871069109 2997.000000000002
    vertex 56563.54466165417 35455.75871069109 22997.000000000004
  endloop
endfacet
facet normal -0.7933533402912358 0.6087614290087199 -1.4379376375508332e-32
  outer loop
    vertex 56563.54466165417 35455.75871069109 2997.000000000002
    vertex 58828.13503367411 38407.03034259939 22997.000000000004
    vertex 58828.13503367411 38407.03034259939 2997.000000000002
  endloop
endfacet
facet normal -0.13052619222005138 0.9914448613738105 -5.243390835344547e-34
  outer loop
    vertex 46487.27302974586 31282.030342599388 22997.000000000004
    vertex 50175.444422456785 31767.587317980167 2997.000000000002
    vertex 46487.27302974586 31282.030342599388 2997.000000000002
  endloop
endfacet
facet normal -0.13052619222005138 0.9914448613738105 -5.243390835344547e-34
  outer loop
    vertex 50175.444422456785 31767.587317980167 2997.000000000002
    vertex 46487.27302974586 31282.030342599388 22997.000000000004
    vertex 50175.444422456785 31767.587317980167 22997.000000000004
  endloop
endfacet
facet normal -0.7933533402912353 -0.6087614290087204 -1.6894806961408065e-32
  outer loop
    vertex 32414.36021824874 37407.030342599384 22997.000000000004
    vertex 34996.78783546447 34041.545148317986 2997.000000000002
    vertex 34996.78783546447 34041.545148317986 22997.000000000004
  endloop
endfacet
facet normal -0.7933533402912353 -0.6087614290087204 -1.6894806961408065e-32
  outer loop
    vertex 34996.78783546447 34041.545148317986 2997.000000000002
    vertex 32414.36021824874 37407.030342599384 22997.000000000004
    vertex 32414.36021824874 37407.030342599384 2997.000000000002
  endloop
endfacet
facet normal 0.38268343236509006 -0.9238795325112868 5.6339807656222094e-33
  outer loop
    vertex 54612.27302974586 31459.117531102263 22997.000000000004
    vertex 50693.08251266183 29835.73566540203 2997.000000000002
    vertex 54612.27302974586 31459.117531102263 2997.000000000002
  endloop
endfacet
facet normal 0.38268343236509006 -0.9238795325112868 5.6339807656222094e-33
  outer loop
    vertex 50693.08251266183 29835.73566540203 2997.000000000002
    vertex 54612.27302974586 31459.117531102263 22997.000000000004
    vertex 50693.08251266183 29835.73566540203 22997.000000000004
  endloop
endfacet
facet normal -0.3826834323650905 -0.9238795325112865 -9.45149403605046e-33
  outer loop
    vertex 53612.27302974585 57872.892346527646 22997.000000000004
    vertex 50175.44442245678 59296.473367218605 2997.000000000002
    vertex 53612.27302974585 57872.892346527646 2997.000000000002
  endloop
endfacet
facet normal -0.3826834323650905 -0.9238795325112865 -9.45149403605046e-33
  outer loop
    vertex 50175.44442245678 59296.473367218605 2997.000000000002
    vertex 53612.27302974585 57872.892346527646 22997.000000000004
    vertex 50175.44442245678 59296.473367218605 22997.000000000004
  endloop
endfacet
facet normal -0.9914448613738103 0.13052619222005288 -1.92718296979138e-32
  outer loop
    vertex 60737.27302974586 45532.03034259939 22997.000000000004
    vertex 60251.71605436508 41843.85894988847 2997.000000000002
    vertex 60251.71605436508 41843.85894988847 22997.000000000004
  endloop
endfacet
facet normal -0.9914448613738103 0.13052619222005288 -1.92718296979138e-32
  outer loop
    vertex 60251.71605436508 41843.85894988847 2997.000000000002
    vertex 60737.27302974586 45532.03034259939 22997.000000000004
    vertex 60737.27302974586 45532.03034259939 2997.000000000002
  endloop
endfacet
facet normal -0.13052619222005077 -0.9914448613738106 -4.621035440584837e-33
  outer loop
    vertex 46487.27302974586 29282.030342599388 22997.000000000004
    vertex 42281.4635468299 29835.735665402026 2997.000000000002
    vertex 46487.27302974586 29282.030342599388 2997.000000000002
  endloop
endfacet
facet normal -0.13052619222005077 -0.9914448613738106 -4.621035440584837e-33
  outer loop
    vertex 42281.4635468299 29835.735665402026 2997.000000000002
    vertex 46487.27302974586 29282.030342599388 22997.000000000004
    vertex 42281.4635468299 29835.735665402026 22997.000000000004
  endloop
endfacet
facet normal -0.9914448613738107 -0.1305261922200506 -1.981117000517668e-32
  outer loop
    vertex 30237.27302974587 45532.03034259939 22997.000000000004
    vertex 30790.978352548504 41326.220859683424 2997.000000000002
    vertex 30790.978352548504 41326.220859683424 22997.000000000004
  endloop
endfacet
facet normal -0.9914448613738107 -0.1305261922200506 -1.981117000517668e-32
  outer loop
    vertex 30790.978352548504 41326.220859683424 2997.000000000002
    vertex 30237.27302974587 45532.03034259939 22997.000000000004
    vertex 30237.27302974587 45532.03034259939 2997.000000000002
  endloop
endfacet
facet normal 0.13052619222004944 -0.9914448613738107 5.243390835344164e-34
  outer loop
    vertex 46487.27302974586 59782.030342599384 22997.000000000004
    vertex 42799.10163703493 59296.473367218605 2997.000000000002
    vertex 46487.27302974586 59782.030342599384 2997.000000000002
  endloop
endfacet
facet normal 0.13052619222004944 -0.9914448613738107 5.243390835344164e-34
  outer loop
    vertex 42799.10163703493 59296.473367218605 2997.000000000002
    vertex 46487.27302974586 59782.030342599384 22997.000000000004
    vertex 42799.10163703493 59296.473367218605 22997.000000000004
  endloop
endfacet
facet normal -0.9238795325112865 -0.3826834323650905 -1.9000411816093165e-32
  outer loop
    vertex 58828.13503367411 52657.0303425994 22997.000000000004
    vertex 60251.71605436508 49220.20173531032 2997.000000000002
    vertex 60251.71605436508 49220.20173531032 22997.000000000004
  endloop
endfacet
facet normal -0.9238795325112865 -0.3826834323650905 -1.9000411816093165e-32
  outer loop
    vertex 60251.71605436508 49220.20173531032 2997.000000000002
    vertex 58828.13503367411 52657.0303425994 22997.000000000004
    vertex 58828.13503367411 52657.0303425994 2997.000000000002
  endloop
endfacet
facet normal 0.923879532511287 0.3826834323650894 1.900041181609317e-32
  outer loop
    vertex 32722.830005126645 41843.85894988847 2997.000000000002
    vertex 34146.411025817615 38407.030342599384 22997.000000000004
    vertex 34146.411025817615 38407.030342599384 2997.000000000002
  endloop
endfacet
facet normal 0.923879532511287 0.3826834323650894 1.900041181609317e-32
  outer loop
    vertex 34146.411025817615 38407.030342599384 22997.000000000004
    vertex 32722.830005126645 41843.85894988847 2997.000000000002
    vertex 32722.830005126645 41843.85894988847 22997.000000000004
  endloop
endfacet
facet normal 0.7933533402912358 -0.6087614290087199 1.4379376375508332e-32
  outer loop
    vertex 36411.00139783756 55608.30197450769 2997.000000000002
    vertex 34146.41102581761 52657.03034259938 22997.000000000004
    vertex 34146.41102581761 52657.03034259938 2997.000000000002
  endloop
endfacet
facet normal 0.7933533402912358 -0.6087614290087199 1.4379376375508332e-32
  outer loop
    vertex 34146.41102581761 52657.03034259938 22997.000000000004
    vertex 36411.00139783756 55608.30197450769 2997.000000000002
    vertex 36411.00139783756 55608.30197450769 22997.000000000004
  endloop
endfacet
facet normal 0.9238795325112873 -0.38268343236508884 1.7419146044942534e-32
  outer loop
    vertex 62183.56770694322 41326.220859683424 2997.000000000002
    vertex 60560.185841242994 37407.03034259939 22997.000000000004
    vertex 60560.185841242994 37407.03034259939 2997.000000000002
  endloop
endfacet
facet normal 0.9238795325112873 -0.38268343236508884 1.7419146044942534e-32
  outer loop
    vertex 60560.185841242994 37407.03034259939 22997.000000000004
    vertex 62183.56770694322 41326.220859683424 2997.000000000002
    vertex 62183.56770694322 41326.220859683424 22997.000000000004
  endloop
endfacet
facet normal -0.6087614290087209 0.7933533402912352 -1.0359675969126236e-32
  outer loop
    vertex 53612.27302974586 33191.16833867114 22997.000000000004
    vertex 56563.54466165417 35455.75871069109 2997.000000000002
    vertex 53612.27302974586 33191.16833867114 2997.000000000002
  endloop
endfacet
facet normal -0.6087614290087209 0.7933533402912352 -1.0359675969126236e-32
  outer loop
    vertex 56563.54466165417 35455.75871069109 2997.000000000002
    vertex 53612.27302974586 33191.16833867114 22997.000000000004
    vertex 56563.54466165417 35455.75871069109 22997.000000000004
  endloop
endfacet
facet normal 0.9238795325112861 0.3826834323650916 1.900041181609316e-32
  outer loop
    vertex 60560.18584124299 53657.0303425994 2997.000000000002
    vertex 62183.56770694322 49737.839825515366 22997.000000000004
    vertex 62183.56770694322 49737.839825515366 2997.000000000002
  endloop
endfacet
facet normal 0.9238795325112861 0.3826834323650916 1.900041181609316e-32
  outer loop
    vertex 62183.56770694322 49737.839825515366 22997.000000000004
    vertex 60560.18584124299 53657.0303425994 2997.000000000002
    vertex 60560.18584124299 53657.0303425994 22997.000000000004
  endloop
endfacet
facet normal 0.13052619222005157 0.9914448613738104 4.621035440584853e-33
  outer loop
    vertex 42799.101637034946 31767.587317980167 22997.000000000004
    vertex 46487.27302974586 31282.030342599388 2997.000000000002
    vertex 42799.101637034946 31767.587317980167 2997.000000000002
  endloop
endfacet
facet normal 0.13052619222005157 0.9914448613738104 4.621035440584853e-33
  outer loop
    vertex 46487.27302974586 31282.030342599388 2997.000000000002
    vertex 42799.101637034946 31767.587317980167 22997.000000000004
    vertex 46487.27302974586 31282.030342599388 22997.000000000004
  endloop
endfacet
facet normal 0.38268343236509 -0.9238795325112868 5.6339807656222094e-33
  outer loop
    vertex 42799.10163703493 59296.473367218605 22997.000000000004
    vertex 39362.273029745855 57872.892346527646 2997.000000000002
    vertex 42799.10163703493 59296.473367218605 2997.000000000002
  endloop
endfacet
facet normal 0.38268343236509 -0.9238795325112868 5.6339807656222094e-33
  outer loop
    vertex 39362.273029745855 57872.892346527646 2997.000000000002
    vertex 42799.10163703493 59296.473367218605 22997.000000000004
    vertex 39362.273029745855 57872.892346527646 22997.000000000004
  endloop
endfacet
facet normal 0.6087614290087207 -0.7933533402912352 1.035967596912623e-32
  outer loop
    vertex 57977.75822402726 34041.54514831799 22997.000000000004
    vertex 54612.27302974586 31459.117531102263 2997.000000000002
    vertex 57977.75822402726 34041.54514831799 2997.000000000002
  endloop
endfacet
facet normal 0.6087614290087207 -0.7933533402912352 1.035967596912623e-32
  outer loop
    vertex 54612.27302974586 31459.117531102263 2997.000000000002
    vertex 57977.75822402726 34041.54514831799 22997.000000000004
    vertex 54612.27302974586 31459.117531102263 22997.000000000004
  endloop
endfacet
facet normal -0.9238795325112868 0.38268343236509 -1.7419146044942524e-32
  outer loop
    vertex 60251.71605436508 41843.85894988847 22997.000000000004
    vertex 58828.13503367411 38407.03034259939 2997.000000000002
    vertex 58828.13503367411 38407.03034259939 22997.000000000004
  endloop
endfacet
facet normal -0.9238795325112868 0.38268343236509 -1.7419146044942524e-32
  outer loop
    vertex 58828.13503367411 38407.03034259939 2997.000000000002
    vertex 60251.71605436508 41843.85894988847 22997.000000000004
    vertex 60251.71605436508 41843.85894988847 2997.000000000002
  endloop
endfacet
facet normal 0.6087614290087223 0.7933533402912338 1.3637848932291636e-32
  outer loop
    vertex 54612.273029745855 59604.94315409652 22997.000000000004
    vertex 57977.75822402725 57022.51553688079 2997.000000000002
    vertex 54612.273029745855 59604.94315409652 2997.000000000002
  endloop
endfacet
facet normal 0.6087614290087223 0.7933533402912338 1.3637848932291636e-32
  outer loop
    vertex 57977.75822402725 57022.51553688079 2997.000000000002
    vertex 54612.273029745855 59604.94315409652 22997.000000000004
    vertex 57977.75822402725 57022.51553688079 22997.000000000004
  endloop
endfacet
facet normal 0.6087614290087209 0.7933533402912352 1.3637848932291609e-32
  outer loop
    vertex 36411.001397837565 35455.75871069109 22997.000000000004
    vertex 39362.27302974587 33191.16833867114 2997.000000000002
    vertex 36411.001397837565 35455.75871069109 2997.000000000002
  endloop
endfacet
facet normal 0.6087614290087209 0.7933533402912352 1.3637848932291609e-32
  outer loop
    vertex 39362.27302974587 33191.16833867114 2997.000000000002
    vertex 36411.001397837565 35455.75871069109 22997.000000000004
    vertex 39362.27302974587 33191.16833867114 22997.000000000004
  endloop
endfacet
facet normal 0.7933533402912354 0.6087614290087207 1.6894806961408065e-32
  outer loop
    vertex 34146.411025817615 38407.030342599384 2997.000000000002
    vertex 36411.001397837565 35455.75871069109 22997.000000000004
    vertex 36411.001397837565 35455.75871069109 2997.000000000002
  endloop
endfacet
facet normal 0.7933533402912354 0.6087614290087207 1.6894806961408065e-32
  outer loop
    vertex 36411.001397837565 35455.75871069109 22997.000000000004
    vertex 34146.411025817615 38407.030342599384 2997.000000000002
    vertex 34146.411025817615 38407.030342599384 22997.000000000004
  endloop
endfacet
facet normal 0.9914448613738104 -0.13052619222005157 1.927182969791381e-32
  outer loop
    vertex 32722.83000512664 49220.20173531031 2997.000000000002
    vertex 32237.273029745862 45532.03034259939 22997.000000000004
    vertex 32237.273029745862 45532.03034259939 2997.000000000002
  endloop
endfacet
facet normal 0.9914448613738104 -0.13052619222005157 1.927182969791381e-32
  outer loop
    vertex 32237.273029745862 45532.03034259939 22997.000000000004
    vertex 32722.83000512664 49220.20173531031 2997.000000000002
    vertex 32722.83000512664 49220.20173531031 22997.000000000004
  endloop
endfacet
facet normal 0.9238795325112868 -0.38268343236509 1.7419146044942524e-32
  outer loop
    vertex 34146.41102581761 52657.03034259938 2997.000000000002
    vertex 32722.83000512664 49220.20173531031 22997.000000000004
    vertex 32722.83000512664 49220.20173531031 2997.000000000002
  endloop
endfacet
facet normal 0.9238795325112868 -0.38268343236509 1.7419146044942524e-32
  outer loop
    vertex 32722.83000512664 49220.20173531031 22997.000000000004
    vertex 34146.41102581761 52657.03034259938 2997.000000000002
    vertex 34146.41102581761 52657.03034259938 22997.000000000004
  endloop
endfacet
facet normal 0.9914448613738107 -0.1305261922200506 1.9271829697913817e-32
  outer loop
    vertex 62737.273029745855 45532.03034259939 2997.000000000002
    vertex 62183.56770694322 41326.220859683424 22997.000000000004
    vertex 62183.56770694322 41326.220859683424 2997.000000000002
  endloop
endfacet
facet normal 0.9914448613738107 -0.1305261922200506 1.9271829697913817e-32
  outer loop
    vertex 62183.56770694322 41326.220859683424 22997.000000000004
    vertex 62737.273029745855 45532.03034259939 2997.000000000002
    vertex 62737.273029745855 45532.03034259939 22997.000000000004
  endloop
endfacet
facet normal -0.38268343236509 0.9238795325112868 -5.6339807656222094e-33
  outer loop
    vertex 50175.444422456785 31767.587317980167 22997.000000000004
    vertex 53612.27302974586 33191.16833867114 2997.000000000002
    vertex 50175.444422456785 31767.587317980167 2997.000000000002
  endloop
endfacet
facet normal -0.38268343236509 0.9238795325112868 -5.6339807656222094e-33
  outer loop
    vertex 53612.27302974586 33191.16833867114 2997.000000000002
    vertex 50175.444422456785 31767.587317980167 22997.000000000004
    vertex 53612.27302974586 33191.16833867114 22997.000000000004
  endloop
endfacet
facet normal 0.9914448613738103 0.13052619222005288 1.9811170005176678e-32
  outer loop
    vertex 32237.273029745862 45532.03034259939 2997.000000000002
    vertex 32722.830005126645 41843.85894988847 22997.000000000004
    vertex 32722.830005126645 41843.85894988847 2997.000000000002
  endloop
endfacet
facet normal 0.9914448613738103 0.13052619222005288 1.9811170005176678e-32
  outer loop
    vertex 32722.830005126645 41843.85894988847 22997.000000000004
    vertex 32237.273029745862 45532.03034259939 2997.000000000002
    vertex 32237.273029745862 45532.03034259939 22997.000000000004
  endloop
endfacet
facet normal -0.0 -0.0 1.0
  outer loop
    vertex 1487.273029745891 532.0303425993949 2997.000000000002
    vertex 32414.36021824874 37407.030342599384 2997.000000000002
    vertex 1487.2730297458916 78532.03034259939 2997.000000000002
  endloop
endfacet
facet normal -0.0 -0.0 1.0
  outer loop
    vertex 32414.36021824874 37407.030342599384 2997.000000000002
    vertex 1487.273029745891 532.0303425993949 2997.000000000002
    vertex 34996.78783546447 34041.545148317986 2997.000000000002
  endloop
endfacet
facet normal -0.0 -0.0 1.0
  outer loop
    vertex 34996.78783546447 34041.545148317986 2997.000000000002
    vertex 1487.273029745891 532.0303425993949 2997.000000000002
    vertex 38362.27302974587 31459.117531102263 2997.000000000002
  endloop
endfacet
facet normal -0.0 -0.0 1.0
  outer loop
    vertex 38362.27302974587 31459.117531102263 2997.000000000002
    vertex 1487.273029745891 532.0303425993949 2997.000000000002
    vertex 91487.27302974585 532.0303425993949 2997.000000000002
  endloop
endfacet
facet normal -0.0 -0.0 1.0
  outer loop
    vertex 1487.2730297458916 78532.03034259939 2997.000000000002
    vertex 32414.36021824874 37407.030342599384 2997.000000000002
    vertex 30790.978352548504 41326.220859683424 2997.000000000002
  endloop
endfacet
facet normal -0.0 -0.0 1.0
  outer loop
    vertex 1487.2730297458916 78532.03034259939 2997.000000000002
    vertex 30790.978352548504 41326.220859683424 2997.000000000002
    vertex 30237.27302974587 45532.03034259939 2997.000000000002
  endloop
endfacet
facet normal -0.0 -0.0 1.0
  outer loop
    vertex 38362.27302974587 31459.117531102263 2997.000000000002
    vertex 91487.27302974585 532.0303425993949 2997.000000000002
    vertex 42281.4635468299 29835.735665402026 2997.000000000002
  endloop
endfacet
facet normal -0.0 -0.0 1.0
  outer loop
    vertex 42281.4635468299 29835.735665402026 2997.000000000002
    vertex 91487.27302974585 532.0303425993949 2997.000000000002
    vertex 46487.27302974586 29282.030342599388 2997.000000000002
  endloop
endfacet
facet normal -0.0 -0.0 1.0
  outer loop
    vertex 46487.27302974586 29282.030342599388 2997.000000000002
    vertex 91487.27302974585 532.0303425993949 2997.000000000002
    vertex 50693.08251266183 29835.73566540203 2997.000000000002
  endloop
endfacet
facet normal -0.0 -0.0 1.0
  outer loop
    vertex 50693.08251266183 29835.73566540203 2997.000000000002
    vertex 91487.27302974585 532.0303425993949 2997.000000000002
    vertex 54612.27302974586 31459.117531102263 2997.000000000002
  endloop
endfacet
facet normal -0.0 -0.0 1.0
  outer loop
    vertex 54612.27302974586 31459.117531102263 2997.000000000002
    vertex 91487.27302974585 532.0303425993949 2997.000000000002
    vertex 57977.75822402726 34041.54514831799 2997.000000000002
  endloop
endfacet
facet normal -0.0 -0.0 1.0
  outer loop
    vertex 57977.75822402726 34041.54514831799 2997.000000000002
    vertex 91487.27302974585 532.0303425993949 2997.000000000002
    vertex 60560.185841242994 37407.03034259939 2997.000000000002
  endloop
endfacet
facet normal -0.0 -0.0 1.0
  outer loop
    vertex 60560.185841242994 37407.03034259939 2997.000000000002
    vertex 91487.27302974585 532.0303425993949 2997.000000000002
    vertex 62183.56770694322 41326.220859683424 2997.000000000002
  endloop
endfacet
facet normal -0.0 -0.0 1.0
  outer loop
    vertex 62183.56770694322 41326.220859683424 2997.000000000002
    vertex 91487.27302974585 532.0303425993949 2997.000000000002
    vertex 62737.273029745855 45532.03034259939 2997.000000000002
  endloop
endfacet
facet normal -0.0 -0.0 1.0
  outer loop
    vertex 1487.2730297458916 78532.03034259939 2997.000000000002
    vertex 42281.46354682989 61228.32501979675 2997.000000000002
    vertex 91487.27302974585 78532.03034259938 2997.000000000002
  endloop
endfacet
facet normal -0.0 -0.0 1.0
  outer loop
    vertex 42281.46354682989 61228.32501979675 2997.000000000002
    vertex 1487.2730297458916 78532.03034259939 2997.000000000002
    vertex 38362.273029745855 59604.94315409652 2997.000000000002
  endloop
endfacet
facet normal -0.0 -0.0 1.0
  outer loop
    vertex 38362.273029745855 59604.94315409652 2997.000000000002
    vertex 1487.2730297458916 78532.03034259939 2997.000000000002
    vertex 34996.78783546446 57022.51553688079 2997.000000000002
  endloop
endfacet
facet normal -0.0 -0.0 1.0
  outer loop
    vertex 34996.78783546446 57022.51553688079 2997.000000000002
    vertex 1487.2730297458916 78532.03034259939 2997.000000000002
    vertex 32414.36021824873 53657.03034259938 2997.000000000002
  endloop
endfacet
facet normal -0.0 -0.0 1.0
  outer loop
    vertex 32414.36021824873 53657.03034259938 2997.000000000002
    vertex 1487.2730297458916 78532.03034259939 2997.000000000002
    vertex 30790.978352548504 49737.839825515344 2997.000000000002
  endloop
endfacet
facet normal -0.0 -0.0 1.0
  outer loop
    vertex 30790.978352548504 49737.839825515344 2997.000000000002
    vertex 1487.2730297458916 78532.03034259939 2997.000000000002
    vertex 30237.27302974587 45532.03034259939 2997.000000000002
  endloop
endfacet
facet normal -0.0 -0.0 1.0
  outer loop
    vertex 91487.27302974585 78532.03034259938 2997.000000000002
    vertex 42281.46354682989 61228.32501979675 2997.000000000002
    vertex 46487.273029745855 61782.03034259939 2997.000000000002
  endloop
endfacet
facet normal -0.0 -0.0 1.0
  outer loop
    vertex 91487.27302974585 78532.03034259938 2997.000000000002
    vertex 46487.273029745855 61782.03034259939 2997.000000000002
    vertex 50693.082512661815 61228.32501979675 2997.000000000002
  endloop
endfacet
facet normal -0.0 -0.0 1.0
  outer loop
    vertex 91487.27302974585 78532.03034259938 2997.000000000002
    vertex 50693.082512661815 61228.32501979675 2997.000000000002
    vertex 54612.273029745855 59604.94315409652 2997.000000000002
  endloop
endfacet
facet normal -0.0 -0.0 1.0
  outer loop
    vertex 91487.27302974585 78532.03034259938 2997.000000000002
    vertex 54612.273029745855 59604.94315409652 2997.000000000002
    vertex 57977.75822402725 57022.51553688079 2997.000000000002
  endloop
endfacet
facet normal -0.0 -0.0 1.0
  outer loop
    vertex 91487.27302974585 78532.03034259938 2997.000000000002
    vertex 57977.75822402725 57022.51553688079 2997.000000000002
    vertex 60560.18584124299 53657.0303425994 2997.000000000002
  endloop
endfacet
facet normal -0.0 -0.0 1.0
  outer loop
    vertex 91487.27302974585 78532.03034259938 2997.000000000002
    vertex 60560.18584124299 53657.0303425994 2997.000000000002
    vertex 62183.56770694322 49737.839825515366 2997.000000000002
  endloop
endfacet
facet normal -0.0 -0.0 1.0
  outer loop
    vertex 91487.27302974585 78532.03034259938 2997.000000000002
    vertex 62183.56770694322 49737.839825515366 2997.000000000002
    vertex 62737.273029745855 45532.03034259939 2997.000000000002
  endloop
endfacet
facet normal -0.0 -0.0 1.0
  outer loop
    vertex 91487.27302974585 78532.03034259938 2997.000000000002
    vertex 62737.273029745855 45532.03034259939 2997.000000000002
    vertex 91487.27302974585 532.0303425993949 2997.000000000002
  endloop
endfacet
facet normal 1.283398079168466e-16 1.0 -9.874016446874337e-32
  outer loop
    vertex 1487.2730297458913 78532.03034259939 -2.9999999999761084
    vertex 91487.27302974585 78532.03034259938 2997.000000000002
    vertex 91487.27302974585 78532.03034259938 -2.999999999983141
  endloop
endfacet
facet normal 1.283398079168466e-16 1.0 -9.874016446874337e-32
  outer loop
    vertex 91487.27302974585 78532.03034259938 2997.000000000002
    vertex 1487.2730297458913 78532.03034259939 -2.9999999999761084
    vertex 1487.2730297458916 78532.03034259939 2997.000000000002
  endloop
endfacet
endsolid CutPVCBeaconPusher
