solid CutPVCBeaconPusher
facet normal 0.13052619222005157 0.9914448613738104 4.621035440584853e-33
  outer loop
    vertex 142653.78021489567 16452.198113887225 23000.0
    vertex 146341.95160760658 15966.641138506451 3000.0000000000023
    vertex 142653.78021489567 16452.198113887225 3000.0000000000023
  endloop
endfacet
facet normal 0.13052619222005157 0.9914448613738104 4.621035440584853e-33
  outer loop
    vertex 146341.95160760658 15966.641138506451 3000.0000000000023
    vertex 142653.78021489567 16452.198113887225 23000.0
    vertex 146341.95160760658 15966.641138506451 23000.0
  endloop
endfacet
facet normal -0.9914448613738106 0.13052619222005077 -1.9271829697913817e-32
  outer loop
    vertex 130645.65693040923 34422.45062142241 23000.0
    vertex 130091.95160760659 30216.64113850645 3000.0000000000023
    vertex 130091.95160760659 30216.64113850645 23000.0
  endloop
endfacet
facet normal -0.9914448613738106 0.13052619222005077 -1.9271829697913817e-32
  outer loop
    vertex 130091.95160760659 30216.64113850645 3000.0000000000023
    vertex 130645.65693040923 34422.45062142241 23000.0
    vertex 130645.65693040923 34422.45062142241 3000.0000000000023
  endloop
endfacet
facet normal 0.0 0.0 1.0
  outer loop
    vertex 146341.95160760658 30216.64113850645 3000.0000000000023
    vertex 132577.50858298736 33904.812531217365 3000.0000000000023
    vertex 132091.95160760658 30216.64113850645 3000.0000000000023
  endloop
endfacet
facet normal 0.0 0.0 1.0
  outer loop
    vertex 132577.50858298736 33904.812531217365 3000.0000000000023
    vertex 146341.95160760658 30216.64113850645 3000.0000000000023
    vertex 134001.08960367832 37341.641138506435 3000.0000000000023
  endloop
endfacet
facet normal 0.0 0.0 1.0
  outer loop
    vertex 134001.08960367832 37341.641138506435 3000.0000000000023
    vertex 146341.95160760658 30216.64113850645 3000.0000000000023
    vertex 136265.6799756983 40292.91277041475 3000.0000000000023
  endloop
endfacet
facet normal 0.0 0.0 1.0
  outer loop
    vertex 136265.6799756983 40292.91277041475 3000.0000000000023
    vertex 146341.95160760658 30216.64113850645 3000.0000000000023
    vertex 139216.95160760658 42557.5031424347 3000.0000000000023
  endloop
endfacet
facet normal 0.0 0.0 1.0
  outer loop
    vertex 139216.95160760658 42557.5031424347 3000.0000000000023
    vertex 146341.95160760658 30216.64113850645 3000.0000000000023
    vertex 142653.78021489564 43981.08416312567 3000.0000000000023
  endloop
endfacet
facet normal 0.0 0.0 1.0
  outer loop
    vertex 142653.78021489564 43981.08416312567 3000.0000000000023
    vertex 146341.95160760658 30216.64113850645 3000.0000000000023
    vertex 146341.95160760658 44466.64113850645 3000.0000000000023
  endloop
endfacet
facet normal -0.9914448613738107 -0.1305261922200506 -1.981117000517668e-32
  outer loop
    vertex 130091.95160760659 30216.64113850645 23000.0
    vertex 130645.65693040923 26010.831655590486 3000.0000000000023
    vertex 130645.65693040923 26010.831655590486 23000.0
  endloop
endfacet
facet normal -0.9914448613738107 -0.1305261922200506 -1.981117000517668e-32
  outer loop
    vertex 130645.65693040923 26010.831655590486 3000.0000000000023
    vertex 130091.95160760659 30216.64113850645 23000.0
    vertex 130091.95160760659 30216.64113850645 3000.0000000000023
  endloop
endfacet
facet normal 0.3826834323650894 0.923879532511287 9.451494036050439e-33
  outer loop
    vertex 139216.9516076066 17875.7791345782 23000.0
    vertex 142653.78021489567 16452.198113887225 3000.0000000000023
    vertex 139216.9516076066 17875.7791345782 3000.0000000000023
  endloop
endfacet
facet normal 0.3826834323650894 0.923879532511287 9.451494036050439e-33
  outer loop
    vertex 142653.78021489567 16452.198113887225 3000.0000000000023
    vertex 139216.9516076066 17875.7791345782 23000.0
    vertex 142653.78021489567 16452.198113887225 23000.0
  endloop
endfacet
facet normal -0.9914448613738103 0.13052619222005288 -1.92718296979138e-32
  outer loop
    vertex 160591.95160760658 30216.64113850645 23000.0
    vertex 160106.3946322258 26528.469745795526 3000.0000000000023
    vertex 160106.3946322258 26528.469745795526 23000.0
  endloop
endfacet
facet normal -0.9914448613738103 0.13052619222005288 -1.92718296979138e-32
  outer loop
    vertex 160106.3946322258 26528.469745795526 3000.0000000000023
    vertex 160591.95160760658 30216.64113850645 23000.0
    vertex 160591.95160760658 30216.64113850645 3000.0000000000023
  endloop
endfacet
facet normal -1.0 3.470727978520491e-18 3.007964248051122e-17
  outer loop
    vertex 101341.9516076066 48216.64113850645 3000.0000000000023
    vertex 101341.9516076066 4216.641138506455 3.356888100825017e-11
    vertex 101341.9516076066 4216.641138506455 3000.0000000000023
  endloop
endfacet
facet normal -1.0 3.470727978520491e-18 3.007964248051122e-17
  outer loop
    vertex 101341.9516076066 4216.641138506455 3.356888100825017e-11
    vertex 101341.9516076066 48216.64113850645 3000.0000000000023
    vertex 101341.9516076066 48216.64113850645 2.3841054130890882e-11
  endloop
endfacet
facet normal -0.13052619222005138 0.9914448613738105 -5.243390835344547e-34
  outer loop
    vertex 146341.95160760658 15966.641138506451 23000.0
    vertex 150030.12300031752 16452.198113887225 3000.0000000000023
    vertex 146341.95160760658 15966.641138506451 3000.0000000000023
  endloop
endfacet
facet normal -0.13052619222005138 0.9914448613738105 -5.243390835344547e-34
  outer loop
    vertex 150030.12300031752 16452.198113887225 3000.0000000000023
    vertex 146341.95160760658 15966.641138506451 23000.0
    vertex 150030.12300031752 16452.198113887225 23000.0
  endloop
endfacet
facet normal 0.9914448613738106 0.1305261922200502 1.9811170005176678e-32
  outer loop
    vertex 162038.24628480393 34422.450621422424 3000.0000000000023
    vertex 162591.95160760658 30216.64113850645 23000.0
    vertex 162591.95160760658 30216.64113850645 3000.0000000000023
  endloop
endfacet
facet normal 0.9914448613738106 0.1305261922200502 1.9811170005176678e-32
  outer loop
    vertex 162591.95160760658 30216.64113850645 23000.0
    vertex 162038.24628480393 34422.450621422424 3000.0000000000023
    vertex 162038.24628480393 34422.450621422424 23000.0
  endloop
endfacet
facet normal -0.13052619222005077 -0.9914448613738106 -4.621035440584837e-33
  outer loop
    vertex 146341.95160760658 13966.64113850645 23000.0
    vertex 142136.14212469064 14520.346461309085 3000.0000000000023
    vertex 146341.95160760658 13966.64113850645 3000.0000000000023
  endloop
endfacet
facet normal -0.13052619222005077 -0.9914448613738106 -4.621035440584837e-33
  outer loop
    vertex 142136.14212469064 14520.346461309085 3000.0000000000023
    vertex 146341.95160760658 13966.64113850645 23000.0
    vertex 142136.14212469064 14520.346461309085 23000.0
  endloop
endfacet
facet normal -0.9914448613738103 -0.1305261922200525 -1.9811170005176678e-32
  outer loop
    vertex 160106.3946322258 33904.81253121738 23000.0
    vertex 160591.95160760658 30216.64113850645 3000.0000000000023
    vertex 160591.95160760658 30216.64113850645 23000.0
  endloop
endfacet
facet normal -0.9914448613738103 -0.1305261922200525 -1.9811170005176678e-32
  outer loop
    vertex 160591.95160760658 30216.64113850645 3000.0000000000023
    vertex 160106.3946322258 33904.81253121738 23000.0
    vertex 160106.3946322258 33904.81253121738 3000.0000000000023
  endloop
endfacet
facet normal 1.0 0.0 0.0
  outer loop
    vertex 191341.95160760658 48216.64113850644 1.6808410219226742e-11
    vertex 191341.95160760658 4216.641138506455 3000.0000000000023
    vertex 191341.95160760658 4216.641138506455 0.0
  endloop
endfacet
facet normal 1.0 0.0 0.0
  outer loop
    vertex 191341.95160760658 4216.641138506455 3000.0000000000023
    vertex 191341.95160760658 48216.64113850644 1.6808410219226742e-11
    vertex 191341.95160760658 48216.64113850644 3000.0000000000023
  endloop
endfacet
facet normal -2.2556402733285736e-16 4.538835475556058e-17 -1.0
  outer loop
    vertex 191341.95160760658 48216.64113850644 1.6808410219226742e-11
    vertex 101341.9516076066 4216.641138506455 3.356888100825017e-11
    vertex 101341.9516076066 48216.64113850645 2.3841054130890882e-11
  endloop
endfacet
facet normal -2.2556402733285736e-16 4.538835475556058e-17 -1.0
  outer loop
    vertex 101341.9516076066 4216.641138506455 3.356888100825017e-11
    vertex 191341.95160760658 48216.64113850644 1.6808410219226742e-11
    vertex 191341.95160760658 4216.641138506455 0.0
  endloop
endfacet
facet normal 0.6087614290087207 -0.7933533402912352 1.035967596912623e-32
  outer loop
    vertex 157832.436801888 18726.155944225055 23000.0
    vertex 154466.95160760658 16143.728327009323 3000.0000000000023
    vertex 157832.436801888 18726.155944225055 3000.0000000000023
  endloop
endfacet
facet normal 0.6087614290087207 -0.7933533402912352 1.035967596912623e-32
  outer loop
    vertex 154466.95160760658 16143.728327009323 3000.0000000000023
    vertex 157832.436801888 18726.155944225055 23000.0
    vertex 154466.95160760658 16143.728327009323 23000.0
  endloop
endfacet
facet normal 0.6087614290087223 0.7933533402912338 1.3637848932291636e-32
  outer loop
    vertex 154466.95160760658 44289.55395000358 23000.0
    vertex 157832.43680188796 41707.12633278785 3000.0000000000023
    vertex 154466.95160760658 44289.55395000358 3000.0000000000023
  endloop
endfacet
facet normal 0.6087614290087223 0.7933533402912338 1.3637848932291636e-32
  outer loop
    vertex 157832.43680188796 41707.12633278785 3000.0000000000023
    vertex 154466.95160760658 44289.55395000358 23000.0
    vertex 157832.43680188796 41707.12633278785 23000.0
  endloop
endfacet
facet normal -0.13052619222005307 0.9914448613738102 -5.243390835344892e-34
  outer loop
    vertex 142136.1421246906 45912.93581570381 23000.0
    vertex 146341.95160760658 46466.64113850646 3000.0000000000023
    vertex 142136.1421246906 45912.93581570381 3000.0000000000023
  endloop
endfacet
facet normal -0.13052619222005307 0.9914448613738102 -5.243390835344892e-34
  outer loop
    vertex 146341.95160760658 46466.64113850646 3000.0000000000023
    vertex 142136.1421246906 45912.93581570381 23000.0
    vertex 146341.95160760658 46466.64113850646 23000.0
  endloop
endfacet
facet normal -0.6087614290087213 0.7933533402912348 -1.0359675969126248e-32
  outer loop
    vertex 134851.4664133252 41707.12633278785 23000.0
    vertex 138216.95160760658 44289.55395000358 3000.0000000000023
    vertex 134851.4664133252 41707.12633278785 3000.0000000000023
  endloop
endfacet
facet normal -0.6087614290087213 0.7933533402912348 -1.0359675969126248e-32
  outer loop
    vertex 138216.95160760658 44289.55395000358 3000.0000000000023
    vertex 134851.4664133252 41707.12633278785 23000.0
    vertex 138216.95160760658 44289.55395000358 23000.0
  endloop
endfacet
facet normal 0.6087614290087209 0.7933533402912352 1.3637848932291609e-32
  outer loop
    vertex 136265.6799756983 20140.36950659815 23000.0
    vertex 139216.9516076066 17875.7791345782 3000.0000000000023
    vertex 136265.6799756983 20140.36950659815 3000.0000000000023
  endloop
endfacet
facet normal 0.6087614290087209 0.7933533402912352 1.3637848932291609e-32
  outer loop
    vertex 139216.9516076066 17875.7791345782 3000.0000000000023
    vertex 136265.6799756983 20140.36950659815 23000.0
    vertex 139216.9516076066 17875.7791345782 23000.0
  endloop
endfacet
facet normal 0.38268343236509006 -0.9238795325112868 5.6339807656222094e-33
  outer loop
    vertex 154466.95160760658 16143.728327009323 23000.0
    vertex 150547.76109052254 14520.346461309091 3000.0000000000023
    vertex 154466.95160760658 16143.728327009323 3000.0000000000023
  endloop
endfacet
facet normal 0.38268343236509006 -0.9238795325112868 5.6339807656222094e-33
  outer loop
    vertex 150547.76109052254 14520.346461309091 3000.0000000000023
    vertex 154466.95160760658 16143.728327009323 23000.0
    vertex 150547.76109052254 14520.346461309091 23000.0
  endloop
endfacet
facet normal -0.7933533402912353 -0.6087614290087204 -1.6894806961408065e-32
  outer loop
    vertex 132269.03879610944 22091.641138506442 23000.0
    vertex 134851.4664133252 18726.15594422505 3000.0000000000023
    vertex 134851.4664133252 18726.15594422505 23000.0
  endloop
endfacet
facet normal -0.7933533402912353 -0.6087614290087204 -1.6894806961408065e-32
  outer loop
    vertex 134851.4664133252 18726.15594422505 3000.0000000000023
    vertex 132269.03879610944 22091.641138506442 23000.0
    vertex 132269.03879610944 22091.641138506442 3000.0000000000023
  endloop
endfacet
facet normal -0.9238795325112868 0.38268343236509 -1.7419146044942524e-32
  outer loop
    vertex 160106.3946322258 26528.469745795526 23000.0
    vertex 158682.81361153483 23091.641138506453 3000.0000000000023
    vertex 158682.81361153483 23091.641138506453 23000.0
  endloop
endfacet
facet normal -0.9238795325112868 0.38268343236509 -1.7419146044942524e-32
  outer loop
    vertex 158682.81361153483 23091.641138506453 3000.0000000000023
    vertex 160106.3946322258 26528.469745795526 23000.0
    vertex 160106.3946322258 26528.469745795526 3000.0000000000023
  endloop
endfacet
facet normal 1.283398079168466e-16 1.0 -9.874016446874337e-32
  outer loop
    vertex 101341.9516076066 48216.64113850645 2.3841054130890882e-11
    vertex 191341.95160760658 48216.64113850644 3000.0000000000023
    vertex 191341.95160760658 48216.64113850644 1.6808410219226742e-11
  endloop
endfacet
facet normal 1.283398079168466e-16 1.0 -9.874016446874337e-32
  outer loop
    vertex 191341.95160760658 48216.64113850644 3000.0000000000023
    vertex 101341.9516076066 48216.64113850645 2.3841054130890882e-11
    vertex 101341.9516076066 48216.64113850645 3000.0000000000023
  endloop
endfacet
facet normal 0.6087614290087225 -0.7933533402912337 1.0359675969126273e-32
  outer loop
    vertex 139216.95160760658 42557.5031424347 23000.0
    vertex 136265.6799756983 40292.91277041475 3000.0000000000023
    vertex 139216.95160760658 42557.5031424347 3000.0000000000023
  endloop
endfacet
facet normal 0.6087614290087225 -0.7933533402912337 1.0359675969126273e-32
  outer loop
    vertex 136265.6799756983 40292.91277041475 3000.0000000000023
    vertex 139216.95160760658 42557.5031424347 23000.0
    vertex 136265.6799756983 40292.91277041475 23000.0
  endloop
endfacet
facet normal 0.9238795325112868 -0.38268343236509 1.7419146044942524e-32
  outer loop
    vertex 134001.08960367832 37341.641138506435 3000.0000000000023
    vertex 132577.50858298736 33904.812531217365 23000.0
    vertex 132577.50858298736 33904.812531217365 3000.0000000000023
  endloop
endfacet
facet normal 0.9238795325112868 -0.38268343236509 1.7419146044942524e-32
  outer loop
    vertex 132577.50858298736 33904.812531217365 23000.0
    vertex 134001.08960367832 37341.641138506435 3000.0000000000023
    vertex 134001.08960367832 37341.641138506435 23000.0
  endloop
endfacet
facet normal -0.38268343236509 0.9238795325112868 -5.6339807656222094e-33
  outer loop
    vertex 150030.12300031752 16452.198113887225 23000.0
    vertex 153466.95160760658 17875.7791345782 3000.0000000000023
    vertex 150030.12300031752 16452.198113887225 3000.0000000000023
  endloop
endfacet
facet normal -0.38268343236509 0.9238795325112868 -5.6339807656222094e-33
  outer loop
    vertex 153466.95160760658 17875.7791345782 3000.0000000000023
    vertex 150030.12300031752 16452.198113887225 23000.0
    vertex 153466.95160760658 17875.7791345782 23000.0
  endloop
endfacet
facet normal -0.13052619222005002 -0.9914448613738106 -4.6210354405848236e-33
  outer loop
    vertex 150030.12300031752 43981.08416312567 23000.0
    vertex 146341.95160760658 44466.64113850645 3000.0000000000023
    vertex 150030.12300031752 43981.08416312567 3000.0000000000023
  endloop
endfacet
facet normal -0.13052619222005002 -0.9914448613738106 -4.6210354405848236e-33
  outer loop
    vertex 146341.95160760658 44466.64113850645 3000.0000000000023
    vertex 150030.12300031752 43981.08416312567 23000.0
    vertex 146341.95160760658 44466.64113850645 23000.0
  endloop
endfacet
facet normal 0.7933533402912354 0.6087614290087207 1.6894806961408065e-32
  outer loop
    vertex 134001.08960367832 23091.641138506446 3000.0000000000023
    vertex 136265.6799756983 20140.36950659815 23000.0
    vertex 136265.6799756983 20140.36950659815 3000.0000000000023
  endloop
endfacet
facet normal 0.7933533402912354 0.6087614290087207 1.6894806961408065e-32
  outer loop
    vertex 136265.6799756983 20140.36950659815 23000.0
    vertex 134001.08960367832 23091.641138506446 3000.0000000000023
    vertex 134001.08960367832 23091.641138506446 23000.0
  endloop
endfacet
facet normal 0.9914448613738104 -0.13052619222005157 1.927182969791381e-32
  outer loop
    vertex 132577.50858298736 33904.812531217365 3000.0000000000023
    vertex 132091.95160760658 30216.64113850645 23000.0
    vertex 132091.95160760658 30216.64113850645 3000.0000000000023
  endloop
endfacet
facet normal 0.9914448613738104 -0.13052619222005157 1.927182969791381e-32
  outer loop
    vertex 132091.95160760658 30216.64113850645 23000.0
    vertex 132577.50858298736 33904.812531217365 3000.0000000000023
    vertex 132577.50858298736 33904.812531217365 23000.0
  endloop
endfacet
facet normal 0.0 0.0 1.0
  outer loop
    vertex 150030.12300031752 16452.198113887225 3000.0000000000023
    vertex 146341.95160760658 30216.64113850645 3000.0000000000023
    vertex 146341.95160760658 15966.641138506451 3000.0000000000023
  endloop
endfacet
facet normal 0.0 0.0 1.0
  outer loop
    vertex 146341.95160760658 30216.64113850645 3000.0000000000023
    vertex 150030.12300031752 16452.198113887225 3000.0000000000023
    vertex 160591.95160760658 30216.64113850645 3000.0000000000023
  endloop
endfacet
facet normal 0.0 0.0 1.0
  outer loop
    vertex 160591.95160760658 30216.64113850645 3000.0000000000023
    vertex 150030.12300031752 16452.198113887225 3000.0000000000023
    vertex 153466.95160760658 17875.7791345782 3000.0000000000023
  endloop
endfacet
facet normal 0.0 0.0 1.0
  outer loop
    vertex 160591.95160760658 30216.64113850645 3000.0000000000023
    vertex 153466.95160760658 17875.7791345782 3000.0000000000023
    vertex 156418.22323951486 20140.36950659815 3000.0000000000023
  endloop
endfacet
facet normal 0.0 0.0 1.0
  outer loop
    vertex 160591.95160760658 30216.64113850645 3000.0000000000023
    vertex 156418.22323951486 20140.36950659815 3000.0000000000023
    vertex 158682.81361153483 23091.641138506453 3000.0000000000023
  endloop
endfacet
facet normal 0.0 0.0 1.0
  outer loop
    vertex 160591.95160760658 30216.64113850645 3000.0000000000023
    vertex 158682.81361153483 23091.641138506453 3000.0000000000023
    vertex 160106.3946322258 26528.469745795526 3000.0000000000023
  endloop
endfacet
facet normal 0.9914448613738107 -0.1305261922200506 1.9271829697913817e-32
  outer loop
    vertex 162591.95160760658 30216.64113850645 3000.0000000000023
    vertex 162038.24628480393 26010.831655590486 23000.0
    vertex 162038.24628480393 26010.831655590486 3000.0000000000023
  endloop
endfacet
facet normal 0.9914448613738107 -0.1305261922200506 1.9271829697913817e-32
  outer loop
    vertex 162038.24628480393 26010.831655590486 23000.0
    vertex 162591.95160760658 30216.64113850645 3000.0000000000023
    vertex 162591.95160760658 30216.64113850645 23000.0
  endloop
endfacet
facet normal 0.0 0.0 1.0
  outer loop
    vertex 101341.9516076066 4216.641138506455 3000.0000000000023
    vertex 134851.4664133252 18726.15594422505 3000.0000000000023
    vertex 101341.9516076066 48216.64113850645 3000.0000000000023
  endloop
endfacet
facet normal 0.0 0.0 1.0
  outer loop
    vertex 134851.4664133252 18726.15594422505 3000.0000000000023
    vertex 101341.9516076066 4216.641138506455 3000.0000000000023
    vertex 138216.9516076066 16143.728327009323 3000.0000000000023
  endloop
endfacet
facet normal 0.0 0.0 1.0
  outer loop
    vertex 138216.9516076066 16143.728327009323 3000.0000000000023
    vertex 101341.9516076066 4216.641138506455 3000.0000000000023
    vertex 142136.14212469064 14520.346461309085 3000.0000000000023
  endloop
endfacet
facet normal 0.0 0.0 1.0
  outer loop
    vertex 142136.14212469064 14520.346461309085 3000.0000000000023
    vertex 101341.9516076066 4216.641138506455 3000.0000000000023
    vertex 191341.95160760658 4216.641138506455 3000.0000000000023
  endloop
endfacet
facet normal 0.0 0.0 1.0
  outer loop
    vertex 101341.9516076066 48216.64113850645 3000.0000000000023
    vertex 134851.4664133252 18726.15594422505 3000.0000000000023
    vertex 132269.03879610944 22091.641138506442 3000.0000000000023
  endloop
endfacet
facet normal 0.0 0.0 1.0
  outer loop
    vertex 101341.9516076066 48216.64113850645 3000.0000000000023
    vertex 132269.03879610944 22091.641138506442 3000.0000000000023
    vertex 130645.65693040923 26010.831655590486 3000.0000000000023
  endloop
endfacet
facet normal 0.0 0.0 1.0
  outer loop
    vertex 101341.9516076066 48216.64113850645 3000.0000000000023
    vertex 130645.65693040923 26010.831655590486 3000.0000000000023
    vertex 130091.95160760659 30216.64113850645 3000.0000000000023
  endloop
endfacet
facet normal 0.0 0.0 1.0
  outer loop
    vertex 142136.14212469064 14520.346461309085 3000.0000000000023
    vertex 191341.95160760658 4216.641138506455 3000.0000000000023
    vertex 146341.95160760658 13966.64113850645 3000.0000000000023
  endloop
endfacet
facet normal 0.0 0.0 1.0
  outer loop
    vertex 146341.95160760658 13966.64113850645 3000.0000000000023
    vertex 191341.95160760658 4216.641138506455 3000.0000000000023
    vertex 150547.76109052254 14520.346461309091 3000.0000000000023
  endloop
endfacet
facet normal 0.0 0.0 1.0
  outer loop
    vertex 150547.76109052254 14520.346461309091 3000.0000000000023
    vertex 191341.95160760658 4216.641138506455 3000.0000000000023
    vertex 154466.95160760658 16143.728327009323 3000.0000000000023
  endloop
endfacet
facet normal 0.0 0.0 1.0
  outer loop
    vertex 154466.95160760658 16143.728327009323 3000.0000000000023
    vertex 191341.95160760658 4216.641138506455 3000.0000000000023
    vertex 157832.436801888 18726.155944225055 3000.0000000000023
  endloop
endfacet
facet normal 0.0 0.0 1.0
  outer loop
    vertex 157832.436801888 18726.155944225055 3000.0000000000023
    vertex 191341.95160760658 4216.641138506455 3000.0000000000023
    vertex 160414.86441910372 22091.64113850645 3000.0000000000023
  endloop
endfacet
facet normal 0.0 0.0 1.0
  outer loop
    vertex 160414.86441910372 22091.64113850645 3000.0000000000023
    vertex 191341.95160760658 4216.641138506455 3000.0000000000023
    vertex 162038.24628480393 26010.831655590486 3000.0000000000023
  endloop
endfacet
facet normal 0.0 0.0 1.0
  outer loop
    vertex 162038.24628480393 26010.831655590486 3000.0000000000023
    vertex 191341.95160760658 4216.641138506455 3000.0000000000023
    vertex 162591.95160760658 30216.64113850645 3000.0000000000023
  endloop
endfacet
facet normal 0.0 0.0 1.0
  outer loop
    vertex 101341.9516076066 48216.64113850645 3000.0000000000023
    vertex 146341.95160760658 46466.64113850646 3000.0000000000023
    vertex 191341.95160760658 48216.64113850644 3000.0000000000023
  endloop
endfacet
facet normal 0.0 0.0 1.0
  outer loop
    vertex 146341.95160760658 46466.64113850646 3000.0000000000023
    vertex 101341.9516076066 48216.64113850645 3000.0000000000023
    vertex 142136.1421246906 45912.93581570381 3000.0000000000023
  endloop
endfacet
facet normal 0.0 0.0 1.0
  outer loop
    vertex 142136.1421246906 45912.93581570381 3000.0000000000023
    vertex 101341.9516076066 48216.64113850645 3000.0000000000023
    vertex 138216.95160760658 44289.55395000358 3000.0000000000023
  endloop
endfacet
facet normal 0.0 0.0 1.0
  outer loop
    vertex 138216.95160760658 44289.55395000358 3000.0000000000023
    vertex 101341.9516076066 48216.64113850645 3000.0000000000023
    vertex 134851.4664133252 41707.12633278785 3000.0000000000023
  endloop
endfacet
facet normal 0.0 0.0 1.0
  outer loop
    vertex 134851.4664133252 41707.12633278785 3000.0000000000023
    vertex 101341.9516076066 48216.64113850645 3000.0000000000023
    vertex 132269.03879610944 38341.641138506435 3000.0000000000023
  endloop
endfacet
facet normal 0.0 0.0 1.0
  outer loop
    vertex 132269.03879610944 38341.641138506435 3000.0000000000023
    vertex 101341.9516076066 48216.64113850645 3000.0000000000023
    vertex 130645.65693040923 34422.45062142241 3000.0000000000023
  endloop
endfacet
facet normal 0.0 0.0 1.0
  outer loop
    vertex 130645.65693040923 34422.45062142241 3000.0000000000023
    vertex 101341.9516076066 48216.64113850645 3000.0000000000023
    vertex 130091.95160760659 30216.64113850645 3000.0000000000023
  endloop
endfacet
facet normal 0.0 0.0 1.0
  outer loop
    vertex 191341.95160760658 48216.64113850644 3000.0000000000023
    vertex 146341.95160760658 46466.64113850646 3000.0000000000023
    vertex 150547.76109052252 45912.93581570381 3000.0000000000023
  endloop
endfacet
facet normal 0.0 0.0 1.0
  outer loop
    vertex 191341.95160760658 48216.64113850644 3000.0000000000023
    vertex 150547.76109052252 45912.93581570381 3000.0000000000023
    vertex 154466.95160760658 44289.55395000358 3000.0000000000023
  endloop
endfacet
facet normal 0.0 0.0 1.0
  outer loop
    vertex 191341.95160760658 48216.64113850644 3000.0000000000023
    vertex 154466.95160760658 44289.55395000358 3000.0000000000023
    vertex 157832.43680188796 41707.12633278785 3000.0000000000023
  endloop
endfacet
facet normal 0.0 0.0 1.0
  outer loop
    vertex 191341.95160760658 48216.64113850644 3000.0000000000023
    vertex 157832.43680188796 41707.12633278785 3000.0000000000023
    vertex 160414.8644191037 38341.641138506464 3000.0000000000023
  endloop
endfacet
facet normal 0.0 0.0 1.0
  outer loop
    vertex 191341.95160760658 48216.64113850644 3000.0000000000023
    vertex 160414.8644191037 38341.641138506464 3000.0000000000023
    vertex 162038.24628480393 34422.450621422424 3000.0000000000023
  endloop
endfacet
facet normal 0.0 0.0 1.0
  outer loop
    vertex 191341.95160760658 48216.64113850644 3000.0000000000023
    vertex 162038.24628480393 34422.450621422424 3000.0000000000023
    vertex 162591.95160760658 30216.64113850645 3000.0000000000023
  endloop
endfacet
facet normal 0.0 0.0 1.0
  outer loop
    vertex 191341.95160760658 48216.64113850644 3000.0000000000023
    vertex 162591.95160760658 30216.64113850645 3000.0000000000023
    vertex 191341.95160760658 4216.641138506455 3000.0000000000023
  endloop
endfacet
facet normal 0.0 0.0 1.0
  outer loop
    vertex 160591.95160760658 30216.64113850645 3000.0000000000023
    vertex 146341.95160760658 44466.64113850645 3000.0000000000023
    vertex 146341.95160760658 30216.64113850645 3000.0000000000023
  endloop
endfacet
facet normal 0.0 0.0 1.0
  outer loop
    vertex 146341.95160760658 44466.64113850645 3000.0000000000023
    vertex 160591.95160760658 30216.64113850645 3000.0000000000023
    vertex 150030.12300031752 43981.08416312567 3000.0000000000023
  endloop
endfacet
facet normal 0.0 0.0 1.0
  outer loop
    vertex 150030.12300031752 43981.08416312567 3000.0000000000023
    vertex 160591.95160760658 30216.64113850645 3000.0000000000023
    vertex 153466.95160760658 42557.5031424347 3000.0000000000023
  endloop
endfacet
facet normal 0.0 0.0 1.0
  outer loop
    vertex 153466.95160760658 42557.5031424347 3000.0000000000023
    vertex 160591.95160760658 30216.64113850645 3000.0000000000023
    vertex 156418.22323951486 40292.91277041475 3000.0000000000023
  endloop
endfacet
facet normal 0.0 0.0 1.0
  outer loop
    vertex 156418.22323951486 40292.91277041475 3000.0000000000023
    vertex 160591.95160760658 30216.64113850645 3000.0000000000023
    vertex 158682.81361153483 37341.64113850646 3000.0000000000023
  endloop
endfacet
facet normal 0.0 0.0 1.0
  outer loop
    vertex 158682.81361153483 37341.64113850646 3000.0000000000023
    vertex 160591.95160760658 30216.64113850645 3000.0000000000023
    vertex 160106.3946322258 33904.81253121738 3000.0000000000023
  endloop
endfacet
facet normal -0.9238795325112865 -0.3826834323650905 -1.9000411816093165e-32
  outer loop
    vertex 158682.81361153483 37341.64113850646 23000.0
    vertex 160106.3946322258 33904.81253121738 3000.0000000000023
    vertex 160106.3946322258 33904.81253121738 23000.0
  endloop
endfacet
facet normal -0.9238795325112865 -0.3826834323650905 -1.9000411816093165e-32
  outer loop
    vertex 160106.3946322258 33904.81253121738 3000.0000000000023
    vertex 158682.81361153483 37341.64113850646 23000.0
    vertex 158682.81361153483 37341.64113850646 3000.0000000000023
  endloop
endfacet
facet normal -0.3826834323650905 -0.9238795325112865 -9.45149403605046e-33
  outer loop
    vertex 153466.95160760658 42557.5031424347 23000.0
    vertex 150030.12300031752 43981.08416312567 3000.0000000000023
    vertex 153466.95160760658 42557.5031424347 3000.0000000000023
  endloop
endfacet
facet normal -0.3826834323650905 -0.9238795325112865 -9.45149403605046e-33
  outer loop
    vertex 150030.12300031752 43981.08416312567 3000.0000000000023
    vertex 153466.95160760658 42557.5031424347 23000.0
    vertex 150030.12300031752 43981.08416312567 23000.0
  endloop
endfacet
facet normal 0.38268343236509 -0.9238795325112868 5.6339807656222094e-33
  outer loop
    vertex 142653.78021489564 43981.08416312567 23000.0
    vertex 139216.95160760658 42557.5031424347 3000.0000000000023
    vertex 142653.78021489564 43981.08416312567 3000.0000000000023
  endloop
endfacet
facet normal 0.38268343236509 -0.9238795325112868 5.6339807656222094e-33
  outer loop
    vertex 139216.95160760658 42557.5031424347 3000.0000000000023
    vertex 142653.78021489564 43981.08416312567 23000.0
    vertex 139216.95160760658 42557.5031424347 23000.0
  endloop
endfacet
facet normal 0.38268343236508884 0.9238795325112873 9.451494036050429e-33
  outer loop
    vertex 150547.76109052252 45912.93581570381 23000.0
    vertex 154466.95160760658 44289.55395000358 3000.0000000000023
    vertex 150547.76109052252 45912.93581570381 3000.0000000000023
  endloop
endfacet
facet normal 0.38268343236508884 0.9238795325112873 9.451494036050429e-33
  outer loop
    vertex 154466.95160760658 44289.55395000358 3000.0000000000023
    vertex 150547.76109052252 45912.93581570381 23000.0
    vertex 154466.95160760658 44289.55395000358 23000.0
  endloop
endfacet
facet normal -0.9238795325112873 0.38268343236508884 -1.7419146044942534e-32
  outer loop
    vertex 132269.03879610944 38341.641138506435 23000.0
    vertex 130645.65693040923 34422.45062142241 3000.0000000000023
    vertex 130645.65693040923 34422.45062142241 23000.0
  endloop
endfacet
facet normal -0.9238795325112873 0.38268343236508884 -1.7419146044942534e-32
  outer loop
    vertex 130645.65693040923 34422.45062142241 3000.0000000000023
    vertex 132269.03879610944 38341.641138506435 23000.0
    vertex 132269.03879610944 38341.641138506435 3000.0000000000023
  endloop
endfacet
facet normal 0.13052619222005193 -0.9914448613738105 5.2433908353446565e-34
  outer loop
    vertex 150547.76109052254 14520.346461309091 23000.0
    vertex 146341.95160760658 13966.64113850645 3000.0000000000023
    vertex 150547.76109052254 14520.346461309091 3000.0000000000023
  endloop
endfacet
facet normal 0.13052619222005193 -0.9914448613738105 5.2433908353446565e-34
  outer loop
    vertex 146341.95160760658 13966.64113850645 3000.0000000000023
    vertex 150547.76109052254 14520.346461309091 23000.0
    vertex 146341.95160760658 13966.64113850645 23000.0
  endloop
endfacet
facet normal 0.0 0.0 1.0
  outer loop
    vertex 132577.50858298736 26528.469745795526 3000.0000000000023
    vertex 146341.95160760658 30216.64113850645 3000.0000000000023
    vertex 132091.95160760658 30216.64113850645 3000.0000000000023
  endloop
endfacet
facet normal 0.0 0.0 1.0
  outer loop
    vertex 146341.95160760658 30216.64113850645 3000.0000000000023
    vertex 132577.50858298736 26528.469745795526 3000.0000000000023
    vertex 134001.08960367832 23091.641138506446 3000.0000000000023
  endloop
endfacet
facet normal 0.0 0.0 1.0
  outer loop
    vertex 146341.95160760658 30216.64113850645 3000.0000000000023
    vertex 134001.08960367832 23091.641138506446 3000.0000000000023
    vertex 136265.6799756983 20140.36950659815 3000.0000000000023
  endloop
endfacet
facet normal 0.0 0.0 1.0
  outer loop
    vertex 146341.95160760658 30216.64113850645 3000.0000000000023
    vertex 136265.6799756983 20140.36950659815 3000.0000000000023
    vertex 139216.9516076066 17875.7791345782 3000.0000000000023
  endloop
endfacet
facet normal 0.0 0.0 1.0
  outer loop
    vertex 146341.95160760658 30216.64113850645 3000.0000000000023
    vertex 139216.9516076066 17875.7791345782 3000.0000000000023
    vertex 142653.78021489567 16452.198113887225 3000.0000000000023
  endloop
endfacet
facet normal 0.0 0.0 1.0
  outer loop
    vertex 146341.95160760658 30216.64113850645 3000.0000000000023
    vertex 142653.78021489567 16452.198113887225 3000.0000000000023
    vertex 146341.95160760658 15966.641138506451 3000.0000000000023
  endloop
endfacet
facet normal -0.7933533402912358 -0.6087614290087199 -1.6894806961408076e-32
  outer loop
    vertex 156418.22323951486 40292.91277041475 23000.0
    vertex 158682.81361153483 37341.64113850646 3000.0000000000023
    vertex 158682.81361153483 37341.64113850646 23000.0
  endloop
endfacet
facet normal -0.7933533402912358 -0.6087614290087199 -1.6894806961408076e-32
  outer loop
    vertex 158682.81361153483 37341.64113850646 3000.0000000000023
    vertex 156418.22323951486 40292.91277041475 23000.0
    vertex 156418.22323951486 40292.91277041475 3000.0000000000023
  endloop
endfacet
facet normal 0.9914448613738103 0.13052619222005288 1.9811170005176678e-32
  outer loop
    vertex 132091.95160760658 30216.64113850645 3000.0000000000023
    vertex 132577.50858298736 26528.469745795526 23000.0
    vertex 132577.50858298736 26528.469745795526 3000.0000000000023
  endloop
endfacet
facet normal 0.9914448613738103 0.13052619222005288 1.9811170005176678e-32
  outer loop
    vertex 132577.50858298736 26528.469745795526 23000.0
    vertex 132091.95160760658 30216.64113850645 3000.0000000000023
    vertex 132091.95160760658 30216.64113850645 23000.0
  endloop
endfacet
facet normal -0.9238795325112864 -0.3826834323650906 -1.9000411816093165e-32
  outer loop
    vertex 130645.65693040923 26010.831655590486 23000.0
    vertex 132269.03879610944 22091.641138506442 3000.0000000000023
    vertex 132269.03879610944 22091.641138506442 23000.0
  endloop
endfacet
facet normal -0.9238795325112864 -0.3826834323650906 -1.9000411816093165e-32
  outer loop
    vertex 132269.03879610944 22091.641138506442 3000.0000000000023
    vertex 130645.65693040923 26010.831655590486 23000.0
    vertex 130645.65693040923 26010.831655590486 3000.0000000000023
  endloop
endfacet
facet normal 0.923879532511287 0.3826834323650894 1.900041181609317e-32
  outer loop
    vertex 132577.50858298736 26528.469745795526 3000.0000000000023
    vertex 134001.08960367832 23091.641138506446 23000.0
    vertex 134001.08960367832 23091.641138506446 3000.0000000000023
  endloop
endfacet
facet normal 0.923879532511287 0.3826834323650894 1.900041181609317e-32
  outer loop
    vertex 134001.08960367832 23091.641138506446 23000.0
    vertex 132577.50858298736 26528.469745795526 3000.0000000000023
    vertex 132577.50858298736 26528.469745795526 23000.0
  endloop
endfacet
facet normal -1.9710122683441288e-32 -2.066023294212119e-33 1.0
  outer loop
    vertex 130645.65693040923 26010.831655590486 23000.0
    vertex 130645.65693040923 34422.45062142241 23000.0
    vertex 130091.95160760659 30216.64113850645 23000.0
  endloop
endfacet
facet normal -1.9710122683441288e-32 -2.066023294212119e-33 1.0
  outer loop
    vertex 130645.65693040923 34422.45062142241 23000.0
    vertex 130645.65693040923 26010.831655590486 23000.0
    vertex 132269.03879610944 22091.641138506442 23000.0
  endloop
endfacet
facet normal -1.9710122683441288e-32 -2.066023294212119e-33 1.0
  outer loop
    vertex 130645.65693040923 34422.45062142241 23000.0
    vertex 132269.03879610944 22091.641138506442 23000.0
    vertex 132091.95160760658 30216.64113850645 23000.0
  endloop
endfacet
facet normal -1.9710122683441288e-32 -2.066023294212119e-33 1.0
  outer loop
    vertex 132091.95160760658 30216.64113850645 23000.0
    vertex 132269.03879610944 22091.641138506442 23000.0
    vertex 132577.50858298736 26528.469745795526 23000.0
  endloop
endfacet
facet normal -1.9710122683441288e-32 -2.066023294212119e-33 1.0
  outer loop
    vertex 132577.50858298736 26528.469745795526 23000.0
    vertex 132269.03879610944 22091.641138506442 23000.0
    vertex 134851.4664133252 18726.15594422505 23000.0
  endloop
endfacet
facet normal -1.9710122683441288e-32 -2.066023294212119e-33 1.0
  outer loop
    vertex 132577.50858298736 26528.469745795526 23000.0
    vertex 134851.4664133252 18726.15594422505 23000.0
    vertex 134001.08960367832 23091.641138506446 23000.0
  endloop
endfacet
facet normal -1.9710122683441288e-32 -2.066023294212119e-33 1.0
  outer loop
    vertex 134001.08960367832 23091.641138506446 23000.0
    vertex 134851.4664133252 18726.15594422505 23000.0
    vertex 136265.6799756983 20140.36950659815 23000.0
  endloop
endfacet
facet normal -1.9710122683441288e-32 -2.066023294212119e-33 1.0
  outer loop
    vertex 136265.6799756983 20140.36950659815 23000.0
    vertex 134851.4664133252 18726.15594422505 23000.0
    vertex 138216.9516076066 16143.728327009323 23000.0
  endloop
endfacet
facet normal -1.9710122683441288e-32 -2.066023294212119e-33 1.0
  outer loop
    vertex 136265.6799756983 20140.36950659815 23000.0
    vertex 138216.9516076066 16143.728327009323 23000.0
    vertex 139216.9516076066 17875.7791345782 23000.0
  endloop
endfacet
facet normal -1.9710122683441288e-32 -2.066023294212119e-33 1.0
  outer loop
    vertex 139216.9516076066 17875.7791345782 23000.0
    vertex 138216.9516076066 16143.728327009323 23000.0
    vertex 142136.14212469064 14520.346461309085 23000.0
  endloop
endfacet
facet normal -1.9710122683441288e-32 -2.066023294212119e-33 1.0
  outer loop
    vertex 139216.9516076066 17875.7791345782 23000.0
    vertex 142136.14212469064 14520.346461309085 23000.0
    vertex 142653.78021489567 16452.198113887225 23000.0
  endloop
endfacet
facet normal -1.9710122683441288e-32 -2.066023294212119e-33 1.0
  outer loop
    vertex 142653.78021489567 16452.198113887225 23000.0
    vertex 142136.14212469064 14520.346461309085 23000.0
    vertex 146341.95160760658 13966.64113850645 23000.0
  endloop
endfacet
facet normal -1.9710122683441288e-32 -2.066023294212119e-33 1.0
  outer loop
    vertex 142653.78021489567 16452.198113887225 23000.0
    vertex 146341.95160760658 13966.64113850645 23000.0
    vertex 146341.95160760658 15966.641138506451 23000.0
  endloop
endfacet
facet normal -1.9710122683441288e-32 -2.066023294212119e-33 1.0
  outer loop
    vertex 146341.95160760658 15966.641138506451 23000.0
    vertex 146341.95160760658 13966.64113850645 23000.0
    vertex 150547.76109052254 14520.346461309091 23000.0
  endloop
endfacet
facet normal -1.9710122683441288e-32 -2.066023294212119e-33 1.0
  outer loop
    vertex 146341.95160760658 15966.641138506451 23000.0
    vertex 150547.76109052254 14520.346461309091 23000.0
    vertex 150030.12300031752 16452.198113887225 23000.0
  endloop
endfacet
facet normal -1.9710122683441288e-32 -2.066023294212119e-33 1.0
  outer loop
    vertex 150030.12300031752 16452.198113887225 23000.0
    vertex 150547.76109052254 14520.346461309091 23000.0
    vertex 153466.95160760658 17875.7791345782 23000.0
  endloop
endfacet
facet normal -1.9710122683441288e-32 -2.066023294212119e-33 1.0
  outer loop
    vertex 153466.95160760658 17875.7791345782 23000.0
    vertex 150547.76109052254 14520.346461309091 23000.0
    vertex 154466.95160760658 16143.728327009323 23000.0
  endloop
endfacet
facet normal -1.9710122683441288e-32 -2.066023294212119e-33 1.0
  outer loop
    vertex 153466.95160760658 17875.7791345782 23000.0
    vertex 154466.95160760658 16143.728327009323 23000.0
    vertex 156418.22323951486 20140.36950659815 23000.0
  endloop
endfacet
facet normal -1.9710122683441288e-32 -2.066023294212119e-33 1.0
  outer loop
    vertex 156418.22323951486 20140.36950659815 23000.0
    vertex 154466.95160760658 16143.728327009323 23000.0
    vertex 157832.436801888 18726.155944225055 23000.0
  endloop
endfacet
facet normal -1.9710122683441288e-32 -2.066023294212119e-33 1.0
  outer loop
    vertex 156418.22323951486 20140.36950659815 23000.0
    vertex 157832.436801888 18726.155944225055 23000.0
    vertex 158682.81361153483 23091.641138506453 23000.0
  endloop
endfacet
facet normal -1.9710122683441288e-32 -2.066023294212119e-33 1.0
  outer loop
    vertex 158682.81361153483 23091.641138506453 23000.0
    vertex 157832.436801888 18726.155944225055 23000.0
    vertex 160414.86441910372 22091.64113850645 23000.0
  endloop
endfacet
facet normal -1.9710122683441288e-32 -2.066023294212119e-33 1.0
  outer loop
    vertex 158682.81361153483 23091.641138506453 23000.0
    vertex 160414.86441910372 22091.64113850645 23000.0
    vertex 160106.3946322258 26528.469745795526 23000.0
  endloop
endfacet
facet normal -1.9710122683441288e-32 -2.066023294212119e-33 1.0
  outer loop
    vertex 160106.3946322258 26528.469745795526 23000.0
    vertex 160414.86441910372 22091.64113850645 23000.0
    vertex 160591.95160760658 30216.64113850645 23000.0
  endloop
endfacet
facet normal -1.9710122683441288e-32 -2.066023294212119e-33 1.0
  outer loop
    vertex 160591.95160760658 30216.64113850645 23000.0
    vertex 160414.86441910372 22091.64113850645 23000.0
    vertex 162038.24628480393 26010.831655590486 23000.0
  endloop
endfacet
facet normal -1.9710122683441288e-32 -2.066023294212119e-33 1.0
  outer loop
    vertex 132091.95160760658 30216.64113850645 23000.0
    vertex 132269.03879610944 38341.641138506435 23000.0
    vertex 130645.65693040923 34422.45062142241 23000.0
  endloop
endfacet
facet normal -1.9710122683441288e-32 -2.066023294212119e-33 1.0
  outer loop
    vertex 132269.03879610944 38341.641138506435 23000.0
    vertex 132091.95160760658 30216.64113850645 23000.0
    vertex 132577.50858298736 33904.812531217365 23000.0
  endloop
endfacet
facet normal -1.9710122683441288e-32 -2.066023294212119e-33 1.0
  outer loop
    vertex 132269.03879610944 38341.641138506435 23000.0
    vertex 132577.50858298736 33904.812531217365 23000.0
    vertex 134851.4664133252 41707.12633278785 23000.0
  endloop
endfacet
facet normal -1.9710122683441288e-32 -2.066023294212119e-33 1.0
  outer loop
    vertex 134851.4664133252 41707.12633278785 23000.0
    vertex 132577.50858298736 33904.812531217365 23000.0
    vertex 134001.08960367832 37341.641138506435 23000.0
  endloop
endfacet
facet normal -1.9710122683441288e-32 -2.066023294212119e-33 1.0
  outer loop
    vertex 134851.4664133252 41707.12633278785 23000.0
    vertex 134001.08960367832 37341.641138506435 23000.0
    vertex 136265.6799756983 40292.91277041475 23000.0
  endloop
endfacet
facet normal -1.9710122683441288e-32 -2.066023294212119e-33 1.0
  outer loop
    vertex 134851.4664133252 41707.12633278785 23000.0
    vertex 136265.6799756983 40292.91277041475 23000.0
    vertex 138216.95160760658 44289.55395000358 23000.0
  endloop
endfacet
facet normal -1.9710122683441288e-32 -2.066023294212119e-33 1.0
  outer loop
    vertex 138216.95160760658 44289.55395000358 23000.0
    vertex 136265.6799756983 40292.91277041475 23000.0
    vertex 139216.95160760658 42557.5031424347 23000.0
  endloop
endfacet
facet normal -1.9710122683441288e-32 -2.066023294212119e-33 1.0
  outer loop
    vertex 138216.95160760658 44289.55395000358 23000.0
    vertex 139216.95160760658 42557.5031424347 23000.0
    vertex 142136.1421246906 45912.93581570381 23000.0
  endloop
endfacet
facet normal -1.9710122683441288e-32 -2.066023294212119e-33 1.0
  outer loop
    vertex 142136.1421246906 45912.93581570381 23000.0
    vertex 139216.95160760658 42557.5031424347 23000.0
    vertex 142653.78021489564 43981.08416312567 23000.0
  endloop
endfacet
facet normal -1.9710122683441288e-32 -2.066023294212119e-33 1.0
  outer loop
    vertex 142136.1421246906 45912.93581570381 23000.0
    vertex 142653.78021489564 43981.08416312567 23000.0
    vertex 146341.95160760658 46466.64113850646 23000.0
  endloop
endfacet
facet normal -1.9710122683441288e-32 -2.066023294212119e-33 1.0
  outer loop
    vertex 146341.95160760658 46466.64113850646 23000.0
    vertex 142653.78021489564 43981.08416312567 23000.0
    vertex 146341.95160760658 44466.64113850645 23000.0
  endloop
endfacet
facet normal -1.9710122683441288e-32 -2.066023294212119e-33 1.0
  outer loop
    vertex 146341.95160760658 46466.64113850646 23000.0
    vertex 146341.95160760658 44466.64113850645 23000.0
    vertex 150030.12300031752 43981.08416312567 23000.0
  endloop
endfacet
facet normal -1.9710122683441288e-32 -2.066023294212119e-33 1.0
  outer loop
    vertex 146341.95160760658 46466.64113850646 23000.0
    vertex 150030.12300031752 43981.08416312567 23000.0
    vertex 150547.76109052252 45912.93581570381 23000.0
  endloop
endfacet
facet normal -1.9710122683441288e-32 -2.066023294212119e-33 1.0
  outer loop
    vertex 150547.76109052252 45912.93581570381 23000.0
    vertex 150030.12300031752 43981.08416312567 23000.0
    vertex 153466.95160760658 42557.5031424347 23000.0
  endloop
endfacet
facet normal -1.9710122683441288e-32 -2.066023294212119e-33 1.0
  outer loop
    vertex 150547.76109052252 45912.93581570381 23000.0
    vertex 153466.95160760658 42557.5031424347 23000.0
    vertex 154466.95160760658 44289.55395000358 23000.0
  endloop
endfacet
facet normal -1.9710122683441288e-32 -2.066023294212119e-33 1.0
  outer loop
    vertex 154466.95160760658 44289.55395000358 23000.0
    vertex 153466.95160760658 42557.5031424347 23000.0
    vertex 156418.22323951486 40292.91277041475 23000.0
  endloop
endfacet
facet normal -1.9710122683441288e-32 -2.066023294212119e-33 1.0
  outer loop
    vertex 154466.95160760658 44289.55395000358 23000.0
    vertex 156418.22323951486 40292.91277041475 23000.0
    vertex 157832.43680188796 41707.12633278785 23000.0
  endloop
endfacet
facet normal -1.9710122683441288e-32 -2.066023294212119e-33 1.0
  outer loop
    vertex 157832.43680188796 41707.12633278785 23000.0
    vertex 156418.22323951486 40292.91277041475 23000.0
    vertex 158682.81361153483 37341.64113850646 23000.0
  endloop
endfacet
facet normal -1.9710122683441288e-32 -2.066023294212119e-33 1.0
  outer loop
    vertex 157832.43680188796 41707.12633278785 23000.0
    vertex 158682.81361153483 37341.64113850646 23000.0
    vertex 160414.8644191037 38341.641138506464 23000.0
  endloop
endfacet
facet normal -1.9710122683441288e-32 -2.066023294212119e-33 1.0
  outer loop
    vertex 160414.8644191037 38341.641138506464 23000.0
    vertex 158682.81361153483 37341.64113850646 23000.0
    vertex 160106.3946322258 33904.81253121738 23000.0
  endloop
endfacet
facet normal -1.9710122683441288e-32 -2.066023294212119e-33 1.0
  outer loop
    vertex 160414.8644191037 38341.641138506464 23000.0
    vertex 160106.3946322258 33904.81253121738 23000.0
    vertex 160591.95160760658 30216.64113850645 23000.0
  endloop
endfacet
facet normal -1.9710122683441288e-32 -2.066023294212119e-33 1.0
  outer loop
    vertex 160414.8644191037 38341.641138506464 23000.0
    vertex 160591.95160760658 30216.64113850645 23000.0
    vertex 162038.24628480393 34422.450621422424 23000.0
  endloop
endfacet
facet normal -1.9710122683441288e-32 -2.066023294212119e-33 1.0
  outer loop
    vertex 162038.24628480393 34422.450621422424 23000.0
    vertex 160591.95160760658 30216.64113850645 23000.0
    vertex 162038.24628480393 26010.831655590486 23000.0
  endloop
endfacet
facet normal -1.9710122683441288e-32 -2.066023294212119e-33 1.0
  outer loop
    vertex 162038.24628480393 34422.450621422424 23000.0
    vertex 162038.24628480393 26010.831655590486 23000.0
    vertex 162591.95160760658 30216.64113850645 23000.0
  endloop
endfacet
facet normal -0.3826834323650893 0.9238795325112871 -5.633980765622194e-33
  outer loop
    vertex 138216.95160760658 44289.55395000358 23000.0
    vertex 142136.1421246906 45912.93581570381 3000.0000000000023
    vertex 138216.95160760658 44289.55395000358 3000.0000000000023
  endloop
endfacet
facet normal -0.3826834323650893 0.9238795325112871 -5.633980765622194e-33
  outer loop
    vertex 142136.1421246906 45912.93581570381 3000.0000000000023
    vertex 138216.95160760658 44289.55395000358 23000.0
    vertex 142136.1421246906 45912.93581570381 23000.0
  endloop
endfacet
facet normal 0.13052619222004944 -0.9914448613738107 5.243390835344164e-34
  outer loop
    vertex 146341.95160760658 44466.64113850645 23000.0
    vertex 142653.78021489564 43981.08416312567 3000.0000000000023
    vertex 146341.95160760658 44466.64113850645 3000.0000000000023
  endloop
endfacet
facet normal 0.13052619222004944 -0.9914448613738107 5.243390835344164e-34
  outer loop
    vertex 142653.78021489564 43981.08416312567 3000.0000000000023
    vertex 146341.95160760658 44466.64113850645 23000.0
    vertex 142653.78021489564 43981.08416312567 23000.0
  endloop
endfacet
facet normal 0.7933533402912342 0.608761429008722 1.689480696140805e-32
  outer loop
    vertex 157832.43680188796 41707.12633278785 3000.0000000000023
    vertex 160414.8644191037 38341.641138506464 23000.0
    vertex 160414.8644191037 38341.641138506464 3000.0000000000023
  endloop
endfacet
facet normal 0.7933533402912342 0.608761429008722 1.689480696140805e-32
  outer loop
    vertex 160414.8644191037 38341.641138506464 23000.0
    vertex 157832.43680188796 41707.12633278785 3000.0000000000023
    vertex 157832.43680188796 41707.12633278785 23000.0
  endloop
endfacet
facet normal -0.6087614290087209 0.7933533402912352 -1.0359675969126236e-32
  outer loop
    vertex 153466.95160760658 17875.7791345782 23000.0
    vertex 156418.22323951486 20140.36950659815 3000.0000000000023
    vertex 153466.95160760658 17875.7791345782 3000.0000000000023
  endloop
endfacet
facet normal -0.6087614290087209 0.7933533402912352 -1.0359675969126236e-32
  outer loop
    vertex 156418.22323951486 20140.36950659815 3000.0000000000023
    vertex 153466.95160760658 17875.7791345782 23000.0
    vertex 156418.22323951486 20140.36950659815 23000.0
  endloop
endfacet
facet normal 0.0 -1.0 0.0
  outer loop
    vertex 191341.95160760658 4216.641138506455 3000.0000000000023
    vertex 101341.9516076066 4216.641138506455 3.356888100825017e-11
    vertex 191341.95160760658 4216.641138506455 0.0
  endloop
endfacet
facet normal 0.0 -1.0 0.0
  outer loop
    vertex 101341.9516076066 4216.641138506455 3.356888100825017e-11
    vertex 191341.95160760658 4216.641138506455 3000.0000000000023
    vertex 101341.9516076066 4216.641138506455 3000.0000000000023
  endloop
endfacet
facet normal 0.7933533402912358 -0.6087614290087199 1.4379376375508332e-32
  outer loop
    vertex 136265.6799756983 40292.91277041475 3000.0000000000023
    vertex 134001.08960367832 37341.641138506435 23000.0
    vertex 134001.08960367832 37341.641138506435 3000.0000000000023
  endloop
endfacet
facet normal 0.7933533402912358 -0.6087614290087199 1.4379376375508332e-32
  outer loop
    vertex 134001.08960367832 37341.641138506435 23000.0
    vertex 136265.6799756983 40292.91277041475 3000.0000000000023
    vertex 136265.6799756983 40292.91277041475 23000.0
  endloop
endfacet
facet normal -0.7933533402912352 0.6087614290087207 -1.4379376375508316e-32
  outer loop
    vertex 134851.4664133252 41707.12633278785 23000.0
    vertex 132269.03879610944 38341.641138506435 3000.0000000000023
    vertex 132269.03879610944 38341.641138506435 23000.0
  endloop
endfacet
facet normal -0.7933533402912352 0.6087614290087207 -1.4379376375508316e-32
  outer loop
    vertex 132269.03879610944 38341.641138506435 3000.0000000000023
    vertex 134851.4664133252 41707.12633278785 23000.0
    vertex 134851.4664133252 41707.12633278785 3000.0000000000023
  endloop
endfacet
facet normal 0.7933533402912348 -0.6087614290087213 1.4379376375508308e-32
  outer loop
    vertex 160414.86441910372 22091.64113850645 3000.0000000000023
    vertex 157832.436801888 18726.155944225055 23000.0
    vertex 157832.436801888 18726.155944225055 3000.0000000000023
  endloop
endfacet
facet normal 0.7933533402912348 -0.6087614290087213 1.4379376375508308e-32
  outer loop
    vertex 157832.436801888 18726.155944225055 23000.0
    vertex 160414.86441910372 22091.64113850645 3000.0000000000023
    vertex 160414.86441910372 22091.64113850645 23000.0
  endloop
endfacet
facet normal 0.9238795325112873 -0.38268343236508884 1.7419146044942534e-32
  outer loop
    vertex 162038.24628480393 26010.831655590486 3000.0000000000023
    vertex 160414.86441910372 22091.64113850645 23000.0
    vertex 160414.86441910372 22091.64113850645 3000.0000000000023
  endloop
endfacet
facet normal 0.9238795325112873 -0.38268343236508884 1.7419146044942534e-32
  outer loop
    vertex 160414.86441910372 22091.64113850645 23000.0
    vertex 162038.24628480393 26010.831655590486 3000.0000000000023
    vertex 162038.24628480393 26010.831655590486 23000.0
  endloop
endfacet
facet normal -0.7933533402912358 0.6087614290087199 -1.4379376375508332e-32
  outer loop
    vertex 158682.81361153483 23091.641138506453 23000.0
    vertex 156418.22323951486 20140.36950659815 3000.0000000000023
    vertex 156418.22323951486 20140.36950659815 23000.0
  endloop
endfacet
facet normal -0.7933533402912358 0.6087614290087199 -1.4379376375508332e-32
  outer loop
    vertex 156418.22323951486 20140.36950659815 3000.0000000000023
    vertex 158682.81361153483 23091.641138506453 23000.0
    vertex 158682.81361153483 23091.641138506453 3000.0000000000023
  endloop
endfacet
facet normal 0.9238795325112861 0.3826834323650916 1.900041181609316e-32
  outer loop
    vertex 160414.8644191037 38341.641138506464 3000.0000000000023
    vertex 162038.24628480393 34422.450621422424 23000.0
    vertex 162038.24628480393 34422.450621422424 3000.0000000000023
  endloop
endfacet
facet normal 0.9238795325112861 0.3826834323650916 1.900041181609316e-32
  outer loop
    vertex 162038.24628480393 34422.450621422424 23000.0
    vertex 160414.8644191037 38341.641138506464 3000.0000000000023
    vertex 160414.8644191037 38341.641138506464 23000.0
  endloop
endfacet
facet normal -0.6087614290087183 -0.7933533402912369 -1.3637848932291562e-32
  outer loop
    vertex 156418.22323951486 40292.91277041475 23000.0
    vertex 153466.95160760658 42557.5031424347 3000.0000000000023
    vertex 156418.22323951486 40292.91277041475 3000.0000000000023
  endloop
endfacet
facet normal -0.6087614290087183 -0.7933533402912369 -1.3637848932291562e-32
  outer loop
    vertex 153466.95160760658 42557.5031424347 3000.0000000000023
    vertex 156418.22323951486 40292.91277041475 23000.0
    vertex 153466.95160760658 42557.5031424347 23000.0
  endloop
endfacet
facet normal -0.38268343236509106 -0.9238795325112862 -9.451494036050471e-33
  outer loop
    vertex 142136.14212469064 14520.346461309085 23000.0
    vertex 138216.9516076066 16143.728327009323 3000.0000000000023
    vertex 142136.14212469064 14520.346461309085 3000.0000000000023
  endloop
endfacet
facet normal -0.38268343236509106 -0.9238795325112862 -9.451494036050471e-33
  outer loop
    vertex 138216.9516076066 16143.728327009323 3000.0000000000023
    vertex 142136.14212469064 14520.346461309085 23000.0
    vertex 138216.9516076066 16143.728327009323 23000.0
  endloop
endfacet
facet normal 0.13052619222005077 0.9914448613738106 4.621035440584837e-33
  outer loop
    vertex 146341.95160760658 46466.64113850646 23000.0
    vertex 150547.76109052252 45912.93581570381 3000.0000000000023
    vertex 146341.95160760658 46466.64113850646 3000.0000000000023
  endloop
endfacet
facet normal 0.13052619222005077 0.9914448613738106 4.621035440584837e-33
  outer loop
    vertex 150547.76109052252 45912.93581570381 3000.0000000000023
    vertex 146341.95160760658 46466.64113850646 23000.0
    vertex 150547.76109052252 45912.93581570381 23000.0
  endloop
endfacet
facet normal -0.6087614290087198 -0.7933533402912359 -1.363784893229159e-32
  outer loop
    vertex 138216.9516076066 16143.728327009323 23000.0
    vertex 134851.4664133252 18726.15594422505 3000.0000000000023
    vertex 138216.9516076066 16143.728327009323 3000.0000000000023
  endloop
endfacet
facet normal -0.6087614290087198 -0.7933533402912359 -1.363784893229159e-32
  outer loop
    vertex 134851.4664133252 18726.15594422505 3000.0000000000023
    vertex 138216.9516076066 16143.728327009323 23000.0
    vertex 134851.4664133252 18726.15594422505 23000.0
  endloop
endfacet
endsolid CutPVCBeaconPusher
