solid HexPillowBlock
facet normal 2.873303372466277e-28 1.0 2.3880797239594645e-14
  outer loop
    vertex 2163.5162367376956 2435.1775868931545 3.0681235330121123e-12
    vertex 2178.516236737696 2435.1775868931545 3.000000000002888
    vertex 2178.516236737696 2435.1775868931545 2.887645678129047e-12
  endloop
endfacet
facet normal 2.873303372466277e-28 1.0 2.3880797239594645e-14
  outer loop
    vertex 2178.516236737696 2435.1775868931545 3.000000000002888
    vertex 2163.5162367376956 2435.1775868931545 3.0681235330121123e-12
    vertex 2163.5162367376956 2435.1775868931545 3.000000000003068
  endloop
endfacet
facet normal -0.7933533402913866 -0.6087614290085233 7.324709168854616e-14
  outer loop
    vertex 2172.7482875452647 2429.2400868931545 3.000000000002829
    vertex 2172.430450300069 2429.654300455527 3.2542413208602737e-12
    vertex 2172.7482875452647 2429.240086893154 3.2429614549300823e-12
  endloop
endfacet
facet normal -0.7933533402913866 -0.6087614290085233 7.324709168854616e-14
  outer loop
    vertex 2172.430450300069 2429.654300455527 3.2542413208602737e-12
    vertex 2172.7482875452647 2429.2400868931545 3.000000000002829
    vertex 2172.430450300069 2429.6543004555274 3.000000000002842
  endloop
endfacet
facet normal -0.991444861373775 -0.13052619222032125 1.5703420764591708e-14
  outer loop
    vertex 2173.0162367376956 2428.2400868931545 3.0000000000028
    vertex 2172.948088390274 2428.757724983359 3.2274516392760687e-12
    vertex 2173.0162367376956 2428.240086893154 3.2133518068633292e-12
  endloop
endfacet
facet normal -0.991444861373775 -0.13052619222032125 1.5703420764591708e-14
  outer loop
    vertex 2172.948088390274 2428.757724983359 3.2274516392760687e-12
    vertex 2173.0162367376956 2428.2400868931545 3.0000000000028
    vertex 2172.948088390274 2428.7577249833594 3.0000000000028146
  endloop
endfacet
facet normal -0.6087614290081895 -0.793353340291643 9.545294555356333e-14
  outer loop
    vertex 2172.430450300069 2429.6543004555274 3.000000000002842
    vertex 2172.0162367376956 2429.9721377007227 3.265521186790465e-12
    vertex 2172.430450300069 2429.654300455527 3.2542413208602737e-12
  endloop
endfacet
facet normal -0.6087614290081895 -0.793353340291643 9.545294555356333e-14
  outer loop
    vertex 2172.0162367376956 2429.9721377007227 3.265521186790465e-12
    vertex 2172.430450300069 2429.6543004555274 3.000000000002842
    vertex 2172.0162367376956 2429.972137700723 3.0000000000028533
  endloop
endfacet
facet normal -0.38268343236503266 -0.9238795325113104 1.111589056731804e-13
  outer loop
    vertex 2172.0162367376956 2429.972137700723 3.0000000000028533
    vertex 2171.533874827901 2430.171938545732 3.273981086238109e-12
    vertex 2172.0162367376956 2429.9721377007227 3.265521186790465e-12
  endloop
endfacet
facet normal -0.38268343236503266 -0.9238795325113104 1.111589056731804e-13
  outer loop
    vertex 2171.533874827901 2430.171938545732 3.273981086238109e-12
    vertex 2172.0162367376956 2429.972137700723 3.0000000000028533
    vertex 2171.533874827901 2430.1719385457322 3.0000000000028617
  endloop
endfacet
facet normal -0.13052619222032122 -0.991444861373775 1.1928952853391035e-13
  outer loop
    vertex 2171.533874827901 2430.1719385457322 3.0000000000028617
    vertex 2171.0162367376956 2430.240086893154 3.2796210192032046e-12
    vertex 2171.533874827901 2430.171938545732 3.273981086238109e-12
  endloop
endfacet
facet normal -0.13052619222032122 -0.991444861373775 1.1928952853391035e-13
  outer loop
    vertex 2171.0162367376956 2430.240086893154 3.2796210192032046e-12
    vertex 2171.533874827901 2430.1719385457322 3.0000000000028617
    vertex 2171.0162367376956 2430.240086893154 3.0000000000028666
  endloop
endfacet
facet normal 0.38268343236478825 -0.9238795325114116 1.1115811302756336e-13
  outer loop
    vertex 2170.498598647491 2430.171938545732 3.2810310024444786e-12
    vertex 2170.0162367376956 2429.972137700723 3.0000000000028657
    vertex 2170.0162367376956 2429.9721377007227 3.2796210192032046e-12
  endloop
endfacet
facet normal 0.38268343236478825 -0.9238795325114116 1.1115811302756336e-13
  outer loop
    vertex 2170.0162367376956 2429.972137700723 3.0000000000028657
    vertex 2170.498598647491 2430.171938545732 3.2810310024444786e-12
    vertex 2170.498598647491 2430.1719385457322 3.000000000002868
  endloop
endfacet
facet normal 0.991444861373775 0.13052619222032122 -1.5705398413792307e-14
  outer loop
    vertex 2169.016236737696 2428.240086893154 3.237321521964986e-12
    vertex 2169.084385085118 2427.722448802949 3.00000000000281
    vertex 2169.084385085118 2427.7224488029487 3.2232216895522466e-12
  endloop
endfacet
facet normal 0.991444861373775 0.13052619222032122 -1.5705398413792307e-14
  outer loop
    vertex 2169.084385085118 2427.722448802949 3.00000000000281
    vertex 2169.016236737696 2428.240086893154 3.237321521964986e-12
    vertex 2169.016236737696 2428.2400868931545 3.000000000002825
  endloop
endfacet
facet normal -0.9238795325114116 -0.3826834323647883 4.604167460199127e-14
  outer loop
    vertex 2172.948088390274 2428.7577249833594 3.0000000000028146
    vertex 2172.7482875452647 2429.240086893154 3.2429614549300823e-12
    vertex 2172.948088390274 2428.757724983359 3.2274516392760687e-12
  endloop
endfacet
facet normal -0.9238795325114116 -0.3826834323647883 4.604167460199127e-14
  outer loop
    vertex 2172.7482875452647 2429.240086893154 3.2429614549300823e-12
    vertex 2172.948088390274 2428.7577249833594 3.0000000000028146
    vertex 2172.7482875452647 2429.2400868931545 3.000000000002829
  endloop
endfacet
facet normal 0.13052619222032122 -0.991444861373775 1.1928823881619247e-13
  outer loop
    vertex 2171.0162367376956 2430.240086893154 3.0000000000028666
    vertex 2170.498598647491 2430.171938545732 3.2810310024444786e-12
    vertex 2171.0162367376956 2430.240086893154 3.2796210192032046e-12
  endloop
endfacet
facet normal 0.13052619222032122 -0.991444861373775 1.1928823881619247e-13
  outer loop
    vertex 2170.498598647491 2430.171938545732 3.2810310024444786e-12
    vertex 2171.0162367376956 2430.240086893154 3.0000000000028666
    vertex 2170.498598647491 2430.1719385457322 3.000000000002868
  endloop
endfacet
facet normal 0.9238795325114116 0.38268343236478825 -4.604413853654402e-14
  outer loop
    vertex 2169.084385085118 2427.7224488029487 3.2232216895522466e-12
    vertex 2169.284185930127 2427.240086893154 3.000000000002796
    vertex 2169.284185930127 2427.240086893154 3.209121857139507e-12
  endloop
endfacet
facet normal 0.9238795325114116 0.38268343236478825 -4.604413853654402e-14
  outer loop
    vertex 2169.284185930127 2427.240086893154 3.000000000002796
    vertex 2169.084385085118 2427.7224488029487 3.2232216895522466e-12
    vertex 2169.084385085118 2427.722448802949 3.00000000000281
  endloop
endfacet
facet normal 0.6087614290085233 -0.7933533402913866 9.545737166813716e-14
  outer loop
    vertex 2170.0162367376956 2429.9721377007227 3.2796210192032046e-12
    vertex 2169.6020231753228 2429.6543004555274 3.000000000002859
    vertex 2169.6020231753228 2429.654300455527 3.272571102996835e-12
  endloop
endfacet
facet normal 0.6087614290085233 -0.7933533402913866 9.545737166813716e-14
  outer loop
    vertex 2169.6020231753228 2429.6543004555274 3.000000000002859
    vertex 2170.0162367376956 2429.9721377007227 3.2796210192032046e-12
    vertex 2170.0162367376956 2429.972137700723 3.0000000000028657
  endloop
endfacet
facet normal 0.793353340291643 -0.6087614290081894 7.324229929559492e-14
  outer loop
    vertex 2169.6020231753228 2429.654300455527 3.272571102996835e-12
    vertex 2169.284185930127 2429.240086893154 3.00000000000285
    vertex 2169.284185930127 2429.2400868931536 3.2627012203079175e-12
  endloop
endfacet
facet normal 0.793353340291643 -0.6087614290081894 7.324229929559492e-14
  outer loop
    vertex 2169.284185930127 2429.240086893154 3.00000000000285
    vertex 2169.6020231753228 2429.654300455527 3.272571102996835e-12
    vertex 2169.6020231753228 2429.6543004555274 3.000000000002859
  endloop
endfacet
facet normal 0.9238795325113104 -0.3826834323650327 4.604625070269802e-14
  outer loop
    vertex 2169.284185930127 2429.2400868931536 3.2627012203079175e-12
    vertex 2169.084385085118 2428.7577249833594 3.000000000002838
    vertex 2169.084385085118 2428.757724983359 3.2514213543777256e-12
  endloop
endfacet
facet normal 0.9238795325113104 -0.3826834323650327 4.604625070269802e-14
  outer loop
    vertex 2169.084385085118 2428.7577249833594 3.000000000002838
    vertex 2169.284185930127 2429.2400868931536 3.2627012203079175e-12
    vertex 2169.284185930127 2429.240086893154 3.00000000000285
  endloop
endfacet
facet normal 0.991444861373775 -0.13052619222032122 1.5704178913940564e-14
  outer loop
    vertex 2169.084385085118 2428.757724983359 3.2514213543777256e-12
    vertex 2169.016236737696 2428.2400868931545 3.000000000002825
    vertex 2169.016236737696 2428.240086893154 3.237321521964986e-12
  endloop
endfacet
facet normal 0.991444861373775 -0.13052619222032122 1.5704178913940564e-14
  outer loop
    vertex 2169.016236737696 2428.2400868931545 3.000000000002825
    vertex 2169.084385085118 2428.757724983359 3.2514213543777256e-12
    vertex 2169.084385085118 2428.7577249833594 3.000000000002838
  endloop
endfacet
facet normal 0.7933533402913867 0.6087614290085234 -7.324414607463187e-14
  outer loop
    vertex 2169.284185930127 2427.240086893154 3.209121857139507e-12
    vertex 2169.6020231753228 2426.825873330781 3.0000000000027827
    vertex 2169.6020231753228 2426.8258733307807 3.1950220247267677e-12
  endloop
endfacet
facet normal 0.7933533402913867 0.6087614290085234 -7.324414607463187e-14
  outer loop
    vertex 2169.6020231753228 2426.825873330781 3.0000000000027827
    vertex 2169.284185930127 2427.240086893154 3.209121857139507e-12
    vertex 2169.284185930127 2427.240086893154 3.000000000002796
  endloop
endfacet
facet normal 0.38268343236503266 0.9238795325113104 -1.111571105653078e-13
  outer loop
    vertex 2170.016236737696 2426.508036085585 3.1837421587965762e-12
    vertex 2170.498598647491 2426.3082352405763 3.000000000002763
    vertex 2170.498598647491 2426.308235240576 3.1752822593489325e-12
  endloop
endfacet
facet normal 0.38268343236503266 0.9238795325113104 -1.111571105653078e-13
  outer loop
    vertex 2170.498598647491 2426.3082352405763 3.000000000002763
    vertex 2170.016236737696 2426.508036085585 3.1837421587965762e-12
    vertex 2170.016236737696 2426.5080360855854 3.0000000000027716
  endloop
endfacet
facet normal -0.793353340291643 0.6087614290081894 -7.324229929559492e-14
  outer loop
    vertex 2172.430450300069 2426.825873330781 3.0000000000027653
    vertex 2172.7482875452647 2427.240086893154 3.187972108520398e-12
    vertex 2172.430450300069 2426.8258733307807 3.1781022258314805e-12
  endloop
endfacet
facet normal -0.793353340291643 0.6087614290081894 -7.324229929559492e-14
  outer loop
    vertex 2172.7482875452647 2427.240086893154 3.187972108520398e-12
    vertex 2172.430450300069 2426.825873330781 3.0000000000027653
    vertex 2172.7482875452647 2427.2400868931545 3.0000000000027747
  endloop
endfacet
facet normal -0.9238795325113104 0.38268343236503266 -4.604378676814528e-14
  outer loop
    vertex 2172.7482875452647 2427.2400868931545 3.0000000000027747
    vertex 2172.948088390274 2427.7224488029487 3.2006619576918638e-12
    vertex 2172.7482875452647 2427.240086893154 3.187972108520398e-12
  endloop
endfacet
facet normal -0.9238795325113104 0.38268343236503266 -4.604378676814528e-14
  outer loop
    vertex 2172.948088390274 2427.7224488029487 3.2006619576918638e-12
    vertex 2172.7482875452647 2427.2400868931545 3.0000000000027747
    vertex 2172.948088390274 2427.722448802949 3.0000000000027867
  endloop
endfacet
facet normal -0.991444861373775 0.13052619222032122 -1.570590025730623e-14
  outer loop
    vertex 2172.948088390274 2427.722448802949 3.0000000000027867
    vertex 2173.0162367376956 2428.240086893154 3.2133518068633292e-12
    vertex 2172.948088390274 2427.7224488029487 3.2006619576918638e-12
  endloop
endfacet
facet normal -0.991444861373775 0.13052619222032122 -1.570590025730623e-14
  outer loop
    vertex 2173.0162367376956 2428.240086893154 3.2133518068633292e-12
    vertex 2172.948088390274 2427.722448802949 3.0000000000027867
    vertex 2173.0162367376956 2428.2400868931545 3.0000000000028
  endloop
endfacet
facet normal -0.6087614290085234 0.7933533402913867 -9.545471603117315e-14
  outer loop
    vertex 2172.016236737696 2426.5080360855854 3.000000000002759
    vertex 2172.430450300069 2426.8258733307807 3.1781022258314805e-12
    vertex 2172.016236737696 2426.508036085585 3.172462292866385e-12
  endloop
endfacet
facet normal -0.6087614290085234 0.7933533402913867 -9.545471603117315e-14
  outer loop
    vertex 2172.430450300069 2426.8258733307807 3.1781022258314805e-12
    vertex 2172.016236737696 2426.5080360855854 3.000000000002759
    vertex 2172.430450300069 2426.825873330781 3.0000000000027653
  endloop
endfacet
facet normal 0.6087614290081895 0.793353340291643 -9.545294555356333e-14
  outer loop
    vertex 2169.6020231753228 2426.8258733307807 3.1950220247267677e-12
    vertex 2170.016236737696 2426.5080360855854 3.0000000000027716
    vertex 2170.016236737696 2426.508036085585 3.1837421587965762e-12
  endloop
endfacet
facet normal 0.6087614290081895 0.793353340291643 -9.545294555356333e-14
  outer loop
    vertex 2170.016236737696 2426.5080360855854 3.0000000000027716
    vertex 2169.6020231753228 2426.8258733307807 3.1950220247267677e-12
    vertex 2169.6020231753228 2426.825873330781 3.0000000000027827
  endloop
endfacet
facet normal -0.38268343236478825 0.9238795325114116 -1.1115760273000905e-13
  outer loop
    vertex 2171.533874827901 2426.3082352405763 3.0000000000027565
    vertex 2172.016236737696 2426.508036085585 3.172462292866385e-12
    vertex 2171.533874827901 2426.308235240576 3.1696423263838368e-12
  endloop
endfacet
facet normal -0.38268343236478825 0.9238795325114116 -1.1115760273000905e-13
  outer loop
    vertex 2172.016236737696 2426.508036085585 3.172462292866385e-12
    vertex 2171.533874827901 2426.3082352405763 3.0000000000027565
    vertex 2172.016236737696 2426.5080360855854 3.000000000002759
  endloop
endfacet
facet normal 0.13052619222032122 0.991444861373775 -1.1928983610091227e-13
  outer loop
    vertex 2170.498598647491 2426.308235240576 3.1752822593489325e-12
    vertex 2171.0162367376956 2426.2400868931545 3.0000000000027582
    vertex 2171.0162367376956 2426.240086893154 3.1710523096251108e-12
  endloop
endfacet
facet normal 0.13052619222032122 0.991444861373775 -1.1928983610091227e-13
  outer loop
    vertex 2171.0162367376956 2426.2400868931545 3.0000000000027582
    vertex 2170.498598647491 2426.308235240576 3.1752822593489325e-12
    vertex 2170.498598647491 2426.3082352405763 3.000000000002763
  endloop
endfacet
facet normal -0.13052619222032122 0.991444861373775 -1.1928823881619247e-13
  outer loop
    vertex 2171.0162367376956 2426.240086893154 3.1710523096251108e-12
    vertex 2171.533874827901 2426.3082352405763 3.0000000000027565
    vertex 2171.533874827901 2426.308235240576 3.1696423263838368e-12
  endloop
endfacet
facet normal -0.13052619222032122 0.991444861373775 -1.1928823881619247e-13
  outer loop
    vertex 2171.533874827901 2426.3082352405763 3.0000000000027565
    vertex 2171.0162367376956 2426.240086893154 3.1710523096251108e-12
    vertex 2171.0162367376956 2426.2400868931545 3.0000000000027582
  endloop
endfacet
facet normal -0.9238795325114116 -0.3826834323647883 4.604413853654696e-14
  outer loop
    vertex 2172.948088390274 2406.6327249833594 3.000000000002483
    vertex 2172.7482875452647 2407.115086893154 3.0060842703960586e-12
    vertex 2172.948088390274 2406.632724983359 2.991984437983319e-12
  endloop
endfacet
facet normal -0.9238795325114116 -0.3826834323647883 4.604413853654696e-14
  outer loop
    vertex 2172.7482875452647 2407.115086893154 3.0060842703960586e-12
    vertex 2172.948088390274 2406.6327249833594 3.000000000002483
    vertex 2172.7482875452647 2407.1150868931545 3.0000000000024976
  endloop
endfacet
facet normal 0.991444861373775 0.13052619222032122 -1.570438395860952e-14
  outer loop
    vertex 2169.016236737696 2406.115086893154 3.001854320672237e-12
    vertex 2169.084385085118 2405.597448802949 3.000000000002479
    vertex 2169.084385085118 2405.5974488029487 2.9877544882594974e-12
  endloop
endfacet
facet normal 0.991444861373775 0.13052619222032122 -1.570438395860952e-14
  outer loop
    vertex 2169.084385085118 2405.597448802949 3.000000000002479
    vertex 2169.016236737696 2406.115086893154 3.001854320672237e-12
    vertex 2169.016236737696 2406.1150868931545 3.0000000000024936
  endloop
endfacet
facet normal -0.991444861373775 -0.13052619222032122 1.5705398413793298e-14
  outer loop
    vertex 2173.0162367376956 2406.1150868931545 3.0000000000024687
    vertex 2172.948088390274 2406.632724983359 2.991984437983319e-12
    vertex 2173.0162367376956 2406.115086893154 2.9778846055705796e-12
  endloop
endfacet
facet normal -0.991444861373775 -0.13052619222032122 1.5705398413793298e-14
  outer loop
    vertex 2172.948088390274 2406.632724983359 2.991984437983319e-12
    vertex 2173.0162367376956 2406.1150868931545 3.0000000000024687
    vertex 2172.948088390274 2406.6327249833594 3.000000000002483
  endloop
endfacet
facet normal 0.13052619222032122 -0.991444861373775 1.192892020102169e-13
  outer loop
    vertex 2171.0162367376956 2408.115086893154 3.0000000000025353
    vertex 2170.498598647491 2408.046938545732 3.0455638011517294e-12
    vertex 2171.0162367376956 2408.115086893154 3.0441538179104554e-12
  endloop
endfacet
facet normal 0.13052619222032122 -0.991444861373775 1.192892020102169e-13
  outer loop
    vertex 2170.498598647491 2408.046938545732 3.0455638011517294e-12
    vertex 2171.0162367376956 2408.115086893154 3.0000000000025353
    vertex 2170.498598647491 2408.0469385457322 3.0000000000025366
  endloop
endfacet
facet normal 0.3826834323647883 -0.9238795325114116 1.1115760273001615e-13
  outer loop
    vertex 2170.498598647491 2408.046938545732 3.0455638011517294e-12
    vertex 2170.0162367376956 2407.847137700723 3.0000000000025344
    vertex 2170.0162367376956 2407.8471377007227 3.0427438346691814e-12
  endloop
endfacet
facet normal 0.3826834323647883 -0.9238795325114116 1.1115760273001615e-13
  outer loop
    vertex 2170.0162367376956 2407.847137700723 3.0000000000025344
    vertex 2170.498598647491 2408.046938545732 3.0455638011517294e-12
    vertex 2170.498598647491 2408.0469385457322 3.0000000000025366
  endloop
endfacet
facet normal 0.991444861373775 -0.13052619222032125 1.5705900257307217e-14
  outer loop
    vertex 2169.084385085118 2406.632724983359 3.0145441698437024e-12
    vertex 2169.016236737696 2406.1150868931545 3.0000000000024936
    vertex 2169.016236737696 2406.115086893154 3.001854320672237e-12
  endloop
endfacet
facet normal 0.991444861373775 -0.13052619222032125 1.5705900257307217e-14
  outer loop
    vertex 2169.016236737696 2406.1150868931545 3.0000000000024936
    vertex 2169.084385085118 2406.632724983359 3.0145441698437024e-12
    vertex 2169.084385085118 2406.6327249833594 3.000000000002507
  endloop
endfacet
facet normal -0.6087614290081894 -0.793353340291643 9.545531121358317e-14
  outer loop
    vertex 2172.430450300069 2407.5293004555274 3.0000000000025104
    vertex 2172.0162367376956 2407.8471377007227 3.03146396873899e-12
    vertex 2172.430450300069 2407.529300455527 3.020184102808798e-12
  endloop
endfacet
facet normal -0.6087614290081894 -0.793353340291643 9.545531121358317e-14
  outer loop
    vertex 2172.0162367376956 2407.8471377007227 3.03146396873899e-12
    vertex 2172.430450300069 2407.5293004555274 3.0000000000025104
    vertex 2172.0162367376956 2407.847137700723 3.000000000002522
  endloop
endfacet
facet normal -0.38268343236503277 -0.9238795325113104 1.1116187990529468e-13
  outer loop
    vertex 2172.0162367376956 2407.847137700723 3.000000000002522
    vertex 2171.533874827901 2408.046938545732 3.0399238681866333e-12
    vertex 2172.0162367376956 2407.8471377007227 3.03146396873899e-12
  endloop
endfacet
facet normal -0.38268343236503277 -0.9238795325113104 1.1116187990529468e-13
  outer loop
    vertex 2171.533874827901 2408.046938545732 3.0399238681866333e-12
    vertex 2172.0162367376956 2407.847137700723 3.000000000002522
    vertex 2171.533874827901 2408.0469385457322 3.0000000000025304
  endloop
endfacet
facet normal 0.6087614290085233 -0.7933533402913866 9.545708169119294e-14
  outer loop
    vertex 2170.0162367376956 2407.8471377007227 3.0427438346691814e-12
    vertex 2169.6020231753228 2407.5293004555274 3.0000000000025278
    vertex 2169.6020231753228 2407.529300455527 3.0371039017040856e-12
  endloop
endfacet
facet normal 0.6087614290085233 -0.7933533402913866 9.545708169119294e-14
  outer loop
    vertex 2169.6020231753228 2407.5293004555274 3.0000000000025278
    vertex 2170.0162367376956 2407.8471377007227 3.0427438346691814e-12
    vertex 2170.0162367376956 2407.847137700723 3.0000000000025344
  endloop
endfacet
facet normal -0.13052619222032122 -0.991444861373775 1.1928887290690314e-13
  outer loop
    vertex 2171.533874827901 2408.0469385457322 3.0000000000025304
    vertex 2171.0162367376956 2408.115086893154 3.0441538179104554e-12
    vertex 2171.533874827901 2408.046938545732 3.0399238681866333e-12
  endloop
endfacet
facet normal -0.13052619222032122 -0.991444861373775 1.1928887290690314e-13
  outer loop
    vertex 2171.0162367376956 2408.115086893154 3.0441538179104554e-12
    vertex 2171.533874827901 2408.0469385457322 3.0000000000025304
    vertex 2171.0162367376956 2408.115086893154 3.0000000000025353
  endloop
endfacet
facet normal 0.793353340291643 -0.6087614290081895 7.324538228375295e-14
  outer loop
    vertex 2169.6020231753228 2407.529300455527 3.0371039017040856e-12
    vertex 2169.284185930127 2407.115086893154 3.000000000002519
    vertex 2169.284185930127 2407.1150868931536 3.027234019015168e-12
  endloop
endfacet
facet normal 0.793353340291643 -0.6087614290081895 7.324538228375295e-14
  outer loop
    vertex 2169.284185930127 2407.115086893154 3.000000000002519
    vertex 2169.6020231753228 2407.529300455527 3.0371039017040856e-12
    vertex 2169.6020231753228 2407.5293004555274 3.0000000000025278
  endloop
endfacet
facet normal -0.7933533402913866 -0.6087614290085233 7.324486340277622e-14
  outer loop
    vertex 2172.7482875452647 2407.1150868931545 3.0000000000024976
    vertex 2172.430450300069 2407.529300455527 3.020184102808798e-12
    vertex 2172.7482875452647 2407.115086893154 3.0060842703960586e-12
  endloop
endfacet
facet normal -0.7933533402913866 -0.6087614290085233 7.324486340277622e-14
  outer loop
    vertex 2172.430450300069 2407.529300455527 3.020184102808798e-12
    vertex 2172.7482875452647 2407.1150868931545 3.0000000000024976
    vertex 2172.430450300069 2407.5293004555274 3.0000000000025104
  endloop
endfacet
facet normal 0.9238795325113104 -0.38268343236503266 4.604199166027556e-14
  outer loop
    vertex 2169.284185930127 2407.1150868931536 3.027234019015168e-12
    vertex 2169.084385085118 2406.6327249833594 3.000000000002507
    vertex 2169.084385085118 2406.632724983359 3.0145441698437024e-12
  endloop
endfacet
facet normal 0.9238795325113104 -0.38268343236503266 4.604199166027556e-14
  outer loop
    vertex 2169.084385085118 2406.6327249833594 3.000000000002507
    vertex 2169.284185930127 2407.1150868931536 3.027234019015168e-12
    vertex 2169.284185930127 2407.115086893154 3.000000000002519
  endloop
endfacet
facet normal -0.9238795325113104 0.3826834323650327 -4.604148136272131e-14
  outer loop
    vertex 2172.7482875452647 2405.1150868931545 3.0000000000024434
    vertex 2172.948088390274 2405.5974488029487 2.96378477315784e-12
    vertex 2172.7482875452647 2405.115086893154 2.9525049072276487e-12
  endloop
endfacet
facet normal -0.9238795325113104 0.3826834323650327 -4.604148136272131e-14
  outer loop
    vertex 2172.948088390274 2405.5974488029487 2.96378477315784e-12
    vertex 2172.7482875452647 2405.1150868931545 3.0000000000024434
    vertex 2172.948088390274 2405.597448802949 3.0000000000024554
  endloop
endfacet
facet normal -0.3826834323647882 0.9238795325114116 -1.1115811302757036e-13
  outer loop
    vertex 2171.533874827901 2404.1832352405763 3.000000000002425
    vertex 2172.016236737696 2404.383036085585 2.935585108332361e-12
    vertex 2171.533874827901 2404.183235240576 2.934175125091087e-12
  endloop
endfacet
facet normal -0.3826834323647882 0.9238795325114116 -1.1115811302757036e-13
  outer loop
    vertex 2172.016236737696 2404.383036085585 2.935585108332361e-12
    vertex 2171.533874827901 2404.1832352405763 3.000000000002425
    vertex 2172.016236737696 2404.3830360855854 3.000000000002428
  endloop
endfacet
facet normal 0.38268343236503277 0.9238795325113104 -1.1116367501316729e-13
  outer loop
    vertex 2170.016236737696 2404.383036085585 2.9496849407451007e-12
    vertex 2170.498598647491 2404.1832352405763 3.000000000002432
    vertex 2170.498598647491 2404.183235240576 2.941225041297457e-12
  endloop
endfacet
facet normal 0.38268343236503277 0.9238795325113104 -1.1116367501316729e-13
  outer loop
    vertex 2170.498598647491 2404.1832352405763 3.000000000002432
    vertex 2170.016236737696 2404.383036085585 2.9496849407451007e-12
    vertex 2170.016236737696 2404.3830360855854 3.0000000000024403
  endloop
endfacet
facet normal -0.6087614290085233 0.7933533402913866 -9.545357135185017e-14
  outer loop
    vertex 2172.016236737696 2404.3830360855854 3.000000000002428
    vertex 2172.430450300069 2404.7008733307807 2.942635024538731e-12
    vertex 2172.016236737696 2404.383036085585 2.935585108332361e-12
  endloop
endfacet
facet normal -0.6087614290085233 0.7933533402913866 -9.545357135185017e-14
  outer loop
    vertex 2172.430450300069 2404.7008733307807 2.942635024538731e-12
    vertex 2172.016236737696 2404.3830360855854 3.000000000002428
    vertex 2172.430450300069 2404.700873330781 3.000000000002434
  endloop
endfacet
facet normal -0.13052619222032122 0.991444861373775 -1.192892020102169e-13
  outer loop
    vertex 2171.0162367376956 2404.115086893154 2.935585108332361e-12
    vertex 2171.533874827901 2404.1832352405763 3.000000000002425
    vertex 2171.533874827901 2404.183235240576 2.934175125091087e-12
  endloop
endfacet
facet normal -0.13052619222032122 0.991444861373775 -1.192892020102169e-13
  outer loop
    vertex 2171.533874827901 2404.1832352405763 3.000000000002425
    vertex 2171.0162367376956 2404.115086893154 2.935585108332361e-12
    vertex 2171.0162367376956 2404.1150868931545 3.0000000000024265
  endloop
endfacet
facet normal 0.6087614290081895 0.793353340291643 -9.545531121358318e-14
  outer loop
    vertex 2169.6020231753228 2404.7008733307807 2.9609648066752925e-12
    vertex 2170.016236737696 2404.3830360855854 3.0000000000024403
    vertex 2170.016236737696 2404.383036085585 2.9496849407451007e-12
  endloop
endfacet
facet normal 0.6087614290081895 0.793353340291643 -9.545531121358318e-14
  outer loop
    vertex 2170.016236737696 2404.3830360855854 3.0000000000024403
    vertex 2169.6020231753228 2404.7008733307807 2.9609648066752925e-12
    vertex 2169.6020231753228 2404.700873330781 3.0000000000024514
  endloop
endfacet
facet normal -0.793353340291643 0.6087614290081895 -7.32422992955996e-14
  outer loop
    vertex 2172.430450300069 2404.700873330781 3.000000000002434
    vertex 2172.7482875452647 2405.115086893154 2.9525049072276487e-12
    vertex 2172.430450300069 2404.7008733307807 2.942635024538731e-12
  endloop
endfacet
facet normal -0.793353340291643 0.6087614290081895 -7.32422992955996e-14
  outer loop
    vertex 2172.7482875452647 2405.115086893154 2.9525049072276487e-12
    vertex 2172.430450300069 2404.700873330781 3.000000000002434
    vertex 2172.7482875452647 2405.1150868931545 3.0000000000024434
  endloop
endfacet
facet normal 0.9238795325114116 0.38268343236478825 -4.6041674601994165e-14
  outer loop
    vertex 2169.084385085118 2405.5974488029487 2.9877544882594974e-12
    vertex 2169.284185930127 2405.115086893154 3.0000000000024643
    vertex 2169.284185930127 2405.1150868931536 2.972244672605484e-12
  endloop
endfacet
facet normal 0.9238795325114116 0.38268343236478825 -4.6041674601994165e-14
  outer loop
    vertex 2169.284185930127 2405.115086893154 3.0000000000024643
    vertex 2169.084385085118 2405.5974488029487 2.9877544882594974e-12
    vertex 2169.084385085118 2405.597448802949 3.000000000002479
  endloop
endfacet
facet normal 0.13052619222032122 0.991444861373775 -1.1928760214588444e-13
  outer loop
    vertex 2170.498598647491 2404.183235240576 2.941225041297457e-12
    vertex 2171.0162367376956 2404.1150868931545 3.0000000000024265
    vertex 2171.0162367376956 2404.115086893154 2.935585108332361e-12
  endloop
endfacet
facet normal 0.13052619222032122 0.991444861373775 -1.1928760214588444e-13
  outer loop
    vertex 2171.0162367376956 2404.1150868931545 3.0000000000024265
    vertex 2170.498598647491 2404.183235240576 2.941225041297457e-12
    vertex 2170.498598647491 2404.1832352405763 3.000000000002432
  endloop
endfacet
facet normal -0.991444861373775 0.13052619222032122 -1.5703215719924768e-14
  outer loop
    vertex 2172.948088390274 2405.597448802949 3.0000000000024554
    vertex 2173.0162367376956 2406.115086893154 2.9778846055705796e-12
    vertex 2172.948088390274 2405.5974488029487 2.96378477315784e-12
  endloop
endfacet
facet normal -0.991444861373775 0.13052619222032122 -1.5703215719924768e-14
  outer loop
    vertex 2173.0162367376956 2406.115086893154 2.9778846055705796e-12
    vertex 2172.948088390274 2405.597448802949 3.0000000000024554
    vertex 2173.0162367376956 2406.1150868931545 3.0000000000024687
  endloop
endfacet
facet normal 0.7933533402913867 0.6087614290085234 -7.324400870039747e-14
  outer loop
    vertex 2169.284185930127 2405.1150868931536 2.972244672605484e-12
    vertex 2169.6020231753228 2404.700873330781 3.0000000000024514
    vertex 2169.6020231753228 2404.7008733307807 2.9609648066752925e-12
  endloop
endfacet
facet normal 0.7933533402913867 0.6087614290085234 -7.324400870039747e-14
  outer loop
    vertex 2169.6020231753228 2404.700873330781 3.0000000000024514
    vertex 2169.284185930127 2405.1150868931536 2.972244672605484e-12
    vertex 2169.284185930127 2405.115086893154 3.0000000000024643
  endloop
endfacet
facet normal 2.873303372466277e-28 -1.0 2.3880797239594645e-14
  outer loop
    vertex 2178.516236737696 2399.1775868931545 3.000000000002888
    vertex 2163.5162367376956 2399.1775868931545 3.0681235330121123e-12
    vertex 2178.516236737696 2399.1775868931545 2.887645678129047e-12
  endloop
endfacet
facet normal 2.873303372466277e-28 -1.0 2.3880797239594645e-14
  outer loop
    vertex 2163.5162367376956 2399.1775868931545 3.0681235330121123e-12
    vertex 2178.516236737696 2399.1775868931545 3.000000000002888
    vertex 2163.5162367376956 2399.1775868931545 3.000000000003068
  endloop
endfacet
facet normal 5.2138010099743654e-15 0.49999999999984435 -0.8660254037845286
  outer loop
    vertex 2178.516236737696 2417.1775868931545 12.175426480546005
    vertex 2163.5162367376956 2414.4275868931545 10.587713240275047
    vertex 2163.516236737695 2417.1775868931545 12.175426480545644
  endloop
endfacet
facet normal 5.2138010099743654e-15 0.49999999999984435 -0.8660254037845286
  outer loop
    vertex 2163.5162367376956 2414.4275868931545 10.587713240275047
    vertex 2178.516236737696 2417.1775868931545 12.175426480546005
    vertex 2178.516236737696 2414.4275868931545 10.587713240274866
  endloop
endfacet
facet normal 0.0 -1.0 0.0
  outer loop
    vertex 2178.516236737696 2419.9275868931545 10.587713240274866
    vertex 2163.516236737696 2419.9275868931545 7.4122867597318685
    vertex 2178.516236737696 2419.9275868931545 7.412286759731688
  endloop
endfacet
facet normal 0.0 -1.0 0.0
  outer loop
    vertex 2163.516236737696 2419.9275868931545 7.4122867597318685
    vertex 2178.516236737696 2419.9275868931545 10.587713240274866
    vertex 2163.5162367376956 2419.9275868931545 10.587713240275047
  endloop
endfacet
facet normal -2.7602006086858047e-15 0.9914448613737759 0.13052619222031533
  outer loop
    vertex 2163.5162367376956 2422.2337177649806 10.354786183935055
    vertex 2178.516236737696 2422.3931762406655 9.143578811445854
    vertex 2163.5162367376956 2422.3931762406655 9.143578811445533
  endloop
endfacet
facet normal -2.7602006086858047e-15 0.9914448613737759 0.13052619222031533
  outer loop
    vertex 2178.516236737696 2422.3931762406655 9.143578811445854
    vertex 2163.5162367376956 2422.2337177649806 10.354786183935055
    vertex 2178.516236737696 2422.2337177649806 10.354786183935374
  endloop
endfacet
facet normal 1.0426122239710962e-14 0.5000000000000362 0.8660254037844178
  outer loop
    vertex 2163.516236737696 2414.4275868931545 7.4122867597318685
    vertex 2178.516236737696 2417.1775868931545 5.824573519460008
    vertex 2163.5162367376956 2417.1775868931545 5.824573519460189
  endloop
endfacet
facet normal 1.0426122239710962e-14 0.5000000000000362 0.8660254037844178
  outer loop
    vertex 2178.516236737696 2417.1775868931545 5.824573519460008
    vertex 2163.516236737696 2414.4275868931545 7.4122867597318685
    vertex 2178.516236737696 2414.4275868931545 7.412286759731688
  endloop
endfacet
facet normal -8.092498716002824e-15 0.9238795325114313 0.38268343236474084
  outer loop
    vertex 2163.516236737697 2421.710789816906 11.617245928322184
    vertex 2178.516236737696 2422.2337177649806 10.354786183935374
    vertex 2163.5162367376956 2422.2337177649806 10.354786183935055
  endloop
endfacet
facet normal -8.092498716002824e-15 0.9238795325114313 0.38268343236474084
  outer loop
    vertex 2178.516236737696 2422.2337177649806 10.354786183935374
    vertex 2163.516236737697 2421.710789816906 11.617245928322184
    vertex 2178.5162367376975 2421.710789816906 11.617245928322504
  endloop
endfacet
facet normal 1.0 -1.4420309897848028e-27 1.5742359481089605e-14
  outer loop
    vertex 2178.516236737696 2422.3931762406655 3.0000000000026814
    vertex 2178.516236737696 2421.3025868931545 9.000000000003007
    vertex 2178.516236737696 2421.3025868931545 3.0000000000026454
  endloop
endfacet
facet normal 1.0 -1.4420309897848028e-27 1.5742359481089605e-14
  outer loop
    vertex 2178.516236737696 2421.3025868931545 9.000000000003007
    vertex 2178.516236737696 2422.3931762406655 3.0000000000026814
    vertex 2178.5162367376975 2421.710789816906 11.617245928322504
  endloop
endfacet
facet normal 1.0 -1.4420309897848028e-27 1.5742359481089605e-14
  outer loop
    vertex 2178.5162367376975 2421.710789816906 11.617245928322504
    vertex 2178.516236737696 2422.3931762406655 3.0000000000026814
    vertex 2178.516236737696 2422.2337177649806 10.354786183935374
  endloop
endfacet
facet normal 1.0 -1.4420309897848028e-27 1.5742359481089605e-14
  outer loop
    vertex 2178.516236737696 2422.2337177649806 10.354786183935374
    vertex 2178.516236737696 2422.3931762406655 3.0000000000026814
    vertex 2178.516236737696 2422.3931762406655 9.143578811445854
  endloop
endfacet
facet normal 1.0 -1.4420309897848028e-27 1.5742359481089605e-14
  outer loop
    vertex 2178.516236737696 2413.0525868931545 3.0000000000026454
    vertex 2178.516236737696 2411.9619975456435 9.143578811445854
    vertex 2178.516236737696 2411.9619975456435 3.000000000002673
  endloop
endfacet
facet normal 1.0 -1.4420309897848028e-27 1.5742359481089605e-14
  outer loop
    vertex 2178.516236737696 2411.9619975456435 9.143578811445854
    vertex 2178.516236737696 2413.0525868931545 3.0000000000026454
    vertex 2178.516236737696 2412.121456021328 10.354786183935547
  endloop
endfacet
facet normal 1.0 -1.4420309897848028e-27 1.5742359481089605e-14
  outer loop
    vertex 2178.516236737696 2412.121456021328 10.354786183935547
    vertex 2178.516236737696 2413.0525868931545 3.0000000000026454
    vertex 2178.5162367376975 2412.6443839694034 11.617245928322507
  endloop
endfacet
facet normal 1.0 -1.4420309897848028e-27 1.5742359481089605e-14
  outer loop
    vertex 2178.5162367376975 2412.6443839694034 11.617245928322507
    vertex 2178.516236737696 2413.0525868931545 3.0000000000026454
    vertex 2178.516236737696 2413.0525868931545 9.000000000003007
  endloop
endfacet
facet normal 1.0 -1.4420309897848028e-27 1.5742359481089605e-14
  outer loop
    vertex 2178.5162367376975 2412.6443839694034 11.617245928322507
    vertex 2178.516236737696 2413.0525868931545 9.000000000003007
    vertex 2178.5162367376943 2413.47624220526 12.701344687897878
  endloop
endfacet
facet normal 1.0 -1.4420309897848028e-27 1.5742359481089605e-14
  outer loop
    vertex 2178.5162367376943 2413.47624220526 12.701344687897878
    vertex 2178.516236737696 2413.0525868931545 9.000000000003007
    vertex 2178.516236737696 2413.193142859712 10.067628561051027
  endloop
endfacet
facet normal 1.0 -1.4420309897848028e-27 1.5742359481089605e-14
  outer loop
    vertex 2178.5162367376943 2413.47624220526 12.701344687897878
    vertex 2178.516236737696 2413.193142859712 10.067628561051027
    vertex 2178.516236737696 2413.605232102544 11.06250000000326
  endloop
endfacet
facet normal 1.0 -1.4420309897848028e-27 1.5742359481089605e-14
  outer loop
    vertex 2178.5162367376943 2413.47624220526 12.701344687897878
    vertex 2178.516236737696 2413.605232102544 11.06250000000326
    vertex 2178.5162367376943 2414.560340964835 13.533202923754562
  endloop
endfacet
facet normal 1.0 -1.4420309897848028e-27 1.5742359481089605e-14
  outer loop
    vertex 2178.5162367376943 2414.560340964835 13.533202923754562
    vertex 2178.516236737696 2413.605232102544 11.06250000000326
    vertex 2178.516236737696 2414.26077142076 11.916815472397822
  endloop
endfacet
facet normal 1.0 -1.4420309897848028e-27 1.5742359481089605e-14
  outer loop
    vertex 2178.5162367376943 2414.560340964835 13.533202923754562
    vertex 2178.516236737696 2414.26077142076 11.916815472397822
    vertex 2178.516236737696 2415.1150868931545 12.572354790613653
  endloop
endfacet
facet normal 1.0 -1.4420309897848028e-27 1.5742359481089605e-14
  outer loop
    vertex 2178.5162367376943 2414.560340964835 13.533202923754562
    vertex 2178.516236737696 2415.1150868931545 12.572354790613653
    vertex 2178.5162367376975 2415.8228007092225 14.056130871829817
  endloop
endfacet
facet normal 1.0 -1.4420309897848028e-27 1.5742359481089605e-14
  outer loop
    vertex 2178.5162367376975 2415.8228007092225 14.056130871829817
    vertex 2178.516236737696 2415.1150868931545 12.572354790613653
    vertex 2178.516236737696 2416.1099583321065 12.984444033445481
  endloop
endfacet
facet normal 1.0 -1.4420309897848028e-27 1.5742359481089605e-14
  outer loop
    vertex 2178.5162367376975 2415.8228007092225 14.056130871829817
    vertex 2178.516236737696 2416.1099583321065 12.984444033445481
    vertex 2178.516236737696 2417.1775868931545 14.23449185664146
  endloop
endfacet
facet normal 1.0 -1.4420309897848028e-27 1.5742359481089605e-14
  outer loop
    vertex 2178.516236737696 2417.1775868931545 14.23449185664146
    vertex 2178.516236737696 2416.1099583321065 12.984444033445481
    vertex 2178.516236737696 2417.1775868931545 13.125000000003151
  endloop
endfacet
facet normal 1.0 -1.4420309897848028e-27 1.5742359481089605e-14
  outer loop
    vertex 2178.516236737696 2417.1775868931545 14.23449185664146
    vertex 2178.516236737696 2417.1775868931545 13.125000000003151
    vertex 2178.516236737696 2418.2452154542025 12.984444033445481
  endloop
endfacet
facet normal 1.0 -1.4420309897848028e-27 1.5742359481089605e-14
  outer loop
    vertex 2178.516236737696 2417.1775868931545 14.23449185664146
    vertex 2178.516236737696 2418.2452154542025 12.984444033445481
    vertex 2178.5162367376975 2418.5323730770865 14.056130871829808
  endloop
endfacet
facet normal 1.0 -1.4420309897848028e-27 1.5742359481089605e-14
  outer loop
    vertex 2178.5162367376975 2418.5323730770865 14.056130871829808
    vertex 2178.516236737696 2418.2452154542025 12.984444033445481
    vertex 2178.516236737696 2419.2400868931545 12.572354790613653
  endloop
endfacet
facet normal 1.0 -1.4420309897848028e-27 1.5742359481089605e-14
  outer loop
    vertex 2178.5162367376975 2418.5323730770865 14.056130871829808
    vertex 2178.516236737696 2419.2400868931545 12.572354790613653
    vertex 2178.5162367376943 2419.794832821474 13.533202923754562
  endloop
endfacet
facet normal 1.0 -1.4420309897848028e-27 1.5742359481089605e-14
  outer loop
    vertex 2178.5162367376943 2419.794832821474 13.533202923754562
    vertex 2178.516236737696 2419.2400868931545 12.572354790613653
    vertex 2178.516236737696 2420.094402365549 11.916815472397822
  endloop
endfacet
facet normal 1.0 -1.4420309897848028e-27 1.5742359481089605e-14
  outer loop
    vertex 2178.5162367376943 2419.794832821474 13.533202923754562
    vertex 2178.516236737696 2420.094402365549 11.916815472397822
    vertex 2178.5162367376943 2420.878931581049 12.701344687897965
  endloop
endfacet
facet normal 1.0 -1.4420309897848028e-27 1.5742359481089605e-14
  outer loop
    vertex 2178.5162367376943 2420.878931581049 12.701344687897965
    vertex 2178.516236737696 2420.094402365549 11.916815472397822
    vertex 2178.516236737696 2420.7499416837654 11.06250000000326
  endloop
endfacet
facet normal 1.0 -1.4420309897848028e-27 1.5742359481089605e-14
  outer loop
    vertex 2178.5162367376943 2420.878931581049 12.701344687897965
    vertex 2178.516236737696 2420.7499416837654 11.06250000000326
    vertex 2178.516236737696 2421.162030926597 10.067628561051027
  endloop
endfacet
facet normal 1.0 -1.4420309897848028e-27 1.5742359481089605e-14
  outer loop
    vertex 2178.5162367376943 2420.878931581049 12.701344687897965
    vertex 2178.516236737696 2421.162030926597 10.067628561051027
    vertex 2178.5162367376975 2421.710789816906 11.617245928322504
  endloop
endfacet
facet normal 1.0 -1.4420309897848028e-27 1.5742359481089605e-14
  outer loop
    vertex 2178.5162367376975 2421.710789816906 11.617245928322504
    vertex 2178.516236737696 2421.162030926597 10.067628561051027
    vertex 2178.516236737696 2421.3025868931545 9.000000000003007
  endloop
endfacet
facet normal 5.213801009974196e-15 -0.4999999999998937 -0.8660254037845002
  outer loop
    vertex 2163.5162367376956 2419.9275868931545 10.587713240275047
    vertex 2178.516236737696 2417.1775868931545 12.175426480546005
    vertex 2163.516236737695 2417.1775868931545 12.175426480545644
  endloop
endfacet
facet normal 5.213801009974196e-15 -0.4999999999998937 -0.8660254037845002
  outer loop
    vertex 2178.516236737696 2417.1775868931545 12.175426480546005
    vertex 2163.5162367376956 2419.9275868931545 10.587713240275047
    vertex 2178.516236737696 2419.9275868931545 10.587713240274866
  endloop
endfacet
facet normal 1.0 -0.0 -0.0
  outer loop
    vertex 2178.516236737696 2413.0525868931545 3.0000000000026454
    vertex 2178.516236737696 2414.4275868931545 7.412286759731688
    vertex 2178.516236737696 2413.0525868931545 9.000000000003007
  endloop
endfacet
facet normal 1.0 -0.0 -0.0
  outer loop
    vertex 2178.516236737696 2414.4275868931545 7.412286759731688
    vertex 2178.516236737696 2413.0525868931545 3.0000000000026454
    vertex 2178.516236737696 2421.3025868931545 3.0000000000026454
  endloop
endfacet
facet normal 1.0 -0.0 -0.0
  outer loop
    vertex 2178.516236737696 2413.0525868931545 9.000000000003007
    vertex 2178.516236737696 2414.4275868931545 7.412286759731688
    vertex 2178.516236737696 2413.193142859712 10.067628561051027
  endloop
endfacet
facet normal 1.0 -0.0 -0.0
  outer loop
    vertex 2178.516236737696 2413.193142859712 10.067628561051027
    vertex 2178.516236737696 2414.4275868931545 7.412286759731688
    vertex 2178.516236737696 2413.605232102544 11.06250000000326
  endloop
endfacet
facet normal 1.0 -0.0 -0.0
  outer loop
    vertex 2178.516236737696 2413.605232102544 11.06250000000326
    vertex 2178.516236737696 2414.4275868931545 7.412286759731688
    vertex 2178.516236737696 2414.26077142076 11.916815472397822
  endloop
endfacet
facet normal 1.0 -0.0 -0.0
  outer loop
    vertex 2178.516236737696 2414.4275868931545 7.412286759731688
    vertex 2178.516236737696 2421.3025868931545 3.0000000000026454
    vertex 2178.516236737696 2417.1775868931545 5.824573519460008
  endloop
endfacet
facet normal 1.0 -0.0 -0.0
  outer loop
    vertex 2178.516236737696 2417.1775868931545 5.824573519460008
    vertex 2178.516236737696 2421.3025868931545 3.0000000000026454
    vertex 2178.516236737696 2419.9275868931545 7.412286759731688
  endloop
endfacet
facet normal 1.0 -0.0 -0.0
  outer loop
    vertex 2178.516236737696 2419.9275868931545 7.412286759731688
    vertex 2178.516236737696 2421.3025868931545 3.0000000000026454
    vertex 2178.516236737696 2419.9275868931545 10.587713240274866
  endloop
endfacet
facet normal 1.0 -0.0 -0.0
  outer loop
    vertex 2178.516236737696 2419.9275868931545 10.587713240274866
    vertex 2178.516236737696 2421.3025868931545 3.0000000000026454
    vertex 2178.516236737696 2420.094402365549 11.916815472397822
  endloop
endfacet
facet normal 1.0 -0.0 -0.0
  outer loop
    vertex 2178.516236737696 2420.094402365549 11.916815472397822
    vertex 2178.516236737696 2421.3025868931545 3.0000000000026454
    vertex 2178.516236737696 2420.7499416837654 11.06250000000326
  endloop
endfacet
facet normal 1.0 -0.0 -0.0
  outer loop
    vertex 2178.516236737696 2420.7499416837654 11.06250000000326
    vertex 2178.516236737696 2421.3025868931545 3.0000000000026454
    vertex 2178.516236737696 2421.162030926597 10.067628561051027
  endloop
endfacet
facet normal 1.0 -0.0 -0.0
  outer loop
    vertex 2178.516236737696 2421.162030926597 10.067628561051027
    vertex 2178.516236737696 2421.3025868931545 3.0000000000026454
    vertex 2178.516236737696 2421.3025868931545 9.000000000003007
  endloop
endfacet
facet normal 1.0 -0.0 -0.0
  outer loop
    vertex 2178.516236737696 2414.26077142076 11.916815472397822
    vertex 2178.516236737696 2414.4275868931545 10.587713240274866
    vertex 2178.516236737696 2415.1150868931545 12.572354790613653
  endloop
endfacet
facet normal 1.0 -0.0 -0.0
  outer loop
    vertex 2178.516236737696 2414.4275868931545 10.587713240274866
    vertex 2178.516236737696 2414.26077142076 11.916815472397822
    vertex 2178.516236737696 2414.4275868931545 7.412286759731688
  endloop
endfacet
facet normal 1.0 -0.0 -0.0
  outer loop
    vertex 2178.516236737696 2415.1150868931545 12.572354790613653
    vertex 2178.516236737696 2414.4275868931545 10.587713240274866
    vertex 2178.516236737696 2417.1775868931545 12.175426480546005
  endloop
endfacet
facet normal 1.0 -0.0 -0.0
  outer loop
    vertex 2178.516236737696 2415.1150868931545 12.572354790613653
    vertex 2178.516236737696 2417.1775868931545 12.175426480546005
    vertex 2178.516236737696 2416.1099583321065 12.984444033445481
  endloop
endfacet
facet normal 1.0 -0.0 -0.0
  outer loop
    vertex 2178.516236737696 2416.1099583321065 12.984444033445481
    vertex 2178.516236737696 2417.1775868931545 12.175426480546005
    vertex 2178.516236737696 2417.1775868931545 13.125000000003151
  endloop
endfacet
facet normal 1.0 -0.0 -0.0
  outer loop
    vertex 2178.516236737696 2417.1775868931545 13.125000000003151
    vertex 2178.516236737696 2417.1775868931545 12.175426480546005
    vertex 2178.516236737696 2419.9275868931545 10.587713240274866
  endloop
endfacet
facet normal 1.0 -0.0 -0.0
  outer loop
    vertex 2178.516236737696 2417.1775868931545 13.125000000003151
    vertex 2178.516236737696 2419.9275868931545 10.587713240274866
    vertex 2178.516236737696 2418.2452154542025 12.984444033445481
  endloop
endfacet
facet normal 1.0 -0.0 -0.0
  outer loop
    vertex 2178.516236737696 2418.2452154542025 12.984444033445481
    vertex 2178.516236737696 2419.9275868931545 10.587713240274866
    vertex 2178.516236737696 2419.2400868931545 12.572354790613653
  endloop
endfacet
facet normal 1.0 -0.0 -0.0
  outer loop
    vertex 2178.516236737696 2419.2400868931545 12.572354790613653
    vertex 2178.516236737696 2419.9275868931545 10.587713240274866
    vertex 2178.516236737696 2420.094402365549 11.916815472397822
  endloop
endfacet
facet normal 1.042612223971062e-14 -0.5000000000000853 0.8660254037843894
  outer loop
    vertex 2178.516236737696 2417.1775868931545 5.824573519460008
    vertex 2163.516236737696 2419.9275868931545 7.4122867597318685
    vertex 2163.5162367376956 2417.1775868931545 5.824573519460189
  endloop
endfacet
facet normal 1.042612223971062e-14 -0.5000000000000853 0.8660254037843894
  outer loop
    vertex 2163.516236737696 2419.9275868931545 7.4122867597318685
    vertex 2178.516236737696 2417.1775868931545 5.824573519460008
    vertex 2178.516236737696 2419.9275868931545 7.412286759731688
  endloop
endfacet
facet normal -0.0 1.0 -0.0
  outer loop
    vertex 2163.516236737696 2414.4275868931545 7.4122867597318685
    vertex 2178.516236737696 2414.4275868931545 10.587713240274866
    vertex 2178.516236737696 2414.4275868931545 7.412286759731688
  endloop
endfacet
facet normal -0.0 1.0 -0.0
  outer loop
    vertex 2178.516236737696 2414.4275868931545 10.587713240274866
    vertex 2163.516236737696 2414.4275868931545 7.4122867597318685
    vertex 2163.5162367376956 2414.4275868931545 10.587713240275047
  endloop
endfacet
facet normal -1.0 3.5567461032225443e-28 -1.6403287790058383e-14
  outer loop
    vertex 2163.5162367376956 2412.121456021328 10.354786183935227
    vertex 2163.5162367376956 2411.9619975456435 3.0000000000026814
    vertex 2163.5162367376956 2411.9619975456435 9.143578811445533
  endloop
endfacet
facet normal -1.0 3.5567461032225443e-28 -1.6403287790058383e-14
  outer loop
    vertex 2163.516236737694 2414.560340964835 13.53320292375425
    vertex 2163.5162367376956 2414.4275868931545 10.587713240275047
    vertex 2163.516236737694 2413.47624220526 12.701344687897565
  endloop
endfacet
facet normal -1.0 3.5567461032225443e-28 -1.6403287790058383e-14
  outer loop
    vertex 2163.5162367376956 2414.4275868931545 10.587713240275047
    vertex 2163.516236737694 2414.560340964835 13.53320292375425
    vertex 2163.516236737695 2417.1775868931545 12.175426480545644
  endloop
endfacet
facet normal -1.0 3.5567461032225443e-28 -1.6403287790058383e-14
  outer loop
    vertex 2163.516236737695 2417.1775868931545 12.175426480545644
    vertex 2163.516236737694 2414.560340964835 13.53320292375425
    vertex 2163.516236737697 2415.8228007092225 14.056130871829502
  endloop
endfacet
facet normal -1.0 3.5567461032225443e-28 -1.6403287790058383e-14
  outer loop
    vertex 2163.516236737695 2417.1775868931545 12.175426480545644
    vertex 2163.516236737697 2415.8228007092225 14.056130871829502
    vertex 2163.5162367376956 2417.1775868931545 14.234491856641148
  endloop
endfacet
facet normal -1.0 3.5567461032225443e-28 -1.6403287790058383e-14
  outer loop
    vertex 2163.516236737695 2417.1775868931545 12.175426480545644
    vertex 2163.5162367376956 2417.1775868931545 14.234491856641148
    vertex 2163.516236737697 2418.5323730770865 14.056130871829495
  endloop
endfacet
facet normal -1.0 3.5567461032225443e-28 -1.6403287790058383e-14
  outer loop
    vertex 2163.516236737695 2417.1775868931545 12.175426480545644
    vertex 2163.516236737697 2418.5323730770865 14.056130871829495
    vertex 2163.5162367376956 2419.9275868931545 10.587713240275047
  endloop
endfacet
facet normal -1.0 3.5567461032225443e-28 -1.6403287790058383e-14
  outer loop
    vertex 2163.5162367376956 2419.9275868931545 10.587713240275047
    vertex 2163.516236737697 2418.5323730770865 14.056130871829495
    vertex 2163.516236737694 2419.794832821474 13.53320292375425
  endloop
endfacet
facet normal -1.0 3.5567461032225443e-28 -1.6403287790058383e-14
  outer loop
    vertex 2163.5162367376956 2419.9275868931545 10.587713240275047
    vertex 2163.516236737694 2419.794832821474 13.53320292375425
    vertex 2163.516236737694 2420.878931581049 12.701344687897652
  endloop
endfacet
facet normal -1.0 3.5567461032225443e-28 -1.6403287790058383e-14
  outer loop
    vertex 2163.5162367376956 2419.9275868931545 10.587713240275047
    vertex 2163.516236737694 2420.878931581049 12.701344687897652
    vertex 2163.516236737696 2419.9275868931545 7.4122867597318685
  endloop
endfacet
facet normal -1.0 3.5567461032225443e-28 -1.6403287790058383e-14
  outer loop
    vertex 2163.5162367376956 2411.9619975456435 3.0000000000026814
    vertex 2163.5162367376956 2399.1775868931545 3.0681235330121123e-12
    vertex 2163.5162367376956 2399.1775868931545 3.000000000003068
  endloop
endfacet
facet normal -1.0 3.5567461032225443e-28 -1.6403287790058383e-14
  outer loop
    vertex 2163.5162367376956 2399.1775868931545 3.0681235330121123e-12
    vertex 2163.5162367376956 2411.9619975456435 3.0000000000026814
    vertex 2163.5162367376956 2435.1775868931545 3.0681235330121123e-12
  endloop
endfacet
facet normal -1.0 3.5567461032225443e-28 -1.6403287790058383e-14
  outer loop
    vertex 2163.5162367376956 2435.1775868931545 3.0681235330121123e-12
    vertex 2163.5162367376956 2411.9619975456435 3.0000000000026814
    vertex 2163.5162367376956 2422.3931762406655 3.0000000000026814
  endloop
endfacet
facet normal -1.0 3.5567461032225443e-28 -1.6403287790058383e-14
  outer loop
    vertex 2163.5162367376956 2422.3931762406655 3.0000000000026814
    vertex 2163.5162367376956 2411.9619975456435 3.0000000000026814
    vertex 2163.5162367376956 2417.1775868931545 5.824573519460189
  endloop
endfacet
facet normal -1.0 3.5567461032225443e-28 -1.6403287790058383e-14
  outer loop
    vertex 2163.5162367376956 2417.1775868931545 5.824573519460189
    vertex 2163.5162367376956 2411.9619975456435 3.0000000000026814
    vertex 2163.516236737696 2414.4275868931545 7.4122867597318685
  endloop
endfacet
facet normal -1.0 3.5567461032225443e-28 -1.6403287790058383e-14
  outer loop
    vertex 2163.516236737696 2414.4275868931545 7.4122867597318685
    vertex 2163.5162367376956 2411.9619975456435 3.0000000000026814
    vertex 2163.5162367376956 2412.121456021328 10.354786183935227
  endloop
endfacet
facet normal -1.0 3.5567461032225443e-28 -1.6403287790058383e-14
  outer loop
    vertex 2163.516236737696 2414.4275868931545 7.4122867597318685
    vertex 2163.5162367376956 2412.121456021328 10.354786183935227
    vertex 2163.516236737697 2412.6443839694034 11.617245928322188
  endloop
endfacet
facet normal -1.0 3.5567461032225443e-28 -1.6403287790058383e-14
  outer loop
    vertex 2163.516236737696 2414.4275868931545 7.4122867597318685
    vertex 2163.516236737697 2412.6443839694034 11.617245928322188
    vertex 2163.516236737694 2413.47624220526 12.701344687897565
  endloop
endfacet
facet normal -1.0 3.5567461032225443e-28 -1.6403287790058383e-14
  outer loop
    vertex 2163.516236737696 2414.4275868931545 7.4122867597318685
    vertex 2163.516236737694 2413.47624220526 12.701344687897565
    vertex 2163.5162367376956 2414.4275868931545 10.587713240275047
  endloop
endfacet
facet normal -1.0 3.5567461032225443e-28 -1.6403287790058383e-14
  outer loop
    vertex 2163.5162367376956 2422.3931762406655 3.0000000000026814
    vertex 2163.5162367376956 2417.1775868931545 5.824573519460189
    vertex 2163.516236737696 2419.9275868931545 7.4122867597318685
  endloop
endfacet
facet normal -1.0 3.5567461032225443e-28 -1.6403287790058383e-14
  outer loop
    vertex 2163.5162367376956 2422.3931762406655 3.0000000000026814
    vertex 2163.516236737696 2419.9275868931545 7.4122867597318685
    vertex 2163.516236737694 2420.878931581049 12.701344687897652
  endloop
endfacet
facet normal -1.0 3.5567461032225443e-28 -1.6403287790058383e-14
  outer loop
    vertex 2163.5162367376956 2422.3931762406655 3.0000000000026814
    vertex 2163.516236737694 2420.878931581049 12.701344687897652
    vertex 2163.516236737697 2421.710789816906 11.617245928322184
  endloop
endfacet
facet normal -1.0 3.5567461032225443e-28 -1.6403287790058383e-14
  outer loop
    vertex 2163.5162367376956 2422.3931762406655 3.0000000000026814
    vertex 2163.516236737697 2421.710789816906 11.617245928322184
    vertex 2163.5162367376956 2422.2337177649806 10.354786183935055
  endloop
endfacet
facet normal -1.0 3.5567461032225443e-28 -1.6403287790058383e-14
  outer loop
    vertex 2163.5162367376956 2422.3931762406655 3.0000000000026814
    vertex 2163.5162367376956 2422.2337177649806 10.354786183935055
    vertex 2163.5162367376956 2422.3931762406655 9.143578811445533
  endloop
endfacet
facet normal -1.0 3.5567461032225443e-28 -1.6403287790058383e-14
  outer loop
    vertex 2163.5162367376956 2435.1775868931545 3.0681235330121123e-12
    vertex 2163.5162367376956 2422.3931762406655 3.0000000000026814
    vertex 2163.5162367376956 2435.1775868931545 3.000000000003068
  endloop
endfacet
facet normal 6.297925144356888e-15 2.3546757859611055e-14 1.0
  outer loop
    vertex 2163.5162367376956 2399.1775868931545 3.000000000003068
    vertex 2169.6020231753228 2404.700873330781 3.0000000000024514
    vertex 2163.5162367376956 2411.9619975456435 3.0000000000026814
  endloop
endfacet
facet normal 6.297925144356888e-15 2.3546757859611055e-14 1.0
  outer loop
    vertex 2169.6020231753228 2404.700873330781 3.0000000000024514
    vertex 2163.5162367376956 2399.1775868931545 3.000000000003068
    vertex 2170.016236737696 2404.3830360855854 3.0000000000024403
  endloop
endfacet
facet normal 6.297925144356888e-15 2.3546757859611055e-14 1.0
  outer loop
    vertex 2170.016236737696 2404.3830360855854 3.0000000000024403
    vertex 2163.5162367376956 2399.1775868931545 3.000000000003068
    vertex 2178.516236737696 2399.1775868931545 3.000000000002888
  endloop
endfacet
facet normal 6.297925144356888e-15 2.3546757859611055e-14 1.0
  outer loop
    vertex 2163.5162367376956 2411.9619975456435 3.0000000000026814
    vertex 2169.6020231753228 2404.700873330781 3.0000000000024514
    vertex 2169.284185930127 2405.115086893154 3.0000000000024643
  endloop
endfacet
facet normal 6.297925144356888e-15 2.3546757859611055e-14 1.0
  outer loop
    vertex 2163.5162367376956 2411.9619975456435 3.0000000000026814
    vertex 2169.284185930127 2405.115086893154 3.0000000000024643
    vertex 2169.084385085118 2405.597448802949 3.000000000002479
  endloop
endfacet
facet normal 6.297925144356888e-15 2.3546757859611055e-14 1.0
  outer loop
    vertex 2163.5162367376956 2411.9619975456435 3.0000000000026814
    vertex 2169.084385085118 2405.597448802949 3.000000000002479
    vertex 2169.016236737696 2406.1150868931545 3.0000000000024936
  endloop
endfacet
facet normal 6.297925144356888e-15 2.3546757859611055e-14 1.0
  outer loop
    vertex 2170.016236737696 2404.3830360855854 3.0000000000024403
    vertex 2178.516236737696 2399.1775868931545 3.000000000002888
    vertex 2170.498598647491 2404.1832352405763 3.000000000002432
  endloop
endfacet
facet normal 6.297925144356888e-15 2.3546757859611055e-14 1.0
  outer loop
    vertex 2170.498598647491 2404.1832352405763 3.000000000002432
    vertex 2178.516236737696 2399.1775868931545 3.000000000002888
    vertex 2171.0162367376956 2404.1150868931545 3.0000000000024265
  endloop
endfacet
facet normal 6.297925144356888e-15 2.3546757859611055e-14 1.0
  outer loop
    vertex 2171.0162367376956 2404.1150868931545 3.0000000000024265
    vertex 2178.516236737696 2399.1775868931545 3.000000000002888
    vertex 2171.533874827901 2404.1832352405763 3.000000000002425
  endloop
endfacet
facet normal 6.297925144356888e-15 2.3546757859611055e-14 1.0
  outer loop
    vertex 2171.533874827901 2404.1832352405763 3.000000000002425
    vertex 2178.516236737696 2399.1775868931545 3.000000000002888
    vertex 2172.016236737696 2404.3830360855854 3.000000000002428
  endloop
endfacet
facet normal 6.297925144356888e-15 2.3546757859611055e-14 1.0
  outer loop
    vertex 2172.016236737696 2404.3830360855854 3.000000000002428
    vertex 2178.516236737696 2399.1775868931545 3.000000000002888
    vertex 2172.430450300069 2404.700873330781 3.000000000002434
  endloop
endfacet
facet normal 6.297925144356888e-15 2.3546757859611055e-14 1.0
  outer loop
    vertex 2172.430450300069 2404.700873330781 3.000000000002434
    vertex 2178.516236737696 2399.1775868931545 3.000000000002888
    vertex 2172.7482875452647 2405.1150868931545 3.0000000000024434
  endloop
endfacet
facet normal 6.297925144356888e-15 2.3546757859611055e-14 1.0
  outer loop
    vertex 2172.7482875452647 2405.1150868931545 3.0000000000024434
    vertex 2178.516236737696 2399.1775868931545 3.000000000002888
    vertex 2172.948088390274 2405.597448802949 3.0000000000024554
  endloop
endfacet
facet normal 6.297925144356888e-15 2.3546757859611055e-14 1.0
  outer loop
    vertex 2172.948088390274 2405.597448802949 3.0000000000024554
    vertex 2178.516236737696 2399.1775868931545 3.000000000002888
    vertex 2173.0162367376956 2406.1150868931545 3.0000000000024687
  endloop
endfacet
facet normal 6.297925144356888e-15 2.3546757859611055e-14 1.0
  outer loop
    vertex 2163.5162367376956 2411.9619975456435 3.0000000000026814
    vertex 2170.0162367376956 2407.847137700723 3.0000000000025344
    vertex 2178.516236737696 2411.9619975456435 3.000000000002673
  endloop
endfacet
facet normal 6.297925144356888e-15 2.3546757859611055e-14 1.0
  outer loop
    vertex 2170.0162367376956 2407.847137700723 3.0000000000025344
    vertex 2163.5162367376956 2411.9619975456435 3.0000000000026814
    vertex 2169.6020231753228 2407.5293004555274 3.0000000000025278
  endloop
endfacet
facet normal 6.297925144356888e-15 2.3546757859611055e-14 1.0
  outer loop
    vertex 2169.6020231753228 2407.5293004555274 3.0000000000025278
    vertex 2163.5162367376956 2411.9619975456435 3.0000000000026814
    vertex 2169.284185930127 2407.115086893154 3.000000000002519
  endloop
endfacet
facet normal 6.297925144356888e-15 2.3546757859611055e-14 1.0
  outer loop
    vertex 2169.284185930127 2407.115086893154 3.000000000002519
    vertex 2163.5162367376956 2411.9619975456435 3.0000000000026814
    vertex 2169.084385085118 2406.6327249833594 3.000000000002507
  endloop
endfacet
facet normal 6.297925144356888e-15 2.3546757859611055e-14 1.0
  outer loop
    vertex 2169.084385085118 2406.6327249833594 3.000000000002507
    vertex 2163.5162367376956 2411.9619975456435 3.0000000000026814
    vertex 2169.016236737696 2406.1150868931545 3.0000000000024936
  endloop
endfacet
facet normal 6.297925144356888e-15 2.3546757859611055e-14 1.0
  outer loop
    vertex 2178.516236737696 2411.9619975456435 3.000000000002673
    vertex 2170.0162367376956 2407.847137700723 3.0000000000025344
    vertex 2170.498598647491 2408.0469385457322 3.0000000000025366
  endloop
endfacet
facet normal 6.297925144356888e-15 2.3546757859611055e-14 1.0
  outer loop
    vertex 2178.516236737696 2411.9619975456435 3.000000000002673
    vertex 2170.498598647491 2408.0469385457322 3.0000000000025366
    vertex 2171.0162367376956 2408.115086893154 3.0000000000025353
  endloop
endfacet
facet normal 6.297925144356888e-15 2.3546757859611055e-14 1.0
  outer loop
    vertex 2178.516236737696 2411.9619975456435 3.000000000002673
    vertex 2171.0162367376956 2408.115086893154 3.0000000000025353
    vertex 2171.533874827901 2408.0469385457322 3.0000000000025304
  endloop
endfacet
facet normal 6.297925144356888e-15 2.3546757859611055e-14 1.0
  outer loop
    vertex 2178.516236737696 2411.9619975456435 3.000000000002673
    vertex 2171.533874827901 2408.0469385457322 3.0000000000025304
    vertex 2172.0162367376956 2407.847137700723 3.000000000002522
  endloop
endfacet
facet normal 6.297925144356888e-15 2.3546757859611055e-14 1.0
  outer loop
    vertex 2178.516236737696 2411.9619975456435 3.000000000002673
    vertex 2172.0162367376956 2407.847137700723 3.000000000002522
    vertex 2172.430450300069 2407.5293004555274 3.0000000000025104
  endloop
endfacet
facet normal 6.297925144356888e-15 2.3546757859611055e-14 1.0
  outer loop
    vertex 2178.516236737696 2411.9619975456435 3.000000000002673
    vertex 2172.430450300069 2407.5293004555274 3.0000000000025104
    vertex 2172.7482875452647 2407.1150868931545 3.0000000000024976
  endloop
endfacet
facet normal 6.297925144356888e-15 2.3546757859611055e-14 1.0
  outer loop
    vertex 2178.516236737696 2411.9619975456435 3.000000000002673
    vertex 2172.7482875452647 2407.1150868931545 3.0000000000024976
    vertex 2172.948088390274 2406.6327249833594 3.000000000002483
  endloop
endfacet
facet normal 6.297925144356888e-15 2.3546757859611055e-14 1.0
  outer loop
    vertex 2178.516236737696 2411.9619975456435 3.000000000002673
    vertex 2172.948088390274 2406.6327249833594 3.000000000002483
    vertex 2173.0162367376956 2406.1150868931545 3.0000000000024687
  endloop
endfacet
facet normal 6.297925144356888e-15 2.3546757859611055e-14 1.0
  outer loop
    vertex 2178.516236737696 2411.9619975456435 3.000000000002673
    vertex 2173.0162367376956 2406.1150868931545 3.0000000000024687
    vertex 2178.516236737696 2399.1775868931545 3.000000000002888
  endloop
endfacet
facet normal 6.0159284961021004e-15 -2.321589006767273e-14 1.0
  outer loop
    vertex 2163.5162367376956 2422.3931762406655 3.0000000000026814
    vertex 2169.284185930127 2427.240086893154 3.000000000002796
    vertex 2163.5162367376956 2435.1775868931545 3.000000000003068
  endloop
endfacet
facet normal 6.0159284961021004e-15 -2.321589006767273e-14 1.0
  outer loop
    vertex 2169.284185930127 2427.240086893154 3.000000000002796
    vertex 2163.5162367376956 2422.3931762406655 3.0000000000026814
    vertex 2169.6020231753228 2426.825873330781 3.0000000000027827
  endloop
endfacet
facet normal 6.0159284961021004e-15 -2.321589006767273e-14 1.0
  outer loop
    vertex 2169.6020231753228 2426.825873330781 3.0000000000027827
    vertex 2163.5162367376956 2422.3931762406655 3.0000000000026814
    vertex 2170.016236737696 2426.5080360855854 3.0000000000027716
  endloop
endfacet
facet normal 6.0159284961021004e-15 -2.321589006767273e-14 1.0
  outer loop
    vertex 2170.016236737696 2426.5080360855854 3.0000000000027716
    vertex 2163.5162367376956 2422.3931762406655 3.0000000000026814
    vertex 2178.516236737696 2422.3931762406655 3.0000000000026814
  endloop
endfacet
facet normal 6.0159284961021004e-15 -2.321589006767273e-14 1.0
  outer loop
    vertex 2163.5162367376956 2435.1775868931545 3.000000000003068
    vertex 2169.284185930127 2427.240086893154 3.000000000002796
    vertex 2169.084385085118 2427.722448802949 3.00000000000281
  endloop
endfacet
facet normal 6.0159284961021004e-15 -2.321589006767273e-14 1.0
  outer loop
    vertex 2163.5162367376956 2435.1775868931545 3.000000000003068
    vertex 2169.084385085118 2427.722448802949 3.00000000000281
    vertex 2169.016236737696 2428.2400868931545 3.000000000002825
  endloop
endfacet
facet normal 6.0159284961021004e-15 -2.321589006767273e-14 1.0
  outer loop
    vertex 2170.016236737696 2426.5080360855854 3.0000000000027716
    vertex 2178.516236737696 2422.3931762406655 3.0000000000026814
    vertex 2170.498598647491 2426.3082352405763 3.000000000002763
  endloop
endfacet
facet normal 6.0159284961021004e-15 -2.321589006767273e-14 1.0
  outer loop
    vertex 2170.498598647491 2426.3082352405763 3.000000000002763
    vertex 2178.516236737696 2422.3931762406655 3.0000000000026814
    vertex 2171.0162367376956 2426.2400868931545 3.0000000000027582
  endloop
endfacet
facet normal 6.0159284961021004e-15 -2.321589006767273e-14 1.0
  outer loop
    vertex 2171.0162367376956 2426.2400868931545 3.0000000000027582
    vertex 2178.516236737696 2422.3931762406655 3.0000000000026814
    vertex 2171.533874827901 2426.3082352405763 3.0000000000027565
  endloop
endfacet
facet normal 6.0159284961021004e-15 -2.321589006767273e-14 1.0
  outer loop
    vertex 2171.533874827901 2426.3082352405763 3.0000000000027565
    vertex 2178.516236737696 2422.3931762406655 3.0000000000026814
    vertex 2172.016236737696 2426.5080360855854 3.000000000002759
  endloop
endfacet
facet normal 6.0159284961021004e-15 -2.321589006767273e-14 1.0
  outer loop
    vertex 2172.016236737696 2426.5080360855854 3.000000000002759
    vertex 2178.516236737696 2422.3931762406655 3.0000000000026814
    vertex 2172.430450300069 2426.825873330781 3.0000000000027653
  endloop
endfacet
facet normal 6.0159284961021004e-15 -2.321589006767273e-14 1.0
  outer loop
    vertex 2172.430450300069 2426.825873330781 3.0000000000027653
    vertex 2178.516236737696 2422.3931762406655 3.0000000000026814
    vertex 2172.7482875452647 2427.2400868931545 3.0000000000027747
  endloop
endfacet
facet normal 6.0159284961021004e-15 -2.321589006767273e-14 1.0
  outer loop
    vertex 2172.7482875452647 2427.2400868931545 3.0000000000027747
    vertex 2178.516236737696 2422.3931762406655 3.0000000000026814
    vertex 2172.948088390274 2427.722448802949 3.0000000000027867
  endloop
endfacet
facet normal 6.0159284961021004e-15 -2.321589006767273e-14 1.0
  outer loop
    vertex 2172.948088390274 2427.722448802949 3.0000000000027867
    vertex 2178.516236737696 2422.3931762406655 3.0000000000026814
    vertex 2173.0162367376956 2428.2400868931545 3.0000000000028
  endloop
endfacet
facet normal 6.0159284961021004e-15 -2.321589006767273e-14 1.0
  outer loop
    vertex 2163.5162367376956 2435.1775868931545 3.000000000003068
    vertex 2170.0162367376956 2429.972137700723 3.0000000000028657
    vertex 2178.516236737696 2435.1775868931545 3.000000000002888
  endloop
endfacet
facet normal 6.0159284961021004e-15 -2.321589006767273e-14 1.0
  outer loop
    vertex 2170.0162367376956 2429.972137700723 3.0000000000028657
    vertex 2163.5162367376956 2435.1775868931545 3.000000000003068
    vertex 2169.6020231753228 2429.6543004555274 3.000000000002859
  endloop
endfacet
facet normal 6.0159284961021004e-15 -2.321589006767273e-14 1.0
  outer loop
    vertex 2169.6020231753228 2429.6543004555274 3.000000000002859
    vertex 2163.5162367376956 2435.1775868931545 3.000000000003068
    vertex 2169.284185930127 2429.240086893154 3.00000000000285
  endloop
endfacet
facet normal 6.0159284961021004e-15 -2.321589006767273e-14 1.0
  outer loop
    vertex 2169.284185930127 2429.240086893154 3.00000000000285
    vertex 2163.5162367376956 2435.1775868931545 3.000000000003068
    vertex 2169.084385085118 2428.7577249833594 3.000000000002838
  endloop
endfacet
facet normal 6.0159284961021004e-15 -2.321589006767273e-14 1.0
  outer loop
    vertex 2169.084385085118 2428.7577249833594 3.000000000002838
    vertex 2163.5162367376956 2435.1775868931545 3.000000000003068
    vertex 2169.016236737696 2428.2400868931545 3.000000000002825
  endloop
endfacet
facet normal 6.0159284961021004e-15 -2.321589006767273e-14 1.0
  outer loop
    vertex 2178.516236737696 2435.1775868931545 3.000000000002888
    vertex 2170.0162367376956 2429.972137700723 3.0000000000028657
    vertex 2170.498598647491 2430.1719385457322 3.000000000002868
  endloop
endfacet
facet normal 6.0159284961021004e-15 -2.321589006767273e-14 1.0
  outer loop
    vertex 2178.516236737696 2435.1775868931545 3.000000000002888
    vertex 2170.498598647491 2430.1719385457322 3.000000000002868
    vertex 2171.0162367376956 2430.240086893154 3.0000000000028666
  endloop
endfacet
facet normal 6.0159284961021004e-15 -2.321589006767273e-14 1.0
  outer loop
    vertex 2178.516236737696 2435.1775868931545 3.000000000002888
    vertex 2171.0162367376956 2430.240086893154 3.0000000000028666
    vertex 2171.533874827901 2430.1719385457322 3.0000000000028617
  endloop
endfacet
facet normal 6.0159284961021004e-15 -2.321589006767273e-14 1.0
  outer loop
    vertex 2178.516236737696 2435.1775868931545 3.000000000002888
    vertex 2171.533874827901 2430.1719385457322 3.0000000000028617
    vertex 2172.0162367376956 2429.972137700723 3.0000000000028533
  endloop
endfacet
facet normal 6.0159284961021004e-15 -2.321589006767273e-14 1.0
  outer loop
    vertex 2178.516236737696 2435.1775868931545 3.000000000002888
    vertex 2172.0162367376956 2429.972137700723 3.0000000000028533
    vertex 2172.430450300069 2429.6543004555274 3.000000000002842
  endloop
endfacet
facet normal 6.0159284961021004e-15 -2.321589006767273e-14 1.0
  outer loop
    vertex 2178.516236737696 2435.1775868931545 3.000000000002888
    vertex 2172.430450300069 2429.6543004555274 3.000000000002842
    vertex 2172.7482875452647 2429.2400868931545 3.000000000002829
  endloop
endfacet
facet normal 6.0159284961021004e-15 -2.321589006767273e-14 1.0
  outer loop
    vertex 2178.516236737696 2435.1775868931545 3.000000000002888
    vertex 2172.7482875452647 2429.2400868931545 3.000000000002829
    vertex 2172.948088390274 2428.7577249833594 3.0000000000028146
  endloop
endfacet
facet normal 6.0159284961021004e-15 -2.321589006767273e-14 1.0
  outer loop
    vertex 2178.516236737696 2435.1775868931545 3.000000000002888
    vertex 2172.948088390274 2428.7577249833594 3.0000000000028146
    vertex 2173.0162367376956 2428.2400868931545 3.0000000000028
  endloop
endfacet
facet normal 6.0159284961021004e-15 -2.321589006767273e-14 1.0
  outer loop
    vertex 2178.516236737696 2435.1775868931545 3.000000000002888
    vertex 2173.0162367376956 2428.2400868931545 3.0000000000028
    vertex 2178.516236737696 2422.3931762406655 3.0000000000026814
  endloop
endfacet
facet normal -1.9537020153682147e-14 0.38268343236511065 0.9238795325112783
  outer loop
    vertex 2163.516236737697 2418.5323730770865 14.056130871829495
    vertex 2178.5162367376943 2419.794832821474 13.533202923754562
    vertex 2163.516236737694 2419.794832821474 13.53320292375425
  endloop
endfacet
facet normal -1.9537020153682147e-14 0.38268343236511065 0.9238795325112783
  outer loop
    vertex 2178.5162367376943 2419.794832821474 13.533202923754562
    vertex 2163.516236737697 2418.5323730770865 14.056130871829495
    vertex 2178.5162367376975 2418.5323730770865 14.056130871829808
  endloop
endfacet
facet normal -1.6776819544998883e-14 0.6087614290087713 0.7933533402911964
  outer loop
    vertex 2178.5162367376943 2419.794832821474 13.533202923754562
    vertex 2163.516236737694 2420.878931581049 12.701344687897652
    vertex 2163.516236737694 2419.794832821474 13.53320292375425
  endloop
endfacet
facet normal -1.6776819544998883e-14 0.6087614290087713 0.7933533402911964
  outer loop
    vertex 2163.516236737694 2420.878931581049 12.701344687897652
    vertex 2178.5162367376943 2419.794832821474 13.533202923754562
    vertex 2178.5162367376943 2420.878931581049 12.701344687897965
  endloop
endfacet
facet normal -1.95370201536836e-14 -0.38268343236511587 0.923879532511276
  outer loop
    vertex 2178.5162367376943 2414.560340964835 13.533202923754562
    vertex 2163.516236737697 2415.8228007092225 14.056130871829502
    vertex 2163.516236737694 2414.560340964835 13.53320292375425
  endloop
endfacet
facet normal -1.95370201536836e-14 -0.38268343236511587 0.923879532511276
  outer loop
    vertex 2163.516236737697 2415.8228007092225 14.056130871829502
    vertex 2178.5162367376943 2414.560340964835 13.533202923754562
    vertex 2178.5162367376975 2415.8228007092225 14.056130871829817
  endloop
endfacet
facet normal -1.2873306409335764e-14 0.7933533402910454 0.6087614290089681
  outer loop
    vertex 2163.516236737694 2420.878931581049 12.701344687897652
    vertex 2178.5162367376975 2421.710789816906 11.617245928322504
    vertex 2163.516236737697 2421.710789816906 11.617245928322184
  endloop
endfacet
facet normal -1.2873306409335764e-14 0.7933533402910454 0.6087614290089681
  outer loop
    vertex 2178.5162367376975 2421.710789816906 11.617245928322504
    vertex 2163.516236737694 2420.878931581049 12.701344687897652
    vertex 2178.5162367376943 2420.878931581049 12.701344687897965
  endloop
endfacet
facet normal -2.0965805125343632e-14 0.130526192220132 0.9914448613737998
  outer loop
    vertex 2178.516236737696 2417.1775868931545 14.23449185664146
    vertex 2163.516236737697 2418.5323730770865 14.056130871829495
    vertex 2163.5162367376956 2417.1775868931545 14.234491856641148
  endloop
endfacet
facet normal -2.0965805125343632e-14 0.130526192220132 0.9914448613737998
  outer loop
    vertex 2163.516236737697 2418.5323730770865 14.056130871829495
    vertex 2178.516236737696 2417.1775868931545 14.23449185664146
    vertex 2178.5162367376975 2418.5323730770865 14.056130871829808
  endloop
endfacet
facet normal -2.7602006086831782e-15 -0.9914448613738164 0.13052619222000666
  outer loop
    vertex 2178.516236737696 2411.9619975456435 9.143578811445854
    vertex 2163.5162367376956 2412.121456021328 10.354786183935227
    vertex 2163.5162367376956 2411.9619975456435 9.143578811445533
  endloop
endfacet
facet normal -2.7602006086831782e-15 -0.9914448613738164 0.13052619222000666
  outer loop
    vertex 2163.5162367376956 2412.121456021328 10.354786183935227
    vertex 2178.516236737696 2411.9619975456435 9.143578811445854
    vertex 2178.516236737696 2412.121456021328 10.354786183935547
  endloop
endfacet
facet normal 0.0 -1.0 0.0
  outer loop
    vertex 2178.516236737696 2411.9619975456435 9.143578811445854
    vertex 2163.5162367376956 2411.9619975456435 3.0000000000026814
    vertex 2178.516236737696 2411.9619975456435 3.000000000002673
  endloop
endfacet
facet normal 0.0 -1.0 0.0
  outer loop
    vertex 2163.5162367376956 2411.9619975456435 3.0000000000026814
    vertex 2178.516236737696 2411.9619975456435 9.143578811445854
    vertex 2163.5162367376956 2411.9619975456435 9.143578811445533
  endloop
endfacet
facet normal -1.2873306409336045e-14 -0.7933533402911485 0.6087614290088337
  outer loop
    vertex 2178.5162367376975 2412.6443839694034 11.617245928322507
    vertex 2163.516236737694 2413.47624220526 12.701344687897565
    vertex 2163.516236737697 2412.6443839694034 11.617245928322188
  endloop
endfacet
facet normal -1.2873306409336045e-14 -0.7933533402911485 0.6087614290088337
  outer loop
    vertex 2163.516236737694 2413.47624220526 12.701344687897565
    vertex 2178.5162367376975 2412.6443839694034 11.617245928322507
    vertex 2178.5162367376943 2413.47624220526 12.701344687897878
  endloop
endfacet
facet normal -2.0965805125344257e-14 -0.13052619222009176 0.9914448613738052
  outer loop
    vertex 2163.516236737697 2415.8228007092225 14.056130871829502
    vertex 2178.516236737696 2417.1775868931545 14.23449185664146
    vertex 2163.5162367376956 2417.1775868931545 14.234491856641148
  endloop
endfacet
facet normal -2.0965805125344257e-14 -0.13052619222009176 0.9914448613738052
  outer loop
    vertex 2178.516236737696 2417.1775868931545 14.23449185664146
    vertex 2163.516236737697 2415.8228007092225 14.056130871829502
    vertex 2178.5162367376975 2415.8228007092225 14.056130871829817
  endloop
endfacet
facet normal -0.0 1.0 -0.0
  outer loop
    vertex 2163.5162367376956 2422.3931762406655 9.143578811445533
    vertex 2178.516236737696 2422.3931762406655 3.0000000000026814
    vertex 2163.5162367376956 2422.3931762406655 3.0000000000026814
  endloop
endfacet
facet normal -0.0 1.0 -0.0
  outer loop
    vertex 2178.516236737696 2422.3931762406655 3.0000000000026814
    vertex 2163.5162367376956 2422.3931762406655 9.143578811445533
    vertex 2178.516236737696 2422.3931762406655 9.143578811445854
  endloop
endfacet
facet normal -1.6776819545000624e-14 -0.6087614290088115 0.7933533402911654
  outer loop
    vertex 2178.5162367376943 2413.47624220526 12.701344687897878
    vertex 2163.516236737694 2414.560340964835 13.53320292375425
    vertex 2163.516236737694 2413.47624220526 12.701344687897565
  endloop
endfacet
facet normal -1.6776819545000624e-14 -0.6087614290088115 0.7933533402911654
  outer loop
    vertex 2163.516236737694 2414.560340964835 13.53320292375425
    vertex 2178.5162367376943 2413.47624220526 12.701344687897878
    vertex 2178.5162367376943 2414.560340964835 13.533202923754562
  endloop
endfacet
facet normal -8.092498716016923e-15 -0.9238795325112265 0.3826834323652356
  outer loop
    vertex 2178.516236737696 2412.121456021328 10.354786183935547
    vertex 2163.516236737697 2412.6443839694034 11.617245928322188
    vertex 2163.5162367376956 2412.121456021328 10.354786183935227
  endloop
endfacet
facet normal -8.092498716016923e-15 -0.9238795325112265 0.3826834323652356
  outer loop
    vertex 2163.516236737697 2412.6443839694034 11.617245928322188
    vertex 2178.516236737696 2412.121456021328 10.354786183935547
    vertex 2178.5162367376975 2412.6443839694034 11.617245928322507
  endloop
endfacet
facet normal -1.2031856992204201e-14 -2.419164983623853e-42 -1.0
  outer loop
    vertex 2163.5162367376956 2435.1775868931545 3.0681235330121123e-12
    vertex 2169.084385085118 2428.757724983359 3.2514213543777256e-12
    vertex 2163.5162367376956 2399.1775868931545 3.0681235330121123e-12
  endloop
endfacet
facet normal -1.2031856992204201e-14 -2.419164983623853e-42 -1.0
  outer loop
    vertex 2169.084385085118 2428.757724983359 3.2514213543777256e-12
    vertex 2163.5162367376956 2435.1775868931545 3.0681235330121123e-12
    vertex 2169.284185930127 2429.2400868931536 3.2627012203079175e-12
  endloop
endfacet
facet normal -1.2031856992204201e-14 -2.419164983623853e-42 -1.0
  outer loop
    vertex 2169.284185930127 2429.2400868931536 3.2627012203079175e-12
    vertex 2163.5162367376956 2435.1775868931545 3.0681235330121123e-12
    vertex 2169.6020231753228 2429.654300455527 3.272571102996835e-12
  endloop
endfacet
facet normal -1.2031856992204201e-14 -2.419164983623853e-42 -1.0
  outer loop
    vertex 2169.6020231753228 2429.654300455527 3.272571102996835e-12
    vertex 2163.5162367376956 2435.1775868931545 3.0681235330121123e-12
    vertex 2170.0162367376956 2429.9721377007227 3.2796210192032046e-12
  endloop
endfacet
facet normal -1.2031856992204201e-14 -2.419164983623853e-42 -1.0
  outer loop
    vertex 2170.0162367376956 2429.9721377007227 3.2796210192032046e-12
    vertex 2163.5162367376956 2435.1775868931545 3.0681235330121123e-12
    vertex 2178.516236737696 2435.1775868931545 2.887645678129047e-12
  endloop
endfacet
facet normal -1.2031856992204201e-14 -2.419164983623853e-42 -1.0
  outer loop
    vertex 2163.5162367376956 2399.1775868931545 3.0681235330121123e-12
    vertex 2169.084385085118 2428.757724983359 3.2514213543777256e-12
    vertex 2169.016236737696 2428.240086893154 3.237321521964986e-12
  endloop
endfacet
facet normal -1.2031856992204201e-14 -2.419164983623853e-42 -1.0
  outer loop
    vertex 2170.0162367376956 2429.9721377007227 3.2796210192032046e-12
    vertex 2178.516236737696 2435.1775868931545 2.887645678129047e-12
    vertex 2170.498598647491 2430.171938545732 3.2810310024444786e-12
  endloop
endfacet
facet normal -1.2031856992204201e-14 -2.419164983623853e-42 -1.0
  outer loop
    vertex 2170.498598647491 2430.171938545732 3.2810310024444786e-12
    vertex 2178.516236737696 2435.1775868931545 2.887645678129047e-12
    vertex 2171.0162367376956 2430.240086893154 3.2796210192032046e-12
  endloop
endfacet
facet normal -1.2031856992204201e-14 -2.419164983623853e-42 -1.0
  outer loop
    vertex 2171.0162367376956 2430.240086893154 3.2796210192032046e-12
    vertex 2178.516236737696 2435.1775868931545 2.887645678129047e-12
    vertex 2171.533874827901 2430.171938545732 3.273981086238109e-12
  endloop
endfacet
facet normal -1.2031856992204201e-14 -2.419164983623853e-42 -1.0
  outer loop
    vertex 2171.533874827901 2430.171938545732 3.273981086238109e-12
    vertex 2178.516236737696 2435.1775868931545 2.887645678129047e-12
    vertex 2172.0162367376956 2429.9721377007227 3.265521186790465e-12
  endloop
endfacet
facet normal -1.2031856992204201e-14 -2.419164983623853e-42 -1.0
  outer loop
    vertex 2172.0162367376956 2429.9721377007227 3.265521186790465e-12
    vertex 2178.516236737696 2435.1775868931545 2.887645678129047e-12
    vertex 2172.430450300069 2429.654300455527 3.2542413208602737e-12
  endloop
endfacet
facet normal -1.2031856992204201e-14 -2.419164983623853e-42 -1.0
  outer loop
    vertex 2172.430450300069 2429.654300455527 3.2542413208602737e-12
    vertex 2178.516236737696 2435.1775868931545 2.887645678129047e-12
    vertex 2172.7482875452647 2429.240086893154 3.2429614549300823e-12
  endloop
endfacet
facet normal -1.2031856992204201e-14 -2.419164983623853e-42 -1.0
  outer loop
    vertex 2172.7482875452647 2429.240086893154 3.2429614549300823e-12
    vertex 2178.516236737696 2435.1775868931545 2.887645678129047e-12
    vertex 2172.948088390274 2428.757724983359 3.2274516392760687e-12
  endloop
endfacet
facet normal -1.2031856992204201e-14 -2.419164983623853e-42 -1.0
  outer loop
    vertex 2172.948088390274 2428.757724983359 3.2274516392760687e-12
    vertex 2178.516236737696 2435.1775868931545 2.887645678129047e-12
    vertex 2173.0162367376956 2428.240086893154 3.2133518068633292e-12
  endloop
endfacet
facet normal -1.2031856992204201e-14 -2.419164983623853e-42 -1.0
  outer loop
    vertex 2173.0162367376956 2428.240086893154 3.2133518068633292e-12
    vertex 2178.516236737696 2435.1775868931545 2.887645678129047e-12
    vertex 2173.0162367376956 2406.115086893154 2.9778846055705796e-12
  endloop
endfacet
facet normal -1.2031856992204201e-14 -2.419164983623853e-42 -1.0
  outer loop
    vertex 2163.5162367376956 2399.1775868931545 3.0681235330121123e-12
    vertex 2170.016236737696 2404.383036085585 2.9496849407451007e-12
    vertex 2178.516236737696 2399.1775868931545 2.887645678129047e-12
  endloop
endfacet
facet normal -1.2031856992204201e-14 -2.419164983623853e-42 -1.0
  outer loop
    vertex 2170.016236737696 2404.383036085585 2.9496849407451007e-12
    vertex 2163.5162367376956 2399.1775868931545 3.0681235330121123e-12
    vertex 2169.6020231753228 2404.7008733307807 2.9609648066752925e-12
  endloop
endfacet
facet normal -1.2031856992204201e-14 -2.419164983623853e-42 -1.0
  outer loop
    vertex 2169.6020231753228 2404.7008733307807 2.9609648066752925e-12
    vertex 2163.5162367376956 2399.1775868931545 3.0681235330121123e-12
    vertex 2169.284185930127 2405.1150868931536 2.972244672605484e-12
  endloop
endfacet
facet normal -1.2031856992204201e-14 -2.419164983623853e-42 -1.0
  outer loop
    vertex 2169.284185930127 2405.1150868931536 2.972244672605484e-12
    vertex 2163.5162367376956 2399.1775868931545 3.0681235330121123e-12
    vertex 2169.084385085118 2405.5974488029487 2.9877544882594974e-12
  endloop
endfacet
facet normal -1.2031856992204201e-14 -2.419164983623853e-42 -1.0
  outer loop
    vertex 2169.084385085118 2405.5974488029487 2.9877544882594974e-12
    vertex 2163.5162367376956 2399.1775868931545 3.0681235330121123e-12
    vertex 2169.016236737696 2406.115086893154 3.001854320672237e-12
  endloop
endfacet
facet normal -1.2031856992204201e-14 -2.419164983623853e-42 -1.0
  outer loop
    vertex 2169.016236737696 2406.115086893154 3.001854320672237e-12
    vertex 2163.5162367376956 2399.1775868931545 3.0681235330121123e-12
    vertex 2169.016236737696 2428.240086893154 3.237321521964986e-12
  endloop
endfacet
facet normal -1.2031856992204201e-14 -2.419164983623853e-42 -1.0
  outer loop
    vertex 2178.516236737696 2399.1775868931545 2.887645678129047e-12
    vertex 2170.016236737696 2404.383036085585 2.9496849407451007e-12
    vertex 2170.498598647491 2404.183235240576 2.941225041297457e-12
  endloop
endfacet
facet normal -1.2031856992204201e-14 -2.419164983623853e-42 -1.0
  outer loop
    vertex 2178.516236737696 2399.1775868931545 2.887645678129047e-12
    vertex 2170.498598647491 2404.183235240576 2.941225041297457e-12
    vertex 2171.0162367376956 2404.115086893154 2.935585108332361e-12
  endloop
endfacet
facet normal -1.2031856992204201e-14 -2.419164983623853e-42 -1.0
  outer loop
    vertex 2178.516236737696 2399.1775868931545 2.887645678129047e-12
    vertex 2171.0162367376956 2404.115086893154 2.935585108332361e-12
    vertex 2171.533874827901 2404.183235240576 2.934175125091087e-12
  endloop
endfacet
facet normal -1.2031856992204201e-14 -2.419164983623853e-42 -1.0
  outer loop
    vertex 2178.516236737696 2399.1775868931545 2.887645678129047e-12
    vertex 2171.533874827901 2404.183235240576 2.934175125091087e-12
    vertex 2172.016236737696 2404.383036085585 2.935585108332361e-12
  endloop
endfacet
facet normal -1.2031856992204201e-14 -2.419164983623853e-42 -1.0
  outer loop
    vertex 2178.516236737696 2399.1775868931545 2.887645678129047e-12
    vertex 2172.016236737696 2404.383036085585 2.935585108332361e-12
    vertex 2172.430450300069 2404.7008733307807 2.942635024538731e-12
  endloop
endfacet
facet normal -1.2031856992204201e-14 -2.419164983623853e-42 -1.0
  outer loop
    vertex 2178.516236737696 2399.1775868931545 2.887645678129047e-12
    vertex 2172.430450300069 2404.7008733307807 2.942635024538731e-12
    vertex 2172.7482875452647 2405.115086893154 2.9525049072276487e-12
  endloop
endfacet
facet normal -1.2031856992204201e-14 -2.419164983623853e-42 -1.0
  outer loop
    vertex 2178.516236737696 2399.1775868931545 2.887645678129047e-12
    vertex 2172.7482875452647 2405.115086893154 2.9525049072276487e-12
    vertex 2172.948088390274 2405.5974488029487 2.96378477315784e-12
  endloop
endfacet
facet normal -1.2031856992204201e-14 -2.419164983623853e-42 -1.0
  outer loop
    vertex 2178.516236737696 2399.1775868931545 2.887645678129047e-12
    vertex 2172.948088390274 2405.5974488029487 2.96378477315784e-12
    vertex 2173.0162367376956 2406.115086893154 2.9778846055705796e-12
  endloop
endfacet
facet normal -1.2031856992204201e-14 -2.419164983623853e-42 -1.0
  outer loop
    vertex 2178.516236737696 2399.1775868931545 2.887645678129047e-12
    vertex 2173.0162367376956 2406.115086893154 2.9778846055705796e-12
    vertex 2178.516236737696 2435.1775868931545 2.887645678129047e-12
  endloop
endfacet
facet normal -1.2031856992204201e-14 -2.419164983623853e-42 -1.0
  outer loop
    vertex 2169.084385085118 2427.7224488029487 3.2232216895522466e-12
    vertex 2169.016236737696 2406.115086893154 3.001854320672237e-12
    vertex 2169.016236737696 2428.240086893154 3.237321521964986e-12
  endloop
endfacet
facet normal -1.2031856992204201e-14 -2.419164983623853e-42 -1.0
  outer loop
    vertex 2169.016236737696 2406.115086893154 3.001854320672237e-12
    vertex 2169.084385085118 2427.7224488029487 3.2232216895522466e-12
    vertex 2169.084385085118 2406.632724983359 3.0145441698437024e-12
  endloop
endfacet
facet normal -1.2031856992204201e-14 -2.419164983623853e-42 -1.0
  outer loop
    vertex 2169.084385085118 2406.632724983359 3.0145441698437024e-12
    vertex 2169.084385085118 2427.7224488029487 3.2232216895522466e-12
    vertex 2169.284185930127 2427.240086893154 3.209121857139507e-12
  endloop
endfacet
facet normal -1.2031856992204201e-14 -2.419164983623853e-42 -1.0
  outer loop
    vertex 2169.084385085118 2406.632724983359 3.0145441698437024e-12
    vertex 2169.284185930127 2427.240086893154 3.209121857139507e-12
    vertex 2169.284185930127 2407.1150868931536 3.027234019015168e-12
  endloop
endfacet
facet normal -1.2031856992204201e-14 -2.419164983623853e-42 -1.0
  outer loop
    vertex 2169.284185930127 2407.1150868931536 3.027234019015168e-12
    vertex 2169.284185930127 2427.240086893154 3.209121857139507e-12
    vertex 2169.6020231753228 2426.8258733307807 3.1950220247267677e-12
  endloop
endfacet
facet normal -1.2031856992204201e-14 -2.419164983623853e-42 -1.0
  outer loop
    vertex 2169.284185930127 2407.1150868931536 3.027234019015168e-12
    vertex 2169.6020231753228 2426.8258733307807 3.1950220247267677e-12
    vertex 2169.6020231753228 2407.529300455527 3.0371039017040856e-12
  endloop
endfacet
facet normal -1.2031856992204201e-14 -2.419164983623853e-42 -1.0
  outer loop
    vertex 2169.6020231753228 2407.529300455527 3.0371039017040856e-12
    vertex 2169.6020231753228 2426.8258733307807 3.1950220247267677e-12
    vertex 2170.016236737696 2426.508036085585 3.1837421587965762e-12
  endloop
endfacet
facet normal -1.2031856992204201e-14 -2.419164983623853e-42 -1.0
  outer loop
    vertex 2169.6020231753228 2407.529300455527 3.0371039017040856e-12
    vertex 2170.016236737696 2426.508036085585 3.1837421587965762e-12
    vertex 2170.0162367376956 2407.8471377007227 3.0427438346691814e-12
  endloop
endfacet
facet normal -1.2031856992204201e-14 -2.419164983623853e-42 -1.0
  outer loop
    vertex 2170.0162367376956 2407.8471377007227 3.0427438346691814e-12
    vertex 2170.016236737696 2426.508036085585 3.1837421587965762e-12
    vertex 2170.498598647491 2408.046938545732 3.0455638011517294e-12
  endloop
endfacet
facet normal -1.2031856992204201e-14 -2.419164983623853e-42 -1.0
  outer loop
    vertex 2170.498598647491 2408.046938545732 3.0455638011517294e-12
    vertex 2170.016236737696 2426.508036085585 3.1837421587965762e-12
    vertex 2170.498598647491 2426.308235240576 3.1752822593489325e-12
  endloop
endfacet
facet normal -1.2031856992204201e-14 -2.419164983623853e-42 -1.0
  outer loop
    vertex 2170.498598647491 2408.046938545732 3.0455638011517294e-12
    vertex 2170.498598647491 2426.308235240576 3.1752822593489325e-12
    vertex 2171.0162367376956 2426.240086893154 3.1710523096251108e-12
  endloop
endfacet
facet normal -1.2031856992204201e-14 -2.419164983623853e-42 -1.0
  outer loop
    vertex 2170.498598647491 2408.046938545732 3.0455638011517294e-12
    vertex 2171.0162367376956 2426.240086893154 3.1710523096251108e-12
    vertex 2171.0162367376956 2408.115086893154 3.0441538179104554e-12
  endloop
endfacet
facet normal -1.2031856992204201e-14 -2.419164983623853e-42 -1.0
  outer loop
    vertex 2171.0162367376956 2408.115086893154 3.0441538179104554e-12
    vertex 2171.0162367376956 2426.240086893154 3.1710523096251108e-12
    vertex 2171.533874827901 2426.308235240576 3.1696423263838368e-12
  endloop
endfacet
facet normal -1.2031856992204201e-14 -2.419164983623853e-42 -1.0
  outer loop
    vertex 2171.0162367376956 2408.115086893154 3.0441538179104554e-12
    vertex 2171.533874827901 2426.308235240576 3.1696423263838368e-12
    vertex 2171.533874827901 2408.046938545732 3.0399238681866333e-12
  endloop
endfacet
facet normal -1.2031856992204201e-14 -2.419164983623853e-42 -1.0
  outer loop
    vertex 2171.533874827901 2408.046938545732 3.0399238681866333e-12
    vertex 2171.533874827901 2426.308235240576 3.1696423263838368e-12
    vertex 2172.016236737696 2426.508036085585 3.172462292866385e-12
  endloop
endfacet
facet normal -1.2031856992204201e-14 -2.419164983623853e-42 -1.0
  outer loop
    vertex 2171.533874827901 2408.046938545732 3.0399238681866333e-12
    vertex 2172.016236737696 2426.508036085585 3.172462292866385e-12
    vertex 2172.0162367376956 2407.8471377007227 3.03146396873899e-12
  endloop
endfacet
facet normal -1.2031856992204201e-14 -2.419164983623853e-42 -1.0
  outer loop
    vertex 2172.0162367376956 2407.8471377007227 3.03146396873899e-12
    vertex 2172.016236737696 2426.508036085585 3.172462292866385e-12
    vertex 2172.430450300069 2407.529300455527 3.020184102808798e-12
  endloop
endfacet
facet normal -1.2031856992204201e-14 -2.419164983623853e-42 -1.0
  outer loop
    vertex 2172.430450300069 2407.529300455527 3.020184102808798e-12
    vertex 2172.016236737696 2426.508036085585 3.172462292866385e-12
    vertex 2172.430450300069 2426.8258733307807 3.1781022258314805e-12
  endloop
endfacet
facet normal -1.2031856992204201e-14 -2.419164983623853e-42 -1.0
  outer loop
    vertex 2172.430450300069 2407.529300455527 3.020184102808798e-12
    vertex 2172.430450300069 2426.8258733307807 3.1781022258314805e-12
    vertex 2172.7482875452647 2427.240086893154 3.187972108520398e-12
  endloop
endfacet
facet normal -1.2031856992204201e-14 -2.419164983623853e-42 -1.0
  outer loop
    vertex 2172.430450300069 2407.529300455527 3.020184102808798e-12
    vertex 2172.7482875452647 2427.240086893154 3.187972108520398e-12
    vertex 2172.7482875452647 2407.115086893154 3.0060842703960586e-12
  endloop
endfacet
facet normal -1.2031856992204201e-14 -2.419164983623853e-42 -1.0
  outer loop
    vertex 2172.7482875452647 2407.115086893154 3.0060842703960586e-12
    vertex 2172.7482875452647 2427.240086893154 3.187972108520398e-12
    vertex 2172.948088390274 2427.7224488029487 3.2006619576918638e-12
  endloop
endfacet
facet normal -1.2031856992204201e-14 -2.419164983623853e-42 -1.0
  outer loop
    vertex 2172.7482875452647 2407.115086893154 3.0060842703960586e-12
    vertex 2172.948088390274 2427.7224488029487 3.2006619576918638e-12
    vertex 2172.948088390274 2406.632724983359 2.991984437983319e-12
  endloop
endfacet
facet normal -1.2031856992204201e-14 -2.419164983623853e-42 -1.0
  outer loop
    vertex 2172.948088390274 2406.632724983359 2.991984437983319e-12
    vertex 2172.948088390274 2427.7224488029487 3.2006619576918638e-12
    vertex 2173.0162367376956 2428.240086893154 3.2133518068633292e-12
  endloop
endfacet
facet normal -1.2031856992204201e-14 -2.419164983623853e-42 -1.0
  outer loop
    vertex 2172.948088390274 2406.632724983359 2.991984437983319e-12
    vertex 2173.0162367376956 2428.240086893154 3.2133518068633292e-12
    vertex 2173.0162367376956 2406.115086893154 2.9778846055705796e-12
  endloop
endfacet
facet normal 1.0 -0.0 -0.0
  outer loop
    vertex 2178.516236737696 2435.1775868931545 2.887645678129047e-12
    vertex 2178.516236737696 2399.1775868931545 3.000000000002888
    vertex 2178.516236737696 2399.1775868931545 2.887645678129047e-12
  endloop
endfacet
facet normal 1.0 -0.0 -0.0
  outer loop
    vertex 2178.516236737696 2399.1775868931545 3.000000000002888
    vertex 2178.516236737696 2435.1775868931545 2.887645678129047e-12
    vertex 2178.516236737696 2411.9619975456435 3.000000000002673
  endloop
endfacet
facet normal 1.0 -0.0 -0.0
  outer loop
    vertex 2178.516236737696 2411.9619975456435 3.000000000002673
    vertex 2178.516236737696 2435.1775868931545 2.887645678129047e-12
    vertex 2178.516236737696 2413.0525868931545 3.0000000000026454
  endloop
endfacet
facet normal 1.0 -0.0 -0.0
  outer loop
    vertex 2178.516236737696 2413.0525868931545 3.0000000000026454
    vertex 2178.516236737696 2435.1775868931545 2.887645678129047e-12
    vertex 2178.516236737696 2421.3025868931545 3.0000000000026454
  endloop
endfacet
facet normal 1.0 -0.0 -0.0
  outer loop
    vertex 2178.516236737696 2421.3025868931545 3.0000000000026454
    vertex 2178.516236737696 2435.1775868931545 2.887645678129047e-12
    vertex 2178.516236737696 2422.3931762406655 3.0000000000026814
  endloop
endfacet
facet normal 1.0 -0.0 -0.0
  outer loop
    vertex 2178.516236737696 2422.3931762406655 3.0000000000026814
    vertex 2178.516236737696 2435.1775868931545 2.887645678129047e-12
    vertex 2178.516236737696 2435.1775868931545 3.000000000002888
  endloop
endfacet
endsolid HexPillowBlock
