solid Untitled-58866e44
facet normal 0.0 0.0 -1.0
  outer loop
    vertex 10067.191820477145 35505.609966961805 0.0
    vertex 6067.191820477131 35505.609966961805 0.0
    vertex 7067.191820477135 38005.609966961805 0.0
  endloop
endfacet
facet normal 0.6401843996644782 0.7682212795973773 -0.0
  outer loop
    vertex 7067.191820477135 38005.609966961805 3000.0
    vertex 10067.191820477145 35505.609966961805 0.0
    vertex 7067.191820477135 38005.609966961805 0.0
  endloop
endfacet
facet normal 0.6401843996644782 0.7682212795973773 -0.0
  outer loop
    vertex 10067.191820477145 35505.609966961805 0.0
    vertex 7067.191820477135 38005.609966961805 3000.0
    vertex 10067.191820477145 35505.609966961805 3000.0
  endloop
endfacet
facet normal -0.9284766908852587 0.3713906763541052 0.0
  outer loop
    vertex 7067.191820477135 38005.609966961805 3000.0
    vertex 6067.191820477131 35505.609966961805 0.0
    vertex 6067.191820477131 35505.609966961805 3000.0
  endloop
endfacet
facet normal -0.9284766908852587 0.3713906763541052 0.0
  outer loop
    vertex 6067.191820477131 35505.609966961805 0.0
    vertex 7067.191820477135 38005.609966961805 3000.0
    vertex 7067.191820477135 38005.609966961805 0.0
  endloop
endfacet
facet normal -5.26736480497907e-18 -3.570257607147503e-18 1.0
  outer loop
    vertex 14067.19182047713 16005.609966961803 2999.9999999999986
    vertex 10067.19182047713 22005.609966961805 3000.0
    vertex 10067.19182047713 16005.609966961803 2999.9999999999986
  endloop
endfacet
facet normal -5.26736480497907e-18 -3.570257607147503e-18 1.0
  outer loop
    vertex 10067.19182047713 22005.609966961805 3000.0
    vertex 14067.19182047713 16005.609966961803 2999.9999999999986
    vertex 10067.191820477145 27005.609966961805 2999.9999999999986
  endloop
endfacet
facet normal -5.26736480497907e-18 -3.570257607147503e-18 1.0
  outer loop
    vertex 10067.191820477145 27005.609966961805 2999.9999999999986
    vertex 14067.19182047713 16005.609966961803 2999.9999999999986
    vertex 14067.19182047713 27005.609966961805 2999.9999999999986
  endloop
endfacet
facet normal -5.26736480497907e-18 -3.570257607147503e-18 1.0
  outer loop
    vertex 14067.19182047713 27005.609966961805 2999.9999999999986
    vertex 14067.19182047713 16005.609966961803 2999.9999999999986
    vertex 14067.19182047713 19505.6099669618 3000.0
  endloop
endfacet
facet normal -5.26736480497907e-18 -3.570257607147503e-18 1.0
  outer loop
    vertex 16717.191820477132 8505.609966961802 3000.0
    vertex 14067.19182047713 16005.609966961803 2999.9999999999986
    vertex 14067.19182047713 11005.609966961802 3000.0
  endloop
endfacet
facet normal -5.26736480497907e-18 -3.570257607147503e-18 1.0
  outer loop
    vertex 14067.19182047713 16005.609966961803 2999.9999999999986
    vertex 16717.191820477132 8505.609966961802 3000.0
    vertex 14067.19182047713 19505.6099669618 3000.0
  endloop
endfacet
facet normal -5.26736480497907e-18 -3.570257607147503e-18 1.0
  outer loop
    vertex 14067.19182047713 19505.6099669618 3000.0
    vertex 16717.191820477132 8505.609966961802 3000.0
    vertex 18067.191820477132 19505.6099669618 3000.0
  endloop
endfacet
facet normal -5.26736480497907e-18 -3.570257607147503e-18 1.0
  outer loop
    vertex 18067.191820477132 19505.6099669618 3000.0
    vertex 16717.191820477132 8505.609966961802 3000.0
    vertex 18067.191820477132 11005.609966961802 3000.0
  endloop
endfacet
facet normal -5.26736480497907e-18 -3.570257607147503e-18 1.0
  outer loop
    vertex 10067.19182047713 22005.609966961805 3000.0
    vertex 6067.191820477131 35505.609966961805 3000.0
    vertex 6067.191820477131 22005.609966961805 3000.0
  endloop
endfacet
facet normal -5.26736480497907e-18 -3.570257607147503e-18 1.0
  outer loop
    vertex 6067.191820477131 35505.609966961805 3000.0
    vertex 10067.19182047713 22005.609966961805 3000.0
    vertex 7067.191820477135 38005.609966961805 3000.0
  endloop
endfacet
facet normal -5.26736480497907e-18 -3.570257607147503e-18 1.0
  outer loop
    vertex 7067.191820477135 38005.609966961805 3000.0
    vertex 10067.19182047713 22005.609966961805 3000.0
    vertex 10067.191820477145 35505.609966961805 3000.0
  endloop
endfacet
facet normal -5.26736480497907e-18 -3.570257607147503e-18 1.0
  outer loop
    vertex 10067.191820477145 35505.609966961805 3000.0
    vertex 10067.19182047713 22005.609966961805 3000.0
    vertex 10067.191820477145 27005.609966961805 2999.9999999999986
  endloop
endfacet
facet normal -0.0 1.0 -0.0
  outer loop
    vertex 10067.191820477145 27005.609966961805 2999.9999999999986
    vertex 14067.19182047713 27005.609966961805 0.0
    vertex 10067.191820477145 27005.609966961805 0.0
  endloop
endfacet
facet normal -0.0 1.0 -0.0
  outer loop
    vertex 14067.19182047713 27005.609966961805 0.0
    vertex 10067.191820477145 27005.609966961805 2999.9999999999986
    vertex 14067.19182047713 27005.609966961805 2999.9999999999986
  endloop
endfacet
facet normal 1.0 0.0 0.0
  outer loop
    vertex 14067.19182047713 27005.609966961805 0.0
    vertex 14067.19182047713 19505.6099669618 3000.0
    vertex 14067.19182047713 19505.6099669618 0.0
  endloop
endfacet
facet normal 1.0 0.0 0.0
  outer loop
    vertex 14067.19182047713 19505.6099669618 3000.0
    vertex 14067.19182047713 27005.609966961805 0.0
    vertex 14067.19182047713 27005.609966961805 2999.9999999999986
  endloop
endfacet
facet normal 0.0 -1.0 0.0
  outer loop
    vertex 14067.19182047713 16005.609966961803 2999.9999999999986
    vertex 10067.19182047713 16005.609966961803 0.0
    vertex 14067.19182047713 16005.609966961803 0.0
  endloop
endfacet
facet normal 0.0 -1.0 0.0
  outer loop
    vertex 10067.19182047713 16005.609966961803 0.0
    vertex 14067.19182047713 16005.609966961803 2999.9999999999986
    vertex 10067.19182047713 16005.609966961803 2999.9999999999986
  endloop
endfacet
facet normal 0.0 -1.0 0.0
  outer loop
    vertex 10067.19182047713 22005.609966961805 3000.0
    vertex 6067.191820477131 22005.609966961805 0.0
    vertex 10067.19182047713 22005.609966961805 0.0
  endloop
endfacet
facet normal 0.0 -1.0 0.0
  outer loop
    vertex 6067.191820477131 22005.609966961805 0.0
    vertex 10067.19182047713 22005.609966961805 3000.0
    vertex 6067.191820477131 22005.609966961805 3000.0
  endloop
endfacet
facet normal -1.0 0.0 0.0
  outer loop
    vertex 10067.19182047713 22005.609966961805 3000.0
    vertex 10067.19182047713 16005.609966961803 0.0
    vertex 10067.19182047713 16005.609966961803 2999.9999999999986
  endloop
endfacet
facet normal -1.0 0.0 0.0
  outer loop
    vertex 10067.19182047713 16005.609966961803 0.0
    vertex 10067.19182047713 22005.609966961805 3000.0
    vertex 10067.19182047713 22005.609966961805 0.0
  endloop
endfacet
facet normal -1.0 0.0 0.0
  outer loop
    vertex 6067.191820477131 35505.609966961805 3000.0
    vertex 6067.191820477131 22005.609966961805 0.0
    vertex 6067.191820477131 22005.609966961805 3000.0
  endloop
endfacet
facet normal -1.0 0.0 0.0
  outer loop
    vertex 6067.191820477131 22005.609966961805 0.0
    vertex 6067.191820477131 35505.609966961805 3000.0
    vertex 6067.191820477131 35505.609966961805 0.0
  endloop
endfacet
facet normal 1.0 -0.0 -0.0
  outer loop
    vertex 10067.191820477145 35505.609966961805 0.0
    vertex 10067.191820477145 27005.609966961805 2999.9999999999986
    vertex 10067.191820477145 27005.609966961805 0.0
  endloop
endfacet
facet normal 1.0 -0.0 -0.0
  outer loop
    vertex 10067.191820477145 27005.609966961805 2999.9999999999986
    vertex 10067.191820477145 35505.609966961805 0.0
    vertex 10067.191820477145 35505.609966961805 3000.0
  endloop
endfacet
facet normal 0.8799053976571928 -0.4751489147348837 -0.0
  outer loop
    vertex 18067.191820477132 11005.609966961802 0.0
    vertex 16717.191820477132 8505.609966961802 3000.0
    vertex 16717.191820477132 8505.609966961802 0.0
  endloop
endfacet
facet normal 0.8799053976571928 -0.4751489147348837 -0.0
  outer loop
    vertex 16717.191820477132 8505.609966961802 3000.0
    vertex 18067.191820477132 11005.609966961802 0.0
    vertex 18067.191820477132 11005.609966961802 3000.0
  endloop
endfacet
facet normal -0.6862204268957193 -0.7273936525094626 0.0
  outer loop
    vertex 16717.191820477132 8505.609966961802 3000.0
    vertex 14067.19182047713 11005.609966961802 0.0
    vertex 16717.191820477132 8505.609966961802 0.0
  endloop
endfacet
facet normal -0.6862204268957193 -0.7273936525094626 0.0
  outer loop
    vertex 14067.19182047713 11005.609966961802 0.0
    vertex 16717.191820477132 8505.609966961802 3000.0
    vertex 14067.19182047713 11005.609966961802 3000.0
  endloop
endfacet
facet normal 0.0 0.0 -1.0
  outer loop
    vertex 10067.191820477145 35505.609966961805 0.0
    vertex 6067.191820477131 22005.609966961805 0.0
    vertex 6067.191820477131 35505.609966961805 0.0
  endloop
endfacet
facet normal 0.0 0.0 -1.0
  outer loop
    vertex 6067.191820477131 22005.609966961805 0.0
    vertex 10067.191820477145 35505.609966961805 0.0
    vertex 10067.19182047713 22005.609966961805 0.0
  endloop
endfacet
facet normal 0.0 0.0 -1.0
  outer loop
    vertex 10067.19182047713 22005.609966961805 0.0
    vertex 10067.191820477145 35505.609966961805 0.0
    vertex 10067.19182047713 16005.609966961803 0.0
  endloop
endfacet
facet normal 0.0 0.0 -1.0
  outer loop
    vertex 10067.19182047713 16005.609966961803 0.0
    vertex 10067.191820477145 35505.609966961805 0.0
    vertex 10067.191820477145 27005.609966961805 0.0
  endloop
endfacet
facet normal 0.0 0.0 -1.0
  outer loop
    vertex 10067.19182047713 16005.609966961803 0.0
    vertex 10067.191820477145 27005.609966961805 0.0
    vertex 14067.19182047713 16005.609966961803 0.0
  endloop
endfacet
facet normal 0.0 0.0 -1.0
  outer loop
    vertex 14067.19182047713 16005.609966961803 0.0
    vertex 10067.191820477145 27005.609966961805 0.0
    vertex 14067.19182047713 27005.609966961805 0.0
  endloop
endfacet
facet normal 0.0 0.0 -1.0
  outer loop
    vertex 14067.19182047713 16005.609966961803 0.0
    vertex 14067.19182047713 27005.609966961805 0.0
    vertex 14067.19182047713 19505.6099669618 0.0
  endloop
endfacet
facet normal 0.0 0.0 -1.0
  outer loop
    vertex 14067.19182047713 16005.609966961803 0.0
    vertex 14067.19182047713 19505.6099669618 0.0
    vertex 18067.191820477132 19505.6099669618 0.0
  endloop
endfacet
facet normal 0.0 0.0 -1.0
  outer loop
    vertex 14067.19182047713 16005.609966961803 0.0
    vertex 18067.191820477132 19505.6099669618 0.0
    vertex 14067.19182047713 11005.609966961802 0.0
  endloop
endfacet
facet normal 0.0 0.0 -1.0
  outer loop
    vertex 14067.19182047713 11005.609966961802 0.0
    vertex 18067.191820477132 19505.6099669618 0.0
    vertex 16717.191820477132 8505.609966961802 0.0
  endloop
endfacet
facet normal 0.0 0.0 -1.0
  outer loop
    vertex 16717.191820477132 8505.609966961802 0.0
    vertex 18067.191820477132 19505.6099669618 0.0
    vertex 18067.191820477132 11005.609966961802 0.0
  endloop
endfacet
facet normal -1.0 0.0 0.0
  outer loop
    vertex 14067.19182047713 16005.609966961803 2999.9999999999986
    vertex 14067.19182047713 11005.609966961802 0.0
    vertex 14067.19182047713 11005.609966961802 3000.0
  endloop
endfacet
facet normal -1.0 0.0 0.0
  outer loop
    vertex 14067.19182047713 11005.609966961802 0.0
    vertex 14067.19182047713 16005.609966961803 2999.9999999999986
    vertex 14067.19182047713 16005.609966961803 0.0
  endloop
endfacet
facet normal -0.0 1.0 -0.0
  outer loop
    vertex 14067.19182047713 19505.6099669618 3000.0
    vertex 18067.191820477132 19505.6099669618 0.0
    vertex 14067.19182047713 19505.6099669618 0.0
  endloop
endfacet
facet normal -0.0 1.0 -0.0
  outer loop
    vertex 18067.191820477132 19505.6099669618 0.0
    vertex 14067.19182047713 19505.6099669618 3000.0
    vertex 18067.191820477132 19505.6099669618 3000.0
  endloop
endfacet
facet normal 1.0 -0.0 -0.0
  outer loop
    vertex 18067.191820477132 19505.6099669618 0.0
    vertex 18067.191820477132 11005.609966961802 3000.0
    vertex 18067.191820477132 11005.609966961802 0.0
  endloop
endfacet
facet normal 1.0 -0.0 -0.0
  outer loop
    vertex 18067.191820477132 11005.609966961802 3000.0
    vertex 18067.191820477132 19505.6099669618 0.0
    vertex 18067.191820477132 19505.6099669618 3000.0
  endloop
endfacet
endsolid Untitled-58866e44
