solid LinkagePVCSlide
facet normal 0.7933533402912342 0.608761429008722 1.689480696140805e-32
  outer loop
    vertex 56624.854806696705 56689.360229496575 2997.000000000002
    vertex 59207.28242391244 53323.87503521519 22997.000000000004
    vertex 59207.28242391244 53323.87503521519 2997.000000000002
  endloop
endfacet
facet normal 0.7933533402912342 0.608761429008722 1.689480696140805e-32
  outer loop
    vertex 59207.28242391244 53323.87503521519 22997.000000000004
    vertex 56624.854806696705 56689.360229496575 2997.000000000002
    vertex 56624.854806696705 56689.360229496575 22997.000000000004
  endloop
endfacet
facet normal 0.6087614290087223 0.7933533402912338 1.3637848932291636e-32
  outer loop
    vertex 53259.36961241531 59271.78784671232 22997.000000000004
    vertex 56624.854806696705 56689.360229496575 2997.000000000002
    vertex 53259.36961241531 59271.78784671232 2997.000000000002
  endloop
endfacet
facet normal 0.6087614290087223 0.7933533402912338 1.3637848932291636e-32
  outer loop
    vertex 56624.854806696705 56689.360229496575 2997.000000000002
    vertex 53259.36961241531 59271.78784671232 22997.000000000004
    vertex 56624.854806696705 56689.360229496575 22997.000000000004
  endloop
endfacet
facet normal -0.13052619222005077 -0.9914448613738106 -4.621035440584837e-33
  outer loop
    vertex 45134.369612415314 28948.875035215184 22997.000000000004
    vertex 40928.56012949936 29502.580358017818 2997.000000000002
    vertex 45134.369612415314 28948.875035215184 2997.000000000002
  endloop
endfacet
facet normal -0.13052619222005077 -0.9914448613738106 -4.621035440584837e-33
  outer loop
    vertex 40928.56012949936 29502.580358017818 2997.000000000002
    vertex 45134.369612415314 28948.875035215184 22997.000000000004
    vertex 40928.56012949936 29502.580358017818 22997.000000000004
  endloop
endfacet
facet normal 0.9238795325112861 0.3826834323650916 1.900041181609316e-32
  outer loop
    vertex 59207.28242391244 53323.87503521519 2997.000000000002
    vertex 60830.66428961267 49404.68451813116 22997.000000000004
    vertex 60830.66428961267 49404.68451813116 2997.000000000002
  endloop
endfacet
facet normal 0.9238795325112861 0.3826834323650916 1.900041181609316e-32
  outer loop
    vertex 60830.66428961267 49404.68451813116 22997.000000000004
    vertex 59207.28242391244 53323.87503521519 2997.000000000002
    vertex 59207.28242391244 53323.87503521519 22997.000000000004
  endloop
endfacet
facet normal 0.38268343236508995 -0.9238795325112866 5.633980765622208e-33
  outer loop
    vertex 53259.369612415314 31125.962223718056 22997.000000000004
    vertex 49340.17909533128 29502.580358017825 2997.000000000002
    vertex 53259.369612415314 31125.962223718056 2997.000000000002
  endloop
endfacet
facet normal 0.38268343236508995 -0.9238795325112866 5.633980765622208e-33
  outer loop
    vertex 49340.17909533128 29502.580358017825 2997.000000000002
    vertex 53259.369612415314 31125.962223718056 22997.000000000004
    vertex 49340.17909533128 29502.580358017825 22997.000000000004
  endloop
endfacet
facet normal -0.7933533402912358 0.6087614290087199 -1.4379376375508332e-32
  outer loop
    vertex 57475.23161634356 38073.875035215184 22997.000000000004
    vertex 55210.64124432362 35122.603403306886 2997.000000000002
    vertex 55210.64124432362 35122.603403306886 22997.000000000004
  endloop
endfacet
facet normal -0.7933533402912358 0.6087614290087199 -1.4379376375508332e-32
  outer loop
    vertex 55210.64124432362 35122.603403306886 2997.000000000002
    vertex 57475.23161634356 38073.875035215184 22997.000000000004
    vertex 57475.23161634356 38073.875035215184 2997.000000000002
  endloop
endfacet
facet normal 0.13052619222005193 -0.9914448613738105 5.2433908353446565e-34
  outer loop
    vertex 49340.17909533128 29502.580358017825 22997.000000000004
    vertex 45134.369612415314 28948.875035215184 2997.000000000002
    vertex 49340.17909533128 29502.580358017825 2997.000000000002
  endloop
endfacet
facet normal 0.13052619222005193 -0.9914448613738105 5.2433908353446565e-34
  outer loop
    vertex 45134.369612415314 28948.875035215184 2997.000000000002
    vertex 49340.17909533128 29502.580358017825 22997.000000000004
    vertex 45134.369612415314 28948.875035215184 22997.000000000004
  endloop
endfacet
facet normal 0.9914448613738106 0.1305261922200502 1.9811170005176678e-32
  outer loop
    vertex 60830.66428961267 49404.68451813116 2997.000000000002
    vertex 61384.369612415314 45198.875035215184 22997.000000000004
    vertex 61384.369612415314 45198.875035215184 2997.000000000002
  endloop
endfacet
facet normal 0.9914448613738106 0.1305261922200502 1.9811170005176678e-32
  outer loop
    vertex 61384.369612415314 45198.875035215184 22997.000000000004
    vertex 60830.66428961267 49404.68451813116 2997.000000000002
    vertex 60830.66428961267 49404.68451813116 22997.000000000004
  endloop
endfacet
facet normal 0.7933533402912352 0.6087614290087205 1.6894806961408062e-32
  outer loop
    vertex 32793.507608487074 38073.875035215184 2997.000000000002
    vertex 35058.09798050702 35122.603403306886 22997.000000000004
    vertex 35058.09798050702 35122.603403306886 2997.000000000002
  endloop
endfacet
facet normal 0.7933533402912352 0.6087614290087205 1.6894806961408062e-32
  outer loop
    vertex 35058.09798050702 35122.603403306886 22997.000000000004
    vertex 32793.507608487074 38073.875035215184 2997.000000000002
    vertex 32793.507608487074 38073.875035215184 22997.000000000004
  endloop
endfacet
facet normal -0.13052619222005002 -0.9914448613738106 -4.6210354405848236e-33
  outer loop
    vertex 48822.54100512623 58963.318059834404 22997.000000000004
    vertex 45134.369612415314 59448.87503521518 2997.000000000002
    vertex 48822.54100512623 58963.318059834404 2997.000000000002
  endloop
endfacet
facet normal -0.13052619222005002 -0.9914448613738106 -4.6210354405848236e-33
  outer loop
    vertex 45134.369612415314 59448.87503521518 2997.000000000002
    vertex 48822.54100512623 58963.318059834404 22997.000000000004
    vertex 45134.369612415314 59448.87503521518 22997.000000000004
  endloop
endfacet
facet normal 0.6087614290087209 0.7933533402912352 1.3637848932291609e-32
  outer loop
    vertex 35058.09798050702 35122.603403306886 22997.000000000004
    vertex 38009.36961241532 32858.01303128693 2997.000000000002
    vertex 35058.09798050702 35122.603403306886 2997.000000000002
  endloop
endfacet
facet normal 0.6087614290087209 0.7933533402912352 1.3637848932291609e-32
  outer loop
    vertex 38009.36961241532 32858.01303128693 2997.000000000002
    vertex 35058.09798050702 35122.603403306886 22997.000000000004
    vertex 38009.36961241532 32858.01303128693 22997.000000000004
  endloop
endfacet
facet normal 0.9914448613738105 -0.13052619222005057 1.9271829697913812e-32
  outer loop
    vertex 61384.369612415314 45198.875035215184 2997.000000000002
    vertex 60830.66428961267 40993.06555229922 22997.000000000004
    vertex 60830.66428961267 40993.06555229922 2997.000000000002
  endloop
endfacet
facet normal 0.9914448613738105 -0.13052619222005057 1.9271829697913812e-32
  outer loop
    vertex 60830.66428961267 40993.06555229922 22997.000000000004
    vertex 61384.369612415314 45198.875035215184 2997.000000000002
    vertex 61384.369612415314 45198.875035215184 22997.000000000004
  endloop
endfacet
facet normal 0.7933533402912358 -0.6087614290087199 1.4379376375508332e-32
  outer loop
    vertex 35058.09798050701 55275.14666712348 2997.000000000002
    vertex 32793.50760848707 52323.87503521518 22997.000000000004
    vertex 32793.50760848707 52323.87503521518 2997.000000000002
  endloop
endfacet
facet normal 0.7933533402912358 -0.6087614290087199 1.4379376375508332e-32
  outer loop
    vertex 32793.50760848707 52323.87503521518 22997.000000000004
    vertex 35058.09798050701 55275.14666712348 2997.000000000002
    vertex 35058.09798050701 55275.14666712348 22997.000000000004
  endloop
endfacet
facet normal 0.3826834323650899 -0.9238795325112866 5.633980765622208e-33
  outer loop
    vertex 41446.19821970438 58963.318059834404 22997.000000000004
    vertex 38009.36961241531 57539.73703914344 2997.000000000002
    vertex 41446.19821970438 58963.318059834404 2997.000000000002
  endloop
endfacet
facet normal 0.3826834323650899 -0.9238795325112866 5.633980765622208e-33
  outer loop
    vertex 38009.36961241531 57539.73703914344 2997.000000000002
    vertex 41446.19821970438 58963.318059834404 22997.000000000004
    vertex 38009.36961241531 57539.73703914344 22997.000000000004
  endloop
endfacet
facet normal 0.7933533402912348 -0.6087614290087213 1.4379376375508308e-32
  outer loop
    vertex 59207.282423912446 37073.875035215184 2997.000000000002
    vertex 56624.85480669672 33708.38984093379 22997.000000000004
    vertex 56624.85480669672 33708.38984093379 2997.000000000002
  endloop
endfacet
facet normal 0.7933533402912348 -0.6087614290087213 1.4379376375508308e-32
  outer loop
    vertex 56624.85480669672 33708.38984093379 22997.000000000004
    vertex 59207.282423912446 37073.875035215184 2997.000000000002
    vertex 59207.282423912446 37073.875035215184 22997.000000000004
  endloop
endfacet
facet normal 0.9238795325112866 -0.3826834323650899 1.741914604494252e-32
  outer loop
    vertex 32793.50760848707 52323.87503521518 2997.000000000002
    vertex 31369.926587796093 48887.0464279261 22997.000000000004
    vertex 31369.926587796093 48887.0464279261 2997.000000000002
  endloop
endfacet
facet normal 0.9238795325112866 -0.3826834323650899 1.741914604494252e-32
  outer loop
    vertex 31369.926587796093 48887.0464279261 22997.000000000004
    vertex 32793.50760848707 52323.87503521518 2997.000000000002
    vertex 32793.50760848707 52323.87503521518 22997.000000000004
  endloop
endfacet
facet normal 0.9238795325112873 -0.38268343236508884 1.7419146044942534e-32
  outer loop
    vertex 60830.66428961267 40993.06555229922 2997.000000000002
    vertex 59207.282423912446 37073.875035215184 22997.000000000004
    vertex 59207.282423912446 37073.875035215184 2997.000000000002
  endloop
endfacet
facet normal 0.9238795325112873 -0.38268343236508884 1.7419146044942534e-32
  outer loop
    vertex 59207.282423912446 37073.875035215184 22997.000000000004
    vertex 60830.66428961267 40993.06555229922 2997.000000000002
    vertex 60830.66428961267 40993.06555229922 22997.000000000004
  endloop
endfacet
facet normal -0.3826834323650899 0.9238795325112866 -5.633980765622208e-33
  outer loop
    vertex 48822.54100512624 31434.43201059596 22997.000000000004
    vertex 52259.369612415314 32858.01303128693 2997.000000000002
    vertex 48822.54100512624 31434.43201059596 2997.000000000002
  endloop
endfacet
facet normal -0.3826834323650899 0.9238795325112866 -5.633980765622208e-33
  outer loop
    vertex 52259.369612415314 32858.01303128693 2997.000000000002
    vertex 48822.54100512624 31434.43201059596 22997.000000000004
    vertex 52259.369612415314 32858.01303128693 22997.000000000004
  endloop
endfacet
facet normal 0.3826834323650894 0.923879532511287 9.451494036050439e-33
  outer loop
    vertex 38009.36961241532 32858.01303128693 22997.000000000004
    vertex 41446.1982197044 31434.43201059596 2997.000000000002
    vertex 38009.36961241532 32858.01303128693 2997.000000000002
  endloop
endfacet
facet normal 0.3826834323650894 0.923879532511287 9.451494036050439e-33
  outer loop
    vertex 41446.1982197044 31434.43201059596 2997.000000000002
    vertex 38009.36961241532 32858.01303128693 22997.000000000004
    vertex 41446.1982197044 31434.43201059596 22997.000000000004
  endloop
endfacet
facet normal -0.3826834323650905 -0.9238795325112865 -9.45149403605046e-33
  outer loop
    vertex 52259.3696124153 57539.73703914344 22997.000000000004
    vertex 48822.54100512623 58963.318059834404 2997.000000000002
    vertex 52259.3696124153 57539.73703914344 2997.000000000002
  endloop
endfacet
facet normal -0.3826834323650905 -0.9238795325112865 -9.45149403605046e-33
  outer loop
    vertex 48822.54100512623 58963.318059834404 2997.000000000002
    vertex 52259.3696124153 57539.73703914344 22997.000000000004
    vertex 48822.54100512623 58963.318059834404 22997.000000000004
  endloop
endfacet
facet normal 0.13052619222005157 0.9914448613738104 4.621035440584853e-33
  outer loop
    vertex 41446.1982197044 31434.43201059596 22997.000000000004
    vertex 45134.369612415314 30948.875035215184 2997.000000000002
    vertex 41446.1982197044 31434.43201059596 2997.000000000002
  endloop
endfacet
facet normal 0.13052619222005157 0.9914448613738104 4.621035440584853e-33
  outer loop
    vertex 45134.369612415314 30948.875035215184 2997.000000000002
    vertex 41446.1982197044 31434.43201059596 22997.000000000004
    vertex 45134.369612415314 30948.875035215184 22997.000000000004
  endloop
endfacet
facet normal 0.9914448613738104 -0.13052619222005157 1.927182969791381e-32
  outer loop
    vertex 31369.926587796093 48887.0464279261 2997.000000000002
    vertex 30884.369612415318 45198.875035215184 22997.000000000004
    vertex 30884.369612415318 45198.875035215184 2997.000000000002
  endloop
endfacet
facet normal 0.9914448613738104 -0.13052619222005157 1.927182969791381e-32
  outer loop
    vertex 30884.369612415318 45198.875035215184 22997.000000000004
    vertex 31369.926587796093 48887.0464279261 2997.000000000002
    vertex 31369.926587796093 48887.0464279261 22997.000000000004
  endloop
endfacet
facet normal -0.6087614290087209 0.7933533402912352 -1.0359675969126236e-32
  outer loop
    vertex 52259.369612415314 32858.01303128693 22997.000000000004
    vertex 55210.64124432362 35122.603403306886 2997.000000000002
    vertex 52259.369612415314 32858.01303128693 2997.000000000002
  endloop
endfacet
facet normal -0.6087614290087209 0.7933533402912352 -1.0359675969126236e-32
  outer loop
    vertex 55210.64124432362 35122.603403306886 2997.000000000002
    vertex 52259.369612415314 32858.01303128693 22997.000000000004
    vertex 55210.64124432362 35122.603403306886 22997.000000000004
  endloop
endfacet
facet normal 0.923879532511287 0.3826834323650894 1.900041181609317e-32
  outer loop
    vertex 31369.9265877961 41510.70364250426 2997.000000000002
    vertex 32793.507608487074 38073.875035215184 22997.000000000004
    vertex 32793.507608487074 38073.875035215184 2997.000000000002
  endloop
endfacet
facet normal 0.923879532511287 0.3826834323650894 1.900041181609317e-32
  outer loop
    vertex 32793.507608487074 38073.875035215184 22997.000000000004
    vertex 31369.9265877961 41510.70364250426 2997.000000000002
    vertex 31369.9265877961 41510.70364250426 22997.000000000004
  endloop
endfacet
facet normal -0.9914448613738103 0.13052619222005288 -1.92718296979138e-32
  outer loop
    vertex 59384.369612415314 45198.875035215184 22997.000000000004
    vertex 58898.812637034534 41510.70364250426 2997.000000000002
    vertex 58898.812637034534 41510.70364250426 22997.000000000004
  endloop
endfacet
facet normal -0.9914448613738103 0.13052619222005288 -1.92718296979138e-32
  outer loop
    vertex 58898.812637034534 41510.70364250426 2997.000000000002
    vertex 59384.369612415314 45198.875035215184 22997.000000000004
    vertex 59384.369612415314 45198.875035215184 2997.000000000002
  endloop
endfacet
facet normal -0.9238795325112866 0.3826834323650899 -1.741914604494252e-32
  outer loop
    vertex 58898.812637034534 41510.70364250426 22997.000000000004
    vertex 57475.23161634356 38073.875035215184 2997.000000000002
    vertex 57475.23161634356 38073.875035215184 22997.000000000004
  endloop
endfacet
facet normal -0.9238795325112866 0.3826834323650899 -1.741914604494252e-32
  outer loop
    vertex 57475.23161634356 38073.875035215184 2997.000000000002
    vertex 58898.812637034534 41510.70364250426 22997.000000000004
    vertex 58898.812637034534 41510.70364250426 2997.000000000002
  endloop
endfacet
facet normal -0.9914448613738103 -0.1305261922200525 -1.9811170005176678e-32
  outer loop
    vertex 58898.812637034534 48887.046427926114 22997.000000000004
    vertex 59384.369612415314 45198.875035215184 2997.000000000002
    vertex 59384.369612415314 45198.875035215184 22997.000000000004
  endloop
endfacet
facet normal -0.9914448613738103 -0.1305261922200525 -1.9811170005176678e-32
  outer loop
    vertex 59384.369612415314 45198.875035215184 2997.000000000002
    vertex 58898.812637034534 48887.046427926114 22997.000000000004
    vertex 58898.812637034534 48887.046427926114 2997.000000000002
  endloop
endfacet
facet normal 0.9914448613738103 0.13052619222005288 1.9811170005176678e-32
  outer loop
    vertex 30884.369612415318 45198.875035215184 2997.000000000002
    vertex 31369.9265877961 41510.70364250426 22997.000000000004
    vertex 31369.9265877961 41510.70364250426 2997.000000000002
  endloop
endfacet
facet normal 0.9914448613738103 0.13052619222005288 1.9811170005176678e-32
  outer loop
    vertex 31369.9265877961 41510.70364250426 22997.000000000004
    vertex 30884.369612415318 45198.875035215184 2997.000000000002
    vertex 30884.369612415318 45198.875035215184 22997.000000000004
  endloop
endfacet
facet normal -0.6087614290087183 -0.7933533402912369 -1.3637848932291562e-32
  outer loop
    vertex 55210.64124432362 55275.14666712349 22997.000000000004
    vertex 52259.3696124153 57539.73703914344 2997.000000000002
    vertex 55210.64124432362 55275.14666712349 2997.000000000002
  endloop
endfacet
facet normal -0.6087614290087183 -0.7933533402912369 -1.3637848932291562e-32
  outer loop
    vertex 52259.3696124153 57539.73703914344 2997.000000000002
    vertex 55210.64124432362 55275.14666712349 22997.000000000004
    vertex 52259.3696124153 57539.73703914344 22997.000000000004
  endloop
endfacet
facet normal -0.7933533402912358 -0.6087614290087199 -1.6894806961408076e-32
  outer loop
    vertex 55210.64124432362 55275.14666712349 22997.000000000004
    vertex 57475.23161634356 52323.875035215184 2997.000000000002
    vertex 57475.23161634356 52323.875035215184 22997.000000000004
  endloop
endfacet
facet normal -0.7933533402912358 -0.6087614290087199 -1.6894806961408076e-32
  outer loop
    vertex 57475.23161634356 52323.875035215184 2997.000000000002
    vertex 55210.64124432362 55275.14666712349 22997.000000000004
    vertex 55210.64124432362 55275.14666712349 2997.000000000002
  endloop
endfacet
facet normal 0.38268343236508884 0.9238795325112873 9.451494036050429e-33
  outer loop
    vertex 49340.17909533127 60895.16971241255 22997.000000000004
    vertex 53259.36961241531 59271.78784671232 2997.000000000002
    vertex 49340.17909533127 60895.16971241255 2997.000000000002
  endloop
endfacet
facet normal 0.38268343236508884 0.9238795325112873 9.451494036050429e-33
  outer loop
    vertex 53259.36961241531 59271.78784671232 2997.000000000002
    vertex 49340.17909533127 60895.16971241255 22997.000000000004
    vertex 53259.36961241531 59271.78784671232 22997.000000000004
  endloop
endfacet
facet normal -0.13052619222005138 0.9914448613738105 -5.243390835344547e-34
  outer loop
    vertex 45134.369612415314 30948.875035215184 22997.000000000004
    vertex 48822.54100512624 31434.43201059596 2997.000000000002
    vertex 45134.369612415314 30948.875035215184 2997.000000000002
  endloop
endfacet
facet normal -0.13052619222005138 0.9914448613738105 -5.243390835344547e-34
  outer loop
    vertex 48822.54100512624 31434.43201059596 2997.000000000002
    vertex 45134.369612415314 30948.875035215184 22997.000000000004
    vertex 48822.54100512624 31434.43201059596 22997.000000000004
  endloop
endfacet
facet normal 0.6087614290087225 -0.7933533402912337 1.0359675969126273e-32
  outer loop
    vertex 38009.36961241531 57539.73703914344 22997.000000000004
    vertex 35058.09798050701 55275.14666712348 2997.000000000002
    vertex 38009.36961241531 57539.73703914344 2997.000000000002
  endloop
endfacet
facet normal 0.6087614290087225 -0.7933533402912337 1.0359675969126273e-32
  outer loop
    vertex 35058.09798050701 55275.14666712348 2997.000000000002
    vertex 38009.36961241531 57539.73703914344 22997.000000000004
    vertex 35058.09798050701 55275.14666712348 22997.000000000004
  endloop
endfacet
facet normal 0.6087614290087207 -0.7933533402912352 1.035967596912623e-32
  outer loop
    vertex 56624.85480669672 33708.38984093379 22997.000000000004
    vertex 53259.369612415314 31125.962223718056 2997.000000000002
    vertex 56624.85480669672 33708.38984093379 2997.000000000002
  endloop
endfacet
facet normal 0.6087614290087207 -0.7933533402912352 1.035967596912623e-32
  outer loop
    vertex 53259.369612415314 31125.962223718056 2997.000000000002
    vertex 56624.85480669672 33708.38984093379 22997.000000000004
    vertex 53259.369612415314 31125.962223718056 22997.000000000004
  endloop
endfacet
facet normal -0.9238795325112865 -0.3826834323650905 -1.9000411816093165e-32
  outer loop
    vertex 57475.23161634356 52323.875035215184 22997.000000000004
    vertex 58898.812637034534 48887.046427926114 2997.000000000002
    vertex 58898.812637034534 48887.046427926114 22997.000000000004
  endloop
endfacet
facet normal -0.9238795325112865 -0.3826834323650905 -1.9000411816093165e-32
  outer loop
    vertex 58898.812637034534 48887.046427926114 2997.000000000002
    vertex 57475.23161634356 52323.875035215184 22997.000000000004
    vertex 57475.23161634356 52323.875035215184 2997.000000000002
  endloop
endfacet
facet normal 0.13052619222004944 -0.9914448613738107 5.243390835344164e-34
  outer loop
    vertex 45134.369612415314 59448.87503521518 22997.000000000004
    vertex 41446.19821970438 58963.318059834404 2997.000000000002
    vertex 45134.369612415314 59448.87503521518 2997.000000000002
  endloop
endfacet
facet normal 0.13052619222004944 -0.9914448613738107 5.243390835344164e-34
  outer loop
    vertex 41446.19821970438 58963.318059834404 2997.000000000002
    vertex 45134.369612415314 59448.87503521518 22997.000000000004
    vertex 41446.19821970438 58963.318059834404 22997.000000000004
  endloop
endfacet
facet normal -0.38268343236509106 -0.9238795325112862 -9.451494036050471e-33
  outer loop
    vertex 40928.56012949936 29502.580358017818 22997.000000000004
    vertex 37009.36961241532 31125.962223718056 2997.000000000002
    vertex 40928.56012949936 29502.580358017818 2997.000000000002
  endloop
endfacet
facet normal -0.38268343236509106 -0.9238795325112862 -9.451494036050471e-33
  outer loop
    vertex 37009.36961241532 31125.962223718056 2997.000000000002
    vertex 40928.56012949936 29502.580358017818 22997.000000000004
    vertex 37009.36961241532 31125.962223718056 22997.000000000004
  endloop
endfacet
facet normal -0.0 -0.0 1.0
  outer loop
    vertex 48822.54100512624 31434.43201059596 2997.000000000002
    vertex 45134.369612415314 45198.875035215184 2997.000000000002
    vertex 45134.369612415314 30948.875035215184 2997.000000000002
  endloop
endfacet
facet normal -0.0 -0.0 1.0
  outer loop
    vertex 45134.369612415314 45198.875035215184 2997.000000000002
    vertex 48822.54100512624 31434.43201059596 2997.000000000002
    vertex 59384.369612415314 45198.875035215184 2997.000000000002
  endloop
endfacet
facet normal -0.0 -0.0 1.0
  outer loop
    vertex 59384.369612415314 45198.875035215184 2997.000000000002
    vertex 48822.54100512624 31434.43201059596 2997.000000000002
    vertex 52259.369612415314 32858.01303128693 2997.000000000002
  endloop
endfacet
facet normal -0.0 -0.0 1.0
  outer loop
    vertex 59384.369612415314 45198.875035215184 2997.000000000002
    vertex 52259.369612415314 32858.01303128693 2997.000000000002
    vertex 55210.64124432362 35122.603403306886 2997.000000000002
  endloop
endfacet
facet normal -0.0 -0.0 1.0
  outer loop
    vertex 59384.369612415314 45198.875035215184 2997.000000000002
    vertex 55210.64124432362 35122.603403306886 2997.000000000002
    vertex 57475.23161634356 38073.875035215184 2997.000000000002
  endloop
endfacet
facet normal -0.0 -0.0 1.0
  outer loop
    vertex 59384.369612415314 45198.875035215184 2997.000000000002
    vertex 57475.23161634356 38073.875035215184 2997.000000000002
    vertex 58898.812637034534 41510.70364250426 2997.000000000002
  endloop
endfacet
facet normal 0.13052619222005077 0.9914448613738106 4.621035440584837e-33
  outer loop
    vertex 45134.369612415314 61448.875035215184 22997.000000000004
    vertex 49340.17909533127 60895.16971241255 2997.000000000002
    vertex 45134.369612415314 61448.875035215184 2997.000000000002
  endloop
endfacet
facet normal 0.13052619222005077 0.9914448613738106 4.621035440584837e-33
  outer loop
    vertex 49340.17909533127 60895.16971241255 2997.000000000002
    vertex 45134.369612415314 61448.875035215184 22997.000000000004
    vertex 49340.17909533127 60895.16971241255 22997.000000000004
  endloop
endfacet
facet normal -0.0 -0.0 1.0
  outer loop
    vertex 59384.369612415314 45198.875035215184 2997.000000000002
    vertex 45134.369612415314 59448.87503521518 2997.000000000002
    vertex 45134.369612415314 45198.875035215184 2997.000000000002
  endloop
endfacet
facet normal -0.0 -0.0 1.0
  outer loop
    vertex 45134.369612415314 59448.87503521518 2997.000000000002
    vertex 59384.369612415314 45198.875035215184 2997.000000000002
    vertex 48822.54100512623 58963.318059834404 2997.000000000002
  endloop
endfacet
facet normal -0.0 -0.0 1.0
  outer loop
    vertex 48822.54100512623 58963.318059834404 2997.000000000002
    vertex 59384.369612415314 45198.875035215184 2997.000000000002
    vertex 52259.3696124153 57539.73703914344 2997.000000000002
  endloop
endfacet
facet normal -0.0 -0.0 1.0
  outer loop
    vertex 52259.3696124153 57539.73703914344 2997.000000000002
    vertex 59384.369612415314 45198.875035215184 2997.000000000002
    vertex 55210.64124432362 55275.14666712349 2997.000000000002
  endloop
endfacet
facet normal -0.0 -0.0 1.0
  outer loop
    vertex 55210.64124432362 55275.14666712349 2997.000000000002
    vertex 59384.369612415314 45198.875035215184 2997.000000000002
    vertex 57475.23161634356 52323.875035215184 2997.000000000002
  endloop
endfacet
facet normal -0.0 -0.0 1.0
  outer loop
    vertex 57475.23161634356 52323.875035215184 2997.000000000002
    vertex 59384.369612415314 45198.875035215184 2997.000000000002
    vertex 58898.812637034534 48887.046427926114 2997.000000000002
  endloop
endfacet
facet normal -0.7933533402912352 0.6087614290087207 -1.4379376375508316e-32
  outer loop
    vertex 33643.884418133915 56689.360229496575 22997.000000000004
    vertex 31061.456800918186 53323.87503521518 2997.000000000002
    vertex 31061.456800918186 53323.87503521518 22997.000000000004
  endloop
endfacet
facet normal -0.7933533402912352 0.6087614290087207 -1.4379376375508316e-32
  outer loop
    vertex 31061.456800918186 53323.87503521518 2997.000000000002
    vertex 33643.884418133915 56689.360229496575 22997.000000000004
    vertex 33643.884418133915 56689.360229496575 2997.000000000002
  endloop
endfacet
facet normal -1.0827612676739615e-33 1.2482713709681612e-33 1.0
  outer loop
    vertex 134.36961241534328 198.87503521519014 2997.000000000002
    vertex 31061.456800918197 37073.87503521518 2997.000000000002
    vertex 134.36961241534328 90198.87503521518 2997.000000000002
  endloop
endfacet
facet normal -1.0827612676739615e-33 1.2482713709681612e-33 1.0
  outer loop
    vertex 31061.456800918197 37073.87503521518 2997.000000000002
    vertex 134.36961241534328 198.87503521519014 2997.000000000002
    vertex 33643.88441813392 33708.389840933785 2997.000000000002
  endloop
endfacet
facet normal -1.0827612676739615e-33 1.2482713709681612e-33 1.0
  outer loop
    vertex 33643.88441813392 33708.389840933785 2997.000000000002
    vertex 134.36961241534328 198.87503521519014 2997.000000000002
    vertex 37009.36961241532 31125.962223718056 2997.000000000002
  endloop
endfacet
facet normal -1.0827612676739615e-33 1.2482713709681612e-33 1.0
  outer loop
    vertex 37009.36961241532 31125.962223718056 2997.000000000002
    vertex 134.36961241534328 198.87503521519014 2997.000000000002
    vertex 90134.36961241529 198.87503521519014 2997.000000000002
  endloop
endfacet
facet normal -1.0827612676739615e-33 1.2482713709681612e-33 1.0
  outer loop
    vertex 134.36961241534328 90198.87503521518 2997.000000000002
    vertex 31061.456800918197 37073.87503521518 2997.000000000002
    vertex 29438.07493521796 40993.06555229922 2997.000000000002
  endloop
endfacet
facet normal -1.0827612676739615e-33 1.2482713709681612e-33 1.0
  outer loop
    vertex 134.36961241534328 90198.87503521518 2997.000000000002
    vertex 29438.07493521796 40993.06555229922 2997.000000000002
    vertex 28884.36961241532 45198.875035215184 2997.000000000002
  endloop
endfacet
facet normal -1.0827612676739615e-33 1.2482713709681612e-33 1.0
  outer loop
    vertex 37009.36961241532 31125.962223718056 2997.000000000002
    vertex 90134.36961241529 198.87503521519014 2997.000000000002
    vertex 40928.56012949936 29502.580358017818 2997.000000000002
  endloop
endfacet
facet normal -1.0827612676739615e-33 1.2482713709681612e-33 1.0
  outer loop
    vertex 40928.56012949936 29502.580358017818 2997.000000000002
    vertex 90134.36961241529 198.87503521519014 2997.000000000002
    vertex 45134.369612415314 28948.875035215184 2997.000000000002
  endloop
endfacet
facet normal -1.0827612676739615e-33 1.2482713709681612e-33 1.0
  outer loop
    vertex 45134.369612415314 28948.875035215184 2997.000000000002
    vertex 90134.36961241529 198.87503521519014 2997.000000000002
    vertex 49340.17909533128 29502.580358017825 2997.000000000002
  endloop
endfacet
facet normal -1.0827612676739615e-33 1.2482713709681612e-33 1.0
  outer loop
    vertex 49340.17909533128 29502.580358017825 2997.000000000002
    vertex 90134.36961241529 198.87503521519014 2997.000000000002
    vertex 53259.369612415314 31125.962223718056 2997.000000000002
  endloop
endfacet
facet normal -1.0827612676739615e-33 1.2482713709681612e-33 1.0
  outer loop
    vertex 53259.369612415314 31125.962223718056 2997.000000000002
    vertex 90134.36961241529 198.87503521519014 2997.000000000002
    vertex 56624.85480669672 33708.38984093379 2997.000000000002
  endloop
endfacet
facet normal -1.0827612676739615e-33 1.2482713709681612e-33 1.0
  outer loop
    vertex 56624.85480669672 33708.38984093379 2997.000000000002
    vertex 90134.36961241529 198.87503521519014 2997.000000000002
    vertex 59207.282423912446 37073.875035215184 2997.000000000002
  endloop
endfacet
facet normal -1.0827612676739615e-33 1.2482713709681612e-33 1.0
  outer loop
    vertex 59207.282423912446 37073.875035215184 2997.000000000002
    vertex 90134.36961241529 198.87503521519014 2997.000000000002
    vertex 60830.66428961267 40993.06555229922 2997.000000000002
  endloop
endfacet
facet normal -1.0827612676739615e-33 1.2482713709681612e-33 1.0
  outer loop
    vertex 60830.66428961267 40993.06555229922 2997.000000000002
    vertex 90134.36961241529 198.87503521519014 2997.000000000002
    vertex 61384.369612415314 45198.875035215184 2997.000000000002
  endloop
endfacet
facet normal -1.0827612676739615e-33 1.2482713709681612e-33 1.0
  outer loop
    vertex 134.36961241534328 90198.87503521518 2997.000000000002
    vertex 37009.369612415314 59271.78784671231 2997.000000000002
    vertex 90134.36961241529 90198.87503521518 2997.000000000002
  endloop
endfacet
facet normal -1.0827612676739615e-33 1.2482713709681612e-33 1.0
  outer loop
    vertex 37009.369612415314 59271.78784671231 2997.000000000002
    vertex 134.36961241534328 90198.87503521518 2997.000000000002
    vertex 33643.884418133915 56689.360229496575 2997.000000000002
  endloop
endfacet
facet normal -1.0827612676739615e-33 1.2482713709681612e-33 1.0
  outer loop
    vertex 33643.884418133915 56689.360229496575 2997.000000000002
    vertex 134.36961241534328 90198.87503521518 2997.000000000002
    vertex 31061.456800918186 53323.87503521518 2997.000000000002
  endloop
endfacet
facet normal -1.0827612676739615e-33 1.2482713709681612e-33 1.0
  outer loop
    vertex 31061.456800918186 53323.87503521518 2997.000000000002
    vertex 134.36961241534328 90198.87503521518 2997.000000000002
    vertex 29438.07493521796 49404.684518131144 2997.000000000002
  endloop
endfacet
facet normal -1.0827612676739615e-33 1.2482713709681612e-33 1.0
  outer loop
    vertex 29438.07493521796 49404.684518131144 2997.000000000002
    vertex 134.36961241534328 90198.87503521518 2997.000000000002
    vertex 28884.36961241532 45198.875035215184 2997.000000000002
  endloop
endfacet
facet normal -1.0827612676739615e-33 1.2482713709681612e-33 1.0
  outer loop
    vertex 90134.36961241529 90198.87503521518 2997.000000000002
    vertex 37009.369612415314 59271.78784671231 2997.000000000002
    vertex 40928.56012949934 60895.169712412535 2997.000000000002
  endloop
endfacet
facet normal -1.0827612676739615e-33 1.2482713709681612e-33 1.0
  outer loop
    vertex 90134.36961241529 90198.87503521518 2997.000000000002
    vertex 40928.56012949934 60895.169712412535 2997.000000000002
    vertex 45134.369612415314 61448.875035215184 2997.000000000002
  endloop
endfacet
facet normal -1.0827612676739615e-33 1.2482713709681612e-33 1.0
  outer loop
    vertex 90134.36961241529 90198.87503521518 2997.000000000002
    vertex 45134.369612415314 61448.875035215184 2997.000000000002
    vertex 49340.17909533127 60895.16971241255 2997.000000000002
  endloop
endfacet
facet normal -1.0827612676739615e-33 1.2482713709681612e-33 1.0
  outer loop
    vertex 90134.36961241529 90198.87503521518 2997.000000000002
    vertex 49340.17909533127 60895.16971241255 2997.000000000002
    vertex 53259.36961241531 59271.78784671232 2997.000000000002
  endloop
endfacet
facet normal -1.0827612676739615e-33 1.2482713709681612e-33 1.0
  outer loop
    vertex 90134.36961241529 90198.87503521518 2997.000000000002
    vertex 53259.36961241531 59271.78784671232 2997.000000000002
    vertex 56624.854806696705 56689.360229496575 2997.000000000002
  endloop
endfacet
facet normal -1.0827612676739615e-33 1.2482713709681612e-33 1.0
  outer loop
    vertex 90134.36961241529 90198.87503521518 2997.000000000002
    vertex 56624.854806696705 56689.360229496575 2997.000000000002
    vertex 59207.28242391244 53323.87503521519 2997.000000000002
  endloop
endfacet
facet normal -1.0827612676739615e-33 1.2482713709681612e-33 1.0
  outer loop
    vertex 90134.36961241529 90198.87503521518 2997.000000000002
    vertex 59207.28242391244 53323.87503521519 2997.000000000002
    vertex 60830.66428961267 49404.68451813116 2997.000000000002
  endloop
endfacet
facet normal -1.0827612676739615e-33 1.2482713709681612e-33 1.0
  outer loop
    vertex 90134.36961241529 90198.87503521518 2997.000000000002
    vertex 60830.66428961267 49404.68451813116 2997.000000000002
    vertex 61384.369612415314 45198.875035215184 2997.000000000002
  endloop
endfacet
facet normal -1.0827612676739615e-33 1.2482713709681612e-33 1.0
  outer loop
    vertex 90134.36961241529 90198.87503521518 2997.000000000002
    vertex 61384.369612415314 45198.875035215184 2997.000000000002
    vertex 90134.36961241529 198.87503521519014 2997.000000000002
  endloop
endfacet
facet normal -0.0 -0.0 1.0
  outer loop
    vertex 45134.369612415314 45198.875035215184 2997.000000000002
    vertex 31369.926587796093 48887.0464279261 2997.000000000002
    vertex 30884.369612415318 45198.875035215184 2997.000000000002
  endloop
endfacet
facet normal -0.0 -0.0 1.0
  outer loop
    vertex 31369.926587796093 48887.0464279261 2997.000000000002
    vertex 45134.369612415314 45198.875035215184 2997.000000000002
    vertex 32793.50760848707 52323.87503521518 2997.000000000002
  endloop
endfacet
facet normal -0.0 -0.0 1.0
  outer loop
    vertex 32793.50760848707 52323.87503521518 2997.000000000002
    vertex 45134.369612415314 45198.875035215184 2997.000000000002
    vertex 35058.09798050701 55275.14666712348 2997.000000000002
  endloop
endfacet
facet normal -0.0 -0.0 1.0
  outer loop
    vertex 35058.09798050701 55275.14666712348 2997.000000000002
    vertex 45134.369612415314 45198.875035215184 2997.000000000002
    vertex 38009.36961241531 57539.73703914344 2997.000000000002
  endloop
endfacet
facet normal -0.0 -0.0 1.0
  outer loop
    vertex 38009.36961241531 57539.73703914344 2997.000000000002
    vertex 45134.369612415314 45198.875035215184 2997.000000000002
    vertex 41446.19821970438 58963.318059834404 2997.000000000002
  endloop
endfacet
facet normal -0.0 -0.0 1.0
  outer loop
    vertex 41446.19821970438 58963.318059834404 2997.000000000002
    vertex 45134.369612415314 45198.875035215184 2997.000000000002
    vertex 45134.369612415314 59448.87503521518 2997.000000000002
  endloop
endfacet
facet normal 0.0 -1.0 0.0
  outer loop
    vertex 90134.36961241529 198.87503521519014 2997.000000000002
    vertex 134.36961241534328 198.87503521519014 -2.9999999999663807
    vertex 90134.36961241529 198.87503521519014 -2.9999999999999494
  endloop
endfacet
facet normal 0.0 -1.0 0.0
  outer loop
    vertex 134.36961241534328 198.87503521519014 -2.9999999999663807
    vertex 90134.36961241529 198.87503521519014 2997.000000000002
    vertex 134.36961241534328 198.87503521519014 2997.000000000002
  endloop
endfacet
facet normal -2.506636873375915e-16 4.1777281222931915e-17 -1.0
  outer loop
    vertex 90134.36961241529 90198.87503521518 -2.9999999999886695
    vertex 134.36961241534328 198.87503521519014 -2.9999999999663807
    vertex 134.36961241534328 90198.87503521518 -2.99999999997748
  endloop
endfacet
facet normal -2.506636873375915e-16 4.1777281222931915e-17 -1.0
  outer loop
    vertex 134.36961241534328 198.87503521519014 -2.9999999999663807
    vertex 90134.36961241529 90198.87503521518 -2.9999999999886695
    vertex 90134.36961241529 198.87503521519014 -2.9999999999999494
  endloop
endfacet
facet normal -1.9710122683441288e-32 -2.066023294212119e-33 1.0
  outer loop
    vertex 29438.07493521796 40993.06555229922 22997.000000000004
    vertex 29438.07493521796 49404.684518131144 22997.000000000004
    vertex 28884.36961241532 45198.875035215184 22997.000000000004
  endloop
endfacet
facet normal -1.9710122683441288e-32 -2.066023294212119e-33 1.0
  outer loop
    vertex 29438.07493521796 49404.684518131144 22997.000000000004
    vertex 29438.07493521796 40993.06555229922 22997.000000000004
    vertex 31061.456800918197 37073.87503521518 22997.000000000004
  endloop
endfacet
facet normal -1.9710122683441288e-32 -2.066023294212119e-33 1.0
  outer loop
    vertex 29438.07493521796 49404.684518131144 22997.000000000004
    vertex 31061.456800918197 37073.87503521518 22997.000000000004
    vertex 30884.369612415318 45198.875035215184 22997.000000000004
  endloop
endfacet
facet normal -1.9710122683441288e-32 -2.066023294212119e-33 1.0
  outer loop
    vertex 30884.369612415318 45198.875035215184 22997.000000000004
    vertex 31061.456800918197 37073.87503521518 22997.000000000004
    vertex 31369.9265877961 41510.70364250426 22997.000000000004
  endloop
endfacet
facet normal -1.9710122683441288e-32 -2.066023294212119e-33 1.0
  outer loop
    vertex 31369.9265877961 41510.70364250426 22997.000000000004
    vertex 31061.456800918197 37073.87503521518 22997.000000000004
    vertex 33643.88441813392 33708.389840933785 22997.000000000004
  endloop
endfacet
facet normal -1.9710122683441288e-32 -2.066023294212119e-33 1.0
  outer loop
    vertex 31369.9265877961 41510.70364250426 22997.000000000004
    vertex 33643.88441813392 33708.389840933785 22997.000000000004
    vertex 32793.507608487074 38073.875035215184 22997.000000000004
  endloop
endfacet
facet normal -1.9710122683441288e-32 -2.066023294212119e-33 1.0
  outer loop
    vertex 32793.507608487074 38073.875035215184 22997.000000000004
    vertex 33643.88441813392 33708.389840933785 22997.000000000004
    vertex 35058.09798050702 35122.603403306886 22997.000000000004
  endloop
endfacet
facet normal -1.9710122683441288e-32 -2.066023294212119e-33 1.0
  outer loop
    vertex 35058.09798050702 35122.603403306886 22997.000000000004
    vertex 33643.88441813392 33708.389840933785 22997.000000000004
    vertex 37009.36961241532 31125.962223718056 22997.000000000004
  endloop
endfacet
facet normal -1.9710122683441288e-32 -2.066023294212119e-33 1.0
  outer loop
    vertex 35058.09798050702 35122.603403306886 22997.000000000004
    vertex 37009.36961241532 31125.962223718056 22997.000000000004
    vertex 38009.36961241532 32858.01303128693 22997.000000000004
  endloop
endfacet
facet normal -1.9710122683441288e-32 -2.066023294212119e-33 1.0
  outer loop
    vertex 38009.36961241532 32858.01303128693 22997.000000000004
    vertex 37009.36961241532 31125.962223718056 22997.000000000004
    vertex 40928.56012949936 29502.580358017818 22997.000000000004
  endloop
endfacet
facet normal -1.9710122683441288e-32 -2.066023294212119e-33 1.0
  outer loop
    vertex 38009.36961241532 32858.01303128693 22997.000000000004
    vertex 40928.56012949936 29502.580358017818 22997.000000000004
    vertex 41446.1982197044 31434.43201059596 22997.000000000004
  endloop
endfacet
facet normal -1.9710122683441288e-32 -2.066023294212119e-33 1.0
  outer loop
    vertex 41446.1982197044 31434.43201059596 22997.000000000004
    vertex 40928.56012949936 29502.580358017818 22997.000000000004
    vertex 45134.369612415314 28948.875035215184 22997.000000000004
  endloop
endfacet
facet normal -1.9710122683441288e-32 -2.066023294212119e-33 1.0
  outer loop
    vertex 41446.1982197044 31434.43201059596 22997.000000000004
    vertex 45134.369612415314 28948.875035215184 22997.000000000004
    vertex 45134.369612415314 30948.875035215184 22997.000000000004
  endloop
endfacet
facet normal -1.9710122683441288e-32 -2.066023294212119e-33 1.0
  outer loop
    vertex 45134.369612415314 30948.875035215184 22997.000000000004
    vertex 45134.369612415314 28948.875035215184 22997.000000000004
    vertex 49340.17909533128 29502.580358017825 22997.000000000004
  endloop
endfacet
facet normal -1.9710122683441288e-32 -2.066023294212119e-33 1.0
  outer loop
    vertex 45134.369612415314 30948.875035215184 22997.000000000004
    vertex 49340.17909533128 29502.580358017825 22997.000000000004
    vertex 48822.54100512624 31434.43201059596 22997.000000000004
  endloop
endfacet
facet normal -1.9710122683441288e-32 -2.066023294212119e-33 1.0
  outer loop
    vertex 48822.54100512624 31434.43201059596 22997.000000000004
    vertex 49340.17909533128 29502.580358017825 22997.000000000004
    vertex 52259.369612415314 32858.01303128693 22997.000000000004
  endloop
endfacet
facet normal -1.9710122683441288e-32 -2.066023294212119e-33 1.0
  outer loop
    vertex 52259.369612415314 32858.01303128693 22997.000000000004
    vertex 49340.17909533128 29502.580358017825 22997.000000000004
    vertex 53259.369612415314 31125.962223718056 22997.000000000004
  endloop
endfacet
facet normal -1.9710122683441288e-32 -2.066023294212119e-33 1.0
  outer loop
    vertex 52259.369612415314 32858.01303128693 22997.000000000004
    vertex 53259.369612415314 31125.962223718056 22997.000000000004
    vertex 55210.64124432362 35122.603403306886 22997.000000000004
  endloop
endfacet
facet normal -1.9710122683441288e-32 -2.066023294212119e-33 1.0
  outer loop
    vertex 55210.64124432362 35122.603403306886 22997.000000000004
    vertex 53259.369612415314 31125.962223718056 22997.000000000004
    vertex 56624.85480669672 33708.38984093379 22997.000000000004
  endloop
endfacet
facet normal -1.9710122683441288e-32 -2.066023294212119e-33 1.0
  outer loop
    vertex 55210.64124432362 35122.603403306886 22997.000000000004
    vertex 56624.85480669672 33708.38984093379 22997.000000000004
    vertex 57475.23161634356 38073.875035215184 22997.000000000004
  endloop
endfacet
facet normal -1.9710122683441288e-32 -2.066023294212119e-33 1.0
  outer loop
    vertex 57475.23161634356 38073.875035215184 22997.000000000004
    vertex 56624.85480669672 33708.38984093379 22997.000000000004
    vertex 59207.282423912446 37073.875035215184 22997.000000000004
  endloop
endfacet
facet normal -1.9710122683441288e-32 -2.066023294212119e-33 1.0
  outer loop
    vertex 57475.23161634356 38073.875035215184 22997.000000000004
    vertex 59207.282423912446 37073.875035215184 22997.000000000004
    vertex 58898.812637034534 41510.70364250426 22997.000000000004
  endloop
endfacet
facet normal -1.9710122683441288e-32 -2.066023294212119e-33 1.0
  outer loop
    vertex 58898.812637034534 41510.70364250426 22997.000000000004
    vertex 59207.282423912446 37073.875035215184 22997.000000000004
    vertex 59384.369612415314 45198.875035215184 22997.000000000004
  endloop
endfacet
facet normal -1.9710122683441288e-32 -2.066023294212119e-33 1.0
  outer loop
    vertex 59384.369612415314 45198.875035215184 22997.000000000004
    vertex 59207.282423912446 37073.875035215184 22997.000000000004
    vertex 60830.66428961267 40993.06555229922 22997.000000000004
  endloop
endfacet
facet normal -1.9710122683441288e-32 -2.066023294212119e-33 1.0
  outer loop
    vertex 30884.369612415318 45198.875035215184 22997.000000000004
    vertex 31061.456800918186 53323.87503521518 22997.000000000004
    vertex 29438.07493521796 49404.684518131144 22997.000000000004
  endloop
endfacet
facet normal -1.9710122683441288e-32 -2.066023294212119e-33 1.0
  outer loop
    vertex 31061.456800918186 53323.87503521518 22997.000000000004
    vertex 30884.369612415318 45198.875035215184 22997.000000000004
    vertex 31369.926587796093 48887.0464279261 22997.000000000004
  endloop
endfacet
facet normal -1.9710122683441288e-32 -2.066023294212119e-33 1.0
  outer loop
    vertex 31061.456800918186 53323.87503521518 22997.000000000004
    vertex 31369.926587796093 48887.0464279261 22997.000000000004
    vertex 33643.884418133915 56689.360229496575 22997.000000000004
  endloop
endfacet
facet normal -1.9710122683441288e-32 -2.066023294212119e-33 1.0
  outer loop
    vertex 33643.884418133915 56689.360229496575 22997.000000000004
    vertex 31369.926587796093 48887.0464279261 22997.000000000004
    vertex 32793.50760848707 52323.87503521518 22997.000000000004
  endloop
endfacet
facet normal -1.9710122683441288e-32 -2.066023294212119e-33 1.0
  outer loop
    vertex 33643.884418133915 56689.360229496575 22997.000000000004
    vertex 32793.50760848707 52323.87503521518 22997.000000000004
    vertex 35058.09798050701 55275.14666712348 22997.000000000004
  endloop
endfacet
facet normal -1.9710122683441288e-32 -2.066023294212119e-33 1.0
  outer loop
    vertex 33643.884418133915 56689.360229496575 22997.000000000004
    vertex 35058.09798050701 55275.14666712348 22997.000000000004
    vertex 37009.369612415314 59271.78784671231 22997.000000000004
  endloop
endfacet
facet normal -1.9710122683441288e-32 -2.066023294212119e-33 1.0
  outer loop
    vertex 37009.369612415314 59271.78784671231 22997.000000000004
    vertex 35058.09798050701 55275.14666712348 22997.000000000004
    vertex 38009.36961241531 57539.73703914344 22997.000000000004
  endloop
endfacet
facet normal -1.9710122683441288e-32 -2.066023294212119e-33 1.0
  outer loop
    vertex 37009.369612415314 59271.78784671231 22997.000000000004
    vertex 38009.36961241531 57539.73703914344 22997.000000000004
    vertex 40928.56012949934 60895.169712412535 22997.000000000004
  endloop
endfacet
facet normal -1.9710122683441288e-32 -2.066023294212119e-33 1.0
  outer loop
    vertex 40928.56012949934 60895.169712412535 22997.000000000004
    vertex 38009.36961241531 57539.73703914344 22997.000000000004
    vertex 41446.19821970438 58963.318059834404 22997.000000000004
  endloop
endfacet
facet normal -1.9710122683441288e-32 -2.066023294212119e-33 1.0
  outer loop
    vertex 40928.56012949934 60895.169712412535 22997.000000000004
    vertex 41446.19821970438 58963.318059834404 22997.000000000004
    vertex 45134.369612415314 61448.875035215184 22997.000000000004
  endloop
endfacet
facet normal -1.9710122683441288e-32 -2.066023294212119e-33 1.0
  outer loop
    vertex 45134.369612415314 61448.875035215184 22997.000000000004
    vertex 41446.19821970438 58963.318059834404 22997.000000000004
    vertex 45134.369612415314 59448.87503521518 22997.000000000004
  endloop
endfacet
facet normal -1.9710122683441288e-32 -2.066023294212119e-33 1.0
  outer loop
    vertex 45134.369612415314 61448.875035215184 22997.000000000004
    vertex 45134.369612415314 59448.87503521518 22997.000000000004
    vertex 49340.17909533127 60895.16971241255 22997.000000000004
  endloop
endfacet
facet normal -1.9710122683441288e-32 -2.066023294212119e-33 1.0
  outer loop
    vertex 49340.17909533127 60895.16971241255 22997.000000000004
    vertex 45134.369612415314 59448.87503521518 22997.000000000004
    vertex 48822.54100512623 58963.318059834404 22997.000000000004
  endloop
endfacet
facet normal -1.9710122683441288e-32 -2.066023294212119e-33 1.0
  outer loop
    vertex 49340.17909533127 60895.16971241255 22997.000000000004
    vertex 48822.54100512623 58963.318059834404 22997.000000000004
    vertex 52259.3696124153 57539.73703914344 22997.000000000004
  endloop
endfacet
facet normal -1.9710122683441288e-32 -2.066023294212119e-33 1.0
  outer loop
    vertex 49340.17909533127 60895.16971241255 22997.000000000004
    vertex 52259.3696124153 57539.73703914344 22997.000000000004
    vertex 53259.36961241531 59271.78784671232 22997.000000000004
  endloop
endfacet
facet normal -1.9710122683441288e-32 -2.066023294212119e-33 1.0
  outer loop
    vertex 53259.36961241531 59271.78784671232 22997.000000000004
    vertex 52259.3696124153 57539.73703914344 22997.000000000004
    vertex 55210.64124432362 55275.14666712349 22997.000000000004
  endloop
endfacet
facet normal -1.9710122683441288e-32 -2.066023294212119e-33 1.0
  outer loop
    vertex 53259.36961241531 59271.78784671232 22997.000000000004
    vertex 55210.64124432362 55275.14666712349 22997.000000000004
    vertex 56624.854806696705 56689.360229496575 22997.000000000004
  endloop
endfacet
facet normal -1.9710122683441288e-32 -2.066023294212119e-33 1.0
  outer loop
    vertex 56624.854806696705 56689.360229496575 22997.000000000004
    vertex 55210.64124432362 55275.14666712349 22997.000000000004
    vertex 57475.23161634356 52323.875035215184 22997.000000000004
  endloop
endfacet
facet normal -1.9710122683441288e-32 -2.066023294212119e-33 1.0
  outer loop
    vertex 56624.854806696705 56689.360229496575 22997.000000000004
    vertex 57475.23161634356 52323.875035215184 22997.000000000004
    vertex 59207.28242391244 53323.87503521519 22997.000000000004
  endloop
endfacet
facet normal -1.9710122683441288e-32 -2.066023294212119e-33 1.0
  outer loop
    vertex 59207.28242391244 53323.87503521519 22997.000000000004
    vertex 57475.23161634356 52323.875035215184 22997.000000000004
    vertex 58898.812637034534 48887.046427926114 22997.000000000004
  endloop
endfacet
facet normal -1.9710122683441288e-32 -2.066023294212119e-33 1.0
  outer loop
    vertex 59207.28242391244 53323.87503521519 22997.000000000004
    vertex 58898.812637034534 48887.046427926114 22997.000000000004
    vertex 59384.369612415314 45198.875035215184 22997.000000000004
  endloop
endfacet
facet normal -1.9710122683441288e-32 -2.066023294212119e-33 1.0
  outer loop
    vertex 59207.28242391244 53323.87503521519 22997.000000000004
    vertex 59384.369612415314 45198.875035215184 22997.000000000004
    vertex 60830.66428961267 49404.68451813116 22997.000000000004
  endloop
endfacet
facet normal -1.9710122683441288e-32 -2.066023294212119e-33 1.0
  outer loop
    vertex 60830.66428961267 49404.68451813116 22997.000000000004
    vertex 59384.369612415314 45198.875035215184 22997.000000000004
    vertex 60830.66428961267 40993.06555229922 22997.000000000004
  endloop
endfacet
facet normal -1.9710122683441288e-32 -2.066023294212119e-33 1.0
  outer loop
    vertex 60830.66428961267 49404.68451813116 22997.000000000004
    vertex 60830.66428961267 40993.06555229922 22997.000000000004
    vertex 61384.369612415314 45198.875035215184 22997.000000000004
  endloop
endfacet
facet normal -0.1305261922200531 0.9914448613738104 -5.2433908353448925e-34
  outer loop
    vertex 40928.56012949934 60895.169712412535 22997.000000000004
    vertex 45134.369612415314 61448.875035215184 2997.000000000002
    vertex 40928.56012949934 60895.169712412535 2997.000000000002
  endloop
endfacet
facet normal -0.1305261922200531 0.9914448613738104 -5.2433908353448925e-34
  outer loop
    vertex 45134.369612415314 61448.875035215184 2997.000000000002
    vertex 40928.56012949934 60895.169712412535 22997.000000000004
    vertex 45134.369612415314 61448.875035215184 22997.000000000004
  endloop
endfacet
facet normal -0.3826834323650893 0.9238795325112871 -5.633980765622194e-33
  outer loop
    vertex 37009.369612415314 59271.78784671231 22997.000000000004
    vertex 40928.56012949934 60895.169712412535 2997.000000000002
    vertex 37009.369612415314 59271.78784671231 2997.000000000002
  endloop
endfacet
facet normal -0.3826834323650893 0.9238795325112871 -5.633980765622194e-33
  outer loop
    vertex 40928.56012949934 60895.169712412535 2997.000000000002
    vertex 37009.369612415314 59271.78784671231 22997.000000000004
    vertex 40928.56012949934 60895.169712412535 22997.000000000004
  endloop
endfacet
facet normal -0.6087614290087213 0.7933533402912348 -1.0359675969126248e-32
  outer loop
    vertex 33643.884418133915 56689.360229496575 22997.000000000004
    vertex 37009.369612415314 59271.78784671231 2997.000000000002
    vertex 33643.884418133915 56689.360229496575 2997.000000000002
  endloop
endfacet
facet normal -0.6087614290087213 0.7933533402912348 -1.0359675969126248e-32
  outer loop
    vertex 37009.369612415314 59271.78784671231 2997.000000000002
    vertex 33643.884418133915 56689.360229496575 22997.000000000004
    vertex 37009.369612415314 59271.78784671231 22997.000000000004
  endloop
endfacet
facet normal -0.9238795325112873 0.38268343236508884 -1.7419146044942534e-32
  outer loop
    vertex 31061.456800918186 53323.87503521518 22997.000000000004
    vertex 29438.07493521796 49404.684518131144 2997.000000000002
    vertex 29438.07493521796 49404.684518131144 22997.000000000004
  endloop
endfacet
facet normal -0.9238795325112873 0.38268343236508884 -1.7419146044942534e-32
  outer loop
    vertex 29438.07493521796 49404.684518131144 2997.000000000002
    vertex 31061.456800918186 53323.87503521518 22997.000000000004
    vertex 31061.456800918186 53323.87503521518 2997.000000000002
  endloop
endfacet
facet normal -1.0 0.0 0.0
  outer loop
    vertex 134.36961241534328 90198.87503521518 2997.000000000002
    vertex 134.36961241534328 198.87503521519014 -2.9999999999663807
    vertex 134.36961241534328 198.87503521519014 2997.000000000002
  endloop
endfacet
facet normal -1.0 0.0 0.0
  outer loop
    vertex 134.36961241534328 198.87503521519014 -2.9999999999663807
    vertex 134.36961241534328 90198.87503521518 2997.000000000002
    vertex 134.36961241534328 90198.87503521518 -2.99999999997748
  endloop
endfacet
facet normal 1.0 0.0 0.0
  outer loop
    vertex 90134.36961241529 90198.87503521518 -2.9999999999886695
    vertex 90134.36961241529 198.87503521519014 2997.000000000002
    vertex 90134.36961241529 198.87503521519014 -2.9999999999999494
  endloop
endfacet
facet normal 1.0 0.0 0.0
  outer loop
    vertex 90134.36961241529 198.87503521519014 2997.000000000002
    vertex 90134.36961241529 90198.87503521518 -2.9999999999886695
    vertex 90134.36961241529 90198.87503521518 2997.000000000002
  endloop
endfacet
facet normal -0.9914448613738106 0.13052619222005077 -1.9271829697913817e-32
  outer loop
    vertex 29438.07493521796 49404.684518131144 22997.000000000004
    vertex 28884.36961241532 45198.875035215184 2997.000000000002
    vertex 28884.36961241532 45198.875035215184 22997.000000000004
  endloop
endfacet
facet normal -0.9914448613738106 0.13052619222005077 -1.9271829697913817e-32
  outer loop
    vertex 28884.36961241532 45198.875035215184 2997.000000000002
    vertex 29438.07493521796 49404.684518131144 22997.000000000004
    vertex 29438.07493521796 49404.684518131144 2997.000000000002
  endloop
endfacet
facet normal -0.9914448613738105 -0.13052619222005057 -1.9811170005176676e-32
  outer loop
    vertex 28884.36961241532 45198.875035215184 22997.000000000004
    vertex 29438.07493521796 40993.06555229922 2997.000000000002
    vertex 29438.07493521796 40993.06555229922 22997.000000000004
  endloop
endfacet
facet normal -0.9914448613738105 -0.13052619222005057 -1.9811170005176676e-32
  outer loop
    vertex 29438.07493521796 40993.06555229922 2997.000000000002
    vertex 28884.36961241532 45198.875035215184 22997.000000000004
    vertex 28884.36961241532 45198.875035215184 2997.000000000002
  endloop
endfacet
facet normal -0.9238795325112864 -0.3826834323650906 -1.9000411816093165e-32
  outer loop
    vertex 29438.07493521796 40993.06555229922 22997.000000000004
    vertex 31061.456800918197 37073.87503521518 2997.000000000002
    vertex 31061.456800918197 37073.87503521518 22997.000000000004
  endloop
endfacet
facet normal -0.9238795325112864 -0.3826834323650906 -1.9000411816093165e-32
  outer loop
    vertex 31061.456800918197 37073.87503521518 2997.000000000002
    vertex 29438.07493521796 40993.06555229922 22997.000000000004
    vertex 29438.07493521796 40993.06555229922 2997.000000000002
  endloop
endfacet
facet normal -0.0 -0.0 1.0
  outer loop
    vertex 31369.9265877961 41510.70364250426 2997.000000000002
    vertex 45134.369612415314 45198.875035215184 2997.000000000002
    vertex 30884.369612415318 45198.875035215184 2997.000000000002
  endloop
endfacet
facet normal -0.0 -0.0 1.0
  outer loop
    vertex 45134.369612415314 45198.875035215184 2997.000000000002
    vertex 31369.9265877961 41510.70364250426 2997.000000000002
    vertex 32793.507608487074 38073.875035215184 2997.000000000002
  endloop
endfacet
facet normal -0.0 -0.0 1.0
  outer loop
    vertex 45134.369612415314 45198.875035215184 2997.000000000002
    vertex 32793.507608487074 38073.875035215184 2997.000000000002
    vertex 35058.09798050702 35122.603403306886 2997.000000000002
  endloop
endfacet
facet normal -0.0 -0.0 1.0
  outer loop
    vertex 45134.369612415314 45198.875035215184 2997.000000000002
    vertex 35058.09798050702 35122.603403306886 2997.000000000002
    vertex 38009.36961241532 32858.01303128693 2997.000000000002
  endloop
endfacet
facet normal -0.0 -0.0 1.0
  outer loop
    vertex 45134.369612415314 45198.875035215184 2997.000000000002
    vertex 38009.36961241532 32858.01303128693 2997.000000000002
    vertex 41446.1982197044 31434.43201059596 2997.000000000002
  endloop
endfacet
facet normal -0.0 -0.0 1.0
  outer loop
    vertex 45134.369612415314 45198.875035215184 2997.000000000002
    vertex 41446.1982197044 31434.43201059596 2997.000000000002
    vertex 45134.369612415314 30948.875035215184 2997.000000000002
  endloop
endfacet
facet normal -0.7933533402912353 -0.6087614290087204 -1.6894806961408065e-32
  outer loop
    vertex 31061.456800918197 37073.87503521518 22997.000000000004
    vertex 33643.88441813392 33708.389840933785 2997.000000000002
    vertex 33643.88441813392 33708.389840933785 22997.000000000004
  endloop
endfacet
facet normal -0.7933533402912353 -0.6087614290087204 -1.6894806961408065e-32
  outer loop
    vertex 33643.88441813392 33708.389840933785 2997.000000000002
    vertex 31061.456800918197 37073.87503521518 22997.000000000004
    vertex 31061.456800918197 37073.87503521518 2997.000000000002
  endloop
endfacet
facet normal -0.6087614290087198 -0.7933533402912359 -1.363784893229159e-32
  outer loop
    vertex 37009.36961241532 31125.962223718056 22997.000000000004
    vertex 33643.88441813392 33708.389840933785 2997.000000000002
    vertex 37009.36961241532 31125.962223718056 2997.000000000002
  endloop
endfacet
facet normal -0.6087614290087198 -0.7933533402912359 -1.363784893229159e-32
  outer loop
    vertex 33643.88441813392 33708.389840933785 2997.000000000002
    vertex 37009.36961241532 31125.962223718056 22997.000000000004
    vertex 33643.88441813392 33708.389840933785 22997.000000000004
  endloop
endfacet
facet normal 0.0 1.0 0.0
  outer loop
    vertex 134.36961241534328 90198.87503521518 -2.99999999997748
    vertex 90134.36961241529 90198.87503521518 2997.000000000002
    vertex 90134.36961241529 90198.87503521518 -2.9999999999886695
  endloop
endfacet
facet normal 0.0 1.0 0.0
  outer loop
    vertex 90134.36961241529 90198.87503521518 2997.000000000002
    vertex 134.36961241534328 90198.87503521518 -2.99999999997748
    vertex 134.36961241534328 90198.87503521518 2997.000000000002
  endloop
endfacet
endsolid LinkagePVCSlide
