solid NewBeaconPusherFTC
facet normal 0.9914448613738099 -0.0 -0.13052619222005585
  outer loop
    vertex 57266.90666379076 61135.70474198577 55149.99999999998
    vertex 57335.05501121262 41135.704741985806 55667.63809020502
    vertex 57266.90666379076 41135.704741985806 55149.99999999998
  endloop
endfacet
facet normal 0.9914448613738099 -0.0 -0.13052619222005585
  outer loop
    vertex 57335.05501121262 41135.704741985806 55667.63809020502
    vertex 57266.90666379076 61135.70474198577 55149.99999999998
    vertex 57335.05501121262 61135.70474198577 55667.63809020502
  endloop
endfacet
facet normal 0.9238795325112906 -0.0 -0.3826834323650805
  outer loop
    vertex 57335.05501121262 61135.70474198577 55667.63809020502
    vertex 57534.855856221875 41135.704741985806 56149.99999999998
    vertex 57335.05501121262 41135.704741985806 55667.63809020502
  endloop
endfacet
facet normal 0.9238795325112906 -0.0 -0.3826834323650805
  outer loop
    vertex 57534.855856221875 41135.704741985806 56149.99999999998
    vertex 57335.05501121262 61135.70474198577 55667.63809020502
    vertex 57534.855856221875 61135.70474198577 56149.99999999998
  endloop
endfacet
facet normal 0.7933533402912228 -0.0 -0.6087614290087368
  outer loop
    vertex 57534.855856221875 61135.70474198577 56149.99999999998
    vertex 57852.693101417666 41135.704741985806 56564.213562373065
    vertex 57534.855856221875 41135.704741985806 56149.99999999998
  endloop
endfacet
facet normal 0.7933533402912228 -0.0 -0.6087614290087368
  outer loop
    vertex 57852.693101417666 41135.704741985806 56564.213562373065
    vertex 57534.855856221875 61135.70474198577 56149.99999999998
    vertex 57852.693101417666 61135.70474198577 56564.213562373065
  endloop
endfacet
facet normal 0.6087614290087261 -0.0 -0.7933533402912312
  outer loop
    vertex 58266.90666379076 61135.70474198577 56882.050807568856
    vertex 57852.693101417666 41135.704741985806 56564.213562373065
    vertex 57852.693101417666 61135.70474198577 56564.213562373065
  endloop
endfacet
facet normal 0.6087614290087261 -0.0 -0.7933533402912312
  outer loop
    vertex 57852.693101417666 41135.704741985806 56564.213562373065
    vertex 58266.90666379076 61135.70474198577 56882.050807568856
    vertex 58266.90666379076 41135.704741985806 56882.050807568856
  endloop
endfacet
facet normal 0.3826834323650884 -0.0 -0.9238795325112875
  outer loop
    vertex 58749.26857358571 61135.70474198577 57081.85165257811
    vertex 58266.90666379076 41135.704741985806 56882.050807568856
    vertex 58266.90666379076 61135.70474198577 56882.050807568856
  endloop
endfacet
facet normal 0.3826834323650884 -0.0 -0.9238795325112875
  outer loop
    vertex 58266.90666379076 41135.704741985806 56882.050807568856
    vertex 58749.26857358571 61135.70474198577 57081.85165257811
    vertex 58749.26857358571 41135.704741985806 57081.85165257811
  endloop
endfacet
facet normal 0.13052619222005585 -0.0 -0.9914448613738099
  outer loop
    vertex 59266.90666379075 61135.70474198577 57149.99999999997
    vertex 58749.26857358571 41135.704741985806 57081.85165257811
    vertex 58749.26857358571 61135.70474198577 57081.85165257811
  endloop
endfacet
facet normal 0.13052619222005585 -0.0 -0.9914448613738099
  outer loop
    vertex 58749.26857358571 41135.704741985806 57081.85165257811
    vertex 59266.90666379075 61135.70474198577 57149.99999999997
    vertex 59266.90666379075 41135.704741985806 57149.99999999997
  endloop
endfacet
facet normal -0.13052619222005585 -0.0 -0.9914448613738099
  outer loop
    vertex 59784.5447539958 61135.70474198577 57081.85165257811
    vertex 59266.90666379075 41135.704741985806 57149.99999999997
    vertex 59266.90666379075 61135.70474198577 57149.99999999997
  endloop
endfacet
facet normal -0.13052619222005585 -0.0 -0.9914448613738099
  outer loop
    vertex 59266.90666379075 41135.704741985806 57149.99999999997
    vertex 59784.5447539958 61135.70474198577 57081.85165257811
    vertex 59784.5447539958 41135.704741985806 57081.85165257811
  endloop
endfacet
facet normal -0.3826834323650805 -0.0 -0.9238795325112906
  outer loop
    vertex 60266.90666379075 61135.70474198577 56882.050807568856
    vertex 59784.5447539958 41135.704741985806 57081.85165257811
    vertex 59784.5447539958 61135.70474198577 57081.85165257811
  endloop
endfacet
facet normal -0.3826834323650805 -0.0 -0.9238795325112906
  outer loop
    vertex 59784.5447539958 41135.704741985806 57081.85165257811
    vertex 60266.90666379075 61135.70474198577 56882.050807568856
    vertex 60266.90666379075 41135.704741985806 56882.050807568856
  endloop
endfacet
facet normal -0.6087614290087368 -0.0 -0.7933533402912228
  outer loop
    vertex 60681.12022616384 61135.70474198577 56564.213562373065
    vertex 60266.90666379075 41135.704741985806 56882.050807568856
    vertex 60266.90666379075 61135.70474198577 56882.050807568856
  endloop
endfacet
facet normal -0.6087614290087368 -0.0 -0.7933533402912228
  outer loop
    vertex 60266.90666379075 41135.704741985806 56882.050807568856
    vertex 60681.12022616384 61135.70474198577 56564.213562373065
    vertex 60681.12022616384 41135.704741985806 56564.213562373065
  endloop
endfacet
facet normal -0.7933533402912312 -0.0 -0.6087614290087261
  outer loop
    vertex 60681.12022616384 61135.70474198577 56564.213562373065
    vertex 60998.95747135963 41135.704741985806 56149.99999999997
    vertex 60681.12022616384 41135.704741985806 56564.213562373065
  endloop
endfacet
facet normal -0.7933533402912312 -0.0 -0.6087614290087261
  outer loop
    vertex 60998.95747135963 41135.704741985806 56149.99999999997
    vertex 60681.12022616384 61135.70474198577 56564.213562373065
    vertex 60998.95747135963 61135.70474198577 56149.99999999997
  endloop
endfacet
facet normal -0.9238795325112875 -0.0 -0.3826834323650884
  outer loop
    vertex 60998.95747135963 61135.70474198577 56149.99999999997
    vertex 61198.75831636888 41135.704741985806 55667.63809020502
    vertex 60998.95747135963 41135.704741985806 56149.99999999997
  endloop
endfacet
facet normal -0.9238795325112875 -0.0 -0.3826834323650884
  outer loop
    vertex 61198.75831636888 41135.704741985806 55667.63809020502
    vertex 60998.95747135963 61135.70474198577 56149.99999999997
    vertex 61198.75831636888 61135.70474198577 55667.63809020502
  endloop
endfacet
facet normal -0.9914448613738099 -0.0 -0.13052619222005585
  outer loop
    vertex 61198.75831636888 61135.70474198577 55667.63809020502
    vertex 61266.906663790745 41135.704741985806 55149.99999999998
    vertex 61198.75831636888 41135.704741985806 55667.63809020502
  endloop
endfacet
facet normal -0.9914448613738099 -0.0 -0.13052619222005585
  outer loop
    vertex 61266.906663790745 41135.704741985806 55149.99999999998
    vertex 61198.75831636888 61135.70474198577 55667.63809020502
    vertex 61266.906663790745 61135.70474198577 55149.99999999998
  endloop
endfacet
facet normal -0.9914448613738099 -0.0 0.13052619222005585
  outer loop
    vertex 61266.906663790745 61135.70474198577 55149.99999999998
    vertex 61198.75831636888 41135.704741985806 54632.361909794934
    vertex 61266.906663790745 41135.704741985806 55149.99999999998
  endloop
endfacet
facet normal -0.9914448613738099 -0.0 0.13052619222005585
  outer loop
    vertex 61198.75831636888 41135.704741985806 54632.361909794934
    vertex 61266.906663790745 61135.70474198577 55149.99999999998
    vertex 61198.75831636888 61135.70474198577 54632.361909794934
  endloop
endfacet
facet normal -0.9238795325112906 -0.0 0.3826834323650805
  outer loop
    vertex 61198.75831636888 61135.70474198577 54632.361909794934
    vertex 60998.95747135963 41135.704741985806 54149.99999999997
    vertex 61198.75831636888 41135.704741985806 54632.361909794934
  endloop
endfacet
facet normal -0.9238795325112906 -0.0 0.3826834323650805
  outer loop
    vertex 60998.95747135963 41135.704741985806 54149.99999999997
    vertex 61198.75831636888 61135.70474198577 54632.361909794934
    vertex 60998.95747135963 61135.70474198577 54149.99999999997
  endloop
endfacet
facet normal -0.7933533402912228 -0.0 0.6087614290087368
  outer loop
    vertex 60998.95747135963 61135.70474198577 54149.99999999997
    vertex 60681.12022616384 41135.704741985806 53735.78643762689
    vertex 60998.95747135963 41135.704741985806 54149.99999999997
  endloop
endfacet
facet normal -0.7933533402912228 -0.0 0.6087614290087368
  outer loop
    vertex 60681.12022616384 41135.704741985806 53735.78643762689
    vertex 60998.95747135963 61135.70474198577 54149.99999999997
    vertex 60681.12022616384 61135.70474198577 53735.78643762689
  endloop
endfacet
facet normal -0.6087614290087261 -0.0 0.7933533402912312
  outer loop
    vertex 60681.12022616384 41135.704741985806 53735.78643762689
    vertex 60266.906663790745 61135.70474198577 53417.9491924311
    vertex 60266.906663790745 41135.704741985806 53417.9491924311
  endloop
endfacet
facet normal -0.6087614290087261 -0.0 0.7933533402912312
  outer loop
    vertex 60266.906663790745 61135.70474198577 53417.9491924311
    vertex 60681.12022616384 41135.704741985806 53735.78643762689
    vertex 60681.12022616384 61135.70474198577 53735.78643762689
  endloop
endfacet
facet normal -0.3826834323650884 -0.0 0.9238795325112875
  outer loop
    vertex 60266.906663790745 41135.704741985806 53417.9491924311
    vertex 59784.5447539958 61135.70474198577 53218.14834742185
    vertex 59784.5447539958 41135.704741985806 53218.14834742185
  endloop
endfacet
facet normal -0.3826834323650884 -0.0 0.9238795325112875
  outer loop
    vertex 59784.5447539958 61135.70474198577 53218.14834742185
    vertex 60266.906663790745 41135.704741985806 53417.9491924311
    vertex 60266.906663790745 61135.70474198577 53417.9491924311
  endloop
endfacet
facet normal -0.0 1.0 -0.0
  outer loop
    vertex 14266.906663790742 96135.70474198577 10000.0
    vertex 104266.90666379068 96135.70474198577 5000.0
    vertex 14266.906663790742 96135.70474198577 5000.0
  endloop
endfacet
facet normal -0.0 1.0 -0.0
  outer loop
    vertex 104266.90666379068 96135.70474198577 5000.0
    vertex 14266.906663790742 96135.70474198577 10000.0
    vertex 104266.90666379068 96135.70474198577 10000.0
  endloop
endfacet
facet normal 1.0 -0.0 -0.0
  outer loop
    vertex 104266.90666379068 96135.70474198577 5000.0
    vertex 104266.90666379068 6135.704741985767 10000.0
    vertex 104266.90666379068 6135.704741985767 5000.0
  endloop
endfacet
facet normal 1.0 -0.0 -0.0
  outer loop
    vertex 104266.90666379068 6135.704741985767 10000.0
    vertex 104266.90666379068 96135.70474198577 5000.0
    vertex 104266.90666379068 96135.70474198577 10000.0
  endloop
endfacet
facet normal -1.0 0.0 0.0
  outer loop
    vertex 14266.906663790742 96135.70474198577 10000.0
    vertex 14266.906663790742 6135.704741985767 5000.0
    vertex 14266.906663790742 6135.704741985767 10000.0
  endloop
endfacet
facet normal -1.0 0.0 0.0
  outer loop
    vertex 14266.906663790742 6135.704741985767 5000.0
    vertex 14266.906663790742 96135.70474198577 10000.0
    vertex 14266.906663790742 96135.70474198577 5000.0
  endloop
endfacet
facet normal -0.0 -0.0 1.0
  outer loop
    vertex 14266.906663790742 6135.704741985767 10000.0
    vertex 49266.906663790774 41135.70474198576 9999.999999999998
    vertex 14266.906663790742 96135.70474198577 10000.0
  endloop
endfacet
facet normal -0.0 -0.0 1.0
  outer loop
    vertex 49266.906663790774 41135.70474198576 9999.999999999998
    vertex 14266.906663790742 6135.704741985767 10000.0
    vertex 104266.90666379068 6135.704741985767 10000.0
  endloop
endfacet
facet normal -0.0 -0.0 1.0
  outer loop
    vertex 49266.906663790774 41135.70474198576 9999.999999999998
    vertex 104266.90666379068 6135.704741985767 10000.0
    vertex 69266.90666379075 41135.70474198576 9999.999999999998
  endloop
endfacet
facet normal -0.0 -0.0 1.0
  outer loop
    vertex 69266.90666379075 41135.70474198576 9999.999999999998
    vertex 104266.90666379068 6135.704741985767 10000.0
    vertex 69266.90666379075 61135.70474198577 9999.999999999998
  endloop
endfacet
facet normal -0.0 -0.0 1.0
  outer loop
    vertex 14266.906663790742 96135.70474198577 10000.0
    vertex 49266.906663790774 61135.70474198577 9999.999999999998
    vertex 104266.90666379068 96135.70474198577 10000.0
  endloop
endfacet
facet normal -0.0 -0.0 1.0
  outer loop
    vertex 49266.906663790774 61135.70474198577 9999.999999999998
    vertex 14266.906663790742 96135.70474198577 10000.0
    vertex 49266.906663790774 41135.70474198576 9999.999999999998
  endloop
endfacet
facet normal -0.0 -0.0 1.0
  outer loop
    vertex 104266.90666379068 96135.70474198577 10000.0
    vertex 49266.906663790774 61135.70474198577 9999.999999999998
    vertex 69266.90666379075 61135.70474198577 9999.999999999998
  endloop
endfacet
facet normal -0.0 -0.0 1.0
  outer loop
    vertex 104266.90666379068 96135.70474198577 10000.0
    vertex 69266.90666379075 61135.70474198577 9999.999999999998
    vertex 104266.90666379068 6135.704741985767 10000.0
  endloop
endfacet
facet normal 0.0 -1.0 0.0
  outer loop
    vertex 104266.90666379068 6135.704741985767 10000.0
    vertex 14266.906663790742 6135.704741985767 5000.0
    vertex 104266.90666379068 6135.704741985767 5000.0
  endloop
endfacet
facet normal 0.0 -1.0 0.0
  outer loop
    vertex 14266.906663790742 6135.704741985767 5000.0
    vertex 104266.90666379068 6135.704741985767 10000.0
    vertex 14266.906663790742 6135.704741985767 10000.0
  endloop
endfacet
facet normal 0.0 0.0 -1.0
  outer loop
    vertex 104266.90666379068 96135.70474198577 5000.0
    vertex 14266.906663790742 6135.704741985767 5000.0
    vertex 14266.906663790742 96135.70474198577 5000.0
  endloop
endfacet
facet normal 0.0 0.0 -1.0
  outer loop
    vertex 14266.906663790742 6135.704741985767 5000.0
    vertex 104266.90666379068 96135.70474198577 5000.0
    vertex 104266.90666379068 6135.704741985767 5000.0
  endloop
endfacet
facet normal -1.0 0.0 0.0
  outer loop
    vertex 49266.906663790774 61135.70474198577 63149.999999999985
    vertex 49266.906663790774 41135.70474198576 9999.999999999998
    vertex 49266.906663790774 41135.70474198576 63149.999999999985
  endloop
endfacet
facet normal -1.0 0.0 0.0
  outer loop
    vertex 49266.906663790774 41135.70474198576 9999.999999999998
    vertex 49266.906663790774 61135.70474198577 63149.999999999985
    vertex 49266.906663790774 61135.70474198577 9999.999999999998
  endloop
endfacet
facet normal -0.0 1.0 -0.0
  outer loop
    vertex 49266.906663790774 61135.70474198577 9999.999999999998
    vertex 57852.693101417666 61135.70474198577 21735.786437626884
    vertex 69266.90666379075 61135.70474198577 9999.999999999998
  endloop
endfacet
facet normal -0.0 1.0 -0.0
  outer loop
    vertex 57852.693101417666 61135.70474198577 21735.786437626884
    vertex 49266.906663790774 61135.70474198577 9999.999999999998
    vertex 57534.855856221875 61135.70474198577 22149.99999999998
  endloop
endfacet
facet normal -0.0 1.0 -0.0
  outer loop
    vertex 57534.855856221875 61135.70474198577 22149.99999999998
    vertex 49266.906663790774 61135.70474198577 9999.999999999998
    vertex 57335.05501121262 61135.70474198577 22632.361909794938
  endloop
endfacet
facet normal -0.0 1.0 -0.0
  outer loop
    vertex 57335.05501121262 61135.70474198577 22632.361909794938
    vertex 49266.906663790774 61135.70474198577 9999.999999999998
    vertex 49266.906663790774 61135.70474198577 63149.999999999985
  endloop
endfacet
facet normal -0.0 1.0 -0.0
  outer loop
    vertex 69266.90666379075 61135.70474198577 9999.999999999998
    vertex 57852.693101417666 61135.70474198577 21735.786437626884
    vertex 58266.90666379076 61135.70474198577 21417.949192431104
  endloop
endfacet
facet normal -0.0 1.0 -0.0
  outer loop
    vertex 69266.90666379075 61135.70474198577 9999.999999999998
    vertex 58266.90666379076 61135.70474198577 21417.949192431104
    vertex 58749.26857358571 61135.70474198577 21218.148347421848
  endloop
endfacet
facet normal -0.0 1.0 -0.0
  outer loop
    vertex 69266.90666379075 61135.70474198577 9999.999999999998
    vertex 58749.26857358571 61135.70474198577 21218.148347421848
    vertex 59266.90666379075 61135.70474198577 21149.99999999998
  endloop
endfacet
facet normal -0.0 1.0 -0.0
  outer loop
    vertex 57335.05501121262 61135.70474198577 22632.361909794938
    vertex 49266.906663790774 61135.70474198577 63149.999999999985
    vertex 57266.90666379076 61135.70474198577 23149.999999999978
  endloop
endfacet
facet normal -0.0 1.0 -0.0
  outer loop
    vertex 57266.90666379076 61135.70474198577 23149.999999999978
    vertex 49266.906663790774 61135.70474198577 63149.999999999985
    vertex 57335.05501121262 61135.70474198577 23667.63809020502
  endloop
endfacet
facet normal -0.0 1.0 -0.0
  outer loop
    vertex 57335.05501121262 61135.70474198577 23667.63809020502
    vertex 49266.906663790774 61135.70474198577 63149.999999999985
    vertex 57534.855856221875 61135.70474198577 24149.999999999978
  endloop
endfacet
facet normal -0.0 1.0 -0.0
  outer loop
    vertex 57534.855856221875 61135.70474198577 24149.999999999978
    vertex 49266.906663790774 61135.70474198577 63149.999999999985
    vertex 57852.693101417666 61135.70474198577 24564.21356237307
  endloop
endfacet
facet normal -0.0 1.0 -0.0
  outer loop
    vertex 57852.693101417666 61135.70474198577 24564.21356237307
    vertex 49266.906663790774 61135.70474198577 63149.999999999985
    vertex 58266.906663790745 61135.70474198577 24882.050807568852
  endloop
endfacet
facet normal -0.0 1.0 -0.0
  outer loop
    vertex 58266.906663790745 61135.70474198577 24882.050807568852
    vertex 49266.906663790774 61135.70474198577 63149.999999999985
    vertex 58749.26857358571 61135.70474198577 25081.851652578112
  endloop
endfacet
facet normal -0.0 1.0 -0.0
  outer loop
    vertex 58749.26857358571 61135.70474198577 25081.851652578112
    vertex 49266.906663790774 61135.70474198577 63149.999999999985
    vertex 59266.90666379075 61135.70474198577 25149.999999999975
  endloop
endfacet
facet normal -0.0 1.0 -0.0
  outer loop
    vertex 59266.90666379075 61135.70474198577 25149.999999999975
    vertex 49266.906663790774 61135.70474198577 63149.999999999985
    vertex 57335.05501121261 61135.70474198577 38632.36190979494
  endloop
endfacet
facet normal -0.0 1.0 -0.0
  outer loop
    vertex 59266.90666379075 61135.70474198577 25149.999999999975
    vertex 57335.05501121261 61135.70474198577 38632.36190979494
    vertex 57534.855856221875 61135.70474198577 38149.999999999985
  endloop
endfacet
facet normal -0.0 1.0 -0.0
  outer loop
    vertex 59266.90666379075 61135.70474198577 25149.999999999975
    vertex 57534.855856221875 61135.70474198577 38149.999999999985
    vertex 57852.69310141765 61135.70474198577 37735.78643762689
  endloop
endfacet
facet normal -0.0 1.0 -0.0
  outer loop
    vertex 59266.90666379075 61135.70474198577 25149.999999999975
    vertex 57852.69310141765 61135.70474198577 37735.78643762689
    vertex 58266.906663790745 61135.70474198577 37417.9491924311
  endloop
endfacet
facet normal -0.0 1.0 -0.0
  outer loop
    vertex 59266.90666379075 61135.70474198577 25149.999999999975
    vertex 58266.906663790745 61135.70474198577 37417.9491924311
    vertex 58749.26857358571 61135.70474198577 37218.14834742185
  endloop
endfacet
facet normal -0.0 1.0 -0.0
  outer loop
    vertex 59266.90666379075 61135.70474198577 25149.999999999975
    vertex 58749.26857358571 61135.70474198577 37218.14834742185
    vertex 59266.90666379075 61135.70474198577 37149.999999999985
  endloop
endfacet
facet normal -0.0 1.0 -0.0
  outer loop
    vertex 57335.05501121261 61135.70474198577 38632.36190979494
    vertex 49266.906663790774 61135.70474198577 63149.999999999985
    vertex 57266.906663790745 61135.70474198577 39149.999999999985
  endloop
endfacet
facet normal -0.0 1.0 -0.0
  outer loop
    vertex 57266.906663790745 61135.70474198577 39149.999999999985
    vertex 49266.906663790774 61135.70474198577 63149.999999999985
    vertex 57335.05501121261 61135.70474198577 39667.63809020503
  endloop
endfacet
facet normal -0.0 1.0 -0.0
  outer loop
    vertex 57335.05501121261 61135.70474198577 39667.63809020503
    vertex 49266.906663790774 61135.70474198577 63149.999999999985
    vertex 57534.855856221875 61135.70474198577 40149.999999999985
  endloop
endfacet
facet normal -0.0 1.0 -0.0
  outer loop
    vertex 57534.855856221875 61135.70474198577 40149.999999999985
    vertex 49266.906663790774 61135.70474198577 63149.999999999985
    vertex 57852.69310141765 61135.70474198577 40564.21356237309
  endloop
endfacet
facet normal -0.0 1.0 -0.0
  outer loop
    vertex 57852.69310141765 61135.70474198577 40564.21356237309
    vertex 49266.906663790774 61135.70474198577 63149.999999999985
    vertex 58266.906663790745 61135.70474198577 40882.05080756886
  endloop
endfacet
facet normal -0.0 1.0 -0.0
  outer loop
    vertex 58266.906663790745 61135.70474198577 40882.05080756886
    vertex 49266.906663790774 61135.70474198577 63149.999999999985
    vertex 58749.26857358571 61135.70474198577 41081.85165257812
  endloop
endfacet
facet normal -0.0 1.0 -0.0
  outer loop
    vertex 58749.26857358571 61135.70474198577 41081.85165257812
    vertex 49266.906663790774 61135.70474198577 63149.999999999985
    vertex 59266.90666379075 61135.70474198577 41149.999999999985
  endloop
endfacet
facet normal -0.0 1.0 -0.0
  outer loop
    vertex 59266.90666379075 61135.70474198577 41149.999999999985
    vertex 49266.906663790774 61135.70474198577 63149.999999999985
    vertex 57852.693101417666 61135.70474198577 53735.78643762689
  endloop
endfacet
facet normal -0.0 1.0 -0.0
  outer loop
    vertex 59266.90666379075 61135.70474198577 41149.999999999985
    vertex 57852.693101417666 61135.70474198577 53735.78643762689
    vertex 58266.906663790745 61135.70474198577 53417.9491924311
  endloop
endfacet
facet normal -0.0 1.0 -0.0
  outer loop
    vertex 59266.90666379075 61135.70474198577 41149.999999999985
    vertex 58266.906663790745 61135.70474198577 53417.9491924311
    vertex 58749.26857358571 61135.70474198577 53218.14834742185
  endloop
endfacet
facet normal -0.0 1.0 -0.0
  outer loop
    vertex 59266.90666379075 61135.70474198577 41149.999999999985
    vertex 58749.26857358571 61135.70474198577 53218.14834742185
    vertex 59266.90666379075 61135.70474198577 53149.999999999985
  endloop
endfacet
facet normal -0.0 1.0 -0.0
  outer loop
    vertex 57852.693101417666 61135.70474198577 53735.78643762689
    vertex 49266.906663790774 61135.70474198577 63149.999999999985
    vertex 57534.855856221875 61135.70474198577 54149.999999999985
  endloop
endfacet
facet normal -0.0 1.0 -0.0
  outer loop
    vertex 57534.855856221875 61135.70474198577 54149.999999999985
    vertex 49266.906663790774 61135.70474198577 63149.999999999985
    vertex 57335.05501121262 61135.70474198577 54632.361909794934
  endloop
endfacet
facet normal -0.0 1.0 -0.0
  outer loop
    vertex 57335.05501121262 61135.70474198577 54632.361909794934
    vertex 49266.906663790774 61135.70474198577 63149.999999999985
    vertex 57266.90666379076 61135.70474198577 55149.99999999998
  endloop
endfacet
facet normal -0.0 1.0 -0.0
  outer loop
    vertex 57266.90666379076 61135.70474198577 55149.99999999998
    vertex 49266.906663790774 61135.70474198577 63149.999999999985
    vertex 57335.05501121262 61135.70474198577 55667.63809020502
  endloop
endfacet
facet normal -0.0 1.0 -0.0
  outer loop
    vertex 57335.05501121262 61135.70474198577 55667.63809020502
    vertex 49266.906663790774 61135.70474198577 63149.999999999985
    vertex 57534.855856221875 61135.70474198577 56149.99999999998
  endloop
endfacet
facet normal -0.0 1.0 -0.0
  outer loop
    vertex 57534.855856221875 61135.70474198577 56149.99999999998
    vertex 49266.906663790774 61135.70474198577 63149.999999999985
    vertex 57852.693101417666 61135.70474198577 56564.213562373065
  endloop
endfacet
facet normal -0.0 1.0 -0.0
  outer loop
    vertex 57852.693101417666 61135.70474198577 56564.213562373065
    vertex 49266.906663790774 61135.70474198577 63149.999999999985
    vertex 58266.90666379076 61135.70474198577 56882.050807568856
  endloop
endfacet
facet normal -0.0 1.0 -0.0
  outer loop
    vertex 58266.90666379076 61135.70474198577 56882.050807568856
    vertex 49266.906663790774 61135.70474198577 63149.999999999985
    vertex 58749.26857358571 61135.70474198577 57081.85165257811
  endloop
endfacet
facet normal -0.0 1.0 -0.0
  outer loop
    vertex 58749.26857358571 61135.70474198577 57081.85165257811
    vertex 49266.906663790774 61135.70474198577 63149.999999999985
    vertex 59266.90666379075 61135.70474198577 57149.99999999997
  endloop
endfacet
facet normal -0.0 1.0 -0.0
  outer loop
    vertex 69266.90666379075 61135.70474198577 9999.999999999998
    vertex 61198.75831636888 61135.70474198577 22632.36190979494
    vertex 69266.90666379075 61135.70474198577 63149.999999999985
  endloop
endfacet
facet normal -0.0 1.0 -0.0
  outer loop
    vertex 61198.75831636888 61135.70474198577 22632.36190979494
    vertex 69266.90666379075 61135.70474198577 9999.999999999998
    vertex 60998.95747135963 61135.70474198577 22149.99999999998
  endloop
endfacet
facet normal -0.0 1.0 -0.0
  outer loop
    vertex 60998.95747135963 61135.70474198577 22149.99999999998
    vertex 69266.90666379075 61135.70474198577 9999.999999999998
    vertex 60681.12022616384 61135.70474198577 21735.786437626888
  endloop
endfacet
facet normal -0.0 1.0 -0.0
  outer loop
    vertex 60681.12022616384 61135.70474198577 21735.786437626888
    vertex 69266.90666379075 61135.70474198577 9999.999999999998
    vertex 60266.90666379075 61135.70474198577 21417.949192431104
  endloop
endfacet
facet normal -0.0 1.0 -0.0
  outer loop
    vertex 60266.90666379075 61135.70474198577 21417.949192431104
    vertex 69266.90666379075 61135.70474198577 9999.999999999998
    vertex 59784.5447539958 61135.70474198577 21218.148347421848
  endloop
endfacet
facet normal -0.0 1.0 -0.0
  outer loop
    vertex 59784.5447539958 61135.70474198577 21218.148347421848
    vertex 69266.90666379075 61135.70474198577 9999.999999999998
    vertex 59266.90666379075 61135.70474198577 21149.99999999998
  endloop
endfacet
facet normal -0.0 1.0 -0.0
  outer loop
    vertex 69266.90666379075 61135.70474198577 63149.999999999985
    vertex 61198.75831636888 61135.70474198577 22632.36190979494
    vertex 61266.906663790745 61135.70474198577 23149.999999999978
  endloop
endfacet
facet normal -0.0 1.0 -0.0
  outer loop
    vertex 69266.90666379075 61135.70474198577 63149.999999999985
    vertex 61266.906663790745 61135.70474198577 23149.999999999978
    vertex 61198.75831636888 61135.70474198577 23667.638090205022
  endloop
endfacet
facet normal -0.0 1.0 -0.0
  outer loop
    vertex 69266.90666379075 61135.70474198577 63149.999999999985
    vertex 61198.75831636888 61135.70474198577 23667.638090205022
    vertex 60998.95747135963 61135.70474198577 24149.999999999978
  endloop
endfacet
facet normal -0.0 1.0 -0.0
  outer loop
    vertex 69266.90666379075 61135.70474198577 63149.999999999985
    vertex 60998.95747135963 61135.70474198577 24149.999999999978
    vertex 60681.12022616384 61135.70474198577 24564.213562373072
  endloop
endfacet
facet normal -0.0 1.0 -0.0
  outer loop
    vertex 69266.90666379075 61135.70474198577 63149.999999999985
    vertex 60681.12022616384 61135.70474198577 24564.213562373072
    vertex 60266.906663790745 61135.70474198577 24882.050807568852
  endloop
endfacet
facet normal -0.0 1.0 -0.0
  outer loop
    vertex 69266.90666379075 61135.70474198577 63149.999999999985
    vertex 60266.906663790745 61135.70474198577 24882.050807568852
    vertex 59784.5447539958 61135.70474198577 25081.851652578112
  endloop
endfacet
facet normal -0.0 1.0 -0.0
  outer loop
    vertex 69266.90666379075 61135.70474198577 63149.999999999985
    vertex 59784.5447539958 61135.70474198577 25081.851652578112
    vertex 59266.90666379075 61135.70474198577 25149.999999999975
  endloop
endfacet
facet normal -0.0 1.0 -0.0
  outer loop
    vertex 69266.90666379075 61135.70474198577 63149.999999999985
    vertex 59266.90666379075 61135.70474198577 25149.999999999975
    vertex 61198.75831636889 61135.70474198577 38632.36190979494
  endloop
endfacet
facet normal -0.0 1.0 -0.0
  outer loop
    vertex 61198.75831636889 61135.70474198577 38632.36190979494
    vertex 59266.90666379075 61135.70474198577 25149.999999999975
    vertex 60998.95747135963 61135.70474198577 38149.99999999998
  endloop
endfacet
facet normal -0.0 1.0 -0.0
  outer loop
    vertex 60998.95747135963 61135.70474198577 38149.99999999998
    vertex 59266.90666379075 61135.70474198577 25149.999999999975
    vertex 60681.120226163854 61135.70474198577 37735.78643762689
  endloop
endfacet
facet normal -0.0 1.0 -0.0
  outer loop
    vertex 60681.120226163854 61135.70474198577 37735.78643762689
    vertex 59266.90666379075 61135.70474198577 25149.999999999975
    vertex 60266.90666379075 61135.70474198577 37417.9491924311
  endloop
endfacet
facet normal -0.0 1.0 -0.0
  outer loop
    vertex 60266.90666379075 61135.70474198577 37417.9491924311
    vertex 59266.90666379075 61135.70474198577 25149.999999999975
    vertex 59784.5447539958 61135.70474198577 37218.14834742185
  endloop
endfacet
facet normal -0.0 1.0 -0.0
  outer loop
    vertex 59784.5447539958 61135.70474198577 37218.14834742185
    vertex 59266.90666379075 61135.70474198577 25149.999999999975
    vertex 59266.90666379075 61135.70474198577 37149.999999999985
  endloop
endfacet
facet normal -0.0 1.0 -0.0
  outer loop
    vertex 69266.90666379075 61135.70474198577 63149.999999999985
    vertex 61198.75831636889 61135.70474198577 38632.36190979494
    vertex 61266.90666379076 61135.70474198577 39149.999999999985
  endloop
endfacet
facet normal -0.0 1.0 -0.0
  outer loop
    vertex 69266.90666379075 61135.70474198577 63149.999999999985
    vertex 61266.90666379076 61135.70474198577 39149.999999999985
    vertex 61198.75831636889 61135.70474198577 39667.63809020503
  endloop
endfacet
facet normal -0.0 1.0 -0.0
  outer loop
    vertex 69266.90666379075 61135.70474198577 63149.999999999985
    vertex 61198.75831636889 61135.70474198577 39667.63809020503
    vertex 60998.95747135963 61135.70474198577 40149.999999999985
  endloop
endfacet
facet normal -0.0 1.0 -0.0
  outer loop
    vertex 69266.90666379075 61135.70474198577 63149.999999999985
    vertex 60998.95747135963 61135.70474198577 40149.999999999985
    vertex 60681.120226163854 61135.70474198577 40564.21356237308
  endloop
endfacet
facet normal -0.0 1.0 -0.0
  outer loop
    vertex 69266.90666379075 61135.70474198577 63149.999999999985
    vertex 60681.120226163854 61135.70474198577 40564.21356237308
    vertex 60266.90666379075 61135.70474198577 40882.05080756886
  endloop
endfacet
facet normal -0.0 1.0 -0.0
  outer loop
    vertex 69266.90666379075 61135.70474198577 63149.999999999985
    vertex 60266.90666379075 61135.70474198577 40882.05080756886
    vertex 59784.5447539958 61135.70474198577 41081.85165257812
  endloop
endfacet
facet normal -0.0 1.0 -0.0
  outer loop
    vertex 69266.90666379075 61135.70474198577 63149.999999999985
    vertex 59784.5447539958 61135.70474198577 41081.85165257812
    vertex 59266.90666379075 61135.70474198577 41149.999999999985
  endloop
endfacet
facet normal -0.0 1.0 -0.0
  outer loop
    vertex 69266.90666379075 61135.70474198577 63149.999999999985
    vertex 59266.90666379075 61135.70474198577 41149.999999999985
    vertex 60681.12022616384 61135.70474198577 53735.78643762689
  endloop
endfacet
facet normal -0.0 1.0 -0.0
  outer loop
    vertex 60681.12022616384 61135.70474198577 53735.78643762689
    vertex 59266.90666379075 61135.70474198577 41149.999999999985
    vertex 60266.906663790745 61135.70474198577 53417.9491924311
  endloop
endfacet
facet normal -0.0 1.0 -0.0
  outer loop
    vertex 60266.906663790745 61135.70474198577 53417.9491924311
    vertex 59266.90666379075 61135.70474198577 41149.999999999985
    vertex 59784.5447539958 61135.70474198577 53218.14834742185
  endloop
endfacet
facet normal -0.0 1.0 -0.0
  outer loop
    vertex 59784.5447539958 61135.70474198577 53218.14834742185
    vertex 59266.90666379075 61135.70474198577 41149.999999999985
    vertex 59266.90666379075 61135.70474198577 53149.999999999985
  endloop
endfacet
facet normal -0.0 1.0 -0.0
  outer loop
    vertex 69266.90666379075 61135.70474198577 63149.999999999985
    vertex 60681.12022616384 61135.70474198577 53735.78643762689
    vertex 60998.95747135963 61135.70474198577 54149.99999999997
  endloop
endfacet
facet normal -0.0 1.0 -0.0
  outer loop
    vertex 69266.90666379075 61135.70474198577 63149.999999999985
    vertex 60998.95747135963 61135.70474198577 54149.99999999997
    vertex 61198.75831636888 61135.70474198577 54632.361909794934
  endloop
endfacet
facet normal -0.0 1.0 -0.0
  outer loop
    vertex 69266.90666379075 61135.70474198577 63149.999999999985
    vertex 61198.75831636888 61135.70474198577 54632.361909794934
    vertex 61266.906663790745 61135.70474198577 55149.99999999998
  endloop
endfacet
facet normal -0.0 1.0 -0.0
  outer loop
    vertex 69266.90666379075 61135.70474198577 63149.999999999985
    vertex 61266.906663790745 61135.70474198577 55149.99999999998
    vertex 61198.75831636888 61135.70474198577 55667.63809020502
  endloop
endfacet
facet normal -0.0 1.0 -0.0
  outer loop
    vertex 69266.90666379075 61135.70474198577 63149.999999999985
    vertex 61198.75831636888 61135.70474198577 55667.63809020502
    vertex 60998.95747135963 61135.70474198577 56149.99999999997
  endloop
endfacet
facet normal -0.0 1.0 -0.0
  outer loop
    vertex 69266.90666379075 61135.70474198577 63149.999999999985
    vertex 60998.95747135963 61135.70474198577 56149.99999999997
    vertex 60681.12022616384 61135.70474198577 56564.213562373065
  endloop
endfacet
facet normal -0.0 1.0 -0.0
  outer loop
    vertex 69266.90666379075 61135.70474198577 63149.999999999985
    vertex 60681.12022616384 61135.70474198577 56564.213562373065
    vertex 60266.90666379075 61135.70474198577 56882.050807568856
  endloop
endfacet
facet normal -0.0 1.0 -0.0
  outer loop
    vertex 69266.90666379075 61135.70474198577 63149.999999999985
    vertex 60266.90666379075 61135.70474198577 56882.050807568856
    vertex 59784.5447539958 61135.70474198577 57081.85165257811
  endloop
endfacet
facet normal -0.0 1.0 -0.0
  outer loop
    vertex 69266.90666379075 61135.70474198577 63149.999999999985
    vertex 59784.5447539958 61135.70474198577 57081.85165257811
    vertex 59266.90666379075 61135.70474198577 57149.99999999997
  endloop
endfacet
facet normal -0.0 1.0 -0.0
  outer loop
    vertex 69266.90666379075 61135.70474198577 63149.999999999985
    vertex 59266.90666379075 61135.70474198577 57149.99999999997
    vertex 49266.906663790774 61135.70474198577 63149.999999999985
  endloop
endfacet
facet normal -0.92387953251129 0.0 0.3826834323650825
  outer loop
    vertex 61198.75831636888 61135.70474198577 22632.36190979494
    vertex 60998.95747135963 41135.70474198576 22149.99999999998
    vertex 61198.75831636888 41135.70474198576 22632.36190979494
  endloop
endfacet
facet normal -0.92387953251129 0.0 0.3826834323650825
  outer loop
    vertex 60998.95747135963 41135.70474198576 22149.99999999998
    vertex 61198.75831636888 61135.70474198577 22632.36190979494
    vertex 60998.95747135963 61135.70474198577 22149.99999999998
  endloop
endfacet
facet normal -0.9914448613738098 0.0 0.13052619222005657
  outer loop
    vertex 61266.906663790745 61135.70474198577 23149.999999999978
    vertex 61198.75831636888 41135.70474198576 22632.36190979494
    vertex 61266.906663790745 41135.70474198576 23149.999999999978
  endloop
endfacet
facet normal -0.9914448613738098 0.0 0.13052619222005657
  outer loop
    vertex 61198.75831636888 41135.70474198576 22632.36190979494
    vertex 61266.906663790745 61135.70474198577 23149.999999999978
    vertex 61198.75831636888 61135.70474198577 22632.36190979494
  endloop
endfacet
facet normal -0.9914448613738098 0.0 -0.13052619222005585
  outer loop
    vertex 61198.75831636888 61135.70474198577 23667.638090205022
    vertex 61266.906663790745 41135.70474198576 23149.999999999978
    vertex 61198.75831636888 41135.70474198576 23667.638090205022
  endloop
endfacet
facet normal -0.9914448613738098 0.0 -0.13052619222005585
  outer loop
    vertex 61266.906663790745 41135.70474198576 23149.999999999978
    vertex 61198.75831636888 61135.70474198577 23667.638090205022
    vertex 61266.906663790745 61135.70474198577 23149.999999999978
  endloop
endfacet
facet normal -0.923879532511289 0.0 -0.3826834323650844
  outer loop
    vertex 60998.95747135963 61135.70474198577 24149.999999999978
    vertex 61198.75831636888 41135.70474198576 23667.638090205022
    vertex 60998.95747135963 41135.70474198576 24149.999999999978
  endloop
endfacet
facet normal -0.923879532511289 0.0 -0.3826834323650844
  outer loop
    vertex 61198.75831636888 41135.70474198576 23667.638090205022
    vertex 60998.95747135963 61135.70474198577 24149.999999999978
    vertex 61198.75831636888 61135.70474198577 23667.638090205022
  endloop
endfacet
facet normal -0.7933533402912312 0.0 -0.6087614290087261
  outer loop
    vertex 60681.12022616384 61135.70474198577 24564.213562373072
    vertex 60998.95747135963 41135.70474198576 24149.999999999978
    vertex 60681.12022616384 41135.70474198576 24564.213562373072
  endloop
endfacet
facet normal -0.7933533402912312 0.0 -0.6087614290087261
  outer loop
    vertex 60998.95747135963 41135.70474198576 24149.999999999978
    vertex 60681.12022616384 61135.70474198577 24564.213562373072
    vertex 60998.95747135963 61135.70474198577 24149.999999999978
  endloop
endfacet
facet normal -0.6087614290087191 0.0 -0.7933533402912364
  outer loop
    vertex 60681.12022616384 61135.70474198577 24564.213562373072
    vertex 60266.906663790745 41135.70474198576 24882.050807568852
    vertex 60266.906663790745 61135.70474198577 24882.050807568852
  endloop
endfacet
facet normal -0.6087614290087191 0.0 -0.7933533402912364
  outer loop
    vertex 60266.906663790745 41135.70474198576 24882.050807568852
    vertex 60681.12022616384 61135.70474198577 24564.213562373072
    vertex 60681.12022616384 41135.70474198576 24564.213562373072
  endloop
endfacet
facet normal -0.3826834323650931 0.0 -0.9238795325112854
  outer loop
    vertex 60266.906663790745 61135.70474198577 24882.050807568852
    vertex 59784.5447539958 41135.70474198576 25081.851652578112
    vertex 59784.5447539958 61135.70474198577 25081.851652578112
  endloop
endfacet
facet normal -0.3826834323650931 0.0 -0.9238795325112854
  outer loop
    vertex 59784.5447539958 41135.70474198576 25081.851652578112
    vertex 60266.906663790745 61135.70474198577 24882.050807568852
    vertex 60266.906663790745 41135.70474198576 24882.050807568852
  endloop
endfacet
facet normal -0.13052619222005044 0.0 -0.9914448613738107
  outer loop
    vertex 59784.5447539958 61135.70474198577 25081.851652578112
    vertex 59266.90666379075 41135.70474198576 25149.999999999975
    vertex 59266.90666379075 61135.70474198577 25149.999999999975
  endloop
endfacet
facet normal -0.13052619222005044 0.0 -0.9914448613738107
  outer loop
    vertex 59266.90666379075 41135.70474198576 25149.999999999975
    vertex 59784.5447539958 61135.70474198577 25081.851652578112
    vertex 59784.5447539958 41135.70474198576 25081.851652578112
  endloop
endfacet
facet normal 0.13052619222005044 0.0 -0.9914448613738107
  outer loop
    vertex 59266.90666379075 61135.70474198577 25149.999999999975
    vertex 58749.26857358571 41135.70474198576 25081.851652578112
    vertex 58749.26857358571 61135.70474198577 25081.851652578112
  endloop
endfacet
facet normal 0.13052619222005044 0.0 -0.9914448613738107
  outer loop
    vertex 58749.26857358571 41135.70474198576 25081.851652578112
    vertex 59266.90666379075 61135.70474198577 25149.999999999975
    vertex 59266.90666379075 41135.70474198576 25149.999999999975
  endloop
endfacet
facet normal 0.38268343236508995 0.0 -0.9238795325112867
  outer loop
    vertex 58749.26857358571 61135.70474198577 25081.851652578112
    vertex 58266.906663790745 41135.70474198576 24882.050807568852
    vertex 58266.906663790745 61135.70474198577 24882.050807568852
  endloop
endfacet
facet normal 0.38268343236508995 0.0 -0.9238795325112867
  outer loop
    vertex 58266.906663790745 41135.70474198576 24882.050807568852
    vertex 58749.26857358571 61135.70474198577 25081.851652578112
    vertex 58749.26857358571 41135.70474198576 25081.851652578112
  endloop
endfacet
facet normal 0.6087614290087298 0.0 -0.7933533402912282
  outer loop
    vertex 58266.906663790745 61135.70474198577 24882.050807568852
    vertex 57852.693101417666 41135.70474198576 24564.21356237307
    vertex 57852.693101417666 61135.70474198577 24564.21356237307
  endloop
endfacet
facet normal 0.6087614290087298 0.0 -0.7933533402912282
  outer loop
    vertex 57852.693101417666 41135.70474198576 24564.21356237307
    vertex 58266.906663790745 61135.70474198577 24882.050807568852
    vertex 58266.906663790745 41135.70474198576 24882.050807568852
  endloop
endfacet
facet normal 0.793353340291229 -0.0 -0.6087614290087288
  outer loop
    vertex 57534.855856221875 61135.70474198577 24149.999999999978
    vertex 57852.693101417666 41135.70474198576 24564.21356237307
    vertex 57534.855856221875 41135.70474198576 24149.999999999978
  endloop
endfacet
facet normal 0.793353340291229 -0.0 -0.6087614290087288
  outer loop
    vertex 57852.693101417666 41135.70474198576 24564.21356237307
    vertex 57534.855856221875 61135.70474198577 24149.999999999978
    vertex 57852.693101417666 61135.70474198577 24564.21356237307
  endloop
endfacet
facet normal 0.92387953251129 -0.0 -0.3826834323650825
  outer loop
    vertex 57335.05501121262 61135.70474198577 23667.63809020502
    vertex 57534.855856221875 41135.70474198576 24149.999999999978
    vertex 57335.05501121262 41135.70474198576 23667.63809020502
  endloop
endfacet
facet normal 0.92387953251129 -0.0 -0.3826834323650825
  outer loop
    vertex 57534.855856221875 41135.70474198576 24149.999999999978
    vertex 57335.05501121262 61135.70474198577 23667.63809020502
    vertex 57534.855856221875 61135.70474198577 24149.999999999978
  endloop
endfacet
facet normal 0.9914448613738098 -0.0 -0.13052619222005657
  outer loop
    vertex 57266.90666379076 61135.70474198577 23149.999999999978
    vertex 57335.05501121262 41135.70474198576 23667.63809020502
    vertex 57266.90666379076 41135.70474198576 23149.999999999978
  endloop
endfacet
facet normal 0.9914448613738098 -0.0 -0.13052619222005657
  outer loop
    vertex 57335.05501121262 41135.70474198576 23667.63809020502
    vertex 57266.90666379076 61135.70474198577 23149.999999999978
    vertex 57335.05501121262 61135.70474198577 23667.63809020502
  endloop
endfacet
facet normal 0.9914448613738098 -0.0 0.13052619222005585
  outer loop
    vertex 57335.05501121262 61135.70474198577 22632.361909794938
    vertex 57266.90666379076 41135.70474198576 23149.999999999978
    vertex 57335.05501121262 41135.70474198576 22632.361909794938
  endloop
endfacet
facet normal 0.9914448613738098 -0.0 0.13052619222005585
  outer loop
    vertex 57266.90666379076 41135.70474198576 23149.999999999978
    vertex 57335.05501121262 61135.70474198577 22632.361909794938
    vertex 57266.90666379076 61135.70474198577 23149.999999999978
  endloop
endfacet
facet normal 0.923879532511289 -0.0 0.3826834323650844
  outer loop
    vertex 57534.855856221875 61135.70474198577 22149.99999999998
    vertex 57335.05501121262 41135.70474198576 22632.361909794938
    vertex 57534.855856221875 41135.70474198576 22149.99999999998
  endloop
endfacet
facet normal 0.923879532511289 -0.0 0.3826834323650844
  outer loop
    vertex 57335.05501121262 41135.70474198576 22632.361909794938
    vertex 57534.855856221875 61135.70474198577 22149.99999999998
    vertex 57335.05501121262 61135.70474198577 22632.361909794938
  endloop
endfacet
facet normal 0.7933533402912312 -0.0 0.6087614290087261
  outer loop
    vertex 57852.693101417666 61135.70474198577 21735.786437626884
    vertex 57534.855856221875 41135.70474198576 22149.99999999998
    vertex 57852.693101417666 41135.70474198576 21735.786437626884
  endloop
endfacet
facet normal 0.7933533402912312 -0.0 0.6087614290087261
  outer loop
    vertex 57534.855856221875 41135.70474198576 22149.99999999998
    vertex 57852.693101417666 61135.70474198577 21735.786437626884
    vertex 57534.855856221875 61135.70474198577 22149.99999999998
  endloop
endfacet
facet normal 0.6087614290087191 -0.0 0.7933533402912364
  outer loop
    vertex 58266.90666379076 41135.70474198576 21417.949192431104
    vertex 57852.693101417666 61135.70474198577 21735.786437626884
    vertex 57852.693101417666 41135.70474198576 21735.786437626884
  endloop
endfacet
facet normal 0.6087614290087191 -0.0 0.7933533402912364
  outer loop
    vertex 57852.693101417666 61135.70474198577 21735.786437626884
    vertex 58266.90666379076 41135.70474198576 21417.949192431104
    vertex 58266.90666379076 61135.70474198577 21417.949192431104
  endloop
endfacet
facet normal 0.3826834323650931 -0.0 0.9238795325112854
  outer loop
    vertex 58749.26857358571 41135.70474198576 21218.148347421848
    vertex 58266.90666379076 61135.70474198577 21417.949192431104
    vertex 58266.90666379076 41135.70474198576 21417.949192431104
  endloop
endfacet
facet normal 0.3826834323650931 -0.0 0.9238795325112854
  outer loop
    vertex 58266.90666379076 61135.70474198577 21417.949192431104
    vertex 58749.26857358571 41135.70474198576 21218.148347421848
    vertex 58749.26857358571 61135.70474198577 21218.148347421848
  endloop
endfacet
facet normal 0.13052619222005044 -0.0 0.9914448613738107
  outer loop
    vertex 59266.90666379075 41135.70474198576 21149.99999999998
    vertex 58749.26857358571 61135.70474198577 21218.148347421848
    vertex 58749.26857358571 41135.70474198576 21218.148347421848
  endloop
endfacet
facet normal 0.13052619222005044 -0.0 0.9914448613738107
  outer loop
    vertex 58749.26857358571 61135.70474198577 21218.148347421848
    vertex 59266.90666379075 41135.70474198576 21149.99999999998
    vertex 59266.90666379075 61135.70474198577 21149.99999999998
  endloop
endfacet
facet normal -0.13052619222005044 -0.0 0.9914448613738107
  outer loop
    vertex 59784.5447539958 41135.70474198576 21218.148347421848
    vertex 59266.90666379075 61135.70474198577 21149.99999999998
    vertex 59266.90666379075 41135.70474198576 21149.99999999998
  endloop
endfacet
facet normal -0.13052619222005044 -0.0 0.9914448613738107
  outer loop
    vertex 59266.90666379075 61135.70474198577 21149.99999999998
    vertex 59784.5447539958 41135.70474198576 21218.148347421848
    vertex 59784.5447539958 61135.70474198577 21218.148347421848
  endloop
endfacet
facet normal -0.38268343236508523 -0.0 0.9238795325112886
  outer loop
    vertex 60266.90666379075 41135.70474198576 21417.949192431104
    vertex 59784.5447539958 61135.70474198577 21218.148347421848
    vertex 59784.5447539958 41135.70474198576 21218.148347421848
  endloop
endfacet
facet normal -0.38268343236508523 -0.0 0.9238795325112886
  outer loop
    vertex 59784.5447539958 61135.70474198577 21218.148347421848
    vertex 60266.90666379075 41135.70474198576 21417.949192431104
    vertex 60266.90666379075 61135.70474198577 21417.949192431104
  endloop
endfacet
facet normal -0.6087614290087332 -0.0 0.7933533402912257
  outer loop
    vertex 60681.12022616384 41135.70474198576 21735.786437626888
    vertex 60266.90666379075 61135.70474198577 21417.949192431104
    vertex 60266.90666379075 41135.70474198576 21417.949192431104
  endloop
endfacet
facet normal -0.6087614290087332 -0.0 0.7933533402912257
  outer loop
    vertex 60266.90666379075 61135.70474198577 21417.949192431104
    vertex 60681.12022616384 41135.70474198576 21735.786437626888
    vertex 60681.12022616384 61135.70474198577 21735.786437626888
  endloop
endfacet
facet normal -0.793353340291229 0.0 0.6087614290087288
  outer loop
    vertex 60998.95747135963 61135.70474198577 22149.99999999998
    vertex 60681.12022616384 41135.70474198576 21735.786437626888
    vertex 60998.95747135963 41135.70474198576 22149.99999999998
  endloop
endfacet
facet normal -0.793353340291229 0.0 0.6087614290087288
  outer loop
    vertex 60681.12022616384 41135.70474198576 21735.786437626888
    vertex 60998.95747135963 61135.70474198577 22149.99999999998
    vertex 60681.12022616384 61135.70474198577 21735.786437626888
  endloop
endfacet
facet normal 0.0 -1.0 0.0
  outer loop
    vertex 69266.90666379075 41135.70474198576 9999.999999999998
    vertex 60681.12022616384 41135.70474198576 21735.786437626888
    vertex 49266.906663790774 41135.70474198576 9999.999999999998
  endloop
endfacet
facet normal 0.0 -1.0 0.0
  outer loop
    vertex 60681.12022616384 41135.70474198576 21735.786437626888
    vertex 69266.90666379075 41135.70474198576 9999.999999999998
    vertex 60998.95747135963 41135.70474198576 22149.99999999998
  endloop
endfacet
facet normal 0.0 -1.0 0.0
  outer loop
    vertex 60998.95747135963 41135.70474198576 22149.99999999998
    vertex 69266.90666379075 41135.70474198576 9999.999999999998
    vertex 61198.75831636888 41135.70474198576 22632.36190979494
  endloop
endfacet
facet normal 0.0 -1.0 0.0
  outer loop
    vertex 61198.75831636888 41135.70474198576 22632.36190979494
    vertex 69266.90666379075 41135.70474198576 9999.999999999998
    vertex 69266.90666379075 41135.70474198576 63149.999999999985
  endloop
endfacet
facet normal 0.0 -1.0 0.0
  outer loop
    vertex 49266.906663790774 41135.70474198576 9999.999999999998
    vertex 60681.12022616384 41135.70474198576 21735.786437626888
    vertex 60266.90666379075 41135.70474198576 21417.949192431104
  endloop
endfacet
facet normal 0.0 -1.0 0.0
  outer loop
    vertex 49266.906663790774 41135.70474198576 9999.999999999998
    vertex 60266.90666379075 41135.70474198576 21417.949192431104
    vertex 59784.5447539958 41135.70474198576 21218.148347421848
  endloop
endfacet
facet normal 0.0 -1.0 0.0
  outer loop
    vertex 49266.906663790774 41135.70474198576 9999.999999999998
    vertex 59784.5447539958 41135.70474198576 21218.148347421848
    vertex 59266.90666379075 41135.70474198576 21149.99999999998
  endloop
endfacet
facet normal 0.0 -1.0 0.0
  outer loop
    vertex 61198.75831636888 41135.70474198576 22632.36190979494
    vertex 69266.90666379075 41135.70474198576 63149.999999999985
    vertex 61266.906663790745 41135.70474198576 23149.999999999978
  endloop
endfacet
facet normal 0.0 -1.0 0.0
  outer loop
    vertex 61266.906663790745 41135.70474198576 23149.999999999978
    vertex 69266.90666379075 41135.70474198576 63149.999999999985
    vertex 61198.75831636888 41135.70474198576 23667.638090205022
  endloop
endfacet
facet normal 0.0 -1.0 0.0
  outer loop
    vertex 61198.75831636888 41135.70474198576 23667.638090205022
    vertex 69266.90666379075 41135.70474198576 63149.999999999985
    vertex 60998.95747135963 41135.70474198576 24149.999999999978
  endloop
endfacet
facet normal 0.0 -1.0 0.0
  outer loop
    vertex 60998.95747135963 41135.70474198576 24149.999999999978
    vertex 69266.90666379075 41135.70474198576 63149.999999999985
    vertex 60681.12022616384 41135.70474198576 24564.213562373072
  endloop
endfacet
facet normal 0.0 -1.0 0.0
  outer loop
    vertex 60681.12022616384 41135.70474198576 24564.213562373072
    vertex 69266.90666379075 41135.70474198576 63149.999999999985
    vertex 60266.906663790745 41135.70474198576 24882.050807568852
  endloop
endfacet
facet normal 0.0 -1.0 0.0
  outer loop
    vertex 60266.906663790745 41135.70474198576 24882.050807568852
    vertex 69266.90666379075 41135.70474198576 63149.999999999985
    vertex 59784.5447539958 41135.70474198576 25081.851652578112
  endloop
endfacet
facet normal 0.0 -1.0 0.0
  outer loop
    vertex 59784.5447539958 41135.70474198576 25081.851652578112
    vertex 69266.90666379075 41135.70474198576 63149.999999999985
    vertex 59266.90666379075 41135.70474198576 25149.999999999975
  endloop
endfacet
facet normal 0.0 -1.0 0.0
  outer loop
    vertex 59266.90666379075 41135.70474198576 25149.999999999975
    vertex 69266.90666379075 41135.70474198576 63149.999999999985
    vertex 61198.75831636889 41135.70474198578 38632.36190979494
  endloop
endfacet
facet normal 0.0 -1.0 0.0
  outer loop
    vertex 59266.90666379075 41135.70474198576 25149.999999999975
    vertex 61198.75831636889 41135.70474198578 38632.36190979494
    vertex 60998.95747135963 41135.70474198578 38149.99999999998
  endloop
endfacet
facet normal 0.0 -1.0 0.0
  outer loop
    vertex 59266.90666379075 41135.70474198576 25149.999999999975
    vertex 60998.95747135963 41135.70474198578 38149.99999999998
    vertex 60681.120226163854 41135.70474198578 37735.78643762689
  endloop
endfacet
facet normal 0.0 -1.0 0.0
  outer loop
    vertex 59266.90666379075 41135.70474198576 25149.999999999975
    vertex 60681.120226163854 41135.70474198578 37735.78643762689
    vertex 60266.90666379075 41135.70474198578 37417.9491924311
  endloop
endfacet
facet normal 0.0 -1.0 0.0
  outer loop
    vertex 59266.90666379075 41135.70474198576 25149.999999999975
    vertex 60266.90666379075 41135.70474198578 37417.9491924311
    vertex 59784.5447539958 41135.70474198578 37218.14834742185
  endloop
endfacet
facet normal 0.0 -1.0 0.0
  outer loop
    vertex 59266.90666379075 41135.70474198576 25149.999999999975
    vertex 59784.5447539958 41135.70474198578 37218.14834742185
    vertex 59266.90666379075 41135.70474198578 37149.999999999985
  endloop
endfacet
facet normal 0.0 -1.0 0.0
  outer loop
    vertex 61198.75831636889 41135.70474198578 38632.36190979494
    vertex 69266.90666379075 41135.70474198576 63149.999999999985
    vertex 61266.90666379076 41135.70474198578 39149.999999999985
  endloop
endfacet
facet normal 0.0 -1.0 0.0
  outer loop
    vertex 61266.90666379076 41135.70474198578 39149.999999999985
    vertex 69266.90666379075 41135.70474198576 63149.999999999985
    vertex 61198.75831636889 41135.70474198578 39667.63809020503
  endloop
endfacet
facet normal 0.0 -1.0 0.0
  outer loop
    vertex 61198.75831636889 41135.70474198578 39667.63809020503
    vertex 69266.90666379075 41135.70474198576 63149.999999999985
    vertex 60998.95747135963 41135.70474198578 40149.999999999985
  endloop
endfacet
facet normal 0.0 -1.0 0.0
  outer loop
    vertex 60998.95747135963 41135.70474198578 40149.999999999985
    vertex 69266.90666379075 41135.70474198576 63149.999999999985
    vertex 60681.120226163854 41135.70474198578 40564.21356237308
  endloop
endfacet
facet normal 0.0 -1.0 0.0
  outer loop
    vertex 60681.120226163854 41135.70474198578 40564.21356237308
    vertex 69266.90666379075 41135.70474198576 63149.999999999985
    vertex 60266.90666379075 41135.70474198578 40882.05080756886
  endloop
endfacet
facet normal 0.0 -1.0 0.0
  outer loop
    vertex 60266.90666379075 41135.70474198578 40882.05080756886
    vertex 69266.90666379075 41135.70474198576 63149.999999999985
    vertex 59784.5447539958 41135.70474198578 41081.85165257812
  endloop
endfacet
facet normal 0.0 -1.0 0.0
  outer loop
    vertex 59784.5447539958 41135.70474198578 41081.85165257812
    vertex 69266.90666379075 41135.70474198576 63149.999999999985
    vertex 59266.90666379075 41135.70474198578 41149.999999999985
  endloop
endfacet
facet normal 0.0 -1.0 0.0
  outer loop
    vertex 59266.90666379075 41135.70474198578 41149.999999999985
    vertex 69266.90666379075 41135.70474198576 63149.999999999985
    vertex 60681.12022616384 41135.704741985806 53735.78643762689
  endloop
endfacet
facet normal 0.0 -1.0 0.0
  outer loop
    vertex 59266.90666379075 41135.70474198578 41149.999999999985
    vertex 60681.12022616384 41135.704741985806 53735.78643762689
    vertex 60266.906663790745 41135.704741985806 53417.9491924311
  endloop
endfacet
facet normal 0.0 -1.0 0.0
  outer loop
    vertex 59266.90666379075 41135.70474198578 41149.999999999985
    vertex 60266.906663790745 41135.704741985806 53417.9491924311
    vertex 59784.5447539958 41135.704741985806 53218.14834742185
  endloop
endfacet
facet normal 0.0 -1.0 0.0
  outer loop
    vertex 59266.90666379075 41135.70474198578 41149.999999999985
    vertex 59784.5447539958 41135.704741985806 53218.14834742185
    vertex 59266.90666379075 41135.704741985806 53149.999999999985
  endloop
endfacet
facet normal 0.0 -1.0 0.0
  outer loop
    vertex 60681.12022616384 41135.704741985806 53735.78643762689
    vertex 69266.90666379075 41135.70474198576 63149.999999999985
    vertex 60998.95747135963 41135.704741985806 54149.99999999997
  endloop
endfacet
facet normal 0.0 -1.0 0.0
  outer loop
    vertex 60998.95747135963 41135.704741985806 54149.99999999997
    vertex 69266.90666379075 41135.70474198576 63149.999999999985
    vertex 61198.75831636888 41135.704741985806 54632.361909794934
  endloop
endfacet
facet normal 0.0 -1.0 0.0
  outer loop
    vertex 61198.75831636888 41135.704741985806 54632.361909794934
    vertex 69266.90666379075 41135.70474198576 63149.999999999985
    vertex 61266.906663790745 41135.704741985806 55149.99999999998
  endloop
endfacet
facet normal 0.0 -1.0 0.0
  outer loop
    vertex 61266.906663790745 41135.704741985806 55149.99999999998
    vertex 69266.90666379075 41135.70474198576 63149.999999999985
    vertex 61198.75831636888 41135.704741985806 55667.63809020502
  endloop
endfacet
facet normal 0.0 -1.0 0.0
  outer loop
    vertex 61198.75831636888 41135.704741985806 55667.63809020502
    vertex 69266.90666379075 41135.70474198576 63149.999999999985
    vertex 60998.95747135963 41135.704741985806 56149.99999999997
  endloop
endfacet
facet normal 0.0 -1.0 0.0
  outer loop
    vertex 60998.95747135963 41135.704741985806 56149.99999999997
    vertex 69266.90666379075 41135.70474198576 63149.999999999985
    vertex 60681.12022616384 41135.704741985806 56564.213562373065
  endloop
endfacet
facet normal 0.0 -1.0 0.0
  outer loop
    vertex 60681.12022616384 41135.704741985806 56564.213562373065
    vertex 69266.90666379075 41135.70474198576 63149.999999999985
    vertex 60266.90666379075 41135.704741985806 56882.050807568856
  endloop
endfacet
facet normal 0.0 -1.0 0.0
  outer loop
    vertex 60266.90666379075 41135.704741985806 56882.050807568856
    vertex 69266.90666379075 41135.70474198576 63149.999999999985
    vertex 59784.5447539958 41135.704741985806 57081.85165257811
  endloop
endfacet
facet normal 0.0 -1.0 0.0
  outer loop
    vertex 59784.5447539958 41135.704741985806 57081.85165257811
    vertex 69266.90666379075 41135.70474198576 63149.999999999985
    vertex 59266.90666379075 41135.704741985806 57149.99999999997
  endloop
endfacet
facet normal 0.0 -1.0 0.0
  outer loop
    vertex 49266.906663790774 41135.70474198576 9999.999999999998
    vertex 57335.05501121262 41135.70474198576 22632.361909794938
    vertex 49266.906663790774 41135.70474198576 63149.999999999985
  endloop
endfacet
facet normal 0.0 -1.0 0.0
  outer loop
    vertex 57335.05501121262 41135.70474198576 22632.361909794938
    vertex 49266.906663790774 41135.70474198576 9999.999999999998
    vertex 57534.855856221875 41135.70474198576 22149.99999999998
  endloop
endfacet
facet normal 0.0 -1.0 0.0
  outer loop
    vertex 57534.855856221875 41135.70474198576 22149.99999999998
    vertex 49266.906663790774 41135.70474198576 9999.999999999998
    vertex 57852.693101417666 41135.70474198576 21735.786437626884
  endloop
endfacet
facet normal 0.0 -1.0 0.0
  outer loop
    vertex 57852.693101417666 41135.70474198576 21735.786437626884
    vertex 49266.906663790774 41135.70474198576 9999.999999999998
    vertex 58266.90666379076 41135.70474198576 21417.949192431104
  endloop
endfacet
facet normal 0.0 -1.0 0.0
  outer loop
    vertex 58266.90666379076 41135.70474198576 21417.949192431104
    vertex 49266.906663790774 41135.70474198576 9999.999999999998
    vertex 58749.26857358571 41135.70474198576 21218.148347421848
  endloop
endfacet
facet normal 0.0 -1.0 0.0
  outer loop
    vertex 58749.26857358571 41135.70474198576 21218.148347421848
    vertex 49266.906663790774 41135.70474198576 9999.999999999998
    vertex 59266.90666379075 41135.70474198576 21149.99999999998
  endloop
endfacet
facet normal 0.0 -1.0 0.0
  outer loop
    vertex 49266.906663790774 41135.70474198576 63149.999999999985
    vertex 57335.05501121262 41135.70474198576 22632.361909794938
    vertex 57266.90666379076 41135.70474198576 23149.999999999978
  endloop
endfacet
facet normal 0.0 -1.0 0.0
  outer loop
    vertex 49266.906663790774 41135.70474198576 63149.999999999985
    vertex 57266.90666379076 41135.70474198576 23149.999999999978
    vertex 57335.05501121262 41135.70474198576 23667.63809020502
  endloop
endfacet
facet normal 0.0 -1.0 0.0
  outer loop
    vertex 49266.906663790774 41135.70474198576 63149.999999999985
    vertex 57335.05501121262 41135.70474198576 23667.63809020502
    vertex 57534.855856221875 41135.70474198576 24149.999999999978
  endloop
endfacet
facet normal 0.0 -1.0 0.0
  outer loop
    vertex 49266.906663790774 41135.70474198576 63149.999999999985
    vertex 57534.855856221875 41135.70474198576 24149.999999999978
    vertex 57852.693101417666 41135.70474198576 24564.21356237307
  endloop
endfacet
facet normal 0.0 -1.0 0.0
  outer loop
    vertex 49266.906663790774 41135.70474198576 63149.999999999985
    vertex 57852.693101417666 41135.70474198576 24564.21356237307
    vertex 58266.906663790745 41135.70474198576 24882.050807568852
  endloop
endfacet
facet normal 0.0 -1.0 0.0
  outer loop
    vertex 49266.906663790774 41135.70474198576 63149.999999999985
    vertex 58266.906663790745 41135.70474198576 24882.050807568852
    vertex 58749.26857358571 41135.70474198576 25081.851652578112
  endloop
endfacet
facet normal 0.0 -1.0 0.0
  outer loop
    vertex 49266.906663790774 41135.70474198576 63149.999999999985
    vertex 58749.26857358571 41135.70474198576 25081.851652578112
    vertex 59266.90666379075 41135.70474198576 25149.999999999975
  endloop
endfacet
facet normal 0.0 -1.0 0.0
  outer loop
    vertex 49266.906663790774 41135.70474198576 63149.999999999985
    vertex 59266.90666379075 41135.70474198576 25149.999999999975
    vertex 57335.05501121261 41135.70474198578 38632.36190979494
  endloop
endfacet
facet normal 0.0 -1.0 0.0
  outer loop
    vertex 57335.05501121261 41135.70474198578 38632.36190979494
    vertex 59266.90666379075 41135.70474198576 25149.999999999975
    vertex 57534.855856221875 41135.70474198578 38149.999999999985
  endloop
endfacet
facet normal 0.0 -1.0 0.0
  outer loop
    vertex 57534.855856221875 41135.70474198578 38149.999999999985
    vertex 59266.90666379075 41135.70474198576 25149.999999999975
    vertex 57852.69310141765 41135.70474198578 37735.78643762689
  endloop
endfacet
facet normal 0.0 -1.0 0.0
  outer loop
    vertex 57852.69310141765 41135.70474198578 37735.78643762689
    vertex 59266.90666379075 41135.70474198576 25149.999999999975
    vertex 58266.906663790745 41135.70474198578 37417.9491924311
  endloop
endfacet
facet normal 0.0 -1.0 0.0
  outer loop
    vertex 58266.906663790745 41135.70474198578 37417.9491924311
    vertex 59266.90666379075 41135.70474198576 25149.999999999975
    vertex 58749.26857358571 41135.70474198578 37218.14834742185
  endloop
endfacet
facet normal 0.0 -1.0 0.0
  outer loop
    vertex 58749.26857358571 41135.70474198578 37218.14834742185
    vertex 59266.90666379075 41135.70474198576 25149.999999999975
    vertex 59266.90666379075 41135.70474198578 37149.999999999985
  endloop
endfacet
facet normal 0.0 -1.0 0.0
  outer loop
    vertex 49266.906663790774 41135.70474198576 63149.999999999985
    vertex 57335.05501121261 41135.70474198578 38632.36190979494
    vertex 57266.906663790745 41135.70474198578 39149.999999999985
  endloop
endfacet
facet normal 0.0 -1.0 0.0
  outer loop
    vertex 49266.906663790774 41135.70474198576 63149.999999999985
    vertex 57266.906663790745 41135.70474198578 39149.999999999985
    vertex 57335.05501121261 41135.70474198578 39667.63809020503
  endloop
endfacet
facet normal 0.0 -1.0 0.0
  outer loop
    vertex 49266.906663790774 41135.70474198576 63149.999999999985
    vertex 57335.05501121261 41135.70474198578 39667.63809020503
    vertex 57534.855856221875 41135.70474198578 40149.999999999985
  endloop
endfacet
facet normal 0.0 -1.0 0.0
  outer loop
    vertex 49266.906663790774 41135.70474198576 63149.999999999985
    vertex 57534.855856221875 41135.70474198578 40149.999999999985
    vertex 57852.69310141765 41135.70474198578 40564.21356237309
  endloop
endfacet
facet normal 0.0 -1.0 0.0
  outer loop
    vertex 49266.906663790774 41135.70474198576 63149.999999999985
    vertex 57852.69310141765 41135.70474198578 40564.21356237309
    vertex 58266.906663790745 41135.70474198578 40882.05080756886
  endloop
endfacet
facet normal 0.0 -1.0 0.0
  outer loop
    vertex 49266.906663790774 41135.70474198576 63149.999999999985
    vertex 58266.906663790745 41135.70474198578 40882.05080756886
    vertex 58749.26857358571 41135.70474198578 41081.85165257812
  endloop
endfacet
facet normal 0.0 -1.0 0.0
  outer loop
    vertex 49266.906663790774 41135.70474198576 63149.999999999985
    vertex 58749.26857358571 41135.70474198578 41081.85165257812
    vertex 59266.90666379075 41135.70474198578 41149.999999999985
  endloop
endfacet
facet normal 0.0 -1.0 0.0
  outer loop
    vertex 49266.906663790774 41135.70474198576 63149.999999999985
    vertex 59266.90666379075 41135.70474198578 41149.999999999985
    vertex 57852.693101417666 41135.704741985806 53735.78643762689
  endloop
endfacet
facet normal 0.0 -1.0 0.0
  outer loop
    vertex 57852.693101417666 41135.704741985806 53735.78643762689
    vertex 59266.90666379075 41135.70474198578 41149.999999999985
    vertex 58266.906663790745 41135.704741985806 53417.9491924311
  endloop
endfacet
facet normal 0.0 -1.0 0.0
  outer loop
    vertex 58266.906663790745 41135.704741985806 53417.9491924311
    vertex 59266.90666379075 41135.70474198578 41149.999999999985
    vertex 58749.26857358571 41135.704741985806 53218.14834742185
  endloop
endfacet
facet normal 0.0 -1.0 0.0
  outer loop
    vertex 58749.26857358571 41135.704741985806 53218.14834742185
    vertex 59266.90666379075 41135.70474198578 41149.999999999985
    vertex 59266.90666379075 41135.704741985806 53149.999999999985
  endloop
endfacet
facet normal 0.0 -1.0 0.0
  outer loop
    vertex 49266.906663790774 41135.70474198576 63149.999999999985
    vertex 57852.693101417666 41135.704741985806 53735.78643762689
    vertex 57534.855856221875 41135.704741985806 54149.999999999985
  endloop
endfacet
facet normal 0.0 -1.0 0.0
  outer loop
    vertex 49266.906663790774 41135.70474198576 63149.999999999985
    vertex 57534.855856221875 41135.704741985806 54149.999999999985
    vertex 57335.05501121262 41135.704741985806 54632.361909794934
  endloop
endfacet
facet normal 0.0 -1.0 0.0
  outer loop
    vertex 49266.906663790774 41135.70474198576 63149.999999999985
    vertex 57335.05501121262 41135.704741985806 54632.361909794934
    vertex 57266.90666379076 41135.704741985806 55149.99999999998
  endloop
endfacet
facet normal 0.0 -1.0 0.0
  outer loop
    vertex 49266.906663790774 41135.70474198576 63149.999999999985
    vertex 57266.90666379076 41135.704741985806 55149.99999999998
    vertex 57335.05501121262 41135.704741985806 55667.63809020502
  endloop
endfacet
facet normal 0.0 -1.0 0.0
  outer loop
    vertex 49266.906663790774 41135.70474198576 63149.999999999985
    vertex 57335.05501121262 41135.704741985806 55667.63809020502
    vertex 57534.855856221875 41135.704741985806 56149.99999999998
  endloop
endfacet
facet normal 0.0 -1.0 0.0
  outer loop
    vertex 49266.906663790774 41135.70474198576 63149.999999999985
    vertex 57534.855856221875 41135.704741985806 56149.99999999998
    vertex 57852.693101417666 41135.704741985806 56564.213562373065
  endloop
endfacet
facet normal 0.0 -1.0 0.0
  outer loop
    vertex 49266.906663790774 41135.70474198576 63149.999999999985
    vertex 57852.693101417666 41135.704741985806 56564.213562373065
    vertex 58266.90666379076 41135.704741985806 56882.050807568856
  endloop
endfacet
facet normal 0.0 -1.0 0.0
  outer loop
    vertex 49266.906663790774 41135.70474198576 63149.999999999985
    vertex 58266.90666379076 41135.704741985806 56882.050807568856
    vertex 58749.26857358571 41135.704741985806 57081.85165257811
  endloop
endfacet
facet normal 0.0 -1.0 0.0
  outer loop
    vertex 49266.906663790774 41135.70474198576 63149.999999999985
    vertex 58749.26857358571 41135.704741985806 57081.85165257811
    vertex 59266.90666379075 41135.704741985806 57149.99999999997
  endloop
endfacet
facet normal 0.0 -1.0 0.0
  outer loop
    vertex 49266.906663790774 41135.70474198576 63149.999999999985
    vertex 59266.90666379075 41135.704741985806 57149.99999999997
    vertex 69266.90666379075 41135.70474198576 63149.999999999985
  endloop
endfacet
facet normal 0.0 -1.0 0.0
  outer loop
    vertex 49266.906663790774 41135.70474198576 63149.999999999985
    vertex 69266.90666379075 41135.70474198576 63149.999999999985
    vertex 59266.90666379075 41135.70474198576 63149.999999999985
  endloop
endfacet
facet normal 1.0 -0.0 -0.0
  outer loop
    vertex 69266.90666379075 61135.70474198577 9999.999999999998
    vertex 69266.90666379075 41135.70474198576 63149.999999999985
    vertex 69266.90666379075 41135.70474198576 9999.999999999998
  endloop
endfacet
facet normal 1.0 -0.0 -0.0
  outer loop
    vertex 69266.90666379075 41135.70474198576 63149.999999999985
    vertex 69266.90666379075 61135.70474198577 9999.999999999998
    vertex 69266.90666379075 61135.70474198577 63149.999999999985
  endloop
endfacet
facet normal 0.0 0.0 1.0
  outer loop
    vertex 59266.90666379075 41135.70474198576 63149.999999999985
    vertex 49266.906663790774 61135.70474198577 63149.999999999985
    vertex 49266.906663790774 41135.70474198576 63149.999999999985
  endloop
endfacet
facet normal 0.0 0.0 1.0
  outer loop
    vertex 49266.906663790774 61135.70474198577 63149.999999999985
    vertex 59266.90666379075 41135.70474198576 63149.999999999985
    vertex 69266.90666379075 61135.70474198577 63149.999999999985
  endloop
endfacet
facet normal 0.0 0.0 1.0
  outer loop
    vertex 69266.90666379075 61135.70474198577 63149.999999999985
    vertex 59266.90666379075 41135.70474198576 63149.999999999985
    vertex 69266.90666379075 41135.70474198576 63149.999999999985
  endloop
endfacet
facet normal -0.9238795325112829 -0.0 0.3826834323650994
  outer loop
    vertex 61198.75831636889 61135.70474198577 38632.36190979494
    vertex 60998.95747135963 41135.70474198578 38149.99999999998
    vertex 61198.75831636889 41135.70474198578 38632.36190979494
  endloop
endfacet
facet normal -0.9238795325112829 -0.0 0.3826834323650994
  outer loop
    vertex 60998.95747135963 41135.70474198578 38149.99999999998
    vertex 61198.75831636889 61135.70474198577 38632.36190979494
    vertex 60998.95747135963 61135.70474198577 38149.99999999998
  endloop
endfacet
facet normal 0.6087614290087261 0.0 0.7933533402912312
  outer loop
    vertex 58266.906663790745 41135.70474198578 37417.9491924311
    vertex 57852.69310141765 61135.70474198577 37735.78643762689
    vertex 57852.69310141765 41135.70474198578 37735.78643762689
  endloop
endfacet
facet normal 0.6087614290087261 0.0 0.7933533402912312
  outer loop
    vertex 57852.69310141765 61135.70474198577 37735.78643762689
    vertex 58266.906663790745 41135.70474198578 37417.9491924311
    vertex 58266.906663790745 61135.70474198577 37417.9491924311
  endloop
endfacet
facet normal -0.13052619222005585 -0.0 0.9914448613738099
  outer loop
    vertex 59784.5447539958 41135.704741985806 53218.14834742185
    vertex 59266.90666379075 61135.70474198577 53149.999999999985
    vertex 59266.90666379075 41135.704741985806 53149.999999999985
  endloop
endfacet
facet normal -0.13052619222005585 -0.0 0.9914448613738099
  outer loop
    vertex 59266.90666379075 61135.70474198577 53149.999999999985
    vertex 59784.5447539958 41135.704741985806 53218.14834742185
    vertex 59784.5447539958 61135.70474198577 53218.14834742185
  endloop
endfacet
facet normal -0.6087614290087261 -0.0 0.7933533402912312
  outer loop
    vertex 60681.120226163854 41135.70474198578 37735.78643762689
    vertex 60266.90666379075 61135.70474198577 37417.9491924311
    vertex 60266.90666379075 41135.70474198578 37417.9491924311
  endloop
endfacet
facet normal -0.6087614290087261 -0.0 0.7933533402912312
  outer loop
    vertex 60266.90666379075 61135.70474198577 37417.9491924311
    vertex 60681.120226163854 41135.70474198578 37735.78643762689
    vertex 60681.120226163854 61135.70474198577 37735.78643762689
  endloop
endfacet
facet normal -0.9914448613738099 -0.0 0.13052619222005585
  outer loop
    vertex 61266.90666379076 61135.70474198577 39149.999999999985
    vertex 61198.75831636889 41135.70474198578 38632.36190979494
    vertex 61266.90666379076 41135.70474198578 39149.999999999985
  endloop
endfacet
facet normal -0.9914448613738099 -0.0 0.13052619222005585
  outer loop
    vertex 61198.75831636889 41135.70474198578 38632.36190979494
    vertex 61266.90666379076 61135.70474198577 39149.999999999985
    vertex 61198.75831636889 61135.70474198577 38632.36190979494
  endloop
endfacet
facet normal -0.13052619222005585 -0.0 0.9914448613738099
  outer loop
    vertex 59784.5447539958 41135.70474198578 37218.14834742185
    vertex 59266.90666379075 61135.70474198577 37149.999999999985
    vertex 59266.90666379075 41135.70474198578 37149.999999999985
  endloop
endfacet
facet normal -0.13052619222005585 -0.0 0.9914448613738099
  outer loop
    vertex 59266.90666379075 61135.70474198577 37149.999999999985
    vertex 59784.5447539958 41135.70474198578 37218.14834742185
    vertex 59784.5447539958 61135.70474198577 37218.14834742185
  endloop
endfacet
facet normal 0.3826834323650805 0.0 0.9238795325112906
  outer loop
    vertex 58749.26857358571 41135.70474198578 37218.14834742185
    vertex 58266.906663790745 61135.70474198577 37417.9491924311
    vertex 58266.906663790745 41135.70474198578 37417.9491924311
  endloop
endfacet
facet normal 0.3826834323650805 0.0 0.9238795325112906
  outer loop
    vertex 58266.906663790745 61135.70474198577 37417.9491924311
    vertex 58749.26857358571 41135.70474198578 37218.14834742185
    vertex 58749.26857358571 61135.70474198577 37218.14834742185
  endloop
endfacet
facet normal 0.7933533402912312 0.0 0.6087614290087261
  outer loop
    vertex 57852.693101417666 61135.70474198577 53735.78643762689
    vertex 57534.855856221875 41135.704741985806 54149.999999999985
    vertex 57852.693101417666 41135.704741985806 53735.78643762689
  endloop
endfacet
facet normal 0.7933533402912312 0.0 0.6087614290087261
  outer loop
    vertex 57534.855856221875 41135.704741985806 54149.999999999985
    vertex 57852.693101417666 61135.70474198577 53735.78643762689
    vertex 57534.855856221875 61135.70474198577 54149.999999999985
  endloop
endfacet
facet normal -0.7933533402912377 -0.0 0.6087614290087175
  outer loop
    vertex 60998.95747135963 61135.70474198577 38149.99999999998
    vertex 60681.120226163854 41135.70474198578 37735.78643762689
    vertex 60998.95747135963 41135.70474198578 38149.99999999998
  endloop
endfacet
facet normal -0.7933533402912377 -0.0 0.6087614290087175
  outer loop
    vertex 60681.120226163854 41135.70474198578 37735.78643762689
    vertex 60998.95747135963 61135.70474198577 38149.99999999998
    vertex 60681.120226163854 61135.70474198577 37735.78643762689
  endloop
endfacet
facet normal 0.3826834323650805 0.0 0.9238795325112906
  outer loop
    vertex 58749.26857358571 41135.704741985806 53218.14834742185
    vertex 58266.906663790745 61135.70474198577 53417.9491924311
    vertex 58266.906663790745 41135.704741985806 53417.9491924311
  endloop
endfacet
facet normal 0.3826834323650805 0.0 0.9238795325112906
  outer loop
    vertex 58266.906663790745 61135.70474198577 53417.9491924311
    vertex 58749.26857358571 41135.704741985806 53218.14834742185
    vertex 58749.26857358571 61135.70474198577 53218.14834742185
  endloop
endfacet
facet normal -0.9914448613738099 -0.0 -0.13052619222005585
  outer loop
    vertex 61198.75831636889 61135.70474198577 39667.63809020503
    vertex 61266.90666379076 41135.70474198578 39149.999999999985
    vertex 61198.75831636889 41135.70474198578 39667.63809020503
  endloop
endfacet
facet normal -0.9914448613738099 -0.0 -0.13052619222005585
  outer loop
    vertex 61266.90666379076 41135.70474198578 39149.999999999985
    vertex 61198.75831636889 61135.70474198577 39667.63809020503
    vertex 61266.90666379076 61135.70474198577 39149.999999999985
  endloop
endfacet
facet normal -0.3826834323650805 -0.0 0.9238795325112906
  outer loop
    vertex 60266.90666379075 41135.70474198578 37417.9491924311
    vertex 59784.5447539958 61135.70474198577 37218.14834742185
    vertex 59784.5447539958 41135.70474198578 37218.14834742185
  endloop
endfacet
facet normal -0.3826834323650805 -0.0 0.9238795325112906
  outer loop
    vertex 59784.5447539958 61135.70474198577 37218.14834742185
    vertex 60266.90666379075 41135.70474198578 37417.9491924311
    vertex 60266.90666379075 61135.70474198577 37417.9491924311
  endloop
endfacet
facet normal -0.9238795325112813 -0.0 -0.3826834323651034
  outer loop
    vertex 60998.95747135963 61135.70474198577 40149.999999999985
    vertex 61198.75831636889 41135.70474198578 39667.63809020503
    vertex 60998.95747135963 41135.70474198578 40149.999999999985
  endloop
endfacet
facet normal -0.9238795325112813 -0.0 -0.3826834323651034
  outer loop
    vertex 61198.75831636889 41135.70474198578 39667.63809020503
    vertex 60998.95747135963 61135.70474198577 40149.999999999985
    vertex 61198.75831636889 61135.70474198577 39667.63809020503
  endloop
endfacet
facet normal -0.7933533402912417 -0.0 -0.6087614290087121
  outer loop
    vertex 60681.120226163854 61135.70474198577 40564.21356237308
    vertex 60998.95747135963 41135.70474198578 40149.999999999985
    vertex 60681.120226163854 41135.70474198578 40564.21356237308
  endloop
endfacet
facet normal -0.7933533402912417 -0.0 -0.6087614290087121
  outer loop
    vertex 60998.95747135963 41135.70474198578 40149.999999999985
    vertex 60681.120226163854 61135.70474198577 40564.21356237308
    vertex 60998.95747135963 61135.70474198577 40149.999999999985
  endloop
endfacet
facet normal -0.6087614290087261 -0.0 -0.7933533402912312
  outer loop
    vertex 60681.120226163854 61135.70474198577 40564.21356237308
    vertex 60266.90666379075 41135.70474198578 40882.05080756886
    vertex 60266.90666379075 61135.70474198577 40882.05080756886
  endloop
endfacet
facet normal -0.6087614290087261 -0.0 -0.7933533402912312
  outer loop
    vertex 60266.90666379075 41135.70474198578 40882.05080756886
    vertex 60681.120226163854 61135.70474198577 40564.21356237308
    vertex 60681.120226163854 41135.70474198578 40564.21356237308
  endloop
endfacet
facet normal -0.3826834323650805 -0.0 -0.9238795325112906
  outer loop
    vertex 60266.90666379075 61135.70474198577 40882.05080756886
    vertex 59784.5447539958 41135.70474198578 41081.85165257812
    vertex 59784.5447539958 61135.70474198577 41081.85165257812
  endloop
endfacet
facet normal -0.3826834323650805 -0.0 -0.9238795325112906
  outer loop
    vertex 59784.5447539958 41135.70474198578 41081.85165257812
    vertex 60266.90666379075 61135.70474198577 40882.05080756886
    vertex 60266.90666379075 41135.70474198578 40882.05080756886
  endloop
endfacet
facet normal -0.13052619222005585 -0.0 -0.9914448613738099
  outer loop
    vertex 59784.5447539958 61135.70474198577 41081.85165257812
    vertex 59266.90666379075 41135.70474198578 41149.999999999985
    vertex 59266.90666379075 61135.70474198577 41149.999999999985
  endloop
endfacet
facet normal -0.13052619222005585 -0.0 -0.9914448613738099
  outer loop
    vertex 59266.90666379075 41135.70474198578 41149.999999999985
    vertex 59784.5447539958 61135.70474198577 41081.85165257812
    vertex 59784.5447539958 41135.70474198578 41081.85165257812
  endloop
endfacet
facet normal 0.13052619222005585 -0.0 -0.9914448613738099
  outer loop
    vertex 59266.90666379075 61135.70474198577 41149.999999999985
    vertex 58749.26857358571 41135.70474198578 41081.85165257812
    vertex 58749.26857358571 61135.70474198577 41081.85165257812
  endloop
endfacet
facet normal 0.13052619222005585 -0.0 -0.9914448613738099
  outer loop
    vertex 58749.26857358571 41135.70474198578 41081.85165257812
    vertex 59266.90666379075 61135.70474198577 41149.999999999985
    vertex 59266.90666379075 41135.70474198578 41149.999999999985
  endloop
endfacet
facet normal 0.3826834323650805 -0.0 -0.9238795325112906
  outer loop
    vertex 58749.26857358571 61135.70474198577 41081.85165257812
    vertex 58266.906663790745 41135.70474198578 40882.05080756886
    vertex 58266.906663790745 61135.70474198577 40882.05080756886
  endloop
endfacet
facet normal 0.3826834323650805 -0.0 -0.9238795325112906
  outer loop
    vertex 58266.906663790745 41135.70474198578 40882.05080756886
    vertex 58749.26857358571 61135.70474198577 41081.85165257812
    vertex 58749.26857358571 41135.70474198578 41081.85165257812
  endloop
endfacet
facet normal 0.6087614290087191 -0.0 -0.7933533402912365
  outer loop
    vertex 58266.906663790745 61135.70474198577 40882.05080756886
    vertex 57852.69310141765 41135.70474198578 40564.21356237309
    vertex 57852.69310141765 61135.70474198577 40564.21356237309
  endloop
endfacet
facet normal 0.6087614290087191 -0.0 -0.7933533402912365
  outer loop
    vertex 57852.69310141765 41135.70474198578 40564.21356237309
    vertex 58266.906663790745 61135.70474198577 40882.05080756886
    vertex 58266.906663790745 41135.70474198578 40882.05080756886
  endloop
endfacet
facet normal 0.7933533402912417 -0.0 -0.6087614290087121
  outer loop
    vertex 57534.855856221875 61135.70474198577 40149.999999999985
    vertex 57852.69310141765 41135.70474198578 40564.21356237309
    vertex 57534.855856221875 41135.70474198578 40149.999999999985
  endloop
endfacet
facet normal 0.7933533402912417 -0.0 -0.6087614290087121
  outer loop
    vertex 57852.69310141765 41135.70474198578 40564.21356237309
    vertex 57534.855856221875 61135.70474198577 40149.999999999985
    vertex 57852.69310141765 61135.70474198577 40564.21356237309
  endloop
endfacet
facet normal 0.9238795325112829 -0.0 -0.3826834323650994
  outer loop
    vertex 57335.05501121261 61135.70474198577 39667.63809020503
    vertex 57534.855856221875 41135.70474198578 40149.999999999985
    vertex 57335.05501121261 41135.70474198578 39667.63809020503
  endloop
endfacet
facet normal 0.9238795325112829 -0.0 -0.3826834323650994
  outer loop
    vertex 57534.855856221875 41135.70474198578 40149.999999999985
    vertex 57335.05501121261 61135.70474198577 39667.63809020503
    vertex 57534.855856221875 61135.70474198577 40149.999999999985
  endloop
endfacet
facet normal 0.9914448613738099 -0.0 -0.13052619222005585
  outer loop
    vertex 57266.906663790745 61135.70474198577 39149.999999999985
    vertex 57335.05501121261 41135.70474198578 39667.63809020503
    vertex 57266.906663790745 41135.70474198578 39149.999999999985
  endloop
endfacet
facet normal 0.9914448613738099 -0.0 -0.13052619222005585
  outer loop
    vertex 57335.05501121261 41135.70474198578 39667.63809020503
    vertex 57266.906663790745 61135.70474198577 39149.999999999985
    vertex 57335.05501121261 61135.70474198577 39667.63809020503
  endloop
endfacet
facet normal 0.9914448613738099 0.0 0.13052619222005585
  outer loop
    vertex 57335.05501121261 61135.70474198577 38632.36190979494
    vertex 57266.906663790745 41135.70474198578 39149.999999999985
    vertex 57335.05501121261 41135.70474198578 38632.36190979494
  endloop
endfacet
facet normal 0.9914448613738099 0.0 0.13052619222005585
  outer loop
    vertex 57266.906663790745 41135.70474198578 39149.999999999985
    vertex 57335.05501121261 61135.70474198577 38632.36190979494
    vertex 57266.906663790745 61135.70474198577 39149.999999999985
  endloop
endfacet
facet normal 0.9238795325112813 0.0 0.3826834323651034
  outer loop
    vertex 57534.855856221875 61135.70474198577 38149.999999999985
    vertex 57335.05501121261 41135.70474198578 38632.36190979494
    vertex 57534.855856221875 41135.70474198578 38149.999999999985
  endloop
endfacet
facet normal 0.9238795325112813 0.0 0.3826834323651034
  outer loop
    vertex 57335.05501121261 41135.70474198578 38632.36190979494
    vertex 57534.855856221875 61135.70474198577 38149.999999999985
    vertex 57335.05501121261 61135.70474198577 38632.36190979494
  endloop
endfacet
facet normal 0.7933533402912417 0.0 0.6087614290087121
  outer loop
    vertex 57852.69310141765 61135.70474198577 37735.78643762689
    vertex 57534.855856221875 41135.70474198578 38149.999999999985
    vertex 57852.69310141765 41135.70474198578 37735.78643762689
  endloop
endfacet
facet normal 0.7933533402912417 0.0 0.6087614290087121
  outer loop
    vertex 57534.855856221875 41135.70474198578 38149.999999999985
    vertex 57852.69310141765 61135.70474198577 37735.78643762689
    vertex 57534.855856221875 61135.70474198577 38149.999999999985
  endloop
endfacet
facet normal 0.9238795325112875 0.0 0.3826834323650884
  outer loop
    vertex 57534.855856221875 61135.70474198577 54149.999999999985
    vertex 57335.05501121262 41135.704741985806 54632.361909794934
    vertex 57534.855856221875 41135.704741985806 54149.999999999985
  endloop
endfacet
facet normal 0.9238795325112875 0.0 0.3826834323650884
  outer loop
    vertex 57335.05501121262 41135.704741985806 54632.361909794934
    vertex 57534.855856221875 61135.70474198577 54149.999999999985
    vertex 57335.05501121262 61135.70474198577 54632.361909794934
  endloop
endfacet
facet normal 0.13052619222005585 0.0 0.9914448613738099
  outer loop
    vertex 59266.90666379075 41135.70474198578 37149.999999999985
    vertex 58749.26857358571 61135.70474198577 37218.14834742185
    vertex 58749.26857358571 41135.70474198578 37218.14834742185
  endloop
endfacet
facet normal 0.13052619222005585 0.0 0.9914448613738099
  outer loop
    vertex 58749.26857358571 61135.70474198577 37218.14834742185
    vertex 59266.90666379075 41135.70474198578 37149.999999999985
    vertex 59266.90666379075 61135.70474198577 37149.999999999985
  endloop
endfacet
facet normal 0.6087614290087368 0.0 0.7933533402912228
  outer loop
    vertex 58266.906663790745 41135.704741985806 53417.9491924311
    vertex 57852.693101417666 61135.70474198577 53735.78643762689
    vertex 57852.693101417666 41135.704741985806 53735.78643762689
  endloop
endfacet
facet normal 0.6087614290087368 0.0 0.7933533402912228
  outer loop
    vertex 57852.693101417666 61135.70474198577 53735.78643762689
    vertex 58266.906663790745 41135.704741985806 53417.9491924311
    vertex 58266.906663790745 61135.70474198577 53417.9491924311
  endloop
endfacet
facet normal 0.13052619222005585 0.0 0.9914448613738099
  outer loop
    vertex 59266.90666379075 41135.704741985806 53149.999999999985
    vertex 58749.26857358571 61135.70474198577 53218.14834742185
    vertex 58749.26857358571 41135.704741985806 53218.14834742185
  endloop
endfacet
facet normal 0.13052619222005585 0.0 0.9914448613738099
  outer loop
    vertex 58749.26857358571 61135.70474198577 53218.14834742185
    vertex 59266.90666379075 41135.704741985806 53149.999999999985
    vertex 59266.90666379075 61135.70474198577 53149.999999999985
  endloop
endfacet
facet normal 0.9914448613738099 0.0 0.13052619222005585
  outer loop
    vertex 57335.05501121262 61135.70474198577 54632.361909794934
    vertex 57266.90666379076 41135.704741985806 55149.99999999998
    vertex 57335.05501121262 41135.704741985806 54632.361909794934
  endloop
endfacet
facet normal 0.9914448613738099 0.0 0.13052619222005585
  outer loop
    vertex 57266.90666379076 41135.704741985806 55149.99999999998
    vertex 57335.05501121262 61135.70474198577 54632.361909794934
    vertex 57266.90666379076 61135.70474198577 55149.99999999998
  endloop
endfacet
endsolid NewBeaconPusherFTC
