solid plexiglass corner cover
facet normal -0.0 -0.0 1.0
  outer loop
    vertex 2399.032753878615 10872.530068278214 4000.0
    vertex 32399.032753878622 40872.53006827823 4000.0
    vertex 2399.0327538786146 40872.53006827823 4000.0
  endloop
endfacet
facet normal -0.0 -0.0 1.0
  outer loop
    vertex 32399.032753878622 40872.53006827823 4000.0
    vertex 2399.032753878615 10872.530068278214 4000.0
    vertex 32399.032753878622 10872.530068278214 4000.0
  endloop
endfacet
facet normal 1.0 -0.0 -0.0
  outer loop
    vertex 35769.032753878615 40872.53006827823 989.9999999999999
    vertex 35769.032753878615 7872.530068278215 34000.0
    vertex 35769.032753878615 7872.530068278215 989.9999999999999
  endloop
endfacet
facet normal 1.0 -0.0 -0.0
  outer loop
    vertex 35769.032753878615 7872.530068278215 34000.0
    vertex 35769.032753878615 40872.53006827823 989.9999999999999
    vertex 35769.032753878615 40872.53006827823 34000.0
  endloop
endfacet
facet normal -1.0 -4.325563179917617e-18 1.1194092440001925e-18
  outer loop
    vertex 2399.032753878615 10872.530068278214 34000.0
    vertex 2399.0327538786146 7872.530068278215 989.9999999999999
    vertex 2399.0327538786146 7872.530068278215 34000.0
  endloop
endfacet
facet normal -1.0 -4.325563179917617e-18 1.1194092440001925e-18
  outer loop
    vertex 2399.0327538786146 7872.530068278215 989.9999999999999
    vertex 2399.032753878615 10872.530068278214 34000.0
    vertex 2399.032753878615 10872.530068278214 4000.0
  endloop
endfacet
facet normal -1.0 -4.325563179917617e-18 1.1194092440001925e-18
  outer loop
    vertex 2399.0327538786146 7872.530068278215 989.9999999999999
    vertex 2399.032753878615 10872.530068278214 4000.0
    vertex 2399.0327538786146 40872.53006827823 989.9999999999999
  endloop
endfacet
facet normal -1.0 -4.325563179917617e-18 1.1194092440001925e-18
  outer loop
    vertex 2399.0327538786146 40872.53006827823 989.9999999999999
    vertex 2399.032753878615 10872.530068278214 4000.0
    vertex 2399.0327538786146 40872.53006827823 4000.0
  endloop
endfacet
facet normal -0.0 1.0 -0.0
  outer loop
    vertex 2399.0327538786146 40872.53006827823 4000.0
    vertex 35769.032753878615 40872.53006827823 989.9999999999999
    vertex 2399.0327538786146 40872.53006827823 989.9999999999999
  endloop
endfacet
facet normal -0.0 1.0 -0.0
  outer loop
    vertex 35769.032753878615 40872.53006827823 989.9999999999999
    vertex 2399.0327538786146 40872.53006827823 4000.0
    vertex 32399.032753878622 40872.53006827823 4000.0
  endloop
endfacet
facet normal -0.0 1.0 -0.0
  outer loop
    vertex 35769.032753878615 40872.53006827823 989.9999999999999
    vertex 32399.032753878622 40872.53006827823 4000.0
    vertex 35769.032753878615 40872.53006827823 34000.0
  endloop
endfacet
facet normal -0.0 1.0 -0.0
  outer loop
    vertex 35769.032753878615 40872.53006827823 34000.0
    vertex 32399.032753878622 40872.53006827823 4000.0
    vertex 32399.032753878622 40872.53006827823 34000.0
  endloop
endfacet
facet normal -1.0 0.0 0.0
  outer loop
    vertex 32399.032753878622 40872.53006827823 34000.0
    vertex 32399.032753878622 10872.530068278214 4000.0
    vertex 32399.032753878622 10872.530068278214 34000.0
  endloop
endfacet
facet normal -1.0 0.0 0.0
  outer loop
    vertex 32399.032753878622 10872.530068278214 4000.0
    vertex 32399.032753878622 40872.53006827823 34000.0
    vertex 32399.032753878622 40872.53006827823 4000.0
  endloop
endfacet
facet normal 0.0 0.0 -1.0
  outer loop
    vertex 35769.032753878615 40872.53006827823 989.9999999999999
    vertex 2399.0327538786146 7872.530068278215 989.9999999999999
    vertex 2399.0327538786146 40872.53006827823 989.9999999999999
  endloop
endfacet
facet normal 0.0 0.0 -1.0
  outer loop
    vertex 2399.0327538786146 7872.530068278215 989.9999999999999
    vertex 35769.032753878615 40872.53006827823 989.9999999999999
    vertex 35769.032753878615 7872.530068278215 989.9999999999999
  endloop
endfacet
facet normal 0.0 -1.0 0.0
  outer loop
    vertex 35769.032753878615 7872.530068278215 34000.0
    vertex 2399.0327538786146 7872.530068278215 989.9999999999999
    vertex 35769.032753878615 7872.530068278215 989.9999999999999
  endloop
endfacet
facet normal 0.0 -1.0 0.0
  outer loop
    vertex 2399.0327538786146 7872.530068278215 989.9999999999999
    vertex 35769.032753878615 7872.530068278215 34000.0
    vertex 2399.0327538786146 7872.530068278215 34000.0
  endloop
endfacet
facet normal -0.0 -0.0 1.0
  outer loop
    vertex 35769.032753878615 7872.530068278215 34000.0
    vertex 2399.032753878615 10872.530068278214 34000.0
    vertex 2399.0327538786146 7872.530068278215 34000.0
  endloop
endfacet
facet normal -0.0 -0.0 1.0
  outer loop
    vertex 2399.032753878615 10872.530068278214 34000.0
    vertex 35769.032753878615 7872.530068278215 34000.0
    vertex 32399.032753878622 10872.530068278214 34000.0
  endloop
endfacet
facet normal -0.0 -0.0 1.0
  outer loop
    vertex 32399.032753878622 10872.530068278214 34000.0
    vertex 35769.032753878615 7872.530068278215 34000.0
    vertex 32399.032753878622 40872.53006827823 34000.0
  endloop
endfacet
facet normal -0.0 -0.0 1.0
  outer loop
    vertex 32399.032753878622 40872.53006827823 34000.0
    vertex 35769.032753878615 7872.530068278215 34000.0
    vertex 35769.032753878615 40872.53006827823 34000.0
  endloop
endfacet
facet normal -0.0 1.0 -0.0
  outer loop
    vertex 2399.032753878615 10872.530068278214 34000.0
    vertex 32399.032753878622 10872.530068278214 4000.0
    vertex 2399.032753878615 10872.530068278214 4000.0
  endloop
endfacet
facet normal -0.0 1.0 -0.0
  outer loop
    vertex 32399.032753878622 10872.530068278214 4000.0
    vertex 2399.032753878615 10872.530068278214 34000.0
    vertex 32399.032753878622 10872.530068278214 34000.0
  endloop
endfacet
endsolid plexiglass corner cover
