solid PlexiglassBeaconEdges
facet normal -1.0 0.0 0.0
  outer loop
    vertex 628126.4926450044 1331154.2824095637 5482.49999999912
    vertex 628126.4926450044 1328904.2824095641 2482.499999999317
    vertex 628126.4926450044 1328904.2824095637 5482.499999999073
  endloop
endfacet
facet normal -1.0 0.0 0.0
  outer loop
    vertex 628126.4926450044 1335904.282409563 5482.499999999097
    vertex 628126.4926450044 1333654.2824095641 2482.499999999479
    vertex 628126.4926450044 1333654.2824095632 5482.499999999259
  endloop
endfacet
facet normal -1.0 0.0 0.0
  outer loop
    vertex 628126.4926450044 1328904.2824095641 2482.499999999317
    vertex 628126.4926450044 1335904.2824095632 -2.5411281967535613e-10
    vertex 628126.4926450044 1328904.2824095637 0.0
  endloop
endfacet
facet normal -1.0 0.0 0.0
  outer loop
    vertex 628126.4926450044 1335904.2824095632 -2.5411281967535613e-10
    vertex 628126.4926450044 1328904.2824095641 2482.499999999317
    vertex 628126.4926450044 1331154.2824095646 2482.499999999617
  endloop
endfacet
facet normal -1.0 0.0 0.0
  outer loop
    vertex 628126.4926450044 1331154.2824095646 2482.499999999617
    vertex 628126.4926450044 1328904.2824095641 2482.499999999317
    vertex 628126.4926450044 1331154.2824095637 5482.49999999912
  endloop
endfacet
facet normal -1.0 0.0 0.0
  outer loop
    vertex 628126.4926450044 1335904.2824095632 -2.5411281967535613e-10
    vertex 628126.4926450044 1331154.2824095646 2482.499999999617
    vertex 628126.4926450044 1333654.2824095641 2482.499999999479
  endloop
endfacet
facet normal -1.0 0.0 0.0
  outer loop
    vertex 628126.4926450044 1335904.2824095632 -2.5411281967535613e-10
    vertex 628126.4926450044 1333654.2824095641 2482.499999999479
    vertex 628126.4926450044 1335904.282409563 5482.499999999097
  endloop
endfacet
facet normal -1.562728964378012e-19 -1.0 4.538036613155327e-15
  outer loop
    vertex 880665.9926450048 1328904.2824095641 2482.499999999317
    vertex 628126.4926450044 1328904.2824095637 0.0
    vertex 880665.9926450048 1328904.2824095637 0.0
  endloop
endfacet
facet normal -1.562728964378012e-19 -1.0 4.538036613155327e-15
  outer loop
    vertex 628126.4926450044 1328904.2824095637 0.0
    vertex 880665.9926450048 1328904.2824095641 2482.499999999317
    vertex 628126.4926450044 1328904.2824095641 2482.499999999317
  endloop
endfacet
facet normal 5.583790882367644e-19 -1.0 6.869504964868156e-15
  outer loop
    vertex 880665.9926450048 1328904.2824095634 5482.499999999073
    vertex 628126.4926450044 1328904.2824095641 2482.499999999317
    vertex 880665.9926450048 1328904.2824095641 2482.499999999317
  endloop
endfacet
facet normal 5.583790882367644e-19 -1.0 6.869504964868156e-15
  outer loop
    vertex 628126.4926450044 1328904.2824095641 2482.499999999317
    vertex 880665.9926450048 1328904.2824095634 5482.499999999073
    vertex 628126.4926450044 1328904.2824095637 5482.499999999073
  endloop
endfacet
facet normal 0.0 1.0 2.7755575615628914e-16
  outer loop
    vertex 628126.4926450044 1335904.282409563 5482.499999999097
    vertex 754396.2426450044 1335904.2824095632 -2.5411281967535613e-10
    vertex 628126.4926450044 1335904.2824095632 -2.5411281967535613e-10
  endloop
endfacet
facet normal 0.0 1.0 2.7755575615628914e-16
  outer loop
    vertex 754396.2426450044 1335904.2824095632 -2.5411281967535613e-10
    vertex 628126.4926450044 1335904.282409563 5482.499999999097
    vertex 754396.2426450048 1335904.282409563 5482.499999999097
  endloop
endfacet
facet normal 0.0 -2.7755575615628914e-16 1.0
  outer loop
    vertex 880665.9926450048 1331154.2824095646 2482.499999999617
    vertex 628126.4926450044 1333654.2824095641 2482.499999999479
    vertex 628126.4926450044 1331154.2824095646 2482.499999999617
  endloop
endfacet
facet normal 0.0 -2.7755575615628914e-16 1.0
  outer loop
    vertex 628126.4926450044 1333654.2824095641 2482.499999999479
    vertex 880665.9926450048 1331154.2824095646 2482.499999999617
    vertex 880665.9926450048 1333654.2824095641 2482.499999999479
  endloop
endfacet
facet normal 0.0 1.0 2.7755575615628914e-16
  outer loop
    vertex 754396.2426450048 1335904.282409563 5482.499999999097
    vertex 880665.9926450048 1335904.2824095632 -2.5411281967535613e-10
    vertex 754396.2426450044 1335904.2824095632 -2.5411281967535613e-10
  endloop
endfacet
facet normal 0.0 1.0 2.7755575615628914e-16
  outer loop
    vertex 880665.9926450048 1335904.2824095632 -2.5411281967535613e-10
    vertex 754396.2426450048 1335904.282409563 5482.499999999097
    vertex 880665.9926450048 1335904.282409563 5482.499999998842
  endloop
endfacet
facet normal 0.0 2.7755575615628914e-16 -1.0
  outer loop
    vertex 754396.2426450044 1335904.2824095632 -2.5411281967535613e-10
    vertex 628126.4926450044 1328904.2824095637 0.0
    vertex 628126.4926450044 1335904.2824095632 -2.5411281967535613e-10
  endloop
endfacet
facet normal 0.0 2.7755575615628914e-16 -1.0
  outer loop
    vertex 628126.4926450044 1328904.2824095637 0.0
    vertex 754396.2426450044 1335904.2824095632 -2.5411281967535613e-10
    vertex 880665.9926450048 1328904.2824095637 0.0
  endloop
endfacet
facet normal 0.0 2.7755575615628914e-16 -1.0
  outer loop
    vertex 880665.9926450048 1328904.2824095637 0.0
    vertex 754396.2426450044 1335904.2824095632 -2.5411281967535613e-10
    vertex 880665.9926450048 1335904.2824095632 -2.5411281967535613e-10
  endloop
endfacet
facet normal -1.0 0.0 0.0
  outer loop
    vertex 880665.9926450048 1331154.2824095637 5482.499999998889
    vertex 880665.9926450048 1328904.2824095641 2482.499999999317
    vertex 880665.9926450048 1328904.2824095634 5482.499999999073
  endloop
endfacet
facet normal -1.0 0.0 0.0
  outer loop
    vertex 880665.9926450048 1335904.282409563 5482.499999998842
    vertex 880665.9926450048 1333654.2824095641 2482.499999999479
    vertex 880665.9926450048 1333654.282409563 5482.499999999304
  endloop
endfacet
facet normal -1.0 0.0 0.0
  outer loop
    vertex 880665.9926450048 1328904.2824095641 2482.499999999317
    vertex 880665.9926450048 1335904.2824095632 -2.5411281967535613e-10
    vertex 880665.9926450048 1328904.2824095637 0.0
  endloop
endfacet
facet normal -1.0 0.0 0.0
  outer loop
    vertex 880665.9926450048 1335904.2824095632 -2.5411281967535613e-10
    vertex 880665.9926450048 1328904.2824095641 2482.499999999317
    vertex 880665.9926450048 1331154.2824095646 2482.499999999617
  endloop
endfacet
facet normal -1.0 0.0 0.0
  outer loop
    vertex 880665.9926450048 1331154.2824095646 2482.499999999617
    vertex 880665.9926450048 1328904.2824095641 2482.499999999317
    vertex 880665.9926450048 1331154.2824095637 5482.499999998889
  endloop
endfacet
facet normal -1.0 0.0 0.0
  outer loop
    vertex 880665.9926450048 1335904.2824095632 -2.5411281967535613e-10
    vertex 880665.9926450048 1331154.2824095646 2482.499999999617
    vertex 880665.9926450048 1333654.2824095641 2482.499999999479
  endloop
endfacet
facet normal -1.0 0.0 0.0
  outer loop
    vertex 880665.9926450048 1335904.2824095632 -2.5411281967535613e-10
    vertex 880665.9926450048 1333654.2824095641 2482.499999999479
    vertex 880665.9926450048 1335904.282409563 5482.499999998842
  endloop
endfacet
facet normal 1.0977054484561403e-15 1.341982081015658e-14 1.0
  outer loop
    vertex 880665.9926450048 1333654.282409563 5482.499999999304
    vertex 628126.4926450044 1335904.282409563 5482.499999999097
    vertex 628126.4926450044 1333654.2824095632 5482.499999999259
  endloop
endfacet
facet normal 1.0977054484561403e-15 1.341982081015658e-14 1.0
  outer loop
    vertex 628126.4926450044 1335904.282409563 5482.499999999097
    vertex 880665.9926450048 1333654.282409563 5482.499999999304
    vertex 754396.2426450048 1335904.282409563 5482.499999999097
  endloop
endfacet
facet normal 1.0977054484561403e-15 1.341982081015658e-14 1.0
  outer loop
    vertex 754396.2426450048 1335904.282409563 5482.499999999097
    vertex 880665.9926450048 1333654.282409563 5482.499999999304
    vertex 880665.9926450048 1335904.282409563 5482.499999998842
  endloop
endfacet
facet normal -3.716190320294358e-16 -1.0 -4.103661854770735e-14
  outer loop
    vertex 880665.9926450048 1333654.282409563 5482.499999999304
    vertex 628126.4926450044 1333654.2824095641 2482.499999999479
    vertex 880665.9926450048 1333654.2824095641 2482.499999999479
  endloop
endfacet
facet normal -3.716190320294358e-16 -1.0 -4.103661854770735e-14
  outer loop
    vertex 628126.4926450044 1333654.2824095641 2482.499999999479
    vertex 880665.9926450048 1333654.282409563 5482.499999999304
    vertex 628126.4926450044 1333654.2824095632 5482.499999999259
  endloop
endfacet
facet normal -8.647289014530737e-17 1.0 8.465450562766819e-16
  outer loop
    vertex 628126.4926450044 1331154.2824095637 5482.49999999912
    vertex 880665.9926450048 1331154.2824095646 2482.499999999617
    vertex 628126.4926450044 1331154.2824095646 2482.499999999617
  endloop
endfacet
facet normal -8.647289014530737e-17 1.0 8.465450562766819e-16
  outer loop
    vertex 880665.9926450048 1331154.2824095646 2482.499999999617
    vertex 628126.4926450044 1331154.2824095637 5482.49999999912
    vertex 880665.9926450048 1331154.2824095637 5482.499999998889
  endloop
endfacet
facet normal 7.318036323040903e-16 -2.7755575615628914e-16 1.0
  outer loop
    vertex 880665.9926450048 1328904.2824095634 5482.499999999073
    vertex 628126.4926450044 1331154.2824095637 5482.49999999912
    vertex 628126.4926450044 1328904.2824095637 5482.499999999073
  endloop
endfacet
facet normal 7.318036323040903e-16 -2.7755575615628914e-16 1.0
  outer loop
    vertex 628126.4926450044 1331154.2824095637 5482.49999999912
    vertex 880665.9926450048 1328904.2824095634 5482.499999999073
    vertex 880665.9926450048 1331154.2824095637 5482.499999998889
  endloop
endfacet
endsolid PlexiglassBeaconEdges
