solid PlexiglassBeaconEdges
facet normal 0.0 6.106226635438361e-16 1.0
  outer loop
    vertex 1816892.822483987 1199371.7592094385 10757.499999999889
    vertex 1530507.8224839868 1201621.759209439 10757.499999999705
    vertex 1530507.8224839868 1199371.7592094385 10757.499999999889
  endloop
endfacet
facet normal 0.0 6.106226635438361e-16 1.0
  outer loop
    vertex 1530507.8224839868 1201621.759209439 10757.499999999705
    vertex 1816892.822483987 1199371.7592094385 10757.499999999889
    vertex 1673700.322483987 1201621.759209439 10757.499999999705
  endloop
endfacet
facet normal 0.0 6.106226635438361e-16 1.0
  outer loop
    vertex 1673700.322483987 1201621.759209439 10757.499999999705
    vertex 1816892.822483987 1199371.7592094385 10757.499999999889
    vertex 1816892.822483987 1201621.759209439 10757.499999999705
  endloop
endfacet
facet normal 0.0 1.0 -6.106226635438361e-16
  outer loop
    vertex 1530507.8224839868 1201621.759209439 10757.499999999705
    vertex 1673700.3224839864 1201621.7592094387 4.620233085006475e-11
    vertex 1547430.5724839864 1201621.7592094387 4.620233085006475e-11
  endloop
endfacet
facet normal 0.0 1.0 -6.106226635438361e-16
  outer loop
    vertex 1673700.3224839864 1201621.7592094387 4.620233085006475e-11
    vertex 1530507.8224839868 1201621.759209439 10757.499999999705
    vertex 1673700.322483987 1201621.759209439 10757.499999999705
  endloop
endfacet
facet normal 1.2483177163144902e-33 -1.0 -3.0531133177191797e-15
  outer loop
    vertex 1803875.3224839864 1194621.7592094392 2482.4999999995016
    vertex 1547430.5724839864 1194621.7592094387 0.0
    vertex 1799970.072483987 1194621.7592094387 0.0
  endloop
endfacet
facet normal 1.2483177163144902e-33 -1.0 -3.0531133177191797e-15
  outer loop
    vertex 1547430.5724839864 1194621.7592094387 0.0
    vertex 1803875.3224839864 1194621.7592094392 2482.4999999995016
    vertex 1543525.3224839866 1194621.7592094392 2482.4999999995016
  endloop
endfacet
facet normal 0.0 -6.106226635438361e-16 -1.0
  outer loop
    vertex 1673700.3224839864 1201621.7592094387 4.620233085006475e-11
    vertex 1547430.5724839864 1194621.7592094387 0.0
    vertex 1547430.5724839864 1201621.7592094387 4.620233085006475e-11
  endloop
endfacet
facet normal 0.0 -6.106226635438361e-16 -1.0
  outer loop
    vertex 1547430.5724839864 1194621.7592094387 0.0
    vertex 1673700.3224839864 1201621.7592094387 4.620233085006475e-11
    vertex 1799970.072483987 1194621.7592094387 0.0
  endloop
endfacet
facet normal 0.0 -6.106226635438361e-16 -1.0
  outer loop
    vertex 1799970.072483987 1194621.7592094387 0.0
    vertex 1673700.3224839864 1201621.7592094387 4.620233085006475e-11
    vertex 1799970.072483987 1201621.7592094387 4.620233085006475e-11
  endloop
endfacet
facet normal 3.873465699594286e-33 -1.0 5.995204332975845e-15
  outer loop
    vertex 1816892.822483987 1194621.7592094387 10757.499999999889
    vertex 1543525.3224839866 1194621.7592094392 2482.4999999995016
    vertex 1803875.3224839864 1194621.7592094392 2482.4999999995016
  endloop
endfacet
facet normal 3.873465699594286e-33 -1.0 5.995204332975845e-15
  outer loop
    vertex 1543525.3224839866 1194621.7592094392 2482.4999999995016
    vertex 1816892.822483987 1194621.7592094387 10757.499999999889
    vertex 1530507.8224839868 1194621.7592094387 10757.499999999889
  endloop
endfacet
facet normal 0.0 6.106226635438361e-16 1.0
  outer loop
    vertex 1803875.3224839864 1196871.7592094385 2482.4999999998713
    vertex 1543525.3224839866 1199371.7592094385 2482.499999999548
    vertex 1543525.3224839866 1196871.7592094385 2482.4999999998713
  endloop
endfacet
facet normal 0.0 6.106226635438361e-16 1.0
  outer loop
    vertex 1543525.3224839866 1199371.7592094385 2482.499999999548
    vertex 1803875.3224839864 1196871.7592094385 2482.4999999998713
    vertex 1803875.3224839864 1199371.7592094385 2482.499999999548
  endloop
endfacet
facet normal 0.0 6.106226635438361e-16 1.0
  outer loop
    vertex 1816892.822483987 1194621.7592094387 10757.499999999889
    vertex 1530507.8224839868 1196871.7592094392 10757.499999999844
    vertex 1530507.8224839868 1194621.7592094387 10757.499999999889
  endloop
endfacet
facet normal 0.0 6.106226635438361e-16 1.0
  outer loop
    vertex 1530507.8224839868 1196871.7592094392 10757.499999999844
    vertex 1816892.822483987 1194621.7592094387 10757.499999999889
    vertex 1816892.822483987 1196871.7592094392 10757.499999999844
  endloop
endfacet
facet normal -8.456564245046818e-17 1.0 -4.996003610813205e-16
  outer loop
    vertex 1530507.8224839868 1196871.7592094392 10757.499999999844
    vertex 1803875.3224839864 1196871.7592094385 2482.4999999998713
    vertex 1543525.3224839866 1196871.7592094385 2482.4999999998713
  endloop
endfacet
facet normal -8.456564245046818e-17 1.0 -4.996003610813205e-16
  outer loop
    vertex 1803875.3224839864 1196871.7592094385 2482.4999999998713
    vertex 1530507.8224839868 1196871.7592094392 10757.499999999844
    vertex 1816892.822483987 1196871.7592094392 10757.499999999844
  endloop
endfacet
facet normal 0.0 1.0 -6.106226635438361e-16
  outer loop
    vertex 1673700.322483987 1201621.759209439 10757.499999999705
    vertex 1799970.072483987 1201621.7592094387 4.620233085006475e-11
    vertex 1673700.3224839864 1201621.7592094387 4.620233085006475e-11
  endloop
endfacet
facet normal 0.0 1.0 -6.106226635438361e-16
  outer loop
    vertex 1799970.072483987 1201621.7592094387 4.620233085006475e-11
    vertex 1673700.322483987 1201621.759209439 10757.499999999705
    vertex 1816892.822483987 1201621.759209439 10757.499999999705
  endloop
endfacet
facet normal 0.5364664294628059 5.467848396278896e-15 -0.8439216610914951
  outer loop
    vertex 1799970.072483987 1201621.7592094387 4.620233085006475e-11
    vertex 1803875.3224839864 1199371.7592094385 2482.499999999548
    vertex 1799970.072483987 1194621.7592094387 0.0
  endloop
endfacet
facet normal 0.5364664294628059 5.467848396278896e-15 -0.8439216610914951
  outer loop
    vertex 1803875.3224839864 1199371.7592094385 2482.499999999548
    vertex 1799970.072483987 1201621.7592094387 4.620233085006475e-11
    vertex 1816892.822483987 1201621.759209439 10757.499999999705
  endloop
endfacet
facet normal 0.5364664294628059 5.467848396278896e-15 -0.8439216610914951
  outer loop
    vertex 1803875.3224839864 1199371.7592094385 2482.499999999548
    vertex 1816892.822483987 1201621.759209439 10757.499999999705
    vertex 1816892.822483987 1199371.7592094385 10757.499999999889
  endloop
endfacet
facet normal 0.5364664294628059 5.467848396278896e-15 -0.8439216610914951
  outer loop
    vertex 1803875.3224839864 1199371.7592094385 2482.499999999548
    vertex 1803875.3224839864 1194621.7592094392 2482.4999999995016
    vertex 1799970.072483987 1194621.7592094387 0.0
  endloop
endfacet
facet normal 0.5364664294628059 5.467848396278896e-15 -0.8439216610914951
  outer loop
    vertex 1803875.3224839864 1194621.7592094392 2482.4999999995016
    vertex 1803875.3224839864 1199371.7592094385 2482.499999999548
    vertex 1803875.3224839864 1196871.7592094385 2482.4999999998713
  endloop
endfacet
facet normal 0.5364664294628059 5.467848396278896e-15 -0.8439216610914951
  outer loop
    vertex 1803875.3224839864 1194621.7592094392 2482.4999999995016
    vertex 1803875.3224839864 1196871.7592094385 2482.4999999998713
    vertex 1816892.822483987 1196871.7592094392 10757.499999999844
  endloop
endfacet
facet normal 0.5364664294628059 5.467848396278896e-15 -0.8439216610914951
  outer loop
    vertex 1803875.3224839864 1194621.7592094392 2482.4999999995016
    vertex 1816892.822483987 1196871.7592094392 10757.499999999844
    vertex 1816892.822483987 1194621.7592094387 10757.499999999889
  endloop
endfacet
facet normal -0.5364664294628171 9.686695889854491e-15 -0.843921661091488
  outer loop
    vertex 1547430.5724839864 1201621.7592094387 4.620233085006475e-11
    vertex 1530507.8224839868 1199371.7592094385 10757.499999999889
    vertex 1530507.8224839868 1201621.759209439 10757.499999999705
  endloop
endfacet
facet normal -0.5364664294628171 9.686695889854491e-15 -0.843921661091488
  outer loop
    vertex 1530507.8224839868 1199371.7592094385 10757.499999999889
    vertex 1547430.5724839864 1201621.7592094387 4.620233085006475e-11
    vertex 1543525.3224839866 1199371.7592094385 2482.499999999548
  endloop
endfacet
facet normal -0.5364664294628171 9.686695889854491e-15 -0.843921661091488
  outer loop
    vertex 1543525.3224839866 1199371.7592094385 2482.499999999548
    vertex 1547430.5724839864 1201621.7592094387 4.620233085006475e-11
    vertex 1543525.3224839866 1196871.7592094385 2482.4999999998713
  endloop
endfacet
facet normal -0.5364664294628171 9.686695889854491e-15 -0.843921661091488
  outer loop
    vertex 1543525.3224839866 1196871.7592094385 2482.4999999998713
    vertex 1547430.5724839864 1201621.7592094387 4.620233085006475e-11
    vertex 1543525.3224839866 1194621.7592094392 2482.4999999995016
  endloop
endfacet
facet normal -0.5364664294628171 9.686695889854491e-15 -0.843921661091488
  outer loop
    vertex 1543525.3224839866 1194621.7592094392 2482.4999999995016
    vertex 1547430.5724839864 1201621.7592094387 4.620233085006475e-11
    vertex 1547430.5724839864 1194621.7592094387 0.0
  endloop
endfacet
facet normal -0.5364664294628171 9.686695889854491e-15 -0.843921661091488
  outer loop
    vertex 1543525.3224839866 1196871.7592094385 2482.4999999998713
    vertex 1530507.8224839868 1194621.7592094387 10757.499999999889
    vertex 1530507.8224839868 1196871.7592094392 10757.499999999844
  endloop
endfacet
facet normal -0.5364664294628171 9.686695889854491e-15 -0.843921661091488
  outer loop
    vertex 1530507.8224839868 1194621.7592094387 10757.499999999889
    vertex 1543525.3224839866 1196871.7592094385 2482.4999999998713
    vertex 1543525.3224839866 1194621.7592094392 2482.4999999995016
  endloop
endfacet
facet normal 8.707500869528918e-17 -1.0 6.106226635438361e-16
  outer loop
    vertex 1816892.822483987 1199371.7592094385 10757.499999999889
    vertex 1543525.3224839866 1199371.7592094385 2482.499999999548
    vertex 1803875.3224839864 1199371.7592094385 2482.499999999548
  endloop
endfacet
facet normal 8.707500869528918e-17 -1.0 6.106226635438361e-16
  outer loop
    vertex 1543525.3224839866 1199371.7592094385 2482.499999999548
    vertex 1816892.822483987 1199371.7592094385 10757.499999999889
    vertex 1530507.8224839868 1199371.7592094385 10757.499999999889
  endloop
endfacet
endsolid PlexiglassBeaconEdges
