solid PlexiglassBeaconEdges
facet normal -0.9217102868704953 0.3878790366559005 0.0
  outer loop
    vertex 307768.11131608754 1464883.156586653 7000.000000000075
    vertex 305855.9339610109 1460339.282409564 4750.000000000077
    vertex 305855.9339610109 1460339.282409564 7000.000000000075
  endloop
endfacet
facet normal -0.9217102868704953 0.3878790366559005 0.0
  outer loop
    vertex 305855.9339610109 1460339.282409564 4750.000000000077
    vertex 307768.11131608754 1464883.156586653 7000.000000000075
    vertex 307768.11131608754 1464883.156586653 4750.000000000077
  endloop
endfacet
facet normal 0.0 -1.0 0.0
  outer loop
    vertex 312761.1839610106 1460339.282409564 7000.000000000075
    vertex 308855.9339610108 1460339.282409564 2250.0000000000787
    vertex 312761.1839610106 1460339.282409564 2250.0000000000773
  endloop
endfacet
facet normal 0.0 -1.0 0.0
  outer loop
    vertex 308855.9339610108 1460339.282409564 2250.0000000000787
    vertex 312761.1839610106 1460339.282409564 7000.000000000075
    vertex 308855.9339610108 1460339.282409564 4750.000000000077
  endloop
endfacet
facet normal 0.0 -1.0 0.0
  outer loop
    vertex 308855.9339610108 1460339.282409564 4750.000000000077
    vertex 312761.1839610106 1460339.282409564 7000.000000000075
    vertex 305855.9339610109 1460339.282409564 4750.000000000077
  endloop
endfacet
facet normal 0.0 -1.0 0.0
  outer loop
    vertex 305855.9339610109 1460339.282409564 4750.000000000077
    vertex 312761.1839610106 1460339.282409564 7000.000000000075
    vertex 305855.9339610109 1460339.282409564 7000.000000000075
  endloop
endfacet
facet normal -2.8033068748189154e-16 5.237701030603074e-16 -1.0
  outer loop
    vertex 311242.6128297041 1465576.5641377463 2250.0000000000787
    vertex 308855.9339610108 1460339.282409564 2250.0000000000787
    vertex 308855.9339610108 1461921.7824095634 2250.0000000000787
  endloop
endfacet
facet normal -2.8033068748189154e-16 5.237701030603074e-16 -1.0
  outer loop
    vertex 308855.9339610108 1460339.282409564 2250.0000000000787
    vertex 311242.6128297041 1465576.5641377463 2250.0000000000787
    vertex 312761.1839610106 1460339.282409564 2250.0000000000773
  endloop
endfacet
facet normal -2.8033068748189154e-16 5.237701030603074e-16 -1.0
  outer loop
    vertex 312761.1839610106 1460339.282409564 2250.0000000000773
    vertex 311242.6128297041 1465576.5641377463 2250.0000000000787
    vertex 313865.63487541187 1469065.6071083413 2250.00000000008
  endloop
endfacet
facet normal -2.8033068748189154e-16 5.237701030603074e-16 -1.0
  outer loop
    vertex 312761.1839610106 1460339.282409564 2250.0000000000773
    vertex 313865.63487541187 1469065.6071083413 2250.00000000008
    vertex 315076.26246364333 1463884.4206859013 2250.0000000000773
  endloop
endfacet
facet normal -2.8033068748189154e-16 5.237701030603074e-16 -1.0
  outer loop
    vertex 315076.26246364333 1463884.4206859013 2250.0000000000773
    vertex 313865.63487541187 1469065.6071083413 2250.00000000008
    vertex 316713.52883062576 1472373.6526828131 2250.00000000008
  endloop
endfacet
facet normal -2.8033068748189154e-16 5.237701030603074e-16 -1.0
  outer loop
    vertex 315076.26246364333 1463884.4206859013 2250.0000000000773
    vertex 316713.52883062576 1472373.6526828131 2250.00000000008
    vertex 317620.59384798 1467268.7923673785 2250.0000000000773
  endloop
endfacet
facet normal -2.8033068748189154e-16 5.237701030603074e-16 -1.0
  outer loop
    vertex 317620.59384798 1467268.7923673785 2250.0000000000773
    vertex 316713.52883062576 1472373.6526828131 2250.00000000008
    vertex 319773.8399950704 1475486.2337788981 2250.000000000081
  endloop
endfacet
facet normal -2.8033068748189154e-16 5.237701030603074e-16 -1.0
  outer loop
    vertex 317620.59384798 1467268.7923673785 2250.0000000000773
    vertex 319773.8399950704 1475486.2337788981 2250.000000000081
    vertex 320383.05098453735 1470477.5965746162 2250.0000000000773
  endloop
endfacet
facet normal -2.8033068748189154e-16 5.237701030603074e-16 -1.0
  outer loop
    vertex 320383.05098453735 1470477.5965746162 2250.0000000000773
    vertex 319773.8399950704 1475486.2337788981 2250.000000000081
    vertex 323033.1847038673 1478389.738139522 2250.000000000082
  endloop
endfacet
facet normal -2.8033068748189154e-16 5.237701030603074e-16 -1.0
  outer loop
    vertex 320383.05098453735 1470477.5965746162 2250.0000000000773
    vertex 323033.1847038673 1478389.738139522 2250.000000000082
    vertex 323351.5528140484 1473496.8002378184 2250.0000000000773
  endloop
endfacet
facet normal -2.8033068748189154e-16 5.237701030603074e-16 -1.0
  outer loop
    vertex 323351.5528140484 1473496.8002378184 2250.0000000000773
    vertex 323033.1847038673 1478389.738139522 2250.000000000082
    vertex 326477.30885834526 1481071.467863314 2250.0000000000823
  endloop
endfacet
facet normal -2.8033068748189154e-16 5.237701030603074e-16 -1.0
  outer loop
    vertex 323351.5528140484 1473496.8002378184 2250.0000000000773
    vertex 326477.30885834526 1481071.467863314 2250.0000000000823
    vertex 326513.11718158174 1476313.1994676238 2250.0000000000773
  endloop
endfacet
facet normal -2.8033068748189154e-16 5.237701030603074e-16 -1.0
  outer loop
    vertex 326513.11718158174 1476313.1994676238 2250.0000000000773
    vertex 326477.30885834526 1481071.467863314 2250.0000000000823
    vertex 330091.1502635169 1483519.6949363602 2250.000000000083
  endloop
endfacet
facet normal -2.8033068748189154e-16 5.237701030603074e-16 -1.0
  outer loop
    vertex 326513.11718158174 1476313.1994676238 2250.0000000000773
    vertex 330091.1502635169 1483519.6949363602 2250.000000000083
    vertex 329853.9176114253 1478914.4772997021 2250.0000000000773
  endloop
endfacet
facet normal -2.8033068748189154e-16 5.237701030603074e-16 -1.0
  outer loop
    vertex 329853.9176114253 1478914.4772997021 2250.0000000000773
    vertex 330091.1502635169 1483519.6949363602 2250.000000000083
    vertex 333359.34377444134 1481289.2575605568 2250.0000000000773
  endloop
endfacet
facet normal -2.8033068748189154e-16 5.237701030603074e-16 -1.0
  outer loop
    vertex 333359.34377444134 1481289.2575605568 2250.0000000000773
    vertex 330091.1502635169 1483519.6949363602 2250.000000000083
    vertex 333858.90449960565 1485723.7125223516 2250.000000000083
  endloop
endfacet
facet normal -2.8033068748189154e-16 5.237701030603074e-16 -1.0
  outer loop
    vertex 333359.34377444134 1481289.2575605568 2250.0000000000773
    vertex 333858.90449960565 1485723.7125223516 2250.000000000083
    vertex 337014.06538344786 1483427.1546189687 2250.0000000000773
  endloop
endfacet
facet normal -2.8033068748189154e-16 5.237701030603074e-16 -1.0
  outer loop
    vertex 337014.06538344786 1483427.1546189687 2250.0000000000773
    vertex 333858.90449960565 1485723.7125223516 2250.000000000083
    vertex 337764.094039548 1487673.8817868144 2250.0000000000846
  endloop
endfacet
facet normal -2.8033068748189154e-16 5.237701030603074e-16 -1.0
  outer loop
    vertex 337014.06538344786 1483427.1546189687 2250.0000000000773
    vertex 337764.094039548 1487673.8817868144 2250.0000000000846
    vertex 340802.09923719167 1485318.8188054974 2250.0000000000773
  endloop
endfacet
facet normal -2.8033068748189154e-16 5.237701030603074e-16 -1.0
  outer loop
    vertex 340802.09923719167 1485318.8188054974 2250.0000000000773
    vertex 337764.094039548 1487673.8817868144 2250.0000000000846
    vertex 341789.64031019196 1489361.6740506403 2250.0000000000846
  endloop
endfacet
facet normal -2.8033068748189154e-16 5.237701030603074e-16 -1.0
  outer loop
    vertex 340802.09923719167 1485318.8188054974 2250.0000000000773
    vertex 341789.64031019196 1489361.6740506403 2250.0000000000846
    vertex 344706.8791197164 1486955.9773014088 2250.0000000000773
  endloop
endfacet
facet normal -2.8033068748189154e-16 5.237701030603074e-16 -1.0
  outer loop
    vertex 344706.8791197164 1486955.9773014088 2250.0000000000773
    vertex 341789.64031019196 1489361.6740506403 2250.0000000000846
    vertex 345917.93838205835 1490779.7080885794 2250.0000000000846
  endloop
endfacet
facet normal -2.8033068748189154e-16 5.237701030603074e-16 -1.0
  outer loop
    vertex 344706.8791197164 1486955.9773014088 2250.0000000000773
    vertex 345917.93838205835 1490779.7080885794 2250.0000000000846
    vertex 348711.3282494267 1488331.4703182094 2250.0000000000773
  endloop
endfacet
facet normal -2.8033068748189154e-16 5.237701030603074e-16 -1.0
  outer loop
    vertex 348711.3282494267 1488331.4703182094 2250.0000000000773
    vertex 345917.93838205835 1490779.7080885794 2250.0000000000846
    vertex 350130.9339610108 1491921.7824095632 2250.000000000086
  endloop
endfacet
facet normal -2.8033068748189154e-16 5.237701030603074e-16 -1.0
  outer loop
    vertex 348711.3282494267 1488331.4703182094 2250.0000000000773
    vertex 350130.9339610108 1491921.7824095632 2250.000000000086
    vertex 352797.9339610108 1489439.282409564 2250.0000000000773
  endloop
endfacet
facet normal -2.8033068748189154e-16 5.237701030603074e-16 -1.0
  outer loop
    vertex 352797.9339610108 1489439.282409564 2250.0000000000773
    vertex 350130.9339610108 1491921.7824095632 2250.000000000086
    vertex 352797.9339610108 1491921.7824095632 2250.0000000000864
  endloop
endfacet
facet normal -0.8818893557740121 0.47145642871054194 0.0
  outer loop
    vertex 310092.31092908536 1469230.7203795637 7000.000000000075
    vertex 307768.11131608754 1464883.156586653 4750.000000000077
    vertex 307768.11131608754 1464883.156586653 7000.000000000075
  endloop
endfacet
facet normal -0.8818893557740121 0.47145642871054194 0.0
  outer loop
    vertex 307768.11131608754 1464883.156586653 4750.000000000077
    vertex 310092.31092908536 1469230.7203795637 7000.000000000075
    vertex 310092.31092908536 1469230.7203795637 4750.000000000077
  endloop
endfacet
facet normal 0.0 1.0 0.0
  outer loop
    vertex 350130.9339610108 1494921.7824095632 7000.000000000075
    vertex 352797.9339610108 1494921.7824095632 4750.000000000079
    vertex 350130.9339610108 1494921.7824095632 4750.000000000077
  endloop
endfacet
facet normal 0.0 1.0 0.0
  outer loop
    vertex 352797.9339610108 1494921.7824095632 4750.000000000079
    vertex 350130.9339610108 1494921.7824095632 7000.000000000075
    vertex 352797.9339610108 1494921.7824095632 7000.000000000075
  endloop
endfacet
facet normal 2.415686986978189e-16 -2.2326603775685045e-16 -1.0
  outer loop
    vertex 310092.31092908536 1469230.7203795637 4750.000000000077
    vertex 308855.9339610108 1461921.7824095634 4750.000000000077
    vertex 307768.11131608754 1464883.156586653 4750.000000000077
  endloop
endfacet
facet normal 2.415686986978189e-16 -2.2326603775685045e-16 -1.0
  outer loop
    vertex 308855.9339610108 1461921.7824095634 4750.000000000077
    vertex 310092.31092908536 1469230.7203795637 4750.000000000077
    vertex 311242.6128297041 1465576.5641377463 4750.000000000079
  endloop
endfacet
facet normal 2.415686986978189e-16 -2.2326603775685045e-16 -1.0
  outer loop
    vertex 311242.6128297041 1465576.5641377463 4750.000000000079
    vertex 310092.31092908536 1469230.7203795637 4750.000000000077
    vertex 312808.6123477183 1473344.7113102314 4750.000000000077
  endloop
endfacet
facet normal 2.415686986978189e-16 -2.2326603775685045e-16 -1.0
  outer loop
    vertex 311242.6128297041 1465576.5641377463 4750.000000000079
    vertex 312808.6123477183 1473344.7113102314 4750.000000000077
    vertex 313865.63487541187 1469065.6071083413 4750.000000000079
  endloop
endfacet
facet normal 2.415686986978189e-16 -2.2326603775685045e-16 -1.0
  outer loop
    vertex 313865.63487541187 1469065.6071083413 4750.000000000079
    vertex 312808.6123477183 1473344.7113102314 4750.000000000077
    vertex 315893.7344594263 1477189.8688272047 4750.000000000077
  endloop
endfacet
facet normal 2.415686986978189e-16 -2.2326603775685045e-16 -1.0
  outer loop
    vertex 313865.63487541187 1469065.6071083413 4750.000000000079
    vertex 315893.7344594263 1477189.8688272047 4750.000000000077
    vertex 316713.52883062576 1472373.6526828131 4750.000000000081
  endloop
endfacet
facet normal 2.415686986978189e-16 -2.2326603775685045e-16 -1.0
  outer loop
    vertex 316713.52883062576 1472373.6526828131 4750.000000000081
    vertex 315893.7344594263 1477189.8688272047 4750.000000000077
    vertex 319321.23503115895 1480733.2365198464 4750.000000000077
  endloop
endfacet
facet normal 2.415686986978189e-16 -2.2326603775685045e-16 -1.0
  outer loop
    vertex 316713.52883062576 1472373.6526828131 4750.000000000081
    vertex 319321.23503115895 1480733.2365198464 4750.000000000077
    vertex 319773.8399950704 1475486.2337788981 4750.000000000081
  endloop
endfacet
facet normal 2.415686986978189e-16 -2.2326603775685045e-16 -1.0
  outer loop
    vertex 319773.8399950704 1475486.2337788981 4750.000000000081
    vertex 319321.23503115895 1480733.2365198464 4750.000000000077
    vertex 323061.7373427684 1483944.4445840071 4750.000000000077
  endloop
endfacet
facet normal 2.415686986978189e-16 -2.2326603775685045e-16 -1.0
  outer loop
    vertex 319773.8399950704 1475486.2337788981 4750.000000000081
    vertex 323061.7373427684 1483944.4445840071 4750.000000000077
    vertex 323033.1847038673 1478389.738139522 4750.000000000082
  endloop
endfacet
facet normal 2.415686986978189e-16 -2.2326603775685045e-16 -1.0
  outer loop
    vertex 323033.1847038673 1478389.738139522 4750.000000000082
    vertex 323061.7373427684 1483944.4445840071 4750.000000000077
    vertex 326477.30885834526 1481071.467863314 4750.000000000082
  endloop
endfacet
facet normal 2.415686986978189e-16 -2.2326603775685045e-16 -1.0
  outer loop
    vertex 326477.30885834526 1481071.467863314 4750.000000000082
    vertex 323061.7373427684 1483944.4445840071 4750.000000000077
    vertex 327083.1819715585 1486795.9701181834 4750.000000000077
  endloop
endfacet
facet normal 2.415686986978189e-16 -2.2326603775685045e-16 -1.0
  outer loop
    vertex 326477.30885834526 1481071.467863314 4750.000000000082
    vertex 327083.1819715585 1486795.9701181834 4750.000000000077
    vertex 330091.1502635169 1483519.6949363602 4750.000000000082
  endloop
endfacet
facet normal 2.415686986978189e-16 -2.2326603775685045e-16 -1.0
  outer loop
    vertex 330091.1502635169 1483519.6949363602 4750.000000000082
    vertex 327083.1819715585 1486795.9701181834 4750.000000000077
    vertex 331351.10156997497 1489263.3730191987 4750.000000000077
  endloop
endfacet
facet normal 2.415686986978189e-16 -2.2326603775685045e-16 -1.0
  outer loop
    vertex 330091.1502635169 1483519.6949363602 4750.000000000082
    vertex 331351.10156997497 1489263.3730191987 4750.000000000077
    vertex 333858.90449960565 1485723.7125223516 4750.000000000084
  endloop
endfacet
facet normal 2.415686986978189e-16 -2.2326603775685045e-16 -1.0
  outer loop
    vertex 333858.90449960565 1485723.7125223516 4750.000000000084
    vertex 331351.10156997497 1489263.3730191987 4750.000000000077
    vertex 335828.91628134594 1491325.5054555652 4750.000000000077
  endloop
endfacet
facet normal 2.415686986978189e-16 -2.2326603775685045e-16 -1.0
  outer loop
    vertex 333858.90449960565 1485723.7125223516 4750.000000000084
    vertex 335828.91628134594 1491325.5054555652 4750.000000000077
    vertex 337764.094039548 1487673.8817868144 4750.000000000084
  endloop
endfacet
facet normal 2.415686986978189e-16 -2.2326603775685045e-16 -1.0
  outer loop
    vertex 337764.094039548 1487673.8817868144 4750.000000000084
    vertex 335828.91628134594 1491325.5054555652 4750.000000000077
    vertex 340478.24726170144 1492964.6931231588 4750.000000000077
  endloop
endfacet
facet normal 2.415686986978189e-16 -2.2326603775685045e-16 -1.0
  outer loop
    vertex 337764.094039548 1487673.8817868144 4750.000000000084
    vertex 340478.24726170144 1492964.6931231588 4750.000000000077
    vertex 341789.64031019196 1489361.6740506403 4750.000000000084
  endloop
endfacet
facet normal 2.415686986978189e-16 -2.2326603775685045e-16 -1.0
  outer loop
    vertex 341789.64031019196 1489361.6740506403 4750.000000000084
    vertex 340478.24726170144 1492964.6931231588 4750.000000000077
    vertex 345259.2456205089 1494166.8867296826 4750.000000000077
  endloop
endfacet
facet normal 2.415686986978189e-16 -2.2326603775685045e-16 -1.0
  outer loop
    vertex 341789.64031019196 1489361.6740506403 4750.000000000084
    vertex 345259.2456205089 1494166.8867296826 4750.000000000077
    vertex 345917.93838205835 1490779.7080885794 4750.000000000085
  endloop
endfacet
facet normal 2.415686986978189e-16 -2.2326603775685045e-16 -1.0
  outer loop
    vertex 345917.93838205835 1490779.7080885794 4750.000000000085
    vertex 345259.2456205089 1494166.8867296826 4750.000000000077
    vertex 350130.9339610108 1494921.7824095632 4750.000000000077
  endloop
endfacet
facet normal 2.415686986978189e-16 -2.2326603775685045e-16 -1.0
  outer loop
    vertex 345917.93838205835 1490779.7080885794 4750.000000000085
    vertex 350130.9339610108 1494921.7824095632 4750.000000000077
    vertex 350130.9339610108 1491921.7824095632 4750.000000000085
  endloop
endfacet
facet normal 2.415686986978189e-16 -2.2326603775685045e-16 -1.0
  outer loop
    vertex 350130.9339610108 1491921.7824095632 4750.000000000085
    vertex 350130.9339610108 1494921.7824095632 4750.000000000077
    vertex 352797.9339610108 1494921.7824095632 4750.000000000079
  endloop
endfacet
facet normal 2.415686986978189e-16 -2.2326603775685045e-16 -1.0
  outer loop
    vertex 350130.9339610108 1491921.7824095632 4750.000000000085
    vertex 352797.9339610108 1494921.7824095632 4750.000000000079
    vertex 352797.9339610108 1491921.7824095632 4750.000000000085
  endloop
endfacet
facet normal 2.415686986978189e-16 -2.2326603775685045e-16 -1.0
  outer loop
    vertex 307768.11131608754 1464883.156586653 4750.000000000077
    vertex 308855.9339610108 1460339.282409564 4750.000000000077
    vertex 305855.9339610109 1460339.282409564 4750.000000000077
  endloop
endfacet
facet normal 2.415686986978189e-16 -2.2326603775685045e-16 -1.0
  outer loop
    vertex 308855.9339610108 1460339.282409564 4750.000000000077
    vertex 307768.11131608754 1464883.156586653 4750.000000000077
    vertex 308855.9339610108 1461921.7824095634 4750.000000000077
  endloop
endfacet
facet normal 0.5608702800738807 -0.8279036954440091 0.0
  outer loop
    vertex 333359.34377444134 1481289.2575605568 7000.000000000097
    vertex 329853.9176114253 1478914.4772997021 2250.0000000000773
    vertex 333359.34377444134 1481289.2575605568 2250.0000000000773
  endloop
endfacet
facet normal 0.5608702800738807 -0.8279036954440091 0.0
  outer loop
    vertex 329853.9176114253 1478914.4772997021 2250.0000000000773
    vertex 333359.34377444134 1481289.2575605568 7000.000000000097
    vertex 329853.9176114253 1478914.4772997021 7000.000000000097
  endloop
endfacet
facet normal 0.26164057710483724 -0.965165378788655 0.0
  outer loop
    vertex 352797.9339610108 1489439.282409564 7000.000000000075
    vertex 348711.3282494267 1488331.4703182094 2250.0000000000773
    vertex 352797.9339610108 1489439.282409564 2250.0000000000773
  endloop
endfacet
facet normal 0.26164057710483724 -0.965165378788655 0.0
  outer loop
    vertex 348711.3282494267 1488331.4703182094 2250.0000000000773
    vertex 352797.9339610108 1489439.282409564 7000.000000000075
    vertex 348711.3282494267 1488331.4703182094 7000.000000000075
  endloop
endfacet
facet normal -0.578422798627742 0.8157371304701353 0.0
  outer loop
    vertex 323061.7373427684 1483944.4445840071 7000.000000000075
    vertex 327083.1819715585 1486795.9701181834 4750.000000000077
    vertex 323061.7373427684 1483944.4445840071 4750.000000000077
  endloop
endfacet
facet normal -0.578422798627742 0.8157371304701353 0.0
  outer loop
    vertex 327083.1819715585 1486795.9701181834 4750.000000000077
    vertex 323061.7373427684 1483944.4445840071 7000.000000000075
    vertex 327083.1819715585 1486795.9701181834 7000.000000000075
  endloop
endfacet
facet normal -0.24386111295290064 0.9698101657486237 0.0
  outer loop
    vertex 340478.24726170144 1492964.6931231588 7000.000000000075
    vertex 345259.2456205089 1494166.8867296826 4750.000000000077
    vertex 340478.24726170144 1492964.6931231588 4750.000000000077
  endloop
endfacet
facet normal -0.24386111295290064 0.9698101657486237 0.0
  outer loop
    vertex 345259.2456205089 1494166.8867296826 4750.000000000077
    vertex 340478.24726170144 1492964.6931231588 7000.000000000075
    vertex 345259.2456205089 1494166.8867296826 7000.000000000075
  endloop
endfacet
facet normal 0.5049237361813527 -0.8631639593035982 0.0
  outer loop
    vertex 337014.06538344786 1483427.1546189687 7000.000000000097
    vertex 333359.34377444134 1481289.2575605568 2250.0000000000773
    vertex 337014.06538344786 1483427.1546189687 2250.0000000000773
  endloop
endfacet
facet normal 0.5049237361813527 -0.8631639593035982 0.0
  outer loop
    vertex 333359.34377444134 1481289.2575605568 2250.0000000000773
    vertex 337014.06538344786 1483427.1546189687 7000.000000000097
    vertex 333359.34377444134 1481289.2575605568 7000.000000000097
  endloop
endfacet
facet normal 0.4467690083133107 -0.894649346509984 -1.0838137281848413e-18
  outer loop
    vertex 340802.09923719167 1485318.8188054974 7000.000000000075
    vertex 337014.06538344786 1483427.1546189687 2250.0000000000773
    vertex 340802.09923719167 1485318.8188054974 2250.0000000000773
  endloop
endfacet
facet normal 0.4467690083133107 -0.894649346509984 -1.0838137281848413e-18
  outer loop
    vertex 337014.06538344786 1483427.1546189687 2250.0000000000773
    vertex 340802.09923719167 1485318.8188054974 7000.000000000075
    vertex 337014.06538344786 1483427.1546189687 7000.000000000097
  endloop
endfacet
facet normal 0.7993133192798377 -0.6009144844500327 -0.0
  outer loop
    vertex 317620.59384798 1467268.7923673785 2250.0000000000773
    vertex 315076.26246364333 1463884.4206859013 7000.000000000075
    vertex 315076.26246364333 1463884.4206859013 2250.0000000000773
  endloop
endfacet
facet normal 0.7993133192798377 -0.6009144844500327 -0.0
  outer loop
    vertex 315076.26246364333 1463884.4206859013 7000.000000000075
    vertex 317620.59384798 1467268.7923673785 2250.0000000000773
    vertex 317620.59384798 1467268.7923673785 7000.000000000075
  endloop
endfacet
facet normal 0.8372828133724826 -0.5467700526099256 -0.0
  outer loop
    vertex 315076.26246364333 1463884.4206859013 2250.0000000000773
    vertex 312761.1839610106 1460339.282409564 7000.000000000075
    vertex 312761.1839610106 1460339.282409564 2250.0000000000773
  endloop
endfacet
facet normal 0.8372828133724826 -0.5467700526099256 -0.0
  outer loop
    vertex 312761.1839610106 1460339.282409564 7000.000000000075
    vertex 315076.26246364333 1463884.4206859013 2250.0000000000773
    vertex 315076.26246364333 1463884.4206859013 7000.000000000075
  endloop
endfacet
facet normal 0.32486085819783483 -0.9457618213963632 0.0
  outer loop
    vertex 348711.3282494267 1488331.4703182094 7000.000000000075
    vertex 344706.8791197164 1486955.9773014088 2250.0000000000773
    vertex 348711.3282494267 1488331.4703182094 2250.0000000000773
  endloop
endfacet
facet normal 0.32486085819783483 -0.9457618213963632 0.0
  outer loop
    vertex 344706.8791197164 1486955.9773014088 2250.0000000000773
    vertex 348711.3282494267 1488331.4703182094 7000.000000000075
    vertex 344706.8791197164 1486955.9773014088 7000.000000000075
  endloop
endfacet
facet normal 0.7578481866646148 -0.652430935784896 -0.0
  outer loop
    vertex 320383.05098453735 1470477.5965746162 2250.0000000000773
    vertex 317620.59384798 1467268.7923673785 7000.000000000075
    vertex 317620.59384798 1467268.7923673785 2250.0000000000773
  endloop
endfacet
facet normal 0.7578481866646148 -0.652430935784896 -0.0
  outer loop
    vertex 317620.59384798 1467268.7923673785 7000.000000000075
    vertex 320383.05098453735 1470477.5965746162 2250.0000000000773
    vertex 320383.05098453735 1470477.5965746162 7000.000000000075
  endloop
endfacet
facet normal 0.6651708584828131 -0.7466911871886781 0.0
  outer loop
    vertex 326513.11718158174 1476313.1994676238 7000.000000000097
    vertex 323351.5528140484 1473496.8002378184 2250.0000000000773
    vertex 326513.11718158174 1476313.1994676238 2250.0000000000773
  endloop
endfacet
facet normal 0.6651708584828131 -0.7466911871886781 0.0
  outer loop
    vertex 323351.5528140484 1473496.8002378184 2250.0000000000773
    vertex 326513.11718158174 1476313.1994676238 7000.000000000097
    vertex 323351.5528140484 1473496.8002378184 7000.000000000097
  endloop
endfacet
facet normal 0.7130687550732503 -0.7010941096160238 1.8403663695945504e-17
  outer loop
    vertex 323351.5528140484 1473496.8002378184 2250.0000000000773
    vertex 320383.05098453735 1470477.5965746162 7000.000000000075
    vertex 320383.05098453735 1470477.5965746162 2250.0000000000773
  endloop
endfacet
facet normal 0.7130687550732503 -0.7010941096160238 1.8403663695945504e-17
  outer loop
    vertex 320383.05098453735 1470477.5965746162 7000.000000000075
    vertex 323351.5528140484 1473496.8002378184 2250.0000000000773
    vertex 323351.5528140484 1473496.8002378184 7000.000000000097
  endloop
endfacet
facet normal 1.0 -0.0 -0.0
  outer loop
    vertex 352797.9339610108 1491921.7824095632 2250.0000000000864
    vertex 352797.9339610108 1489439.282409564 7000.000000000075
    vertex 352797.9339610108 1489439.282409564 2250.0000000000773
  endloop
endfacet
facet normal 1.0 -0.0 -0.0
  outer loop
    vertex 352797.9339610108 1489439.282409564 7000.000000000075
    vertex 352797.9339610108 1491921.7824095632 2250.0000000000864
    vertex 352797.9339610108 1491921.7824095632 4750.000000000085
  endloop
endfacet
facet normal 1.0 -0.0 -0.0
  outer loop
    vertex 352797.9339610108 1489439.282409564 7000.000000000075
    vertex 352797.9339610108 1491921.7824095632 4750.000000000085
    vertex 352797.9339610108 1494921.7824095632 7000.000000000075
  endloop
endfacet
facet normal 1.0 -0.0 -0.0
  outer loop
    vertex 352797.9339610108 1494921.7824095632 7000.000000000075
    vertex 352797.9339610108 1491921.7824095632 4750.000000000085
    vertex 352797.9339610108 1494921.7824095632 4750.000000000079
  endloop
endfacet
facet normal 0.3866604246561362 -0.9222221619570508 0.0
  outer loop
    vertex 344706.8791197164 1486955.9773014088 7000.000000000075
    vertex 340802.09923719167 1485318.8188054974 2250.0000000000773
    vertex 344706.8791197164 1486955.9773014088 2250.0000000000773
  endloop
endfacet
facet normal 0.3866604246561362 -0.9222221619570508 0.0
  outer loop
    vertex 340802.09923719167 1485318.8188054974 2250.0000000000773
    vertex 344706.8791197164 1486955.9773014088 7000.000000000075
    vertex 340802.09923719167 1485318.8188054974 7000.000000000075
  endloop
endfacet
facet normal 0.61436396885936 -0.7890227587131917 0.0
  outer loop
    vertex 329853.9176114253 1478914.4772997021 7000.000000000097
    vertex 326513.11718158174 1476313.1994676238 2250.0000000000773
    vertex 329853.9176114253 1478914.4772997021 2250.0000000000773
  endloop
endfacet
facet normal 0.61436396885936 -0.7890227587131917 0.0
  outer loop
    vertex 326513.11718158174 1476313.1994676238 2250.0000000000773
    vertex 329853.9176114253 1478914.4772997021 7000.000000000097
    vertex 326513.11718158174 1476313.1994676238 7000.000000000097
  endloop
endfacet
facet normal -0.44676900831330946 0.8946493465099845 -2.1258959469193984e-17
  outer loop
    vertex 333858.90449960565 1485723.7125223516 4750.000000000084
    vertex 337764.094039548 1487673.8817868144 2250.0000000000846
    vertex 333858.90449960565 1485723.7125223516 2250.000000000083
  endloop
endfacet
facet normal -0.44676900831330946 0.8946493465099845 -2.1258959469193984e-17
  outer loop
    vertex 337764.094039548 1487673.8817868144 2250.0000000000846
    vertex 333858.90449960565 1485723.7125223516 4750.000000000084
    vertex 337764.094039548 1487673.8817868144 4750.000000000084
  endloop
endfacet
facet normal -0.6651708584828171 0.7466911871886746 8.264010790407787e-18
  outer loop
    vertex 319773.8399950704 1475486.2337788981 4750.000000000081
    vertex 323033.1847038673 1478389.738139522 2250.000000000082
    vertex 319773.8399950704 1475486.2337788981 2250.000000000081
  endloop
endfacet
facet normal -0.6651708584828171 0.7466911871886746 8.264010790407787e-18
  outer loop
    vertex 323033.1847038673 1478389.738139522 2250.000000000082
    vertex 319773.8399950704 1475486.2337788981 4750.000000000081
    vertex 323033.1847038673 1478389.738139522 4750.000000000082
  endloop
endfacet
facet normal -0.7130687550732446 0.7010941096160296 4.496869085808788e-18
  outer loop
    vertex 319773.8399950704 1475486.2337788981 4750.000000000081
    vertex 316713.52883062576 1472373.6526828131 2250.00000000008
    vertex 316713.52883062576 1472373.6526828131 4750.000000000081
  endloop
endfacet
facet normal -0.7130687550732446 0.7010941096160296 4.496869085808788e-18
  outer loop
    vertex 316713.52883062576 1472373.6526828131 2250.00000000008
    vertex 319773.8399950704 1475486.2337788981 4750.000000000081
    vertex 319773.8399950704 1475486.2337788981 2250.000000000081
  endloop
endfacet
facet normal -0.3866604246561002 0.9222221619570657 -1.0484491671297265e-17
  outer loop
    vertex 337764.094039548 1487673.8817868144 4750.000000000084
    vertex 341789.64031019196 1489361.6740506403 2250.0000000000846
    vertex 337764.094039548 1487673.8817868144 2250.0000000000846
  endloop
endfacet
facet normal -0.3866604246561002 0.9222221619570657 -1.0484491671297265e-17
  outer loop
    vertex 341789.64031019196 1489361.6740506403 2250.0000000000846
    vertex 337764.094039548 1487673.8817868144 4750.000000000084
    vertex 341789.64031019196 1489361.6740506403 4750.000000000084
  endloop
endfacet
facet normal -0.3248608581978565 0.9457618213963557 -1.813909744290001e-17
  outer loop
    vertex 341789.64031019196 1489361.6740506403 4750.000000000084
    vertex 345917.93838205835 1490779.7080885794 2250.0000000000846
    vertex 341789.64031019196 1489361.6740506403 2250.0000000000846
  endloop
endfacet
facet normal -0.3248608581978565 0.9457618213963557 -1.813909744290001e-17
  outer loop
    vertex 345917.93838205835 1490779.7080885794 2250.0000000000846
    vertex 341789.64031019196 1489361.6740506403 4750.000000000084
    vertex 345917.93838205835 1490779.7080885794 4750.000000000085
  endloop
endfacet
facet normal -0.41829694340391627 0.9083103363602889 0.0
  outer loop
    vertex 331351.10156997497 1489263.3730191987 7000.000000000075
    vertex 335828.91628134594 1491325.5054555652 4750.000000000077
    vertex 331351.10156997497 1489263.3730191987 4750.000000000077
  endloop
endfacet
facet normal -0.41829694340391627 0.9083103363602889 0.0
  outer loop
    vertex 335828.91628134594 1491325.5054555652 4750.000000000077
    vertex 331351.10156997497 1489263.3730191987 7000.000000000075
    vertex 335828.91628134594 1491325.5054555652 7000.000000000075
  endloop
endfacet
facet normal -0.6513832449283182 0.7587488835093299 0.0
  outer loop
    vertex 319321.23503115895 1480733.2365198464 7000.000000000075
    vertex 323061.7373427684 1483944.4445840071 4750.000000000077
    vertex 319321.23503115895 1480733.2365198464 4750.000000000077
  endloop
endfacet
facet normal -0.6513832449283182 0.7587488835093299 0.0
  outer loop
    vertex 323061.7373427684 1483944.4445840071 4750.000000000077
    vertex 319321.23503115895 1480733.2365198464 7000.000000000075
    vertex 323061.7373427684 1483944.4445840071 7000.000000000075
  endloop
endfacet
facet normal -2.5457298607827284e-16 3.494254579412368e-16 1.0
  outer loop
    vertex 312761.1839610106 1460339.282409564 7000.000000000075
    vertex 307768.11131608754 1464883.156586653 7000.000000000075
    vertex 305855.9339610109 1460339.282409564 7000.000000000075
  endloop
endfacet
facet normal -2.5457298607827284e-16 3.494254579412368e-16 1.0
  outer loop
    vertex 307768.11131608754 1464883.156586653 7000.000000000075
    vertex 312761.1839610106 1460339.282409564 7000.000000000075
    vertex 310092.31092908536 1469230.7203795637 7000.000000000075
  endloop
endfacet
facet normal -2.5457298607827284e-16 3.494254579412368e-16 1.0
  outer loop
    vertex 310092.31092908536 1469230.7203795637 7000.000000000075
    vertex 312761.1839610106 1460339.282409564 7000.000000000075
    vertex 312808.6123477183 1473344.7113102314 7000.000000000075
  endloop
endfacet
facet normal -2.5457298607827284e-16 3.494254579412368e-16 1.0
  outer loop
    vertex 312808.6123477183 1473344.7113102314 7000.000000000075
    vertex 312761.1839610106 1460339.282409564 7000.000000000075
    vertex 315076.26246364333 1463884.4206859013 7000.000000000075
  endloop
endfacet
facet normal -2.5457298607827284e-16 3.494254579412368e-16 1.0
  outer loop
    vertex 312808.6123477183 1473344.7113102314 7000.000000000075
    vertex 315076.26246364333 1463884.4206859013 7000.000000000075
    vertex 315893.7344594263 1477189.8688272047 7000.000000000075
  endloop
endfacet
facet normal -2.5457298607827284e-16 3.494254579412368e-16 1.0
  outer loop
    vertex 315893.7344594263 1477189.8688272047 7000.000000000075
    vertex 315076.26246364333 1463884.4206859013 7000.000000000075
    vertex 317620.59384798 1467268.7923673785 7000.000000000075
  endloop
endfacet
facet normal -2.5457298607827284e-16 3.494254579412368e-16 1.0
  outer loop
    vertex 315893.7344594263 1477189.8688272047 7000.000000000075
    vertex 317620.59384798 1467268.7923673785 7000.000000000075
    vertex 319321.23503115895 1480733.2365198464 7000.000000000075
  endloop
endfacet
facet normal -2.5457298607827284e-16 3.494254579412368e-16 1.0
  outer loop
    vertex 319321.23503115895 1480733.2365198464 7000.000000000075
    vertex 317620.59384798 1467268.7923673785 7000.000000000075
    vertex 320383.05098453735 1470477.5965746162 7000.000000000075
  endloop
endfacet
facet normal -2.5457298607827284e-16 3.494254579412368e-16 1.0
  outer loop
    vertex 319321.23503115895 1480733.2365198464 7000.000000000075
    vertex 320383.05098453735 1470477.5965746162 7000.000000000075
    vertex 323061.7373427684 1483944.4445840071 7000.000000000075
  endloop
endfacet
facet normal -2.5457298607827284e-16 3.494254579412368e-16 1.0
  outer loop
    vertex 323061.7373427684 1483944.4445840071 7000.000000000075
    vertex 320383.05098453735 1470477.5965746162 7000.000000000075
    vertex 323351.5528140484 1473496.8002378184 7000.000000000097
  endloop
endfacet
facet normal -2.5457298607827284e-16 3.494254579412368e-16 1.0
  outer loop
    vertex 323061.7373427684 1483944.4445840071 7000.000000000075
    vertex 323351.5528140484 1473496.8002378184 7000.000000000097
    vertex 327083.1819715585 1486795.9701181834 7000.000000000075
  endloop
endfacet
facet normal -2.5457298607827284e-16 3.494254579412368e-16 1.0
  outer loop
    vertex 327083.1819715585 1486795.9701181834 7000.000000000075
    vertex 323351.5528140484 1473496.8002378184 7000.000000000097
    vertex 326513.11718158174 1476313.1994676238 7000.000000000097
  endloop
endfacet
facet normal -2.5457298607827284e-16 3.494254579412368e-16 1.0
  outer loop
    vertex 327083.1819715585 1486795.9701181834 7000.000000000075
    vertex 326513.11718158174 1476313.1994676238 7000.000000000097
    vertex 329853.9176114253 1478914.4772997021 7000.000000000097
  endloop
endfacet
facet normal -2.5457298607827284e-16 3.494254579412368e-16 1.0
  outer loop
    vertex 327083.1819715585 1486795.9701181834 7000.000000000075
    vertex 329853.9176114253 1478914.4772997021 7000.000000000097
    vertex 331351.10156997497 1489263.3730191987 7000.000000000075
  endloop
endfacet
facet normal -2.5457298607827284e-16 3.494254579412368e-16 1.0
  outer loop
    vertex 331351.10156997497 1489263.3730191987 7000.000000000075
    vertex 329853.9176114253 1478914.4772997021 7000.000000000097
    vertex 333359.34377444134 1481289.2575605568 7000.000000000097
  endloop
endfacet
facet normal -2.5457298607827284e-16 3.494254579412368e-16 1.0
  outer loop
    vertex 331351.10156997497 1489263.3730191987 7000.000000000075
    vertex 333359.34377444134 1481289.2575605568 7000.000000000097
    vertex 335828.91628134594 1491325.5054555652 7000.000000000075
  endloop
endfacet
facet normal -2.5457298607827284e-16 3.494254579412368e-16 1.0
  outer loop
    vertex 335828.91628134594 1491325.5054555652 7000.000000000075
    vertex 333359.34377444134 1481289.2575605568 7000.000000000097
    vertex 337014.06538344786 1483427.1546189687 7000.000000000097
  endloop
endfacet
facet normal -2.5457298607827284e-16 3.494254579412368e-16 1.0
  outer loop
    vertex 335828.91628134594 1491325.5054555652 7000.000000000075
    vertex 337014.06538344786 1483427.1546189687 7000.000000000097
    vertex 340478.24726170144 1492964.6931231588 7000.000000000075
  endloop
endfacet
facet normal -2.5457298607827284e-16 3.494254579412368e-16 1.0
  outer loop
    vertex 340478.24726170144 1492964.6931231588 7000.000000000075
    vertex 337014.06538344786 1483427.1546189687 7000.000000000097
    vertex 340802.09923719167 1485318.8188054974 7000.000000000075
  endloop
endfacet
facet normal -2.5457298607827284e-16 3.494254579412368e-16 1.0
  outer loop
    vertex 340478.24726170144 1492964.6931231588 7000.000000000075
    vertex 340802.09923719167 1485318.8188054974 7000.000000000075
    vertex 345259.2456205089 1494166.8867296826 7000.000000000075
  endloop
endfacet
facet normal -2.5457298607827284e-16 3.494254579412368e-16 1.0
  outer loop
    vertex 345259.2456205089 1494166.8867296826 7000.000000000075
    vertex 340802.09923719167 1485318.8188054974 7000.000000000075
    vertex 344706.8791197164 1486955.9773014088 7000.000000000075
  endloop
endfacet
facet normal -2.5457298607827284e-16 3.494254579412368e-16 1.0
  outer loop
    vertex 345259.2456205089 1494166.8867296826 7000.000000000075
    vertex 344706.8791197164 1486955.9773014088 7000.000000000075
    vertex 348711.3282494267 1488331.4703182094 7000.000000000075
  endloop
endfacet
facet normal -2.5457298607827284e-16 3.494254579412368e-16 1.0
  outer loop
    vertex 345259.2456205089 1494166.8867296826 7000.000000000075
    vertex 348711.3282494267 1488331.4703182094 7000.000000000075
    vertex 350130.9339610108 1494921.7824095632 7000.000000000075
  endloop
endfacet
facet normal -2.5457298607827284e-16 3.494254579412368e-16 1.0
  outer loop
    vertex 350130.9339610108 1494921.7824095632 7000.000000000075
    vertex 348711.3282494267 1488331.4703182094 7000.000000000075
    vertex 352797.9339610108 1489439.282409564 7000.000000000075
  endloop
endfacet
facet normal -2.5457298607827284e-16 3.494254579412368e-16 1.0
  outer loop
    vertex 350130.9339610108 1494921.7824095632 7000.000000000075
    vertex 352797.9339610108 1489439.282409564 7000.000000000075
    vertex 352797.9339610108 1494921.7824095632 7000.000000000075
  endloop
endfacet
facet normal -0.8372828133725078 0.5467700526098869 -7.205102842408015e-18
  outer loop
    vertex 311242.6128297041 1465576.5641377463 4750.000000000079
    vertex 308855.9339610108 1461921.7824095634 2250.0000000000787
    vertex 308855.9339610108 1461921.7824095634 4750.000000000077
  endloop
endfacet
facet normal -0.8372828133725078 0.5467700526098869 -7.205102842408015e-18
  outer loop
    vertex 308855.9339610108 1461921.7824095634 2250.0000000000787
    vertex 311242.6128297041 1465576.5641377463 4750.000000000079
    vertex 311242.6128297041 1465576.5641377463 2250.0000000000787
  endloop
endfacet
facet normal -0.7187607590324528 0.6952574855944325 0.0
  outer loop
    vertex 319321.23503115895 1480733.2365198464 7000.000000000075
    vertex 315893.7344594263 1477189.8688272047 4750.000000000077
    vertex 315893.7344594263 1477189.8688272047 7000.000000000075
  endloop
endfacet
facet normal -0.7187607590324528 0.6952574855944325 0.0
  outer loop
    vertex 315893.7344594263 1477189.8688272047 4750.000000000077
    vertex 319321.23503115895 1480733.2365198464 7000.000000000075
    vertex 319321.23503115895 1480733.2365198464 4750.000000000077
  endloop
endfacet
facet normal -0.5049237361813511 0.8631639593035991 3.8403045259488935e-18
  outer loop
    vertex 330091.1502635169 1483519.6949363602 4750.000000000082
    vertex 333858.90449960565 1485723.7125223516 2250.000000000083
    vertex 330091.1502635169 1483519.6949363602 2250.000000000083
  endloop
endfacet
facet normal -0.5049237361813511 0.8631639593035991 3.8403045259488935e-18
  outer loop
    vertex 333858.90449960565 1485723.7125223516 2250.000000000083
    vertex 330091.1502635169 1483519.6949363602 4750.000000000082
    vertex 333858.90449960565 1485723.7125223516 4750.000000000084
  endloop
endfacet
facet normal -0.2616405771048631 0.965165378788648 -1.501138916125801e-17
  outer loop
    vertex 345917.93838205835 1490779.7080885794 4750.000000000085
    vertex 350130.9339610108 1491921.7824095632 2250.000000000086
    vertex 345917.93838205835 1490779.7080885794 2250.0000000000846
  endloop
endfacet
facet normal -0.2616405771048631 0.965165378788648 -1.501138916125801e-17
  outer loop
    vertex 350130.9339610108 1491921.7824095632 2250.000000000086
    vertex 345917.93838205835 1490779.7080885794 4750.000000000085
    vertex 350130.9339610108 1491921.7824095632 4750.000000000085
  endloop
endfacet
facet normal -0.8345098506485497 0.5509930209816958 0.0
  outer loop
    vertex 312808.6123477183 1473344.7113102314 7000.000000000075
    vertex 310092.31092908536 1469230.7203795637 4750.000000000077
    vertex 310092.31092908536 1469230.7203795637 7000.000000000075
  endloop
endfacet
facet normal -0.8345098506485497 0.5509930209816958 0.0
  outer loop
    vertex 310092.31092908536 1469230.7203795637 4750.000000000077
    vertex 312808.6123477183 1473344.7113102314 7000.000000000075
    vertex 312808.6123477183 1473344.7113102314 4750.000000000077
  endloop
endfacet
facet normal -0.332503955094153 0.9431018608012315 0.0
  outer loop
    vertex 335828.91628134594 1491325.5054555652 7000.000000000075
    vertex 340478.24726170144 1492964.6931231588 4750.000000000077
    vertex 335828.91628134594 1491325.5054555652 4750.000000000077
  endloop
endfacet
facet normal -0.332503955094153 0.9431018608012315 0.0
  outer loop
    vertex 340478.24726170144 1492964.6931231588 4750.000000000077
    vertex 335828.91628134594 1491325.5054555652 7000.000000000075
    vertex 340478.24726170144 1492964.6931231588 7000.000000000075
  endloop
endfacet
facet normal -0.15312816476485977 0.9882063373383851 0.0
  outer loop
    vertex 345259.2456205089 1494166.8867296826 7000.000000000075
    vertex 350130.9339610108 1494921.7824095632 4750.000000000077
    vertex 345259.2456205089 1494166.8867296826 4750.000000000077
  endloop
endfacet
facet normal -0.15312816476485977 0.9882063373383851 0.0
  outer loop
    vertex 350130.9339610108 1494921.7824095632 4750.000000000077
    vertex 345259.2456205089 1494166.8867296826 7000.000000000075
    vertex 350130.9339610108 1494921.7824095632 7000.000000000075
  endloop
endfacet
facet normal -0.5608702800738564 0.8279036954440256 4.263768556620974e-17
  outer loop
    vertex 326477.30885834526 1481071.467863314 4750.000000000082
    vertex 330091.1502635169 1483519.6949363602 2250.000000000083
    vertex 326477.30885834526 1481071.467863314 2250.0000000000823
  endloop
endfacet
facet normal -0.5608702800738564 0.8279036954440256 4.263768556620974e-17
  outer loop
    vertex 330091.1502635169 1483519.6949363602 2250.000000000083
    vertex 326477.30885834526 1481071.467863314 4750.000000000082
    vertex 330091.1502635169 1483519.6949363602 4750.000000000082
  endloop
endfacet
facet normal -0.5005047558726048 0.865733786650899 0.0
  outer loop
    vertex 327083.1819715585 1486795.9701181834 7000.000000000075
    vertex 331351.10156997497 1489263.3730191987 4750.000000000077
    vertex 327083.1819715585 1486795.9701181834 4750.000000000077
  endloop
endfacet
facet normal -0.5005047558726048 0.865733786650899 0.0
  outer loop
    vertex 331351.10156997497 1489263.3730191987 4750.000000000077
    vertex 327083.1819715585 1486795.9701181834 7000.000000000075
    vertex 331351.10156997497 1489263.3730191987 7000.000000000075
  endloop
endfacet
facet normal 0.0 1.0 0.0
  outer loop
    vertex 350130.9339610108 1491921.7824095632 4750.000000000085
    vertex 352797.9339610108 1491921.7824095632 2250.0000000000864
    vertex 350130.9339610108 1491921.7824095632 2250.000000000086
  endloop
endfacet
facet normal 0.0 1.0 0.0
  outer loop
    vertex 352797.9339610108 1491921.7824095632 2250.0000000000864
    vertex 350130.9339610108 1491921.7824095632 4750.000000000085
    vertex 352797.9339610108 1491921.7824095632 4750.000000000085
  endloop
endfacet
facet normal -0.6143639688593634 0.7890227587131889 -4.9192544914881343e-17
  outer loop
    vertex 323033.1847038673 1478389.738139522 4750.000000000082
    vertex 326477.30885834526 1481071.467863314 2250.0000000000823
    vertex 323033.1847038673 1478389.738139522 2250.000000000082
  endloop
endfacet
facet normal -0.6143639688593634 0.7890227587131889 -4.9192544914881343e-17
  outer loop
    vertex 326477.30885834526 1481071.467863314 2250.0000000000823
    vertex 323033.1847038673 1478389.738139522 4750.000000000082
    vertex 326477.30885834526 1481071.467863314 4750.000000000082
  endloop
endfacet
facet normal -0.7578481866645869 0.6524309357849285 -1.0832326968442e-17
  outer loop
    vertex 316713.52883062576 1472373.6526828131 4750.000000000081
    vertex 313865.63487541187 1469065.6071083413 2250.00000000008
    vertex 313865.63487541187 1469065.6071083413 4750.000000000079
  endloop
endfacet
facet normal -0.7578481866645869 0.6524309357849285 -1.0832326968442e-17
  outer loop
    vertex 313865.63487541187 1469065.6071083413 2250.00000000008
    vertex 316713.52883062576 1472373.6526828131 4750.000000000081
    vertex 316713.52883062576 1472373.6526828131 2250.00000000008
  endloop
endfacet
facet normal -0.7993133192798666 0.6009144844499941 -3.8057842537022206e-17
  outer loop
    vertex 313865.63487541187 1469065.6071083413 4750.000000000079
    vertex 311242.6128297041 1465576.5641377463 2250.0000000000787
    vertex 311242.6128297041 1465576.5641377463 4750.000000000079
  endloop
endfacet
facet normal -0.7993133192798666 0.6009144844499941 -3.8057842537022206e-17
  outer loop
    vertex 311242.6128297041 1465576.5641377463 2250.0000000000787
    vertex 313865.63487541187 1469065.6071083413 4750.000000000079
    vertex 313865.63487541187 1469065.6071083413 2250.00000000008
  endloop
endfacet
facet normal -0.7799778558793824 0.6258071143234161 0.0
  outer loop
    vertex 315893.7344594263 1477189.8688272047 7000.000000000075
    vertex 312808.6123477183 1473344.7113102314 4750.000000000077
    vertex 312808.6123477183 1473344.7113102314 7000.000000000075
  endloop
endfacet
facet normal -0.7799778558793824 0.6258071143234161 0.0
  outer loop
    vertex 312808.6123477183 1473344.7113102314 4750.000000000077
    vertex 315893.7344594263 1477189.8688272047 7000.000000000075
    vertex 315893.7344594263 1477189.8688272047 4750.000000000077
  endloop
endfacet
facet normal -1.0 0.0 0.0
  outer loop
    vertex 308855.9339610108 1461921.7824095634 4750.000000000077
    vertex 308855.9339610108 1460339.282409564 2250.0000000000787
    vertex 308855.9339610108 1460339.282409564 4750.000000000077
  endloop
endfacet
facet normal -1.0 0.0 0.0
  outer loop
    vertex 308855.9339610108 1460339.282409564 2250.0000000000787
    vertex 308855.9339610108 1461921.7824095634 4750.000000000077
    vertex 308855.9339610108 1461921.7824095634 2250.0000000000787
  endloop
endfacet
endsolid PlexiglassBeaconEdges
