solid PlexiglassBeaconEdges
facet normal 0.061247486356292416 0.9981226104116847 -5.0277291191505896e-15
  outer loop
    vertex 527930.9339610104 1494921.7824095632 4750.000000000112
    vertex 533360.2027184145 1494588.627884583 7000.000000000085
    vertex 533360.2027184144 1494588.627884583 4750.000000000111
  endloop
endfacet
facet normal 0.061247486356292416 0.9981226104116847 -5.0277291191505896e-15
  outer loop
    vertex 533360.2027184145 1494588.627884583 7000.000000000085
    vertex 527930.9339610104 1494921.7824095632 4750.000000000112
    vertex 527930.9339610105 1494921.7824095632 7000.0000000000855
  endloop
endfacet
facet normal 0.30105204315302814 0.9536077114376685 -2.4749105489026328e-14
  outer loop
    vertex 538708.3199426531 1493595.857350452 4750.000000000104
    vertex 543895.4507625757 1491958.2905473423 7000.000000000067
    vertex 543895.4507625756 1491958.2905473423 4750.000000000094
  endloop
endfacet
facet normal 0.30105204315302814 0.9536077114376685 -2.4749105489026328e-14
  outer loop
    vertex 543895.4507625757 1491958.2905473423 7000.000000000067
    vertex 538708.3199426531 1493595.857350452 4750.000000000104
    vertex 538708.3199426532 1493595.857350452 7000.000000000077
  endloop
endfacet
facet normal 0.5229476757079385 0.8523647860345152 -4.2982490360614e-14
  outer loop
    vertex 548844.1634572067 1489700.372514367 4750.000000000079
    vertex 553480.5853300866 1486855.8086823674 7000.000000000034
    vertex 553480.5853300864 1486855.8086823674 4750.00000000006
  endloop
endfacet
facet normal 0.5229476757079385 0.8523647860345152 -4.2982490360614e-14
  outer loop
    vertex 553480.5853300866 1486855.8086823674 7000.000000000034
    vertex 548844.1634572067 1489700.372514367 4750.000000000079
    vertex 548844.1634572068 1489700.372514367 7000.000000000053
  endloop
endfacet
facet normal 0.4150980807673959 0.9097766667392744 -3.412044923013737e-14
  outer loop
    vertex 543895.4507625756 1491958.2905473423 4750.000000000094
    vertex 548844.1634572068 1489700.372514367 7000.000000000053
    vertex 548844.1634572067 1489700.372514367 4750.000000000079
  endloop
endfacet
facet normal 0.4150980807673959 0.9097766667392744 -3.412044923013737e-14
  outer loop
    vertex 548844.1634572068 1489700.372514367 7000.000000000053
    vertex 543895.4507625756 1491958.2905473423 4750.000000000094
    vertex 543895.4507625757 1491958.2905473423 7000.000000000067
  endloop
endfacet
facet normal 0.6229908859792153 0.782229094311144 -5.1155658803465414e-14
  outer loop
    vertex 553480.5853300864 1486855.8086823674 4750.00000000006
    vertex 557735.5054557055 1483467.0617307287 7000.000000000012
    vertex 557735.5054557053 1483467.0617307287 4750.000000000039
  endloop
endfacet
facet normal 0.6229908859792153 0.782229094311144 -5.1155658803465414e-14
  outer loop
    vertex 557735.5054557055 1483467.0617307287 7000.000000000012
    vertex 553480.5853300864 1486855.8086823674 4750.00000000006
    vertex 553480.5853300866 1486855.8086823674 7000.000000000034
  endloop
endfacet
facet normal 0.9864665458891715 0.163962659900013 -8.104334541217992e-14
  outer loop
    vertex 571314.0622235205 1460370.1482280036 4749.999999999888
    vertex 572205.9339610107 1455004.2824095637 6999.999999999827
    vertex 572205.9339610104 1455004.2824095637 4749.999999999854
  endloop
endfacet
facet normal 0.9864665458891715 0.163962659900013 -8.104334541217992e-14
  outer loop
    vertex 572205.9339610107 1455004.2824095637 6999.999999999827
    vertex 571314.0622235205 1460370.1482280036 4749.999999999888
    vertex 571314.0622235206 1460370.1482280036 6999.999999999862
  endloop
endfacet
facet normal 0.9467733060730157 0.32190108248897165 -1.777202267794646e-18
  outer loop
    vertex 566589.5505959181 1465929.312328406 2250.0000000001005
    vertex 568179.4624853368 1461253.074136627 4750.000000000101
    vertex 568179.4624853368 1461253.074136627 2250.0000000001005
  endloop
endfacet
facet normal 0.9467733060730157 0.32190108248897165 -1.777202267794646e-18
  outer loop
    vertex 568179.4624853368 1461253.074136627 4750.000000000101
    vertex 566589.5505959181 1465929.312328406 2250.0000000001005
    vertex 566589.5505959181 1465929.312328406 4750.000000000101
  endloop
endfacet
facet normal -2.12371050981806e-15 5.943179457430547e-16 -1.0
  outer loop
    vertex 527930.9339610104 1494921.7824095632 4750.000000000112
    vertex 525263.9339610109 1491921.7824095632 4750.000000000101
    vertex 525263.9339610109 1494921.7824095632 4750.000000000111
  endloop
endfacet
facet normal -2.12371050981806e-15 5.943179457430547e-16 -1.0
  outer loop
    vertex 525263.9339610109 1491921.7824095632 4750.000000000101
    vertex 527930.9339610104 1494921.7824095632 4750.000000000112
    vertex 527930.9339610105 1491921.7824095632 4750.000000000101
  endloop
endfacet
facet normal -2.12371050981806e-15 5.943179457430547e-16 -1.0
  outer loop
    vertex 527930.9339610105 1491921.7824095632 4750.000000000101
    vertex 527930.9339610104 1494921.7824095632 4750.000000000112
    vertex 533360.2027184144 1494588.627884583 4750.000000000111
  endloop
endfacet
facet normal -2.12371050981806e-15 5.943179457430547e-16 -1.0
  outer loop
    vertex 527930.9339610105 1491921.7824095632 4750.000000000101
    vertex 533360.2027184144 1494588.627884583 4750.000000000111
    vertex 532861.415354111 1491629.5895371973 4750.000000000101
  endloop
endfacet
facet normal -2.12371050981806e-15 5.943179457430547e-16 -1.0
  outer loop
    vertex 532861.415354111 1491629.5895371973 4750.000000000101
    vertex 533360.2027184144 1494588.627884583 4750.000000000111
    vertex 537722.8747834784 1490757.1013372883 4750.000000000101
  endloop
endfacet
facet normal -2.12371050981806e-15 5.943179457430547e-16 -1.0
  outer loop
    vertex 537722.8747834784 1490757.1013372883 4750.000000000101
    vertex 533360.2027184144 1494588.627884583 4750.000000000111
    vertex 538708.3199426531 1493595.857350452 4750.000000000104
  endloop
endfacet
facet normal -2.12371050981806e-15 5.943179457430547e-16 -1.0
  outer loop
    vertex 537722.8747834784 1490757.1013372883 4750.000000000101
    vertex 538708.3199426531 1493595.857350452 4750.000000000104
    vertex 542447.2565260183 1489316.5317995234 4750.000000000102
  endloop
endfacet
facet normal -2.12371050981806e-15 5.943179457430547e-16 -1.0
  outer loop
    vertex 542447.2565260183 1489316.5317995234 4750.000000000102
    vertex 538708.3199426531 1493595.857350452 4750.000000000104
    vertex 543895.4507625756 1491958.2905473423 4750.000000000094
  endloop
endfacet
facet normal -2.12371050981806e-15 5.943179457430547e-16 -1.0
  outer loop
    vertex 542447.2565260183 1489316.5317995234 4750.000000000102
    vertex 543895.4507625756 1491958.2905473423 4750.000000000094
    vertex 546968.4238134706 1487328.047502066 4750.000000000102
  endloop
endfacet
facet normal -2.12371050981806e-15 5.943179457430547e-16 -1.0
  outer loop
    vertex 546968.4238134706 1487328.047502066 4750.000000000102
    vertex 543895.4507625756 1491958.2905473423 4750.000000000094
    vertex 548844.1634572067 1489700.372514367 4750.000000000079
  endloop
endfacet
facet normal -2.12371050981806e-15 5.943179457430547e-16 -1.0
  outer loop
    vertex 546968.4238134706 1487328.047502066 4750.000000000102
    vertex 548844.1634572067 1489700.372514367 4750.000000000079
    vertex 551223.0846831136 1484819.4852989905 4750.000000000102
  endloop
endfacet
facet normal -2.12371050981806e-15 5.943179457430547e-16 -1.0
  outer loop
    vertex 551223.0846831136 1484819.4852989905 4750.000000000102
    vertex 548844.1634572067 1489700.372514367 4750.000000000079
    vertex 553480.5853300864 1486855.8086823674 4750.00000000006
  endloop
endfacet
facet normal -2.12371050981806e-15 5.943179457430547e-16 -1.0
  outer loop
    vertex 551223.0846831136 1484819.4852989905 4750.000000000102
    vertex 553480.5853300864 1486855.8086823674 4750.00000000006
    vertex 555151.6780039278 1481825.9626312926 4750.000000000102
  endloop
endfacet
facet normal -2.12371050981806e-15 5.943179457430547e-16 -1.0
  outer loop
    vertex 555151.6780039278 1481825.9626312926 4750.000000000102
    vertex 553480.5853300864 1486855.8086823674 4750.00000000006
    vertex 557735.5054557053 1483467.0617307287 4750.000000000039
  endloop
endfacet
facet normal -2.12371050981806e-15 5.943179457430547e-16 -1.0
  outer loop
    vertex 555151.6780039278 1481825.9626312926 4750.000000000102
    vertex 557735.5054557053 1483467.0617307287 4750.000000000039
    vertex 558699.2072747429 1478389.385916729 4750.000000000101
  endloop
endfacet
facet normal -2.12371050981806e-15 5.943179457430547e-16 -1.0
  outer loop
    vertex 558699.2072747429 1478389.385916729 4750.000000000101
    vertex 557735.5054557053 1483467.0617307287 4750.000000000039
    vertex 561545.4078366116 1479584.7177189747 4750.000000000015
  endloop
endfacet
facet normal -2.12371050981806e-15 5.943179457430547e-16 -1.0
  outer loop
    vertex 558699.2072747429 1478389.385916729 4750.000000000101
    vertex 561545.4078366116 1479584.7177189747 4750.000000000015
    vertex 561816.01052198 1474557.8639005618 4750.000000000101
  endloop
endfacet
facet normal -2.12371050981806e-15 5.943179457430547e-16 -1.0
  outer loop
    vertex 561816.01052198 1474557.8639005618 4750.000000000101
    vertex 561545.4078366116 1479584.7177189747 4750.000000000015
    vertex 564853.4195485737 1475266.730955313 4749.999999999985
  endloop
endfacet
facet normal -2.12371050981806e-15 5.943179457430547e-16 -1.0
  outer loop
    vertex 561816.01052198 1474557.8639005618 4750.000000000101
    vertex 564853.4195485737 1475266.730955313 4749.999999999985
    vertex 564458.4555191825 1470385.0341797208 4750.000000000101
  endloop
endfacet
facet normal -2.12371050981806e-15 5.943179457430547e-16 -1.0
  outer loop
    vertex 564458.4555191825 1470385.0341797208 4750.000000000101
    vertex 564853.4195485737 1475266.730955313 4749.999999999985
    vertex 566589.5505959181 1465929.312328406 4750.000000000101
  endloop
endfacet
facet normal -2.12371050981806e-15 5.943179457430547e-16 -1.0
  outer loop
    vertex 566589.5505959181 1465929.312328406 4750.000000000101
    vertex 564853.4195485737 1475266.730955313 4749.999999999985
    vertex 567610.1597202087 1470577.5588744727 4749.9999999999545
  endloop
endfacet
facet normal -2.12371050981806e-15 5.943179457430547e-16 -1.0
  outer loop
    vertex 566589.5505959181 1465929.312328406 4750.000000000101
    vertex 567610.1597202087 1470577.5588744727 4749.9999999999545
    vertex 568179.4624853368 1461253.074136627 4750.000000000101
  endloop
endfacet
facet normal -2.12371050981806e-15 5.943179457430547e-16 -1.0
  outer loop
    vertex 568179.4624853368 1461253.074136627 4750.000000000101
    vertex 567610.1597202087 1470577.5588744727 4749.9999999999545
    vertex 569774.4766738008 1465587.1998390895 4749.999999999924
  endloop
endfacet
facet normal -2.12371050981806e-15 5.943179457430547e-16 -1.0
  outer loop
    vertex 568179.4624853368 1461253.074136627 4750.000000000101
    vertex 569774.4766738008 1465587.1998390895 4749.999999999924
    vertex 569205.9339610105 1456421.7824095634 4750.000000000099
  endloop
endfacet
facet normal -2.12371050981806e-15 5.943179457430547e-16 -1.0
  outer loop
    vertex 569205.9339610105 1456421.7824095634 4750.000000000099
    vertex 569774.4766738008 1465587.1998390895 4749.999999999924
    vertex 569205.9339610105 1455004.2824095637 4750.000000000099
  endloop
endfacet
facet normal -2.12371050981806e-15 5.943179457430547e-16 -1.0
  outer loop
    vertex 569205.9339610105 1455004.2824095637 4750.000000000099
    vertex 569774.4766738008 1465587.1998390895 4749.999999999924
    vertex 572205.9339610104 1455004.2824095637 4749.999999999854
  endloop
endfacet
facet normal -2.12371050981806e-15 5.943179457430547e-16 -1.0
  outer loop
    vertex 572205.9339610104 1455004.2824095637 4749.999999999854
    vertex 569774.4766738008 1465587.1998390895 4749.999999999924
    vertex 571314.0622235205 1460370.1482280036 4749.999999999888
  endloop
endfacet
facet normal 0.0 1.0 0.0
  outer loop
    vertex 525263.9339610109 1491921.7824095632 4750.000000000101
    vertex 527930.9339610105 1491921.7824095632 2250.0000000001005
    vertex 525263.9339610109 1491921.7824095632 2250.0000000001
  endloop
endfacet
facet normal 0.0 1.0 0.0
  outer loop
    vertex 527930.9339610105 1491921.7824095632 2250.0000000001005
    vertex 525263.9339610109 1491921.7824095632 4750.000000000101
    vertex 527930.9339610105 1491921.7824095632 4750.000000000101
  endloop
endfacet
facet normal 0.8448508455846893 0.5350019146833362 -3.170710239285492e-17
  outer loop
    vertex 561816.01052198 1474557.8639005618 2250.000000000102
    vertex 564458.4555191825 1470385.0341797208 4750.000000000101
    vertex 564458.4555191825 1470385.0341797208 2250.0000000001014
  endloop
endfacet
facet normal 0.8448508455846893 0.5350019146833362 -3.170710239285492e-17
  outer loop
    vertex 564458.4555191825 1470385.0341797208 4750.000000000101
    vertex 561816.01052198 1474557.8639005618 2250.000000000102
    vertex 561816.01052198 1474557.8639005618 4750.000000000101
  endloop
endfacet
facet normal -0.17664808841214089 -0.9842740740567825 -5.8201826693128354e-30
  outer loop
    vertex 534762.1165588051 1488309.541769457 7000.000000000097
    vertex 530046.5009123182 1489155.855323369 2250.0000000001232
    vertex 534762.1165588051 1488309.541769457 2250.0000000001232
  endloop
endfacet
facet normal -0.17664808841214089 -0.9842740740567825 -5.8201826693128354e-30
  outer loop
    vertex 530046.5009123182 1489155.855323369 2250.0000000001232
    vertex 534762.1165588051 1488309.541769457 7000.000000000097
    vertex 530046.5009123182 1489155.855323369 7000.000000000097
  endloop
endfacet
facet normal -0.9467733060730139 -0.3219010824889773 0.0
  outer loop
    vertex 562762.792096871 1464226.5864308416 7000.000000000097
    vertex 564305.0066296074 1459690.635384816 2250.0000000001232
    vertex 564305.0066296074 1459690.635384816 7000.000000000097
  endloop
endfacet
facet normal -0.9467733060730139 -0.3219010824889773 0.0
  outer loop
    vertex 564305.0066296074 1459690.635384816 2250.0000000001232
    vertex 562762.792096871 1464226.5864308416 7000.000000000097
    vertex 562762.792096871 1464226.5864308416 2250.0000000001232
  endloop
endfacet
facet normal -0.8448508455846983 -0.5350019146833217 1.4501456978127473e-17
  outer loop
    vertex 558132.4582251519 1472596.2814558323 7000.00000000012
    vertex 560695.6298724377 1468548.636626617 2250.0000000001232
    vertex 560695.6298724377 1468548.636626617 7000.00000000012
  endloop
endfacet
facet normal -0.8448508455846983 -0.5350019146833217 1.4501456978127473e-17
  outer loop
    vertex 560695.6298724377 1468548.636626617 2250.0000000001232
    vertex 558132.4582251519 1472596.2814558323 7000.00000000012
    vertex 558132.4582251519 1472596.2814558323 2250.0000000001464
  endloop
endfacet
facet normal -0.9781661783347627 -0.2078242708683593 2.3713914015892117e-18
  outer loop
    vertex 564305.0066296074 1459690.635384816 7000.000000000097
    vertex 565300.6839610109 1455004.2824095637 2250.0000000001
    vertex 565300.6839610109 1455004.2824095637 7000.000000000075
  endloop
endfacet
facet normal -0.9781661783347627 -0.2078242708683593 2.3713914015892117e-18
  outer loop
    vertex 565300.6839610109 1455004.2824095637 2250.0000000001
    vertex 564305.0066296074 1459690.635384816 7000.000000000097
    vertex 564305.0066296074 1459690.635384816 2250.0000000001232
  endloop
endfacet
facet normal -0.05915875120885295 -0.9982485873545772 4.2467667264410384e-19
  outer loop
    vertex 530046.5009123182 1489155.855323369 2250.0000000001232
    vertex 525263.9339610109 1489439.282409564 7000.000000000075
    vertex 525263.9339610109 1489439.282409564 2250.0000000001
  endloop
endfacet
facet normal -0.05915875120885295 -0.9982485873545772 4.2467667264410384e-19
  outer loop
    vertex 525263.9339610109 1489439.282409564 7000.000000000075
    vertex 530046.5009123182 1489155.855323369 2250.0000000001232
    vertex 530046.5009123182 1489155.855323369 7000.000000000097
  endloop
endfacet
facet normal -0.6060827606864696 -0.7954015886322252 2.351673514177163e-30
  outer loop
    vertex 551668.0556826402 1479646.3372246413 7000.00000000012
    vertex 547857.3201614503 1482550.0542123085 2250.0000000001464
    vertex 551668.0556826402 1479646.3372246413 2250.0000000001464
  endloop
endfacet
facet normal -0.6060827606864696 -0.7954015886322252 2.351673514177163e-30
  outer loop
    vertex 547857.3201614503 1482550.0542123085 2250.0000000001464
    vertex 551668.0556826402 1479646.3372246413 7000.00000000012
    vertex 547857.3201614503 1482550.0542123085 7000.00000000012
  endloop
endfacet
facet normal -0.40259793773720254 -0.9153769171929952 -1.6087269829841666e-17
  outer loop
    vertex 543730.2991178968 1484983.359549292 2250.0000000001464
    vertex 539344.7668490676 1486912.1893178257 7000.00000000012
    vertex 539344.7668490676 1486912.1893178257 2250.0000000001232
  endloop
endfacet
facet normal -0.40259793773720254 -0.9153769171929952 -1.6087269829841666e-17
  outer loop
    vertex 539344.7668490676 1486912.1893178257 7000.00000000012
    vertex 543730.2991178968 1484983.359549292 2250.0000000001464
    vertex 543730.2991178968 1484983.359549292 7000.00000000012
  endloop
endfacet
facet normal -0.9021265245913583 -0.4314715907550782 -8.116659891747523e-18
  outer loop
    vertex 560695.6298724377 1468548.636626617 7000.00000000012
    vertex 562762.792096871 1464226.5864308416 2250.0000000001232
    vertex 562762.792096871 1464226.5864308416 7000.000000000097
  endloop
endfacet
facet normal -0.9021265245913583 -0.4314715907550782 -8.116659891747523e-18
  outer loop
    vertex 562762.792096871 1464226.5864308416 2250.0000000001232
    vertex 560695.6298724377 1468548.636626617 7000.00000000012
    vertex 560695.6298724377 1468548.636626617 2250.0000000001232
  endloop
endfacet
facet normal -0.7757480730805478 -0.6310427300205725 0.0
  outer loop
    vertex 555109.1590753306 1476312.857811515 7000.00000000012
    vertex 558132.4582251519 1472596.2814558323 2250.0000000001464
    vertex 558132.4582251519 1472596.2814558323 7000.00000000012
  endloop
endfacet
facet normal -0.7757480730805478 -0.6310427300205725 0.0
  outer loop
    vertex 558132.4582251519 1472596.2814558323 2250.0000000001464
    vertex 555109.1590753306 1476312.857811515 7000.00000000012
    vertex 555109.1590753306 1476312.857811515 2250.0000000001464
  endloop
endfacet
facet normal -0.5078953708284506 -0.86141876708778 2.2402408728797473e-17
  outer loop
    vertex 547857.3201614503 1482550.0542123085 7000.00000000012
    vertex 543730.2991178968 1484983.359549292 2250.0000000001464
    vertex 547857.3201614503 1482550.0542123085 2250.0000000001464
  endloop
endfacet
facet normal -0.5078953708284506 -0.86141876708778 2.2402408728797473e-17
  outer loop
    vertex 543730.2991178968 1484983.359549292 2250.0000000001464
    vertex 547857.3201614503 1482550.0542123085 7000.00000000012
    vertex 543730.2991178968 1484983.359549292 7000.00000000012
  endloop
endfacet
facet normal -0.695785578959771 -0.7182495583789916 0.0
  outer loop
    vertex 555109.1590753306 1476312.857811515 7000.00000000012
    vertex 551668.0556826402 1479646.3372246413 2250.0000000001464
    vertex 555109.1590753306 1476312.857811515 2250.0000000001464
  endloop
endfacet
facet normal -0.695785578959771 -0.7182495583789916 0.0
  outer loop
    vertex 551668.0556826402 1479646.3372246413 2250.0000000001464
    vertex 555109.1590753306 1476312.857811515 7000.00000000012
    vertex 551668.0556826402 1479646.3372246413 7000.00000000012
  endloop
endfacet
facet normal -0.2916645234827717 -0.9565206771113566 -1.4176485461258089e-18
  outer loop
    vertex 539344.7668490676 1486912.1893178257 7000.00000000012
    vertex 534762.1165588051 1488309.541769457 2250.0000000001232
    vertex 539344.7668490676 1486912.1893178257 2250.0000000001232
  endloop
endfacet
facet normal -0.2916645234827717 -0.9565206771113566 -1.4176485461258089e-18
  outer loop
    vertex 534762.1165588051 1488309.541769457 2250.0000000001232
    vertex 539344.7668490676 1486912.1893178257 7000.00000000012
    vertex 534762.1165588051 1488309.541769457 7000.000000000097
  endloop
endfacet
facet normal 2.0641035714641817e-16 2.857957631033478e-16 -1.0
  outer loop
    vertex 527930.9339610105 1491921.7824095632 2250.0000000001005
    vertex 525263.9339610109 1489439.282409564 2250.0000000001
    vertex 525263.9339610109 1491921.7824095632 2250.0000000001
  endloop
endfacet
facet normal 2.0641035714641817e-16 2.857957631033478e-16 -1.0
  outer loop
    vertex 525263.9339610109 1489439.282409564 2250.0000000001
    vertex 527930.9339610105 1491921.7824095632 2250.0000000001005
    vertex 530046.5009123182 1489155.855323369 2250.0000000001232
  endloop
endfacet
facet normal 2.0641035714641817e-16 2.857957631033478e-16 -1.0
  outer loop
    vertex 530046.5009123182 1489155.855323369 2250.0000000001232
    vertex 527930.9339610105 1491921.7824095632 2250.0000000001005
    vertex 532861.415354111 1491629.5895371973 2250.0000000001014
  endloop
endfacet
facet normal 2.0641035714641817e-16 2.857957631033478e-16 -1.0
  outer loop
    vertex 530046.5009123182 1489155.855323369 2250.0000000001232
    vertex 532861.415354111 1491629.5895371973 2250.0000000001014
    vertex 534762.1165588051 1488309.541769457 2250.0000000001232
  endloop
endfacet
facet normal 2.0641035714641817e-16 2.857957631033478e-16 -1.0
  outer loop
    vertex 534762.1165588051 1488309.541769457 2250.0000000001232
    vertex 532861.415354111 1491629.5895371973 2250.0000000001014
    vertex 537722.8747834784 1490757.1013372883 2250.000000000102
  endloop
endfacet
facet normal 2.0641035714641817e-16 2.857957631033478e-16 -1.0
  outer loop
    vertex 534762.1165588051 1488309.541769457 2250.0000000001232
    vertex 537722.8747834784 1490757.1013372883 2250.000000000102
    vertex 539344.7668490676 1486912.1893178257 2250.0000000001232
  endloop
endfacet
facet normal 2.0641035714641817e-16 2.857957631033478e-16 -1.0
  outer loop
    vertex 539344.7668490676 1486912.1893178257 2250.0000000001232
    vertex 537722.8747834784 1490757.1013372883 2250.000000000102
    vertex 542447.2565260183 1489316.5317995234 2250.000000000102
  endloop
endfacet
facet normal 2.0641035714641817e-16 2.857957631033478e-16 -1.0
  outer loop
    vertex 539344.7668490676 1486912.1893178257 2250.0000000001232
    vertex 542447.2565260183 1489316.5317995234 2250.000000000102
    vertex 543730.2991178968 1484983.359549292 2250.0000000001464
  endloop
endfacet
facet normal 2.0641035714641817e-16 2.857957631033478e-16 -1.0
  outer loop
    vertex 543730.2991178968 1484983.359549292 2250.0000000001464
    vertex 542447.2565260183 1489316.5317995234 2250.000000000102
    vertex 546968.4238134706 1487328.047502066 2250.000000000102
  endloop
endfacet
facet normal 2.0641035714641817e-16 2.857957631033478e-16 -1.0
  outer loop
    vertex 543730.2991178968 1484983.359549292 2250.0000000001464
    vertex 546968.4238134706 1487328.047502066 2250.000000000102
    vertex 547857.3201614503 1482550.0542123085 2250.0000000001464
  endloop
endfacet
facet normal 2.0641035714641817e-16 2.857957631033478e-16 -1.0
  outer loop
    vertex 547857.3201614503 1482550.0542123085 2250.0000000001464
    vertex 546968.4238134706 1487328.047502066 2250.000000000102
    vertex 551223.0846831136 1484819.4852989905 2250.000000000102
  endloop
endfacet
facet normal 2.0641035714641817e-16 2.857957631033478e-16 -1.0
  outer loop
    vertex 547857.3201614503 1482550.0542123085 2250.0000000001464
    vertex 551223.0846831136 1484819.4852989905 2250.000000000102
    vertex 551668.0556826402 1479646.3372246413 2250.0000000001464
  endloop
endfacet
facet normal 2.0641035714641817e-16 2.857957631033478e-16 -1.0
  outer loop
    vertex 551668.0556826402 1479646.3372246413 2250.0000000001464
    vertex 551223.0846831136 1484819.4852989905 2250.000000000102
    vertex 555151.6780039278 1481825.9626312926 2250.000000000102
  endloop
endfacet
facet normal 2.0641035714641817e-16 2.857957631033478e-16 -1.0
  outer loop
    vertex 551668.0556826402 1479646.3372246413 2250.0000000001464
    vertex 555151.6780039278 1481825.9626312926 2250.000000000102
    vertex 555109.1590753306 1476312.857811515 2250.0000000001464
  endloop
endfacet
facet normal 2.0641035714641817e-16 2.857957631033478e-16 -1.0
  outer loop
    vertex 555109.1590753306 1476312.857811515 2250.0000000001464
    vertex 555151.6780039278 1481825.9626312926 2250.000000000102
    vertex 558132.4582251519 1472596.2814558323 2250.0000000001464
  endloop
endfacet
facet normal 2.0641035714641817e-16 2.857957631033478e-16 -1.0
  outer loop
    vertex 558132.4582251519 1472596.2814558323 2250.0000000001464
    vertex 555151.6780039278 1481825.9626312926 2250.000000000102
    vertex 558699.2072747429 1478389.385916729 2250.000000000102
  endloop
endfacet
facet normal 2.0641035714641817e-16 2.857957631033478e-16 -1.0
  outer loop
    vertex 558132.4582251519 1472596.2814558323 2250.0000000001464
    vertex 558699.2072747429 1478389.385916729 2250.000000000102
    vertex 560695.6298724377 1468548.636626617 2250.0000000001232
  endloop
endfacet
facet normal 2.0641035714641817e-16 2.857957631033478e-16 -1.0
  outer loop
    vertex 560695.6298724377 1468548.636626617 2250.0000000001232
    vertex 558699.2072747429 1478389.385916729 2250.000000000102
    vertex 561816.01052198 1474557.8639005618 2250.000000000102
  endloop
endfacet
facet normal 2.0641035714641817e-16 2.857957631033478e-16 -1.0
  outer loop
    vertex 560695.6298724377 1468548.636626617 2250.0000000001232
    vertex 561816.01052198 1474557.8639005618 2250.000000000102
    vertex 562762.792096871 1464226.5864308416 2250.0000000001232
  endloop
endfacet
facet normal 2.0641035714641817e-16 2.857957631033478e-16 -1.0
  outer loop
    vertex 562762.792096871 1464226.5864308416 2250.0000000001232
    vertex 561816.01052198 1474557.8639005618 2250.000000000102
    vertex 564458.4555191825 1470385.0341797208 2250.0000000001014
  endloop
endfacet
facet normal 2.0641035714641817e-16 2.857957631033478e-16 -1.0
  outer loop
    vertex 562762.792096871 1464226.5864308416 2250.0000000001232
    vertex 564458.4555191825 1470385.0341797208 2250.0000000001014
    vertex 564305.0066296074 1459690.635384816 2250.0000000001232
  endloop
endfacet
facet normal 2.0641035714641817e-16 2.857957631033478e-16 -1.0
  outer loop
    vertex 564305.0066296074 1459690.635384816 2250.0000000001232
    vertex 564458.4555191825 1470385.0341797208 2250.0000000001014
    vertex 565300.6839610109 1455004.2824095637 2250.0000000001
  endloop
endfacet
facet normal 2.0641035714641817e-16 2.857957631033478e-16 -1.0
  outer loop
    vertex 565300.6839610109 1455004.2824095637 2250.0000000001
    vertex 564458.4555191825 1470385.0341797208 2250.0000000001014
    vertex 566589.5505959181 1465929.312328406 2250.0000000001005
  endloop
endfacet
facet normal 2.0641035714641817e-16 2.857957631033478e-16 -1.0
  outer loop
    vertex 565300.6839610109 1455004.2824095637 2250.0000000001
    vertex 566589.5505959181 1465929.312328406 2250.0000000001005
    vertex 569205.9339610105 1455004.2824095637 2250.0000000001005
  endloop
endfacet
facet normal 2.0641035714641817e-16 2.857957631033478e-16 -1.0
  outer loop
    vertex 569205.9339610105 1455004.2824095637 2250.0000000001005
    vertex 566589.5505959181 1465929.312328406 2250.0000000001005
    vertex 568179.4624853368 1461253.074136627 2250.0000000001005
  endloop
endfacet
facet normal 2.0641035714641817e-16 2.857957631033478e-16 -1.0
  outer loop
    vertex 569205.9339610105 1455004.2824095637 2250.0000000001005
    vertex 568179.4624853368 1461253.074136627 2250.0000000001005
    vertex 569205.9339610105 1456421.7824095634 2250.0000000001005
  endloop
endfacet
facet normal -1.0 0.0 0.0
  outer loop
    vertex 525263.9339610109 1489439.282409564 7000.000000000075
    vertex 525263.9339610109 1491921.7824095632 4750.000000000101
    vertex 525263.9339610109 1489439.282409564 2250.0000000001
  endloop
endfacet
facet normal -1.0 0.0 0.0
  outer loop
    vertex 525263.9339610109 1491921.7824095632 4750.000000000101
    vertex 525263.9339610109 1489439.282409564 7000.000000000075
    vertex 525263.9339610109 1494921.7824095632 7000.00000000008
  endloop
endfacet
facet normal -1.0 0.0 0.0
  outer loop
    vertex 525263.9339610109 1491921.7824095632 4750.000000000101
    vertex 525263.9339610109 1494921.7824095632 7000.00000000008
    vertex 525263.9339610109 1494921.7824095632 4750.000000000111
  endloop
endfacet
facet normal -1.0 0.0 0.0
  outer loop
    vertex 525263.9339610109 1491921.7824095632 2250.0000000001
    vertex 525263.9339610109 1489439.282409564 2250.0000000001
    vertex 525263.9339610109 1491921.7824095632 4750.000000000101
  endloop
endfacet
facet normal 0.0 -1.0 0.0
  outer loop
    vertex 572205.9339610107 1455004.2824095637 6999.999999999827
    vertex 569205.9339610105 1455004.2824095637 4750.000000000099
    vertex 572205.9339610104 1455004.2824095637 4749.999999999854
  endloop
endfacet
facet normal 0.0 -1.0 0.0
  outer loop
    vertex 569205.9339610105 1455004.2824095637 2250.0000000001005
    vertex 565300.6839610109 1455004.2824095637 7000.000000000075
    vertex 565300.6839610109 1455004.2824095637 2250.0000000001
  endloop
endfacet
facet normal 0.0 -1.0 0.0
  outer loop
    vertex 565300.6839610109 1455004.2824095637 7000.000000000075
    vertex 569205.9339610105 1455004.2824095637 2250.0000000001005
    vertex 569205.9339610105 1455004.2824095637 4750.000000000099
  endloop
endfacet
facet normal 0.0 -1.0 0.0
  outer loop
    vertex 565300.6839610109 1455004.2824095637 7000.000000000075
    vertex 569205.9339610105 1455004.2824095637 4750.000000000099
    vertex 572205.9339610107 1455004.2824095637 6999.999999999827
  endloop
endfacet
facet normal 4.265482093570921e-15 1.2803590980118504e-15 1.0
  outer loop
    vertex 530046.5009123182 1489155.855323369 7000.000000000097
    vertex 525263.9339610109 1494921.7824095632 7000.00000000008
    vertex 525263.9339610109 1489439.282409564 7000.000000000075
  endloop
endfacet
facet normal 4.265482093570921e-15 1.2803590980118504e-15 1.0
  outer loop
    vertex 525263.9339610109 1494921.7824095632 7000.00000000008
    vertex 530046.5009123182 1489155.855323369 7000.000000000097
    vertex 527930.9339610105 1494921.7824095632 7000.0000000000855
  endloop
endfacet
facet normal 4.265482093570921e-15 1.2803590980118504e-15 1.0
  outer loop
    vertex 527930.9339610105 1494921.7824095632 7000.0000000000855
    vertex 530046.5009123182 1489155.855323369 7000.000000000097
    vertex 533360.2027184145 1494588.627884583 7000.000000000085
  endloop
endfacet
facet normal 4.265482093570921e-15 1.2803590980118504e-15 1.0
  outer loop
    vertex 533360.2027184145 1494588.627884583 7000.000000000085
    vertex 530046.5009123182 1489155.855323369 7000.000000000097
    vertex 534762.1165588051 1488309.541769457 7000.000000000097
  endloop
endfacet
facet normal 4.265482093570921e-15 1.2803590980118504e-15 1.0
  outer loop
    vertex 533360.2027184145 1494588.627884583 7000.000000000085
    vertex 534762.1165588051 1488309.541769457 7000.000000000097
    vertex 538708.3199426532 1493595.857350452 7000.000000000077
  endloop
endfacet
facet normal 4.265482093570921e-15 1.2803590980118504e-15 1.0
  outer loop
    vertex 538708.3199426532 1493595.857350452 7000.000000000077
    vertex 534762.1165588051 1488309.541769457 7000.000000000097
    vertex 539344.7668490676 1486912.1893178257 7000.00000000012
  endloop
endfacet
facet normal 4.265482093570921e-15 1.2803590980118504e-15 1.0
  outer loop
    vertex 538708.3199426532 1493595.857350452 7000.000000000077
    vertex 539344.7668490676 1486912.1893178257 7000.00000000012
    vertex 543895.4507625757 1491958.2905473423 7000.000000000067
  endloop
endfacet
facet normal 4.265482093570921e-15 1.2803590980118504e-15 1.0
  outer loop
    vertex 543895.4507625757 1491958.2905473423 7000.000000000067
    vertex 539344.7668490676 1486912.1893178257 7000.00000000012
    vertex 543730.2991178968 1484983.359549292 7000.00000000012
  endloop
endfacet
facet normal 4.265482093570921e-15 1.2803590980118504e-15 1.0
  outer loop
    vertex 543895.4507625757 1491958.2905473423 7000.000000000067
    vertex 543730.2991178968 1484983.359549292 7000.00000000012
    vertex 547857.3201614503 1482550.0542123085 7000.00000000012
  endloop
endfacet
facet normal 4.265482093570921e-15 1.2803590980118504e-15 1.0
  outer loop
    vertex 543895.4507625757 1491958.2905473423 7000.000000000067
    vertex 547857.3201614503 1482550.0542123085 7000.00000000012
    vertex 548844.1634572068 1489700.372514367 7000.000000000053
  endloop
endfacet
facet normal 4.265482093570921e-15 1.2803590980118504e-15 1.0
  outer loop
    vertex 548844.1634572068 1489700.372514367 7000.000000000053
    vertex 547857.3201614503 1482550.0542123085 7000.00000000012
    vertex 551668.0556826402 1479646.3372246413 7000.00000000012
  endloop
endfacet
facet normal 4.265482093570921e-15 1.2803590980118504e-15 1.0
  outer loop
    vertex 548844.1634572068 1489700.372514367 7000.000000000053
    vertex 551668.0556826402 1479646.3372246413 7000.00000000012
    vertex 553480.5853300866 1486855.8086823674 7000.000000000034
  endloop
endfacet
facet normal 4.265482093570921e-15 1.2803590980118504e-15 1.0
  outer loop
    vertex 553480.5853300866 1486855.8086823674 7000.000000000034
    vertex 551668.0556826402 1479646.3372246413 7000.00000000012
    vertex 555109.1590753306 1476312.857811515 7000.00000000012
  endloop
endfacet
facet normal 4.265482093570921e-15 1.2803590980118504e-15 1.0
  outer loop
    vertex 553480.5853300866 1486855.8086823674 7000.000000000034
    vertex 555109.1590753306 1476312.857811515 7000.00000000012
    vertex 557735.5054557055 1483467.0617307287 7000.000000000012
  endloop
endfacet
facet normal 4.265482093570921e-15 1.2803590980118504e-15 1.0
  outer loop
    vertex 557735.5054557055 1483467.0617307287 7000.000000000012
    vertex 555109.1590753306 1476312.857811515 7000.00000000012
    vertex 558132.4582251519 1472596.2814558323 7000.00000000012
  endloop
endfacet
facet normal 4.265482093570921e-15 1.2803590980118504e-15 1.0
  outer loop
    vertex 557735.5054557055 1483467.0617307287 7000.000000000012
    vertex 558132.4582251519 1472596.2814558323 7000.00000000012
    vertex 561545.4078366117 1479584.7177189747 6999.999999999987
  endloop
endfacet
facet normal 4.265482093570921e-15 1.2803590980118504e-15 1.0
  outer loop
    vertex 561545.4078366117 1479584.7177189747 6999.999999999987
    vertex 558132.4582251519 1472596.2814558323 7000.00000000012
    vertex 560695.6298724377 1468548.636626617 7000.00000000012
  endloop
endfacet
facet normal 4.265482093570921e-15 1.2803590980118504e-15 1.0
  outer loop
    vertex 561545.4078366117 1479584.7177189747 6999.999999999987
    vertex 560695.6298724377 1468548.636626617 7000.00000000012
    vertex 562762.792096871 1464226.5864308416 7000.000000000097
  endloop
endfacet
facet normal 4.265482093570921e-15 1.2803590980118504e-15 1.0
  outer loop
    vertex 561545.4078366117 1479584.7177189747 6999.999999999987
    vertex 562762.792096871 1464226.5864308416 7000.000000000097
    vertex 564853.4195485739 1475266.730955313 6999.999999999959
  endloop
endfacet
facet normal 4.265482093570921e-15 1.2803590980118504e-15 1.0
  outer loop
    vertex 564853.4195485739 1475266.730955313 6999.999999999959
    vertex 562762.792096871 1464226.5864308416 7000.000000000097
    vertex 564305.0066296074 1459690.635384816 7000.000000000097
  endloop
endfacet
facet normal 4.265482093570921e-15 1.2803590980118504e-15 1.0
  outer loop
    vertex 564853.4195485739 1475266.730955313 6999.999999999959
    vertex 564305.0066296074 1459690.635384816 7000.000000000097
    vertex 565300.6839610109 1455004.2824095637 7000.000000000075
  endloop
endfacet
facet normal 4.265482093570921e-15 1.2803590980118504e-15 1.0
  outer loop
    vertex 564853.4195485739 1475266.730955313 6999.999999999959
    vertex 565300.6839610109 1455004.2824095637 7000.000000000075
    vertex 567610.1597202088 1470577.5588744727 6999.999999999928
  endloop
endfacet
facet normal 4.265482093570921e-15 1.2803590980118504e-15 1.0
  outer loop
    vertex 567610.1597202088 1470577.5588744727 6999.999999999928
    vertex 565300.6839610109 1455004.2824095637 7000.000000000075
    vertex 572205.9339610107 1455004.2824095637 6999.999999999827
  endloop
endfacet
facet normal 4.265482093570921e-15 1.2803590980118504e-15 1.0
  outer loop
    vertex 567610.1597202088 1470577.5588744727 6999.999999999928
    vertex 572205.9339610107 1455004.2824095637 6999.999999999827
    vertex 569774.4766738011 1465587.1998390895 6999.999999999896
  endloop
endfacet
facet normal 4.265482093570921e-15 1.2803590980118504e-15 1.0
  outer loop
    vertex 569774.4766738011 1465587.1998390895 6999.999999999896
    vertex 572205.9339610107 1455004.2824095637 6999.999999999827
    vertex 571314.0622235206 1460370.1482280036 6999.999999999862
  endloop
endfacet
facet normal 0.1766480884121179 0.9842740740567866 6.517407700398637e-18
  outer loop
    vertex 532861.415354111 1491629.5895371973 4750.000000000101
    vertex 537722.8747834784 1490757.1013372883 2250.000000000102
    vertex 532861.415354111 1491629.5895371973 2250.0000000001014
  endloop
endfacet
facet normal 0.1766480884121179 0.9842740740567866 6.517407700398637e-18
  outer loop
    vertex 537722.8747834784 1490757.1013372883 2250.000000000102
    vertex 532861.415354111 1491629.5895371973 4750.000000000101
    vertex 537722.8747834784 1490757.1013372883 4750.000000000101
  endloop
endfacet
facet normal 0.0 1.0 0.0
  outer loop
    vertex 525263.9339610109 1494921.7824095632 7000.00000000008
    vertex 527930.9339610104 1494921.7824095632 4750.000000000112
    vertex 525263.9339610109 1494921.7824095632 4750.000000000111
  endloop
endfacet
facet normal 0.0 1.0 0.0
  outer loop
    vertex 527930.9339610104 1494921.7824095632 4750.000000000112
    vertex 525263.9339610109 1494921.7824095632 7000.00000000008
    vertex 527930.9339610105 1494921.7824095632 7000.0000000000855
  endloop
endfacet
facet normal 0.059158751208888485 0.9982485873545752 1.2136406344817732e-18
  outer loop
    vertex 527930.9339610105 1491921.7824095632 4750.000000000101
    vertex 532861.415354111 1491629.5895371973 2250.0000000001014
    vertex 527930.9339610105 1491921.7824095632 2250.0000000001005
  endloop
endfacet
facet normal 0.059158751208888485 0.9982485873545752 1.2136406344817732e-18
  outer loop
    vertex 532861.415354111 1491629.5895371973 2250.0000000001014
    vertex 527930.9339610105 1491921.7824095632 4750.000000000101
    vertex 532861.415354111 1491629.5895371973 4750.000000000101
  endloop
endfacet
facet normal 0.9021265245913481 0.4314715907550992 -3.6829251020291875e-17
  outer loop
    vertex 564458.4555191825 1470385.0341797208 2250.0000000001014
    vertex 566589.5505959181 1465929.312328406 4750.000000000101
    vertex 566589.5505959181 1465929.312328406 2250.0000000001005
  endloop
endfacet
facet normal 0.9021265245913481 0.4314715907550992 -3.6829251020291875e-17
  outer loop
    vertex 566589.5505959181 1465929.312328406 4750.000000000101
    vertex 564458.4555191825 1470385.0341797208 2250.0000000001014
    vertex 564458.4555191825 1470385.0341797208 4750.000000000101
  endloop
endfacet
facet normal 0.40259793773719976 0.9153769171929965 5.172070877973597e-18
  outer loop
    vertex 542447.2565260183 1489316.5317995234 4750.000000000102
    vertex 546968.4238134706 1487328.047502066 2250.000000000102
    vertex 542447.2565260183 1489316.5317995234 2250.000000000102
  endloop
endfacet
facet normal 0.40259793773719976 0.9153769171929965 5.172070877973597e-18
  outer loop
    vertex 546968.4238134706 1487328.047502066 2250.000000000102
    vertex 542447.2565260183 1489316.5317995234 4750.000000000102
    vertex 546968.4238134706 1487328.047502066 4750.000000000102
  endloop
endfacet
facet normal 1.0 0.0 0.0
  outer loop
    vertex 569205.9339610105 1456421.7824095634 2250.0000000001005
    vertex 569205.9339610105 1455004.2824095637 4750.000000000099
    vertex 569205.9339610105 1455004.2824095637 2250.0000000001005
  endloop
endfacet
facet normal 1.0 0.0 0.0
  outer loop
    vertex 569205.9339610105 1455004.2824095637 4750.000000000099
    vertex 569205.9339610105 1456421.7824095634 2250.0000000001005
    vertex 569205.9339610105 1456421.7824095634 4750.000000000099
  endloop
endfacet
facet normal 0.8620624410267332 0.5068020794857003 -7.08273211180305e-14
  outer loop
    vertex 564853.4195485737 1475266.730955313 4749.999999999985
    vertex 567610.1597202088 1470577.5588744727 6999.999999999928
    vertex 567610.1597202087 1470577.5588744727 4749.9999999999545
  endloop
endfacet
facet normal 0.8620624410267332 0.5068020794857003 -7.08273211180305e-14
  outer loop
    vertex 567610.1597202088 1470577.5588744727 6999.999999999928
    vertex 564853.4195485737 1475266.730955313 4749.999999999985
    vertex 564853.4195485739 1475266.730955313 6999.999999999959
  endloop
endfacet
facet normal 0.9781661783347559 0.20782427086839206 5.756500482530425e-18
  outer loop
    vertex 568179.4624853368 1461253.074136627 2250.0000000001005
    vertex 569205.9339610105 1456421.7824095634 4750.000000000099
    vertex 569205.9339610105 1456421.7824095634 2250.0000000001005
  endloop
endfacet
facet normal 0.9781661783347559 0.20782427086839206 5.756500482530425e-18
  outer loop
    vertex 569205.9339610105 1456421.7824095634 4750.000000000099
    vertex 568179.4624853368 1461253.074136627 2250.0000000001005
    vertex 568179.4624853368 1461253.074136627 4750.000000000101
  endloop
endfacet
facet normal 0.6957855789597615 0.7182495583790007 -3.1634832620602294e-18
  outer loop
    vertex 555151.6780039278 1481825.9626312926 4750.000000000102
    vertex 558699.2072747429 1478389.385916729 2250.000000000102
    vertex 555151.6780039278 1481825.9626312926 2250.000000000102
  endloop
endfacet
facet normal 0.6957855789597615 0.7182495583790007 -3.1634832620602294e-18
  outer loop
    vertex 558699.2072747429 1478389.385916729 2250.000000000102
    vertex 555151.6780039278 1481825.9626312926 4750.000000000102
    vertex 558699.2072747429 1478389.385916729 4750.000000000101
  endloop
endfacet
facet normal 0.7757480730806128 0.6310427300204925 6.792695722010335e-18
  outer loop
    vertex 558699.2072747429 1478389.385916729 2250.000000000102
    vertex 561816.01052198 1474557.8639005618 4750.000000000101
    vertex 561816.01052198 1474557.8639005618 2250.000000000102
  endloop
endfacet
facet normal 0.7757480730806128 0.6310427300204925 6.792695722010335e-18
  outer loop
    vertex 561816.01052198 1474557.8639005618 4750.000000000101
    vertex 558699.2072747429 1478389.385916729 2250.000000000102
    vertex 558699.2072747429 1478389.385916729 4750.000000000101
  endloop
endfacet
facet normal 0.793823332910504 0.6081484326435933 -6.521506080382828e-14
  outer loop
    vertex 561545.4078366116 1479584.7177189747 4750.000000000015
    vertex 564853.4195485739 1475266.730955313 6999.999999999959
    vertex 564853.4195485737 1475266.730955313 4749.999999999985
  endloop
endfacet
facet normal 0.793823332910504 0.6081484326435933 -6.521506080382828e-14
  outer loop
    vertex 564853.4195485739 1475266.730955313 6999.999999999959
    vertex 561545.4078366116 1479584.7177189747 4750.000000000015
    vertex 561545.4078366117 1479584.7177189747 6999.999999999987
  endloop
endfacet
facet normal 0.9591083818807448 0.28303906409910906 -7.880446281491448e-14
  outer loop
    vertex 569774.4766738008 1465587.1998390895 4749.999999999924
    vertex 571314.0622235206 1460370.1482280036 6999.999999999862
    vertex 571314.0622235205 1460370.1482280036 4749.999999999888
  endloop
endfacet
facet normal 0.9591083818807448 0.28303906409910906 -7.880446281491448e-14
  outer loop
    vertex 571314.0622235206 1460370.1482280036 6999.999999999862
    vertex 569774.4766738008 1465587.1998390895 4749.999999999924
    vertex 569774.4766738011 1465587.1998390895 6999.999999999896
  endloop
endfacet
facet normal 0.7137343006355266 0.7004165532712058 -5.86496863294183e-14
  outer loop
    vertex 557735.5054557053 1483467.0617307287 4750.000000000039
    vertex 561545.4078366117 1479584.7177189747 6999.999999999987
    vertex 561545.4078366116 1479584.7177189747 4750.000000000015
  endloop
endfacet
facet normal 0.7137343006355266 0.7004165532712058 -5.86496863294183e-14
  outer loop
    vertex 561545.4078366117 1479584.7177189747 6999.999999999987
    vertex 557735.5054557053 1483467.0617307287 4750.000000000039
    vertex 557735.5054557055 1483467.0617307287 7000.000000000012
  endloop
endfacet
facet normal 0.507895370828412 0.8614187670878026 4.768281031918495e-17
  outer loop
    vertex 546968.4238134706 1487328.047502066 4750.000000000102
    vertex 551223.0846831136 1484819.4852989905 2250.000000000102
    vertex 546968.4238134706 1487328.047502066 2250.000000000102
  endloop
endfacet
facet normal 0.507895370828412 0.8614187670878026 4.768281031918495e-17
  outer loop
    vertex 551223.0846831136 1484819.4852989905 2250.000000000102
    vertex 546968.4238134706 1487328.047502066 4750.000000000102
    vertex 551223.0846831136 1484819.4852989905 4750.000000000102
  endloop
endfacet
facet normal 0.29166452348283955 0.9565206771113357 2.517222080306512e-17
  outer loop
    vertex 537722.8747834784 1490757.1013372883 4750.000000000101
    vertex 542447.2565260183 1489316.5317995234 2250.000000000102
    vertex 537722.8747834784 1490757.1013372883 2250.000000000102
  endloop
endfacet
facet normal 0.29166452348283955 0.9565206771113357 2.517222080306512e-17
  outer loop
    vertex 542447.2565260183 1489316.5317995234 2250.000000000102
    vertex 537722.8747834784 1490757.1013372883 4750.000000000101
    vertex 542447.2565260183 1489316.5317995234 4750.000000000102
  endloop
endfacet
facet normal 0.9174329748358087 0.39789035761616365 -7.546780148877553e-14
  outer loop
    vertex 567610.1597202087 1470577.5588744727 4749.9999999999545
    vertex 569774.4766738011 1465587.1998390895 6999.999999999896
    vertex 569774.4766738008 1465587.1998390895 4749.999999999924
  endloop
endfacet
facet normal 0.9174329748358087 0.39789035761616365 -7.546780148877553e-14
  outer loop
    vertex 569774.4766738011 1465587.1998390895 6999.999999999896
    vertex 567610.1597202087 1470577.5588744727 4749.9999999999545
    vertex 567610.1597202088 1470577.5588744727 6999.999999999928
  endloop
endfacet
facet normal 0.6060827606864753 0.795401588632221 0.0
  outer loop
    vertex 551223.0846831136 1484819.4852989905 4750.000000000102
    vertex 555151.6780039278 1481825.9626312926 2250.000000000102
    vertex 551223.0846831136 1484819.4852989905 2250.000000000102
  endloop
endfacet
facet normal 0.6060827606864753 0.795401588632221 0.0
  outer loop
    vertex 555151.6780039278 1481825.9626312926 2250.000000000102
    vertex 551223.0846831136 1484819.4852989905 4750.000000000102
    vertex 555151.6780039278 1481825.9626312926 4750.000000000102
  endloop
endfacet
facet normal 0.18251200324450578 0.9832036252331853 -1.497690441195253e-14
  outer loop
    vertex 533360.2027184144 1494588.627884583 4750.000000000111
    vertex 538708.3199426532 1493595.857350452 7000.000000000077
    vertex 538708.3199426531 1493595.857350452 4750.000000000104
  endloop
endfacet
facet normal 0.18251200324450578 0.9832036252331853 -1.497690441195253e-14
  outer loop
    vertex 538708.3199426532 1493595.857350452 7000.000000000077
    vertex 533360.2027184144 1494588.627884583 4750.000000000111
    vertex 533360.2027184145 1494588.627884583 7000.000000000085
  endloop
endfacet
endsolid PlexiglassBeaconEdges
