solid PlexiglassBeaconEdges
facet normal 8.298917109073045e-15 0.0 -1.0
  outer loop
    vertex 1813583.9898075606 970260.0918099328 2849.999999999941
    vertex 1806583.9898075606 844160.0918099331 2849.9999999998176
    vertex 1806583.9898075606 970260.0918099328 2849.9999999998176
  endloop
endfacet
facet normal 8.298917109073045e-15 0.0 -1.0
  outer loop
    vertex 1806583.9898075606 844160.0918099331 2849.9999999998176
    vertex 1813583.9898075606 970260.0918099328 2849.999999999941
    vertex 1813583.9898075606 844160.0918099331 2849.999999999941
  endloop
endfacet
facet normal -8.298917109073045e-15 0.0 1.0
  outer loop
    vertex 1811333.9898075603 841677.5918099337 6755.249999999929
    vertex 1808833.9898075606 970260.0918099328 6755.2499999996435
    vertex 1808833.9898075606 841677.5918099337 6755.2499999996435
  endloop
endfacet
facet normal -8.298917109073045e-15 0.0 1.0
  outer loop
    vertex 1808833.9898075606 970260.0918099328 6755.2499999996435
    vertex 1811333.9898075603 841677.5918099337 6755.249999999929
    vertex 1811333.9898075603 970260.0918099328 6755.249999999929
  endloop
endfacet
facet normal -1.0 -1.251531426563605e-16 -8.465450562766819e-15
  outer loop
    vertex 1811333.989807561 970260.0918099328 19772.750000000022
    vertex 1811333.9898075603 841677.5918099337 6755.249999999929
    vertex 1811333.989807561 833402.5918099333 19772.750000000022
  endloop
endfacet
facet normal -1.0 -1.251531426563605e-16 -8.465450562766819e-15
  outer loop
    vertex 1811333.9898075603 841677.5918099337 6755.249999999929
    vertex 1811333.989807561 970260.0918099328 19772.750000000022
    vertex 1811333.9898075603 970260.0918099328 6755.249999999929
  endloop
endfacet
facet normal -8.298917109073045e-15 0.0 1.0
  outer loop
    vertex 1808833.9898075606 833402.5918099333 19772.749999999916
    vertex 1806583.989807561 970260.0918099328 19772.74999999963
    vertex 1806583.989807561 833402.5918099333 19772.74999999963
  endloop
endfacet
facet normal -8.298917109073045e-15 0.0 1.0
  outer loop
    vertex 1806583.989807561 970260.0918099328 19772.74999999963
    vertex 1808833.9898075606 833402.5918099333 19772.749999999916
    vertex 1808833.9898075606 970260.0918099328 19772.749999999916
  endloop
endfacet
facet normal -1.0 0.0 -8.298917109073045e-15
  outer loop
    vertex 1806583.989807561 970260.0918099328 19772.74999999963
    vertex 1806583.9898075606 844160.0918099331 2849.9999999998176
    vertex 1806583.989807561 833402.5918099333 19772.74999999963
  endloop
endfacet
facet normal -1.0 0.0 -8.298917109073045e-15
  outer loop
    vertex 1806583.9898075606 844160.0918099331 2849.9999999998176
    vertex 1806583.989807561 970260.0918099328 19772.74999999963
    vertex 1806583.9898075606 970260.0918099328 2849.9999999998176
  endloop
endfacet
facet normal -8.298917109073045e-15 0.0 1.0
  outer loop
    vertex 1813583.9898075613 833402.5918099333 19772.749999999938
    vertex 1811333.989807561 970260.0918099328 19772.750000000022
    vertex 1811333.989807561 833402.5918099333 19772.750000000022
  endloop
endfacet
facet normal -8.298917109073045e-15 0.0 1.0
  outer loop
    vertex 1811333.989807561 970260.0918099328 19772.750000000022
    vertex 1813583.9898075613 833402.5918099333 19772.749999999938
    vertex 1813583.9898075613 970260.0918099328 19772.749999999938
  endloop
endfacet
facet normal 1.0 8.442640927378125e-17 8.631984016460592e-15
  outer loop
    vertex 1813583.9898075606 844160.0918099331 2849.999999999941
    vertex 1813583.9898075613 970260.0918099328 6755.2499999996635
    vertex 1813583.9898075613 841677.5918099337 6755.2499999996635
  endloop
endfacet
facet normal 1.0 8.442640927378125e-17 8.631984016460592e-15
  outer loop
    vertex 1813583.9898075613 970260.0918099328 6755.2499999996635
    vertex 1813583.9898075606 844160.0918099331 2849.999999999941
    vertex 1813583.9898075606 970260.0918099328 2849.999999999941
  endloop
endfacet
facet normal 1.0 7.905475437070302e-17 1.0769163338864018e-14
  outer loop
    vertex 1813583.9898075613 841677.5918099337 6755.2499999996635
    vertex 1813583.9898075613 970260.0918099328 19772.749999999938
    vertex 1813583.9898075613 833402.5918099333 19772.749999999938
  endloop
endfacet
facet normal 1.0 7.905475437070302e-17 1.0769163338864018e-14
  outer loop
    vertex 1813583.9898075613 970260.0918099328 19772.749999999938
    vertex 1813583.9898075613 841677.5918099337 6755.2499999996635
    vertex 1813583.9898075613 970260.0918099328 6755.2499999996635
  endloop
endfacet
facet normal 1.051477318309149e-14 -0.8439216610914951 -0.5364664294628058
  outer loop
    vertex 1813583.9898075613 841677.5918099337 6755.2499999996635
    vertex 1808833.9898075606 841677.5918099337 6755.2499999996435
    vertex 1813583.9898075606 844160.0918099331 2849.999999999941
  endloop
endfacet
facet normal 1.051477318309149e-14 -0.8439216610914951 -0.5364664294628058
  outer loop
    vertex 1808833.9898075606 841677.5918099337 6755.2499999996435
    vertex 1813583.9898075613 841677.5918099337 6755.2499999996635
    vertex 1811333.9898075603 841677.5918099337 6755.249999999929
  endloop
endfacet
facet normal 1.051477318309149e-14 -0.8439216610914951 -0.5364664294628058
  outer loop
    vertex 1811333.9898075603 841677.5918099337 6755.249999999929
    vertex 1813583.9898075613 841677.5918099337 6755.2499999996635
    vertex 1813583.9898075613 833402.5918099333 19772.749999999938
  endloop
endfacet
facet normal 1.051477318309149e-14 -0.8439216610914951 -0.5364664294628058
  outer loop
    vertex 1811333.9898075603 841677.5918099337 6755.249999999929
    vertex 1813583.9898075613 833402.5918099333 19772.749999999938
    vertex 1811333.989807561 833402.5918099333 19772.750000000022
  endloop
endfacet
facet normal 1.051477318309149e-14 -0.8439216610914951 -0.5364664294628058
  outer loop
    vertex 1806583.9898075606 844160.0918099331 2849.9999999998176
    vertex 1808833.9898075606 841677.5918099337 6755.2499999996435
    vertex 1806583.989807561 833402.5918099333 19772.74999999963
  endloop
endfacet
facet normal 1.051477318309149e-14 -0.8439216610914951 -0.5364664294628058
  outer loop
    vertex 1808833.9898075606 841677.5918099337 6755.2499999996435
    vertex 1806583.9898075606 844160.0918099331 2849.9999999998176
    vertex 1813583.9898075606 844160.0918099331 2849.999999999941
  endloop
endfacet
facet normal 1.051477318309149e-14 -0.8439216610914951 -0.5364664294628058
  outer loop
    vertex 1806583.989807561 833402.5918099333 19772.74999999963
    vertex 1808833.9898075606 841677.5918099337 6755.2499999996435
    vertex 1808833.9898075606 833402.5918099333 19772.749999999916
  endloop
endfacet
facet normal 1.0 1.1428499159244123e-16 8.465450562766819e-15
  outer loop
    vertex 1808833.9898075606 841677.5918099337 6755.2499999996435
    vertex 1808833.9898075606 970260.0918099328 19772.749999999916
    vertex 1808833.9898075606 833402.5918099333 19772.749999999916
  endloop
endfacet
facet normal 1.0 1.1428499159244123e-16 8.465450562766819e-15
  outer loop
    vertex 1808833.9898075606 970260.0918099328 19772.749999999916
    vertex 1808833.9898075606 841677.5918099337 6755.2499999996435
    vertex 1808833.9898075606 970260.0918099328 6755.2499999996435
  endloop
endfacet
facet normal 0.0 1.0 0.0
  outer loop
    vertex 1806583.9898075606 970260.0918099328 2849.9999999998176
    vertex 1808833.9898075606 970260.0918099328 6755.2499999996435
    vertex 1813583.9898075606 970260.0918099328 2849.999999999941
  endloop
endfacet
facet normal 0.0 1.0 0.0
  outer loop
    vertex 1808833.9898075606 970260.0918099328 6755.2499999996435
    vertex 1806583.9898075606 970260.0918099328 2849.9999999998176
    vertex 1806583.989807561 970260.0918099328 19772.74999999963
  endloop
endfacet
facet normal 0.0 1.0 0.0
  outer loop
    vertex 1808833.9898075606 970260.0918099328 6755.2499999996435
    vertex 1806583.989807561 970260.0918099328 19772.74999999963
    vertex 1808833.9898075606 970260.0918099328 19772.749999999916
  endloop
endfacet
facet normal 0.0 1.0 0.0
  outer loop
    vertex 1808833.9898075606 970260.0918099328 6755.2499999996435
    vertex 1813583.9898075613 970260.0918099328 6755.2499999996635
    vertex 1813583.9898075606 970260.0918099328 2849.999999999941
  endloop
endfacet
facet normal 0.0 1.0 0.0
  outer loop
    vertex 1813583.9898075613 970260.0918099328 6755.2499999996635
    vertex 1808833.9898075606 970260.0918099328 6755.2499999996435
    vertex 1811333.9898075603 970260.0918099328 6755.249999999929
  endloop
endfacet
facet normal 0.0 1.0 0.0
  outer loop
    vertex 1813583.9898075613 970260.0918099328 6755.2499999996635
    vertex 1811333.9898075603 970260.0918099328 6755.249999999929
    vertex 1813583.9898075613 970260.0918099328 19772.749999999938
  endloop
endfacet
facet normal 0.0 1.0 0.0
  outer loop
    vertex 1813583.9898075613 970260.0918099328 19772.749999999938
    vertex 1811333.9898075603 970260.0918099328 6755.249999999929
    vertex 1811333.989807561 970260.0918099328 19772.750000000022
  endloop
endfacet
endsolid PlexiglassBeaconEdges
