solid plexiglass corner cover
facet normal -0.0 1.0 0.0
  outer loop
    vertex 2429.0327538786128 35872.530068278225 4000.0
    vertex 31429.032753878615 35872.530068278225 0.0
    vertex 2429.0327538786128 35872.530068278225 0.0
  endloop
endfacet
facet normal -0.0 1.0 0.0
  outer loop
    vertex 31429.032753878615 35872.530068278225 0.0
    vertex 2429.0327538786128 35872.530068278225 4000.0
    vertex 27429.03275387862 35872.530068278225 4000.0
  endloop
endfacet
facet normal -0.0 1.0 0.0
  outer loop
    vertex 31429.032753878615 35872.530068278225 0.0
    vertex 27429.03275387862 35872.530068278225 4000.0
    vertex 31429.032753878615 35872.530068278225 29000.0
  endloop
endfacet
facet normal -0.0 1.0 0.0
  outer loop
    vertex 31429.032753878615 35872.530068278225 29000.0
    vertex 27429.03275387862 35872.530068278225 4000.0
    vertex 27429.03275387862 35872.530068278225 29000.0
  endloop
endfacet
facet normal -0.0 -1.0 -0.0
  outer loop
    vertex 31429.032753878615 6872.5300682782145 29000.0
    vertex 2429.0327538786128 6872.5300682782145 0.0
    vertex 31429.032753878615 6872.5300682782145 0.0
  endloop
endfacet
facet normal -0.0 -1.0 -0.0
  outer loop
    vertex 2429.0327538786128 6872.5300682782145 0.0
    vertex 31429.032753878615 6872.5300682782145 29000.0
    vertex 2429.0327538786128 6872.5300682782145 29000.0
  endloop
endfacet
facet normal 0.0 0.0 1.0
  outer loop
    vertex 31429.032753878615 6872.5300682782145 29000.0
    vertex 2429.032753878613 10872.530068278214 29000.0
    vertex 2429.0327538786128 6872.5300682782145 29000.0
  endloop
endfacet
facet normal 0.0 0.0 1.0
  outer loop
    vertex 2429.032753878613 10872.530068278214 29000.0
    vertex 31429.032753878615 6872.5300682782145 29000.0
    vertex 27429.03275387862 10872.530068278214 29000.0
  endloop
endfacet
facet normal 0.0 0.0 1.0
  outer loop
    vertex 27429.03275387862 10872.530068278214 29000.0
    vertex 31429.032753878615 6872.5300682782145 29000.0
    vertex 27429.03275387862 35872.530068278225 29000.0
  endloop
endfacet
facet normal 0.0 0.0 1.0
  outer loop
    vertex 27429.03275387862 35872.530068278225 29000.0
    vertex 31429.032753878615 6872.5300682782145 29000.0
    vertex 31429.032753878615 35872.530068278225 29000.0
  endloop
endfacet
facet normal 1.0 0.0 0.0
  outer loop
    vertex 31429.032753878615 35872.530068278225 0.0
    vertex 31429.032753878615 6872.5300682782145 29000.0
    vertex 31429.032753878615 6872.5300682782145 0.0
  endloop
endfacet
facet normal 1.0 0.0 0.0
  outer loop
    vertex 31429.032753878615 6872.5300682782145 29000.0
    vertex 31429.032753878615 35872.530068278225 0.0
    vertex 31429.032753878615 35872.530068278225 29000.0
  endloop
endfacet
facet normal -1.0 -0.0 -0.0
  outer loop
    vertex 27429.03275387862 35872.530068278225 29000.0
    vertex 27429.03275387862 10872.530068278214 4000.0
    vertex 27429.03275387862 10872.530068278214 29000.0
  endloop
endfacet
facet normal -1.0 -0.0 -0.0
  outer loop
    vertex 27429.03275387862 10872.530068278214 4000.0
    vertex 27429.03275387862 35872.530068278225 29000.0
    vertex 27429.03275387862 35872.530068278225 4000.0
  endloop
endfacet
facet normal 0.0 1.0 0.0
  outer loop
    vertex 2429.032753878613 10872.530068278214 29000.0
    vertex 27429.03275387862 10872.530068278214 4000.0
    vertex 2429.032753878613 10872.530068278214 4000.0
  endloop
endfacet
facet normal 0.0 1.0 0.0
  outer loop
    vertex 27429.03275387862 10872.530068278214 4000.0
    vertex 2429.032753878613 10872.530068278214 29000.0
    vertex 27429.03275387862 10872.530068278214 29000.0
  endloop
endfacet
facet normal 0.0 0.0 -1.0
  outer loop
    vertex 31429.032753878615 35872.530068278225 0.0
    vertex 2429.0327538786128 6872.5300682782145 0.0
    vertex 2429.0327538786128 35872.530068278225 0.0
  endloop
endfacet
facet normal 0.0 0.0 -1.0
  outer loop
    vertex 2429.0327538786128 6872.5300682782145 0.0
    vertex 31429.032753878615 35872.530068278225 0.0
    vertex 31429.032753878615 6872.5300682782145 0.0
  endloop
endfacet
facet normal -1.0 0.0 0.0
  outer loop
    vertex 2429.032753878613 10872.530068278214 29000.0
    vertex 2429.0327538786128 6872.5300682782145 0.0
    vertex 2429.0327538786128 6872.5300682782145 29000.0
  endloop
endfacet
facet normal -1.0 0.0 0.0
  outer loop
    vertex 2429.0327538786128 6872.5300682782145 0.0
    vertex 2429.032753878613 10872.530068278214 29000.0
    vertex 2429.032753878613 10872.530068278214 4000.0
  endloop
endfacet
facet normal -1.0 0.0 0.0
  outer loop
    vertex 2429.0327538786128 6872.5300682782145 0.0
    vertex 2429.032753878613 10872.530068278214 4000.0
    vertex 2429.0327538786128 35872.530068278225 0.0
  endloop
endfacet
facet normal -1.0 0.0 0.0
  outer loop
    vertex 2429.0327538786128 35872.530068278225 0.0
    vertex 2429.032753878613 10872.530068278214 4000.0
    vertex 2429.0327538786128 35872.530068278225 4000.0
  endloop
endfacet
facet normal -0.0 -0.0 1.0
  outer loop
    vertex 2429.032753878613 10872.530068278214 4000.0
    vertex 27429.03275387862 35872.530068278225 4000.0
    vertex 2429.0327538786128 35872.530068278225 4000.0
  endloop
endfacet
facet normal -0.0 -0.0 1.0
  outer loop
    vertex 27429.03275387862 35872.530068278225 4000.0
    vertex 2429.032753878613 10872.530068278214 4000.0
    vertex 27429.03275387862 10872.530068278214 4000.0
  endloop
endfacet
endsolid plexiglass corner cover
