solid PlexiglassBeaconEdges
facet normal -6.106226635438361e-16 5.173522139501844e-30 -1.0
  outer loop
    vertex 653084.302999646 1391445.7524389068 4.775664308453996e-11
    vertex 646084.302999646 1388963.2524389075 2.3101165425032376e-11
    vertex 646084.302999646 1391445.7524389068 0.0
  endloop
endfacet
facet normal -6.106226635438361e-16 5.173522139501844e-30 -1.0
  outer loop
    vertex 646084.302999646 1388963.2524389075 2.3101165425032376e-11
    vertex 653084.302999646 1391445.7524389068 4.775664308453996e-11
    vertex 648334.3029996459 1388963.2524389075 4.670193121114606e-11
  endloop
endfacet
facet normal -6.106226635438361e-16 5.173522139501844e-30 -1.0
  outer loop
    vertex 646084.302999646 1388963.2524389075 2.3101165425032376e-11
    vertex 648334.3029996459 1388963.2524389075 4.670193121114606e-11
    vertex 646084.302999646 1385963.2524389077 4.620233085006475e-11
  endloop
endfacet
facet normal -6.106226635438361e-16 5.173522139501844e-30 -1.0
  outer loop
    vertex 648334.3029996459 1388963.2524389075 4.670193121114606e-11
    vertex 653084.302999646 1391445.7524389068 4.775664308453996e-11
    vertex 650834.302999646 1388963.2524389075 -6.824878440170324e-11
  endloop
endfacet
facet normal -6.106226635438361e-16 5.173522139501844e-30 -1.0
  outer loop
    vertex 650834.302999646 1388963.2524389075 -6.824878440170324e-11
    vertex 653084.302999646 1391445.7524389068 4.775664308453996e-11
    vertex 650834.302999646 1385963.2524389075 -6.824878440170324e-11
  endloop
endfacet
facet normal -6.106226635438361e-16 5.173522139501844e-30 -1.0
  outer loop
    vertex 650834.302999646 1385963.2524389075 -6.824878440170324e-11
    vertex 653084.302999646 1391445.7524389068 4.775664308453996e-11
    vertex 653084.302999646 1385963.2524389075 4.775664308453996e-11
  endloop
endfacet
facet normal -6.106226635438361e-16 5.173522139501844e-30 -1.0
  outer loop
    vertex 648334.3029996459 1385963.2524389077 4.670193121114606e-11
    vertex 646084.302999646 1385963.2524389077 4.620233085006475e-11
    vertex 648334.3029996459 1388963.2524389075 4.670193121114606e-11
  endloop
endfacet
facet normal -1.2736226187614522e-31 -1.0 -5.046159877625698e-30
  outer loop
    vertex 653084.302999646 1522880.752438907 4.775664308453996e-11
    vertex 650834.3029996462 1522880.752438907 3905.249999999885
    vertex 648334.3029996462 1522880.752438907 3905.249999999815
  endloop
endfacet
facet normal -1.2736226187614522e-31 -1.0 -5.046159877625698e-30
  outer loop
    vertex 650834.3029996462 1522880.752438907 3905.249999999885
    vertex 653084.302999646 1522880.752438907 4.775664308453996e-11
    vertex 653084.3029996459 1522880.752438907 6905.249999999758
  endloop
endfacet
facet normal -1.2736226187614522e-31 -1.0 -5.046159877625698e-30
  outer loop
    vertex 650834.3029996462 1522880.752438907 3905.249999999885
    vertex 653084.3029996459 1522880.752438907 6905.249999999758
    vertex 650834.302999646 1522880.752438907 6905.249999999689
  endloop
endfacet
facet normal -1.2736226187614522e-31 -1.0 -5.046159877625698e-30
  outer loop
    vertex 653084.302999646 1522880.752438907 4.775664308453996e-11
    vertex 646084.3029996459 1522880.752438907 3905.2499999999072
    vertex 646084.302999646 1522880.752438907 0.0
  endloop
endfacet
facet normal -1.2736226187614522e-31 -1.0 -5.046159877625698e-30
  outer loop
    vertex 646084.3029996459 1522880.752438907 3905.2499999999072
    vertex 653084.302999646 1522880.752438907 4.775664308453996e-11
    vertex 648334.3029996462 1522880.752438907 3905.249999999815
  endloop
endfacet
facet normal -1.2736226187614522e-31 -1.0 -5.046159877625698e-30
  outer loop
    vertex 646084.3029996459 1522880.752438907 3905.2499999999072
    vertex 648334.3029996462 1522880.752438907 3905.249999999815
    vertex 648334.3029996462 1522880.752438907 6905.250000000474
  endloop
endfacet
facet normal -1.2736226187614522e-31 -1.0 -5.046159877625698e-30
  outer loop
    vertex 646084.3029996459 1522880.752438907 3905.2499999999072
    vertex 648334.3029996462 1522880.752438907 6905.250000000474
    vertex 646084.3029996459 1522880.752438907 6905.250000000588
  endloop
endfacet
facet normal -6.106226635438361e-16 5.173522139501844e-30 -1.0
  outer loop
    vertex 653084.302999646 1522880.752438907 4.775664308453996e-11
    vertex 646084.302999646 1391445.7524389068 0.0
    vertex 646084.302999646 1522880.752438907 0.0
  endloop
endfacet
facet normal -6.106226635438361e-16 5.173522139501844e-30 -1.0
  outer loop
    vertex 646084.302999646 1391445.7524389068 0.0
    vertex 653084.302999646 1522880.752438907 4.775664308453996e-11
    vertex 653084.302999646 1391445.7524389068 4.775664308453996e-11
  endloop
endfacet
facet normal 6.106226635438361e-16 -5.173522139501844e-30 1.0
  outer loop
    vertex 648334.3029996462 1385963.252438908 6905.250000000451
    vertex 646084.3029996459 1522880.752438907 6905.250000000588
    vertex 646084.3029996459 1385963.252438908 6905.250000000588
  endloop
endfacet
facet normal 6.106226635438361e-16 -5.173522139501844e-30 1.0
  outer loop
    vertex 646084.3029996459 1522880.752438907 6905.250000000588
    vertex 648334.3029996462 1385963.252438908 6905.250000000451
    vertex 648334.3029996462 1522880.752438907 6905.250000000474
  endloop
endfacet
facet normal -1.0 -4.750435124377791e-15 -4.829470157119431e-15
  outer loop
    vertex 646084.302999646 1391445.7524389068 0.0
    vertex 646084.302999646 1388963.2524389075 2.3101165425032376e-11
    vertex 646084.3029996459 1388963.2524389075 3905.2499999999072
  endloop
endfacet
facet normal -1.0 8.100072001255291e-17 8.88178419700125e-16
  outer loop
    vertex 646084.3029996459 1522880.752438907 3905.2499999999072
    vertex 646084.302999646 1391445.7524389068 0.0
    vertex 646084.3029996459 1388963.2524389075 3905.2499999999072
  endloop
endfacet
facet normal -1.0 8.100072001255291e-17 8.88178419700125e-16
  outer loop
    vertex 646084.302999646 1391445.7524389068 0.0
    vertex 646084.3029996459 1522880.752438907 3905.2499999999072
    vertex 646084.302999646 1522880.752438907 0.0
  endloop
endfacet
facet normal 1.0 4.918797615749554e-30 -6.106226635438361e-16
  outer loop
    vertex 653084.302999646 1391445.7524389068 4.775664308453996e-11
    vertex 653084.3029996459 1385963.2524389075 6905.249999999758
    vertex 653084.302999646 1385963.2524389075 4.775664308453996e-11
  endloop
endfacet
facet normal 1.0 4.918797615749554e-30 -6.106226635438361e-16
  outer loop
    vertex 653084.3029996459 1385963.2524389075 6905.249999999758
    vertex 653084.302999646 1391445.7524389068 4.775664308453996e-11
    vertex 653084.3029996459 1522880.752438907 6905.249999999758
  endloop
endfacet
facet normal 1.0 4.918797615749554e-30 -6.106226635438361e-16
  outer loop
    vertex 653084.3029996459 1522880.752438907 6905.249999999758
    vertex 653084.302999646 1391445.7524389068 4.775664308453996e-11
    vertex 653084.302999646 1522880.752438907 4.775664308453996e-11
  endloop
endfacet
facet normal 6.106226635438361e-16 -5.173522139501844e-30 1.0
  outer loop
    vertex 653084.3029996459 1385963.2524389075 6905.249999999758
    vertex 650834.302999646 1388963.2524389075 6905.249999999689
    vertex 650834.302999646 1385963.2524389075 6905.249999999689
  endloop
endfacet
facet normal 6.106226635438361e-16 -5.173522139501844e-30 1.0
  outer loop
    vertex 650834.302999646 1388963.2524389075 6905.249999999689
    vertex 653084.3029996459 1385963.2524389075 6905.249999999758
    vertex 650834.302999646 1522880.752438907 6905.249999999689
  endloop
endfacet
facet normal 6.106226635438361e-16 -5.173522139501844e-30 1.0
  outer loop
    vertex 650834.302999646 1522880.752438907 6905.249999999689
    vertex 653084.3029996459 1385963.2524389075 6905.249999999758
    vertex 653084.3029996459 1522880.752438907 6905.249999999758
  endloop
endfacet
facet normal 4.9187976157495515e-30 -1.0 -5.173522139501845e-30
  outer loop
    vertex 650834.3029996462 1388963.2524389075 3905.2499999998618
    vertex 648334.3029996459 1388963.2524389075 4.670193121114606e-11
    vertex 650834.302999646 1388963.2524389075 -6.824878440170324e-11
  endloop
endfacet
facet normal 4.9187976157495515e-30 -1.0 -5.173522139501845e-30
  outer loop
    vertex 648334.3029996459 1388963.2524389075 4.670193121114606e-11
    vertex 650834.3029996462 1388963.2524389075 3905.2499999998618
    vertex 648334.3029996462 1388963.2524389075 3905.249999999815
  endloop
endfacet
facet normal 1.851197589344761e-29 -1.0 2.6763596307193266e-14
  outer loop
    vertex 648334.3029996459 1385963.2524389077 4.670193121114606e-11
    vertex 646084.3029996459 1385963.252438908 6905.250000000588
    vertex 646084.302999646 1385963.2524389077 4.620233085006475e-11
  endloop
endfacet
facet normal 1.851197589344761e-29 -1.0 2.6763596307193266e-14
  outer loop
    vertex 646084.3029996459 1385963.252438908 6905.250000000588
    vertex 648334.3029996459 1385963.2524389077 4.670193121114606e-11
    vertex 648334.3029996462 1385963.252438908 6905.250000000451
  endloop
endfacet
facet normal 4.9187976157495515e-30 -1.0 -5.173522139501845e-30
  outer loop
    vertex 653084.302999646 1385963.2524389075 4.775664308453996e-11
    vertex 650834.302999646 1385963.2524389075 6905.249999999689
    vertex 650834.302999646 1385963.2524389075 -6.824878440170324e-11
  endloop
endfacet
facet normal 4.9187976157495515e-30 -1.0 -5.173522139501845e-30
  outer loop
    vertex 650834.302999646 1385963.2524389075 6905.249999999689
    vertex 653084.302999646 1385963.2524389075 4.775664308453996e-11
    vertex 653084.3029996459 1385963.2524389075 6905.249999999758
  endloop
endfacet
facet normal -1.0 1.484423660142592e-17 1.6653345369377348e-15
  outer loop
    vertex 646084.3029996459 1522880.752438907 6905.250000000588
    vertex 646084.3029996459 1388963.2524389075 3905.2499999999072
    vertex 646084.3029996459 1385963.252438908 6905.250000000588
  endloop
endfacet
facet normal -1.0 1.484423660142592e-17 1.6653345369377348e-15
  outer loop
    vertex 646084.3029996459 1388963.2524389075 3905.2499999999072
    vertex 646084.3029996459 1522880.752438907 6905.250000000588
    vertex 646084.3029996459 1522880.752438907 3905.2499999999072
  endloop
endfacet
facet normal -1.0 1.484423660142592e-17 1.6653345369377348e-15
  outer loop
    vertex 646084.3029996459 1385963.252438908 6905.250000000588
    vertex 646084.302999646 1388963.2524389075 2.3101165425032376e-11
    vertex 646084.302999646 1385963.2524389077 4.620233085006475e-11
  endloop
endfacet
facet normal -1.0 1.484423660142592e-17 1.6653345369377348e-15
  outer loop
    vertex 646084.302999646 1388963.2524389075 2.3101165425032376e-11
    vertex 646084.3029996459 1385963.252438908 6905.250000000588
    vertex 646084.3029996459 1388963.2524389075 3905.2499999999072
  endloop
endfacet
facet normal 6.106226635438361e-16 -5.173522139501844e-30 1.0
  outer loop
    vertex 650834.3029996462 1388963.2524389075 3905.2499999998618
    vertex 648334.3029996462 1522880.752438907 3905.249999999815
    vertex 648334.3029996462 1388963.2524389075 3905.249999999815
  endloop
endfacet
facet normal 6.106226635438361e-16 -5.173522139501844e-30 1.0
  outer loop
    vertex 648334.3029996462 1522880.752438907 3905.249999999815
    vertex 650834.3029996462 1388963.2524389075 3905.2499999998618
    vertex 650834.3029996462 1522880.752438907 3905.249999999885
  endloop
endfacet
facet normal 1.0 -1.253548625034169e-16 -2.220446049250313e-16
  outer loop
    vertex 648334.3029996459 1388963.2524389075 4.670193121114606e-11
    vertex 648334.3029996462 1385963.252438908 6905.250000000451
    vertex 648334.3029996459 1385963.2524389077 4.670193121114606e-11
  endloop
endfacet
facet normal 1.0 -1.253548625034169e-16 -2.220446049250313e-16
  outer loop
    vertex 648334.3029996462 1385963.252438908 6905.250000000451
    vertex 648334.3029996459 1388963.2524389075 4.670193121114606e-11
    vertex 648334.3029996462 1388963.2524389075 3905.249999999815
  endloop
endfacet
facet normal 1.0 -1.253548625034169e-16 -2.220446049250313e-16
  outer loop
    vertex 648334.3029996462 1385963.252438908 6905.250000000451
    vertex 648334.3029996462 1388963.2524389075 3905.249999999815
    vertex 648334.3029996462 1522880.752438907 6905.250000000474
  endloop
endfacet
facet normal 1.0 -1.253548625034169e-16 -2.220446049250313e-16
  outer loop
    vertex 648334.3029996462 1522880.752438907 6905.250000000474
    vertex 648334.3029996462 1388963.2524389075 3905.249999999815
    vertex 648334.3029996462 1522880.752438907 3905.249999999815
  endloop
endfacet
facet normal -1.0 1.185957864335068e-16 6.106226635438361e-16
  outer loop
    vertex 650834.302999646 1522880.752438907 6905.249999999689
    vertex 650834.3029996462 1388963.2524389075 3905.2499999998618
    vertex 650834.302999646 1388963.2524389075 6905.249999999689
  endloop
endfacet
facet normal -1.0 1.185957864335068e-16 6.106226635438361e-16
  outer loop
    vertex 650834.3029996462 1388963.2524389075 3905.2499999998618
    vertex 650834.302999646 1522880.752438907 6905.249999999689
    vertex 650834.3029996462 1522880.752438907 3905.249999999885
  endloop
endfacet
facet normal -1.0 9.41577598545776e-16 1.0547118733938987e-15
  outer loop
    vertex 650834.302999646 1388963.2524389075 6905.249999999689
    vertex 650834.302999646 1385963.2524389075 -6.824878440170324e-11
    vertex 650834.302999646 1385963.2524389075 6905.249999999689
  endloop
endfacet
facet normal -1.0 9.41577598545776e-16 1.0547118733938987e-15
  outer loop
    vertex 650834.302999646 1385963.2524389075 -6.824878440170324e-11
    vertex 650834.302999646 1388963.2524389075 6905.249999999689
    vertex 650834.302999646 1388963.2524389075 -6.824878440170324e-11
  endloop
endfacet
facet normal -1.0 9.41577598545776e-16 1.0547118733938987e-15
  outer loop
    vertex 650834.302999646 1388963.2524389075 -6.824878440170324e-11
    vertex 650834.302999646 1388963.2524389075 6905.249999999689
    vertex 650834.3029996462 1388963.2524389075 3905.2499999998618
  endloop
endfacet
endsolid PlexiglassBeaconEdges
