solid PlexiglassBeaconEdges
facet normal -0.0 -0.0 1.0
  outer loop
    vertex 306708.400749692 1502293.9499748014 4749.999999999996
    vertex 299803.1507496922 1510293.9499748014 4749.999999999996
    vertex 299803.1507496922 1502293.9499748014 4749.999999999996
  endloop
endfacet
facet normal -0.0 -0.0 1.0
  outer loop
    vertex 299803.1507496922 1510293.9499748014 4749.999999999996
    vertex 306708.400749692 1502293.9499748014 4749.999999999996
    vertex 306708.400749692 1510293.9499748014 4749.999999999996
  endloop
endfacet
facet normal -1.0 0.0 0.0
  outer loop
    vertex 299803.1507496922 1510293.9499748014 4749.999999999996
    vertex 299803.1507496922 1502293.9499748014 2500.0000000000005
    vertex 299803.1507496922 1502293.9499748014 4749.999999999996
  endloop
endfacet
facet normal -1.0 0.0 0.0
  outer loop
    vertex 299803.1507496922 1502293.9499748014 2500.0000000000005
    vertex 299803.1507496922 1510293.9499748014 4749.999999999996
    vertex 299803.1507496922 1510293.9499748014 2500.0000000000005
  endloop
endfacet
facet normal -0.8664469094292433 0.4992692190997887 0.0
  outer loop
    vertex 304172.2463598732 1519034.1175525328 4749.999999999996
    vertex 301728.6957473828 1514793.5058840553 2500.000000000002
    vertex 301728.6957473828 1514793.5058840553 4749.999999999996
  endloop
endfacet
facet normal -0.8664469094292433 0.4992692190997887 0.0
  outer loop
    vertex 301728.6957473828 1514793.5058840553 2500.000000000002
    vertex 304172.2463598732 1519034.1175525328 4749.999999999996
    vertex 304172.2463598732 1519034.1175525328 2500.000000000002
  endloop
endfacet
facet normal 0.0 0.0 -1.0
  outer loop
    vertex 302803.15074969217 1510293.9499748014 2500.0000000000005
    vertex 299803.1507496922 1502293.9499748014 2500.0000000000005
    vertex 299803.1507496922 1510293.9499748014 2500.0000000000005
  endloop
endfacet
facet normal 0.0 0.0 -1.0
  outer loop
    vertex 299803.1507496922 1502293.9499748014 2500.0000000000005
    vertex 302803.15074969217 1510293.9499748014 2500.0000000000005
    vertex 302803.15074969217 1502293.9499748014 2500.0000000000005
  endloop
endfacet
facet normal 1.0 -0.0 -0.0
  outer loop
    vertex 306708.400749692 1510293.9499748014 0.0
    vertex 306708.400749692 1502293.9499748014 4749.999999999996
    vertex 306708.400749692 1502293.9499748014 0.0
  endloop
endfacet
facet normal 1.0 -0.0 -0.0
  outer loop
    vertex 306708.400749692 1502293.9499748014 4749.999999999996
    vertex 306708.400749692 1510293.9499748014 0.0
    vertex 306708.400749692 1510293.9499748014 4749.999999999996
  endloop
endfacet
facet normal 7.405020974851898e-17 -6.359601632188991e-17 -1.0
  outer loop
    vertex 301728.6957473828 1514793.5058840553 2500.000000000002
    vertex 302803.15074969217 1510293.9499748014 2500.0000000000005
    vertex 299803.1507496922 1510293.9499748014 2500.0000000000005
  endloop
endfacet
facet normal 7.405020974851898e-17 -6.359601632188991e-17 -1.0
  outer loop
    vertex 302803.15074969217 1510293.9499748014 2500.0000000000005
    vertex 301728.6957473828 1514793.5058840553 2500.000000000002
    vertex 304172.2463598732 1519034.1175525328 2500.000000000002
  endloop
endfacet
facet normal 7.405020974851898e-17 -6.359601632188991e-17 -1.0
  outer loop
    vertex 302803.15074969217 1510293.9499748014 2500.0000000000005
    vertex 304172.2463598732 1519034.1175525328 2500.000000000002
    vertex 303545.6230221455 1511826.3581340841 2500.0000000000005
  endloop
endfacet
facet normal 7.405020974851898e-17 -6.359601632188991e-17 -1.0
  outer loop
    vertex 303545.6230221455 1511826.3581340841 2500.0000000000005
    vertex 304172.2463598732 1519034.1175525328 2500.000000000002
    vertex 305416.6499051575 1515688.020000986 2500.0000000000005
  endloop
endfacet
facet normal 7.405020974851898e-17 -6.359601632188991e-17 -1.0
  outer loop
    vertex 305416.6499051575 1515688.020000986 2500.0000000000005
    vertex 304172.2463598732 1519034.1175525328 2500.000000000002
    vertex 307099.5898427394 1522956.411148371 2500.000000000002
  endloop
endfacet
facet normal 7.405020974851898e-17 -6.359601632188991e-17 -1.0
  outer loop
    vertex 305416.6499051575 1515688.020000986 2500.0000000000005
    vertex 307099.5898427394 1522956.411148371 2500.000000000002
    vertex 307828.7493368801 1519479.865919966 2500.0000000000005
  endloop
endfacet
facet normal 7.405020974851898e-17 -6.359601632188991e-17 -1.0
  outer loop
    vertex 307828.7493368801 1519479.865919966 2500.0000000000005
    vertex 307099.5898427394 1522956.411148371 2500.000000000002
    vertex 310469.73975031107 1526505.4696881988 2500.000000000002
  endloop
endfacet
facet normal 7.405020974851898e-17 -6.359601632188991e-17 -1.0
  outer loop
    vertex 307828.7493368801 1519479.865919966 2500.0000000000005
    vertex 310469.73975031107 1526505.4696881988 2500.000000000002
    vertex 310661.3432383041 1522968.81001975 2500.0000000000005
  endloop
endfacet
facet normal 7.405020974851898e-17 -6.359601632188991e-17 -1.0
  outer loop
    vertex 310661.3432383041 1522968.81001975 2500.0000000000005
    vertex 310469.73975031107 1526505.4696881988 2500.000000000002
    vertex 314235.5097968328 1529631.6019431348 2500.000000000002
  endloop
endfacet
facet normal 7.405020974851898e-17 -6.359601632188991e-17 -1.0
  outer loop
    vertex 310661.3432383041 1522968.81001975 2500.0000000000005
    vertex 314235.5097968328 1529631.6019431348 2500.000000000002
    vertex 313876.76455284486 1526108.4572788842 2500.0000000000005
  endloop
endfacet
facet normal 7.405020974851898e-17 -6.359601632188991e-17 -1.0
  outer loop
    vertex 313876.76455284486 1526108.4572788842 2500.0000000000005
    vertex 314235.5097968328 1529631.6019431348 2500.000000000002
    vertex 317432.25549000886 1528857.0575294753 2500.0000000000005
  endloop
endfacet
facet normal 7.405020974851898e-17 -6.359601632188991e-17 -1.0
  outer loop
    vertex 317432.25549000886 1528857.0575294753 2500.0000000000005
    vertex 314235.5097968328 1529631.6019431348 2500.000000000002
    vertex 318344.17452308815 1532291.038177726 2500.000000000002
  endloop
endfacet
facet normal 7.405020974851898e-17 -6.359601632188991e-17 -1.0
  outer loop
    vertex 317432.25549000886 1528857.0575294753 2500.0000000000005
    vertex 318344.17452308815 1532291.038177726 2500.000000000002
    vertex 321280.5361067546 1531178.0606394631 2500.0000000000005
  endloop
endfacet
facet normal 7.405020974851898e-17 -6.359601632188991e-17 -1.0
  outer loop
    vertex 321280.5361067546 1531178.0606394631 2500.0000000000005
    vertex 318344.17452308815 1532291.038177726 2500.000000000002
    vertex 322738.2075183346 1534446.5429806241 2500.000000000002
  endloop
endfacet
facet normal 7.405020974851898e-17 -6.359601632188991e-17 -1.0
  outer loop
    vertex 321280.5361067546 1531178.0606394631 2500.0000000000005
    vertex 322738.2075183346 1534446.5429806241 2500.000000000002
    vertex 325370.4330232111 1533040.6025462553 2500.0000000000005
  endloop
endfacet
facet normal 7.405020974851898e-17 -6.359601632188991e-17 -1.0
  outer loop
    vertex 325370.4330232111 1533040.6025462553 2500.0000000000005
    vertex 322738.2075183346 1534446.5429806241 2500.000000000002
    vertex 327356.0868615245 1536067.936606605 2500.000000000002
  endloop
endfacet
facet normal 7.405020974851898e-17 -6.359601632188991e-17 -1.0
  outer loop
    vertex 325370.4330232111 1533040.6025462553 2500.0000000000005
    vertex 327356.0868615245 1536067.936606605 2500.000000000002
    vertex 329647.55991223996 1534419.9156785603 2500.0000000000005
  endloop
endfacet
facet normal 7.405020974851898e-17 -6.359601632188991e-17 -1.0
  outer loop
    vertex 329647.55991223996 1534419.9156785603 2500.0000000000005
    vertex 327356.0868615245 1536067.936606605 2500.000000000002
    vertex 332133.1565046337 1537132.5175304974 2500.000000000002
  endloop
endfacet
facet normal 7.405020974851898e-17 -6.359601632188991e-17 -1.0
  outer loop
    vertex 329647.55991223996 1534419.9156785603 2500.0000000000005
    vertex 332133.1565046337 1537132.5175304974 2500.000000000002
    vertex 334055.0407138928 1535297.658308757 2500.0000000000005
  endloop
endfacet
facet normal 7.405020974851898e-17 -6.359601632188991e-17 -1.0
  outer loop
    vertex 334055.0407138928 1535297.658308757 2500.0000000000005
    vertex 332133.1565046337 1537132.5175304974 2500.000000000002
    vertex 337002.53153766243 1537625.3802967397 2500.000000000002
  endloop
endfacet
facet normal 7.405020974851898e-17 -6.359601632188991e-17 -1.0
  outer loop
    vertex 334055.0407138928 1535297.658308757 2500.0000000000005
    vertex 337002.53153766243 1537625.3802967397 2500.000000000002
    vertex 338534.26595765364 1535662.158456156 2500.0000000000005
  endloop
endfacet
facet normal 7.405020974851898e-17 -6.359601632188991e-17 -1.0
  outer loop
    vertex 338534.26595765364 1535662.158456156 2500.0000000000005
    vertex 337002.53153766243 1537625.3802967397 2500.000000000002
    vertex 338534.26595765364 1537598.5374522705 2500.000000000001
  endloop
endfacet
facet normal 7.405020974851898e-17 -6.359601632188991e-17 -1.0
  outer loop
    vertex 338534.26595765364 1535662.158456156 2500.0000000000005
    vertex 338534.26595765364 1537598.5374522705 2500.000000000001
    vertex 341896.0346604725 1537539.6242142748 2500.000000000002
  endloop
endfacet
facet normal 7.405020974851898e-17 -6.359601632188991e-17 -1.0
  outer loop
    vertex 338534.26595765364 1535662.158456156 2500.0000000000005
    vertex 341896.0346604725 1537539.6242142748 2500.000000000002
    vertex 346745.15074969217 1533876.4499748007 2500.0000000000077
  endloop
endfacet
facet normal 7.405020974851898e-17 -6.359601632188991e-17 -1.0
  outer loop
    vertex 346745.15074969217 1533876.4499748007 2500.0000000000077
    vertex 341896.0346604725 1537539.6242142748 2500.000000000002
    vertex 346745.15074969217 1536876.4499748007 2500.000000000002
  endloop
endfacet
facet normal 0.017521786578283398 0.9998464817136204 -6.301705091739847e-15
  outer loop
    vertex 337002.53153766243 1537625.3802967397 2500.000000000002
    vertex 341896.0346604725 1537539.6242142748 2500.000000000002
    vertex 338534.26595765364 1537598.5374522705 2500.000000000001
  endloop
endfacet
facet normal 0.017521786578283398 0.9998464817136204 -6.301705091739847e-15
  outer loop
    vertex 341896.0346604725 1537539.6242142748 2500.000000000002
    vertex 337002.53153766243 1537625.3802967397 2500.000000000002
    vertex 337002.53153766243 1537625.3802967397 4749.999999999996
  endloop
endfacet
facet normal 0.017521786578283398 0.9998464817136204 -6.301705091739847e-15
  outer loop
    vertex 341896.0346604725 1537539.6242142748 2500.000000000002
    vertex 337002.53153766243 1537625.3802967397 4749.999999999996
    vertex 341896.0346604725 1537539.6242142748 4749.999999999996
  endloop
endfacet
facet normal 0.13550056339201544 0.9907772692792495 -0.0
  outer loop
    vertex 341896.0346604725 1537539.6242142748 4749.999999999996
    vertex 346745.15074969217 1536876.4499748007 2500.000000000002
    vertex 341896.0346604725 1537539.6242142748 2500.000000000002
  endloop
endfacet
facet normal 0.13550056339201544 0.9907772692792495 -0.0
  outer loop
    vertex 346745.15074969217 1536876.4499748007 2500.000000000002
    vertex 341896.0346604725 1537539.6242142748 4749.999999999996
    vertex 346745.15074969217 1536876.4499748007 4749.999999999996
  endloop
endfacet
facet normal -3.6971329340364687e-16 0.0 -1.0
  outer loop
    vertex 306708.400749692 1510293.9499748014 0.0
    vertex 302803.15074969217 1502293.9499748014 1.4438228390645235e-12
    vertex 302803.15074969217 1510293.9499748014 1.4438228390645235e-12
  endloop
endfacet
facet normal -3.6971329340364687e-16 0.0 -1.0
  outer loop
    vertex 302803.15074969217 1502293.9499748014 1.4438228390645235e-12
    vertex 306708.400749692 1510293.9499748014 0.0
    vertex 306708.400749692 1502293.9499748014 0.0
  endloop
endfacet
facet normal -1.0 0.0 0.0
  outer loop
    vertex 302803.15074969217 1510293.9499748014 2500.0000000000005
    vertex 302803.15074969217 1502293.9499748014 1.4438228390645235e-12
    vertex 302803.15074969217 1502293.9499748014 2500.0000000000005
  endloop
endfacet
facet normal -1.0 0.0 0.0
  outer loop
    vertex 302803.15074969217 1502293.9499748014 1.4438228390645235e-12
    vertex 302803.15074969217 1510293.9499748014 2500.0000000000005
    vertex 302803.15074969217 1510293.9499748014 1.4438228390645235e-12
  endloop
endfacet
facet normal -0.0 -0.0 1.0
  outer loop
    vertex 306708.400749692 1510293.9499748014 4749.999999999996
    vertex 301728.6957473828 1514793.5058840553 4749.999999999996
    vertex 299803.1507496922 1510293.9499748014 4749.999999999996
  endloop
endfacet
facet normal -0.0 -0.0 1.0
  outer loop
    vertex 301728.6957473828 1514793.5058840553 4749.999999999996
    vertex 306708.400749692 1510293.9499748014 4749.999999999996
    vertex 304172.2463598732 1519034.1175525328 4749.999999999996
  endloop
endfacet
facet normal -0.0 -0.0 1.0
  outer loop
    vertex 304172.2463598732 1519034.1175525328 4749.999999999996
    vertex 306708.400749692 1510293.9499748014 4749.999999999996
    vertex 307099.5898427394 1522956.411148371 4749.999999999996
  endloop
endfacet
facet normal -0.0 -0.0 1.0
  outer loop
    vertex 307099.5898427394 1522956.411148371 4749.999999999996
    vertex 306708.400749692 1510293.9499748014 4749.999999999996
    vertex 308490.9249901828 1513972.948897174 4749.999999999996
  endloop
endfacet
facet normal -0.0 -0.0 1.0
  outer loop
    vertex 307099.5898427394 1522956.411148371 4749.999999999996
    vertex 308490.9249901828 1513972.948897174 4749.999999999996
    vertex 310469.73975031107 1526505.4696881988 4749.999999999996
  endloop
endfacet
facet normal -0.0 -0.0 1.0
  outer loop
    vertex 310469.73975031107 1526505.4696881988 4749.999999999996
    vertex 308490.9249901828 1513972.948897174 4749.999999999996
    vertex 310685.13827020413 1517422.2754721066 4749.999999999996
  endloop
endfacet
facet normal -0.0 -0.0 1.0
  outer loop
    vertex 310469.73975031107 1526505.4696881988 4749.999999999996
    vertex 310685.13827020413 1517422.2754721066 4749.999999999996
    vertex 314235.5097968328 1529631.6019431348 4749.999999999996
  endloop
endfacet
facet normal -0.0 -0.0 1.0
  outer loop
    vertex 314235.5097968328 1529631.6019431348 4749.999999999996
    vertex 310685.13827020413 1517422.2754721066 4749.999999999996
    vertex 313261.8625435368 1520596.0615011223 4749.999999999996
  endloop
endfacet
facet normal -0.0 -0.0 1.0
  outer loop
    vertex 314235.5097968328 1529631.6019431348 4749.999999999996
    vertex 313261.8625435368 1520596.0615011223 4749.999999999996
    vertex 316186.8332377142 1523452.1028483303 4749.999999999996
  endloop
endfacet
facet normal -0.0 -0.0 1.0
  outer loop
    vertex 314235.5097968328 1529631.6019431348 4749.999999999996
    vertex 316186.8332377142 1523452.1028483303 4749.999999999996
    vertex 318344.17452308815 1532291.038177726 4749.999999999996
  endloop
endfacet
facet normal -0.0 -0.0 1.0
  outer loop
    vertex 318344.17452308815 1532291.038177726 4749.999999999996
    vertex 316186.8332377142 1523452.1028483303 4749.999999999996
    vertex 319421.1548949058 1525952.4206594452 4749.999999999996
  endloop
endfacet
facet normal -0.0 -0.0 1.0
  outer loop
    vertex 318344.17452308815 1532291.038177726 4749.999999999996
    vertex 319421.1548949058 1525952.4206594452 4749.999999999996
    vertex 322738.2075183346 1534446.5429806241 4749.999999999996
  endloop
endfacet
facet normal -0.0 -0.0 1.0
  outer loop
    vertex 322738.2075183346 1534446.5429806241 4749.999999999996
    vertex 319421.1548949058 1525952.4206594452 4749.999999999996
    vertex 322921.818393045 1528063.766394173 4749.999999999996
  endloop
endfacet
facet normal -0.0 -0.0 1.0
  outer loop
    vertex 322738.2075183346 1534446.5429806241 4749.999999999996
    vertex 322921.818393045 1528063.766394173 4749.999999999996
    vertex 327356.0868615245 1536067.936606605 4749.999999999996
  endloop
endfacet
facet normal -0.0 -0.0 1.0
  outer loop
    vertex 327356.0868615245 1536067.936606605 4749.999999999996
    vertex 322921.818393045 1528063.766394173 4749.999999999996
    vertex 326642.27286933456 1529758.0639561773 4749.999999999996
  endloop
endfacet
facet normal -0.0 -0.0 1.0
  outer loop
    vertex 327356.0868615245 1536067.936606605 4749.999999999996
    vertex 326642.27286933456 1529758.0639561773 4749.999999999996
    vertex 330533.0447408493 1531012.7830413065 4749.999999999996
  endloop
endfacet
facet normal -0.0 -0.0 1.0
  outer loop
    vertex 327356.0868615245 1536067.936606605 4749.999999999996
    vertex 330533.0447408493 1531012.7830413065 4749.999999999996
    vertex 332133.1565046337 1537132.5175304974 4749.999999999996
  endloop
endfacet
facet normal -0.0 -0.0 1.0
  outer loop
    vertex 332133.1565046337 1537132.5175304974 4749.999999999996
    vertex 330533.0447408493 1531012.7830413065 4749.999999999996
    vertex 334542.39559066837 1531811.2387393964 4749.999999999996
  endloop
endfacet
facet normal -0.0 -0.0 1.0
  outer loop
    vertex 332133.1565046337 1537132.5175304974 4749.999999999996
    vertex 334542.39559066837 1531811.2387393964 4749.999999999996
    vertex 337002.53153766243 1537625.3802967397 4749.999999999996
  endloop
endfacet
facet normal -0.0 -0.0 1.0
  outer loop
    vertex 337002.53153766243 1537625.3802967397 4749.999999999996
    vertex 334542.39559066837 1531811.2387393964 4749.999999999996
    vertex 338617.01017114957 1532142.8134056288 4749.999999999996
  endloop
endfacet
facet normal -0.0 -0.0 1.0
  outer loop
    vertex 337002.53153766243 1537625.3802967397 4749.999999999996
    vertex 338617.01017114957 1532142.8134056288 4749.999999999996
    vertex 341896.0346604725 1537539.6242142748 4749.999999999996
  endloop
endfacet
facet normal -0.0 -0.0 1.0
  outer loop
    vertex 341896.0346604725 1537539.6242142748 4749.999999999996
    vertex 338617.01017114957 1532142.8134056288 4749.999999999996
    vertex 342702.70537546533 1532003.097851059 4749.999999999996
  endloop
endfacet
facet normal -0.0 -0.0 1.0
  outer loop
    vertex 341896.0346604725 1537539.6242142748 4749.999999999996
    vertex 342702.70537546533 1532003.097851059 4749.999999999996
    vertex 346745.15074969217 1536876.4499748007 4749.999999999996
  endloop
endfacet
facet normal -0.0 -0.0 1.0
  outer loop
    vertex 346745.15074969217 1536876.4499748007 4749.999999999996
    vertex 342702.70537546533 1532003.097851059 4749.999999999996
    vertex 346745.15074969217 1531393.9499748012 4749.999999999996
  endloop
endfacet
facet normal -0.0 1.0 -0.0
  outer loop
    vertex 299803.1507496922 1510293.9499748014 4749.999999999996
    vertex 302803.15074969217 1510293.9499748014 2500.0000000000005
    vertex 299803.1507496922 1510293.9499748014 2500.0000000000005
  endloop
endfacet
facet normal -0.0 1.0 -0.0
  outer loop
    vertex 302803.15074969217 1510293.9499748014 1.4438228390645235e-12
    vertex 306708.400749692 1510293.9499748014 4749.999999999996
    vertex 306708.400749692 1510293.9499748014 0.0
  endloop
endfacet
facet normal -0.0 1.0 -0.0
  outer loop
    vertex 306708.400749692 1510293.9499748014 4749.999999999996
    vertex 302803.15074969217 1510293.9499748014 1.4438228390645235e-12
    vertex 302803.15074969217 1510293.9499748014 2500.0000000000005
  endloop
endfacet
facet normal -0.0 1.0 -0.0
  outer loop
    vertex 306708.400749692 1510293.9499748014 4749.999999999996
    vertex 302803.15074969217 1510293.9499748014 2500.0000000000005
    vertex 299803.1507496922 1510293.9499748014 4749.999999999996
  endloop
endfacet
facet normal -0.8014077754985791 0.5981183640136951 0.0
  outer loop
    vertex 307099.5898427394 1522956.411148371 4749.999999999996
    vertex 304172.2463598732 1519034.1175525328 2500.000000000002
    vertex 304172.2463598732 1519034.1175525328 4749.999999999996
  endloop
endfacet
facet normal -0.8014077754985791 0.5981183640136951 0.0
  outer loop
    vertex 304172.2463598732 1519034.1175525328 2500.000000000002
    vertex 307099.5898427394 1522956.411148371 4749.999999999996
    vertex 307099.5898427394 1522956.411148371 2500.000000000002
  endloop
endfacet
facet normal -0.10070231701660304 0.9949166012020744 -0.0
  outer loop
    vertex 332133.1565046337 1537132.5175304974 4749.999999999996
    vertex 337002.53153766243 1537625.3802967397 2500.000000000002
    vertex 332133.1565046337 1537132.5175304974 2500.000000000002
  endloop
endfacet
facet normal -0.10070231701660304 0.9949166012020744 -0.0
  outer loop
    vertex 337002.53153766243 1537625.3802967397 2500.000000000002
    vertex 332133.1565046337 1537132.5175304974 4749.999999999996
    vertex 337002.53153766243 1537625.3802967397 4749.999999999996
  endloop
endfacet
facet normal -0.9193547101606152 0.39342968483007423 1.5591961622120202e-17
  outer loop
    vertex 301728.6957473828 1514793.5058840553 4749.999999999996
    vertex 299803.1507496922 1510293.9499748014 2500.0000000000005
    vertex 299803.1507496922 1510293.9499748014 4749.999999999996
  endloop
endfacet
facet normal -0.9193547101606152 0.39342968483007423 1.5591961622120202e-17
  outer loop
    vertex 299803.1507496922 1510293.9499748014 2500.0000000000005
    vertex 301728.6957473828 1514793.5058840553 4749.999999999996
    vertex 301728.6957473828 1514793.5058840553 2500.000000000002
  endloop
endfacet
facet normal 1.0 -0.0 -0.0
  outer loop
    vertex 346745.15074969217 1533876.4499748007 9.023892744153272e-12
    vertex 346745.15074969217 1531393.9499748012 4749.999999999996
    vertex 346745.15074969217 1531393.9499748012 0.0
  endloop
endfacet
facet normal 1.0 -0.0 -0.0
  outer loop
    vertex 346745.15074969217 1531393.9499748012 4749.999999999996
    vertex 346745.15074969217 1533876.4499748007 9.023892744153272e-12
    vertex 346745.15074969217 1533876.4499748007 2500.0000000000077
  endloop
endfacet
facet normal 1.0 -0.0 -0.0
  outer loop
    vertex 346745.15074969217 1531393.9499748012 4749.999999999996
    vertex 346745.15074969217 1533876.4499748007 2500.0000000000077
    vertex 346745.15074969217 1536876.4499748007 4749.999999999996
  endloop
endfacet
facet normal 1.0 -0.0 -0.0
  outer loop
    vertex 346745.15074969217 1536876.4499748007 4749.999999999996
    vertex 346745.15074969217 1533876.4499748007 2500.0000000000077
    vertex 346745.15074969217 1536876.4499748007 2500.000000000002
  endloop
endfacet
facet normal 0.0 -1.0 0.0
  outer loop
    vertex 306708.400749692 1502293.9499748014 4749.999999999996
    vertex 302803.15074969217 1502293.9499748014 1.4438228390645235e-12
    vertex 306708.400749692 1502293.9499748014 0.0
  endloop
endfacet
facet normal 0.0 -1.0 0.0
  outer loop
    vertex 302803.15074969217 1502293.9499748014 1.4438228390645235e-12
    vertex 306708.400749692 1502293.9499748014 4749.999999999996
    vertex 302803.15074969217 1502293.9499748014 2500.0000000000005
  endloop
endfacet
facet normal 0.0 -1.0 0.0
  outer loop
    vertex 302803.15074969217 1502293.9499748014 2500.0000000000005
    vertex 306708.400749692 1502293.9499748014 4749.999999999996
    vertex 299803.1507496922 1502293.9499748014 2500.0000000000005
  endloop
endfacet
facet normal 0.0 -1.0 0.0
  outer loop
    vertex 299803.1507496922 1502293.9499748014 2500.0000000000005
    vertex 306708.400749692 1502293.9499748014 4749.999999999996
    vertex 299803.1507496922 1502293.9499748014 4749.999999999996
  endloop
endfacet
facet normal -0.2175164630613457 0.9760566521966244 -0.0
  outer loop
    vertex 327356.0868615245 1536067.936606605 4749.999999999996
    vertex 332133.1565046337 1537132.5175304974 2500.000000000002
    vertex 327356.0868615245 1536067.936606605 2500.000000000002
  endloop
endfacet
facet normal -0.2175164630613457 0.9760566521966244 -0.0
  outer loop
    vertex 332133.1565046337 1537132.5175304974 2500.000000000002
    vertex 327356.0868615245 1536067.936606605 4749.999999999996
    vertex 332133.1565046337 1537132.5175304974 4749.999999999996
  endloop
endfacet
facet normal -0.33128510838243147 0.9435306974147905 -0.0
  outer loop
    vertex 322738.2075183346 1534446.5429806241 4749.999999999996
    vertex 327356.0868615245 1536067.936606605 2500.000000000002
    vertex 322738.2075183346 1534446.5429806241 2500.000000000002
  endloop
endfacet
facet normal -0.33128510838243147 0.9435306974147905 -0.0
  outer loop
    vertex 327356.0868615245 1536067.936606605 2500.000000000002
    vertex 322738.2075183346 1534446.5429806241 4749.999999999996
    vertex 327356.0868615245 1536067.936606605 4749.999999999996
  endloop
endfacet
facet normal -0.5433792307402954 0.8394873504705624 -0.0
  outer loop
    vertex 314235.5097968328 1529631.6019431348 4749.999999999996
    vertex 318344.17452308815 1532291.038177726 2500.000000000002
    vertex 314235.5097968328 1529631.6019431348 2500.000000000002
  endloop
endfacet
facet normal -0.5433792307402954 0.8394873504705624 -0.0
  outer loop
    vertex 318344.17452308815 1532291.038177726 2500.000000000002
    vertex 314235.5097968328 1529631.6019431348 4749.999999999996
    vertex 318344.17452308815 1532291.038177726 4749.999999999996
  endloop
endfacet
facet normal -0.440415350599956 0.8977941406335407 -0.0
  outer loop
    vertex 318344.17452308815 1532291.038177726 4749.999999999996
    vertex 322738.2075183346 1534446.5429806241 2500.000000000002
    vertex 318344.17452308815 1532291.038177726 2500.000000000002
  endloop
endfacet
facet normal -0.440415350599956 0.8977941406335407 -0.0
  outer loop
    vertex 322738.2075183346 1534446.5429806241 2500.000000000002
    vertex 318344.17452308815 1532291.038177726 4749.999999999996
    vertex 322738.2075183346 1534446.5429806241 4749.999999999996
  endloop
endfacet
facet normal -0.7251479370478037 0.6885931087335356 0.0
  outer loop
    vertex 310469.73975031107 1526505.4696881988 4749.999999999996
    vertex 307099.5898427394 1522956.411148371 2500.000000000002
    vertex 307099.5898427394 1522956.411148371 4749.999999999996
  endloop
endfacet
facet normal -0.7251479370478037 0.6885931087335356 0.0
  outer loop
    vertex 307099.5898427394 1522956.411148371 2500.000000000002
    vertex 310469.73975031107 1526505.4696881988 4749.999999999996
    vertex 310469.73975031107 1526505.4696881988 2500.000000000002
  endloop
endfacet
facet normal -0.6387351265598796 0.7694266944280882 -0.0
  outer loop
    vertex 310469.73975031107 1526505.4696881988 4749.999999999996
    vertex 314235.5097968328 1529631.6019431348 2500.000000000002
    vertex 310469.73975031107 1526505.4696881988 2500.000000000002
  endloop
endfacet
facet normal -0.6387351265598796 0.7694266944280882 -0.0
  outer loop
    vertex 314235.5097968328 1529631.6019431348 2500.000000000002
    vertex 310469.73975031107 1526505.4696881988 4749.999999999996
    vertex 314235.5097968328 1529631.6019431348 4749.999999999996
  endloop
endfacet
facet normal 0.6986260015473825 -0.7154870438812408 0.0
  outer loop
    vertex 316186.8332377142 1523452.1028483303 4749.999999999996
    vertex 313261.8625435368 1520596.0615011223 0.0
    vertex 316186.8332377142 1523452.1028483303 0.0
  endloop
endfacet
facet normal 0.6986260015473825 -0.7154870438812408 0.0
  outer loop
    vertex 313261.8625435368 1520596.0615011223 0.0
    vertex 316186.8332377142 1523452.1028483303 4749.999999999996
    vertex 313261.8625435368 1520596.0615011223 4749.999999999996
  endloop
endfacet
facet normal -0.1953129678303142 0.9807409671250177 -0.0
  outer loop
    vertex 329647.55991223996 1534419.9156785603 2500.0000000000005
    vertex 334055.0407138928 1535297.658308757 0.0
    vertex 329647.55991223996 1534419.9156785603 0.0
  endloop
endfacet
facet normal -0.1953129678303142 0.9807409671250177 -0.0
  outer loop
    vertex 334055.0407138928 1535297.658308757 0.0
    vertex 329647.55991223996 1534419.9156785603 2500.0000000000005
    vertex 334055.0407138928 1535297.658308757 2500.0000000000005
  endloop
endfacet
facet normal -0.5164634713636195 0.8563092214539325 -0.0
  outer loop
    vertex 317432.25549000886 1528857.0575294753 2500.0000000000005
    vertex 321280.5361067546 1531178.0606394631 0.0
    vertex 317432.25549000886 1528857.0575294753 0.0
  endloop
endfacet
facet normal -0.5164634713636195 0.8563092214539325 -0.0
  outer loop
    vertex 321280.5361067546 1531178.0606394631 0.0
    vertex 317432.25549000886 1528857.0575294753 2500.0000000000005
    vertex 321280.5361067546 1531178.0606394631 2500.0000000000005
  endloop
endfacet
facet normal 0.7763506103949822 -0.6303013007596754 -0.0
  outer loop
    vertex 313261.8625435368 1520596.0615011223 0.0
    vertex 310685.13827020413 1517422.2754721066 4749.999999999996
    vertex 310685.13827020413 1517422.2754721066 0.0
  endloop
endfacet
facet normal 0.7763506103949822 -0.6303013007596754 -0.0
  outer loop
    vertex 310685.13827020413 1517422.2754721066 4749.999999999996
    vertex 313261.8625435368 1520596.0615011223 0.0
    vertex 313261.8625435368 1520596.0615011223 4749.999999999996
  endloop
endfacet
facet normal 0.3069211089559062 -0.9517349593648837 0.0
  outer loop
    vertex 330533.0447408493 1531012.7830413065 4749.999999999996
    vertex 326642.27286933456 1529758.0639561773 0.0
    vertex 330533.0447408493 1531012.7830413065 0.0
  endloop
endfacet
facet normal 0.3069211089559062 -0.9517349593648837 0.0
  outer loop
    vertex 326642.27286933456 1529758.0639561773 0.0
    vertex 330533.0447408493 1531012.7830413065 4749.999999999996
    vertex 326642.27286933456 1529758.0639561773 4749.999999999996
  endloop
endfacet
facet normal -0.4144478973779009 0.9100730412219873 -0.0
  outer loop
    vertex 321280.5361067546 1531178.0606394631 2500.0000000000005
    vertex 325370.4330232111 1533040.6025462553 0.0
    vertex 321280.5361067546 1531178.0606394631 0.0
  endloop
endfacet
facet normal -0.4144478973779009 0.9100730412219873 -0.0
  outer loop
    vertex 325370.4330232111 1533040.6025462553 0.0
    vertex 321280.5361067546 1531178.0606394631 2500.0000000000005
    vertex 325370.4330232111 1533040.6025462553 2500.0000000000005
  endloop
endfacet
facet normal -0.8437515218160502 0.5367339838626761 0.0
  outer loop
    vertex 307828.7493368801 1519479.865919966 2500.0000000000005
    vertex 305416.6499051575 1515688.020000986 0.0
    vertex 305416.6499051575 1515688.020000986 2500.0000000000005
  endloop
endfacet
facet normal -0.8437515218160502 0.5367339838626761 0.0
  outer loop
    vertex 305416.6499051575 1515688.020000986 0.0
    vertex 307828.7493368801 1519479.865919966 2500.0000000000005
    vertex 307828.7493368801 1519479.865919966 0.0
  endloop
endfacet
facet normal -0.6986260015473752 0.7154870438812481 -0.0
  outer loop
    vertex 310661.3432383041 1522968.81001975 2500.0000000000005
    vertex 313876.76455284486 1526108.4572788842 0.0
    vertex 310661.3432383041 1522968.81001975 0.0
  endloop
endfacet
facet normal -0.6986260015473752 0.7154870438812481 -0.0
  outer loop
    vertex 313876.76455284486 1526108.4572788842 0.0
    vertex 310661.3432383041 1522968.81001975 2500.0000000000005
    vertex 313876.76455284486 1526108.4572788842 2500.0000000000005
  endloop
endfacet
facet normal -0.14900573675415416 -0.9888363314595352 0.0
  outer loop
    vertex 346745.15074969217 1531393.9499748012 4749.999999999996
    vertex 342702.70537546533 1532003.097851059 0.0
    vertex 346745.15074969217 1531393.9499748012 0.0
  endloop
endfacet
facet normal -0.14900573675415416 -0.9888363314595352 0.0
  outer loop
    vertex 342702.70537546533 1532003.097851059 0.0
    vertex 346745.15074969217 1531393.9499748012 4749.999999999996
    vertex 342702.70537546533 1532003.097851059 4749.999999999996
  endloop
endfacet
facet normal 0.5164634713635952 -0.8563092214539472 0.0
  outer loop
    vertex 322921.818393045 1528063.766394173 4749.999999999996
    vertex 319421.1548949058 1525952.4206594452 0.0
    vertex 322921.818393045 1528063.766394173 0.0
  endloop
endfacet
facet normal 0.5164634713635952 -0.8563092214539472 0.0
  outer loop
    vertex 319421.1548949058 1525952.4206594452 0.0
    vertex 322921.818393045 1528063.766394173 4749.999999999996
    vertex 319421.1548949058 1525952.4206594452 4749.999999999996
  endloop
endfacet
facet normal 0.8999324569817936 -0.436029325700362 -0.0
  outer loop
    vertex 308490.9249901828 1513972.948897174 0.0
    vertex 306708.400749692 1510293.9499748014 4749.999999999996
    vertex 306708.400749692 1510293.9499748014 0.0
  endloop
endfacet
facet normal 0.8999324569817936 -0.436029325700362 -0.0
  outer loop
    vertex 306708.400749692 1510293.9499748014 4749.999999999996
    vertex 308490.9249901828 1513972.948897174 0.0
    vertex 308490.9249901828 1513972.948897174 4749.999999999996
  endloop
endfacet
facet normal 0.8437515218160498 -0.5367339838626766 -0.0
  outer loop
    vertex 310685.13827020413 1517422.2754721066 0.0
    vertex 308490.9249901828 1513972.948897174 4749.999999999996
    vertex 308490.9249901828 1513972.948897174 0.0
  endloop
endfacet
facet normal 0.8437515218160498 -0.5367339838626766 -0.0
  outer loop
    vertex 308490.9249901828 1513972.948897174 4749.999999999996
    vertex 310685.13827020413 1517422.2754721066 0.0
    vertex 310685.13827020413 1517422.2754721066 4749.999999999996
  endloop
endfacet
facet normal 1.0342846201896692e-16 -1.2009971009361343e-16 -1.0
  outer loop
    vertex 303545.6230221455 1511826.3581340841 0.0
    vertex 306708.400749692 1510293.9499748014 0.0
    vertex 302803.15074969217 1510293.9499748014 1.4438228390645235e-12
  endloop
endfacet
facet normal 1.0342846201896692e-16 -1.2009971009361343e-16 -1.0
  outer loop
    vertex 306708.400749692 1510293.9499748014 0.0
    vertex 303545.6230221455 1511826.3581340841 0.0
    vertex 305416.6499051575 1515688.020000986 0.0
  endloop
endfacet
facet normal 1.0342846201896692e-16 -1.2009971009361343e-16 -1.0
  outer loop
    vertex 306708.400749692 1510293.9499748014 0.0
    vertex 305416.6499051575 1515688.020000986 0.0
    vertex 307828.7493368801 1519479.865919966 0.0
  endloop
endfacet
facet normal 1.0342846201896692e-16 -1.2009971009361343e-16 -1.0
  outer loop
    vertex 306708.400749692 1510293.9499748014 0.0
    vertex 307828.7493368801 1519479.865919966 0.0
    vertex 308490.9249901828 1513972.948897174 0.0
  endloop
endfacet
facet normal 1.0342846201896692e-16 -1.2009971009361343e-16 -1.0
  outer loop
    vertex 308490.9249901828 1513972.948897174 0.0
    vertex 307828.7493368801 1519479.865919966 0.0
    vertex 310661.3432383041 1522968.81001975 0.0
  endloop
endfacet
facet normal 1.0342846201896692e-16 -1.2009971009361343e-16 -1.0
  outer loop
    vertex 308490.9249901828 1513972.948897174 0.0
    vertex 310661.3432383041 1522968.81001975 0.0
    vertex 310685.13827020413 1517422.2754721066 0.0
  endloop
endfacet
facet normal 1.0342846201896692e-16 -1.2009971009361343e-16 -1.0
  outer loop
    vertex 310685.13827020413 1517422.2754721066 0.0
    vertex 310661.3432383041 1522968.81001975 0.0
    vertex 313876.76455284486 1526108.4572788842 0.0
  endloop
endfacet
facet normal 1.0342846201896692e-16 -1.2009971009361343e-16 -1.0
  outer loop
    vertex 310685.13827020413 1517422.2754721066 0.0
    vertex 313876.76455284486 1526108.4572788842 0.0
    vertex 313261.8625435368 1520596.0615011223 0.0
  endloop
endfacet
facet normal 1.0342846201896692e-16 -1.2009971009361343e-16 -1.0
  outer loop
    vertex 313261.8625435368 1520596.0615011223 0.0
    vertex 313876.76455284486 1526108.4572788842 0.0
    vertex 316186.8332377142 1523452.1028483303 0.0
  endloop
endfacet
facet normal 1.0342846201896692e-16 -1.2009971009361343e-16 -1.0
  outer loop
    vertex 316186.8332377142 1523452.1028483303 0.0
    vertex 313876.76455284486 1526108.4572788842 0.0
    vertex 317432.25549000886 1528857.0575294753 0.0
  endloop
endfacet
facet normal 1.0342846201896692e-16 -1.2009971009361343e-16 -1.0
  outer loop
    vertex 316186.8332377142 1523452.1028483303 0.0
    vertex 317432.25549000886 1528857.0575294753 0.0
    vertex 319421.1548949058 1525952.4206594452 0.0
  endloop
endfacet
facet normal 1.0342846201896692e-16 -1.2009971009361343e-16 -1.0
  outer loop
    vertex 319421.1548949058 1525952.4206594452 0.0
    vertex 317432.25549000886 1528857.0575294753 0.0
    vertex 321280.5361067546 1531178.0606394631 0.0
  endloop
endfacet
facet normal 1.0342846201896692e-16 -1.2009971009361343e-16 -1.0
  outer loop
    vertex 319421.1548949058 1525952.4206594452 0.0
    vertex 321280.5361067546 1531178.0606394631 0.0
    vertex 322921.818393045 1528063.766394173 0.0
  endloop
endfacet
facet normal 1.0342846201896692e-16 -1.2009971009361343e-16 -1.0
  outer loop
    vertex 322921.818393045 1528063.766394173 0.0
    vertex 321280.5361067546 1531178.0606394631 0.0
    vertex 325370.4330232111 1533040.6025462553 0.0
  endloop
endfacet
facet normal 1.0342846201896692e-16 -1.2009971009361343e-16 -1.0
  outer loop
    vertex 322921.818393045 1528063.766394173 0.0
    vertex 325370.4330232111 1533040.6025462553 0.0
    vertex 326642.27286933456 1529758.0639561773 0.0
  endloop
endfacet
facet normal 1.0342846201896692e-16 -1.2009971009361343e-16 -1.0
  outer loop
    vertex 326642.27286933456 1529758.0639561773 0.0
    vertex 325370.4330232111 1533040.6025462553 0.0
    vertex 329647.55991223996 1534419.9156785603 0.0
  endloop
endfacet
facet normal 1.0342846201896692e-16 -1.2009971009361343e-16 -1.0
  outer loop
    vertex 326642.27286933456 1529758.0639561773 0.0
    vertex 329647.55991223996 1534419.9156785603 0.0
    vertex 330533.0447408493 1531012.7830413065 0.0
  endloop
endfacet
facet normal 1.0342846201896692e-16 -1.2009971009361343e-16 -1.0
  outer loop
    vertex 330533.0447408493 1531012.7830413065 0.0
    vertex 329647.55991223996 1534419.9156785603 0.0
    vertex 334055.0407138928 1535297.658308757 0.0
  endloop
endfacet
facet normal 1.0342846201896692e-16 -1.2009971009361343e-16 -1.0
  outer loop
    vertex 330533.0447408493 1531012.7830413065 0.0
    vertex 334055.0407138928 1535297.658308757 0.0
    vertex 334542.39559066837 1531811.2387393964 0.0
  endloop
endfacet
facet normal 1.0342846201896692e-16 -1.2009971009361343e-16 -1.0
  outer loop
    vertex 334542.39559066837 1531811.2387393964 0.0
    vertex 334055.0407138928 1535297.658308757 0.0
    vertex 338534.26595765364 1535662.158456156 0.0
  endloop
endfacet
facet normal 1.0342846201896692e-16 -1.2009971009361343e-16 -1.0
  outer loop
    vertex 334542.39559066837 1531811.2387393964 0.0
    vertex 338534.26595765364 1535662.158456156 0.0
    vertex 338617.01017114957 1532142.8134056288 0.0
  endloop
endfacet
facet normal 1.0342846201896692e-16 -1.2009971009361343e-16 -1.0
  outer loop
    vertex 338617.01017114957 1532142.8134056288 0.0
    vertex 338534.26595765364 1535662.158456156 0.0
    vertex 346745.15074969217 1533876.4499748007 9.023892744153272e-12
  endloop
endfacet
facet normal 1.0342846201896692e-16 -1.2009971009361343e-16 -1.0
  outer loop
    vertex 338617.01017114957 1532142.8134056288 0.0
    vertex 346745.15074969217 1533876.4499748007 9.023892744153272e-12
    vertex 342702.70537546533 1532003.097851059 0.0
  endloop
endfacet
facet normal 1.0342846201896692e-16 -1.2009971009361343e-16 -1.0
  outer loop
    vertex 342702.70537546533 1532003.097851059 0.0
    vertex 346745.15074969217 1533876.4499748007 9.023892744153272e-12
    vertex 346745.15074969217 1531393.9499748012 0.0
  endloop
endfacet
facet normal -0.03417629767108628 -0.9994158197054406 0.0
  outer loop
    vertex 342702.70537546533 1532003.097851059 4749.999999999996
    vertex 338617.01017114957 1532142.8134056288 0.0
    vertex 342702.70537546533 1532003.097851059 0.0
  endloop
endfacet
facet normal -0.03417629767108628 -0.9994158197054406 0.0
  outer loop
    vertex 338617.01017114957 1532142.8134056288 0.0
    vertex 342702.70537546533 1532003.097851059 4749.999999999996
    vertex 338617.01017114957 1532142.8134056288 4749.999999999996
  endloop
endfacet
facet normal 0.08110760844229274 -0.9967053505689492 0.0
  outer loop
    vertex 338617.01017114957 1532142.8134056288 4749.999999999996
    vertex 334542.39559066837 1531811.2387393964 0.0
    vertex 338617.01017114957 1532142.8134056288 0.0
  endloop
endfacet
facet normal 0.08110760844229274 -0.9967053505689492 0.0
  outer loop
    vertex 334542.39559066837 1531811.2387393964 0.0
    vertex 338617.01017114957 1532142.8134056288 4749.999999999996
    vertex 334542.39559066837 1531811.2387393964 4749.999999999996
  endloop
endfacet
facet normal 0.2125129995250446 0.9771582395051831 -3.925771984876941e-18
  outer loop
    vertex 338534.26595765364 1535662.158456156 2500.0000000000005
    vertex 346745.15074969217 1533876.4499748007 9.023892744153272e-12
    vertex 338534.26595765364 1535662.158456156 0.0
  endloop
endfacet
facet normal 0.2125129995250446 0.9771582395051831 -3.925771984876941e-18
  outer loop
    vertex 346745.15074969217 1533876.4499748007 9.023892744153272e-12
    vertex 338534.26595765364 1535662.158456156 2500.0000000000005
    vertex 346745.15074969217 1533876.4499748007 2500.0000000000077
  endloop
endfacet
facet normal -0.7763506103949802 0.6303013007596777 0.0
  outer loop
    vertex 310661.3432383041 1522968.81001975 2500.0000000000005
    vertex 307828.7493368801 1519479.865919966 0.0
    vertex 307828.7493368801 1519479.865919966 2500.0000000000005
  endloop
endfacet
facet normal -0.7763506103949802 0.6303013007596777 0.0
  outer loop
    vertex 307828.7493368801 1519479.865919966 0.0
    vertex 310661.3432383041 1522968.81001975 2500.0000000000005
    vertex 310661.3432383041 1522968.81001975 0.0
  endloop
endfacet
facet normal -0.08110760844229355 0.9967053505689492 -0.0
  outer loop
    vertex 334055.0407138928 1535297.658308757 2500.0000000000005
    vertex 338534.26595765364 1535662.158456156 0.0
    vertex 334055.0407138928 1535297.658308757 0.0
  endloop
endfacet
facet normal -0.08110760844229355 0.9967053505689492 -0.0
  outer loop
    vertex 338534.26595765364 1535662.158456156 0.0
    vertex 334055.0407138928 1535297.658308757 2500.0000000000005
    vertex 338534.26595765364 1535662.158456156 2500.0000000000005
  endloop
endfacet
facet normal -0.8999324569817959 0.4360293257003573 2.025019573268436e-18
  outer loop
    vertex 303545.6230221455 1511826.3581340841 2500.0000000000005
    vertex 302803.15074969217 1510293.9499748014 1.4438228390645235e-12
    vertex 302803.15074969217 1510293.9499748014 2500.0000000000005
  endloop
endfacet
facet normal -0.8999324569817959 0.4360293257003573 2.025019573268436e-18
  outer loop
    vertex 302803.15074969217 1510293.9499748014 1.4438228390645235e-12
    vertex 303545.6230221455 1511826.3581340841 2500.0000000000005
    vertex 303545.6230221455 1511826.3581340841 0.0
  endloop
endfacet
facet normal -0.8999324569817959 0.4360293257003573 2.025019573268436e-18
  outer loop
    vertex 303545.6230221455 1511826.3581340841 0.0
    vertex 303545.6230221455 1511826.3581340841 2500.0000000000005
    vertex 305416.6499051575 1515688.020000986 2500.0000000000005
  endloop
endfacet
facet normal -0.8999324569817959 0.4360293257003573 2.025019573268436e-18
  outer loop
    vertex 303545.6230221455 1511826.3581340841 0.0
    vertex 305416.6499051575 1515688.020000986 2500.0000000000005
    vertex 305416.6499051575 1515688.020000986 0.0
  endloop
endfacet
facet normal -0.30692110895589353 0.951734959364888 -0.0
  outer loop
    vertex 325370.4330232111 1533040.6025462553 2500.0000000000005
    vertex 329647.55991223996 1534419.9156785603 0.0
    vertex 325370.4330232111 1533040.6025462553 0.0
  endloop
endfacet
facet normal -0.30692110895589353 0.951734959364888 -0.0
  outer loop
    vertex 329647.55991223996 1534419.9156785603 0.0
    vertex 325370.4330232111 1533040.6025462553 2500.0000000000005
    vertex 329647.55991223996 1534419.9156785603 2500.0000000000005
  endloop
endfacet
facet normal 0.6116112557980451 -0.7911584365859589 0.0
  outer loop
    vertex 319421.1548949058 1525952.4206594452 4749.999999999996
    vertex 316186.8332377142 1523452.1028483303 0.0
    vertex 319421.1548949058 1525952.4206594452 0.0
  endloop
endfacet
facet normal 0.6116112557980451 -0.7911584365859589 0.0
  outer loop
    vertex 316186.8332377142 1523452.1028483303 0.0
    vertex 319421.1548949058 1525952.4206594452 4749.999999999996
    vertex 316186.8332377142 1523452.1028483303 4749.999999999996
  endloop
endfacet
facet normal 0.414447897377906 -0.9100730412219851 0.0
  outer loop
    vertex 326642.27286933456 1529758.0639561773 4749.999999999996
    vertex 322921.818393045 1528063.766394173 0.0
    vertex 326642.27286933456 1529758.0639561773 0.0
  endloop
endfacet
facet normal 0.414447897377906 -0.9100730412219851 0.0
  outer loop
    vertex 322921.818393045 1528063.766394173 0.0
    vertex 326642.27286933456 1529758.0639561773 4749.999999999996
    vertex 322921.818393045 1528063.766394173 4749.999999999996
  endloop
endfacet
facet normal 0.1953129678303165 -0.9807409671250172 0.0
  outer loop
    vertex 334542.39559066837 1531811.2387393964 4749.999999999996
    vertex 330533.0447408493 1531012.7830413065 0.0
    vertex 334542.39559066837 1531811.2387393964 0.0
  endloop
endfacet
facet normal 0.1953129678303165 -0.9807409671250172 0.0
  outer loop
    vertex 330533.0447408493 1531012.7830413065 0.0
    vertex 334542.39559066837 1531811.2387393964 4749.999999999996
    vertex 330533.0447408493 1531012.7830413065 4749.999999999996
  endloop
endfacet
facet normal -0.6116112557980437 0.7911584365859597 -0.0
  outer loop
    vertex 313876.76455284486 1526108.4572788842 2500.0000000000005
    vertex 317432.25549000886 1528857.0575294753 0.0
    vertex 313876.76455284486 1526108.4572788842 0.0
  endloop
endfacet
facet normal -0.6116112557980437 0.7911584365859597 -0.0
  outer loop
    vertex 317432.25549000886 1528857.0575294753 0.0
    vertex 313876.76455284486 1526108.4572788842 2500.0000000000005
    vertex 317432.25549000886 1528857.0575294753 2500.0000000000005
  endloop
endfacet
endsolid PlexiglassBeaconEdges
