solid PlexiglassBeaconEdges
facet normal 1.6653345369377348e-16 0.0 -1.0
  outer loop
    vertex 898623.8029996464 1517545.7524389066 0.0
    vertex 891623.8029996465 1391445.7524389068 -6.930349627509712e-11
    vertex 891623.8029996465 1517545.7524389066 -6.930349627509712e-11
  endloop
endfacet
facet normal 1.6653345369377348e-16 0.0 -1.0
  outer loop
    vertex 891623.8029996465 1391445.7524389068 -6.930349627509712e-11
    vertex 898623.8029996464 1517545.7524389066 0.0
    vertex 898623.8029996464 1391445.7524389068 0.0
  endloop
endfacet
facet normal 0.0 -1.0 0.0
  outer loop
    vertex 898623.8029996473 1385963.252438908 6905.2499999992715
    vertex 896373.8029996463 1385963.252438908 9.24046617001295e-11
    vertex 898623.8029996464 1385963.252438908 0.0
  endloop
endfacet
facet normal 0.0 -1.0 0.0
  outer loop
    vertex 896373.8029996463 1385963.252438908 9.24046617001295e-11
    vertex 898623.8029996473 1385963.252438908 6905.2499999992715
    vertex 896373.8029996466 1385963.252438908 6905.249999999202
  endloop
endfacet
facet normal -1.6653345369377348e-16 0.0 1.0
  outer loop
    vertex 898623.8029996473 1385963.252438908 6905.2499999992715
    vertex 896373.8029996466 1517545.7524389066 6905.249999999202
    vertex 896373.8029996466 1385963.252438908 6905.249999999202
  endloop
endfacet
facet normal -1.6653345369377348e-16 0.0 1.0
  outer loop
    vertex 896373.8029996466 1517545.7524389066 6905.249999999202
    vertex 898623.8029996473 1385963.252438908 6905.2499999992715
    vertex 898623.8029996473 1517545.7524389066 6905.2499999992715
  endloop
endfacet
facet normal 1.0 1.6178213704322282e-17 1.3322676295501878e-15
  outer loop
    vertex 898623.8029996464 1388963.2524389075 0.0
    vertex 898623.8029996473 1385963.252438908 6905.2499999992715
    vertex 898623.8029996464 1385963.252438908 0.0
  endloop
endfacet
facet normal 1.0 1.6178213704322282e-17 1.3322676295501878e-15
  outer loop
    vertex 898623.8029996473 1385963.252438908 6905.2499999992715
    vertex 898623.8029996464 1388963.2524389075 0.0
    vertex 898623.8029996469 1388963.2524389075 3905.2499999994916
  endloop
endfacet
facet normal 1.0 1.6178213704322282e-17 1.3322676295501878e-15
  outer loop
    vertex 898623.8029996473 1385963.252438908 6905.2499999992715
    vertex 898623.8029996469 1388963.2524389075 3905.2499999994916
    vertex 898623.8029996473 1517545.7524389066 6905.2499999992715
  endloop
endfacet
facet normal 1.0 1.6178213704322282e-17 1.3322676295501878e-15
  outer loop
    vertex 898623.8029996473 1517545.7524389066 6905.2499999992715
    vertex 898623.8029996469 1388963.2524389075 3905.2499999994916
    vertex 898623.8029996469 1517545.7524389066 3905.2499999994916
  endloop
endfacet
facet normal 0.0 1.0 0.0
  outer loop
    vertex 898623.8029996469 1517545.7524389066 3905.2499999994916
    vertex 896373.8029996466 1517545.7524389066 3905.2499999997917
    vertex 898623.8029996473 1517545.7524389066 6905.2499999992715
  endloop
endfacet
facet normal 0.0 1.0 0.0
  outer loop
    vertex 896373.8029996466 1517545.7524389066 3905.2499999997917
    vertex 898623.8029996469 1517545.7524389066 3905.2499999994916
    vertex 893873.8029996464 1517545.7524389066 3905.2499999996303
  endloop
endfacet
facet normal 0.0 1.0 0.0
  outer loop
    vertex 898623.8029996473 1517545.7524389066 6905.2499999992715
    vertex 896373.8029996466 1517545.7524389066 3905.2499999997917
    vertex 896373.8029996466 1517545.7524389066 6905.249999999202
  endloop
endfacet
facet normal 0.0 1.0 0.0
  outer loop
    vertex 891623.8029996465 1517545.7524389066 -6.930349627509712e-11
    vertex 893873.8029996464 1517545.7524389066 3905.2499999996303
    vertex 898623.8029996464 1517545.7524389066 0.0
  endloop
endfacet
facet normal 0.0 1.0 0.0
  outer loop
    vertex 893873.8029996464 1517545.7524389066 3905.2499999996303
    vertex 891623.8029996465 1517545.7524389066 -6.930349627509712e-11
    vertex 891623.8029996469 1517545.7524389066 6905.249999999549
  endloop
endfacet
facet normal 0.0 1.0 0.0
  outer loop
    vertex 898623.8029996464 1517545.7524389066 0.0
    vertex 893873.8029996464 1517545.7524389066 3905.2499999996303
    vertex 898623.8029996469 1517545.7524389066 3905.2499999994916
  endloop
endfacet
facet normal 0.0 1.0 0.0
  outer loop
    vertex 893873.8029996464 1517545.7524389066 3905.2499999996303
    vertex 891623.8029996469 1517545.7524389066 6905.249999999549
    vertex 893873.8029996469 1517545.7524389066 6905.249999999641
  endloop
endfacet
facet normal -4.106873853339273e-14 -1.0 -4.0145394460794185e-14
  outer loop
    vertex 893873.8029996464 1385963.2524389077 6.930349627509712e-11
    vertex 891623.8029996469 1385963.2524389075 6905.249999999549
    vertex 891623.8029996465 1385963.252438908 -6.930349627509712e-11
  endloop
endfacet
facet normal -4.106873853339273e-14 -1.0 -4.0145394460794185e-14
  outer loop
    vertex 891623.8029996469 1385963.2524389075 6905.249999999549
    vertex 893873.8029996464 1385963.2524389077 6.930349627509712e-11
    vertex 893873.8029996469 1385963.2524389075 6905.249999999641
  endloop
endfacet
facet normal -1.0 -3.9956380588773647e-32 3.558264793923627e-14
  outer loop
    vertex 891623.8029996469 1517545.7524389066 6905.249999999549
    vertex 891623.8029996465 1385963.252438908 -6.930349627509712e-11
    vertex 891623.8029996469 1385963.2524389075 6905.249999999549
  endloop
endfacet
facet normal -1.0 -3.9956380588773647e-32 3.558264793923627e-14
  outer loop
    vertex 891623.8029996465 1385963.252438908 -6.930349627509712e-11
    vertex 891623.8029996469 1517545.7524389066 6905.249999999549
    vertex 891623.8029996465 1391445.7524389068 -6.930349627509712e-11
  endloop
endfacet
facet normal -1.0 -3.9956380588773647e-32 3.558264793923627e-14
  outer loop
    vertex 891623.8029996465 1391445.7524389068 -6.930349627509712e-11
    vertex 891623.8029996469 1517545.7524389066 6905.249999999549
    vertex 891623.8029996465 1517545.7524389066 -6.930349627509712e-11
  endloop
endfacet
facet normal 1.6653345369377348e-16 0.0 -1.0
  outer loop
    vertex 891623.8029996465 1391445.7524389068 -6.930349627509712e-11
    vertex 893873.8029996463 1388963.2524389075 -2.3101165425032376e-11
    vertex 891623.8029996465 1385963.252438908 -6.930349627509712e-11
  endloop
endfacet
facet normal 1.6653345369377348e-16 0.0 -1.0
  outer loop
    vertex 893873.8029996463 1388963.2524389075 -2.3101165425032376e-11
    vertex 891623.8029996465 1391445.7524389068 -6.930349627509712e-11
    vertex 898623.8029996464 1391445.7524389068 0.0
  endloop
endfacet
facet normal 1.6653345369377348e-16 0.0 -1.0
  outer loop
    vertex 893873.8029996463 1388963.2524389075 -2.3101165425032376e-11
    vertex 898623.8029996464 1391445.7524389068 0.0
    vertex 896373.8029996463 1388963.2524389075 9.24046617001295e-11
  endloop
endfacet
facet normal 1.6653345369377348e-16 0.0 -1.0
  outer loop
    vertex 896373.8029996463 1388963.2524389075 9.24046617001295e-11
    vertex 898623.8029996464 1391445.7524389068 0.0
    vertex 896373.8029996463 1385963.252438908 9.24046617001295e-11
  endloop
endfacet
facet normal 1.6653345369377348e-16 0.0 -1.0
  outer loop
    vertex 896373.8029996463 1385963.252438908 9.24046617001295e-11
    vertex 898623.8029996464 1391445.7524389068 0.0
    vertex 898623.8029996464 1385963.252438908 0.0
  endloop
endfacet
facet normal 1.6653345369377348e-16 0.0 -1.0
  outer loop
    vertex 898623.8029996464 1385963.252438908 0.0
    vertex 898623.8029996464 1391445.7524389068 0.0
    vertex 898623.8029996464 1388963.2524389075 0.0
  endloop
endfacet
facet normal 1.6653345369377348e-16 0.0 -1.0
  outer loop
    vertex 893873.8029996464 1385963.2524389077 6.930349627509712e-11
    vertex 891623.8029996465 1385963.252438908 -6.930349627509712e-11
    vertex 893873.8029996463 1388963.2524389075 -2.3101165425032376e-11
  endloop
endfacet
facet normal 1.0 -4.718640498694031e-15 -5.245803791353865e-15
  outer loop
    vertex 898623.8029996464 1391445.7524389068 0.0
    vertex 898623.8029996469 1388963.2524389075 3905.2499999994916
    vertex 898623.8029996464 1388963.2524389075 0.0
  endloop
endfacet
facet normal 1.0 1.1228766271184122e-16 -8.174017018802715e-14
  outer loop
    vertex 893873.8029996464 1517545.7524389066 3905.2499999996303
    vertex 893873.8029996469 1388963.2524389075 6905.249999999641
    vertex 893873.8029996464 1388963.2524389075 3905.249999999538
  endloop
endfacet
facet normal 1.0 1.1228766271184122e-16 -8.174017018802715e-14
  outer loop
    vertex 893873.8029996469 1388963.2524389075 6905.249999999641
    vertex 893873.8029996464 1517545.7524389066 3905.2499999996303
    vertex 893873.8029996469 1517545.7524389066 6905.249999999641
  endloop
endfacet
facet normal -1.6653345369377348e-16 0.0 1.0
  outer loop
    vertex 896373.8029996466 1388963.2524389075 3905.2499999997917
    vertex 893873.8029996464 1517545.7524389066 3905.2499999996303
    vertex 893873.8029996464 1388963.2524389075 3905.249999999538
  endloop
endfacet
facet normal -1.6653345369377348e-16 0.0 1.0
  outer loop
    vertex 893873.8029996464 1517545.7524389066 3905.2499999996303
    vertex 896373.8029996466 1388963.2524389075 3905.2499999997917
    vertex 896373.8029996466 1517545.7524389066 3905.2499999997917
  endloop
endfacet
facet normal 0.0 -1.0 0.0
  outer loop
    vertex 896373.8029996463 1388963.2524389075 9.24046617001295e-11
    vertex 893873.8029996464 1388963.2524389075 3905.249999999538
    vertex 893873.8029996463 1388963.2524389075 -2.3101165425032376e-11
  endloop
endfacet
facet normal 0.0 -1.0 0.0
  outer loop
    vertex 893873.8029996464 1388963.2524389075 3905.249999999538
    vertex 896373.8029996463 1388963.2524389075 9.24046617001295e-11
    vertex 896373.8029996466 1388963.2524389075 3905.2499999997917
  endloop
endfacet
facet normal 8.179568133925841e-14 5.21492920398052e-30 1.0
  outer loop
    vertex 893873.8029996469 1385963.2524389075 6905.249999999641
    vertex 891623.8029996469 1517545.7524389066 6905.249999999549
    vertex 891623.8029996469 1385963.2524389075 6905.249999999549
  endloop
endfacet
facet normal 8.179568133925841e-14 5.21492920398052e-30 1.0
  outer loop
    vertex 891623.8029996469 1517545.7524389066 6905.249999999549
    vertex 893873.8029996469 1385963.2524389075 6905.249999999641
    vertex 893873.8029996469 1517545.7524389066 6905.249999999641
  endloop
endfacet
facet normal 8.179568133925841e-14 5.21492920398052e-30 1.0
  outer loop
    vertex 893873.8029996469 1517545.7524389066 6905.249999999641
    vertex 893873.8029996469 1385963.2524389075 6905.249999999641
    vertex 893873.8029996469 1388963.2524389075 6905.249999999641
  endloop
endfacet
facet normal -1.0 -1.2664846058441755e-16 -2.7755575615628914e-16
  outer loop
    vertex 896373.8029996463 1388963.2524389075 9.24046617001295e-11
    vertex 896373.8029996463 1385963.252438908 9.24046617001295e-11
    vertex 896373.8029996466 1388963.2524389075 3905.2499999997917
  endloop
endfacet
facet normal -1.0 -1.2664846058441755e-16 -2.7755575615628914e-16
  outer loop
    vertex 896373.8029996466 1385963.252438908 6905.249999999202
    vertex 896373.8029996466 1388963.2524389075 3905.2499999997917
    vertex 896373.8029996463 1385963.252438908 9.24046617001295e-11
  endloop
endfacet
facet normal -1.0 -1.2664846058441755e-16 -2.7755575615628914e-16
  outer loop
    vertex 896373.8029996466 1388963.2524389075 3905.2499999997917
    vertex 896373.8029996466 1385963.252438908 6905.249999999202
    vertex 896373.8029996466 1517545.7524389066 6905.249999999202
  endloop
endfacet
facet normal -1.0 -1.2664846058441755e-16 -2.7755575615628914e-16
  outer loop
    vertex 896373.8029996466 1388963.2524389075 3905.2499999997917
    vertex 896373.8029996466 1517545.7524389066 6905.249999999202
    vertex 896373.8029996466 1517545.7524389066 3905.2499999997917
  endloop
endfacet
facet normal 1.0 5.450039388079157e-14 -1.7180701306074294e-14
  outer loop
    vertex 893873.8029996464 1385963.2524389077 6.930349627509712e-11
    vertex 893873.8029996469 1388963.2524389075 6905.249999999641
    vertex 893873.8029996469 1385963.2524389075 6905.249999999641
  endloop
endfacet
facet normal 1.0 5.450039388079157e-14 -1.7180701306074294e-14
  outer loop
    vertex 893873.8029996469 1388963.2524389075 6905.249999999641
    vertex 893873.8029996464 1385963.2524389077 6.930349627509712e-11
    vertex 893873.8029996463 1388963.2524389075 -2.3101165425032376e-11
  endloop
endfacet
facet normal 1.0 5.450039388079157e-14 -1.7180701306074294e-14
  outer loop
    vertex 893873.8029996469 1388963.2524389075 6905.249999999641
    vertex 893873.8029996463 1388963.2524389075 -2.3101165425032376e-11
    vertex 893873.8029996464 1388963.2524389075 3905.249999999538
  endloop
endfacet
facet normal 1.0 8.44264092737813e-17 4.440892098500627e-16
  outer loop
    vertex 898623.8029996464 1391445.7524389068 0.0
    vertex 898623.8029996469 1517545.7524389066 3905.2499999994916
    vertex 898623.8029996469 1388963.2524389075 3905.2499999994916
  endloop
endfacet
facet normal 1.0 8.44264092737813e-17 4.440892098500627e-16
  outer loop
    vertex 898623.8029996469 1517545.7524389066 3905.2499999994916
    vertex 898623.8029996464 1391445.7524389068 0.0
    vertex 898623.8029996464 1517545.7524389066 0.0
  endloop
endfacet
endsolid PlexiglassBeaconEdges
