solid PlexiglassBeaconEdges
facet normal 0.6060827606864997 -0.7954015886322022 9.807432643782477e-14
  outer loop
    vertex 1801433.1409311956 1329577.1609655363 52192.50000000135
    vertex 1797111.6882783 1326284.2860310685 49942.50000000109
    vertex 1801433.1409311956 1329577.1609655363 49942.50000000107
  endloop
endfacet
facet normal 0.6060827606864997 -0.7954015886322022 9.807432643782477e-14
  outer loop
    vertex 1797111.6882783 1326284.2860310685 49942.50000000109
    vertex 1801433.1409311956 1329577.1609655363 52192.50000000135
    vertex 1797111.6882783 1326284.2860310685 52192.50000000114
  endloop
endfacet
facet normal 0.9021265245913173 -0.4314715907551639 -3.5589586833140174e-14
  outer loop
    vertex 1811670.5961979756 1342162.1822622642 49942.50000000127
    vertex 1814014.800782385 1347063.4762987115 52192.50000000098
    vertex 1811670.5961979756 1342162.182262264 52192.50000000151
  endloop
endfacet
facet normal 0.9021265245913173 -0.4314715907551639 -3.5589586833140174e-14
  outer loop
    vertex 1814014.800782385 1347063.4762987115 52192.50000000098
    vertex 1811670.5961979756 1342162.1822622642 49942.50000000127
    vertex 1814014.800782385 1347063.47629871 49942.500000001644
  endloop
endfacet
facet normal 0.9467733060730141 -0.3219010824889766 -1.6877471642473552e-13
  outer loop
    vertex 1815763.7038607455 1352207.338309668 49942.50000000137
    vertex 1814014.800782385 1347063.4762987115 52192.50000000098
    vertex 1814014.800782385 1347063.47629871 49942.500000001644
  endloop
endfacet
facet normal 0.9467733060730141 -0.3219010824889766 -1.6877471642473552e-13
  outer loop
    vertex 1814014.800782385 1347063.4762987115 52192.50000000098
    vertex 1815763.7038607455 1352207.338309668 49942.50000000137
    vertex 1815763.7038607462 1352207.338309668 52192.50000000098
  endloop
endfacet
facet normal -0.7578481866645714 -0.6524309357849466 -9.353628982466944e-15
  outer loop
    vertex 1536018.4934898284 1343613.5520407818 52192.500000001586
    vertex 1539151.1768405635 1339974.7019088638 49942.50000000109
    vertex 1539151.176840564 1339974.701908863 52192.5000000014
  endloop
endfacet
facet normal -0.7578481866645714 -0.6524309357849466 -9.353628982466944e-15
  outer loop
    vertex 1539151.1768405635 1339974.7019088638 49942.50000000109
    vertex 1536018.4934898284 1343613.5520407818 52192.500000001586
    vertex 1536018.493489828 1343613.552040783 49942.50000000109
  endloop
endfacet
facet normal -0.7993133192798211 -0.6009144844500547 -5.273559366969494e-16
  outer loop
    vertex 1533133.1692395494 1347451.4993084369 52192.50000000119
    vertex 1536018.493489828 1343613.552040783 49942.50000000109
    vertex 1536018.4934898284 1343613.5520407818 52192.500000001586
  endloop
endfacet
facet normal -0.7993133192798211 -0.6009144844500547 -5.273559366969494e-16
  outer loop
    vertex 1536018.493489828 1343613.552040783 49942.50000000109
    vertex 1533133.1692395494 1347451.4993084369 52192.50000000119
    vertex 1533133.1692395494 1347451.4993084369 49942.50000000162
  endloop
endfacet
facet normal -0.6143639688593349 -0.7890227587132113 -1.249000902703301e-16
  outer loop
    vertex 1549891.3348710546 1330407.1052103126 49942.50000000143
    vertex 1546102.798301129 1333357.007906483 52192.50000000167
    vertex 1546102.798301129 1333357.007906483 49942.50000000104
  endloop
endfacet
facet normal -0.6143639688593349 -0.7890227587132113 -1.249000902703301e-16
  outer loop
    vertex 1546102.798301129 1333357.007906483 52192.50000000167
    vertex 1549891.3348710546 1330407.1052103126 49942.50000000143
    vertex 1549891.3348710546 1330407.1052103129 52192.50000000133
  endloop
endfacet
facet normal 0.17664808841217952 -0.9842740740567756 4.010680676458378e-14
  outer loop
    vertex 1782261.4573887018 1319752.908388941 52192.50000000163
    vertex 1776913.852016397 1318793.1713690402 49942.50000000172
    vertex 1782261.4573887018 1319752.908388941 49942.50000000123
  endloop
endfacet
facet normal 0.17664808841217952 -0.9842740740567756 4.010680676458378e-14
  outer loop
    vertex 1776913.852016397 1318793.1713690402 49942.50000000172
    vertex 1782261.4573887018 1319752.908388941 52192.50000000163
    vertex 1776913.852016397 1318793.1713690409 52192.50000000128
  endloop
endfacet
facet normal -0.4467690083132801 -0.8946493465099992 -1.3877787807814457e-16
  outer loop
    vertex 1562306.7985703773 1323144.4498944622 52192.50000000133
    vertex 1558011.0900764412 1325289.6360853703 49942.500000001484
    vertex 1562306.7985703773 1323144.449894462 49942.500000001295
  endloop
endfacet
facet normal -0.4467690083132801 -0.8946493465099992 -1.3877787807814457e-16
  outer loop
    vertex 1558011.0900764412 1325289.6360853703 49942.500000001484
    vertex 1562306.7985703773 1323144.4498944622 52192.50000000133
    vertex 1558011.0900764412 1325289.6360853708 52192.50000000165
  endloop
endfacet
facet normal 0.9781661783347669 -0.20782427086833957 -1.6063539387545234e-13
  outer loop
    vertex 1816892.822483987 1357521.7592094387 49942.500000001324
    vertex 1815763.7038607462 1352207.338309668 52192.50000000098
    vertex 1815763.7038607455 1352207.338309668 49942.50000000137
  endloop
endfacet
facet normal 0.9781661783347669 -0.20782427086833957 -1.6063539387545234e-13
  outer loop
    vertex 1815763.7038607462 1352207.338309668 52192.50000000098
    vertex 1816892.822483987 1357521.7592094387 49942.500000001324
    vertex 1816892.822483987 1357521.7592094385 52192.50000000135
  endloop
endfacet
facet normal 1.0 0.0 0.0
  outer loop
    vertex 1816892.822483987 1357521.7592094387 49942.500000001324
    vertex 1816892.822483987 1363664.2592094394 52192.50000000089
    vertex 1816892.822483987 1357521.7592094385 52192.50000000135
  endloop
endfacet
facet normal 1.0 0.0 0.0
  outer loop
    vertex 1816892.822483987 1363664.2592094394 52192.50000000089
    vertex 1816892.822483987 1357521.7592094387 49942.500000001324
    vertex 1816892.822483987 1363664.2592094392 49942.50000000109
  endloop
endfacet
facet normal 0.29166452348274735 -0.9565206771113638 3.048949981376836e-14
  outer loop
    vertex 1787458.277305494 1321337.5348804812 49942.50000000143
    vertex 1782261.4573887018 1319752.908388941 52192.50000000163
    vertex 1782261.4573887018 1319752.908388941 49942.50000000123
  endloop
endfacet
facet normal 0.29166452348274735 -0.9565206771113638 3.048949981376836e-14
  outer loop
    vertex 1782261.4573887018 1319752.908388941 52192.50000000163
    vertex 1787458.277305494 1321337.5348804812 49942.50000000143
    vertex 1787458.277305495 1321337.534880481 52192.50000000179
  endloop
endfacet
facet normal 0.6957855789597334 -0.718249558379028 2.943478794037447e-14
  outer loop
    vertex 1805335.423129092 1333357.3953515554 49942.500000001186
    vertex 1801433.1409311956 1329577.1609655363 52192.50000000135
    vertex 1801433.1409311956 1329577.1609655363 49942.50000000107
  endloop
endfacet
facet normal 0.6957855789597334 -0.718249558379028 2.943478794037447e-14
  outer loop
    vertex 1801433.1409311956 1329577.1609655363 52192.50000000135
    vertex 1805335.423129092 1333357.3953515554 49942.500000001186
    vertex 1805335.423129092 1333357.3953515552 52192.50000000135
  endloop
endfacet
facet normal -0.5608702800738311 -0.8279036954440426 -4.163336342344337e-17
  outer loop
    vertex 1553866.5604167434 1327714.0554299615 49942.5000000016
    vertex 1549891.3348710546 1330407.1052103129 52192.50000000133
    vertex 1549891.3348710546 1330407.1052103126 49942.50000000143
  endloop
endfacet
facet normal -0.5608702800738311 -0.8279036954440426 -4.163336342344337e-17
  outer loop
    vertex 1549891.3348710546 1330407.1052103129 52192.50000000133
    vertex 1553866.5604167434 1327714.0554299615 49942.5000000016
    vertex 1553866.5604167434 1327714.0554299615 52192.500000002416
  endloop
endfacet
facet normal 0.0 -1.6653345369377343e-16 -1.0
  outer loop
    vertex 1547430.5724839864 1358329.2592094387 49942.50000000104
    vertex 1530507.8224839868 1351471.7592094385 49942.500000000815
    vertex 1530507.8224839868 1358329.2592094387 49942.50000000104
  endloop
endfacet
facet normal 0.0 -1.6653345369377343e-16 -1.0
  outer loop
    vertex 1530507.8224839868 1351471.7592094385 49942.500000000815
    vertex 1547430.5724839864 1358329.2592094387 49942.50000000104
    vertex 1533133.1692395494 1347451.4993084369 49942.50000000162
  endloop
endfacet
facet normal 0.0 -1.6653345369377343e-16 -1.0
  outer loop
    vertex 1533133.1692395494 1347451.4993084369 49942.50000000162
    vertex 1547430.5724839864 1358329.2592094387 49942.50000000104
    vertex 1536018.493489828 1343613.552040783 49942.50000000109
  endloop
endfacet
facet normal 0.0 -1.6653345369377343e-16 -1.0
  outer loop
    vertex 1536018.493489828 1343613.552040783 49942.50000000109
    vertex 1547430.5724839864 1358329.2592094387 49942.50000000104
    vertex 1539151.1768405635 1339974.7019088638 49942.50000000109
  endloop
endfacet
facet normal 0.0 -1.6653345369377343e-16 -1.0
  outer loop
    vertex 1539151.1768405635 1339974.7019088638 49942.50000000109
    vertex 1547430.5724839864 1358329.2592094387 49942.50000000104
    vertex 1542517.5191214522 1336550.8627031704 49942.5000000009
  endloop
endfacet
facet normal 0.0 -1.6653345369377343e-16 -1.0
  outer loop
    vertex 1542517.5191214522 1336550.8627031704 49942.5000000009
    vertex 1547430.5724839864 1358329.2592094387 49942.50000000104
    vertex 1546102.798301129 1333357.007906483 49942.50000000104
  endloop
endfacet
facet normal 0.0 -1.6653345369377343e-16 -1.0
  outer loop
    vertex 1546102.798301129 1333357.007906483 49942.50000000104
    vertex 1547430.5724839864 1358329.2592094387 49942.50000000104
    vertex 1549891.3348710546 1330407.1052103126 49942.50000000143
  endloop
endfacet
facet normal 0.0 -1.6653345369377343e-16 -1.0
  outer loop
    vertex 1549891.3348710546 1330407.1052103126 49942.50000000143
    vertex 1547430.5724839864 1358329.2592094387 49942.50000000104
    vertex 1549745.6509866193 1354784.120933101 49942.50000000155
  endloop
endfacet
facet normal 0.0 -1.6653345369377343e-16 -1.0
  outer loop
    vertex 1549891.3348710546 1330407.1052103126 49942.50000000143
    vertex 1549745.6509866193 1354784.120933101 49942.50000000155
    vertex 1552289.9823709559 1351399.7492516239 49942.50000000137
  endloop
endfacet
facet normal 0.0 -1.6653345369377343e-16 -1.0
  outer loop
    vertex 1549891.3348710546 1330407.1052103126 49942.50000000143
    vertex 1552289.9823709559 1351399.7492516239 49942.50000000137
    vertex 1553866.5604167434 1327714.0554299615 49942.5000000016
  endloop
endfacet
facet normal 0.0 -1.6653345369377343e-16 -1.0
  outer loop
    vertex 1553866.5604167434 1327714.0554299615 49942.5000000016
    vertex 1552289.9823709559 1351399.7492516239 49942.50000000137
    vertex 1555052.4395075133 1348190.945044387 49942.50000000146
  endloop
endfacet
facet normal 0.0 -1.6653345369377343e-16 -1.0
  outer loop
    vertex 1553866.5604167434 1327714.0554299615 49942.5000000016
    vertex 1555052.4395075133 1348190.945044387 49942.50000000146
    vertex 1558011.0900764412 1325289.6360853703 49942.500000001484
  endloop
endfacet
facet normal 0.0 -1.6653345369377343e-16 -1.0
  outer loop
    vertex 1558011.0900764412 1325289.6360853703 49942.500000001484
    vertex 1555052.4395075133 1348190.945044387 49942.50000000146
    vertex 1558020.9413370243 1345171.741381184 49942.50000000158
  endloop
endfacet
facet normal 0.0 -1.6653345369377343e-16 -1.0
  outer loop
    vertex 1558011.0900764412 1325289.6360853703 49942.500000001484
    vertex 1558020.9413370243 1345171.741381184 49942.50000000158
    vertex 1562306.7985703773 1323144.449894462 49942.500000001295
  endloop
endfacet
facet normal 0.0 -1.6653345369377343e-16 -1.0
  outer loop
    vertex 1562306.7985703773 1323144.449894462 49942.500000001295
    vertex 1558020.9413370243 1345171.741381184 49942.50000000158
    vertex 1561182.5057045575 1342355.3421513792 49942.50000000084
  endloop
endfacet
facet normal 0.0 -1.6653345369377343e-16 -1.0
  outer loop
    vertex 1562306.7985703773 1323144.449894462 49942.500000001295
    vertex 1561182.5057045575 1342355.3421513792 49942.50000000084
    vertex 1564523.3061344011 1339754.0643193007 49942.500000000975
  endloop
endfacet
facet normal 0.0 -1.6653345369377343e-16 -1.0
  outer loop
    vertex 1562306.7985703773 1323144.449894462 49942.500000001295
    vertex 1564523.3061344011 1339754.0643193007 49942.500000000975
    vertex 1566734.899468086 1321287.8784042536 49942.5000000016
  endloop
endfacet
facet normal 0.0 -1.6653345369377343e-16 -1.0
  outer loop
    vertex 1566734.899468086 1321287.8784042536 49942.5000000016
    vertex 1564523.3061344011 1339754.0643193007 49942.500000000975
    vertex 1568028.7322974172 1337379.2840584465 49942.50000000086
  endloop
endfacet
facet normal 0.0 -1.6653345369377343e-16 -1.0
  outer loop
    vertex 1566734.899468086 1321287.8784042536 49942.5000000016
    vertex 1568028.7322974172 1337379.2840584465 49942.50000000086
    vertex 1571276.0273471389 1319728.040962521 49942.500000001186
  endloop
endfacet
facet normal 0.0 -1.6653345369377343e-16 -1.0
  outer loop
    vertex 1571276.0273471389 1319728.040962521 49942.500000001186
    vertex 1568028.7322974172 1337379.2840584465 49942.50000000086
    vertex 1571683.4539064239 1335241.3870000343 49942.50000000095
  endloop
endfacet
facet normal 0.0 -1.6653345369377343e-16 -1.0
  outer loop
    vertex 1571276.0273471389 1319728.040962521 49942.500000001186
    vertex 1571683.4539064239 1335241.3870000343 49942.50000000095
    vertex 1575910.3224839868 1318471.759209438 49942.50000000174
  endloop
endfacet
facet normal 0.0 -1.6653345369377343e-16 -1.0
  outer loop
    vertex 1575910.3224839868 1318471.759209438 49942.50000000174
    vertex 1571683.4539064239 1335241.3870000343 49942.50000000095
    vertex 1575471.4877601676 1333349.7228135052 49942.50000000127
  endloop
endfacet
facet normal 0.0 -1.6653345369377343e-16 -1.0
  outer loop
    vertex 1575910.3224839868 1318471.759209438 49942.50000000174
    vertex 1575471.4877601676 1333349.7228135052 49942.50000000127
    vertex 1579376.2676426922 1331712.5643175936 49942.50000000125
  endloop
endfacet
facet normal 0.0 -1.6653345369377343e-16 -1.0
  outer loop
    vertex 1575910.3224839868 1318471.759209438 49942.50000000174
    vertex 1579376.2676426922 1331712.5643175936 49942.50000000125
    vertex 1583380.7167724026 1330337.071300793 49942.50000000174
  endloop
endfacet
facet normal 0.0 -1.6653345369377343e-16 -1.0
  outer loop
    vertex 1575910.3224839868 1318471.759209438 49942.50000000174
    vertex 1583380.7167724026 1330337.071300793 49942.50000000174
    vertex 1587467.3224839866 1329229.2592094385 49942.500000001644
  endloop
endfacet
facet normal 0.0 -1.6653345369377343e-16 -1.0
  outer loop
    vertex 1575910.3224839868 1318471.759209438 49942.50000000174
    vertex 1587467.3224839866 1329229.2592094385 49942.500000001644
    vertex 1771490.322483987 1318471.759209438 49942.50000000174
  endloop
endfacet
facet normal 0.0 -1.6653345369377343e-16 -1.0
  outer loop
    vertex 1771490.322483987 1318471.759209438 49942.50000000174
    vertex 1587467.3224839866 1329229.2592094385 49942.500000001644
    vertex 1759933.322483987 1329229.2592094385 49942.500000001644
  endloop
endfacet
facet normal 0.0 -1.6653345369377343e-16 -1.0
  outer loop
    vertex 1771490.322483987 1318471.759209438 49942.50000000174
    vertex 1759933.322483987 1329229.2592094385 49942.500000001644
    vertex 1764715.889435294 1329512.686295633 49942.50000000188
  endloop
endfacet
facet normal 0.0 -1.6653345369377343e-16 -1.0
  outer loop
    vertex 1771490.322483987 1318471.759209438 49942.50000000174
    vertex 1764715.889435294 1329512.686295633 49942.50000000188
    vertex 1769431.505081781 1330358.9998495453 49942.500000001826
  endloop
endfacet
facet normal 0.0 -1.6653345369377343e-16 -1.0
  outer loop
    vertex 1771490.322483987 1318471.759209438 49942.50000000174
    vertex 1769431.505081781 1330358.9998495453 49942.500000001826
    vertex 1774014.1553720434 1331756.3523011769 49942.50000000123
  endloop
endfacet
facet normal 0.0 -1.6653345369377343e-16 -1.0
  outer loop
    vertex 1771490.322483987 1318471.759209438 49942.50000000174
    vertex 1774014.1553720434 1331756.3523011769 49942.50000000123
    vertex 1776913.852016397 1318793.1713690402 49942.50000000172
  endloop
endfacet
facet normal 0.0 -1.6653345369377343e-16 -1.0
  outer loop
    vertex 1776913.852016397 1318793.1713690402 49942.50000000172
    vertex 1774014.1553720434 1331756.3523011769 49942.50000000123
    vertex 1778399.6876408726 1333685.1820697105 49942.50000000153
  endloop
endfacet
facet normal 0.0 -1.6653345369377343e-16 -1.0
  outer loop
    vertex 1776913.852016397 1318793.1713690402 49942.50000000172
    vertex 1778399.6876408726 1333685.1820697105 49942.50000000153
    vertex 1782261.4573887018 1319752.908388941 49942.50000000123
  endloop
endfacet
facet normal 0.0 -1.6653345369377343e-16 -1.0
  outer loop
    vertex 1782261.4573887018 1319752.908388941 49942.50000000123
    vertex 1778399.6876408726 1333685.1820697105 49942.50000000153
    vertex 1782526.708684426 1336118.4874066946 49942.50000000079
  endloop
endfacet
facet normal 0.0 -1.6653345369377343e-16 -1.0
  outer loop
    vertex 1782261.4573887018 1319752.908388941 49942.50000000123
    vertex 1782526.708684426 1336118.4874066946 49942.50000000079
    vertex 1787458.277305494 1321337.5348804812 49942.50000000143
  endloop
endfacet
facet normal 0.0 -1.6653345369377343e-16 -1.0
  outer loop
    vertex 1787458.277305494 1321337.5348804812 49942.50000000143
    vertex 1782526.708684426 1336118.4874066946 49942.50000000079
    vertex 1786337.444205616 1339022.2043943605 49942.500000002154
  endloop
endfacet
facet normal 0.0 -1.6653345369377343e-16 -1.0
  outer loop
    vertex 1787458.277305494 1321337.5348804812 49942.50000000143
    vertex 1786337.444205616 1339022.2043943605 49942.500000002154
    vertex 1789778.5475983063 1342355.683807488 49942.50000000102
  endloop
endfacet
facet normal 0.0 -1.6653345369377343e-16 -1.0
  outer loop
    vertex 1787458.277305494 1321337.5348804812 49942.50000000143
    vertex 1789778.5475983063 1342355.683807488 49942.50000000102
    vertex 1792431.5613216925 1323524.8676076848 49942.50000000127
  endloop
endfacet
facet normal 0.0 -1.6653345369377343e-16 -1.0
  outer loop
    vertex 1792431.5613216925 1323524.8676076848 49942.50000000127
    vertex 1789778.5475983063 1342355.683807488 49942.50000000102
    vertex 1792801.8467481276 1346072.2601631698 49942.50000000178
  endloop
endfacet
facet normal 0.0 -1.6653345369377343e-16 -1.0
  outer loop
    vertex 1792431.5613216925 1323524.8676076848 49942.50000000127
    vertex 1792801.8467481276 1346072.2601631698 49942.50000000178
    vertex 1797111.6882783 1326284.2860310685 49942.50000000109
  endloop
endfacet
facet normal 0.0 -1.6653345369377343e-16 -1.0
  outer loop
    vertex 1797111.6882783 1326284.2860310685 49942.50000000109
    vertex 1792801.8467481276 1346072.2601631698 49942.50000000178
    vertex 1795365.0183954139 1350119.9049923858 49942.50000000116
  endloop
endfacet
facet normal 0.0 -1.6653345369377343e-16 -1.0
  outer loop
    vertex 1797111.6882783 1326284.2860310685 49942.50000000109
    vertex 1795365.0183954139 1350119.9049923858 49942.50000000116
    vertex 1797432.1806198468 1354441.9551881612 49942.50000000095
  endloop
endfacet
facet normal 0.0 -1.6653345369377343e-16 -1.0
  outer loop
    vertex 1797111.6882783 1326284.2860310685 49942.50000000109
    vertex 1797432.1806198468 1354441.9551881612 49942.50000000095
    vertex 1801433.1409311956 1329577.1609655363 49942.50000000107
  endloop
endfacet
facet normal 0.0 -1.6653345369377343e-16 -1.0
  outer loop
    vertex 1801433.1409311956 1329577.1609655363 49942.50000000107
    vertex 1797432.1806198468 1354441.9551881612 49942.50000000095
    vertex 1798974.395152583 1358977.9062341864 49942.50000000141
  endloop
endfacet
facet normal 0.0 -1.6653345369377343e-16 -1.0
  outer loop
    vertex 1801433.1409311956 1329577.1609655363 49942.50000000107
    vertex 1798974.395152583 1358977.9062341864 49942.50000000141
    vertex 1799970.072483987 1363664.2592094392 49942.50000000109
  endloop
endfacet
facet normal 0.0 -1.6653345369377343e-16 -1.0
  outer loop
    vertex 1801433.1409311956 1329577.1609655363 49942.50000000107
    vertex 1799970.072483987 1363664.2592094392 49942.50000000109
    vertex 1816892.822483987 1363664.2592094392 49942.50000000109
  endloop
endfacet
facet normal 0.0 -1.6653345369377343e-16 -1.0
  outer loop
    vertex 1801433.1409311956 1329577.1609655363 49942.50000000107
    vertex 1816892.822483987 1363664.2592094392 49942.50000000109
    vertex 1805335.423129092 1333357.3953515554 49942.500000001186
  endloop
endfacet
facet normal 0.0 -1.6653345369377343e-16 -1.0
  outer loop
    vertex 1805335.423129092 1333357.3953515554 49942.500000001186
    vertex 1816892.822483987 1363664.2592094392 49942.50000000109
    vertex 1808763.906701054 1337572.0695693402 49942.500000001135
  endloop
endfacet
facet normal 0.0 -1.6653345369377343e-16 -1.0
  outer loop
    vertex 1808763.906701054 1337572.0695693402 49942.500000001135
    vertex 1816892.822483987 1363664.2592094392 49942.50000000109
    vertex 1811670.5961979756 1342162.1822622642 49942.50000000127
  endloop
endfacet
facet normal 0.0 -1.6653345369377343e-16 -1.0
  outer loop
    vertex 1811670.5961979756 1342162.1822622642 49942.50000000127
    vertex 1816892.822483987 1363664.2592094392 49942.50000000109
    vertex 1814014.800782385 1347063.47629871 49942.500000001644
  endloop
endfacet
facet normal 0.0 -1.6653345369377343e-16 -1.0
  outer loop
    vertex 1814014.800782385 1347063.47629871 49942.500000001644
    vertex 1816892.822483987 1363664.2592094392 49942.50000000109
    vertex 1815763.7038607455 1352207.338309668 49942.50000000137
  endloop
endfacet
facet normal 0.0 -1.6653345369377343e-16 -1.0
  outer loop
    vertex 1815763.7038607455 1352207.338309668 49942.50000000137
    vertex 1816892.822483987 1363664.2592094392 49942.50000000109
    vertex 1816892.822483987 1357521.7592094387 49942.500000001324
  endloop
endfacet
facet normal 0.0 -1.0 1.6653345369377343e-16
  outer loop
    vertex 1771490.322483987 1318471.759209438 52192.50000000135
    vertex 1575910.3224839868 1318471.759209438 49942.50000000174
    vertex 1771490.322483987 1318471.759209438 49942.50000000174
  endloop
endfacet
facet normal 0.0 -1.0 1.6653345369377343e-16
  outer loop
    vertex 1575910.3224839868 1318471.759209438 49942.50000000174
    vertex 1771490.322483987 1318471.759209438 52192.50000000135
    vertex 1575910.3224839868 1318471.759209438 52192.50000000167
  endloop
endfacet
facet normal -0.8372828133725547 -0.5467700526098147 1.3183898417423734e-15
  outer loop
    vertex 1533133.1692395494 1347451.4993084369 52192.50000000119
    vertex 1530507.8224839868 1351471.7592094385 49942.500000000815
    vertex 1533133.1692395494 1347451.4993084369 49942.50000000162
  endloop
endfacet
facet normal -0.8372828133725547 -0.5467700526098147 1.3183898417423734e-15
  outer loop
    vertex 1530507.8224839868 1351471.7592094385 49942.500000000815
    vertex 1533133.1692395494 1347451.4993084369 52192.50000000119
    vertex 1530507.822483987 1351471.7592094382 52192.50000000131
  endloop
endfacet
facet normal -0.7130687550732587 -0.7010941096160151 -2.708944180085382e-14
  outer loop
    vertex 1539151.176840564 1339974.701908863 52192.5000000014
    vertex 1542517.5191214522 1336550.8627031704 49942.5000000009
    vertex 1542517.5191214525 1336550.86270317 52192.5000000014
  endloop
endfacet
facet normal -0.7130687550732587 -0.7010941096160151 -2.708944180085382e-14
  outer loop
    vertex 1542517.5191214522 1336550.8627031704 49942.5000000009
    vertex 1539151.176840564 1339974.701908863 52192.5000000014
    vertex 1539151.1768405635 1339974.7019088638 49942.50000000109
  endloop
endfacet
facet normal 0.40259793773724867 -0.9153769171929751 8.701372955499664e-15
  outer loop
    vertex 1792431.5613216925 1323524.8676076855 52192.50000000112
    vertex 1787458.277305494 1321337.5348804812 49942.50000000143
    vertex 1792431.5613216925 1323524.8676076848 49942.50000000127
  endloop
endfacet
facet normal 0.40259793773724867 -0.9153769171929751 8.701372955499664e-15
  outer loop
    vertex 1787458.277305494 1321337.5348804812 49942.50000000143
    vertex 1792431.5613216925 1323524.8676076855 52192.50000000112
    vertex 1787458.277305495 1321337.534880481 52192.50000000179
  endloop
endfacet
facet normal 0.5078953708283732 -0.8614187670878255 7.090161791012406e-14
  outer loop
    vertex 1797111.6882783 1326284.2860310685 52192.50000000114
    vertex 1792431.5613216925 1323524.8676076848 49942.50000000127
    vertex 1797111.6882783 1326284.2860310685 49942.50000000109
  endloop
endfacet
facet normal 0.5078953708283732 -0.8614187670878255 7.090161791012406e-14
  outer loop
    vertex 1792431.5613216925 1323524.8676076848 49942.50000000127
    vertex 1797111.6882783 1326284.2860310685 52192.50000000114
    vertex 1792431.5613216925 1323524.8676076855 52192.50000000112
  endloop
endfacet
facet normal 0.7757480730805792 -0.6310427300205338 -5.206945985491984e-14
  outer loop
    vertex 1805335.423129092 1333357.3953515554 49942.500000001186
    vertex 1808763.906701054 1337572.0695693407 52192.500000000684
    vertex 1805335.423129092 1333357.3953515552 52192.50000000135
  endloop
endfacet
facet normal 0.7757480730805792 -0.6310427300205338 -5.206945985491984e-14
  outer loop
    vertex 1808763.906701054 1337572.0695693407 52192.500000000684
    vertex 1805335.423129092 1333357.3953515554 49942.500000001186
    vertex 1808763.906701054 1337572.0695693402 49942.500000001135
  endloop
endfacet
facet normal -8.013353038588938e-16 1.0 -4.85722573273506e-15
  outer loop
    vertex 1530507.8224839868 1358329.2592094385 52192.50000000177
    vertex 1547430.5724839864 1358329.2592094387 49942.50000000104
    vertex 1530507.8224839868 1358329.2592094387 49942.50000000104
  endloop
endfacet
facet normal -8.013353038588938e-16 1.0 -4.85722573273506e-15
  outer loop
    vertex 1547430.5724839864 1358329.2592094387 49942.50000000104
    vertex 1530507.8224839868 1358329.2592094385 52192.50000000177
    vertex 1547430.5724839864 1358329.2592094387 52192.50000000147
  endloop
endfacet
facet normal -0.26164057710485855 -0.9651653787886492 1.1005085731596864e-14
  outer loop
    vertex 1575910.3224839868 1318471.759209438 49942.50000000174
    vertex 1571276.027347139 1319728.0409625205 52192.50000000186
    vertex 1571276.0273471389 1319728.040962521 49942.500000001186
  endloop
endfacet
facet normal -0.26164057710485855 -0.9651653787886492 1.1005085731596864e-14
  outer loop
    vertex 1571276.027347139 1319728.0409625205 52192.50000000186
    vertex 1575910.3224839868 1318471.759209438 49942.50000000174
    vertex 1575910.3224839868 1318471.759209438 52192.50000000167
  endloop
endfacet
facet normal -0.6651708584828521 -0.7466911871886434 -3.969047313034934e-15
  outer loop
    vertex 1546102.798301129 1333357.007906483 49942.50000000104
    vertex 1542517.5191214525 1336550.86270317 52192.5000000014
    vertex 1542517.5191214522 1336550.8627031704 49942.5000000009
  endloop
endfacet
facet normal -0.6651708584828521 -0.7466911871886434 -3.969047313034934e-15
  outer loop
    vertex 1542517.5191214525 1336550.86270317 52192.5000000014
    vertex 1546102.798301129 1333357.007906483 49942.50000000104
    vertex 1546102.798301129 1333357.007906483 52192.50000000167
  endloop
endfacet
facet normal 0.8448508455847281 -0.535001914683275 -4.411748744104216e-14
  outer loop
    vertex 1811670.5961979756 1342162.1822622642 49942.50000000127
    vertex 1808763.906701054 1337572.0695693407 52192.500000000684
    vertex 1808763.906701054 1337572.0695693402 49942.500000001135
  endloop
endfacet
facet normal 0.8448508455847281 -0.535001914683275 -4.411748744104216e-14
  outer loop
    vertex 1808763.906701054 1337572.0695693407 52192.500000000684
    vertex 1811670.5961979756 1342162.1822622642 49942.50000000127
    vertex 1811670.5961979756 1342162.182262264 52192.50000000151
  endloop
endfacet
facet normal -0.3248608581978889 -0.9457618213963447 1.3225531780847177e-14
  outer loop
    vertex 1571276.027347139 1319728.0409625205 52192.50000000186
    vertex 1566734.899468086 1321287.8784042536 49942.5000000016
    vertex 1571276.0273471389 1319728.040962521 49942.500000001186
  endloop
endfacet
facet normal -0.3248608581978889 -0.9457618213963447 1.3225531780847177e-14
  outer loop
    vertex 1566734.899468086 1321287.8784042536 49942.5000000016
    vertex 1571276.027347139 1319728.0409625205 52192.50000000186
    vertex 1566734.899468086 1321287.878404252 52192.50000000248
  endloop
endfacet
facet normal -0.3866604246560795 -0.9222221619570744 -2.498001805406602e-16
  outer loop
    vertex 1566734.899468086 1321287.8784042536 49942.5000000016
    vertex 1562306.7985703773 1323144.4498944622 52192.50000000133
    vertex 1562306.7985703773 1323144.449894462 49942.500000001295
  endloop
endfacet
facet normal -0.3866604246560795 -0.9222221619570744 -2.498001805406602e-16
  outer loop
    vertex 1562306.7985703773 1323144.4498944622 52192.50000000133
    vertex 1566734.899468086 1321287.8784042536 49942.5000000016
    vertex 1566734.899468086 1321287.878404252 52192.50000000248
  endloop
endfacet
facet normal 0.059158751208865386 -0.9982485873545766 -3.608224830031759e-16
  outer loop
    vertex 1776913.852016397 1318793.1713690409 52192.50000000128
    vertex 1771490.322483987 1318471.759209438 49942.50000000174
    vertex 1776913.852016397 1318793.1713690402 49942.50000000172
  endloop
endfacet
facet normal 0.059158751208865386 -0.9982485873545766 -3.608224830031759e-16
  outer loop
    vertex 1771490.322483987 1318471.759209438 49942.50000000174
    vertex 1776913.852016397 1318793.1713690409 52192.50000000128
    vertex 1771490.322483987 1318471.759209438 52192.50000000135
  endloop
endfacet
facet normal -0.5049237361814294 -0.8631639593035535 -4.718447854656915e-16
  outer loop
    vertex 1558011.0900764412 1325289.6360853708 52192.50000000165
    vertex 1553866.5604167434 1327714.0554299615 49942.5000000016
    vertex 1558011.0900764412 1325289.6360853703 49942.500000001484
  endloop
endfacet
facet normal -0.5049237361814294 -0.8631639593035535 -4.718447854656915e-16
  outer loop
    vertex 1553866.5604167434 1327714.0554299615 49942.5000000016
    vertex 1558011.0900764412 1325289.6360853708 52192.50000000165
    vertex 1553866.5604167434 1327714.0554299615 52192.500000002416
  endloop
endfacet
facet normal -1.0 -1.347497800949715e-14 4.1068738533388076e-14
  outer loop
    vertex 1530507.8224839868 1358329.2592094385 52192.50000000177
    vertex 1530507.8224839868 1351471.7592094385 49942.500000000815
    vertex 1530507.822483987 1351471.7592094382 52192.50000000131
  endloop
endfacet
facet normal -1.0 -1.347497800949715e-14 4.1068738533388076e-14
  outer loop
    vertex 1530507.8224839868 1351471.7592094385 49942.500000000815
    vertex 1530507.8224839868 1358329.2592094385 52192.50000000177
    vertex 1530507.8224839868 1358329.2592094387 49942.50000000104
  endloop
endfacet
facet normal 5.121728462303766e-16 2.1094237467877974e-15 1.0
  outer loop
    vertex 1530507.822483987 1351471.7592094382 52192.50000000131
    vertex 1547430.5724839864 1358329.2592094387 52192.50000000147
    vertex 1530507.8224839868 1358329.2592094385 52192.50000000177
  endloop
endfacet
facet normal 5.121728462303766e-16 2.1094237467877974e-15 1.0
  outer loop
    vertex 1547430.5724839864 1358329.2592094387 52192.50000000147
    vertex 1530507.822483987 1351471.7592094382 52192.50000000131
    vertex 1533133.1692395494 1347451.4993084369 52192.50000000119
  endloop
endfacet
facet normal 5.121728462303766e-16 2.1094237467877974e-15 1.0
  outer loop
    vertex 1547430.5724839864 1358329.2592094387 52192.50000000147
    vertex 1533133.1692395494 1347451.4993084369 52192.50000000119
    vertex 1536018.4934898284 1343613.5520407818 52192.500000001586
  endloop
endfacet
facet normal 5.121728462303766e-16 2.1094237467877974e-15 1.0
  outer loop
    vertex 1547430.5724839864 1358329.2592094387 52192.50000000147
    vertex 1536018.4934898284 1343613.5520407818 52192.500000001586
    vertex 1539151.176840564 1339974.701908863 52192.5000000014
  endloop
endfacet
facet normal 5.121728462303766e-16 2.1094237467877974e-15 1.0
  outer loop
    vertex 1547430.5724839864 1358329.2592094387 52192.50000000147
    vertex 1539151.176840564 1339974.701908863 52192.5000000014
    vertex 1542517.5191214525 1336550.86270317 52192.5000000014
  endloop
endfacet
facet normal 5.121728462303766e-16 2.1094237467877974e-15 1.0
  outer loop
    vertex 1547430.5724839864 1358329.2592094387 52192.50000000147
    vertex 1542517.5191214525 1336550.86270317 52192.5000000014
    vertex 1546102.798301129 1333357.007906483 52192.50000000167
  endloop
endfacet
facet normal 5.121728462303766e-16 2.1094237467877974e-15 1.0
  outer loop
    vertex 1547430.5724839864 1358329.2592094387 52192.50000000147
    vertex 1546102.798301129 1333357.007906483 52192.50000000167
    vertex 1549891.3348710546 1330407.1052103129 52192.50000000133
  endloop
endfacet
facet normal 5.121728462303766e-16 2.1094237467877974e-15 1.0
  outer loop
    vertex 1547430.5724839864 1358329.2592094387 52192.50000000147
    vertex 1549891.3348710546 1330407.1052103129 52192.50000000133
    vertex 1549745.6509866193 1354784.1209331013 52192.500000001375
  endloop
endfacet
facet normal 5.121728462303766e-16 2.1094237467877974e-15 1.0
  outer loop
    vertex 1549745.6509866193 1354784.1209331013 52192.500000001375
    vertex 1549891.3348710546 1330407.1052103129 52192.50000000133
    vertex 1552289.9823709559 1351399.749251624 52192.500000001164
  endloop
endfacet
facet normal 5.121728462303766e-16 2.1094237467877974e-15 1.0
  outer loop
    vertex 1552289.9823709559 1351399.749251624 52192.500000001164
    vertex 1549891.3348710546 1330407.1052103129 52192.50000000133
    vertex 1553866.5604167434 1327714.0554299615 52192.500000002416
  endloop
endfacet
facet normal 5.121728462303766e-16 2.1094237467877974e-15 1.0
  outer loop
    vertex 1552289.9823709559 1351399.749251624 52192.500000001164
    vertex 1553866.5604167434 1327714.0554299615 52192.500000002416
    vertex 1555052.4395075133 1348190.9450443864 52192.50000000128
  endloop
endfacet
facet normal 5.121728462303766e-16 2.1094237467877974e-15 1.0
  outer loop
    vertex 1555052.4395075133 1348190.9450443864 52192.50000000128
    vertex 1553866.5604167434 1327714.0554299615 52192.500000002416
    vertex 1558011.0900764412 1325289.6360853708 52192.50000000165
  endloop
endfacet
facet normal 5.121728462303766e-16 2.1094237467877974e-15 1.0
  outer loop
    vertex 1555052.4395075133 1348190.9450443864 52192.50000000128
    vertex 1558011.0900764412 1325289.6360853708 52192.50000000165
    vertex 1558020.9413370243 1345171.741381184 52192.50000000156
  endloop
endfacet
facet normal 5.121728462303766e-16 2.1094237467877974e-15 1.0
  outer loop
    vertex 1558020.9413370243 1345171.741381184 52192.50000000156
    vertex 1558011.0900764412 1325289.6360853708 52192.50000000165
    vertex 1562306.7985703773 1323144.4498944622 52192.50000000133
  endloop
endfacet
facet normal 5.121728462303766e-16 2.1094237467877974e-15 1.0
  outer loop
    vertex 1558020.9413370243 1345171.741381184 52192.50000000156
    vertex 1562306.7985703773 1323144.4498944622 52192.50000000133
    vertex 1561182.5057045578 1342355.342151378 52192.500000001906
  endloop
endfacet
facet normal 5.121728462303766e-16 2.1094237467877974e-15 1.0
  outer loop
    vertex 1561182.5057045578 1342355.342151378 52192.500000001906
    vertex 1562306.7985703773 1323144.4498944622 52192.50000000133
    vertex 1564523.3061344014 1339754.0643193012 52192.50000000114
  endloop
endfacet
facet normal 5.121728462303766e-16 2.1094237467877974e-15 1.0
  outer loop
    vertex 1564523.3061344014 1339754.0643193012 52192.50000000114
    vertex 1562306.7985703773 1323144.4498944622 52192.50000000133
    vertex 1566734.899468086 1321287.878404252 52192.50000000248
  endloop
endfacet
facet normal 5.121728462303766e-16 2.1094237467877974e-15 1.0
  outer loop
    vertex 1564523.3061344014 1339754.0643193012 52192.50000000114
    vertex 1566734.899468086 1321287.878404252 52192.50000000248
    vertex 1568028.7322974177 1337379.2840584456 52192.50000000145
  endloop
endfacet
facet normal 5.121728462303766e-16 2.1094237467877974e-15 1.0
  outer loop
    vertex 1568028.7322974177 1337379.2840584456 52192.50000000145
    vertex 1566734.899468086 1321287.878404252 52192.50000000248
    vertex 1571276.027347139 1319728.0409625205 52192.50000000186
  endloop
endfacet
facet normal 5.121728462303766e-16 2.1094237467877974e-15 1.0
  outer loop
    vertex 1568028.7322974177 1337379.2840584456 52192.50000000145
    vertex 1571276.027347139 1319728.0409625205 52192.50000000186
    vertex 1571683.453906424 1335241.3870000339 52192.50000000108
  endloop
endfacet
facet normal 5.121728462303766e-16 2.1094237467877974e-15 1.0
  outer loop
    vertex 1571683.453906424 1335241.3870000339 52192.50000000108
    vertex 1571276.027347139 1319728.0409625205 52192.50000000186
    vertex 1575910.3224839868 1318471.759209438 52192.50000000167
  endloop
endfacet
facet normal 5.121728462303766e-16 2.1094237467877974e-15 1.0
  outer loop
    vertex 1571683.453906424 1335241.3870000339 52192.50000000108
    vertex 1575910.3224839868 1318471.759209438 52192.50000000167
    vertex 1575471.487760168 1333349.722813505 52192.500000001215
  endloop
endfacet
facet normal 5.121728462303766e-16 2.1094237467877974e-15 1.0
  outer loop
    vertex 1575471.487760168 1333349.722813505 52192.500000001215
    vertex 1575910.3224839868 1318471.759209438 52192.50000000167
    vertex 1579376.267642693 1331712.5643175934 52192.5000000014
  endloop
endfacet
facet normal 5.121728462303766e-16 2.1094237467877974e-15 1.0
  outer loop
    vertex 1579376.267642693 1331712.5643175934 52192.5000000014
    vertex 1575910.3224839868 1318471.759209438 52192.50000000167
    vertex 1583380.7167724029 1330337.0713007937 52192.50000000126
  endloop
endfacet
facet normal 5.121728462303766e-16 2.1094237467877974e-15 1.0
  outer loop
    vertex 1583380.7167724029 1330337.0713007937 52192.50000000126
    vertex 1575910.3224839868 1318471.759209438 52192.50000000167
    vertex 1587467.3224839866 1329229.259209439 52192.5000000014
  endloop
endfacet
facet normal 5.121728462303766e-16 2.1094237467877974e-15 1.0
  outer loop
    vertex 1587467.3224839866 1329229.259209439 52192.5000000014
    vertex 1575910.3224839868 1318471.759209438 52192.50000000167
    vertex 1771490.322483987 1318471.759209438 52192.50000000135
  endloop
endfacet
facet normal 5.121728462303766e-16 2.1094237467877974e-15 1.0
  outer loop
    vertex 1587467.3224839866 1329229.259209439 52192.5000000014
    vertex 1771490.322483987 1318471.759209438 52192.50000000135
    vertex 1759933.3224839873 1329229.259209439 52192.500000001375
  endloop
endfacet
facet normal 5.121728462303766e-16 2.1094237467877974e-15 1.0
  outer loop
    vertex 1759933.3224839873 1329229.259209439 52192.500000001375
    vertex 1771490.322483987 1318471.759209438 52192.50000000135
    vertex 1764715.8894352943 1329512.6862956341 52192.500000001164
  endloop
endfacet
facet normal 5.121728462303766e-16 2.1094237467877974e-15 1.0
  outer loop
    vertex 1764715.8894352943 1329512.6862956341 52192.500000001164
    vertex 1771490.322483987 1318471.759209438 52192.50000000135
    vertex 1769431.505081781 1330358.999849546 52192.50000000133
  endloop
endfacet
facet normal 5.121728462303766e-16 2.1094237467877974e-15 1.0
  outer loop
    vertex 1769431.505081781 1330358.999849546 52192.50000000133
    vertex 1771490.322483987 1318471.759209438 52192.50000000135
    vertex 1774014.155372043 1331756.3523011773 52192.50000000108
  endloop
endfacet
facet normal 5.121728462303766e-16 2.1094237467877974e-15 1.0
  outer loop
    vertex 1774014.155372043 1331756.3523011773 52192.50000000108
    vertex 1771490.322483987 1318471.759209438 52192.50000000135
    vertex 1776913.852016397 1318793.1713690409 52192.50000000128
  endloop
endfacet
facet normal 5.121728462303766e-16 2.1094237467877974e-15 1.0
  outer loop
    vertex 1774014.155372043 1331756.3523011773 52192.50000000108
    vertex 1776913.852016397 1318793.1713690409 52192.50000000128
    vertex 1778399.6876408726 1333685.18206971 52192.5000000014
  endloop
endfacet
facet normal 5.121728462303766e-16 2.1094237467877974e-15 1.0
  outer loop
    vertex 1778399.6876408726 1333685.18206971 52192.5000000014
    vertex 1776913.852016397 1318793.1713690409 52192.50000000128
    vertex 1782261.4573887018 1319752.908388941 52192.50000000163
  endloop
endfacet
facet normal 5.121728462303766e-16 2.1094237467877974e-15 1.0
  outer loop
    vertex 1778399.6876408726 1333685.18206971 52192.5000000014
    vertex 1782261.4573887018 1319752.908388941 52192.50000000163
    vertex 1782526.7086844267 1336118.4874066943 52192.500000001055
  endloop
endfacet
facet normal 5.121728462303766e-16 2.1094237467877974e-15 1.0
  outer loop
    vertex 1782526.7086844267 1336118.4874066943 52192.500000001055
    vertex 1782261.4573887018 1319752.908388941 52192.50000000163
    vertex 1787458.277305495 1321337.534880481 52192.50000000179
  endloop
endfacet
facet normal 5.121728462303766e-16 2.1094237467877974e-15 1.0
  outer loop
    vertex 1782526.7086844267 1336118.4874066943 52192.500000001055
    vertex 1787458.277305495 1321337.534880481 52192.50000000179
    vertex 1786337.4442056166 1339022.2043943612 52192.50000000181
  endloop
endfacet
facet normal 5.121728462303766e-16 2.1094237467877974e-15 1.0
  outer loop
    vertex 1786337.4442056166 1339022.2043943612 52192.50000000181
    vertex 1787458.277305495 1321337.534880481 52192.50000000179
    vertex 1789778.5475983066 1342355.6838074871 52192.500000001746
  endloop
endfacet
facet normal 5.121728462303766e-16 2.1094237467877974e-15 1.0
  outer loop
    vertex 1789778.5475983066 1342355.6838074871 52192.500000001746
    vertex 1787458.277305495 1321337.534880481 52192.50000000179
    vertex 1792431.5613216925 1323524.8676076855 52192.50000000112
  endloop
endfacet
facet normal 5.121728462303766e-16 2.1094237467877974e-15 1.0
  outer loop
    vertex 1789778.5475983066 1342355.6838074871 52192.500000001746
    vertex 1792431.5613216925 1323524.8676076855 52192.50000000112
    vertex 1792801.8467481276 1346072.2601631691 52192.50000000212
  endloop
endfacet
facet normal 5.121728462303766e-16 2.1094237467877974e-15 1.0
  outer loop
    vertex 1792801.8467481276 1346072.2601631691 52192.50000000212
    vertex 1792431.5613216925 1323524.8676076855 52192.50000000112
    vertex 1797111.6882783 1326284.2860310685 52192.50000000114
  endloop
endfacet
facet normal 5.121728462303766e-16 2.1094237467877974e-15 1.0
  outer loop
    vertex 1792801.8467481276 1346072.2601631691 52192.50000000212
    vertex 1797111.6882783 1326284.2860310685 52192.50000000114
    vertex 1795365.0183954134 1350119.904992386 52192.50000000094
  endloop
endfacet
facet normal 5.121728462303766e-16 2.1094237467877974e-15 1.0
  outer loop
    vertex 1795365.0183954134 1350119.904992386 52192.50000000094
    vertex 1797111.6882783 1326284.2860310685 52192.50000000114
    vertex 1797432.1806198468 1354441.955188161 52192.50000000112
  endloop
endfacet
facet normal 5.121728462303766e-16 2.1094237467877974e-15 1.0
  outer loop
    vertex 1797432.1806198468 1354441.955188161 52192.50000000112
    vertex 1797111.6882783 1326284.2860310685 52192.50000000114
    vertex 1801433.1409311956 1329577.1609655363 52192.50000000135
  endloop
endfacet
facet normal 5.121728462303766e-16 2.1094237467877974e-15 1.0
  outer loop
    vertex 1797432.1806198468 1354441.955188161 52192.50000000112
    vertex 1801433.1409311956 1329577.1609655363 52192.50000000135
    vertex 1798974.395152583 1358977.9062341864 52192.50000000145
  endloop
endfacet
facet normal 5.121728462303766e-16 2.1094237467877974e-15 1.0
  outer loop
    vertex 1798974.395152583 1358977.9062341864 52192.50000000145
    vertex 1801433.1409311956 1329577.1609655363 52192.50000000135
    vertex 1799970.072483987 1363664.2592094394 52192.50000000089
  endloop
endfacet
facet normal 5.121728462303766e-16 2.1094237467877974e-15 1.0
  outer loop
    vertex 1799970.072483987 1363664.2592094394 52192.50000000089
    vertex 1801433.1409311956 1329577.1609655363 52192.50000000135
    vertex 1816892.822483987 1363664.2592094394 52192.50000000089
  endloop
endfacet
facet normal 5.121728462303766e-16 2.1094237467877974e-15 1.0
  outer loop
    vertex 1816892.822483987 1363664.2592094394 52192.50000000089
    vertex 1801433.1409311956 1329577.1609655363 52192.50000000135
    vertex 1805335.423129092 1333357.3953515552 52192.50000000135
  endloop
endfacet
facet normal 5.121728462303766e-16 2.1094237467877974e-15 1.0
  outer loop
    vertex 1816892.822483987 1363664.2592094394 52192.50000000089
    vertex 1805335.423129092 1333357.3953515552 52192.50000000135
    vertex 1808763.906701054 1337572.0695693407 52192.500000000684
  endloop
endfacet
facet normal 5.121728462303766e-16 2.1094237467877974e-15 1.0
  outer loop
    vertex 1816892.822483987 1363664.2592094394 52192.50000000089
    vertex 1808763.906701054 1337572.0695693407 52192.500000000684
    vertex 1811670.5961979756 1342162.182262264 52192.50000000151
  endloop
endfacet
facet normal 5.121728462303766e-16 2.1094237467877974e-15 1.0
  outer loop
    vertex 1816892.822483987 1363664.2592094394 52192.50000000089
    vertex 1811670.5961979756 1342162.182262264 52192.50000000151
    vertex 1814014.800782385 1347063.4762987115 52192.50000000098
  endloop
endfacet
facet normal 5.121728462303766e-16 2.1094237467877974e-15 1.0
  outer loop
    vertex 1816892.822483987 1363664.2592094394 52192.50000000089
    vertex 1814014.800782385 1347063.4762987115 52192.50000000098
    vertex 1815763.7038607462 1352207.338309668 52192.50000000098
  endloop
endfacet
facet normal 5.121728462303766e-16 2.1094237467877974e-15 1.0
  outer loop
    vertex 1816892.822483987 1363664.2592094394 52192.50000000089
    vertex 1815763.7038607462 1352207.338309668 52192.50000000098
    vertex 1816892.822483987 1357521.7592094385 52192.50000000135
  endloop
endfacet
facet normal 0.0 1.0 -1.6653345369377343e-16
  outer loop
    vertex 1799970.072483987 1363664.2592094394 52192.50000000089
    vertex 1816892.822483987 1363664.2592094392 49942.50000000109
    vertex 1799970.072483987 1363664.2592094392 49942.50000000109
  endloop
endfacet
facet normal 0.0 1.0 -1.6653345369377343e-16
  outer loop
    vertex 1816892.822483987 1363664.2592094392 49942.50000000109
    vertex 1799970.072483987 1363664.2592094394 52192.50000000089
    vertex 1816892.822483987 1363664.2592094394 52192.50000000089
  endloop
endfacet
facet normal 0.5608702800739005 0.8279036954439957 -1.1102230246251565e-15
  outer loop
    vertex 1564523.3061344011 1339754.0643193007 49942.500000000975
    vertex 1568028.7322974177 1337379.2840584456 52192.50000000145
    vertex 1568028.7322974172 1337379.2840584465 49942.50000000086
  endloop
endfacet
facet normal 0.5608702800739005 0.8279036954439957 -1.1102230246251565e-15
  outer loop
    vertex 1568028.7322974177 1337379.2840584456 52192.50000000145
    vertex 1564523.3061344011 1339754.0643193007 49942.500000000975
    vertex 1564523.3061344014 1339754.0643193012 52192.50000000114
  endloop
endfacet
facet normal -0.5078953708284386 0.861418767087787 1.3654355424108644e-13
  outer loop
    vertex 1778399.6876408726 1333685.1820697105 49942.50000000153
    vertex 1782526.7086844267 1336118.4874066943 52192.500000001055
    vertex 1782526.708684426 1336118.4874066946 49942.50000000079
  endloop
endfacet
facet normal -0.5078953708284386 0.861418767087787 1.3654355424108644e-13
  outer loop
    vertex 1782526.7086844267 1336118.4874066943 52192.500000001055
    vertex 1778399.6876408726 1333685.1820697105 49942.50000000153
    vertex 1778399.6876408726 1333685.18206971 52192.5000000014
  endloop
endfacet
facet normal 0.7130687550732506 0.7010941096160234 1.6889267762110194e-14
  outer loop
    vertex 1558020.9413370243 1345171.741381184 49942.50000000158
    vertex 1555052.4395075133 1348190.9450443864 52192.50000000128
    vertex 1558020.9413370243 1345171.741381184 52192.50000000156
  endloop
endfacet
facet normal 0.7130687550732506 0.7010941096160234 1.6889267762110194e-14
  outer loop
    vertex 1555052.4395075133 1348190.9450443864 52192.50000000128
    vertex 1558020.9413370243 1345171.741381184 49942.50000000158
    vertex 1555052.4395075133 1348190.945044387 49942.50000000146
  endloop
endfacet
facet normal -0.9781661783347472 0.20782427086843328 -1.1796119636642288e-16
  outer loop
    vertex 1799970.072483987 1363664.2592094394 52192.50000000089
    vertex 1798974.395152583 1358977.9062341864 49942.50000000141
    vertex 1798974.395152583 1358977.9062341864 52192.50000000145
  endloop
endfacet
facet normal -0.9781661783347472 0.20782427086843328 -1.1796119636642288e-16
  outer loop
    vertex 1798974.395152583 1358977.9062341864 49942.50000000141
    vertex 1799970.072483987 1363664.2592094394 52192.50000000089
    vertex 1799970.072483987 1363664.2592094392 49942.50000000109
  endloop
endfacet
facet normal 0.6143639688593464 0.7890227587132023 -1.797173521111972e-14
  outer loop
    vertex 1561182.5057045578 1342355.342151378 52192.500000001906
    vertex 1564523.3061344011 1339754.0643193007 49942.500000000975
    vertex 1561182.5057045575 1342355.3421513792 49942.50000000084
  endloop
endfacet
facet normal 0.6143639688593464 0.7890227587132023 -1.797173521111972e-14
  outer loop
    vertex 1564523.3061344011 1339754.0643193007 49942.500000000975
    vertex 1561182.5057045578 1342355.342151378 52192.500000001906
    vertex 1564523.3061344014 1339754.0643193012 52192.50000000114
  endloop
endfacet
facet normal 0.7578481866646183 0.6524309357848922 5.717648576819556e-15
  outer loop
    vertex 1555052.4395075133 1348190.945044387 49942.50000000146
    vertex 1552289.9823709559 1351399.749251624 52192.500000001164
    vertex 1555052.4395075133 1348190.9450443864 52192.50000000128
  endloop
endfacet
facet normal 0.7578481866646183 0.6524309357848922 5.717648576819556e-15
  outer loop
    vertex 1552289.9823709559 1351399.749251624 52192.500000001164
    vertex 1555052.4395075133 1348190.945044387 49942.50000000146
    vertex 1552289.9823709559 1351399.7492516239 49942.50000000137
  endloop
endfacet
facet normal 0.324860858197822 0.9457618213963676 -6.657174811408595e-14
  outer loop
    vertex 1579376.267642693 1331712.5643175934 52192.5000000014
    vertex 1583380.7167724026 1330337.071300793 49942.50000000174
    vertex 1579376.2676426922 1331712.5643175936 49942.50000000125
  endloop
endfacet
facet normal 0.324860858197822 0.9457618213963676 -6.657174811408595e-14
  outer loop
    vertex 1583380.7167724026 1330337.071300793 49942.50000000174
    vertex 1579376.267642693 1331712.5643175934 52192.5000000014
    vertex 1583380.7167724029 1330337.0713007937 52192.50000000126
  endloop
endfacet
facet normal 0.3866604246561363 0.9222221619570508 -5.71209746169643e-14
  outer loop
    vertex 1575471.4877601676 1333349.7228135052 49942.50000000127
    vertex 1579376.267642693 1331712.5643175934 52192.5000000014
    vertex 1579376.2676426922 1331712.5643175936 49942.50000000125
  endloop
endfacet
facet normal 0.3866604246561363 0.9222221619570508 -5.71209746169643e-14
  outer loop
    vertex 1579376.267642693 1331712.5643175934 52192.5000000014
    vertex 1575471.4877601676 1333349.7228135052 49942.50000000127
    vertex 1575471.487760168 1333349.722813505 52192.500000001215
  endloop
endfacet
facet normal -0.7757480730805748 0.6310427300205395 9.953149415764528e-14
  outer loop
    vertex 1792801.8467481276 1346072.2601631691 52192.50000000212
    vertex 1789778.5475983063 1342355.683807488 49942.50000000102
    vertex 1789778.5475983066 1342355.6838074871 52192.500000001746
  endloop
endfacet
facet normal -0.7757480730805748 0.6310427300205395 9.953149415764528e-14
  outer loop
    vertex 1789778.5475983063 1342355.683807488 49942.50000000102
    vertex 1792801.8467481276 1346072.2601631691 52192.50000000212
    vertex 1792801.8467481276 1346072.2601631698 49942.50000000178
  endloop
endfacet
facet normal -0.17664808841217924 0.9842740740567756 -3.802513859341161e-14
  outer loop
    vertex 1764715.889435294 1329512.686295633 49942.50000000188
    vertex 1769431.505081781 1330358.999849546 52192.50000000133
    vertex 1769431.505081781 1330358.9998495453 49942.500000001826
  endloop
endfacet
facet normal -0.17664808841217924 0.9842740740567756 -3.802513859341161e-14
  outer loop
    vertex 1769431.505081781 1330358.999849546 52192.50000000133
    vertex 1764715.889435294 1329512.686295633 49942.50000000188
    vertex 1764715.8894352943 1329512.6862956341 52192.500000001164
  endloop
endfacet
facet normal 0.8372828133724836 0.5467700526099241 -5.592748486549226e-15
  outer loop
    vertex 1547430.5724839864 1358329.2592094387 49942.50000000104
    vertex 1549745.6509866193 1354784.1209331013 52192.500000001375
    vertex 1549745.6509866193 1354784.120933101 49942.50000000155
  endloop
endfacet
facet normal 0.8372828133724836 0.5467700526099241 -5.592748486549226e-15
  outer loop
    vertex 1549745.6509866193 1354784.1209331013 52192.500000001375
    vertex 1547430.5724839864 1358329.2592094387 49942.50000000104
    vertex 1547430.5724839864 1358329.2592094387 52192.50000000147
  endloop
endfacet
facet normal 0.44676900831327565 0.8946493465100013 2.220446049250313e-16
  outer loop
    vertex 1571683.453906424 1335241.3870000339 52192.50000000108
    vertex 1575471.4877601676 1333349.7228135052 49942.50000000127
    vertex 1571683.4539064239 1335241.3870000343 49942.50000000095
  endloop
endfacet
facet normal 0.44676900831327565 0.8946493465100013 2.220446049250313e-16
  outer loop
    vertex 1575471.4877601676 1333349.7228135052 49942.50000000127
    vertex 1571683.453906424 1335241.3870000339 52192.50000000108
    vertex 1575471.487760168 1333349.722813505 52192.500000001215
  endloop
endfacet
facet normal -0.29166452348277355 0.9565206771113558 -1.2208289934534378e-13
  outer loop
    vertex 1769431.505081781 1330358.9998495453 49942.500000001826
    vertex 1774014.155372043 1331756.3523011773 52192.50000000108
    vertex 1774014.1553720434 1331756.3523011769 49942.50000000123
  endloop
endfacet
facet normal -0.29166452348277355 0.9565206771113558 -1.2208289934534378e-13
  outer loop
    vertex 1774014.155372043 1331756.3523011773 52192.50000000108
    vertex 1769431.505081781 1330358.9998495453 49942.500000001826
    vertex 1769431.505081781 1330358.999849546 52192.50000000133
  endloop
endfacet
facet normal -0.9021265245913695 0.43147159075505453 -9.162809400109495e-14
  outer loop
    vertex 1795365.0183954134 1350119.904992386 52192.50000000094
    vertex 1797432.1806198468 1354441.9551881612 49942.50000000095
    vertex 1795365.0183954139 1350119.9049923858 49942.50000000116
  endloop
endfacet
facet normal -0.9021265245913695 0.43147159075505453 -9.162809400109495e-14
  outer loop
    vertex 1797432.1806198468 1354441.9551881612 49942.50000000095
    vertex 1795365.0183954134 1350119.904992386 52192.50000000094
    vertex 1797432.1806198468 1354441.955188161 52192.50000000112
  endloop
endfacet
facet normal -0.05915875120885753 0.998248587354577 2.5174307083375425e-14
  outer loop
    vertex 1759933.3224839873 1329229.259209439 52192.500000001375
    vertex 1764715.889435294 1329512.686295633 49942.50000000188
    vertex 1759933.322483987 1329229.2592094385 49942.500000001644
  endloop
endfacet
facet normal -0.05915875120885753 0.998248587354577 2.5174307083375425e-14
  outer loop
    vertex 1764715.889435294 1329512.686295633 49942.50000000188
    vertex 1759933.3224839873 1329229.259209439 52192.500000001375
    vertex 1764715.8894352943 1329512.6862956341 52192.500000001164
  endloop
endfacet
facet normal -0.9467733060730139 0.321901082488977 4.0245584642661925e-16
  outer loop
    vertex 1798974.395152583 1358977.9062341864 52192.50000000145
    vertex 1797432.1806198468 1354441.9551881612 49942.50000000095
    vertex 1797432.1806198468 1354441.955188161 52192.50000000112
  endloop
endfacet
facet normal -0.9467733060730139 0.321901082488977 4.0245584642661925e-16
  outer loop
    vertex 1797432.1806198468 1354441.9551881612 49942.50000000095
    vertex 1798974.395152583 1358977.9062341864 52192.50000000145
    vertex 1798974.395152583 1358977.9062341864 49942.50000000141
  endloop
endfacet
facet normal 1.9254766329876027e-16 1.0 5.551115123125783e-16
  outer loop
    vertex 1587467.3224839866 1329229.259209439 52192.5000000014
    vertex 1759933.322483987 1329229.2592094385 49942.500000001644
    vertex 1587467.3224839866 1329229.2592094385 49942.500000001644
  endloop
endfacet
facet normal 1.9254766329876027e-16 1.0 5.551115123125783e-16
  outer loop
    vertex 1759933.322483987 1329229.2592094385 49942.500000001644
    vertex 1587467.3224839866 1329229.259209439 52192.5000000014
    vertex 1759933.3224839873 1329229.259209439 52192.500000001375
  endloop
endfacet
facet normal 0.799313319279838 0.6009144844500323 -2.858824288409778e-15
  outer loop
    vertex 1549745.6509866193 1354784.120933101 49942.50000000155
    vertex 1552289.9823709559 1351399.749251624 52192.500000001164
    vertex 1552289.9823709559 1351399.7492516239 49942.50000000137
  endloop
endfacet
facet normal 0.799313319279838 0.6009144844500323 -2.858824288409778e-15
  outer loop
    vertex 1552289.9823709559 1351399.749251624 52192.500000001164
    vertex 1549745.6509866193 1354784.120933101 49942.50000000155
    vertex 1549745.6509866193 1354784.1209331013 52192.500000001375
  endloop
endfacet
facet normal -0.8448508455846877 0.5350019146833388 -8.774925230881081e-14
  outer loop
    vertex 1795365.0183954134 1350119.904992386 52192.50000000094
    vertex 1792801.8467481276 1346072.2601631698 49942.50000000178
    vertex 1792801.8467481276 1346072.2601631691 52192.50000000212
  endloop
endfacet
facet normal -0.8448508455846877 0.5350019146833388 -8.774925230881081e-14
  outer loop
    vertex 1792801.8467481276 1346072.2601631698 49942.50000000178
    vertex 1795365.0183954134 1350119.904992386 52192.50000000094
    vertex 1795365.0183954139 1350119.9049923858 49942.50000000116
  endloop
endfacet
facet normal -0.6060827606865063 0.7954015886321973 1.0123846205800646e-13
  outer loop
    vertex 1782526.7086844267 1336118.4874066943 52192.500000001055
    vertex 1786337.444205616 1339022.2043943605 49942.500000002154
    vertex 1782526.708684426 1336118.4874066946 49942.50000000079
  endloop
endfacet
facet normal -0.6060827606865063 0.7954015886321973 1.0123846205800646e-13
  outer loop
    vertex 1786337.444205616 1339022.2043943605 49942.500000002154
    vertex 1782526.7086844267 1336118.4874066943 52192.500000001055
    vertex 1786337.4442056166 1339022.2043943612 52192.50000000181
  endloop
endfacet
facet normal -0.6957855789597489 0.718249558379013 1.1796119636642288e-13
  outer loop
    vertex 1786337.444205616 1339022.2043943605 49942.500000002154
    vertex 1789778.5475983066 1342355.6838074871 52192.500000001746
    vertex 1789778.5475983063 1342355.683807488 49942.50000000102
  endloop
endfacet
facet normal -0.6957855789597489 0.718249558379013 1.1796119636642288e-13
  outer loop
    vertex 1789778.5475983066 1342355.6838074871 52192.500000001746
    vertex 1786337.444205616 1339022.2043943605 49942.500000002154
    vertex 1786337.4442056166 1339022.2043943612 52192.50000000181
  endloop
endfacet
facet normal 0.5049237361813529 0.8631639593035983 5.909162048567396e-14
  outer loop
    vertex 1568028.7322974177 1337379.2840584456 52192.50000000145
    vertex 1571683.4539064239 1335241.3870000343 49942.50000000095
    vertex 1568028.7322974172 1337379.2840584465 49942.50000000086
  endloop
endfacet
facet normal 0.5049237361813529 0.8631639593035983 5.909162048567396e-14
  outer loop
    vertex 1571683.4539064239 1335241.3870000343 49942.50000000095
    vertex 1568028.7322974177 1337379.2840584456 52192.50000000145
    vertex 1571683.453906424 1335241.3870000339 52192.50000000108
  endloop
endfacet
facet normal 0.6651708584828108 0.7466911871886802 1.3253287356462806e-14
  outer loop
    vertex 1558020.9413370243 1345171.741381184 49942.50000000158
    vertex 1561182.5057045578 1342355.342151378 52192.500000001906
    vertex 1561182.5057045575 1342355.3421513792 49942.50000000084
  endloop
endfacet
facet normal 0.6651708584828108 0.7466911871886802 1.3253287356462806e-14
  outer loop
    vertex 1561182.5057045578 1342355.342151378 52192.500000001906
    vertex 1558020.9413370243 1345171.741381184 49942.50000000158
    vertex 1558020.9413370243 1345171.741381184 52192.50000000156
  endloop
endfacet
facet normal 0.26164057710485483 0.9651653787886502 -4.811429032969272e-14
  outer loop
    vertex 1583380.7167724026 1330337.071300793 49942.50000000174
    vertex 1587467.3224839866 1329229.259209439 52192.5000000014
    vertex 1587467.3224839866 1329229.2592094385 49942.500000001644
  endloop
endfacet
facet normal 0.26164057710485483 0.9651653787886502 -4.811429032969272e-14
  outer loop
    vertex 1587467.3224839866 1329229.259209439 52192.5000000014
    vertex 1583380.7167724026 1330337.071300793 49942.50000000174
    vertex 1583380.7167724029 1330337.0713007937 52192.50000000126
  endloop
endfacet
facet normal -0.40259793773714797 0.9153769171930193 -1.3988810110276972e-14
  outer loop
    vertex 1774014.155372043 1331756.3523011773 52192.50000000108
    vertex 1778399.6876408726 1333685.1820697105 49942.50000000153
    vertex 1774014.1553720434 1331756.3523011769 49942.50000000123
  endloop
endfacet
facet normal -0.40259793773714797 0.9153769171930193 -1.3988810110276972e-14
  outer loop
    vertex 1778399.6876408726 1333685.1820697105 49942.50000000153
    vertex 1774014.155372043 1331756.3523011773 52192.50000000108
    vertex 1778399.6876408726 1333685.18206971 52192.5000000014
  endloop
endfacet
endsolid PlexiglassBeaconEdges
