solid PlexiglassBeaconEdges
facet normal 0.0 6.245004513516506e-16 1.0
  outer loop
    vertex 912746.8575486819 1794456.8623158413 12482.499999999076
    vertex 740280.8575486817 1796706.8623158436 12482.500000000162
    vertex 740280.8575486817 1794456.8623158417 12482.499999999052
  endloop
endfacet
facet normal 0.0 6.245004513516506e-16 1.0
  outer loop
    vertex 740280.8575486817 1796706.8623158436 12482.500000000162
    vertex 912746.8575486819 1794456.8623158413 12482.499999999076
    vertex 912746.8575486819 1796706.862315843 12482.499999999953
  endloop
endfacet
facet normal 7.280626116817335e-16 1.0 2.8949065367100957e-14
  outer loop
    vertex 740280.8575486817 1796706.8623158436 12482.500000000162
    vertex 912746.8575486819 1796706.8623158417 7000.000000000372
    vertex 740280.8575486817 1796706.8623158417 7000.000000000372
  endloop
endfacet
facet normal 7.280626116817335e-16 1.0 2.8949065367100957e-14
  outer loop
    vertex 912746.8575486819 1796706.8623158417 7000.000000000372
    vertex 740280.8575486817 1796706.8623158436 12482.500000000162
    vertex 912746.8575486819 1796706.862315843 12482.499999999953
  endloop
endfacet
facet normal 1.0 0.0 0.0
  outer loop
    vertex 912746.8575486819 1789706.8623158417 7000.0000000000255
    vertex 912746.8575486819 1791956.8623158424 12482.499999999422
    vertex 912746.8575486819 1789706.8623158413 12482.49999999829
  endloop
endfacet
facet normal 1.0 0.0 0.0
  outer loop
    vertex 912746.8575486819 1791956.8623158424 12482.499999999422
    vertex 912746.8575486819 1789706.8623158417 7000.0000000000255
    vertex 912746.8575486819 1791956.862315842 9482.49999999955
  endloop
endfacet
facet normal 1.0 0.0 0.0
  outer loop
    vertex 912746.8575486819 1796706.8623158417 7000.000000000372
    vertex 912746.8575486819 1791956.862315842 9482.49999999955
    vertex 912746.8575486819 1789706.8623158417 7000.0000000000255
  endloop
endfacet
facet normal 1.0 0.0 0.0
  outer loop
    vertex 912746.8575486819 1791956.862315842 9482.49999999955
    vertex 912746.8575486819 1796706.8623158417 7000.000000000372
    vertex 912746.8575486819 1794456.8623158417 9482.500000000475
  endloop
endfacet
facet normal 1.0 0.0 0.0
  outer loop
    vertex 912746.8575486819 1794456.8623158417 9482.500000000475
    vertex 912746.8575486819 1796706.862315843 12482.499999999953
    vertex 912746.8575486819 1794456.8623158413 12482.499999999076
  endloop
endfacet
facet normal 1.0 0.0 0.0
  outer loop
    vertex 912746.8575486819 1796706.862315843 12482.499999999953
    vertex 912746.8575486819 1794456.8623158417 9482.500000000475
    vertex 912746.8575486819 1796706.8623158417 7000.000000000372
  endloop
endfacet
facet normal -1.6743275069457425e-17 -1.0 4.163336342344337e-17
  outer loop
    vertex 912746.8575486819 1789706.8623158413 12482.49999999829
    vertex 740280.8575486817 1789706.8623158417 7000.0000000000255
    vertex 912746.8575486819 1789706.8623158417 7000.0000000000255
  endloop
endfacet
facet normal -1.6743275069457425e-17 -1.0 4.163336342344337e-17
  outer loop
    vertex 740280.8575486817 1789706.8623158417 7000.0000000000255
    vertex 912746.8575486819 1789706.8623158413 12482.49999999829
    vertex 740280.8575486817 1789706.8623158413 12482.49999999829
  endloop
endfacet
facet normal 0.0 6.245004513516506e-16 1.0
  outer loop
    vertex 912746.8575486819 1789706.8623158413 12482.49999999829
    vertex 740280.8575486817 1791956.8623158424 12482.499999999376
    vertex 740280.8575486817 1789706.8623158413 12482.49999999829
  endloop
endfacet
facet normal 0.0 6.245004513516506e-16 1.0
  outer loop
    vertex 740280.8575486817 1791956.8623158424 12482.499999999376
    vertex 912746.8575486819 1789706.8623158413 12482.49999999829
    vertex 912746.8575486819 1791956.8623158424 12482.499999999422
  endloop
endfacet
facet normal 0.0 -6.245004513516506e-16 -1.0
  outer loop
    vertex 912746.8575486819 1796706.8623158417 7000.000000000372
    vertex 740280.8575486817 1789706.8623158417 7000.0000000000255
    vertex 740280.8575486817 1796706.8623158417 7000.000000000372
  endloop
endfacet
facet normal 0.0 -6.245004513516506e-16 -1.0
  outer loop
    vertex 740280.8575486817 1789706.8623158417 7000.0000000000255
    vertex 912746.8575486819 1796706.8623158417 7000.000000000372
    vertex 912746.8575486819 1789706.8623158417 7000.0000000000255
  endloop
endfacet
facet normal 0.0 6.245004513516506e-16 1.0
  outer loop
    vertex 912746.8575486819 1791956.862315842 9482.49999999955
    vertex 740280.8575486817 1794456.8623158417 9482.500000000475
    vertex 740280.8575486817 1791956.862315842 9482.499999999503
  endloop
endfacet
facet normal 0.0 6.245004513516506e-16 1.0
  outer loop
    vertex 740280.8575486817 1794456.8623158417 9482.500000000475
    vertex 912746.8575486819 1791956.862315842 9482.49999999955
    vertex 912746.8575486819 1794456.8623158417 9482.500000000475
  endloop
endfacet
facet normal 1.0 0.0 0.0
  outer loop
    vertex 740280.8575486817 1796706.8623158417 7000.000000000372
    vertex 740280.8575486817 1791956.862315842 9482.499999999503
    vertex 740280.8575486817 1789706.8623158417 7000.0000000000255
  endloop
endfacet
facet normal 1.0 0.0 0.0
  outer loop
    vertex 740280.8575486817 1791956.862315842 9482.499999999503
    vertex 740280.8575486817 1796706.8623158417 7000.000000000372
    vertex 740280.8575486817 1794456.8623158417 9482.500000000475
  endloop
endfacet
facet normal 1.0 0.0 0.0
  outer loop
    vertex 740280.8575486817 1794456.8623158417 9482.500000000475
    vertex 740280.8575486817 1796706.8623158417 7000.000000000372
    vertex 740280.8575486817 1794456.8623158417 12482.499999999052
  endloop
endfacet
facet normal 1.0 0.0 0.0
  outer loop
    vertex 740280.8575486817 1794456.8623158417 12482.499999999052
    vertex 740280.8575486817 1796706.8623158417 7000.000000000372
    vertex 740280.8575486817 1796706.8623158436 12482.500000000162
  endloop
endfacet
facet normal 1.0 0.0 0.0
  outer loop
    vertex 740280.8575486817 1789706.8623158417 7000.0000000000255
    vertex 740280.8575486817 1791956.8623158424 12482.499999999376
    vertex 740280.8575486817 1789706.8623158413 12482.49999999829
  endloop
endfacet
facet normal 1.0 0.0 0.0
  outer loop
    vertex 740280.8575486817 1791956.8623158424 12482.499999999376
    vertex 740280.8575486817 1789706.8623158417 7000.0000000000255
    vertex 740280.8575486817 1791956.862315842 9482.499999999503
  endloop
endfacet
facet normal -8.350708440891891e-16 -1.0 -4.141131881851833e-14
  outer loop
    vertex 912746.8575486819 1794456.8623158413 12482.499999999076
    vertex 740280.8575486817 1794456.8623158417 9482.500000000475
    vertex 912746.8575486819 1794456.8623158417 9482.500000000475
  endloop
endfacet
facet normal -8.350708440891891e-16 -1.0 -4.141131881851833e-14
  outer loop
    vertex 740280.8575486817 1794456.8623158417 9482.500000000475
    vertex 912746.8575486819 1794456.8623158413 12482.499999999076
    vertex 740280.8575486817 1794456.8623158417 12482.499999999052
  endloop
endfacet
facet normal 1.4022492870670595e-16 1.0 -4.163336342344337e-17
  outer loop
    vertex 740280.8575486817 1791956.8623158424 12482.499999999376
    vertex 912746.8575486819 1791956.862315842 9482.49999999955
    vertex 740280.8575486817 1791956.862315842 9482.499999999503
  endloop
endfacet
facet normal 1.4022492870670595e-16 1.0 -4.163336342344337e-17
  outer loop
    vertex 912746.8575486819 1791956.862315842 9482.49999999955
    vertex 740280.8575486817 1791956.8623158424 12482.499999999376
    vertex 912746.8575486819 1791956.8623158424 12482.499999999422
  endloop
endfacet
endsolid PlexiglassBeaconEdges
