solid PlexiglassBeaconEdges
facet normal 1.1102230246251565e-16 0.0 -1.0
  outer loop
    vertex 1568044.48980756 975595.0918099332 2849.99999999971
    vertex 1561044.4898075603 844160.0918099331 2850.000000000033
    vertex 1561044.4898075603 975595.0918099332 2850.000000000033
  endloop
endfacet
facet normal 1.1102230246251565e-16 0.0 -1.0
  outer loop
    vertex 1561044.4898075603 844160.0918099331 2850.000000000033
    vertex 1568044.48980756 975595.0918099332 2849.99999999971
    vertex 1568044.48980756 844160.0918099331 2849.99999999971
  endloop
endfacet
facet normal -1.1102230246251565e-16 0.0 1.0
  outer loop
    vertex 1568044.4898075606 833402.5918099333 19772.749999999247
    vertex 1565794.489807561 975595.0918099332 19772.749999998923
    vertex 1565794.489807561 833402.5918099333 19772.749999998923
  endloop
endfacet
facet normal -1.1102230246251565e-16 0.0 1.0
  outer loop
    vertex 1565794.489807561 975595.0918099332 19772.749999998923
    vertex 1568044.4898075606 833402.5918099333 19772.749999999247
    vertex 1568044.4898075606 975595.0918099332 19772.749999999247
  endloop
endfacet
facet normal -1.1102230246251565e-16 0.0 1.0
  outer loop
    vertex 1563294.4898075603 833402.5918099333 19772.74999999897
    vertex 1561044.4898075603 975595.0918099332 19772.749999999294
    vertex 1561044.4898075603 833402.5918099333 19772.749999999294
  endloop
endfacet
facet normal -1.1102230246251565e-16 0.0 1.0
  outer loop
    vertex 1561044.4898075603 975595.0918099332 19772.749999999294
    vertex 1563294.4898075603 833402.5918099333 19772.74999999897
    vertex 1563294.4898075603 975595.0918099332 19772.74999999897
  endloop
endfacet
facet normal -1.0 1.2031928307233642e-16 -1.1102230246251565e-16
  outer loop
    vertex 1565794.489807561 975595.0918099332 19772.749999998923
    vertex 1565794.4898075606 841677.5918099337 6755.249999999248
    vertex 1565794.489807561 833402.5918099333 19772.749999998923
  endloop
endfacet
facet normal -1.0 1.2031928307233642e-16 -1.1102230246251565e-16
  outer loop
    vertex 1565794.4898075606 841677.5918099337 6755.249999999248
    vertex 1565794.489807561 975595.0918099332 19772.749999998923
    vertex 1565794.489807561 975595.0918099332 6755.249999999248
  endloop
endfacet
facet normal -1.1102230246251565e-16 0.0 1.0
  outer loop
    vertex 1565794.4898075606 841677.5918099337 6755.249999999248
    vertex 1563294.4898075603 975595.0918099332 6755.249999999294
    vertex 1563294.4898075603 841677.5918099337 6755.249999999294
  endloop
endfacet
facet normal -1.1102230246251565e-16 0.0 1.0
  outer loop
    vertex 1563294.4898075603 975595.0918099332 6755.249999999294
    vertex 1565794.4898075606 841677.5918099337 6755.249999999248
    vertex 1565794.489807561 975595.0918099332 6755.249999999248
  endloop
endfacet
facet normal -1.0 8.100072001255788e-17 2.4980018054066017e-16
  outer loop
    vertex 1561044.4898075599 975595.0918099332 6755.249999999756
    vertex 1561044.4898075603 844160.0918099331 2850.000000000033
    vertex 1561044.4898075599 841677.5918099337 6755.249999999756
  endloop
endfacet
facet normal -1.0 8.100072001255788e-17 2.4980018054066017e-16
  outer loop
    vertex 1561044.4898075603 844160.0918099331 2850.000000000033
    vertex 1561044.4898075599 975595.0918099332 6755.249999999756
    vertex 1561044.4898075603 975595.0918099332 2850.000000000033
  endloop
endfacet
facet normal 1.0 0.0 1.1102230246251565e-16
  outer loop
    vertex 1568044.48980756 844160.0918099331 2849.99999999971
    vertex 1568044.4898075606 975595.0918099332 19772.749999999247
    vertex 1568044.4898075606 833402.5918099333 19772.749999999247
  endloop
endfacet
facet normal 1.0 0.0 1.1102230246251565e-16
  outer loop
    vertex 1568044.4898075606 975595.0918099332 19772.749999999247
    vertex 1568044.48980756 844160.0918099331 2849.99999999971
    vertex 1568044.48980756 975595.0918099332 2849.99999999971
  endloop
endfacet
facet normal -0.0 1.0 -0.0
  outer loop
    vertex 1561044.4898075603 975595.0918099332 2850.000000000033
    vertex 1563294.4898075603 975595.0918099332 6755.249999999294
    vertex 1565794.489807561 975595.0918099332 6755.249999999248
  endloop
endfacet
facet normal -0.0 1.0 -0.0
  outer loop
    vertex 1563294.4898075603 975595.0918099332 6755.249999999294
    vertex 1561044.4898075603 975595.0918099332 2850.000000000033
    vertex 1561044.4898075599 975595.0918099332 6755.249999999756
  endloop
endfacet
facet normal -0.0 1.0 -0.0
  outer loop
    vertex 1563294.4898075603 975595.0918099332 6755.249999999294
    vertex 1561044.4898075599 975595.0918099332 6755.249999999756
    vertex 1563294.4898075603 975595.0918099332 19772.74999999897
  endloop
endfacet
facet normal -0.0 1.0 -0.0
  outer loop
    vertex 1563294.4898075603 975595.0918099332 19772.74999999897
    vertex 1561044.4898075599 975595.0918099332 6755.249999999756
    vertex 1561044.4898075603 975595.0918099332 19772.749999999294
  endloop
endfacet
facet normal -0.0 1.0 -0.0
  outer loop
    vertex 1568044.48980756 975595.0918099332 2849.99999999971
    vertex 1565794.489807561 975595.0918099332 6755.249999999248
    vertex 1568044.4898075606 975595.0918099332 19772.749999999247
  endloop
endfacet
facet normal -0.0 1.0 -0.0
  outer loop
    vertex 1565794.489807561 975595.0918099332 6755.249999999248
    vertex 1568044.48980756 975595.0918099332 2849.99999999971
    vertex 1561044.4898075603 975595.0918099332 2850.000000000033
  endloop
endfacet
facet normal -0.0 1.0 -0.0
  outer loop
    vertex 1568044.4898075606 975595.0918099332 19772.749999999247
    vertex 1565794.489807561 975595.0918099332 6755.249999999248
    vertex 1565794.489807561 975595.0918099332 19772.749999998923
  endloop
endfacet
facet normal -1.0 7.475135641520189e-17 2.4147350785597155e-15
  outer loop
    vertex 1561044.4898075603 975595.0918099332 19772.749999999294
    vertex 1561044.4898075599 841677.5918099337 6755.249999999756
    vertex 1561044.4898075603 833402.5918099333 19772.749999999294
  endloop
endfacet
facet normal -1.0 7.475135641520189e-17 2.4147350785597155e-15
  outer loop
    vertex 1561044.4898075599 841677.5918099337 6755.249999999756
    vertex 1561044.4898075603 975595.0918099332 19772.749999999294
    vertex 1561044.4898075599 975595.0918099332 6755.249999999756
  endloop
endfacet
facet normal -1.0005885009434223e-14 -0.843921661091488 -0.536466429462817
  outer loop
    vertex 1568044.48980756 844160.0918099331 2849.99999999971
    vertex 1565794.4898075606 841677.5918099337 6755.249999999248
    vertex 1561044.4898075603 844160.0918099331 2850.000000000033
  endloop
endfacet
facet normal -1.0005885009434223e-14 -0.843921661091488 -0.536466429462817
  outer loop
    vertex 1565794.4898075606 841677.5918099337 6755.249999999248
    vertex 1568044.48980756 844160.0918099331 2849.99999999971
    vertex 1568044.4898075606 833402.5918099333 19772.749999999247
  endloop
endfacet
facet normal -1.0005885009434223e-14 -0.843921661091488 -0.536466429462817
  outer loop
    vertex 1565794.4898075606 841677.5918099337 6755.249999999248
    vertex 1568044.4898075606 833402.5918099333 19772.749999999247
    vertex 1565794.489807561 833402.5918099333 19772.749999998923
  endloop
endfacet
facet normal -1.0005885009434223e-14 -0.843921661091488 -0.536466429462817
  outer loop
    vertex 1561044.4898075603 844160.0918099331 2850.000000000033
    vertex 1563294.4898075603 841677.5918099337 6755.249999999294
    vertex 1561044.4898075599 841677.5918099337 6755.249999999756
  endloop
endfacet
facet normal -1.0005885009434223e-14 -0.843921661091488 -0.536466429462817
  outer loop
    vertex 1563294.4898075603 841677.5918099337 6755.249999999294
    vertex 1561044.4898075603 844160.0918099331 2850.000000000033
    vertex 1565794.4898075606 841677.5918099337 6755.249999999248
  endloop
endfacet
facet normal -1.0005885009434223e-14 -0.843921661091488 -0.536466429462817
  outer loop
    vertex 1561044.4898075599 841677.5918099337 6755.249999999756
    vertex 1563294.4898075603 841677.5918099337 6755.249999999294
    vertex 1563294.4898075603 833402.5918099333 19772.74999999897
  endloop
endfacet
facet normal -1.0005885009434223e-14 -0.843921661091488 -0.536466429462817
  outer loop
    vertex 1561044.4898075599 841677.5918099337 6755.249999999756
    vertex 1563294.4898075603 833402.5918099333 19772.74999999897
    vertex 1561044.4898075603 833402.5918099333 19772.749999999294
  endloop
endfacet
facet normal 1.0 -1.2031928307233642e-16 2.220446049250313e-16
  outer loop
    vertex 1563294.4898075603 841677.5918099337 6755.249999999294
    vertex 1563294.4898075603 975595.0918099332 19772.74999999897
    vertex 1563294.4898075603 833402.5918099333 19772.74999999897
  endloop
endfacet
facet normal 1.0 -1.2031928307233642e-16 2.220446049250313e-16
  outer loop
    vertex 1563294.4898075603 975595.0918099332 19772.74999999897
    vertex 1563294.4898075603 841677.5918099337 6755.249999999294
    vertex 1563294.4898075603 975595.0918099332 6755.249999999294
  endloop
endfacet
endsolid PlexiglassBeaconEdges
