solid PrettyEdgesForPlexiglass
facet normal 2.3239614190422132e-16 8.843414889269918e-14 1.0
  outer loop
    vertex 165013.6152029602 65419.16974932332 3000.000000000095
    vertex 19013.61520296024 67919.16974932335 2999.9999999999077
    vertex 19013.61520296022 65419.16974932332 3000.000000000163
  endloop
endfacet
facet normal 2.3239614190422132e-16 8.843414889269918e-14 1.0
  outer loop
    vertex 19013.61520296024 67919.16974932335 2999.9999999999077
    vertex 165013.6152029602 65419.16974932332 3000.000000000095
    vertex 165013.6152029602 67919.16974932335 2999.9999999999077
  endloop
endfacet
facet normal 0.0 1.0 0.0
  outer loop
    vertex 19013.61520296022 70869.16974932369 7000.000000000001
    vertex 165013.6152029602 70869.16974932369 0.0
    vertex 19013.61520296022 70869.16974932369 0.0
  endloop
endfacet
facet normal 0.0 1.0 0.0
  outer loop
    vertex 165013.6152029602 70869.16974932369 0.0
    vertex 19013.61520296022 70869.16974932369 7000.000000000001
    vertex 165013.6152029602 70869.16974932369 7000.000000000001
  endloop
endfacet
facet normal 1.0 0.0 0.0
  outer loop
    vertex 165013.6152029602 62469.16974932369 0.0
    vertex 165013.6152029602 65419.16974932332 3000.000000000095
    vertex 165013.6152029602 62469.16974932369 7000.000000000001
  endloop
endfacet
facet normal 1.0 0.0 0.0
  outer loop
    vertex 165013.6152029602 65419.16974932332 3000.000000000095
    vertex 165013.6152029602 62469.16974932369 0.0
    vertex 165013.6152029602 70869.16974932369 0.0
  endloop
endfacet
facet normal 1.0 0.0 0.0
  outer loop
    vertex 165013.6152029602 65419.16974932332 3000.000000000095
    vertex 165013.6152029602 70869.16974932369 0.0
    vertex 165013.6152029602 67919.16974932335 2999.9999999999077
  endloop
endfacet
facet normal 1.0 0.0 0.0
  outer loop
    vertex 165013.6152029602 67919.16974932335 2999.9999999999077
    vertex 165013.6152029602 70869.16974932369 0.0
    vertex 165013.6152029602 67919.1697493237 6999.999999999908
  endloop
endfacet
facet normal 1.0 0.0 0.0
  outer loop
    vertex 165013.6152029602 67919.1697493237 6999.999999999908
    vertex 165013.6152029602 70869.16974932369 0.0
    vertex 165013.6152029602 70869.16974932369 7000.000000000001
  endloop
endfacet
facet normal 1.0 0.0 0.0
  outer loop
    vertex 165013.6152029602 65419.16974932368 7000.000000000095
    vertex 165013.6152029602 62469.16974932369 7000.000000000001
    vertex 165013.6152029602 65419.16974932332 3000.000000000095
  endloop
endfacet
facet normal -0.0 -1.0 -0.0
  outer loop
    vertex 165013.6152029602 52469.16974932369 7000.000000000001
    vertex 19013.61520296022 52469.16974932369 0.0
    vertex 165013.6152029602 52469.16974932369 0.0
  endloop
endfacet
facet normal -0.0 -1.0 -0.0
  outer loop
    vertex 19013.61520296022 52469.16974932369 0.0
    vertex 165013.6152029602 52469.16974932369 7000.000000000001
    vertex 19013.61520296022 52469.16974932369 7000.000000000001
  endloop
endfacet
facet normal -1.0 0.0 0.0
  outer loop
    vertex 19013.61520296022 55419.16974932368 7000.000000000162
    vertex 19013.61520296022 52469.16974932369 0.0
    vertex 19013.61520296022 52469.16974932369 7000.000000000001
  endloop
endfacet
facet normal -1.0 0.0 0.0
  outer loop
    vertex 19013.61520296022 52469.16974932369 0.0
    vertex 19013.61520296022 55419.16974932368 7000.000000000162
    vertex 19013.61520296022 55419.16974932332 3000.000000000163
  endloop
endfacet
facet normal -1.0 0.0 0.0
  outer loop
    vertex 19013.61520296022 55419.16974932332 3000.000000000163
    vertex 19013.61520296022 60869.169749323686 0.0
    vertex 19013.61520296022 52469.16974932369 0.0
  endloop
endfacet
facet normal -1.0 0.0 0.0
  outer loop
    vertex 19013.61520296022 60869.169749323686 0.0
    vertex 19013.61520296022 55419.16974932332 3000.000000000163
    vertex 19013.61520296024 57919.169749323344 2999.9999999999077
  endloop
endfacet
facet normal -1.0 0.0 0.0
  outer loop
    vertex 19013.61520296022 60869.169749323686 0.0
    vertex 19013.61520296024 57919.169749323344 2999.9999999999077
    vertex 19013.61520296024 57919.1697493237 6999.999999999908
  endloop
endfacet
facet normal -1.0 0.0 0.0
  outer loop
    vertex 19013.61520296022 60869.169749323686 0.0
    vertex 19013.61520296024 57919.1697493237 6999.999999999908
    vertex 19013.61520296022 60869.169749323686 7000.000000000001
  endloop
endfacet
facet normal 2.323961419042213e-16 -8.843414889270227e-15 1.0
  outer loop
    vertex 165013.6152029602 52469.16974932369 7000.000000000001
    vertex 19013.61520296022 55419.16974932368 7000.000000000162
    vertex 19013.61520296022 52469.16974932369 7000.000000000001
  endloop
endfacet
facet normal 2.323961419042213e-16 -8.843414889270227e-15 1.0
  outer loop
    vertex 19013.61520296022 55419.16974932368 7000.000000000162
    vertex 165013.6152029602 52469.16974932369 7000.000000000001
    vertex 165013.6152029602 55419.16974932368 7000.000000000095
  endloop
endfacet
facet normal -0.0 1.0 -0.0
  outer loop
    vertex 19013.61520296022 40869.169749323686 7000.000000000001
    vertex 311013.61520296027 40869.169749323686 -1.4438228390645235e-12
    vertex 19013.61520296022 40869.169749323686 -1.4438228390645235e-12
  endloop
endfacet
facet normal -0.0 1.0 -0.0
  outer loop
    vertex 311013.61520296027 40869.169749323686 -1.4438228390645235e-12
    vertex 19013.61520296022 40869.169749323686 7000.000000000001
    vertex 311013.61520296027 40869.169749323686 7000.000000000001
  endloop
endfacet
facet normal 0.0 -1.0 0.0
  outer loop
    vertex 311013.61520296027 34469.169749323686 7000.000000000001
    vertex 19013.61520296022 34469.169749323686 -1.4438228390645235e-12
    vertex 311013.61520296027 34469.169749323686 -1.4438228390645235e-12
  endloop
endfacet
facet normal 0.0 -1.0 0.0
  outer loop
    vertex 19013.61520296022 34469.169749323686 -1.4438228390645235e-12
    vertex 311013.61520296027 34469.169749323686 7000.000000000001
    vertex 19013.61520296022 34469.169749323686 7000.000000000001
  endloop
endfacet
facet normal -0.0 -0.0 1.0
  outer loop
    vertex 311013.61520296027 34469.169749323686 7000.000000000001
    vertex 19013.61520296022 36419.169749323686 7000.000000000004
    vertex 19013.61520296022 34469.169749323686 7000.000000000001
  endloop
endfacet
facet normal -0.0 -0.0 1.0
  outer loop
    vertex 19013.61520296022 36419.169749323686 7000.000000000004
    vertex 311013.61520296027 34469.169749323686 7000.000000000001
    vertex 311013.61520296027 36419.169749323686 7000.000000000004
  endloop
endfacet
facet normal 2.4722993819598005e-18 1.8047785488306478e-15 1.0
  outer loop
    vertex 19013.61520296022 36419.16974932368 3000.0000000000023
    vertex 311013.61520296027 38919.16974932367 2999.999999999995
    vertex 19013.615202960216 38919.16974932367 2999.9999999999964
  endloop
endfacet
facet normal 2.4722993819598005e-18 1.8047785488306478e-15 1.0
  outer loop
    vertex 311013.61520296027 38919.16974932367 2999.999999999995
    vertex 19013.61520296022 36419.16974932368 3000.0000000000023
    vertex 311013.61520296027 36419.16974932368 3000.0000000000023
  endloop
endfacet
facet normal 2.162094650374519e-32 -1.0 2.8876456781290462e-15
  outer loop
    vertex 311013.61520296027 38919.169749323686 6999.9999999999945
    vertex 19013.615202960216 38919.16974932367 2999.9999999999964
    vertex 311013.61520296027 38919.16974932367 2999.999999999995
  endloop
endfacet
facet normal 2.162094650374519e-32 -1.0 2.8876456781290462e-15
  outer loop
    vertex 19013.615202960216 38919.16974932367 2999.9999999999964
    vertex 311013.61520296027 38919.169749323686 6999.9999999999945
    vertex 19013.615202960216 38919.169749323686 6999.999999999997
  endloop
endfacet
facet normal 0.0 1.0 -2.887645678129046e-15
  outer loop
    vertex 19013.61520296022 36419.169749323686 7000.000000000004
    vertex 311013.61520296027 36419.16974932368 3000.0000000000023
    vertex 19013.61520296022 36419.16974932368 3000.0000000000023
  endloop
endfacet
facet normal 0.0 1.0 -2.887645678129046e-15
  outer loop
    vertex 311013.61520296027 36419.16974932368 3000.0000000000023
    vertex 19013.61520296022 36419.169749323686 7000.000000000004
    vertex 311013.61520296027 36419.169749323686 7000.000000000004
  endloop
endfacet
facet normal 0.0 0.0 -1.0
  outer loop
    vertex 222013.61520296006 50869.16974932369 0.0
    vertex 19013.61520296022 42469.169749323686 0.0
    vertex 19013.61520296022 50869.16974932369 0.0
  endloop
endfacet
facet normal 0.0 0.0 -1.0
  outer loop
    vertex 19013.61520296022 42469.169749323686 0.0
    vertex 222013.61520296006 50869.16974932369 0.0
    vertex 222013.61520296006 42469.169749323686 0.0
  endloop
endfacet
facet normal -0.0 -3.6095570976613063e-16 1.0
  outer loop
    vertex 222013.61520296006 42469.169749323686 7000.000000000001
    vertex 19013.61520296022 45419.16974932369 7000.000000000002
    vertex 19013.61520296022 42469.169749323686 7000.000000000001
  endloop
endfacet
facet normal -0.0 -3.6095570976613063e-16 1.0
  outer loop
    vertex 19013.61520296022 45419.16974932369 7000.000000000002
    vertex 222013.61520296006 42469.169749323686 7000.000000000001
    vertex 222013.61520296006 45419.16974932369 7000.000000000002
  endloop
endfacet
facet normal -0.0 1.0 -0.0
  outer loop
    vertex 19013.61520296022 50869.16974932369 7000.000000000001
    vertex 222013.61520296006 50869.16974932369 0.0
    vertex 19013.61520296022 50869.16974932369 0.0
  endloop
endfacet
facet normal -0.0 1.0 -0.0
  outer loop
    vertex 222013.61520296006 50869.16974932369 0.0
    vertex 19013.61520296022 50869.16974932369 7000.000000000001
    vertex 222013.61520296006 50869.16974932369 7000.000000000001
  endloop
endfacet
facet normal 1.0 -0.0 -0.0
  outer loop
    vertex 222013.61520296006 42469.169749323686 0.0
    vertex 222013.61520296006 45419.16974932369 3000.0000000000014
    vertex 222013.61520296006 42469.169749323686 7000.000000000001
  endloop
endfacet
facet normal 1.0 -0.0 -0.0
  outer loop
    vertex 222013.61520296006 45419.16974932369 3000.0000000000014
    vertex 222013.61520296006 42469.169749323686 0.0
    vertex 222013.61520296006 50869.16974932369 0.0
  endloop
endfacet
facet normal 1.0 -0.0 -0.0
  outer loop
    vertex 222013.61520296006 45419.16974932369 3000.0000000000014
    vertex 222013.61520296006 50869.16974932369 0.0
    vertex 222013.61520296006 47919.169749323686 3000.0000000000023
  endloop
endfacet
facet normal 1.0 -0.0 -0.0
  outer loop
    vertex 222013.61520296006 47919.169749323686 3000.0000000000023
    vertex 222013.61520296006 50869.16974932369 0.0
    vertex 222013.61520296006 47919.169749323686 7000.000000000002
  endloop
endfacet
facet normal 1.0 -0.0 -0.0
  outer loop
    vertex 222013.61520296006 47919.169749323686 7000.000000000002
    vertex 222013.61520296006 50869.16974932369 0.0
    vertex 222013.61520296006 50869.16974932369 7000.000000000001
  endloop
endfacet
facet normal 1.0 -0.0 -0.0
  outer loop
    vertex 222013.61520296006 45419.16974932369 7000.000000000002
    vertex 222013.61520296006 42469.169749323686 7000.000000000001
    vertex 222013.61520296006 45419.16974932369 3000.0000000000014
  endloop
endfacet
facet normal 0.0 -1.0 0.0
  outer loop
    vertex 222013.61520296006 42469.169749323686 7000.000000000001
    vertex 19013.61520296022 42469.169749323686 0.0
    vertex 222013.61520296006 42469.169749323686 0.0
  endloop
endfacet
facet normal 0.0 -1.0 0.0
  outer loop
    vertex 19013.61520296022 42469.169749323686 0.0
    vertex 222013.61520296006 42469.169749323686 7000.000000000001
    vertex 19013.61520296022 42469.169749323686 7000.000000000001
  endloop
endfacet
facet normal -1.0 0.0 0.0
  outer loop
    vertex 19013.61520296022 50869.16974932369 7000.000000000001
    vertex 19013.61520296022 47919.169749323686 3000.0000000000023
    vertex 19013.61520296022 47919.169749323686 7000.000000000002
  endloop
endfacet
facet normal -1.0 0.0 0.0
  outer loop
    vertex 19013.61520296022 45419.16974932369 7000.000000000002
    vertex 19013.61520296022 42469.169749323686 0.0
    vertex 19013.61520296022 42469.169749323686 7000.000000000001
  endloop
endfacet
facet normal -1.0 0.0 0.0
  outer loop
    vertex 19013.61520296022 42469.169749323686 0.0
    vertex 19013.61520296022 45419.16974932369 7000.000000000002
    vertex 19013.61520296022 45419.16974932369 3000.0000000000014
  endloop
endfacet
facet normal -1.0 0.0 0.0
  outer loop
    vertex 19013.61520296022 42469.169749323686 0.0
    vertex 19013.61520296022 45419.16974932369 3000.0000000000014
    vertex 19013.61520296022 50869.16974932369 0.0
  endloop
endfacet
facet normal -1.0 0.0 0.0
  outer loop
    vertex 19013.61520296022 50869.16974932369 0.0
    vertex 19013.61520296022 45419.16974932369 3000.0000000000014
    vertex 19013.61520296022 47919.169749323686 3000.0000000000023
  endloop
endfacet
facet normal -1.0 0.0 0.0
  outer loop
    vertex 19013.61520296022 50869.16974932369 0.0
    vertex 19013.61520296022 47919.169749323686 3000.0000000000023
    vertex 19013.61520296022 50869.16974932369 7000.000000000001
  endloop
endfacet
facet normal -0.0 3.6095570976613063e-16 1.0
  outer loop
    vertex 222013.61520296006 47919.169749323686 7000.000000000002
    vertex 19013.61520296022 50869.16974932369 7000.000000000001
    vertex 19013.61520296022 47919.169749323686 7000.000000000002
  endloop
endfacet
facet normal -0.0 3.6095570976613063e-16 1.0
  outer loop
    vertex 19013.61520296022 50869.16974932369 7000.000000000001
    vertex 222013.61520296006 47919.169749323686 7000.000000000002
    vertex 222013.61520296006 50869.16974932369 7000.000000000001
  endloop
endfacet
facet normal -0.0 -1.8047785488306478e-15 1.0
  outer loop
    vertex 222013.61520296006 45419.16974932369 3000.0000000000014
    vertex 19013.61520296022 47919.169749323686 3000.0000000000023
    vertex 19013.61520296022 45419.16974932369 3000.0000000000014
  endloop
endfacet
facet normal -0.0 -1.8047785488306478e-15 1.0
  outer loop
    vertex 19013.61520296022 47919.169749323686 3000.0000000000023
    vertex 222013.61520296006 45419.16974932369 3000.0000000000014
    vertex 222013.61520296006 47919.169749323686 3000.0000000000023
  endloop
endfacet
facet normal 0.0 1.0 0.0
  outer loop
    vertex 19013.61520296022 45419.16974932369 7000.000000000002
    vertex 222013.61520296006 45419.16974932369 3000.0000000000014
    vertex 19013.61520296022 45419.16974932369 3000.0000000000014
  endloop
endfacet
facet normal 0.0 1.0 0.0
  outer loop
    vertex 222013.61520296006 45419.16974932369 3000.0000000000014
    vertex 19013.61520296022 45419.16974932369 7000.000000000002
    vertex 222013.61520296006 45419.16974932369 7000.000000000002
  endloop
endfacet
facet normal 0.0 -1.0 0.0
  outer loop
    vertex 222013.61520296006 47919.169749323686 7000.000000000002
    vertex 19013.61520296022 47919.169749323686 3000.0000000000023
    vertex 222013.61520296006 47919.169749323686 3000.0000000000023
  endloop
endfacet
facet normal 0.0 -1.0 0.0
  outer loop
    vertex 19013.61520296022 47919.169749323686 3000.0000000000023
    vertex 222013.61520296006 47919.169749323686 7000.000000000002
    vertex 19013.61520296022 47919.169749323686 7000.000000000002
  endloop
endfacet
facet normal 0.0 0.0 -1.0
  outer loop
    vertex 165013.6152029602 60869.169749323686 0.0
    vertex 19013.61520296022 52469.16974932369 0.0
    vertex 19013.61520296022 60869.169749323686 0.0
  endloop
endfacet
facet normal 0.0 0.0 -1.0
  outer loop
    vertex 19013.61520296022 52469.16974932369 0.0
    vertex 165013.6152029602 60869.169749323686 0.0
    vertex 165013.6152029602 52469.16974932369 0.0
  endloop
endfacet
facet normal -0.0 1.0 0.0
  outer loop
    vertex 19013.61520296022 60869.169749323686 7000.000000000001
    vertex 165013.6152029602 60869.169749323686 0.0
    vertex 19013.61520296022 60869.169749323686 0.0
  endloop
endfacet
facet normal -0.0 1.0 0.0
  outer loop
    vertex 165013.6152029602 60869.169749323686 0.0
    vertex 19013.61520296022 60869.169749323686 7000.000000000001
    vertex 165013.6152029602 60869.169749323686 7000.000000000001
  endloop
endfacet
facet normal 1.0 0.0 0.0
  outer loop
    vertex 165013.6152029602 52469.16974932369 0.0
    vertex 165013.6152029602 55419.16974932332 3000.000000000095
    vertex 165013.6152029602 52469.16974932369 7000.000000000001
  endloop
endfacet
facet normal 1.0 0.0 0.0
  outer loop
    vertex 165013.6152029602 55419.16974932332 3000.000000000095
    vertex 165013.6152029602 52469.16974932369 0.0
    vertex 165013.6152029602 60869.169749323686 0.0
  endloop
endfacet
facet normal 1.0 0.0 0.0
  outer loop
    vertex 165013.6152029602 55419.16974932332 3000.000000000095
    vertex 165013.6152029602 60869.169749323686 0.0
    vertex 165013.6152029602 57919.169749323344 2999.9999999999077
  endloop
endfacet
facet normal 1.0 0.0 0.0
  outer loop
    vertex 165013.6152029602 57919.169749323344 2999.9999999999077
    vertex 165013.6152029602 60869.169749323686 0.0
    vertex 165013.6152029602 57919.1697493237 6999.999999999908
  endloop
endfacet
facet normal 1.0 0.0 0.0
  outer loop
    vertex 165013.6152029602 57919.1697493237 6999.999999999908
    vertex 165013.6152029602 60869.169749323686 0.0
    vertex 165013.6152029602 60869.169749323686 7000.000000000001
  endloop
endfacet
facet normal 1.0 0.0 0.0
  outer loop
    vertex 165013.6152029602 55419.16974932368 7000.000000000095
    vertex 165013.6152029602 52469.16974932369 7000.000000000001
    vertex 165013.6152029602 55419.16974932332 3000.000000000095
  endloop
endfacet
facet normal -0.0 -0.0 1.0
  outer loop
    vertex 19013.61520296024 57919.1697493237 6999.999999999908
    vertex 165013.6152029602 60869.169749323686 7000.000000000001
    vertex 19013.61520296022 60869.169749323686 7000.000000000001
  endloop
endfacet
facet normal -0.0 -0.0 1.0
  outer loop
    vertex 165013.6152029602 60869.169749323686 7000.000000000001
    vertex 19013.61520296024 57919.1697493237 6999.999999999908
    vertex 165013.6152029602 57919.1697493237 6999.999999999908
  endloop
endfacet
facet normal 2.3239614190422132e-16 8.843414889269918e-14 1.0
  outer loop
    vertex 165013.6152029602 55419.16974932332 3000.000000000095
    vertex 19013.61520296024 57919.169749323344 2999.9999999999077
    vertex 19013.61520296022 55419.16974932332 3000.000000000163
  endloop
endfacet
facet normal 2.3239614190422132e-16 8.843414889269918e-14 1.0
  outer loop
    vertex 19013.61520296024 57919.169749323344 2999.9999999999077
    vertex 165013.6152029602 55419.16974932332 3000.000000000095
    vertex 165013.6152029602 57919.169749323344 2999.9999999999077
  endloop
endfacet
facet normal -4.1103510030493507e-29 1.0 -8.843414889269919e-14
  outer loop
    vertex 19013.61520296022 55419.16974932332 3000.000000000163
    vertex 165013.6152029602 55419.16974932368 7000.000000000095
    vertex 165013.6152029602 55419.16974932332 3000.000000000095
  endloop
endfacet
facet normal -4.1103510030493507e-29 1.0 -8.843414889269919e-14
  outer loop
    vertex 165013.6152029602 55419.16974932368 7000.000000000095
    vertex 19013.61520296022 55419.16974932332 3000.000000000163
    vertex 19013.61520296022 55419.16974932368 7000.000000000162
  endloop
endfacet
facet normal 0.0 -1.0 8.843414889269919e-14
  outer loop
    vertex 165013.6152029602 57919.1697493237 6999.999999999908
    vertex 19013.61520296024 57919.169749323344 2999.9999999999077
    vertex 165013.6152029602 57919.169749323344 2999.9999999999077
  endloop
endfacet
facet normal 0.0 -1.0 8.843414889269919e-14
  outer loop
    vertex 19013.61520296024 57919.169749323344 2999.9999999999077
    vertex 165013.6152029602 57919.1697493237 6999.999999999908
    vertex 19013.61520296024 57919.1697493237 6999.999999999908
  endloop
endfacet
facet normal 4.9445987639196e-18 -4.812742796881746e-16 1.0
  outer loop
    vertex 311013.61520296027 38919.169749323686 6999.9999999999945
    vertex 19013.61520296022 40869.169749323686 7000.000000000001
    vertex 19013.615202960216 38919.169749323686 6999.999999999997
  endloop
endfacet
facet normal 4.9445987639196e-18 -4.812742796881746e-16 1.0
  outer loop
    vertex 19013.61520296022 40869.169749323686 7000.000000000001
    vertex 311013.61520296027 38919.169749323686 6999.9999999999945
    vertex 311013.61520296027 40869.169749323686 7000.000000000001
  endloop
endfacet
facet normal 0.0 0.0 -1.0
  outer loop
    vertex 311013.61520296027 40869.169749323686 -1.4438228390645235e-12
    vertex 19013.61520296022 34469.169749323686 -1.4438228390645235e-12
    vertex 19013.61520296022 40869.169749323686 -1.4438228390645235e-12
  endloop
endfacet
facet normal 0.0 0.0 -1.0
  outer loop
    vertex 19013.61520296022 34469.169749323686 -1.4438228390645235e-12
    vertex 311013.61520296027 40869.169749323686 -1.4438228390645235e-12
    vertex 311013.61520296027 34469.169749323686 -1.4438228390645235e-12
  endloop
endfacet
facet normal -1.0 -2.8089938503200505e-17 -6.232328801717365e-17
  outer loop
    vertex 19013.61520296022 36419.169749323686 7000.000000000004
    vertex 19013.61520296022 34469.169749323686 -1.4438228390645235e-12
    vertex 19013.61520296022 34469.169749323686 7000.000000000001
  endloop
endfacet
facet normal -1.0 -2.8089938503200505e-17 -6.232328801717365e-17
  outer loop
    vertex 19013.61520296022 34469.169749323686 -1.4438228390645235e-12
    vertex 19013.61520296022 36419.169749323686 7000.000000000004
    vertex 19013.61520296022 36419.16974932368 3000.0000000000023
  endloop
endfacet
facet normal -1.0 -2.8089938503200505e-17 -6.232328801717365e-17
  outer loop
    vertex 19013.61520296022 36419.16974932368 3000.0000000000023
    vertex 19013.61520296022 40869.169749323686 -1.4438228390645235e-12
    vertex 19013.61520296022 34469.169749323686 -1.4438228390645235e-12
  endloop
endfacet
facet normal -1.0 -2.8089938503200505e-17 -6.232328801717365e-17
  outer loop
    vertex 19013.61520296022 40869.169749323686 -1.4438228390645235e-12
    vertex 19013.61520296022 36419.16974932368 3000.0000000000023
    vertex 19013.615202960216 38919.16974932367 2999.9999999999964
  endloop
endfacet
facet normal -1.0 -2.8089938503200505e-17 -6.232328801717365e-17
  outer loop
    vertex 19013.61520296022 40869.169749323686 -1.4438228390645235e-12
    vertex 19013.615202960216 38919.16974932367 2999.9999999999964
    vertex 19013.615202960216 38919.169749323686 6999.999999999997
  endloop
endfacet
facet normal -1.0 -2.8089938503200505e-17 -6.232328801717365e-17
  outer loop
    vertex 19013.61520296022 40869.169749323686 -1.4438228390645235e-12
    vertex 19013.615202960216 38919.169749323686 6999.999999999997
    vertex 19013.61520296022 40869.169749323686 7000.000000000001
  endloop
endfacet
facet normal 1.0 -0.0 -0.0
  outer loop
    vertex 311013.61520296027 34469.169749323686 -1.4438228390645235e-12
    vertex 311013.61520296027 36419.16974932368 3000.0000000000023
    vertex 311013.61520296027 34469.169749323686 7000.000000000001
  endloop
endfacet
facet normal 1.0 -0.0 -0.0
  outer loop
    vertex 311013.61520296027 36419.16974932368 3000.0000000000023
    vertex 311013.61520296027 34469.169749323686 -1.4438228390645235e-12
    vertex 311013.61520296027 40869.169749323686 -1.4438228390645235e-12
  endloop
endfacet
facet normal 1.0 -0.0 -0.0
  outer loop
    vertex 311013.61520296027 36419.16974932368 3000.0000000000023
    vertex 311013.61520296027 40869.169749323686 -1.4438228390645235e-12
    vertex 311013.61520296027 38919.16974932367 2999.999999999995
  endloop
endfacet
facet normal 1.0 -0.0 -0.0
  outer loop
    vertex 311013.61520296027 38919.16974932367 2999.999999999995
    vertex 311013.61520296027 40869.169749323686 -1.4438228390645235e-12
    vertex 311013.61520296027 38919.169749323686 6999.9999999999945
  endloop
endfacet
facet normal 1.0 -0.0 -0.0
  outer loop
    vertex 311013.61520296027 38919.169749323686 6999.9999999999945
    vertex 311013.61520296027 40869.169749323686 -1.4438228390645235e-12
    vertex 311013.61520296027 40869.169749323686 7000.000000000001
  endloop
endfacet
facet normal 1.0 -0.0 -0.0
  outer loop
    vertex 311013.61520296027 36419.169749323686 7000.000000000004
    vertex 311013.61520296027 34469.169749323686 7000.000000000001
    vertex 311013.61520296027 36419.16974932368 3000.0000000000023
  endloop
endfacet
facet normal -0.0 -1.0 -0.0
  outer loop
    vertex 165013.6152029602 62469.16974932369 7000.000000000001
    vertex 19013.61520296022 62469.16974932369 0.0
    vertex 165013.6152029602 62469.16974932369 0.0
  endloop
endfacet
facet normal -0.0 -1.0 -0.0
  outer loop
    vertex 19013.61520296022 62469.16974932369 0.0
    vertex 165013.6152029602 62469.16974932369 7000.000000000001
    vertex 19013.61520296022 62469.16974932369 7000.000000000001
  endloop
endfacet
facet normal -1.0 0.0 0.0
  outer loop
    vertex 19013.61520296022 65419.16974932368 7000.000000000162
    vertex 19013.61520296022 62469.16974932369 0.0
    vertex 19013.61520296022 62469.16974932369 7000.000000000001
  endloop
endfacet
facet normal -1.0 0.0 0.0
  outer loop
    vertex 19013.61520296022 62469.16974932369 0.0
    vertex 19013.61520296022 65419.16974932368 7000.000000000162
    vertex 19013.61520296022 65419.16974932332 3000.000000000163
  endloop
endfacet
facet normal -1.0 0.0 0.0
  outer loop
    vertex 19013.61520296022 65419.16974932332 3000.000000000163
    vertex 19013.61520296022 70869.16974932369 0.0
    vertex 19013.61520296022 62469.16974932369 0.0
  endloop
endfacet
facet normal -1.0 0.0 0.0
  outer loop
    vertex 19013.61520296022 70869.16974932369 0.0
    vertex 19013.61520296022 65419.16974932332 3000.000000000163
    vertex 19013.61520296024 67919.16974932335 2999.9999999999077
  endloop
endfacet
facet normal -1.0 0.0 0.0
  outer loop
    vertex 19013.61520296022 70869.16974932369 0.0
    vertex 19013.61520296024 67919.16974932335 2999.9999999999077
    vertex 19013.61520296024 67919.1697493237 6999.999999999908
  endloop
endfacet
facet normal -1.0 0.0 0.0
  outer loop
    vertex 19013.61520296022 70869.16974932369 0.0
    vertex 19013.61520296024 67919.1697493237 6999.999999999908
    vertex 19013.61520296022 70869.16974932369 7000.000000000001
  endloop
endfacet
facet normal -4.1103510030493507e-29 1.0 -8.843414889269919e-14
  outer loop
    vertex 19013.61520296022 65419.16974932332 3000.000000000163
    vertex 165013.6152029602 65419.16974932368 7000.000000000095
    vertex 165013.6152029602 65419.16974932332 3000.000000000095
  endloop
endfacet
facet normal -4.1103510030493507e-29 1.0 -8.843414889269919e-14
  outer loop
    vertex 165013.6152029602 65419.16974932368 7000.000000000095
    vertex 19013.61520296022 65419.16974932332 3000.000000000163
    vertex 19013.61520296022 65419.16974932368 7000.000000000162
  endloop
endfacet
facet normal 0.0 -1.0 8.843414889269919e-14
  outer loop
    vertex 165013.6152029602 67919.1697493237 6999.999999999908
    vertex 19013.61520296024 67919.16974932335 2999.9999999999077
    vertex 165013.6152029602 67919.16974932335 2999.9999999999077
  endloop
endfacet
facet normal 0.0 -1.0 8.843414889269919e-14
  outer loop
    vertex 19013.61520296024 67919.16974932335 2999.9999999999077
    vertex 165013.6152029602 67919.1697493237 6999.999999999908
    vertex 19013.61520296024 67919.1697493237 6999.999999999908
  endloop
endfacet
facet normal 2.323961419042213e-16 -8.843414889270227e-15 1.0
  outer loop
    vertex 165013.6152029602 62469.16974932369 7000.000000000001
    vertex 19013.61520296022 65419.16974932368 7000.000000000162
    vertex 19013.61520296022 62469.16974932369 7000.000000000001
  endloop
endfacet
facet normal 2.323961419042213e-16 -8.843414889270227e-15 1.0
  outer loop
    vertex 19013.61520296022 65419.16974932368 7000.000000000162
    vertex 165013.6152029602 62469.16974932369 7000.000000000001
    vertex 165013.6152029602 65419.16974932368 7000.000000000095
  endloop
endfacet
facet normal 0.0 0.0 -1.0
  outer loop
    vertex 165013.6152029602 70869.16974932369 0.0
    vertex 19013.61520296022 62469.16974932369 0.0
    vertex 19013.61520296022 70869.16974932369 0.0
  endloop
endfacet
facet normal 0.0 0.0 -1.0
  outer loop
    vertex 19013.61520296022 62469.16974932369 0.0
    vertex 165013.6152029602 70869.16974932369 0.0
    vertex 165013.6152029602 62469.16974932369 0.0
  endloop
endfacet
facet normal 0.0 0.0 1.0
  outer loop
    vertex 19013.61520296024 67919.1697493237 6999.999999999908
    vertex 165013.6152029602 70869.16974932369 7000.000000000001
    vertex 19013.61520296022 70869.16974932369 7000.000000000001
  endloop
endfacet
facet normal 0.0 0.0 1.0
  outer loop
    vertex 165013.6152029602 70869.16974932369 7000.000000000001
    vertex 19013.61520296024 67919.1697493237 6999.999999999908
    vertex 165013.6152029602 67919.1697493237 6999.999999999908
  endloop
endfacet
endsolid PrettyEdgesForPlexiglass
