solid Untitled-58d94a37
facet normal 0.0 0.0 -1.0
  outer loop
    vertex 59669.76861354053 27149.11794206545 -5.775291356258094e-12
    vertex 39669.768613540546 2149.1179420654453 -5.775291356258094e-12
    vertex 39669.768613540546 27149.11794206545 -5.775291356258094e-12
  endloop
endfacet
facet normal 0.0 0.0 -1.0
  outer loop
    vertex 39669.768613540546 2149.1179420654453 -5.775291356258094e-12
    vertex 59669.76861354053 27149.11794206545 -5.775291356258094e-12
    vertex 59669.76861354053 2149.1179420654453 -5.775291356258094e-12
  endloop
endfacet
facet normal -3.8069982023870067e-16 -1.0 -4.854624243338705e-16
  outer loop
    vertex 59669.76861354053 2149.117942065432 11000.0
    vertex 39669.768613540546 2149.1179420654453 -5.775291356258094e-12
    vertex 59669.76861354053 2149.1179420654453 -5.775291356258094e-12
  endloop
endfacet
facet normal -3.8069982023870067e-16 -1.0 -4.854624243338705e-16
  outer loop
    vertex 39669.768613540546 2149.1179420654453 -5.775291356258094e-12
    vertex 59669.76861354053 2149.117942065432 11000.0
    vertex 39669.768613540546 2149.1179420654453 11000.000000000005
  endloop
endfacet
facet normal 1.1205280298879893e-16 -8.36908901991031e-18 1.0
  outer loop
    vertex 39669.768613540546 2149.1179420654453 11000.000000000005
    vertex 42669.768613540546 5149.117942065431 11000.000000000005
    vertex 39669.768613540546 27149.11794206545 11000.000000000005
  endloop
endfacet
facet normal 1.1205280298879893e-16 -8.36908901991031e-18 1.0
  outer loop
    vertex 42669.768613540546 5149.117942065431 11000.000000000005
    vertex 39669.768613540546 2149.1179420654453 11000.000000000005
    vertex 59669.76861354053 2149.117942065432 11000.0
  endloop
endfacet
facet normal 1.1205280298879893e-16 -8.36908901991031e-18 1.0
  outer loop
    vertex 42669.768613540546 5149.117942065431 11000.000000000005
    vertex 59669.76861354053 2149.117942065432 11000.0
    vertex 59669.76861354053 5149.117942065435 11000.000000000005
  endloop
endfacet
facet normal 1.1205280298879893e-16 -8.36908901991031e-18 1.0
  outer loop
    vertex 42669.768613540546 27149.11794206545 11000.000000000005
    vertex 39669.768613540546 27149.11794206545 11000.000000000005
    vertex 42669.768613540546 5149.117942065431 11000.000000000005
  endloop
endfacet
facet normal 1.0 -0.0 -0.0
  outer loop
    vertex 42669.768613540546 5149.117942065444 3000.000000000006
    vertex 42669.768613540546 27149.11794206545 11000.000000000005
    vertex 42669.768613540546 5149.117942065431 11000.000000000005
  endloop
endfacet
facet normal 1.0 -0.0 -0.0
  outer loop
    vertex 42669.768613540546 27149.11794206545 11000.000000000005
    vertex 42669.768613540546 5149.117942065444 3000.000000000006
    vertex 42669.768613540546 27149.11794206545 3000.0000000000005
  endloop
endfacet
facet normal -1.0 0.0 0.0
  outer loop
    vertex 39669.768613540546 27149.11794206545 11000.000000000005
    vertex 39669.768613540546 2149.1179420654453 -5.775291356258094e-12
    vertex 39669.768613540546 2149.1179420654453 11000.000000000005
  endloop
endfacet
facet normal -1.0 0.0 0.0
  outer loop
    vertex 39669.768613540546 2149.1179420654453 -5.775291356258094e-12
    vertex 39669.768613540546 27149.11794206545 11000.000000000005
    vertex 39669.768613540546 27149.11794206545 -5.775291356258094e-12
  endloop
endfacet
facet normal 1.0 -0.0 -0.0
  outer loop
    vertex 59669.76861354053 2149.1179420654453 -5.775291356258094e-12
    vertex 59669.76861354053 5149.117942065435 11000.000000000005
    vertex 59669.76861354053 2149.117942065432 11000.0
  endloop
endfacet
facet normal 1.0 -0.0 -0.0
  outer loop
    vertex 59669.76861354053 5149.117942065435 11000.000000000005
    vertex 59669.76861354053 2149.1179420654453 -5.775291356258094e-12
    vertex 59669.76861354053 5149.117942065449 3000.000000000006
  endloop
endfacet
facet normal 1.0 -0.0 -0.0
  outer loop
    vertex 59669.76861354053 5149.117942065449 3000.000000000006
    vertex 59669.76861354053 2149.1179420654453 -5.775291356258094e-12
    vertex 59669.76861354053 27149.11794206545 -5.775291356258094e-12
  endloop
endfacet
facet normal 1.0 -0.0 -0.0
  outer loop
    vertex 59669.76861354053 5149.117942065449 3000.000000000006
    vertex 59669.76861354053 27149.11794206545 -5.775291356258094e-12
    vertex 59669.76861354053 27149.11794206545 3000.0000000000005
  endloop
endfacet
facet normal -2.984757202335947e-32 2.2969908803299237e-16 1.0
  outer loop
    vertex 59669.76861354053 5149.117942065449 3000.000000000006
    vertex 42669.768613540546 27149.11794206545 3000.0000000000005
    vertex 42669.768613540546 5149.117942065444 3000.000000000006
  endloop
endfacet
facet normal -2.984757202335947e-32 2.2969908803299237e-16 1.0
  outer loop
    vertex 42669.768613540546 27149.11794206545 3000.0000000000005
    vertex 59669.76861354053 5149.117942065449 3000.000000000006
    vertex 59669.76861354053 27149.11794206545 3000.0000000000005
  endloop
endfacet
facet normal -2.547922657172689e-16 1.0 1.7145396213891219e-15
  outer loop
    vertex 42669.768613540546 5149.117942065431 11000.000000000005
    vertex 59669.76861354053 5149.117942065449 3000.000000000006
    vertex 42669.768613540546 5149.117942065444 3000.000000000006
  endloop
endfacet
facet normal -2.547922657172689e-16 1.0 1.7145396213891219e-15
  outer loop
    vertex 59669.76861354053 5149.117942065449 3000.000000000006
    vertex 42669.768613540546 5149.117942065431 11000.000000000005
    vertex 59669.76861354053 5149.117942065435 11000.000000000005
  endloop
endfacet
facet normal -0.0 1.0 -0.0
  outer loop
    vertex 39669.768613540546 27149.11794206545 -5.775291356258094e-12
    vertex 42669.768613540546 27149.11794206545 3000.0000000000005
    vertex 59669.76861354053 27149.11794206545 -5.775291356258094e-12
  endloop
endfacet
facet normal -0.0 1.0 -0.0
  outer loop
    vertex 42669.768613540546 27149.11794206545 3000.0000000000005
    vertex 39669.768613540546 27149.11794206545 -5.775291356258094e-12
    vertex 39669.768613540546 27149.11794206545 11000.000000000005
  endloop
endfacet
facet normal -0.0 1.0 -0.0
  outer loop
    vertex 42669.768613540546 27149.11794206545 3000.0000000000005
    vertex 39669.768613540546 27149.11794206545 11000.000000000005
    vertex 42669.768613540546 27149.11794206545 11000.000000000005
  endloop
endfacet
facet normal -0.0 1.0 -0.0
  outer loop
    vertex 59669.76861354053 27149.11794206545 3000.0000000000005
    vertex 59669.76861354053 27149.11794206545 -5.775291356258094e-12
    vertex 42669.768613540546 27149.11794206545 3000.0000000000005
  endloop
endfacet
facet normal -2.9518155820874996e-14 -2.857249407832955e-14 1.0
  outer loop
    vertex 25260.474432703926 5123.8370094651755 2999.9999999991387
    vertex 34260.4744327039 24123.837009465093 2999.9999999999472
    vertex 25260.474432703915 24123.83700946519 2999.9999999996817
  endloop
endfacet
facet normal -2.9518155820874996e-14 -2.857249407832955e-14 1.0
  outer loop
    vertex 34260.4744327039 24123.837009465093 2999.9999999999472
    vertex 25260.474432703926 5123.8370094651755 2999.9999999991387
    vertex 34260.47443270387 5123.837009465161 2999.9999999994043
  endloop
endfacet
facet normal -2.8579780855448078e-15 -1.0 -2.7445819538929823e-14
  outer loop
    vertex 37260.474432704 5123.83700946521 -5.48652678844519e-10
    vertex 25260.474432703926 5123.8370094651755 2999.9999999991387
    vertex 25260.47443270403 5123.837009465241 -8.951701602200046e-10
  endloop
endfacet
facet normal -2.8579780855448078e-15 -1.0 -2.7445819538929823e-14
  outer loop
    vertex 25260.474432703926 5123.8370094651755 2999.9999999991387
    vertex 37260.474432704 5123.83700946521 -5.48652678844519e-10
    vertex 34260.47443270387 5123.837009465161 2999.9999999994043
  endloop
endfacet
facet normal -2.8579780855448078e-15 -1.0 -2.7445819538929823e-14
  outer loop
    vertex 34260.47443270387 5123.837009465161 2999.9999999994043
    vertex 37260.474432704 5123.83700946521 -5.48652678844519e-10
    vertex 37260.47443270345 5123.837009464632 20999.999999999385
  endloop
endfacet
facet normal -2.8579780855448078e-15 -1.0 -2.7445819538929823e-14
  outer loop
    vertex 34260.47443270387 5123.837009465161 2999.9999999994043
    vertex 37260.47443270345 5123.837009464632 20999.999999999385
    vertex 34260.47443270348 5123.837009464657 20999.999999999407
  endloop
endfacet
facet normal 2.863581964144654e-14 2.902843813277091e-14 -1.0
  outer loop
    vertex 37260.47443270406 24123.83700946517 0.0
    vertex 25260.47443270403 5123.837009465241 -8.951701602200046e-10
    vertex 25260.47443270403 24123.837009465267 -3.4074219001922754e-10
  endloop
endfacet
facet normal 2.863581964144654e-14 2.902843813277091e-14 -1.0
  outer loop
    vertex 25260.47443270403 5123.837009465241 -8.951701602200046e-10
    vertex 37260.47443270406 24123.83700946517 0.0
    vertex 37260.474432704 5123.83700946521 -5.48652678844519e-10
  endloop
endfacet
facet normal 8.686011828618046e-15 1.0 2.60052930990414e-14
  outer loop
    vertex 25260.474432703915 24123.83700946519 2999.9999999996817
    vertex 37260.47443270406 24123.83700946517 0.0
    vertex 25260.47443270403 24123.837009465267 -3.4074219001922754e-10
  endloop
endfacet
facet normal 8.686011828618046e-15 1.0 2.60052930990414e-14
  outer loop
    vertex 37260.47443270406 24123.83700946517 0.0
    vertex 25260.474432703915 24123.83700946519 2999.9999999996817
    vertex 34260.4744327039 24123.837009465093 2999.9999999999472
  endloop
endfacet
facet normal 8.686011828618046e-15 1.0 2.60052930990414e-14
  outer loop
    vertex 37260.47443270406 24123.83700946517 0.0
    vertex 34260.4744327039 24123.837009465093 2999.9999999999472
    vertex 37260.47443270347 24123.837009464627 20999.999999999945
  endloop
endfacet
facet normal 8.686011828618046e-15 1.0 2.60052930990414e-14
  outer loop
    vertex 37260.47443270347 24123.837009464627 20999.999999999945
    vertex 34260.4744327039 24123.837009465093 2999.9999999999472
    vertex 34260.47443270347 24123.83700946463 20999.999999999956
  endloop
endfacet
facet normal -1.0 3.0396270296160395e-16 -2.278031590524024e-14
  outer loop
    vertex 34260.47443270347 24123.83700946463 20999.999999999956
    vertex 34260.47443270387 5123.837009465161 2999.9999999994043
    vertex 34260.47443270348 5123.837009464657 20999.999999999407
  endloop
endfacet
facet normal -1.0 3.0396270296160395e-16 -2.278031590524024e-14
  outer loop
    vertex 34260.47443270387 5123.837009465161 2999.9999999994043
    vertex 34260.47443270347 24123.83700946463 20999.999999999956
    vertex 34260.4744327039 24123.837009465093 2999.9999999999472
  endloop
endfacet
facet normal -1.0 -3.039627029598959e-16 -3.657684525630092e-14
  outer loop
    vertex 25260.474432703915 24123.83700946519 2999.9999999996817
    vertex 25260.47443270403 5123.837009465241 -8.951701602200046e-10
    vertex 25260.474432703926 5123.8370094651755 2999.9999999991387
  endloop
endfacet
facet normal -1.0 -3.039627029598959e-16 -3.657684525630092e-14
  outer loop
    vertex 25260.47443270403 5123.837009465241 -8.951701602200046e-10
    vertex 25260.474432703915 24123.83700946519 2999.9999999996817
    vertex 25260.47443270403 24123.837009465267 -3.4074219001922754e-10
  endloop
endfacet
facet normal 1.0 -2.1277389207274622e-15 2.7226373536645323e-14
  outer loop
    vertex 37260.474432704 5123.83700946521 -5.48652678844519e-10
    vertex 37260.47443270347 24123.837009464627 20999.999999999945
    vertex 37260.47443270345 5123.837009464632 20999.999999999385
  endloop
endfacet
facet normal 1.0 -2.1277389207274622e-15 2.7226373536645323e-14
  outer loop
    vertex 37260.47443270347 24123.837009464627 20999.999999999945
    vertex 37260.474432704 5123.83700946521 -5.48652678844519e-10
    vertex 37260.47443270406 24123.83700946517 0.0
  endloop
endfacet
facet normal 5.77529135625796e-15 -2.918041948425144e-14 1.0
  outer loop
    vertex 34260.47443270348 5123.837009464657 20999.999999999407
    vertex 37260.47443270347 24123.837009464627 20999.999999999945
    vertex 34260.47443270347 24123.83700946463 20999.999999999956
  endloop
endfacet
facet normal 5.77529135625796e-15 -2.918041948425144e-14 1.0
  outer loop
    vertex 37260.47443270347 24123.837009464627 20999.999999999945
    vertex 34260.47443270348 5123.837009464657 20999.999999999407
    vertex 37260.47443270345 5123.837009464632 20999.999999999385
  endloop
endfacet
endsolid Untitled-58d94a37
