solid PrettyCornersNewer
facet normal 0.0 -1.0 0.0
  outer loop
    vertex 114170.88095223896 981.8246554710336 12999.999999999027
    vertex 92170.88095223898 981.8246554710336 2999.999999999006
    vertex 114170.88095223907 981.8246554710336 2999.999999999006
  endloop
endfacet
facet normal 0.0 -1.0 0.0
  outer loop
    vertex 92170.88095223898 981.8246554710336 2999.999999999006
    vertex 114170.88095223896 981.8246554710336 12999.999999999027
    vertex 96970.88095223901 981.8246554710336 12999.999999999076
  endloop
endfacet
facet normal 0.0 -1.0 0.0
  outer loop
    vertex 92170.88095223898 981.8246554710336 2999.999999999006
    vertex 96970.88095223901 981.8246554710336 12999.999999999076
    vertex 92170.88095223896 981.8246554710336 22999.99999999908
  endloop
endfacet
facet normal 0.0 -1.0 0.0
  outer loop
    vertex 92170.88095223896 981.8246554710336 22999.99999999908
    vertex 96970.88095223901 981.8246554710336 12999.999999999076
    vertex 96970.88095223896 981.8246554710336 22999.999999999127
  endloop
endfacet
facet normal -2.5986157670132564e-14 0.0 1.0
  outer loop
    vertex 140971.9575424461 8030.9326775433865 20499.99999999919
    vertex 137471.95754244633 11730.932677543386 20499.999999999258
    vertex 137471.95754244633 8030.9326775433865 20499.999999999258
  endloop
endfacet
facet normal -2.5986157670132564e-14 0.0 1.0
  outer loop
    vertex 137471.95754244633 11730.932677543386 20499.999999999258
    vertex 140971.9575424461 8030.9326775433865 20499.99999999919
    vertex 140971.9575424461 11730.932677543386 20499.99999999919
  endloop
endfacet
facet normal -0.0 1.0 -0.0
  outer loop
    vertex 92170.88095223904 6981.824655471032 12999.999999998967
    vertex 107170.880952239 6981.824655471032 7999.999999999081
    vertex 92170.88095223896 6981.824655471032 7999.999999999037
  endloop
endfacet
facet normal -0.0 1.0 -0.0
  outer loop
    vertex 107170.880952239 6981.824655471032 7999.999999999081
    vertex 92170.88095223904 6981.824655471032 12999.999999998967
    vertex 107170.88095223896 6981.824655471032 12999.999999999134
  endloop
endfacet
facet normal 1.0 0.0 2.5986157670132564e-14
  outer loop
    vertex 140971.95754244627 11730.932677543386 10499.999999999283
    vertex 140971.9575424461 8030.9326775433865 20499.99999999919
    vertex 140971.95754244627 8030.9326775433865 10499.999999999283
  endloop
endfacet
facet normal 1.0 0.0 2.5986157670132564e-14
  outer loop
    vertex 140971.9575424461 8030.9326775433865 20499.99999999919
    vertex 140971.95754244627 11730.932677543386 10499.999999999283
    vertex 140971.9575424461 11730.932677543386 20499.99999999919
  endloop
endfacet
facet normal -1.0 0.0 -4.620233085006427e-15
  outer loop
    vertex 107170.88095223896 20981.82465547103 12999.999999999134
    vertex 107170.880952239 6981.824655471032 7999.999999999081
    vertex 107170.88095223896 6981.824655471032 12999.999999999134
  endloop
endfacet
facet normal -1.0 0.0 -4.620233085006427e-15
  outer loop
    vertex 107170.880952239 6981.824655471032 7999.999999999081
    vertex 107170.88095223896 20981.82465547103 12999.999999999134
    vertex 107170.880952239 20981.82465547103 7999.999999999081
  endloop
endfacet
facet normal -1.0 0.0 -2.5986157670132564e-14
  outer loop
    vertex 137471.95754244633 8030.9326775433865 20499.999999999258
    vertex 137471.9575424467 11730.932677543386 2999.999999999229
    vertex 137471.9575424467 8030.932677543385 2999.999999999229
  endloop
endfacet
facet normal -1.0 0.0 -2.5986157670132564e-14
  outer loop
    vertex 137471.9575424467 11730.932677543386 2999.999999999229
    vertex 137471.95754244633 8030.9326775433865 20499.999999999258
    vertex 137471.95754244633 11730.932677543386 20499.999999999258
  endloop
endfacet
facet normal 1.0 -0.0 9.240466170012931e-15
  outer loop
    vertex 114170.88095223907 20981.82465547103 2999.999999999006
    vertex 114170.88095223896 981.8246554710336 12999.999999999027
    vertex 114170.88095223907 981.8246554710336 2999.999999999006
  endloop
endfacet
facet normal 1.0 -0.0 9.240466170012931e-15
  outer loop
    vertex 114170.88095223896 981.8246554710336 12999.999999999027
    vertex 114170.88095223907 20981.82465547103 2999.999999999006
    vertex 114170.88095223896 20981.82465547103 12999.999999999027
  endloop
endfacet
facet normal -2.9839005340666763e-15 -2.127167745514735e-32 1.0
  outer loop
    vertex 107170.880952239 6981.824655471032 7999.999999999081
    vertex 92170.88095223896 20981.82465547103 7999.999999999037
    vertex 92170.88095223896 6981.824655471032 7999.999999999037
  endloop
endfacet
facet normal -2.9839005340666763e-15 -2.127167745514735e-32 1.0
  outer loop
    vertex 92170.88095223896 20981.82465547103 7999.999999999037
    vertex 107170.880952239 6981.824655471032 7999.999999999081
    vertex 107170.880952239 20981.82465547103 7999.999999999081
  endloop
endfacet
facet normal 0.0 0.0 -1.0
  outer loop
    vertex 114170.88095223907 20981.82465547103 2999.999999999006
    vertex 92170.88095223898 981.8246554710336 2999.999999999006
    vertex 92170.88095223898 20981.82465547103 2999.999999999006
  endloop
endfacet
facet normal 0.0 0.0 -1.0
  outer loop
    vertex 92170.88095223898 981.8246554710336 2999.999999999006
    vertex 114170.88095223907 20981.82465547103 2999.999999999006
    vertex 114170.88095223907 981.8246554710336 2999.999999999006
  endloop
endfacet
facet normal -2.1531655100514675e-15 -8.491475651203053e-16 1.0
  outer loop
    vertex 114170.88095223896 981.8246554710336 12999.999999999027
    vertex 96970.88095223901 3981.8246554710327 12999.999999999076
    vertex 96970.88095223901 981.8246554710336 12999.999999999076
  endloop
endfacet
facet normal -2.1531655100514675e-15 -8.491475651203053e-16 1.0
  outer loop
    vertex 96970.88095223901 3981.8246554710327 12999.999999999076
    vertex 114170.88095223896 981.8246554710336 12999.999999999027
    vertex 107170.88095223896 6981.824655471032 12999.999999999134
  endloop
endfacet
facet normal -2.1531655100514675e-15 -8.491475651203053e-16 1.0
  outer loop
    vertex 107170.88095223896 6981.824655471032 12999.999999999134
    vertex 114170.88095223896 981.8246554710336 12999.999999999027
    vertex 107170.88095223896 20981.82465547103 12999.999999999134
  endloop
endfacet
facet normal -2.1531655100514675e-15 -8.491475651203053e-16 1.0
  outer loop
    vertex 107170.88095223896 20981.82465547103 12999.999999999134
    vertex 114170.88095223896 981.8246554710336 12999.999999999027
    vertex 114170.88095223896 20981.82465547103 12999.999999999027
  endloop
endfacet
facet normal -2.1531655100514675e-15 -8.491475651203053e-16 1.0
  outer loop
    vertex 92170.88095223904 3981.8246554710327 12999.999999998987
    vertex 107170.88095223896 6981.824655471032 12999.999999999134
    vertex 92170.88095223904 6981.824655471032 12999.999999998967
  endloop
endfacet
facet normal -2.1531655100514675e-15 -8.491475651203053e-16 1.0
  outer loop
    vertex 107170.88095223896 6981.824655471032 12999.999999999134
    vertex 92170.88095223904 3981.8246554710327 12999.999999998987
    vertex 96970.88095223901 3981.8246554710327 12999.999999999076
  endloop
endfacet
facet normal -1.0 -1.1840005058387984e-15 -1.1107052364297381e-15
  outer loop
    vertex 92170.88095223896 3981.8246554710327 22999.99999999908
    vertex 92170.88095223898 981.8246554710336 2999.999999999006
    vertex 92170.88095223896 981.8246554710336 22999.99999999908
  endloop
endfacet
facet normal -1.0 -1.1840005058387984e-15 -1.1107052364297381e-15
  outer loop
    vertex 92170.88095223898 981.8246554710336 2999.999999999006
    vertex 92170.88095223896 3981.8246554710327 22999.99999999908
    vertex 92170.88095223904 3981.8246554710327 12999.999999998987
  endloop
endfacet
facet normal -1.0 -1.1840005058387984e-15 -1.1107052364297381e-15
  outer loop
    vertex 92170.88095223898 981.8246554710336 2999.999999999006
    vertex 92170.88095223904 3981.8246554710327 12999.999999998987
    vertex 92170.88095223896 6981.824655471032 7999.999999999037
  endloop
endfacet
facet normal -1.0 -1.1840005058387984e-15 -1.1107052364297381e-15
  outer loop
    vertex 92170.88095223898 981.8246554710336 2999.999999999006
    vertex 92170.88095223896 6981.824655471032 7999.999999999037
    vertex 92170.88095223898 20981.82465547103 2999.999999999006
  endloop
endfacet
facet normal -1.0 -1.1840005058387984e-15 -1.1107052364297381e-15
  outer loop
    vertex 92170.88095223896 6981.824655471032 7999.999999999037
    vertex 92170.88095223904 3981.8246554710327 12999.999999998987
    vertex 92170.88095223904 6981.824655471032 12999.999999998967
  endloop
endfacet
facet normal -1.0 -1.1840005058387984e-15 -1.1107052364297381e-15
  outer loop
    vertex 92170.88095223898 20981.82465547103 2999.999999999006
    vertex 92170.88095223896 6981.824655471032 7999.999999999037
    vertex 92170.88095223896 20981.82465547103 7999.999999999037
  endloop
endfacet
facet normal -0.0 1.0 -0.0
  outer loop
    vertex 92170.88095223896 20981.82465547103 7999.999999999037
    vertex 114170.88095223907 20981.82465547103 2999.999999999006
    vertex 92170.88095223898 20981.82465547103 2999.999999999006
  endloop
endfacet
facet normal -0.0 1.0 -0.0
  outer loop
    vertex 114170.88095223907 20981.82465547103 2999.999999999006
    vertex 92170.88095223896 20981.82465547103 7999.999999999037
    vertex 107170.880952239 20981.82465547103 7999.999999999081
  endloop
endfacet
facet normal -0.0 1.0 -0.0
  outer loop
    vertex 114170.88095223907 20981.82465547103 2999.999999999006
    vertex 107170.880952239 20981.82465547103 7999.999999999081
    vertex 114170.88095223896 20981.82465547103 12999.999999999027
  endloop
endfacet
facet normal -0.0 1.0 -0.0
  outer loop
    vertex 114170.88095223896 20981.82465547103 12999.999999999027
    vertex 107170.880952239 20981.82465547103 7999.999999999081
    vertex 107170.88095223896 20981.82465547103 12999.999999999134
  endloop
endfacet
facet normal 2.5986157670132564e-14 0.0 -1.0
  outer loop
    vertex 161471.9575424469 27730.932677543387 3000.00000000003
    vertex 157471.95754244647 11730.932677543386 2999.9999999999372
    vertex 157471.95754244647 27730.932677543387 2999.9999999999372
  endloop
endfacet
facet normal 2.5986157670132564e-14 0.0 -1.0
  outer loop
    vertex 157471.95754244647 11730.932677543386 2999.9999999999372
    vertex 137471.9575424467 8030.932677543385 2999.999999999229
    vertex 137471.9575424467 11730.932677543386 2999.999999999229
  endloop
endfacet
facet normal 2.5986157670132564e-14 0.0 -1.0
  outer loop
    vertex 137471.9575424467 8030.932677543385 2999.999999999229
    vertex 157471.95754244647 11730.932677543386 2999.9999999999372
    vertex 161471.9575424469 8030.932677543385 3000.00000000003
  endloop
endfacet
facet normal 2.5986157670132564e-14 0.0 -1.0
  outer loop
    vertex 161471.9575424469 8030.932677543385 3000.00000000003
    vertex 157471.95754244647 11730.932677543386 2999.9999999999372
    vertex 161471.9575424469 27730.932677543387 3000.00000000003
  endloop
endfacet
facet normal 2.5986157670132564e-14 0.0 -1.0
  outer loop
    vertex 161471.9575424469 8030.932677543385 3000.00000000003
    vertex 161471.9575424469 27730.932677543387 3000.00000000003
    vertex 161471.9575424469 11730.932677543386 3000.00000000003
  endloop
endfacet
facet normal -2.5986157670132564e-14 0.0 1.0
  outer loop
    vertex 161471.95754244633 11730.932677543386 5999.999999999932
    vertex 157471.9575424463 27730.932677543387 5999.99999999971
    vertex 157471.9575424463 11730.932677543386 5999.99999999971
  endloop
endfacet
facet normal -2.5986157670132564e-14 0.0 1.0
  outer loop
    vertex 157471.9575424463 27730.932677543387 5999.99999999971
    vertex 161471.95754244633 11730.932677543386 5999.999999999932
    vertex 161471.95754244633 27730.932677543387 5999.999999999932
  endloop
endfacet
facet normal 1.0 -0.0 3.4651748137548396e-15
  outer loop
    vertex 96970.88095223901 3981.8246554710327 12999.999999999076
    vertex 96970.88095223896 981.8246554710336 22999.999999999127
    vertex 96970.88095223901 981.8246554710336 12999.999999999076
  endloop
endfacet
facet normal 1.0 -0.0 3.4651748137548396e-15
  outer loop
    vertex 96970.88095223896 981.8246554710336 22999.999999999127
    vertex 96970.88095223901 3981.8246554710327 12999.999999999076
    vertex 96970.88095223896 3981.8246554710327 22999.999999999127
  endloop
endfacet
facet normal 0.0 1.0 0.0
  outer loop
    vertex 157471.9575424463 27730.932677543387 5999.99999999971
    vertex 161471.9575424469 27730.932677543387 3000.00000000003
    vertex 157471.95754244647 27730.932677543387 2999.9999999999372
  endloop
endfacet
facet normal 0.0 1.0 0.0
  outer loop
    vertex 161471.9575424469 27730.932677543387 3000.00000000003
    vertex 157471.9575424463 27730.932677543387 5999.99999999971
    vertex 161471.95754244633 27730.932677543387 5999.999999999932
  endloop
endfacet
facet normal -1.347061957899391e-17 -1.0 7.54223147404227e-17
  outer loop
    vertex 161471.95754244627 8030.932677543385 10499.999999999676
    vertex 140971.95754244627 8030.9326775433865 10499.999999999283
    vertex 161471.9575424469 8030.932677543385 3000.00000000003
  endloop
endfacet
facet normal -1.347061957899391e-17 -1.0 7.54223147404227e-17
  outer loop
    vertex 137471.9575424467 8030.932677543385 2999.999999999229
    vertex 140971.95754244627 8030.9326775433865 10499.999999999283
    vertex 137471.95754244633 8030.9326775433865 20499.999999999258
  endloop
endfacet
facet normal -1.347061957899391e-17 -1.0 7.54223147404227e-17
  outer loop
    vertex 140971.95754244627 8030.9326775433865 10499.999999999283
    vertex 137471.9575424467 8030.932677543385 2999.999999999229
    vertex 161471.9575424469 8030.932677543385 3000.00000000003
  endloop
endfacet
facet normal -1.347061957899391e-17 -1.0 7.54223147404227e-17
  outer loop
    vertex 137471.95754244633 8030.9326775433865 20499.999999999258
    vertex 140971.95754244627 8030.9326775433865 10499.999999999283
    vertex 140971.9575424461 8030.9326775433865 20499.99999999919
  endloop
endfacet
facet normal -2.5986157670132564e-14 0.0 1.0
  outer loop
    vertex 161471.95754244627 8030.932677543385 10499.999999999676
    vertex 140971.95754244627 11730.932677543386 10499.999999999283
    vertex 140971.95754244627 8030.9326775433865 10499.999999999283
  endloop
endfacet
facet normal -2.5986157670132564e-14 0.0 1.0
  outer loop
    vertex 140971.95754244627 11730.932677543386 10499.999999999283
    vertex 161471.95754244627 8030.932677543385 10499.999999999676
    vertex 161471.95754244627 11730.932677543386 10499.999999999676
  endloop
endfacet
facet normal 1.0 0.0 2.5986157670132564e-14
  outer loop
    vertex 161471.9575424469 11730.932677543386 3000.00000000003
    vertex 161471.95754244627 8030.932677543385 10499.999999999676
    vertex 161471.9575424469 8030.932677543385 3000.00000000003
  endloop
endfacet
facet normal 1.0 0.0 2.5986157670132564e-14
  outer loop
    vertex 161471.95754244627 8030.932677543385 10499.999999999676
    vertex 161471.9575424469 11730.932677543386 3000.00000000003
    vertex 161471.95754244627 11730.932677543386 10499.999999999676
  endloop
endfacet
facet normal 1.0 0.0 2.5986157670132564e-14
  outer loop
    vertex 161471.95754244627 11730.932677543386 10499.999999999676
    vertex 161471.9575424469 11730.932677543386 3000.00000000003
    vertex 161471.95754244633 11730.932677543386 5999.999999999932
  endloop
endfacet
facet normal -0.0 1.0 -0.0
  outer loop
    vertex 92170.88095223896 3981.8246554710327 22999.99999999908
    vertex 96970.88095223901 3981.8246554710327 12999.999999999076
    vertex 92170.88095223904 3981.8246554710327 12999.999999998987
  endloop
endfacet
facet normal -0.0 1.0 -0.0
  outer loop
    vertex 96970.88095223901 3981.8246554710327 12999.999999999076
    vertex 92170.88095223896 3981.8246554710327 22999.99999999908
    vertex 96970.88095223896 3981.8246554710327 22999.999999999127
  endloop
endfacet
facet normal 1.0 0.0 2.5986157670132564e-14
  outer loop
    vertex 161471.9575424469 27730.932677543387 3000.00000000003
    vertex 161471.95754244633 11730.932677543386 5999.999999999932
    vertex 161471.9575424469 11730.932677543386 3000.00000000003
  endloop
endfacet
facet normal 1.0 0.0 2.5986157670132564e-14
  outer loop
    vertex 161471.95754244633 11730.932677543386 5999.999999999932
    vertex 161471.9575424469 27730.932677543387 3000.00000000003
    vertex 161471.95754244633 27730.932677543387 5999.999999999932
  endloop
endfacet
facet normal 0.0 1.0 0.0
  outer loop
    vertex 137471.9575424467 11730.932677543386 2999.999999999229
    vertex 140971.95754244627 11730.932677543386 10499.999999999283
    vertex 157471.95754244647 11730.932677543386 2999.9999999999372
  endloop
endfacet
facet normal 0.0 1.0 0.0
  outer loop
    vertex 140971.95754244627 11730.932677543386 10499.999999999283
    vertex 137471.9575424467 11730.932677543386 2999.999999999229
    vertex 137471.95754244633 11730.932677543386 20499.999999999258
  endloop
endfacet
facet normal 0.0 1.0 0.0
  outer loop
    vertex 157471.95754244647 11730.932677543386 2999.9999999999372
    vertex 140971.95754244627 11730.932677543386 10499.999999999283
    vertex 157471.9575424463 11730.932677543386 5999.99999999971
  endloop
endfacet
facet normal 0.0 1.0 0.0
  outer loop
    vertex 157471.9575424463 11730.932677543386 5999.99999999971
    vertex 140971.95754244627 11730.932677543386 10499.999999999283
    vertex 161471.95754244633 11730.932677543386 5999.999999999932
  endloop
endfacet
facet normal 0.0 1.0 0.0
  outer loop
    vertex 140971.95754244627 11730.932677543386 10499.999999999283
    vertex 137471.95754244633 11730.932677543386 20499.999999999258
    vertex 140971.9575424461 11730.932677543386 20499.99999999919
  endloop
endfacet
facet normal 0.0 1.0 0.0
  outer loop
    vertex 161471.95754244627 11730.932677543386 10499.999999999676
    vertex 161471.95754244633 11730.932677543386 5999.999999999932
    vertex 140971.95754244627 11730.932677543386 10499.999999999283
  endloop
endfacet
facet normal -9.62548559376348e-15 -0.0 1.0
  outer loop
    vertex 96970.88095223896 981.8246554710336 22999.999999999127
    vertex 92170.88095223896 3981.8246554710327 22999.99999999908
    vertex 92170.88095223896 981.8246554710336 22999.99999999908
  endloop
endfacet
facet normal -9.62548559376348e-15 -0.0 1.0
  outer loop
    vertex 92170.88095223896 3981.8246554710327 22999.99999999908
    vertex 96970.88095223896 981.8246554710336 22999.999999999127
    vertex 96970.88095223896 3981.8246554710327 22999.999999999127
  endloop
endfacet
facet normal -1.0 0.0 -2.5986157670132564e-14
  outer loop
    vertex 157471.9575424463 27730.932677543387 5999.99999999971
    vertex 157471.95754244647 11730.932677543386 2999.9999999999372
    vertex 157471.9575424463 11730.932677543386 5999.99999999971
  endloop
endfacet
facet normal -1.0 0.0 -2.5986157670132564e-14
  outer loop
    vertex 157471.95754244647 11730.932677543386 2999.9999999999372
    vertex 157471.9575424463 27730.932677543387 5999.99999999971
    vertex 157471.95754244647 27730.932677543387 2999.9999999999372
  endloop
endfacet
endsolid PrettyCornersNewer
