solid PrettyCornersNewer
facet normal -2.9839005340666763e-15 -2.127167745514735e-32 1.0
  outer loop
    vertex 109170.880952239 5981.824655471032 7999.9999999990905
    vertex 92170.88095223896 20981.82465547103 7999.999999999037
    vertex 92170.88095223896 5981.824655471032 7999.999999999037
  endloop
endfacet
facet normal -2.9839005340666763e-15 -2.127167745514735e-32 1.0
  outer loop
    vertex 92170.88095223896 20981.82465547103 7999.999999999037
    vertex 109170.880952239 5981.824655471032 7999.9999999990905
    vertex 109170.880952239 20981.82465547103 7999.9999999990905
  endloop
endfacet
facet normal -9.62548559376348e-15 -0.0 1.0
  outer loop
    vertex 96970.88095223896 981.8246554710336 22999.999999999127
    vertex 92170.88095223896 3981.8246554710327 22999.99999999908
    vertex 92170.88095223896 981.8246554710336 22999.99999999908
  endloop
endfacet
facet normal -9.62548559376348e-15 -0.0 1.0
  outer loop
    vertex 92170.88095223896 3981.8246554710327 22999.99999999908
    vertex 96970.88095223896 981.8246554710336 22999.999999999127
    vertex 96970.88095223896 3981.8246554710327 22999.999999999127
  endloop
endfacet
facet normal 0.0 -1.0 0.0
  outer loop
    vertex 92170.88095223898 981.8246554710336 2999.999999999006
    vertex 96970.88095223901 981.8246554710336 12999.999999999076
    vertex 92170.88095223896 981.8246554710336 22999.99999999908
  endloop
endfacet
facet normal 0.0 -1.0 0.0
  outer loop
    vertex 96970.88095223901 981.8246554710336 12999.999999999076
    vertex 92170.88095223898 981.8246554710336 2999.999999999006
    vertex 116170.88095223907 981.8246554710336 2999.999999999024
  endloop
endfacet
facet normal 0.0 -1.0 0.0
  outer loop
    vertex 96970.88095223901 981.8246554710336 12999.999999999076
    vertex 116170.88095223907 981.8246554710336 2999.999999999024
    vertex 116170.88095223898 981.8246554710336 12999.999999999047
  endloop
endfacet
facet normal 0.0 -1.0 0.0
  outer loop
    vertex 92170.88095223896 981.8246554710336 22999.99999999908
    vertex 96970.88095223901 981.8246554710336 12999.999999999076
    vertex 96970.88095223896 981.8246554710336 22999.999999999127
  endloop
endfacet
facet normal -1.0 -1.1840005058387984e-15 -1.1107052364297381e-15
  outer loop
    vertex 92170.88095223896 3981.8246554710327 22999.99999999908
    vertex 92170.88095223898 981.8246554710336 2999.999999999006
    vertex 92170.88095223896 981.8246554710336 22999.99999999908
  endloop
endfacet
facet normal -1.0 -1.1840005058387984e-15 -1.1107052364297381e-15
  outer loop
    vertex 92170.88095223898 981.8246554710336 2999.999999999006
    vertex 92170.88095223896 3981.8246554710327 22999.99999999908
    vertex 92170.88095223904 3981.8246554710327 12999.999999998987
  endloop
endfacet
facet normal -1.0 -1.1840005058387984e-15 -1.1107052364297381e-15
  outer loop
    vertex 92170.88095223898 981.8246554710336 2999.999999999006
    vertex 92170.88095223904 3981.8246554710327 12999.999999998987
    vertex 92170.88095223896 5981.824655471032 7999.999999999037
  endloop
endfacet
facet normal -1.0 -1.1840005058387984e-15 -1.1107052364297381e-15
  outer loop
    vertex 92170.88095223898 981.8246554710336 2999.999999999006
    vertex 92170.88095223896 5981.824655471032 7999.999999999037
    vertex 92170.88095223898 20981.82465547103 2999.999999999006
  endloop
endfacet
facet normal -1.0 -1.1840005058387984e-15 -1.1107052364297381e-15
  outer loop
    vertex 92170.88095223896 5981.824655471032 7999.999999999037
    vertex 92170.88095223904 3981.8246554710327 12999.999999998987
    vertex 92170.88095223904 5981.824655471032 12999.999999998967
  endloop
endfacet
facet normal -1.0 -1.1840005058387984e-15 -1.1107052364297381e-15
  outer loop
    vertex 92170.88095223898 20981.82465547103 2999.999999999006
    vertex 92170.88095223896 5981.824655471032 7999.999999999037
    vertex 92170.88095223896 20981.82465547103 7999.999999999037
  endloop
endfacet
facet normal 1.0 -0.0 3.4651748137548396e-15
  outer loop
    vertex 96970.88095223901 3981.8246554710327 12999.999999999076
    vertex 96970.88095223896 981.8246554710336 22999.999999999127
    vertex 96970.88095223901 981.8246554710336 12999.999999999076
  endloop
endfacet
facet normal 1.0 -0.0 3.4651748137548396e-15
  outer loop
    vertex 96970.88095223896 981.8246554710336 22999.999999999127
    vertex 96970.88095223901 3981.8246554710327 12999.999999999076
    vertex 96970.88095223896 3981.8246554710327 22999.999999999127
  endloop
endfacet
facet normal -1.0 0.0 -4.620233085006427e-15
  outer loop
    vertex 109170.88095223898 20981.82465547103 12999.999999999143
    vertex 109170.880952239 5981.824655471032 7999.9999999990905
    vertex 109170.88095223898 5981.824655471032 12999.999999999143
  endloop
endfacet
facet normal -1.0 0.0 -4.620233085006427e-15
  outer loop
    vertex 109170.880952239 5981.824655471032 7999.9999999990905
    vertex 109170.88095223898 20981.82465547103 12999.999999999143
    vertex 109170.880952239 20981.82465547103 7999.9999999990905
  endloop
endfacet
facet normal -0.0 1.0 -0.0
  outer loop
    vertex 92170.88095223896 3981.8246554710327 22999.99999999908
    vertex 96970.88095223901 3981.8246554710327 12999.999999999076
    vertex 92170.88095223904 3981.8246554710327 12999.999999998987
  endloop
endfacet
facet normal -0.0 1.0 -0.0
  outer loop
    vertex 96970.88095223901 3981.8246554710327 12999.999999999076
    vertex 92170.88095223896 3981.8246554710327 22999.99999999908
    vertex 96970.88095223896 3981.8246554710327 22999.999999999127
  endloop
endfacet
facet normal 1.0 0.0 9.240466170012931e-15
  outer loop
    vertex 116170.88095223907 20981.82465547103 2999.999999999024
    vertex 116170.88095223898 981.8246554710336 12999.999999999047
    vertex 116170.88095223907 981.8246554710336 2999.999999999024
  endloop
endfacet
facet normal 1.0 0.0 9.240466170012931e-15
  outer loop
    vertex 116170.88095223898 981.8246554710336 12999.999999999047
    vertex 116170.88095223907 20981.82465547103 2999.999999999024
    vertex 116170.88095223898 20981.82465547103 12999.999999999047
  endloop
endfacet
facet normal -2.1531655100514675e-15 -8.491475651203053e-16 1.0
  outer loop
    vertex 116170.88095223898 981.8246554710336 12999.999999999047
    vertex 96970.88095223901 3981.8246554710327 12999.999999999076
    vertex 96970.88095223901 981.8246554710336 12999.999999999076
  endloop
endfacet
facet normal -2.1531655100514675e-15 -8.491475651203053e-16 1.0
  outer loop
    vertex 96970.88095223901 3981.8246554710327 12999.999999999076
    vertex 116170.88095223898 981.8246554710336 12999.999999999047
    vertex 109170.88095223898 5981.824655471032 12999.999999999143
  endloop
endfacet
facet normal -2.1531655100514675e-15 -8.491475651203053e-16 1.0
  outer loop
    vertex 109170.88095223898 5981.824655471032 12999.999999999143
    vertex 116170.88095223898 981.8246554710336 12999.999999999047
    vertex 109170.88095223898 20981.82465547103 12999.999999999143
  endloop
endfacet
facet normal -2.1531655100514675e-15 -8.491475651203053e-16 1.0
  outer loop
    vertex 109170.88095223898 20981.82465547103 12999.999999999143
    vertex 116170.88095223898 981.8246554710336 12999.999999999047
    vertex 116170.88095223898 20981.82465547103 12999.999999999047
  endloop
endfacet
facet normal -2.1531655100514675e-15 -8.491475651203053e-16 1.0
  outer loop
    vertex 92170.88095223904 3981.8246554710327 12999.999999998987
    vertex 109170.88095223898 5981.824655471032 12999.999999999143
    vertex 92170.88095223904 5981.824655471032 12999.999999998967
  endloop
endfacet
facet normal -2.1531655100514675e-15 -8.491475651203053e-16 1.0
  outer loop
    vertex 109170.88095223898 5981.824655471032 12999.999999999143
    vertex 92170.88095223904 3981.8246554710327 12999.999999998987
    vertex 96970.88095223901 3981.8246554710327 12999.999999999076
  endloop
endfacet
facet normal 0.0 1.0 0.0
  outer loop
    vertex 92170.88095223904 5981.824655471032 12999.999999998967
    vertex 109170.880952239 5981.824655471032 7999.9999999990905
    vertex 92170.88095223896 5981.824655471032 7999.999999999037
  endloop
endfacet
facet normal 0.0 1.0 0.0
  outer loop
    vertex 109170.880952239 5981.824655471032 7999.9999999990905
    vertex 92170.88095223904 5981.824655471032 12999.999999998967
    vertex 109170.88095223898 5981.824655471032 12999.999999999143
  endloop
endfacet
facet normal 0.0 0.0 -1.0
  outer loop
    vertex 116170.88095223907 20981.82465547103 2999.999999999024
    vertex 92170.88095223898 981.8246554710336 2999.999999999006
    vertex 92170.88095223898 20981.82465547103 2999.999999999006
  endloop
endfacet
facet normal 0.0 0.0 -1.0
  outer loop
    vertex 92170.88095223898 981.8246554710336 2999.999999999006
    vertex 116170.88095223907 20981.82465547103 2999.999999999024
    vertex 116170.88095223907 981.8246554710336 2999.999999999024
  endloop
endfacet
facet normal -0.0 1.0 -0.0
  outer loop
    vertex 92170.88095223896 20981.82465547103 7999.999999999037
    vertex 116170.88095223907 20981.82465547103 2999.999999999024
    vertex 92170.88095223898 20981.82465547103 2999.999999999006
  endloop
endfacet
facet normal -0.0 1.0 -0.0
  outer loop
    vertex 116170.88095223907 20981.82465547103 2999.999999999024
    vertex 92170.88095223896 20981.82465547103 7999.999999999037
    vertex 109170.880952239 20981.82465547103 7999.9999999990905
  endloop
endfacet
facet normal -0.0 1.0 -0.0
  outer loop
    vertex 116170.88095223907 20981.82465547103 2999.999999999024
    vertex 109170.880952239 20981.82465547103 7999.9999999990905
    vertex 116170.88095223898 20981.82465547103 12999.999999999047
  endloop
endfacet
facet normal -0.0 1.0 -0.0
  outer loop
    vertex 116170.88095223898 20981.82465547103 12999.999999999047
    vertex 109170.880952239 20981.82465547103 7999.9999999990905
    vertex 109170.88095223898 20981.82465547103 12999.999999999143
  endloop
endfacet
endsolid PrettyCornersNewer
