solid LinkagePVCSlide
facet normal 0.7933533402912358 -0.6087614290087199 1.4379376375508332e-32
  outer loop
    vertex 35058.09798050702 227475.14666712345 2997.000000000002
    vertex 32793.507608487074 224523.8750352152 22997.000000000004
    vertex 32793.507608487074 224523.8750352152 2997.000000000002
  endloop
endfacet
facet normal 0.7933533402912358 -0.6087614290087199 1.4379376375508332e-32
  outer loop
    vertex 32793.507608487074 224523.8750352152 22997.000000000004
    vertex 35058.09798050702 227475.14666712345 2997.000000000002
    vertex 35058.09798050702 227475.14666712345 22997.000000000004
  endloop
endfacet
facet normal 0.9914448613738106 0.1305261922200502 1.9811170005176678e-32
  outer loop
    vertex 60830.66428961267 221604.68451813114 2997.000000000002
    vertex 61384.369612415314 217398.87503521517 22997.000000000004
    vertex 61384.369612415314 217398.87503521517 2997.000000000002
  endloop
endfacet
facet normal 0.9914448613738106 0.1305261922200502 1.9811170005176678e-32
  outer loop
    vertex 61384.369612415314 217398.87503521517 22997.000000000004
    vertex 60830.66428961267 221604.68451813114 2997.000000000002
    vertex 60830.66428961267 221604.68451813114 22997.000000000004
  endloop
endfacet
facet normal -0.6087614290087209 0.7933533402912352 -1.0359675969126236e-32
  outer loop
    vertex 52259.369612415314 205058.01303128692 22997.000000000004
    vertex 55210.64124432362 207322.6034033069 2997.000000000002
    vertex 52259.369612415314 205058.01303128692 2997.000000000002
  endloop
endfacet
facet normal -0.6087614290087209 0.7933533402912352 -1.0359675969126236e-32
  outer loop
    vertex 55210.64124432362 207322.6034033069 2997.000000000002
    vertex 52259.369612415314 205058.01303128692 22997.000000000004
    vertex 55210.64124432362 207322.6034033069 22997.000000000004
  endloop
endfacet
facet normal 0.13052619222005157 0.9914448613738104 4.621035440584853e-33
  outer loop
    vertex 41446.198219704405 203634.43201059598 22997.000000000004
    vertex 45134.36961241532 203148.87503521517 2997.000000000002
    vertex 41446.198219704405 203634.43201059598 2997.000000000002
  endloop
endfacet
facet normal 0.13052619222005157 0.9914448613738104 4.621035440584853e-33
  outer loop
    vertex 45134.36961241532 203148.87503521517 2997.000000000002
    vertex 41446.198219704405 203634.43201059598 22997.000000000004
    vertex 45134.36961241532 203148.87503521517 22997.000000000004
  endloop
endfacet
facet normal 0.9914448613738103 0.13052619222005288 1.9811170005176678e-32
  outer loop
    vertex 30884.369612415318 217398.87503521517 2997.000000000002
    vertex 31369.9265877961 213710.70364250426 22997.000000000004
    vertex 31369.9265877961 213710.70364250426 2997.000000000002
  endloop
endfacet
facet normal 0.9914448613738103 0.13052619222005288 1.9811170005176678e-32
  outer loop
    vertex 31369.9265877961 213710.70364250426 22997.000000000004
    vertex 30884.369612415318 217398.87503521517 2997.000000000002
    vertex 30884.369612415318 217398.87503521517 22997.000000000004
  endloop
endfacet
facet normal -0.9914448613738105 -0.13052619222005057 -1.9811170005176676e-32
  outer loop
    vertex 28884.36961241532 217398.87503521517 22997.000000000004
    vertex 29438.07493521796 213193.06555229923 2997.000000000002
    vertex 29438.07493521796 213193.06555229923 22997.000000000004
  endloop
endfacet
facet normal -0.9914448613738105 -0.13052619222005057 -1.9811170005176676e-32
  outer loop
    vertex 29438.07493521796 213193.06555229923 2997.000000000002
    vertex 28884.36961241532 217398.87503521517 22997.000000000004
    vertex 28884.36961241532 217398.87503521517 2997.000000000002
  endloop
endfacet
facet normal 0.9914448613738104 -0.13052619222005157 1.927182969791381e-32
  outer loop
    vertex 31369.9265877961 221087.04642792608 2997.000000000002
    vertex 30884.369612415318 217398.87503521517 22997.000000000004
    vertex 30884.369612415318 217398.87503521517 2997.000000000002
  endloop
endfacet
facet normal 0.9914448613738104 -0.13052619222005157 1.927182969791381e-32
  outer loop
    vertex 30884.369612415318 217398.87503521517 22997.000000000004
    vertex 31369.9265877961 221087.04642792608 2997.000000000002
    vertex 31369.9265877961 221087.04642792608 22997.000000000004
  endloop
endfacet
facet normal 0.6087614290087223 0.7933533402912338 1.3637848932291636e-32
  outer loop
    vertex 53259.36961241531 231471.78784671234 22997.000000000004
    vertex 56624.854806696705 228889.36022949658 2997.000000000002
    vertex 53259.36961241531 231471.78784671234 2997.000000000002
  endloop
endfacet
facet normal 0.6087614290087223 0.7933533402912338 1.3637848932291636e-32
  outer loop
    vertex 56624.854806696705 228889.36022949658 2997.000000000002
    vertex 53259.36961241531 231471.78784671234 22997.000000000004
    vertex 56624.854806696705 228889.36022949658 22997.000000000004
  endloop
endfacet
facet normal 0.9238795325112866 -0.3826834323650899 1.741914604494252e-32
  outer loop
    vertex 32793.507608487074 224523.8750352152 2997.000000000002
    vertex 31369.9265877961 221087.04642792608 22997.000000000004
    vertex 31369.9265877961 221087.04642792608 2997.000000000002
  endloop
endfacet
facet normal 0.9238795325112866 -0.3826834323650899 1.741914604494252e-32
  outer loop
    vertex 31369.9265877961 221087.04642792608 22997.000000000004
    vertex 32793.507608487074 224523.8750352152 2997.000000000002
    vertex 32793.507608487074 224523.8750352152 22997.000000000004
  endloop
endfacet
facet normal 0.7933533402912352 0.6087614290087205 1.6894806961408062e-32
  outer loop
    vertex 32793.507608487074 210273.87503521517 2997.000000000002
    vertex 35058.09798050702 207322.6034033069 22997.000000000004
    vertex 35058.09798050702 207322.6034033069 2997.000000000002
  endloop
endfacet
facet normal 0.7933533402912352 0.6087614290087205 1.6894806961408062e-32
  outer loop
    vertex 35058.09798050702 207322.6034033069 22997.000000000004
    vertex 32793.507608487074 210273.87503521517 2997.000000000002
    vertex 32793.507608487074 210273.87503521517 22997.000000000004
  endloop
endfacet
facet normal 0.38268343236508995 -0.9238795325112866 5.633980765622208e-33
  outer loop
    vertex 53259.369612415314 203325.96222371806 22997.000000000004
    vertex 49340.17909533128 201702.58035801782 2997.000000000002
    vertex 53259.369612415314 203325.96222371806 2997.000000000002
  endloop
endfacet
facet normal 0.38268343236508995 -0.9238795325112866 5.633980765622208e-33
  outer loop
    vertex 49340.17909533128 201702.58035801782 2997.000000000002
    vertex 53259.369612415314 203325.96222371806 22997.000000000004
    vertex 49340.17909533128 201702.58035801782 22997.000000000004
  endloop
endfacet
facet normal -0.9914448613738103 0.13052619222005288 -1.92718296979138e-32
  outer loop
    vertex 59384.369612415314 217398.87503521517 22997.000000000004
    vertex 58898.812637034534 213710.70364250426 2997.000000000002
    vertex 58898.812637034534 213710.70364250426 22997.000000000004
  endloop
endfacet
facet normal -0.9914448613738103 0.13052619222005288 -1.92718296979138e-32
  outer loop
    vertex 58898.812637034534 213710.70364250426 2997.000000000002
    vertex 59384.369612415314 217398.87503521517 22997.000000000004
    vertex 59384.369612415314 217398.87503521517 2997.000000000002
  endloop
endfacet
facet normal -0.9238795325112865 -0.3826834323650905 -1.9000411816093165e-32
  outer loop
    vertex 57475.23161634356 224523.8750352152 22997.000000000004
    vertex 58898.812637034534 221087.04642792614 2997.000000000002
    vertex 58898.812637034534 221087.04642792614 22997.000000000004
  endloop
endfacet
facet normal -0.9238795325112865 -0.3826834323650905 -1.9000411816093165e-32
  outer loop
    vertex 58898.812637034534 221087.04642792614 2997.000000000002
    vertex 57475.23161634356 224523.8750352152 22997.000000000004
    vertex 57475.23161634356 224523.8750352152 2997.000000000002
  endloop
endfacet
facet normal 0.9238795325112861 0.3826834323650916 1.900041181609316e-32
  outer loop
    vertex 59207.28242391244 225523.8750352152 2997.000000000002
    vertex 60830.66428961267 221604.68451813114 22997.000000000004
    vertex 60830.66428961267 221604.68451813114 2997.000000000002
  endloop
endfacet
facet normal 0.9238795325112861 0.3826834323650916 1.900041181609316e-32
  outer loop
    vertex 60830.66428961267 221604.68451813114 22997.000000000004
    vertex 59207.28242391244 225523.8750352152 2997.000000000002
    vertex 59207.28242391244 225523.8750352152 22997.000000000004
  endloop
endfacet
facet normal -0.13052619222005138 0.9914448613738105 -5.243390835344547e-34
  outer loop
    vertex 45134.36961241532 203148.87503521517 22997.000000000004
    vertex 48822.54100512624 203634.43201059598 2997.000000000002
    vertex 45134.36961241532 203148.87503521517 2997.000000000002
  endloop
endfacet
facet normal -0.13052619222005138 0.9914448613738105 -5.243390835344547e-34
  outer loop
    vertex 48822.54100512624 203634.43201059598 2997.000000000002
    vertex 45134.36961241532 203148.87503521517 22997.000000000004
    vertex 48822.54100512624 203634.43201059598 22997.000000000004
  endloop
endfacet
facet normal 0.923879532511287 0.3826834323650894 1.900041181609317e-32
  outer loop
    vertex 31369.9265877961 213710.70364250426 2997.000000000002
    vertex 32793.507608487074 210273.87503521517 22997.000000000004
    vertex 32793.507608487074 210273.87503521517 2997.000000000002
  endloop
endfacet
facet normal 0.923879532511287 0.3826834323650894 1.900041181609317e-32
  outer loop
    vertex 32793.507608487074 210273.87503521517 22997.000000000004
    vertex 31369.9265877961 213710.70364250426 2997.000000000002
    vertex 31369.9265877961 213710.70364250426 22997.000000000004
  endloop
endfacet
facet normal -0.7933533402912358 -0.6087614290087199 -1.6894806961408076e-32
  outer loop
    vertex 55210.64124432362 227475.14666712348 22997.000000000004
    vertex 57475.23161634356 224523.8750352152 2997.000000000002
    vertex 57475.23161634356 224523.8750352152 22997.000000000004
  endloop
endfacet
facet normal -0.7933533402912358 -0.6087614290087199 -1.6894806961408076e-32
  outer loop
    vertex 57475.23161634356 224523.8750352152 2997.000000000002
    vertex 55210.64124432362 227475.14666712348 22997.000000000004
    vertex 55210.64124432362 227475.14666712348 2997.000000000002
  endloop
endfacet
facet normal -0.3826834323650905 -0.9238795325112865 -9.45149403605046e-33
  outer loop
    vertex 52259.3696124153 229739.73703914342 22997.000000000004
    vertex 48822.54100512624 231163.31805983442 2997.000000000002
    vertex 52259.3696124153 229739.73703914342 2997.000000000002
  endloop
endfacet
facet normal -0.3826834323650905 -0.9238795325112865 -9.45149403605046e-33
  outer loop
    vertex 48822.54100512624 231163.31805983442 2997.000000000002
    vertex 52259.3696124153 229739.73703914342 22997.000000000004
    vertex 48822.54100512624 231163.31805983442 22997.000000000004
  endloop
endfacet
facet normal -0.7933533402912358 0.6087614290087199 -1.4379376375508332e-32
  outer loop
    vertex 57475.23161634356 210273.87503521517 22997.000000000004
    vertex 55210.64124432362 207322.6034033069 2997.000000000002
    vertex 55210.64124432362 207322.6034033069 22997.000000000004
  endloop
endfacet
facet normal -0.7933533402912358 0.6087614290087199 -1.4379376375508332e-32
  outer loop
    vertex 55210.64124432362 207322.6034033069 2997.000000000002
    vertex 57475.23161634356 210273.87503521517 22997.000000000004
    vertex 57475.23161634356 210273.87503521517 2997.000000000002
  endloop
endfacet
facet normal 0.6087614290087207 -0.7933533402912352 1.035967596912623e-32
  outer loop
    vertex 56624.85480669672 205908.38984093379 22997.000000000004
    vertex 53259.369612415314 203325.96222371806 2997.000000000002
    vertex 56624.85480669672 205908.38984093379 2997.000000000002
  endloop
endfacet
facet normal 0.6087614290087207 -0.7933533402912352 1.035967596912623e-32
  outer loop
    vertex 53259.369612415314 203325.96222371806 2997.000000000002
    vertex 56624.85480669672 205908.38984093379 22997.000000000004
    vertex 53259.369612415314 203325.96222371806 22997.000000000004
  endloop
endfacet
facet normal 0.9238795325112873 -0.38268343236508884 1.7419146044942534e-32
  outer loop
    vertex 60830.66428961267 213193.06555229923 2997.000000000002
    vertex 59207.282423912446 209273.87503521517 22997.000000000004
    vertex 59207.282423912446 209273.87503521517 2997.000000000002
  endloop
endfacet
facet normal 0.9238795325112873 -0.38268343236508884 1.7419146044942534e-32
  outer loop
    vertex 59207.282423912446 209273.87503521517 22997.000000000004
    vertex 60830.66428961267 213193.06555229923 2997.000000000002
    vertex 60830.66428961267 213193.06555229923 22997.000000000004
  endloop
endfacet
facet normal 0.3826834323650894 0.923879532511287 9.451494036050439e-33
  outer loop
    vertex 38009.36961241532 205058.01303128692 22997.000000000004
    vertex 41446.198219704405 203634.43201059598 2997.000000000002
    vertex 38009.36961241532 205058.01303128692 2997.000000000002
  endloop
endfacet
facet normal 0.3826834323650894 0.923879532511287 9.451494036050439e-33
  outer loop
    vertex 41446.198219704405 203634.43201059598 2997.000000000002
    vertex 38009.36961241532 205058.01303128692 22997.000000000004
    vertex 41446.198219704405 203634.43201059598 22997.000000000004
  endloop
endfacet
facet normal 0.7933533402912348 -0.6087614290087213 1.4379376375508308e-32
  outer loop
    vertex 59207.282423912446 209273.87503521517 2997.000000000002
    vertex 56624.85480669672 205908.38984093379 22997.000000000004
    vertex 56624.85480669672 205908.38984093379 2997.000000000002
  endloop
endfacet
facet normal 0.7933533402912348 -0.6087614290087213 1.4379376375508308e-32
  outer loop
    vertex 56624.85480669672 205908.38984093379 22997.000000000004
    vertex 59207.282423912446 209273.87503521517 2997.000000000002
    vertex 59207.282423912446 209273.87503521517 22997.000000000004
  endloop
endfacet
facet normal 8.420731266188741e-32 2.305676418123108e-32 1.0
  outer loop
    vertex 29438.07493521796 213193.06555229923 22997.000000000004
    vertex 29438.07493521796 221604.68451813114 22997.000000000004
    vertex 28884.36961241532 217398.87503521517 22997.000000000004
  endloop
endfacet
facet normal 8.420731266188741e-32 2.305676418123108e-32 1.0
  outer loop
    vertex 29438.07493521796 221604.68451813114 22997.000000000004
    vertex 29438.07493521796 213193.06555229923 22997.000000000004
    vertex 31061.456800918197 209273.87503521517 22997.000000000004
  endloop
endfacet
facet normal 8.420731266188741e-32 2.305676418123108e-32 1.0
  outer loop
    vertex 29438.07493521796 221604.68451813114 22997.000000000004
    vertex 31061.456800918197 209273.87503521517 22997.000000000004
    vertex 30884.369612415318 217398.87503521517 22997.000000000004
  endloop
endfacet
facet normal 8.420731266188741e-32 2.305676418123108e-32 1.0
  outer loop
    vertex 30884.369612415318 217398.87503521517 22997.000000000004
    vertex 31061.456800918197 209273.87503521517 22997.000000000004
    vertex 31369.9265877961 213710.70364250426 22997.000000000004
  endloop
endfacet
facet normal 8.420731266188741e-32 2.305676418123108e-32 1.0
  outer loop
    vertex 31369.9265877961 213710.70364250426 22997.000000000004
    vertex 31061.456800918197 209273.87503521517 22997.000000000004
    vertex 33643.88441813393 205908.38984093379 22997.000000000004
  endloop
endfacet
facet normal 8.420731266188741e-32 2.305676418123108e-32 1.0
  outer loop
    vertex 31369.9265877961 213710.70364250426 22997.000000000004
    vertex 33643.88441813393 205908.38984093379 22997.000000000004
    vertex 32793.507608487074 210273.87503521517 22997.000000000004
  endloop
endfacet
facet normal 8.420731266188741e-32 2.305676418123108e-32 1.0
  outer loop
    vertex 32793.507608487074 210273.87503521517 22997.000000000004
    vertex 33643.88441813393 205908.38984093379 22997.000000000004
    vertex 35058.09798050702 207322.6034033069 22997.000000000004
  endloop
endfacet
facet normal 8.420731266188741e-32 2.305676418123108e-32 1.0
  outer loop
    vertex 35058.09798050702 207322.6034033069 22997.000000000004
    vertex 33643.88441813393 205908.38984093379 22997.000000000004
    vertex 37009.36961241533 203325.96222371806 22997.000000000004
  endloop
endfacet
facet normal 8.420731266188741e-32 2.305676418123108e-32 1.0
  outer loop
    vertex 35058.09798050702 207322.6034033069 22997.000000000004
    vertex 37009.36961241533 203325.96222371806 22997.000000000004
    vertex 38009.36961241532 205058.01303128692 22997.000000000004
  endloop
endfacet
facet normal 8.420731266188741e-32 2.305676418123108e-32 1.0
  outer loop
    vertex 38009.36961241532 205058.01303128692 22997.000000000004
    vertex 37009.36961241533 203325.96222371806 22997.000000000004
    vertex 40928.56012949936 201702.58035801782 22997.000000000004
  endloop
endfacet
facet normal 8.420731266188741e-32 2.305676418123108e-32 1.0
  outer loop
    vertex 38009.36961241532 205058.01303128692 22997.000000000004
    vertex 40928.56012949936 201702.58035801782 22997.000000000004
    vertex 41446.198219704405 203634.43201059598 22997.000000000004
  endloop
endfacet
facet normal 8.420731266188741e-32 2.305676418123108e-32 1.0
  outer loop
    vertex 41446.198219704405 203634.43201059598 22997.000000000004
    vertex 40928.56012949936 201702.58035801782 22997.000000000004
    vertex 49340.17909533128 201702.58035801782 22997.000000000004
  endloop
endfacet
facet normal 8.420731266188741e-32 2.305676418123108e-32 1.0
  outer loop
    vertex 41446.198219704405 203634.43201059598 22997.000000000004
    vertex 49340.17909533128 201702.58035801782 22997.000000000004
    vertex 45134.36961241532 203148.87503521517 22997.000000000004
  endloop
endfacet
facet normal 8.420731266188741e-32 2.305676418123108e-32 1.0
  outer loop
    vertex 45134.36961241532 203148.87503521517 22997.000000000004
    vertex 49340.17909533128 201702.58035801782 22997.000000000004
    vertex 48822.54100512624 203634.43201059598 22997.000000000004
  endloop
endfacet
facet normal 8.420731266188741e-32 2.305676418123108e-32 1.0
  outer loop
    vertex 48822.54100512624 203634.43201059598 22997.000000000004
    vertex 49340.17909533128 201702.58035801782 22997.000000000004
    vertex 52259.369612415314 205058.01303128692 22997.000000000004
  endloop
endfacet
facet normal 8.420731266188741e-32 2.305676418123108e-32 1.0
  outer loop
    vertex 52259.369612415314 205058.01303128692 22997.000000000004
    vertex 49340.17909533128 201702.58035801782 22997.000000000004
    vertex 53259.369612415314 203325.96222371806 22997.000000000004
  endloop
endfacet
facet normal 8.420731266188741e-32 2.305676418123108e-32 1.0
  outer loop
    vertex 52259.369612415314 205058.01303128692 22997.000000000004
    vertex 53259.369612415314 203325.96222371806 22997.000000000004
    vertex 55210.64124432362 207322.6034033069 22997.000000000004
  endloop
endfacet
facet normal 8.420731266188741e-32 2.305676418123108e-32 1.0
  outer loop
    vertex 55210.64124432362 207322.6034033069 22997.000000000004
    vertex 53259.369612415314 203325.96222371806 22997.000000000004
    vertex 56624.85480669672 205908.38984093379 22997.000000000004
  endloop
endfacet
facet normal 8.420731266188741e-32 2.305676418123108e-32 1.0
  outer loop
    vertex 55210.64124432362 207322.6034033069 22997.000000000004
    vertex 56624.85480669672 205908.38984093379 22997.000000000004
    vertex 57475.23161634356 210273.87503521517 22997.000000000004
  endloop
endfacet
facet normal 8.420731266188741e-32 2.305676418123108e-32 1.0
  outer loop
    vertex 57475.23161634356 210273.87503521517 22997.000000000004
    vertex 56624.85480669672 205908.38984093379 22997.000000000004
    vertex 59207.282423912446 209273.87503521517 22997.000000000004
  endloop
endfacet
facet normal 8.420731266188741e-32 2.305676418123108e-32 1.0
  outer loop
    vertex 57475.23161634356 210273.87503521517 22997.000000000004
    vertex 59207.282423912446 209273.87503521517 22997.000000000004
    vertex 58898.812637034534 213710.70364250426 22997.000000000004
  endloop
endfacet
facet normal 8.420731266188741e-32 2.305676418123108e-32 1.0
  outer loop
    vertex 58898.812637034534 213710.70364250426 22997.000000000004
    vertex 59207.282423912446 209273.87503521517 22997.000000000004
    vertex 59384.369612415314 217398.87503521517 22997.000000000004
  endloop
endfacet
facet normal 8.420731266188741e-32 2.305676418123108e-32 1.0
  outer loop
    vertex 59384.369612415314 217398.87503521517 22997.000000000004
    vertex 59207.282423912446 209273.87503521517 22997.000000000004
    vertex 60830.66428961267 213193.06555229923 22997.000000000004
  endloop
endfacet
facet normal 8.420731266188741e-32 2.305676418123108e-32 1.0
  outer loop
    vertex 30884.369612415318 217398.87503521517 22997.000000000004
    vertex 31061.456800918186 225523.8750352152 22997.000000000004
    vertex 29438.07493521796 221604.68451813114 22997.000000000004
  endloop
endfacet
facet normal 8.420731266188741e-32 2.305676418123108e-32 1.0
  outer loop
    vertex 31061.456800918186 225523.8750352152 22997.000000000004
    vertex 30884.369612415318 217398.87503521517 22997.000000000004
    vertex 31369.9265877961 221087.04642792608 22997.000000000004
  endloop
endfacet
facet normal 8.420731266188741e-32 2.305676418123108e-32 1.0
  outer loop
    vertex 31061.456800918186 225523.8750352152 22997.000000000004
    vertex 31369.9265877961 221087.04642792608 22997.000000000004
    vertex 33643.884418133915 228889.36022949658 22997.000000000004
  endloop
endfacet
facet normal 8.420731266188741e-32 2.305676418123108e-32 1.0
  outer loop
    vertex 33643.884418133915 228889.36022949658 22997.000000000004
    vertex 31369.9265877961 221087.04642792608 22997.000000000004
    vertex 32793.507608487074 224523.8750352152 22997.000000000004
  endloop
endfacet
facet normal 8.420731266188741e-32 2.305676418123108e-32 1.0
  outer loop
    vertex 33643.884418133915 228889.36022949658 22997.000000000004
    vertex 32793.507608487074 224523.8750352152 22997.000000000004
    vertex 35058.09798050702 227475.14666712345 22997.000000000004
  endloop
endfacet
facet normal 8.420731266188741e-32 2.305676418123108e-32 1.0
  outer loop
    vertex 33643.884418133915 228889.36022949658 22997.000000000004
    vertex 35058.09798050702 227475.14666712345 22997.000000000004
    vertex 37009.369612415314 231471.7878467123 22997.000000000004
  endloop
endfacet
facet normal 8.420731266188741e-32 2.305676418123108e-32 1.0
  outer loop
    vertex 37009.369612415314 231471.7878467123 22997.000000000004
    vertex 35058.09798050702 227475.14666712345 22997.000000000004
    vertex 38009.36961241531 229739.73703914342 22997.000000000004
  endloop
endfacet
facet normal 8.420731266188741e-32 2.305676418123108e-32 1.0
  outer loop
    vertex 37009.369612415314 231471.7878467123 22997.000000000004
    vertex 38009.36961241531 229739.73703914342 22997.000000000004
    vertex 40928.56012949934 233095.16971241252 22997.000000000004
  endloop
endfacet
facet normal 8.420731266188741e-32 2.305676418123108e-32 1.0
  outer loop
    vertex 40928.56012949934 233095.16971241252 22997.000000000004
    vertex 38009.36961241531 229739.73703914342 22997.000000000004
    vertex 41446.19821970438 231163.31805983442 22997.000000000004
  endloop
endfacet
facet normal 8.420731266188741e-32 2.305676418123108e-32 1.0
  outer loop
    vertex 40928.56012949934 233095.16971241252 22997.000000000004
    vertex 41446.19821970438 231163.31805983442 22997.000000000004
    vertex 45134.369612415314 233648.8750352152 22997.000000000004
  endloop
endfacet
facet normal 8.420731266188741e-32 2.305676418123108e-32 1.0
  outer loop
    vertex 45134.369612415314 233648.8750352152 22997.000000000004
    vertex 41446.19821970438 231163.31805983442 22997.000000000004
    vertex 45134.36961241532 231648.8750352152 22997.000000000004
  endloop
endfacet
facet normal 8.420731266188741e-32 2.305676418123108e-32 1.0
  outer loop
    vertex 45134.369612415314 233648.8750352152 22997.000000000004
    vertex 45134.36961241532 231648.8750352152 22997.000000000004
    vertex 49340.17909533127 233095.16971241255 22997.000000000004
  endloop
endfacet
facet normal 8.420731266188741e-32 2.305676418123108e-32 1.0
  outer loop
    vertex 49340.17909533127 233095.16971241255 22997.000000000004
    vertex 45134.36961241532 231648.8750352152 22997.000000000004
    vertex 48822.54100512624 231163.31805983442 22997.000000000004
  endloop
endfacet
facet normal 8.420731266188741e-32 2.305676418123108e-32 1.0
  outer loop
    vertex 49340.17909533127 233095.16971241255 22997.000000000004
    vertex 48822.54100512624 231163.31805983442 22997.000000000004
    vertex 52259.3696124153 229739.73703914342 22997.000000000004
  endloop
endfacet
facet normal 8.420731266188741e-32 2.305676418123108e-32 1.0
  outer loop
    vertex 49340.17909533127 233095.16971241255 22997.000000000004
    vertex 52259.3696124153 229739.73703914342 22997.000000000004
    vertex 53259.36961241531 231471.78784671234 22997.000000000004
  endloop
endfacet
facet normal 8.420731266188741e-32 2.305676418123108e-32 1.0
  outer loop
    vertex 53259.36961241531 231471.78784671234 22997.000000000004
    vertex 52259.3696124153 229739.73703914342 22997.000000000004
    vertex 55210.64124432362 227475.14666712348 22997.000000000004
  endloop
endfacet
facet normal 8.420731266188741e-32 2.305676418123108e-32 1.0
  outer loop
    vertex 53259.36961241531 231471.78784671234 22997.000000000004
    vertex 55210.64124432362 227475.14666712348 22997.000000000004
    vertex 56624.854806696705 228889.36022949658 22997.000000000004
  endloop
endfacet
facet normal 8.420731266188741e-32 2.305676418123108e-32 1.0
  outer loop
    vertex 56624.854806696705 228889.36022949658 22997.000000000004
    vertex 55210.64124432362 227475.14666712348 22997.000000000004
    vertex 57475.23161634356 224523.8750352152 22997.000000000004
  endloop
endfacet
facet normal 8.420731266188741e-32 2.305676418123108e-32 1.0
  outer loop
    vertex 56624.854806696705 228889.36022949658 22997.000000000004
    vertex 57475.23161634356 224523.8750352152 22997.000000000004
    vertex 59207.28242391244 225523.8750352152 22997.000000000004
  endloop
endfacet
facet normal 8.420731266188741e-32 2.305676418123108e-32 1.0
  outer loop
    vertex 59207.28242391244 225523.8750352152 22997.000000000004
    vertex 57475.23161634356 224523.8750352152 22997.000000000004
    vertex 58898.812637034534 221087.04642792614 22997.000000000004
  endloop
endfacet
facet normal 8.420731266188741e-32 2.305676418123108e-32 1.0
  outer loop
    vertex 59207.28242391244 225523.8750352152 22997.000000000004
    vertex 58898.812637034534 221087.04642792614 22997.000000000004
    vertex 59384.369612415314 217398.87503521517 22997.000000000004
  endloop
endfacet
facet normal 8.420731266188741e-32 2.305676418123108e-32 1.0
  outer loop
    vertex 59207.28242391244 225523.8750352152 22997.000000000004
    vertex 59384.369612415314 217398.87503521517 22997.000000000004
    vertex 60830.66428961267 221604.68451813114 22997.000000000004
  endloop
endfacet
facet normal 8.420731266188741e-32 2.305676418123108e-32 1.0
  outer loop
    vertex 60830.66428961267 221604.68451813114 22997.000000000004
    vertex 59384.369612415314 217398.87503521517 22997.000000000004
    vertex 60830.66428961267 213193.06555229923 22997.000000000004
  endloop
endfacet
facet normal 8.420731266188741e-32 2.305676418123108e-32 1.0
  outer loop
    vertex 60830.66428961267 221604.68451813114 22997.000000000004
    vertex 60830.66428961267 213193.06555229923 22997.000000000004
    vertex 61384.369612415314 217398.87503521517 22997.000000000004
  endloop
endfacet
facet normal 0.38268343236508884 0.9238795325112873 9.451494036050429e-33
  outer loop
    vertex 49340.17909533127 233095.16971241255 22997.000000000004
    vertex 53259.36961241531 231471.78784671234 2997.000000000002
    vertex 49340.17909533127 233095.16971241255 2997.000000000002
  endloop
endfacet
facet normal 0.38268343236508884 0.9238795325112873 9.451494036050429e-33
  outer loop
    vertex 53259.36961241531 231471.78784671234 2997.000000000002
    vertex 49340.17909533127 233095.16971241255 22997.000000000004
    vertex 53259.36961241531 231471.78784671234 22997.000000000004
  endloop
endfacet
facet normal 0.6087614290087209 0.7933533402912352 1.3637848932291609e-32
  outer loop
    vertex 35058.09798050702 207322.6034033069 22997.000000000004
    vertex 38009.36961241532 205058.01303128692 2997.000000000002
    vertex 35058.09798050702 207322.6034033069 2997.000000000002
  endloop
endfacet
facet normal 0.6087614290087209 0.7933533402912352 1.3637848932291609e-32
  outer loop
    vertex 38009.36961241532 205058.01303128692 2997.000000000002
    vertex 35058.09798050702 207322.6034033069 22997.000000000004
    vertex 38009.36961241532 205058.01303128692 22997.000000000004
  endloop
endfacet
facet normal -7.676902082258124e-17 -0.5036738166416986 0.8638939092444077
  outer loop
    vertex 49340.17909533128 167398.8750352152 2997.000000000002
    vertex 40928.56012949936 201702.58035801782 22997.000000000004
    vertex 40928.56012949936 167398.8750352152 2997.000000000002
  endloop
endfacet
facet normal -7.676902082258124e-17 -0.5036738166416986 0.8638939092444077
  outer loop
    vertex 40928.56012949936 201702.58035801782 22997.000000000004
    vertex 49340.17909533128 167398.8750352152 2997.000000000002
    vertex 49340.17909533128 201702.58035801782 22997.000000000004
  endloop
endfacet
facet normal -0.9238795325112866 0.3826834323650899 -1.741914604494252e-32
  outer loop
    vertex 58898.812637034534 213710.70364250426 22997.000000000004
    vertex 57475.23161634356 210273.87503521517 2997.000000000002
    vertex 57475.23161634356 210273.87503521517 22997.000000000004
  endloop
endfacet
facet normal -0.9238795325112866 0.3826834323650899 -1.741914604494252e-32
  outer loop
    vertex 57475.23161634356 210273.87503521517 2997.000000000002
    vertex 58898.812637034534 213710.70364250426 22997.000000000004
    vertex 58898.812637034534 213710.70364250426 2997.000000000002
  endloop
endfacet
facet normal -0.9238795325112864 -0.3826834323650906 -1.9000411816093165e-32
  outer loop
    vertex 29438.07493521796 213193.06555229923 22997.000000000004
    vertex 31061.456800918197 209273.87503521517 2997.000000000002
    vertex 31061.456800918197 209273.87503521517 22997.000000000004
  endloop
endfacet
facet normal -0.9238795325112864 -0.3826834323650906 -1.9000411816093165e-32
  outer loop
    vertex 31061.456800918197 209273.87503521517 2997.000000000002
    vertex 29438.07493521796 213193.06555229923 22997.000000000004
    vertex 29438.07493521796 213193.06555229923 2997.000000000002
  endloop
endfacet
facet normal -0.38268343236509106 -0.9238795325112862 -9.451494036050471e-33
  outer loop
    vertex 40928.56012949936 201702.58035801782 22997.000000000004
    vertex 37009.36961241533 203325.96222371806 2997.000000000002
    vertex 40928.56012949936 201702.58035801782 2997.000000000002
  endloop
endfacet
facet normal -0.38268343236509106 -0.9238795325112862 -9.451494036050471e-33
  outer loop
    vertex 37009.36961241533 203325.96222371806 2997.000000000002
    vertex 40928.56012949936 201702.58035801782 22997.000000000004
    vertex 37009.36961241533 203325.96222371806 22997.000000000004
  endloop
endfacet
facet normal -0.7933533402912353 -0.6087614290087204 -1.6894806961408065e-32
  outer loop
    vertex 31061.456800918197 209273.87503521517 22997.000000000004
    vertex 33643.88441813393 205908.38984093379 2997.000000000002
    vertex 33643.88441813393 205908.38984093379 22997.000000000004
  endloop
endfacet
facet normal -0.7933533402912353 -0.6087614290087204 -1.6894806961408065e-32
  outer loop
    vertex 33643.88441813393 205908.38984093379 2997.000000000002
    vertex 31061.456800918197 209273.87503521517 22997.000000000004
    vertex 31061.456800918197 209273.87503521517 2997.000000000002
  endloop
endfacet
facet normal 0.3826834323650899 -0.9238795325112866 5.633980765622208e-33
  outer loop
    vertex 41446.19821970438 231163.31805983442 22997.000000000004
    vertex 38009.36961241531 229739.73703914342 2997.000000000002
    vertex 41446.19821970438 231163.31805983442 2997.000000000002
  endloop
endfacet
facet normal 0.3826834323650899 -0.9238795325112866 5.633980765622208e-33
  outer loop
    vertex 38009.36961241531 229739.73703914342 2997.000000000002
    vertex 41446.19821970438 231163.31805983442 22997.000000000004
    vertex 38009.36961241531 229739.73703914342 22997.000000000004
  endloop
endfacet
facet normal 0.6087614290087225 -0.7933533402912337 1.0359675969126273e-32
  outer loop
    vertex 38009.36961241531 229739.73703914342 22997.000000000004
    vertex 35058.09798050702 227475.14666712345 2997.000000000002
    vertex 38009.36961241531 229739.73703914342 2997.000000000002
  endloop
endfacet
facet normal 0.6087614290087225 -0.7933533402912337 1.0359675969126273e-32
  outer loop
    vertex 35058.09798050702 227475.14666712345 2997.000000000002
    vertex 38009.36961241531 229739.73703914342 22997.000000000004
    vertex 35058.09798050702 227475.14666712345 22997.000000000004
  endloop
endfacet
facet normal -0.6087614290087183 -0.7933533402912369 -1.3637848932291562e-32
  outer loop
    vertex 55210.64124432362 227475.14666712348 22997.000000000004
    vertex 52259.3696124153 229739.73703914342 2997.000000000002
    vertex 55210.64124432362 227475.14666712348 2997.000000000002
  endloop
endfacet
facet normal -0.6087614290087183 -0.7933533402912369 -1.3637848932291562e-32
  outer loop
    vertex 52259.3696124153 229739.73703914342 2997.000000000002
    vertex 55210.64124432362 227475.14666712348 22997.000000000004
    vertex 52259.3696124153 229739.73703914342 22997.000000000004
  endloop
endfacet
facet normal -0.6087614290087213 0.7933533402912348 -1.0359675969126248e-32
  outer loop
    vertex 33643.884418133915 228889.36022949658 22997.000000000004
    vertex 37009.369612415314 231471.7878467123 2997.000000000002
    vertex 33643.884418133915 228889.36022949658 2997.000000000002
  endloop
endfacet
facet normal -0.6087614290087213 0.7933533402912348 -1.0359675969126248e-32
  outer loop
    vertex 37009.369612415314 231471.7878467123 2997.000000000002
    vertex 33643.884418133915 228889.36022949658 22997.000000000004
    vertex 37009.369612415314 231471.7878467123 22997.000000000004
  endloop
endfacet
facet normal -0.9914448613738103 -0.1305261922200525 -1.9811170005176678e-32
  outer loop
    vertex 58898.812637034534 221087.04642792614 22997.000000000004
    vertex 59384.369612415314 217398.87503521517 2997.000000000002
    vertex 59384.369612415314 217398.87503521517 22997.000000000004
  endloop
endfacet
facet normal -0.9914448613738103 -0.1305261922200525 -1.9811170005176678e-32
  outer loop
    vertex 59384.369612415314 217398.87503521517 2997.000000000002
    vertex 58898.812637034534 221087.04642792614 22997.000000000004
    vertex 58898.812637034534 221087.04642792614 2997.000000000002
  endloop
endfacet
facet normal 0.0 0.0 1.0
  outer loop
    vertex 45134.36961241532 217398.87503521517 2997.000000000002
    vertex 31369.9265877961 221087.04642792608 2997.000000000002
    vertex 30884.369612415318 217398.87503521517 2997.000000000002
  endloop
endfacet
facet normal 0.0 0.0 1.0
  outer loop
    vertex 31369.9265877961 221087.04642792608 2997.000000000002
    vertex 45134.36961241532 217398.87503521517 2997.000000000002
    vertex 32793.507608487074 224523.8750352152 2997.000000000002
  endloop
endfacet
facet normal 0.0 0.0 1.0
  outer loop
    vertex 32793.507608487074 224523.8750352152 2997.000000000002
    vertex 45134.36961241532 217398.87503521517 2997.000000000002
    vertex 35058.09798050702 227475.14666712345 2997.000000000002
  endloop
endfacet
facet normal 0.0 0.0 1.0
  outer loop
    vertex 35058.09798050702 227475.14666712345 2997.000000000002
    vertex 45134.36961241532 217398.87503521517 2997.000000000002
    vertex 38009.36961241531 229739.73703914342 2997.000000000002
  endloop
endfacet
facet normal 0.0 0.0 1.0
  outer loop
    vertex 38009.36961241531 229739.73703914342 2997.000000000002
    vertex 45134.36961241532 217398.87503521517 2997.000000000002
    vertex 41446.19821970438 231163.31805983442 2997.000000000002
  endloop
endfacet
facet normal 0.0 0.0 1.0
  outer loop
    vertex 41446.19821970438 231163.31805983442 2997.000000000002
    vertex 45134.36961241532 217398.87503521517 2997.000000000002
    vertex 45134.36961241532 231648.8750352152 2997.000000000002
  endloop
endfacet
facet normal -0.13052619222005002 -0.9914448613738106 -4.6210354405848236e-33
  outer loop
    vertex 48822.54100512624 231163.31805983442 22997.000000000004
    vertex 45134.36961241532 231648.8750352152 2997.000000000002
    vertex 48822.54100512624 231163.31805983442 2997.000000000002
  endloop
endfacet
facet normal -0.13052619222005002 -0.9914448613738106 -4.6210354405848236e-33
  outer loop
    vertex 45134.36961241532 231648.8750352152 2997.000000000002
    vertex 48822.54100512624 231163.31805983442 22997.000000000004
    vertex 45134.36961241532 231648.8750352152 22997.000000000004
  endloop
endfacet
facet normal -0.6087614290087198 -0.7933533402912359 -1.363784893229159e-32
  outer loop
    vertex 37009.36961241533 203325.96222371806 22997.000000000004
    vertex 33643.88441813393 205908.38984093379 2997.000000000002
    vertex 37009.36961241533 203325.96222371806 2997.000000000002
  endloop
endfacet
facet normal -0.6087614290087198 -0.7933533402912359 -1.363784893229159e-32
  outer loop
    vertex 33643.88441813393 205908.38984093379 2997.000000000002
    vertex 37009.36961241533 203325.96222371806 22997.000000000004
    vertex 33643.88441813393 205908.38984093379 22997.000000000004
  endloop
endfacet
facet normal -0.3826834323650899 0.9238795325112866 -5.633980765622208e-33
  outer loop
    vertex 48822.54100512624 203634.43201059598 22997.000000000004
    vertex 52259.369612415314 205058.01303128692 2997.000000000002
    vertex 48822.54100512624 203634.43201059598 2997.000000000002
  endloop
endfacet
facet normal -0.3826834323650899 0.9238795325112866 -5.633980765622208e-33
  outer loop
    vertex 52259.369612415314 205058.01303128692 2997.000000000002
    vertex 48822.54100512624 203634.43201059598 22997.000000000004
    vertex 52259.369612415314 205058.01303128692 22997.000000000004
  endloop
endfacet
facet normal 0.13052619222004944 -0.9914448613738107 5.243390835344164e-34
  outer loop
    vertex 45134.36961241532 231648.8750352152 22997.000000000004
    vertex 41446.19821970438 231163.31805983442 2997.000000000002
    vertex 45134.36961241532 231648.8750352152 2997.000000000002
  endloop
endfacet
facet normal 0.13052619222004944 -0.9914448613738107 5.243390835344164e-34
  outer loop
    vertex 41446.19821970438 231163.31805983442 2997.000000000002
    vertex 45134.36961241532 231648.8750352152 22997.000000000004
    vertex 41446.19821970438 231163.31805983442 22997.000000000004
  endloop
endfacet
facet normal 0.7933533402912342 0.608761429008722 1.689480696140805e-32
  outer loop
    vertex 56624.854806696705 228889.36022949658 2997.000000000002
    vertex 59207.28242391244 225523.8750352152 22997.000000000004
    vertex 59207.28242391244 225523.8750352152 2997.000000000002
  endloop
endfacet
facet normal 0.7933533402912342 0.608761429008722 1.689480696140805e-32
  outer loop
    vertex 59207.28242391244 225523.8750352152 22997.000000000004
    vertex 56624.854806696705 228889.36022949658 2997.000000000002
    vertex 56624.854806696705 228889.36022949658 22997.000000000004
  endloop
endfacet
facet normal 0.9914448613738105 -0.13052619222005057 1.9271829697913812e-32
  outer loop
    vertex 61384.369612415314 217398.87503521517 2997.000000000002
    vertex 60830.66428961267 213193.06555229923 22997.000000000004
    vertex 60830.66428961267 213193.06555229923 2997.000000000002
  endloop
endfacet
facet normal 0.9914448613738105 -0.13052619222005057 1.9271829697913812e-32
  outer loop
    vertex 60830.66428961267 213193.06555229923 22997.000000000004
    vertex 61384.369612415314 217398.87503521517 2997.000000000002
    vertex 61384.369612415314 217398.87503521517 22997.000000000004
  endloop
endfacet
facet normal 0.0 1.0 0.0
  outer loop
    vertex 134.36961241534618 234648.8750352152 -2.99999999997757
    vertex 90134.36961241529 234648.8750352152 2997.000000000002
    vertex 90134.36961241529 234648.8750352152 -2.9999999999887597
  endloop
endfacet
facet normal 0.0 1.0 0.0
  outer loop
    vertex 90134.36961241529 234648.8750352152 2997.000000000002
    vertex 134.36961241534618 234648.8750352152 -2.99999999997757
    vertex 134.36961241534618 234648.8750352152 2997.000000000002
  endloop
endfacet
facet normal -0.3826834323650893 0.9238795325112871 -5.633980765622194e-33
  outer loop
    vertex 37009.369612415314 231471.7878467123 22997.000000000004
    vertex 40928.56012949934 233095.16971241252 2997.000000000002
    vertex 37009.369612415314 231471.7878467123 2997.000000000002
  endloop
endfacet
facet normal -0.3826834323650893 0.9238795325112871 -5.633980765622194e-33
  outer loop
    vertex 40928.56012949934 233095.16971241252 2997.000000000002
    vertex 37009.369612415314 231471.7878467123 22997.000000000004
    vertex 40928.56012949934 233095.16971241252 22997.000000000004
  endloop
endfacet
facet normal 1.0 -0.0 -0.0
  outer loop
    vertex 49340.17909533128 201702.58035801782 22997.000000000004
    vertex 49340.17909533128 167398.8750352152 2997.000000000002
    vertex 49340.17909533128 201702.58035801782 2997.000000000002
  endloop
endfacet
facet normal 0.0 -1.0 0.0
  outer loop
    vertex 90134.36961241529 167398.8750352152 2997.000000000002
    vertex 134.36961241534618 167398.8750352152 -2.999999999966471
    vertex 90134.36961241529 167398.8750352152 -3.0000000000000395
  endloop
endfacet
facet normal 0.0 -1.0 0.0
  outer loop
    vertex 134.36961241534618 167398.8750352152 -2.999999999966471
    vertex 90134.36961241529 167398.8750352152 2997.000000000002
    vertex 134.36961241534618 167398.8750352152 2997.000000000002
  endloop
endfacet
facet normal 0.0 -1.0 0.0
  outer loop
    vertex 134.36961241534618 167398.8750352152 2997.000000000002
    vertex 90134.36961241529 167398.8750352152 2997.000000000002
    vertex 49340.17909533128 167398.8750352152 2997.000000000002
  endloop
endfacet
facet normal 0.0 -1.0 0.0
  outer loop
    vertex 134.36961241534618 167398.8750352152 2997.000000000002
    vertex 49340.17909533128 167398.8750352152 2997.000000000002
    vertex 40928.56012949936 167398.8750352152 2997.000000000002
  endloop
endfacet
facet normal 0.0 0.0 1.0
  outer loop
    vertex 48822.54100512624 203634.43201059598 2997.000000000002
    vertex 45134.36961241532 217398.87503521517 2997.000000000002
    vertex 45134.36961241532 203148.87503521517 2997.000000000002
  endloop
endfacet
facet normal 0.0 0.0 1.0
  outer loop
    vertex 45134.36961241532 217398.87503521517 2997.000000000002
    vertex 48822.54100512624 203634.43201059598 2997.000000000002
    vertex 59384.369612415314 217398.87503521517 2997.000000000002
  endloop
endfacet
facet normal 0.0 0.0 1.0
  outer loop
    vertex 59384.369612415314 217398.87503521517 2997.000000000002
    vertex 48822.54100512624 203634.43201059598 2997.000000000002
    vertex 52259.369612415314 205058.01303128692 2997.000000000002
  endloop
endfacet
facet normal 0.0 0.0 1.0
  outer loop
    vertex 59384.369612415314 217398.87503521517 2997.000000000002
    vertex 52259.369612415314 205058.01303128692 2997.000000000002
    vertex 55210.64124432362 207322.6034033069 2997.000000000002
  endloop
endfacet
facet normal 0.0 0.0 1.0
  outer loop
    vertex 59384.369612415314 217398.87503521517 2997.000000000002
    vertex 55210.64124432362 207322.6034033069 2997.000000000002
    vertex 57475.23161634356 210273.87503521517 2997.000000000002
  endloop
endfacet
facet normal 0.0 0.0 1.0
  outer loop
    vertex 59384.369612415314 217398.87503521517 2997.000000000002
    vertex 57475.23161634356 210273.87503521517 2997.000000000002
    vertex 58898.812637034534 213710.70364250426 2997.000000000002
  endloop
endfacet
facet normal 1.0 0.0 0.0
  outer loop
    vertex 90134.36961241529 234648.8750352152 -2.9999999999887597
    vertex 90134.36961241529 167398.8750352152 2997.000000000002
    vertex 90134.36961241529 167398.8750352152 -3.0000000000000395
  endloop
endfacet
facet normal 1.0 0.0 0.0
  outer loop
    vertex 90134.36961241529 167398.8750352152 2997.000000000002
    vertex 90134.36961241529 234648.8750352152 -2.9999999999887597
    vertex 90134.36961241529 234648.8750352152 2997.000000000002
  endloop
endfacet
facet normal -0.1305261922200531 0.9914448613738104 -5.2433908353448925e-34
  outer loop
    vertex 40928.56012949934 233095.16971241252 22997.000000000004
    vertex 45134.369612415314 233648.8750352152 2997.000000000002
    vertex 40928.56012949934 233095.16971241252 2997.000000000002
  endloop
endfacet
facet normal -0.1305261922200531 0.9914448613738104 -5.2433908353448925e-34
  outer loop
    vertex 45134.369612415314 233648.8750352152 2997.000000000002
    vertex 40928.56012949934 233095.16971241252 22997.000000000004
    vertex 45134.369612415314 233648.8750352152 22997.000000000004
  endloop
endfacet
facet normal -2.506636873375915e-16 4.1777281222931915e-17 -1.0
  outer loop
    vertex 90134.36961241529 234648.8750352152 -2.9999999999887597
    vertex 134.36961241534618 167398.8750352152 -2.999999999966471
    vertex 134.36961241534618 234648.8750352152 -2.99999999997757
  endloop
endfacet
facet normal -2.506636873375915e-16 4.1777281222931915e-17 -1.0
  outer loop
    vertex 134.36961241534618 167398.8750352152 -2.999999999966471
    vertex 90134.36961241529 234648.8750352152 -2.9999999999887597
    vertex 90134.36961241529 167398.8750352152 -3.0000000000000395
  endloop
endfacet
facet normal -0.9914448613738106 0.13052619222005077 -1.9271829697913817e-32
  outer loop
    vertex 29438.07493521796 221604.68451813114 22997.000000000004
    vertex 28884.36961241532 217398.87503521517 2997.000000000002
    vertex 28884.36961241532 217398.87503521517 22997.000000000004
  endloop
endfacet
facet normal -0.9914448613738106 0.13052619222005077 -1.9271829697913817e-32
  outer loop
    vertex 28884.36961241532 217398.87503521517 2997.000000000002
    vertex 29438.07493521796 221604.68451813114 22997.000000000004
    vertex 29438.07493521796 221604.68451813114 2997.000000000002
  endloop
endfacet
facet normal -0.9238795325112873 0.38268343236508884 -1.7419146044942534e-32
  outer loop
    vertex 31061.456800918186 225523.8750352152 22997.000000000004
    vertex 29438.07493521796 221604.68451813114 2997.000000000002
    vertex 29438.07493521796 221604.68451813114 22997.000000000004
  endloop
endfacet
facet normal -0.9238795325112873 0.38268343236508884 -1.7419146044942534e-32
  outer loop
    vertex 29438.07493521796 221604.68451813114 2997.000000000002
    vertex 31061.456800918186 225523.8750352152 22997.000000000004
    vertex 31061.456800918186 225523.8750352152 2997.000000000002
  endloop
endfacet
facet normal -0.7933533402912352 0.6087614290087207 -1.4379376375508316e-32
  outer loop
    vertex 33643.884418133915 228889.36022949658 22997.000000000004
    vertex 31061.456800918186 225523.8750352152 2997.000000000002
    vertex 31061.456800918186 225523.8750352152 22997.000000000004
  endloop
endfacet
facet normal -0.7933533402912352 0.6087614290087207 -1.4379376375508316e-32
  outer loop
    vertex 31061.456800918186 225523.8750352152 2997.000000000002
    vertex 33643.884418133915 228889.36022949658 22997.000000000004
    vertex 33643.884418133915 228889.36022949658 2997.000000000002
  endloop
endfacet
facet normal -1.0 1.6835765413420506e-16 0.0
  outer loop
    vertex 40928.56012949936 201702.58035801782 2997.000000000002
    vertex 40928.56012949936 167398.8750352152 2997.000000000002
    vertex 40928.56012949936 201702.58035801782 22997.000000000004
  endloop
endfacet
facet normal 0.0 0.0 1.0
  outer loop
    vertex 59384.369612415314 217398.87503521517 2997.000000000002
    vertex 45134.36961241532 231648.8750352152 2997.000000000002
    vertex 45134.36961241532 217398.87503521517 2997.000000000002
  endloop
endfacet
facet normal 0.0 0.0 1.0
  outer loop
    vertex 45134.36961241532 231648.8750352152 2997.000000000002
    vertex 59384.369612415314 217398.87503521517 2997.000000000002
    vertex 48822.54100512624 231163.31805983442 2997.000000000002
  endloop
endfacet
facet normal 0.0 0.0 1.0
  outer loop
    vertex 48822.54100512624 231163.31805983442 2997.000000000002
    vertex 59384.369612415314 217398.87503521517 2997.000000000002
    vertex 52259.3696124153 229739.73703914342 2997.000000000002
  endloop
endfacet
facet normal 0.0 0.0 1.0
  outer loop
    vertex 52259.3696124153 229739.73703914342 2997.000000000002
    vertex 59384.369612415314 217398.87503521517 2997.000000000002
    vertex 55210.64124432362 227475.14666712348 2997.000000000002
  endloop
endfacet
facet normal 0.0 0.0 1.0
  outer loop
    vertex 55210.64124432362 227475.14666712348 2997.000000000002
    vertex 59384.369612415314 217398.87503521517 2997.000000000002
    vertex 57475.23161634356 224523.8750352152 2997.000000000002
  endloop
endfacet
facet normal 0.0 0.0 1.0
  outer loop
    vertex 57475.23161634356 224523.8750352152 2997.000000000002
    vertex 59384.369612415314 217398.87503521517 2997.000000000002
    vertex 58898.812637034534 221087.04642792614 2997.000000000002
  endloop
endfacet
facet normal 0.13052619222005077 0.9914448613738106 4.621035440584837e-33
  outer loop
    vertex 45134.369612415314 233648.8750352152 22997.000000000004
    vertex 49340.17909533127 233095.16971241255 2997.000000000002
    vertex 45134.369612415314 233648.8750352152 2997.000000000002
  endloop
endfacet
facet normal 0.13052619222005077 0.9914448613738106 4.621035440584837e-33
  outer loop
    vertex 49340.17909533127 233095.16971241255 2997.000000000002
    vertex 45134.369612415314 233648.8750352152 22997.000000000004
    vertex 49340.17909533127 233095.16971241255 22997.000000000004
  endloop
endfacet
facet normal -0.0 -0.0 1.0
  outer loop
    vertex 40928.56012949936 167398.8750352152 2997.000000000002
    vertex 134.36961241534618 234648.8750352152 2997.000000000002
    vertex 134.36961241534618 167398.8750352152 2997.000000000002
  endloop
endfacet
facet normal -0.0 -0.0 1.0
  outer loop
    vertex 134.36961241534618 234648.8750352152 2997.000000000002
    vertex 40928.56012949936 167398.8750352152 2997.000000000002
    vertex 29438.07493521796 213193.06555229923 2997.000000000002
  endloop
endfacet
facet normal -0.0 -0.0 1.0
  outer loop
    vertex 134.36961241534618 234648.8750352152 2997.000000000002
    vertex 29438.07493521796 213193.06555229923 2997.000000000002
    vertex 28884.36961241532 217398.87503521517 2997.000000000002
  endloop
endfacet
facet normal -0.0 -0.0 1.0
  outer loop
    vertex 29438.07493521796 213193.06555229923 2997.000000000002
    vertex 40928.56012949936 167398.8750352152 2997.000000000002
    vertex 31061.456800918197 209273.87503521517 2997.000000000002
  endloop
endfacet
facet normal -0.0 -0.0 1.0
  outer loop
    vertex 31061.456800918197 209273.87503521517 2997.000000000002
    vertex 40928.56012949936 167398.8750352152 2997.000000000002
    vertex 33643.88441813393 205908.38984093379 2997.000000000002
  endloop
endfacet
facet normal -0.0 -0.0 1.0
  outer loop
    vertex 33643.88441813393 205908.38984093379 2997.000000000002
    vertex 40928.56012949936 167398.8750352152 2997.000000000002
    vertex 37009.36961241533 203325.96222371806 2997.000000000002
  endloop
endfacet
facet normal -0.0 -0.0 1.0
  outer loop
    vertex 37009.36961241533 203325.96222371806 2997.000000000002
    vertex 40928.56012949936 167398.8750352152 2997.000000000002
    vertex 40928.56012949936 201702.58035801782 2997.000000000002
  endloop
endfacet
facet normal -0.0 -0.0 1.0
  outer loop
    vertex 90134.36961241529 167398.8750352152 2997.000000000002
    vertex 49340.17909533128 201702.58035801782 2997.000000000002
    vertex 49340.17909533128 167398.8750352152 2997.000000000002
  endloop
endfacet
facet normal -0.0 -0.0 1.0
  outer loop
    vertex 49340.17909533128 201702.58035801782 2997.000000000002
    vertex 90134.36961241529 167398.8750352152 2997.000000000002
    vertex 53259.369612415314 203325.96222371806 2997.000000000002
  endloop
endfacet
facet normal -0.0 -0.0 1.0
  outer loop
    vertex 53259.369612415314 203325.96222371806 2997.000000000002
    vertex 90134.36961241529 167398.8750352152 2997.000000000002
    vertex 56624.85480669672 205908.38984093379 2997.000000000002
  endloop
endfacet
facet normal -0.0 -0.0 1.0
  outer loop
    vertex 56624.85480669672 205908.38984093379 2997.000000000002
    vertex 90134.36961241529 167398.8750352152 2997.000000000002
    vertex 59207.282423912446 209273.87503521517 2997.000000000002
  endloop
endfacet
facet normal -0.0 -0.0 1.0
  outer loop
    vertex 59207.282423912446 209273.87503521517 2997.000000000002
    vertex 90134.36961241529 167398.8750352152 2997.000000000002
    vertex 60830.66428961267 213193.06555229923 2997.000000000002
  endloop
endfacet
facet normal -0.0 -0.0 1.0
  outer loop
    vertex 60830.66428961267 213193.06555229923 2997.000000000002
    vertex 90134.36961241529 167398.8750352152 2997.000000000002
    vertex 61384.369612415314 217398.87503521517 2997.000000000002
  endloop
endfacet
facet normal -0.0 -0.0 1.0
  outer loop
    vertex 134.36961241534618 234648.8750352152 2997.000000000002
    vertex 45134.369612415314 233648.8750352152 2997.000000000002
    vertex 90134.36961241529 234648.8750352152 2997.000000000002
  endloop
endfacet
facet normal -0.0 -0.0 1.0
  outer loop
    vertex 45134.369612415314 233648.8750352152 2997.000000000002
    vertex 134.36961241534618 234648.8750352152 2997.000000000002
    vertex 40928.56012949934 233095.16971241252 2997.000000000002
  endloop
endfacet
facet normal -0.0 -0.0 1.0
  outer loop
    vertex 40928.56012949934 233095.16971241252 2997.000000000002
    vertex 134.36961241534618 234648.8750352152 2997.000000000002
    vertex 37009.369612415314 231471.7878467123 2997.000000000002
  endloop
endfacet
facet normal -0.0 -0.0 1.0
  outer loop
    vertex 37009.369612415314 231471.7878467123 2997.000000000002
    vertex 134.36961241534618 234648.8750352152 2997.000000000002
    vertex 33643.884418133915 228889.36022949658 2997.000000000002
  endloop
endfacet
facet normal -0.0 -0.0 1.0
  outer loop
    vertex 33643.884418133915 228889.36022949658 2997.000000000002
    vertex 134.36961241534618 234648.8750352152 2997.000000000002
    vertex 31061.456800918186 225523.8750352152 2997.000000000002
  endloop
endfacet
facet normal -0.0 -0.0 1.0
  outer loop
    vertex 31061.456800918186 225523.8750352152 2997.000000000002
    vertex 134.36961241534618 234648.8750352152 2997.000000000002
    vertex 29438.07493521796 221604.68451813114 2997.000000000002
  endloop
endfacet
facet normal -0.0 -0.0 1.0
  outer loop
    vertex 29438.07493521796 221604.68451813114 2997.000000000002
    vertex 134.36961241534618 234648.8750352152 2997.000000000002
    vertex 28884.36961241532 217398.87503521517 2997.000000000002
  endloop
endfacet
facet normal -0.0 -0.0 1.0
  outer loop
    vertex 90134.36961241529 234648.8750352152 2997.000000000002
    vertex 45134.369612415314 233648.8750352152 2997.000000000002
    vertex 49340.17909533127 233095.16971241255 2997.000000000002
  endloop
endfacet
facet normal -0.0 -0.0 1.0
  outer loop
    vertex 90134.36961241529 234648.8750352152 2997.000000000002
    vertex 49340.17909533127 233095.16971241255 2997.000000000002
    vertex 53259.36961241531 231471.78784671234 2997.000000000002
  endloop
endfacet
facet normal -0.0 -0.0 1.0
  outer loop
    vertex 90134.36961241529 234648.8750352152 2997.000000000002
    vertex 53259.36961241531 231471.78784671234 2997.000000000002
    vertex 56624.854806696705 228889.36022949658 2997.000000000002
  endloop
endfacet
facet normal -0.0 -0.0 1.0
  outer loop
    vertex 90134.36961241529 234648.8750352152 2997.000000000002
    vertex 56624.854806696705 228889.36022949658 2997.000000000002
    vertex 59207.28242391244 225523.8750352152 2997.000000000002
  endloop
endfacet
facet normal -0.0 -0.0 1.0
  outer loop
    vertex 90134.36961241529 234648.8750352152 2997.000000000002
    vertex 59207.28242391244 225523.8750352152 2997.000000000002
    vertex 60830.66428961267 221604.68451813114 2997.000000000002
  endloop
endfacet
facet normal -0.0 -0.0 1.0
  outer loop
    vertex 90134.36961241529 234648.8750352152 2997.000000000002
    vertex 60830.66428961267 221604.68451813114 2997.000000000002
    vertex 61384.369612415314 217398.87503521517 2997.000000000002
  endloop
endfacet
facet normal -0.0 -0.0 1.0
  outer loop
    vertex 90134.36961241529 234648.8750352152 2997.000000000002
    vertex 61384.369612415314 217398.87503521517 2997.000000000002
    vertex 90134.36961241529 167398.8750352152 2997.000000000002
  endloop
endfacet
facet normal -1.0 0.0 0.0
  outer loop
    vertex 134.36961241534618 234648.8750352152 2997.000000000002
    vertex 134.36961241534618 167398.8750352152 -2.999999999966471
    vertex 134.36961241534618 167398.8750352152 2997.000000000002
  endloop
endfacet
facet normal -1.0 0.0 0.0
  outer loop
    vertex 134.36961241534618 167398.8750352152 -2.999999999966471
    vertex 134.36961241534618 234648.8750352152 2997.000000000002
    vertex 134.36961241534618 234648.8750352152 -2.99999999997757
  endloop
endfacet
facet normal 0.0 0.0 1.0
  outer loop
    vertex 31369.9265877961 213710.70364250426 2997.000000000002
    vertex 45134.36961241532 217398.87503521517 2997.000000000002
    vertex 30884.369612415318 217398.87503521517 2997.000000000002
  endloop
endfacet
facet normal 0.0 0.0 1.0
  outer loop
    vertex 45134.36961241532 217398.87503521517 2997.000000000002
    vertex 31369.9265877961 213710.70364250426 2997.000000000002
    vertex 32793.507608487074 210273.87503521517 2997.000000000002
  endloop
endfacet
facet normal 0.0 0.0 1.0
  outer loop
    vertex 45134.36961241532 217398.87503521517 2997.000000000002
    vertex 32793.507608487074 210273.87503521517 2997.000000000002
    vertex 35058.09798050702 207322.6034033069 2997.000000000002
  endloop
endfacet
facet normal 0.0 0.0 1.0
  outer loop
    vertex 45134.36961241532 217398.87503521517 2997.000000000002
    vertex 35058.09798050702 207322.6034033069 2997.000000000002
    vertex 38009.36961241532 205058.01303128692 2997.000000000002
  endloop
endfacet
facet normal 0.0 0.0 1.0
  outer loop
    vertex 45134.36961241532 217398.87503521517 2997.000000000002
    vertex 38009.36961241532 205058.01303128692 2997.000000000002
    vertex 41446.198219704405 203634.43201059598 2997.000000000002
  endloop
endfacet
facet normal 0.0 0.0 1.0
  outer loop
    vertex 45134.36961241532 217398.87503521517 2997.000000000002
    vertex 41446.198219704405 203634.43201059598 2997.000000000002
    vertex 45134.36961241532 203148.87503521517 2997.000000000002
  endloop
endfacet
endsolid LinkagePVCSlide
