solid PVCBeaconPusherParts
facet normal 0.0 -1.0 0.0
  outer loop
    vertex 288591.2950652409 269863.3679172414 3000.0000000000023
    vertex 128591.29506524096 269863.3679172414 3.356888100825017e-11
    vertex 288591.2950652409 269863.3679172414 0.0
  endloop
endfacet
facet normal 0.0 -1.0 0.0
  outer loop
    vertex 128591.29506524096 269863.3679172414 3.356888100825017e-11
    vertex 288591.2950652409 269863.3679172414 3000.0000000000023
    vertex 128591.29506524096 269863.3679172414 3000.0000000000023
  endloop
endfacet
facet normal 0.0 -1.0 0.0
  outer loop
    vertex 128591.29506524096 269863.3679172414 3000.0000000000023
    vertex 288591.2950652409 269863.3679172414 3000.0000000000023
    vertex 212797.1045481569 269863.3679172414 3000.0000000000023
  endloop
endfacet
facet normal 0.0 -1.0 0.0
  outer loop
    vertex 128591.29506524096 269863.3679172414 3000.0000000000023
    vertex 212797.1045481569 269863.3679172414 3000.0000000000023
    vertex 204385.48558232497 269863.3679172414 3000.0000000000023
  endloop
endfacet
facet normal -0.9238795325112866 0.3826834323650899 -1.741914604494252e-32
  outer loop
    vertex 222355.73808986013 316175.1965245305 23000.0
    vertex 220932.15706916916 312738.3679172414 3000.0000000000023
    vertex 220932.15706916916 312738.3679172414 23000.0
  endloop
endfacet
facet normal -0.9238795325112866 0.3826834323650899 -1.741914604494252e-32
  outer loop
    vertex 220932.15706916916 312738.3679172414 3000.0000000000023
    vertex 222355.73808986013 316175.1965245305 23000.0
    vertex 222355.73808986013 316175.1965245305 3000.0000000000023
  endloop
endfacet
facet normal 0.2969907705584137 -7.489427195131418e-17 0.954880349679016
  outer loop
    vertex 288591.2950652409 315657.55843432544 3000.0000000000023
    vertex 224287.58974243826 324069.1774001574 23000.0
    vertex 224287.58974243826 315657.55843432544 23000.0
  endloop
endfacet
facet normal 0.2969907705584137 -7.489427195131418e-17 0.954880349679016
  outer loop
    vertex 224287.58974243826 324069.1774001574 23000.0
    vertex 288591.2950652409 315657.55843432544 3000.0000000000023
    vertex 288591.2950652409 324926.3303936814 3000.0000000000023
  endloop
endfacet
facet normal -0.7933533402912353 -0.6087614290087204 -1.6894806961408065e-32
  outer loop
    vertex 194518.3822537438 311738.3679172414 23000.0
    vertex 197100.80987095952 308372.88272295997 3000.0000000000023
    vertex 197100.80987095952 308372.88272295997 23000.0
  endloop
endfacet
facet normal -0.7933533402912353 -0.6087614290087204 -1.6894806961408065e-32
  outer loop
    vertex 197100.80987095952 308372.88272295997 3000.0000000000023
    vertex 194518.3822537438 311738.3679172414 23000.0
    vertex 194518.3822537438 311738.3679172414 3000.0000000000023
  endloop
endfacet
facet normal 0.923879532511287 0.3826834323650894 1.900041181609317e-32
  outer loop
    vertex 194826.8520406217 316175.1965245305 3000.0000000000023
    vertex 196250.43306131265 312738.3679172414 23000.0
    vertex 196250.43306131265 312738.3679172414 3000.0000000000023
  endloop
endfacet
facet normal 0.923879532511287 0.3826834323650894 1.900041181609317e-32
  outer loop
    vertex 196250.43306131265 312738.3679172414 23000.0
    vertex 194826.8520406217 316175.1965245305 3000.0000000000023
    vertex 194826.8520406217 316175.1965245305 23000.0
  endloop
endfacet
facet normal 0.6087614290087225 -0.7933533402912337 1.0359675969126273e-32
  outer loop
    vertex 201466.2950652409 332204.22992116964 23000.0
    vertex 198515.02343333262 329939.6395491496 3000.0000000000023
    vertex 201466.2950652409 332204.22992116964 3000.0000000000023
  endloop
endfacet
facet normal 0.6087614290087225 -0.7933533402912337 1.0359675969126273e-32
  outer loop
    vertex 198515.02343333262 329939.6395491496 3000.0000000000023
    vertex 201466.2950652409 332204.22992116964 23000.0
    vertex 198515.02343333262 329939.6395491496 23000.0
  endloop
endfacet
facet normal -0.6087614290087198 -0.7933533402912359 -1.363784893229159e-32
  outer loop
    vertex 200466.29506524093 305790.45510574424 23000.0
    vertex 197100.80987095952 308372.88272295997 3000.0000000000023
    vertex 200466.29506524093 305790.45510574424 3000.0000000000023
  endloop
endfacet
facet normal -0.6087614290087198 -0.7933533402912359 -1.363784893229159e-32
  outer loop
    vertex 197100.80987095952 308372.88272295997 3000.0000000000023
    vertex 200466.29506524093 305790.45510574424 23000.0
    vertex 197100.80987095952 308372.88272295997 23000.0
  endloop
endfacet
facet normal 0.13052619222005157 0.9914448613738104 4.621035440584853e-33
  outer loop
    vertex 204903.12367253003 306098.92489262216 23000.0
    vertex 208591.29506524093 305613.3679172414 3000.0000000000023
    vertex 204903.12367253003 306098.92489262216 3000.0000000000023
  endloop
endfacet
facet normal 0.13052619222005157 0.9914448613738104 4.621035440584853e-33
  outer loop
    vertex 208591.29506524093 305613.3679172414 3000.0000000000023
    vertex 204903.12367253003 306098.92489262216 23000.0
    vertex 208591.29506524093 305613.3679172414 23000.0
  endloop
endfacet
facet normal 0.0 1.0 0.0
  outer loop
    vertex 128591.29506524096 337113.3679172414 2.2469492932941646e-11
    vertex 288591.2950652409 337113.3679172414 3000.0000000000023
    vertex 288591.2950652409 337113.3679172414 1.127986593019159e-11
  endloop
endfacet
facet normal 0.0 1.0 0.0
  outer loop
    vertex 288591.2950652409 337113.3679172414 3000.0000000000023
    vertex 128591.29506524096 337113.3679172414 2.2469492932941646e-11
    vertex 128591.29506524096 337113.3679172414 3000.0000000000023
  endloop
endfacet
facet normal 0.0 0.0 1.0
  outer loop
    vertex 208591.29506524093 319863.3679172414 3000.0000000000023
    vertex 194826.8520406217 323551.5393099523 3000.0000000000023
    vertex 194341.29506524093 319863.3679172414 3000.0000000000023
  endloop
endfacet
facet normal 0.0 0.0 1.0
  outer loop
    vertex 194826.8520406217 323551.5393099523 3000.0000000000023
    vertex 208591.29506524093 319863.3679172414 3000.0000000000023
    vertex 196250.43306131265 326988.3679172414 3000.0000000000023
  endloop
endfacet
facet normal 0.0 0.0 1.0
  outer loop
    vertex 196250.43306131265 326988.3679172414 3000.0000000000023
    vertex 208591.29506524093 319863.3679172414 3000.0000000000023
    vertex 198515.02343333262 329939.6395491496 3000.0000000000023
  endloop
endfacet
facet normal 0.0 0.0 1.0
  outer loop
    vertex 198515.02343333262 329939.6395491496 3000.0000000000023
    vertex 208591.29506524093 319863.3679172414 3000.0000000000023
    vertex 201466.2950652409 332204.22992116964 3000.0000000000023
  endloop
endfacet
facet normal 0.0 0.0 1.0
  outer loop
    vertex 201466.2950652409 332204.22992116964 3000.0000000000023
    vertex 208591.29506524093 319863.3679172414 3000.0000000000023
    vertex 204903.12367253 333627.81094186066 3000.0000000000023
  endloop
endfacet
facet normal 0.0 0.0 1.0
  outer loop
    vertex 204903.12367253 333627.81094186066 3000.0000000000023
    vertex 208591.29506524093 319863.3679172414 3000.0000000000023
    vertex 208591.29506524093 334113.36791724135 3000.0000000000023
  endloop
endfacet
facet normal -0.6087614290087213 0.7933533402912348 -1.0359675969126248e-32
  outer loop
    vertex 197100.80987095952 331353.8531115228 23000.0
    vertex 200466.29506524093 333936.2807287385 3000.0000000000023
    vertex 197100.80987095952 331353.8531115228 3000.0000000000023
  endloop
endfacet
facet normal -0.6087614290087213 0.7933533402912348 -1.0359675969126248e-32
  outer loop
    vertex 200466.29506524093 333936.2807287385 3000.0000000000023
    vertex 197100.80987095952 331353.8531115228 23000.0
    vertex 200466.29506524093 333936.2807287385 23000.0
  endloop
endfacet
facet normal -0.9914448613738105 -0.13052619222005057 -1.9811170005176676e-32
  outer loop
    vertex 192341.29506524093 319863.3679172414 23000.0
    vertex 192895.00038804355 315657.55843432544 3000.0000000000023
    vertex 192895.00038804355 315657.55843432544 23000.0
  endloop
endfacet
facet normal -0.9914448613738105 -0.13052619222005057 -1.9811170005176676e-32
  outer loop
    vertex 192895.00038804355 315657.55843432544 3000.0000000000023
    vertex 192341.29506524093 319863.3679172414 23000.0
    vertex 192341.29506524093 319863.3679172414 3000.0000000000023
  endloop
endfacet
facet normal -2.506636873375915e-16 4.1777281222931915e-17 -1.0
  outer loop
    vertex 288591.2950652409 337113.3679172414 1.127986593019159e-11
    vertex 128591.29506524096 269863.3679172414 3.356888100825017e-11
    vertex 128591.29506524096 337113.3679172414 2.2469492932941646e-11
  endloop
endfacet
facet normal -2.506636873375915e-16 4.1777281222931915e-17 -1.0
  outer loop
    vertex 128591.29506524096 269863.3679172414 3.356888100825017e-11
    vertex 288591.2950652409 337113.3679172414 1.127986593019159e-11
    vertex 288591.2950652409 269863.3679172414 0.0
  endloop
endfacet
facet normal -0.0 -0.0 1.0
  outer loop
    vertex 192895.00038804355 315657.55843432544 23000.0
    vertex 192895.00038804355 324069.1774001574 23000.0
    vertex 192341.29506524093 319863.3679172414 23000.0
  endloop
endfacet
facet normal -0.0 -0.0 1.0
  outer loop
    vertex 192895.00038804355 324069.1774001574 23000.0
    vertex 192895.00038804355 315657.55843432544 23000.0
    vertex 194518.3822537438 311738.3679172414 23000.0
  endloop
endfacet
facet normal -0.0 -0.0 1.0
  outer loop
    vertex 192895.00038804355 324069.1774001574 23000.0
    vertex 194518.3822537438 311738.3679172414 23000.0
    vertex 194341.29506524093 319863.3679172414 23000.0
  endloop
endfacet
facet normal -0.0 -0.0 1.0
  outer loop
    vertex 194341.29506524093 319863.3679172414 23000.0
    vertex 194518.3822537438 311738.3679172414 23000.0
    vertex 194826.8520406217 316175.1965245305 23000.0
  endloop
endfacet
facet normal -0.0 -0.0 1.0
  outer loop
    vertex 194826.8520406217 316175.1965245305 23000.0
    vertex 194518.3822537438 311738.3679172414 23000.0
    vertex 197100.80987095952 308372.88272295997 23000.0
  endloop
endfacet
facet normal -0.0 -0.0 1.0
  outer loop
    vertex 194826.8520406217 316175.1965245305 23000.0
    vertex 197100.80987095952 308372.88272295997 23000.0
    vertex 196250.43306131265 312738.3679172414 23000.0
  endloop
endfacet
facet normal -0.0 -0.0 1.0
  outer loop
    vertex 196250.43306131265 312738.3679172414 23000.0
    vertex 197100.80987095952 308372.88272295997 23000.0
    vertex 198515.02343333262 309787.09628533304 23000.0
  endloop
endfacet
facet normal -0.0 -0.0 1.0
  outer loop
    vertex 198515.02343333262 309787.09628533304 23000.0
    vertex 197100.80987095952 308372.88272295997 23000.0
    vertex 200466.29506524093 305790.45510574424 23000.0
  endloop
endfacet
facet normal -0.0 -0.0 1.0
  outer loop
    vertex 198515.02343333262 309787.09628533304 23000.0
    vertex 200466.29506524093 305790.45510574424 23000.0
    vertex 201466.29506524093 307522.5059133131 23000.0
  endloop
endfacet
facet normal -0.0 -0.0 1.0
  outer loop
    vertex 201466.29506524093 307522.5059133131 23000.0
    vertex 200466.29506524093 305790.45510574424 23000.0
    vertex 204385.48558232497 304167.073240044 23000.0
  endloop
endfacet
facet normal -0.0 -0.0 1.0
  outer loop
    vertex 201466.29506524093 307522.5059133131 23000.0
    vertex 204385.48558232497 304167.073240044 23000.0
    vertex 204903.12367253003 306098.92489262216 23000.0
  endloop
endfacet
facet normal -0.0 -0.0 1.0
  outer loop
    vertex 204903.12367253003 306098.92489262216 23000.0
    vertex 204385.48558232497 304167.073240044 23000.0
    vertex 212797.1045481569 304167.073240044 23000.0
  endloop
endfacet
facet normal -0.0 -0.0 1.0
  outer loop
    vertex 204903.12367253003 306098.92489262216 23000.0
    vertex 212797.1045481569 304167.073240044 23000.0
    vertex 208591.29506524093 305613.3679172414 23000.0
  endloop
endfacet
facet normal -0.0 -0.0 1.0
  outer loop
    vertex 208591.29506524093 305613.3679172414 23000.0
    vertex 212797.1045481569 304167.073240044 23000.0
    vertex 212279.46645795184 306098.92489262216 23000.0
  endloop
endfacet
facet normal -0.0 -0.0 1.0
  outer loop
    vertex 212279.46645795184 306098.92489262216 23000.0
    vertex 212797.1045481569 304167.073240044 23000.0
    vertex 215716.2950652409 307522.5059133131 23000.0
  endloop
endfacet
facet normal -0.0 -0.0 1.0
  outer loop
    vertex 215716.2950652409 307522.5059133131 23000.0
    vertex 212797.1045481569 304167.073240044 23000.0
    vertex 216716.29506524093 305790.45510574424 23000.0
  endloop
endfacet
facet normal -0.0 -0.0 1.0
  outer loop
    vertex 215716.2950652409 307522.5059133131 23000.0
    vertex 216716.29506524093 305790.45510574424 23000.0
    vertex 218667.56669714922 309787.09628533304 23000.0
  endloop
endfacet
facet normal -0.0 -0.0 1.0
  outer loop
    vertex 218667.56669714922 309787.09628533304 23000.0
    vertex 216716.29506524093 305790.45510574424 23000.0
    vertex 220081.78025952235 308372.88272295997 23000.0
  endloop
endfacet
facet normal -0.0 -0.0 1.0
  outer loop
    vertex 218667.56669714922 309787.09628533304 23000.0
    vertex 220081.78025952235 308372.88272295997 23000.0
    vertex 220932.15706916916 312738.3679172414 23000.0
  endloop
endfacet
facet normal -0.0 -0.0 1.0
  outer loop
    vertex 220932.15706916916 312738.3679172414 23000.0
    vertex 220081.78025952235 308372.88272295997 23000.0
    vertex 222664.20787673807 311738.3679172414 23000.0
  endloop
endfacet
facet normal -0.0 -0.0 1.0
  outer loop
    vertex 220932.15706916916 312738.3679172414 23000.0
    vertex 222664.20787673807 311738.3679172414 23000.0
    vertex 222355.73808986013 316175.1965245305 23000.0
  endloop
endfacet
facet normal -0.0 -0.0 1.0
  outer loop
    vertex 222355.73808986013 316175.1965245305 23000.0
    vertex 222664.20787673807 311738.3679172414 23000.0
    vertex 222841.2950652409 319863.3679172414 23000.0
  endloop
endfacet
facet normal -0.0 -0.0 1.0
  outer loop
    vertex 222841.2950652409 319863.3679172414 23000.0
    vertex 222664.20787673807 311738.3679172414 23000.0
    vertex 224287.58974243826 315657.55843432544 23000.0
  endloop
endfacet
facet normal -0.0 -0.0 1.0
  outer loop
    vertex 194341.29506524093 319863.3679172414 23000.0
    vertex 194518.3822537438 327988.3679172414 23000.0
    vertex 192895.00038804355 324069.1774001574 23000.0
  endloop
endfacet
facet normal -0.0 -0.0 1.0
  outer loop
    vertex 194518.3822537438 327988.3679172414 23000.0
    vertex 194341.29506524093 319863.3679172414 23000.0
    vertex 194826.8520406217 323551.5393099523 23000.0
  endloop
endfacet
facet normal -0.0 -0.0 1.0
  outer loop
    vertex 194518.3822537438 327988.3679172414 23000.0
    vertex 194826.8520406217 323551.5393099523 23000.0
    vertex 197100.80987095952 331353.8531115228 23000.0
  endloop
endfacet
facet normal -0.0 -0.0 1.0
  outer loop
    vertex 197100.80987095952 331353.8531115228 23000.0
    vertex 194826.8520406217 323551.5393099523 23000.0
    vertex 196250.43306131265 326988.3679172414 23000.0
  endloop
endfacet
facet normal -0.0 -0.0 1.0
  outer loop
    vertex 197100.80987095952 331353.8531115228 23000.0
    vertex 196250.43306131265 326988.3679172414 23000.0
    vertex 198515.02343333262 329939.6395491496 23000.0
  endloop
endfacet
facet normal -0.0 -0.0 1.0
  outer loop
    vertex 197100.80987095952 331353.8531115228 23000.0
    vertex 198515.02343333262 329939.6395491496 23000.0
    vertex 200466.29506524093 333936.2807287385 23000.0
  endloop
endfacet
facet normal -0.0 -0.0 1.0
  outer loop
    vertex 200466.29506524093 333936.2807287385 23000.0
    vertex 198515.02343333262 329939.6395491496 23000.0
    vertex 201466.2950652409 332204.22992116964 23000.0
  endloop
endfacet
facet normal -0.0 -0.0 1.0
  outer loop
    vertex 200466.29506524093 333936.2807287385 23000.0
    vertex 201466.2950652409 332204.22992116964 23000.0
    vertex 204385.48558232494 335559.6625944387 23000.0
  endloop
endfacet
facet normal -0.0 -0.0 1.0
  outer loop
    vertex 204385.48558232494 335559.6625944387 23000.0
    vertex 201466.2950652409 332204.22992116964 23000.0
    vertex 204903.12367253 333627.81094186066 23000.0
  endloop
endfacet
facet normal -0.0 -0.0 1.0
  outer loop
    vertex 204385.48558232494 335559.6625944387 23000.0
    vertex 204903.12367253 333627.81094186066 23000.0
    vertex 208591.29506524093 336113.3679172414 23000.0
  endloop
endfacet
facet normal -0.0 -0.0 1.0
  outer loop
    vertex 208591.29506524093 336113.3679172414 23000.0
    vertex 204903.12367253 333627.81094186066 23000.0
    vertex 208591.29506524093 334113.36791724135 23000.0
  endloop
endfacet
facet normal -0.0 -0.0 1.0
  outer loop
    vertex 208591.29506524093 336113.3679172414 23000.0
    vertex 208591.29506524093 334113.36791724135 23000.0
    vertex 212279.46645795184 333627.81094186066 23000.0
  endloop
endfacet
facet normal -0.0 -0.0 1.0
  outer loop
    vertex 208591.29506524093 336113.3679172414 23000.0
    vertex 212279.46645795184 333627.81094186066 23000.0
    vertex 212797.10454815687 335559.66259443876 23000.0
  endloop
endfacet
facet normal -0.0 -0.0 1.0
  outer loop
    vertex 212797.10454815687 335559.66259443876 23000.0
    vertex 212279.46645795184 333627.81094186066 23000.0
    vertex 215716.2950652409 332204.22992116964 23000.0
  endloop
endfacet
facet normal -0.0 -0.0 1.0
  outer loop
    vertex 212797.10454815687 335559.66259443876 23000.0
    vertex 215716.2950652409 332204.22992116964 23000.0
    vertex 216716.29506524093 333936.2807287385 23000.0
  endloop
endfacet
facet normal -0.0 -0.0 1.0
  outer loop
    vertex 216716.29506524093 333936.2807287385 23000.0
    vertex 215716.2950652409 332204.22992116964 23000.0
    vertex 218667.56669714922 329939.6395491497 23000.0
  endloop
endfacet
facet normal -0.0 -0.0 1.0
  outer loop
    vertex 216716.29506524093 333936.2807287385 23000.0
    vertex 218667.56669714922 329939.6395491497 23000.0
    vertex 220081.78025952235 331353.8531115228 23000.0
  endloop
endfacet
facet normal -0.0 -0.0 1.0
  outer loop
    vertex 220081.78025952235 331353.8531115228 23000.0
    vertex 218667.56669714922 329939.6395491497 23000.0
    vertex 220932.15706916916 326988.3679172414 23000.0
  endloop
endfacet
facet normal -0.0 -0.0 1.0
  outer loop
    vertex 220081.78025952235 331353.8531115228 23000.0
    vertex 220932.15706916916 326988.3679172414 23000.0
    vertex 222664.20787673807 327988.3679172414 23000.0
  endloop
endfacet
facet normal -0.0 -0.0 1.0
  outer loop
    vertex 222664.20787673807 327988.3679172414 23000.0
    vertex 220932.15706916916 326988.3679172414 23000.0
    vertex 222355.73808986013 323551.5393099523 23000.0
  endloop
endfacet
facet normal -0.0 -0.0 1.0
  outer loop
    vertex 222664.20787673807 327988.3679172414 23000.0
    vertex 222355.73808986013 323551.5393099523 23000.0
    vertex 222841.2950652409 319863.3679172414 23000.0
  endloop
endfacet
facet normal -0.0 -0.0 1.0
  outer loop
    vertex 222664.20787673807 327988.3679172414 23000.0
    vertex 222841.2950652409 319863.3679172414 23000.0
    vertex 224287.58974243826 324069.1774001574 23000.0
  endloop
endfacet
facet normal -0.0 -0.0 1.0
  outer loop
    vertex 224287.58974243826 324069.1774001574 23000.0
    vertex 222841.2950652409 319863.3679172414 23000.0
    vertex 224287.58974243826 315657.55843432544 23000.0
  endloop
endfacet
facet normal 0.38268343236508884 0.9238795325112873 9.451494036050429e-33
  outer loop
    vertex 212797.10454815687 335559.66259443876 23000.0
    vertex 216716.29506524093 333936.2807287385 3000.0000000000023
    vertex 212797.10454815687 335559.66259443876 3000.0000000000023
  endloop
endfacet
facet normal 0.38268343236508884 0.9238795325112873 9.451494036050429e-33
  outer loop
    vertex 216716.29506524093 333936.2807287385 3000.0000000000023
    vertex 212797.10454815687 335559.66259443876 23000.0
    vertex 216716.29506524093 333936.2807287385 23000.0
  endloop
endfacet
facet normal 1.0 0.0 0.0
  outer loop
    vertex 288591.2950652409 337113.3679172414 1.127986593019159e-11
    vertex 288591.2950652409 269863.3679172414 3000.0000000000023
    vertex 288591.2950652409 269863.3679172414 0.0
  endloop
endfacet
facet normal 1.0 0.0 0.0
  outer loop
    vertex 288591.2950652409 269863.3679172414 3000.0000000000023
    vertex 288591.2950652409 337113.3679172414 1.127986593019159e-11
    vertex 288591.2950652409 315657.55843432544 3000.0000000000023
  endloop
endfacet
facet normal 1.0 0.0 0.0
  outer loop
    vertex 288591.2950652409 315657.55843432544 3000.0000000000023
    vertex 288591.2950652409 337113.3679172414 1.127986593019159e-11
    vertex 288591.2950652409 324926.3303936814 3000.0000000000023
  endloop
endfacet
facet normal 1.0 0.0 0.0
  outer loop
    vertex 288591.2950652409 324926.3303936814 3000.0000000000023
    vertex 288591.2950652409 337113.3679172414 1.127986593019159e-11
    vertex 288591.2950652409 337113.3679172414 3000.0000000000023
  endloop
endfacet
facet normal -0.9238795325112873 0.38268343236508884 -1.7419146044942534e-32
  outer loop
    vertex 194518.3822537438 327988.3679172414 23000.0
    vertex 192895.00038804355 324069.1774001574 3000.0000000000023
    vertex 192895.00038804355 324069.1774001574 23000.0
  endloop
endfacet
facet normal -0.9238795325112873 0.38268343236508884 -1.7419146044942534e-32
  outer loop
    vertex 192895.00038804355 324069.1774001574 3000.0000000000023
    vertex 194518.3822537438 327988.3679172414 23000.0
    vertex 194518.3822537438 327988.3679172414 3000.0000000000023
  endloop
endfacet
facet normal 0.6087614290087223 0.7933533402912338 1.3637848932291636e-32
  outer loop
    vertex 216716.29506524093 333936.2807287385 23000.0
    vertex 220081.78025952235 331353.8531115228 3000.0000000000023
    vertex 216716.29506524093 333936.2807287385 3000.0000000000023
  endloop
endfacet
facet normal 0.6087614290087223 0.7933533402912338 1.3637848932291636e-32
  outer loop
    vertex 220081.78025952235 331353.8531115228 3000.0000000000023
    vertex 216716.29506524093 333936.2807287385 23000.0
    vertex 220081.78025952235 331353.8531115228 23000.0
  endloop
endfacet
facet normal 0.0 -1.0 0.0
  outer loop
    vertex 224287.58974243826 315657.55843432544 23000.0
    vertex 224287.58974243826 315657.55843432544 3000.0000000000023
    vertex 288591.2950652409 315657.55843432544 3000.0000000000023
  endloop
endfacet
facet normal -0.0 -0.0 1.0
  outer loop
    vertex 288591.2950652409 269863.3679172414 3000.0000000000023
    vertex 212797.1045481569 304167.073240044 3000.0000000000023
    vertex 212797.1045481569 269863.3679172414 3000.0000000000023
  endloop
endfacet
facet normal -0.0 -0.0 1.0
  outer loop
    vertex 212797.1045481569 304167.073240044 3000.0000000000023
    vertex 288591.2950652409 269863.3679172414 3000.0000000000023
    vertex 216716.29506524093 305790.45510574424 3000.0000000000023
  endloop
endfacet
facet normal -0.0 -0.0 1.0
  outer loop
    vertex 216716.29506524093 305790.45510574424 3000.0000000000023
    vertex 288591.2950652409 269863.3679172414 3000.0000000000023
    vertex 220081.78025952235 308372.88272295997 3000.0000000000023
  endloop
endfacet
facet normal -0.0 -0.0 1.0
  outer loop
    vertex 220081.78025952235 308372.88272295997 3000.0000000000023
    vertex 288591.2950652409 269863.3679172414 3000.0000000000023
    vertex 222664.20787673807 311738.3679172414 3000.0000000000023
  endloop
endfacet
facet normal -0.0 -0.0 1.0
  outer loop
    vertex 222664.20787673807 311738.3679172414 3000.0000000000023
    vertex 288591.2950652409 269863.3679172414 3000.0000000000023
    vertex 224287.58974243826 315657.55843432544 3000.0000000000023
  endloop
endfacet
facet normal -0.0 -0.0 1.0
  outer loop
    vertex 224287.58974243826 315657.55843432544 3000.0000000000023
    vertex 288591.2950652409 269863.3679172414 3000.0000000000023
    vertex 288591.2950652409 315657.55843432544 3000.0000000000023
  endloop
endfacet
facet normal -0.6087614290087183 -0.7933533402912369 -1.3637848932291562e-32
  outer loop
    vertex 218667.56669714922 329939.6395491497 23000.0
    vertex 215716.2950652409 332204.22992116964 3000.0000000000023
    vertex 218667.56669714922 329939.6395491497 3000.0000000000023
  endloop
endfacet
facet normal -0.6087614290087183 -0.7933533402912369 -1.3637848932291562e-32
  outer loop
    vertex 215716.2950652409 332204.22992116964 3000.0000000000023
    vertex 218667.56669714922 329939.6395491497 23000.0
    vertex 215716.2950652409 332204.22992116964 23000.0
  endloop
endfacet
facet normal -0.9238795325112865 -0.3826834323650905 -1.9000411816093165e-32
  outer loop
    vertex 220932.15706916916 326988.3679172414 23000.0
    vertex 222355.73808986013 323551.5393099523 3000.0000000000023
    vertex 222355.73808986013 323551.5393099523 23000.0
  endloop
endfacet
facet normal -0.9238795325112865 -0.3826834323650905 -1.9000411816093165e-32
  outer loop
    vertex 222355.73808986013 323551.5393099523 3000.0000000000023
    vertex 220932.15706916916 326988.3679172414 23000.0
    vertex 220932.15706916916 326988.3679172414 3000.0000000000023
  endloop
endfacet
facet normal 0.9914448613738103 0.13052619222005288 1.9811170005176678e-32
  outer loop
    vertex 194341.29506524093 319863.3679172414 3000.0000000000023
    vertex 194826.8520406217 316175.1965245305 23000.0
    vertex 194826.8520406217 316175.1965245305 3000.0000000000023
  endloop
endfacet
facet normal 0.9914448613738103 0.13052619222005288 1.9811170005176678e-32
  outer loop
    vertex 194826.8520406217 316175.1965245305 23000.0
    vertex 194341.29506524093 319863.3679172414 3000.0000000000023
    vertex 194341.29506524093 319863.3679172414 23000.0
  endloop
endfacet
facet normal 0.3826834323650899 -0.9238795325112866 5.633980765622208e-33
  outer loop
    vertex 204903.12367253 333627.81094186066 23000.0
    vertex 201466.2950652409 332204.22992116964 3000.0000000000023
    vertex 204903.12367253 333627.81094186066 3000.0000000000023
  endloop
endfacet
facet normal 0.3826834323650899 -0.9238795325112866 5.633980765622208e-33
  outer loop
    vertex 201466.2950652409 332204.22992116964 3000.0000000000023
    vertex 204903.12367253 333627.81094186066 23000.0
    vertex 201466.2950652409 332204.22992116964 23000.0
  endloop
endfacet
facet normal 0.0 0.0 1.0
  outer loop
    vertex 212279.46645795184 306098.92489262216 3000.0000000000023
    vertex 208591.29506524093 319863.3679172414 3000.0000000000023
    vertex 208591.29506524093 305613.3679172414 3000.0000000000023
  endloop
endfacet
facet normal 0.0 0.0 1.0
  outer loop
    vertex 208591.29506524093 319863.3679172414 3000.0000000000023
    vertex 212279.46645795184 306098.92489262216 3000.0000000000023
    vertex 222841.2950652409 319863.3679172414 3000.0000000000023
  endloop
endfacet
facet normal 0.0 0.0 1.0
  outer loop
    vertex 222841.2950652409 319863.3679172414 3000.0000000000023
    vertex 212279.46645795184 306098.92489262216 3000.0000000000023
    vertex 215716.2950652409 307522.5059133131 3000.0000000000023
  endloop
endfacet
facet normal 0.0 0.0 1.0
  outer loop
    vertex 222841.2950652409 319863.3679172414 3000.0000000000023
    vertex 215716.2950652409 307522.5059133131 3000.0000000000023
    vertex 218667.56669714922 309787.09628533304 3000.0000000000023
  endloop
endfacet
facet normal 0.0 0.0 1.0
  outer loop
    vertex 222841.2950652409 319863.3679172414 3000.0000000000023
    vertex 218667.56669714922 309787.09628533304 3000.0000000000023
    vertex 220932.15706916916 312738.3679172414 3000.0000000000023
  endloop
endfacet
facet normal 0.0 0.0 1.0
  outer loop
    vertex 222841.2950652409 319863.3679172414 3000.0000000000023
    vertex 220932.15706916916 312738.3679172414 3000.0000000000023
    vertex 222355.73808986013 316175.1965245305 3000.0000000000023
  endloop
endfacet
facet normal 0.6087614290087209 0.7933533402912352 1.3637848932291609e-32
  outer loop
    vertex 198515.02343333262 309787.09628533304 23000.0
    vertex 201466.29506524093 307522.5059133131 3000.0000000000023
    vertex 198515.02343333262 309787.09628533304 3000.0000000000023
  endloop
endfacet
facet normal 0.6087614290087209 0.7933533402912352 1.3637848932291609e-32
  outer loop
    vertex 201466.29506524093 307522.5059133131 3000.0000000000023
    vertex 198515.02343333262 309787.09628533304 23000.0
    vertex 201466.29506524093 307522.5059133131 23000.0
  endloop
endfacet
facet normal 0.7933533402912342 0.608761429008722 1.689480696140805e-32
  outer loop
    vertex 220081.78025952235 331353.8531115228 3000.0000000000023
    vertex 222664.20787673807 327988.3679172414 23000.0
    vertex 222664.20787673807 327988.3679172414 3000.0000000000023
  endloop
endfacet
facet normal 0.7933533402912342 0.608761429008722 1.689480696140805e-32
  outer loop
    vertex 222664.20787673807 327988.3679172414 23000.0
    vertex 220081.78025952235 331353.8531115228 3000.0000000000023
    vertex 220081.78025952235 331353.8531115228 23000.0
  endloop
endfacet
facet normal 0.38268343236508995 -0.9238795325112866 5.633980765622208e-33
  outer loop
    vertex 216716.29506524093 305790.45510574424 23000.0
    vertex 212797.1045481569 304167.073240044 3000.0000000000023
    vertex 216716.29506524093 305790.45510574424 3000.0000000000023
  endloop
endfacet
facet normal 0.38268343236508995 -0.9238795325112866 5.633980765622208e-33
  outer loop
    vertex 212797.1045481569 304167.073240044 3000.0000000000023
    vertex 216716.29506524093 305790.45510574424 23000.0
    vertex 212797.1045481569 304167.073240044 23000.0
  endloop
endfacet
facet normal 0.9238795325112873 -0.38268343236508884 1.7419146044942534e-32
  outer loop
    vertex 224287.58974243826 315657.55843432544 3000.0000000000023
    vertex 222664.20787673807 311738.3679172414 23000.0
    vertex 222664.20787673807 311738.3679172414 3000.0000000000023
  endloop
endfacet
facet normal 0.9238795325112873 -0.38268343236508884 1.7419146044942534e-32
  outer loop
    vertex 222664.20787673807 311738.3679172414 23000.0
    vertex 224287.58974243826 315657.55843432544 3000.0000000000023
    vertex 224287.58974243826 315657.55843432544 23000.0
  endloop
endfacet
facet normal 0.7933533402912358 -0.6087614290087199 1.4379376375508332e-32
  outer loop
    vertex 198515.02343333262 329939.6395491496 3000.0000000000023
    vertex 196250.43306131265 326988.3679172414 23000.0
    vertex 196250.43306131265 326988.3679172414 3000.0000000000023
  endloop
endfacet
facet normal 0.7933533402912358 -0.6087614290087199 1.4379376375508332e-32
  outer loop
    vertex 196250.43306131265 326988.3679172414 23000.0
    vertex 198515.02343333262 329939.6395491496 3000.0000000000023
    vertex 198515.02343333262 329939.6395491496 23000.0
  endloop
endfacet
facet normal -0.013328576460995462 0.9999111705794288 5.759378574248934e-18
  outer loop
    vertex 224287.58974243826 324069.1774001574 23000.0
    vertex 288591.2950652409 324926.3303936814 3000.0000000000023
    vertex 224287.58974243826 324069.1774001574 3000.0000000000023
  endloop
endfacet
facet normal 0.9238795325112866 -0.3826834323650899 1.741914604494252e-32
  outer loop
    vertex 196250.43306131265 326988.3679172414 3000.0000000000023
    vertex 194826.8520406217 323551.5393099523 23000.0
    vertex 194826.8520406217 323551.5393099523 3000.0000000000023
  endloop
endfacet
facet normal 0.9238795325112866 -0.3826834323650899 1.741914604494252e-32
  outer loop
    vertex 194826.8520406217 323551.5393099523 23000.0
    vertex 196250.43306131265 326988.3679172414 3000.0000000000023
    vertex 196250.43306131265 326988.3679172414 23000.0
  endloop
endfacet
facet normal -0.3826834323650905 -0.9238795325112865 -9.45149403605046e-33
  outer loop
    vertex 215716.2950652409 332204.22992116964 23000.0
    vertex 212279.46645795184 333627.81094186066 3000.0000000000023
    vertex 215716.2950652409 332204.22992116964 3000.0000000000023
  endloop
endfacet
facet normal -0.3826834323650905 -0.9238795325112865 -9.45149403605046e-33
  outer loop
    vertex 212279.46645795184 333627.81094186066 3000.0000000000023
    vertex 215716.2950652409 332204.22992116964 23000.0
    vertex 212279.46645795184 333627.81094186066 23000.0
  endloop
endfacet
facet normal 0.9914448613738104 -0.13052619222005157 1.927182969791381e-32
  outer loop
    vertex 194826.8520406217 323551.5393099523 3000.0000000000023
    vertex 194341.29506524093 319863.3679172414 23000.0
    vertex 194341.29506524093 319863.3679172414 3000.0000000000023
  endloop
endfacet
facet normal 0.9914448613738104 -0.13052619222005157 1.927182969791381e-32
  outer loop
    vertex 194341.29506524093 319863.3679172414 23000.0
    vertex 194826.8520406217 323551.5393099523 3000.0000000000023
    vertex 194826.8520406217 323551.5393099523 23000.0
  endloop
endfacet
facet normal -0.3826834323650893 0.9238795325112871 -5.633980765622194e-33
  outer loop
    vertex 200466.29506524093 333936.2807287385 23000.0
    vertex 204385.48558232494 335559.6625944387 3000.0000000000023
    vertex 200466.29506524093 333936.2807287385 3000.0000000000023
  endloop
endfacet
facet normal -0.3826834323650893 0.9238795325112871 -5.633980765622194e-33
  outer loop
    vertex 204385.48558232494 335559.6625944387 3000.0000000000023
    vertex 200466.29506524093 333936.2807287385 23000.0
    vertex 204385.48558232494 335559.6625944387 23000.0
  endloop
endfacet
facet normal -0.9914448613738103 0.13052619222005288 -1.92718296979138e-32
  outer loop
    vertex 222841.2950652409 319863.3679172414 23000.0
    vertex 222355.73808986013 316175.1965245305 3000.0000000000023
    vertex 222355.73808986013 316175.1965245305 23000.0
  endloop
endfacet
facet normal -0.9914448613738103 0.13052619222005288 -1.92718296979138e-32
  outer loop
    vertex 222355.73808986013 316175.1965245305 3000.0000000000023
    vertex 222841.2950652409 319863.3679172414 23000.0
    vertex 222841.2950652409 319863.3679172414 3000.0000000000023
  endloop
endfacet
facet normal -0.6087614290087209 0.7933533402912352 -1.0359675969126236e-32
  outer loop
    vertex 215716.2950652409 307522.5059133131 23000.0
    vertex 218667.56669714922 309787.09628533304 3000.0000000000023
    vertex 215716.2950652409 307522.5059133131 3000.0000000000023
  endloop
endfacet
facet normal -0.6087614290087209 0.7933533402912352 -1.0359675969126236e-32
  outer loop
    vertex 218667.56669714922 309787.09628533304 3000.0000000000023
    vertex 215716.2950652409 307522.5059133131 23000.0
    vertex 218667.56669714922 309787.09628533304 23000.0
  endloop
endfacet
facet normal -0.38268343236509106 -0.9238795325112862 -9.451494036050471e-33
  outer loop
    vertex 204385.48558232497 304167.073240044 23000.0
    vertex 200466.29506524093 305790.45510574424 3000.0000000000023
    vertex 204385.48558232497 304167.073240044 3000.0000000000023
  endloop
endfacet
facet normal -0.38268343236509106 -0.9238795325112862 -9.451494036050471e-33
  outer loop
    vertex 200466.29506524093 305790.45510574424 3000.0000000000023
    vertex 204385.48558232497 304167.073240044 23000.0
    vertex 200466.29506524093 305790.45510574424 23000.0
  endloop
endfacet
facet normal 0.9238795325112861 0.3826834323650916 1.900041181609316e-32
  outer loop
    vertex 222664.20787673807 327988.3679172414 3000.0000000000023
    vertex 224287.58974243826 324069.1774001574 23000.0
    vertex 224287.58974243826 324069.1774001574 3000.0000000000023
  endloop
endfacet
facet normal 0.9238795325112861 0.3826834323650916 1.900041181609316e-32
  outer loop
    vertex 224287.58974243826 324069.1774001574 23000.0
    vertex 222664.20787673807 327988.3679172414 3000.0000000000023
    vertex 222664.20787673807 327988.3679172414 23000.0
  endloop
endfacet
facet normal -0.9914448613738103 -0.1305261922200525 -1.9811170005176678e-32
  outer loop
    vertex 222355.73808986013 323551.5393099523 23000.0
    vertex 222841.2950652409 319863.3679172414 3000.0000000000023
    vertex 222841.2950652409 319863.3679172414 23000.0
  endloop
endfacet
facet normal -0.9914448613738103 -0.1305261922200525 -1.9811170005176678e-32
  outer loop
    vertex 222841.2950652409 319863.3679172414 3000.0000000000023
    vertex 222355.73808986013 323551.5393099523 23000.0
    vertex 222355.73808986013 323551.5393099523 3000.0000000000023
  endloop
endfacet
facet normal -0.7933533402912352 0.6087614290087207 -1.4379376375508316e-32
  outer loop
    vertex 197100.80987095952 331353.8531115228 23000.0
    vertex 194518.3822537438 327988.3679172414 3000.0000000000023
    vertex 194518.3822537438 327988.3679172414 23000.0
  endloop
endfacet
facet normal -0.7933533402912352 0.6087614290087207 -1.4379376375508316e-32
  outer loop
    vertex 194518.3822537438 327988.3679172414 3000.0000000000023
    vertex 197100.80987095952 331353.8531115228 23000.0
    vertex 197100.80987095952 331353.8531115228 3000.0000000000023
  endloop
endfacet
facet normal 0.3826834323650894 0.923879532511287 9.451494036050439e-33
  outer loop
    vertex 201466.29506524093 307522.5059133131 23000.0
    vertex 204903.12367253003 306098.92489262216 3000.0000000000023
    vertex 201466.29506524093 307522.5059133131 3000.0000000000023
  endloop
endfacet
facet normal 0.3826834323650894 0.923879532511287 9.451494036050439e-33
  outer loop
    vertex 204903.12367253003 306098.92489262216 3000.0000000000023
    vertex 201466.29506524093 307522.5059133131 23000.0
    vertex 204903.12367253003 306098.92489262216 23000.0
  endloop
endfacet
facet normal 0.0 0.0 1.0
  outer loop
    vertex 194826.8520406217 316175.1965245305 3000.0000000000023
    vertex 208591.29506524093 319863.3679172414 3000.0000000000023
    vertex 194341.29506524093 319863.3679172414 3000.0000000000023
  endloop
endfacet
facet normal 0.0 0.0 1.0
  outer loop
    vertex 208591.29506524093 319863.3679172414 3000.0000000000023
    vertex 194826.8520406217 316175.1965245305 3000.0000000000023
    vertex 196250.43306131265 312738.3679172414 3000.0000000000023
  endloop
endfacet
facet normal 0.0 0.0 1.0
  outer loop
    vertex 208591.29506524093 319863.3679172414 3000.0000000000023
    vertex 196250.43306131265 312738.3679172414 3000.0000000000023
    vertex 198515.02343333262 309787.09628533304 3000.0000000000023
  endloop
endfacet
facet normal 0.0 0.0 1.0
  outer loop
    vertex 208591.29506524093 319863.3679172414 3000.0000000000023
    vertex 198515.02343333262 309787.09628533304 3000.0000000000023
    vertex 201466.29506524093 307522.5059133131 3000.0000000000023
  endloop
endfacet
facet normal 0.0 0.0 1.0
  outer loop
    vertex 208591.29506524093 319863.3679172414 3000.0000000000023
    vertex 201466.29506524093 307522.5059133131 3000.0000000000023
    vertex 204903.12367253003 306098.92489262216 3000.0000000000023
  endloop
endfacet
facet normal 0.0 0.0 1.0
  outer loop
    vertex 208591.29506524093 319863.3679172414 3000.0000000000023
    vertex 204903.12367253003 306098.92489262216 3000.0000000000023
    vertex 208591.29506524093 305613.3679172414 3000.0000000000023
  endloop
endfacet
facet normal -1.0 1.6835765413420506e-16 0.0
  outer loop
    vertex 204385.48558232497 304167.073240044 3000.0000000000023
    vertex 204385.48558232497 269863.3679172414 3000.0000000000023
    vertex 204385.48558232497 304167.073240044 23000.0
  endloop
endfacet
facet normal -0.0 -0.0 1.0
  outer loop
    vertex 204385.48558232497 269863.3679172414 3000.0000000000023
    vertex 128591.29506524096 337113.3679172414 3000.0000000000023
    vertex 128591.29506524096 269863.3679172414 3000.0000000000023
  endloop
endfacet
facet normal -0.0 -0.0 1.0
  outer loop
    vertex 128591.29506524096 337113.3679172414 3000.0000000000023
    vertex 204385.48558232497 269863.3679172414 3000.0000000000023
    vertex 192895.00038804355 315657.55843432544 3000.0000000000023
  endloop
endfacet
facet normal -0.0 -0.0 1.0
  outer loop
    vertex 128591.29506524096 337113.3679172414 3000.0000000000023
    vertex 192895.00038804355 315657.55843432544 3000.0000000000023
    vertex 192341.29506524093 319863.3679172414 3000.0000000000023
  endloop
endfacet
facet normal -0.0 -0.0 1.0
  outer loop
    vertex 192895.00038804355 315657.55843432544 3000.0000000000023
    vertex 204385.48558232497 269863.3679172414 3000.0000000000023
    vertex 194518.3822537438 311738.3679172414 3000.0000000000023
  endloop
endfacet
facet normal -0.0 -0.0 1.0
  outer loop
    vertex 194518.3822537438 311738.3679172414 3000.0000000000023
    vertex 204385.48558232497 269863.3679172414 3000.0000000000023
    vertex 197100.80987095952 308372.88272295997 3000.0000000000023
  endloop
endfacet
facet normal -0.0 -0.0 1.0
  outer loop
    vertex 197100.80987095952 308372.88272295997 3000.0000000000023
    vertex 204385.48558232497 269863.3679172414 3000.0000000000023
    vertex 200466.29506524093 305790.45510574424 3000.0000000000023
  endloop
endfacet
facet normal -0.0 -0.0 1.0
  outer loop
    vertex 200466.29506524093 305790.45510574424 3000.0000000000023
    vertex 204385.48558232497 269863.3679172414 3000.0000000000023
    vertex 204385.48558232497 304167.073240044 3000.0000000000023
  endloop
endfacet
facet normal -0.0 -0.0 1.0
  outer loop
    vertex 128591.29506524096 337113.3679172414 3000.0000000000023
    vertex 208591.29506524093 336113.3679172414 3000.0000000000023
    vertex 288591.2950652409 337113.3679172414 3000.0000000000023
  endloop
endfacet
facet normal -0.0 -0.0 1.0
  outer loop
    vertex 208591.29506524093 336113.3679172414 3000.0000000000023
    vertex 128591.29506524096 337113.3679172414 3000.0000000000023
    vertex 204385.48558232494 335559.6625944387 3000.0000000000023
  endloop
endfacet
facet normal -0.0 -0.0 1.0
  outer loop
    vertex 204385.48558232494 335559.6625944387 3000.0000000000023
    vertex 128591.29506524096 337113.3679172414 3000.0000000000023
    vertex 200466.29506524093 333936.2807287385 3000.0000000000023
  endloop
endfacet
facet normal -0.0 -0.0 1.0
  outer loop
    vertex 200466.29506524093 333936.2807287385 3000.0000000000023
    vertex 128591.29506524096 337113.3679172414 3000.0000000000023
    vertex 197100.80987095952 331353.8531115228 3000.0000000000023
  endloop
endfacet
facet normal -0.0 -0.0 1.0
  outer loop
    vertex 197100.80987095952 331353.8531115228 3000.0000000000023
    vertex 128591.29506524096 337113.3679172414 3000.0000000000023
    vertex 194518.3822537438 327988.3679172414 3000.0000000000023
  endloop
endfacet
facet normal -0.0 -0.0 1.0
  outer loop
    vertex 194518.3822537438 327988.3679172414 3000.0000000000023
    vertex 128591.29506524096 337113.3679172414 3000.0000000000023
    vertex 192895.00038804355 324069.1774001574 3000.0000000000023
  endloop
endfacet
facet normal -0.0 -0.0 1.0
  outer loop
    vertex 192895.00038804355 324069.1774001574 3000.0000000000023
    vertex 128591.29506524096 337113.3679172414 3000.0000000000023
    vertex 192341.29506524093 319863.3679172414 3000.0000000000023
  endloop
endfacet
facet normal -0.0 -0.0 1.0
  outer loop
    vertex 288591.2950652409 337113.3679172414 3000.0000000000023
    vertex 208591.29506524093 336113.3679172414 3000.0000000000023
    vertex 212797.10454815687 335559.66259443876 3000.0000000000023
  endloop
endfacet
facet normal -0.0 -0.0 1.0
  outer loop
    vertex 288591.2950652409 337113.3679172414 3000.0000000000023
    vertex 212797.10454815687 335559.66259443876 3000.0000000000023
    vertex 216716.29506524093 333936.2807287385 3000.0000000000023
  endloop
endfacet
facet normal -0.0 -0.0 1.0
  outer loop
    vertex 288591.2950652409 337113.3679172414 3000.0000000000023
    vertex 216716.29506524093 333936.2807287385 3000.0000000000023
    vertex 220081.78025952235 331353.8531115228 3000.0000000000023
  endloop
endfacet
facet normal -0.0 -0.0 1.0
  outer loop
    vertex 288591.2950652409 337113.3679172414 3000.0000000000023
    vertex 220081.78025952235 331353.8531115228 3000.0000000000023
    vertex 222664.20787673807 327988.3679172414 3000.0000000000023
  endloop
endfacet
facet normal -0.0 -0.0 1.0
  outer loop
    vertex 288591.2950652409 337113.3679172414 3000.0000000000023
    vertex 222664.20787673807 327988.3679172414 3000.0000000000023
    vertex 224287.58974243826 324069.1774001574 3000.0000000000023
  endloop
endfacet
facet normal -0.0 -0.0 1.0
  outer loop
    vertex 288591.2950652409 337113.3679172414 3000.0000000000023
    vertex 224287.58974243826 324069.1774001574 3000.0000000000023
    vertex 288591.2950652409 324926.3303936814 3000.0000000000023
  endloop
endfacet
facet normal -0.7933533402912358 -0.6087614290087199 -1.6894806961408076e-32
  outer loop
    vertex 218667.56669714922 329939.6395491497 23000.0
    vertex 220932.15706916916 326988.3679172414 3000.0000000000023
    vertex 220932.15706916916 326988.3679172414 23000.0
  endloop
endfacet
facet normal -0.7933533402912358 -0.6087614290087199 -1.6894806961408076e-32
  outer loop
    vertex 220932.15706916916 326988.3679172414 3000.0000000000023
    vertex 218667.56669714922 329939.6395491497 23000.0
    vertex 218667.56669714922 329939.6395491497 3000.0000000000023
  endloop
endfacet
facet normal -0.7933533402912358 0.6087614290087199 -1.4379376375508332e-32
  outer loop
    vertex 220932.15706916916 312738.3679172414 23000.0
    vertex 218667.56669714922 309787.09628533304 3000.0000000000023
    vertex 218667.56669714922 309787.09628533304 23000.0
  endloop
endfacet
facet normal -0.7933533402912358 0.6087614290087199 -1.4379376375508332e-32
  outer loop
    vertex 218667.56669714922 309787.09628533304 3000.0000000000023
    vertex 220932.15706916916 312738.3679172414 23000.0
    vertex 220932.15706916916 312738.3679172414 3000.0000000000023
  endloop
endfacet
facet normal -0.9914448613738106 0.13052619222005077 -1.9271829697913817e-32
  outer loop
    vertex 192895.00038804355 324069.1774001574 23000.0
    vertex 192341.29506524093 319863.3679172414 3000.0000000000023
    vertex 192341.29506524093 319863.3679172414 23000.0
  endloop
endfacet
facet normal -0.9914448613738106 0.13052619222005077 -1.9271829697913817e-32
  outer loop
    vertex 192341.29506524093 319863.3679172414 3000.0000000000023
    vertex 192895.00038804355 324069.1774001574 23000.0
    vertex 192895.00038804355 324069.1774001574 3000.0000000000023
  endloop
endfacet
facet normal -0.1305261922200531 0.9914448613738104 -5.2433908353448925e-34
  outer loop
    vertex 204385.48558232494 335559.6625944387 23000.0
    vertex 208591.29506524093 336113.3679172414 3000.0000000000023
    vertex 204385.48558232494 335559.6625944387 3000.0000000000023
  endloop
endfacet
facet normal -0.1305261922200531 0.9914448613738104 -5.2433908353448925e-34
  outer loop
    vertex 208591.29506524093 336113.3679172414 3000.0000000000023
    vertex 204385.48558232494 335559.6625944387 23000.0
    vertex 208591.29506524093 336113.3679172414 23000.0
  endloop
endfacet
facet normal 0.0 0.0 1.0
  outer loop
    vertex 222841.2950652409 319863.3679172414 3000.0000000000023
    vertex 208591.29506524093 334113.36791724135 3000.0000000000023
    vertex 208591.29506524093 319863.3679172414 3000.0000000000023
  endloop
endfacet
facet normal 0.0 0.0 1.0
  outer loop
    vertex 208591.29506524093 334113.36791724135 3000.0000000000023
    vertex 222841.2950652409 319863.3679172414 3000.0000000000023
    vertex 212279.46645795184 333627.81094186066 3000.0000000000023
  endloop
endfacet
facet normal 0.0 0.0 1.0
  outer loop
    vertex 212279.46645795184 333627.81094186066 3000.0000000000023
    vertex 222841.2950652409 319863.3679172414 3000.0000000000023
    vertex 215716.2950652409 332204.22992116964 3000.0000000000023
  endloop
endfacet
facet normal 0.0 0.0 1.0
  outer loop
    vertex 215716.2950652409 332204.22992116964 3000.0000000000023
    vertex 222841.2950652409 319863.3679172414 3000.0000000000023
    vertex 218667.56669714922 329939.6395491497 3000.0000000000023
  endloop
endfacet
facet normal 0.0 0.0 1.0
  outer loop
    vertex 218667.56669714922 329939.6395491497 3000.0000000000023
    vertex 222841.2950652409 319863.3679172414 3000.0000000000023
    vertex 220932.15706916916 326988.3679172414 3000.0000000000023
  endloop
endfacet
facet normal 0.0 0.0 1.0
  outer loop
    vertex 220932.15706916916 326988.3679172414 3000.0000000000023
    vertex 222841.2950652409 319863.3679172414 3000.0000000000023
    vertex 222355.73808986013 323551.5393099523 3000.0000000000023
  endloop
endfacet
facet normal 1.0 0.0 0.0
  outer loop
    vertex 212797.1045481569 304167.073240044 23000.0
    vertex 212797.1045481569 269863.3679172414 3000.0000000000023
    vertex 212797.1045481569 304167.073240044 3000.0000000000023
  endloop
endfacet
facet normal 0.13052619222004944 -0.9914448613738107 5.243390835344164e-34
  outer loop
    vertex 208591.29506524093 334113.36791724135 23000.0
    vertex 204903.12367253 333627.81094186066 3000.0000000000023
    vertex 208591.29506524093 334113.36791724135 3000.0000000000023
  endloop
endfacet
facet normal 0.13052619222004944 -0.9914448613738107 5.243390835344164e-34
  outer loop
    vertex 204903.12367253 333627.81094186066 3000.0000000000023
    vertex 208591.29506524093 334113.36791724135 23000.0
    vertex 204903.12367253 333627.81094186066 23000.0
  endloop
endfacet
facet normal 0.13052619222005077 0.9914448613738106 4.621035440584837e-33
  outer loop
    vertex 208591.29506524093 336113.3679172414 23000.0
    vertex 212797.10454815687 335559.66259443876 3000.0000000000023
    vertex 208591.29506524093 336113.3679172414 3000.0000000000023
  endloop
endfacet
facet normal 0.13052619222005077 0.9914448613738106 4.621035440584837e-33
  outer loop
    vertex 212797.10454815687 335559.66259443876 3000.0000000000023
    vertex 208591.29506524093 336113.3679172414 23000.0
    vertex 212797.10454815687 335559.66259443876 23000.0
  endloop
endfacet
facet normal -7.676902082258124e-17 -0.5036738166416986 0.8638939092444077
  outer loop
    vertex 212797.1045481569 269863.3679172414 3000.0000000000023
    vertex 204385.48558232497 304167.073240044 23000.0
    vertex 204385.48558232497 269863.3679172414 3000.0000000000023
  endloop
endfacet
facet normal -7.676902082258124e-17 -0.5036738166416986 0.8638939092444077
  outer loop
    vertex 204385.48558232497 304167.073240044 23000.0
    vertex 212797.1045481569 269863.3679172414 3000.0000000000023
    vertex 212797.1045481569 304167.073240044 23000.0
  endloop
endfacet
facet normal -0.9238795325112864 -0.3826834323650906 -1.9000411816093165e-32
  outer loop
    vertex 192895.00038804355 315657.55843432544 23000.0
    vertex 194518.3822537438 311738.3679172414 3000.0000000000023
    vertex 194518.3822537438 311738.3679172414 23000.0
  endloop
endfacet
facet normal -0.9238795325112864 -0.3826834323650906 -1.9000411816093165e-32
  outer loop
    vertex 194518.3822537438 311738.3679172414 3000.0000000000023
    vertex 192895.00038804355 315657.55843432544 23000.0
    vertex 192895.00038804355 315657.55843432544 3000.0000000000023
  endloop
endfacet
facet normal 0.7933533402912348 -0.6087614290087213 1.4379376375508308e-32
  outer loop
    vertex 222664.20787673807 311738.3679172414 3000.0000000000023
    vertex 220081.78025952235 308372.88272295997 23000.0
    vertex 220081.78025952235 308372.88272295997 3000.0000000000023
  endloop
endfacet
facet normal 0.7933533402912348 -0.6087614290087213 1.4379376375508308e-32
  outer loop
    vertex 220081.78025952235 308372.88272295997 23000.0
    vertex 222664.20787673807 311738.3679172414 3000.0000000000023
    vertex 222664.20787673807 311738.3679172414 23000.0
  endloop
endfacet
facet normal -0.3826834323650899 0.9238795325112866 -5.633980765622208e-33
  outer loop
    vertex 212279.46645795184 306098.92489262216 23000.0
    vertex 215716.2950652409 307522.5059133131 3000.0000000000023
    vertex 212279.46645795184 306098.92489262216 3000.0000000000023
  endloop
endfacet
facet normal -0.3826834323650899 0.9238795325112866 -5.633980765622208e-33
  outer loop
    vertex 215716.2950652409 307522.5059133131 3000.0000000000023
    vertex 212279.46645795184 306098.92489262216 23000.0
    vertex 215716.2950652409 307522.5059133131 23000.0
  endloop
endfacet
facet normal -1.0 0.0 0.0
  outer loop
    vertex 128591.29506524096 337113.3679172414 3000.0000000000023
    vertex 128591.29506524096 269863.3679172414 3.356888100825017e-11
    vertex 128591.29506524096 269863.3679172414 3000.0000000000023
  endloop
endfacet
facet normal -1.0 0.0 0.0
  outer loop
    vertex 128591.29506524096 269863.3679172414 3.356888100825017e-11
    vertex 128591.29506524096 337113.3679172414 3000.0000000000023
    vertex 128591.29506524096 337113.3679172414 2.2469492932941646e-11
  endloop
endfacet
facet normal -0.13052619222005002 -0.9914448613738106 -4.6210354405848236e-33
  outer loop
    vertex 212279.46645795184 333627.81094186066 23000.0
    vertex 208591.29506524093 334113.36791724135 3000.0000000000023
    vertex 212279.46645795184 333627.81094186066 3000.0000000000023
  endloop
endfacet
facet normal -0.13052619222005002 -0.9914448613738106 -4.6210354405848236e-33
  outer loop
    vertex 208591.29506524093 334113.36791724135 3000.0000000000023
    vertex 212279.46645795184 333627.81094186066 23000.0
    vertex 208591.29506524093 334113.36791724135 23000.0
  endloop
endfacet
facet normal 0.6087614290087207 -0.7933533402912352 1.035967596912623e-32
  outer loop
    vertex 220081.78025952235 308372.88272295997 23000.0
    vertex 216716.29506524093 305790.45510574424 3000.0000000000023
    vertex 220081.78025952235 308372.88272295997 3000.0000000000023
  endloop
endfacet
facet normal 0.6087614290087207 -0.7933533402912352 1.035967596912623e-32
  outer loop
    vertex 216716.29506524093 305790.45510574424 3000.0000000000023
    vertex 220081.78025952235 308372.88272295997 23000.0
    vertex 216716.29506524093 305790.45510574424 23000.0
  endloop
endfacet
facet normal -0.13052619222005138 0.9914448613738105 -5.243390835344547e-34
  outer loop
    vertex 208591.29506524093 305613.3679172414 23000.0
    vertex 212279.46645795184 306098.92489262216 3000.0000000000023
    vertex 208591.29506524093 305613.3679172414 3000.0000000000023
  endloop
endfacet
facet normal -0.13052619222005138 0.9914448613738105 -5.243390835344547e-34
  outer loop
    vertex 212279.46645795184 306098.92489262216 3000.0000000000023
    vertex 208591.29506524093 305613.3679172414 23000.0
    vertex 212279.46645795184 306098.92489262216 23000.0
  endloop
endfacet
facet normal 0.7933533402912352 0.6087614290087205 1.6894806961408062e-32
  outer loop
    vertex 196250.43306131265 312738.3679172414 3000.0000000000023
    vertex 198515.02343333262 309787.09628533304 23000.0
    vertex 198515.02343333262 309787.09628533304 3000.0000000000023
  endloop
endfacet
facet normal 0.7933533402912352 0.6087614290087205 1.6894806961408062e-32
  outer loop
    vertex 198515.02343333262 309787.09628533304 23000.0
    vertex 196250.43306131265 312738.3679172414 3000.0000000000023
    vertex 196250.43306131265 312738.3679172414 23000.0
  endloop
endfacet
endsolid PVCBeaconPusherParts
