solid FinalDraft1
facet normal 0.0 0.0 1.0
  outer loop
    vertex 110.79304837504179 46.21034174113288 -0.49999999999997813
    vertex 111.29304837504178 46.71034174113288 -0.49999999999997813
    vertex 110.79304837504179 55.077979831337935 -0.49999999999997813
  endloop
endfacet
facet normal 0.0 0.0 1.0
  outer loop
    vertex 111.29304837504178 46.71034174113288 -0.49999999999997813
    vertex 110.79304837504179 46.21034174113288 -0.49999999999997813
    vertex 119.66068646524685 46.21034174113288 -0.49999999999997813
  endloop
endfacet
facet normal 0.0 0.0 1.0
  outer loop
    vertex 111.29304837504178 46.71034174113288 -0.49999999999997813
    vertex 119.66068646524685 46.21034174113288 -0.49999999999997813
    vertex 119.16068646524685 46.71034174113288 -0.49999999999997813
  endloop
endfacet
facet normal 0.0 0.0 1.0
  outer loop
    vertex 119.16068646524685 46.71034174113288 -0.49999999999997813
    vertex 119.66068646524685 46.21034174113288 -0.49999999999997813
    vertex 119.16068646524685 54.577979831337935 -0.49999999999997813
  endloop
endfacet
facet normal 0.0 0.0 1.0
  outer loop
    vertex 110.79304837504179 55.077979831337935 -0.49999999999997813
    vertex 111.29304837504178 54.577979831337935 -0.49999999999997813
    vertex 119.66068646524685 55.077979831337935 -0.49999999999997813
  endloop
endfacet
facet normal 0.0 0.0 1.0
  outer loop
    vertex 111.29304837504178 54.577979831337935 -0.49999999999997813
    vertex 110.79304837504179 55.077979831337935 -0.49999999999997813
    vertex 111.29304837504178 46.71034174113288 -0.49999999999997813
  endloop
endfacet
facet normal 0.0 0.0 1.0
  outer loop
    vertex 119.66068646524685 55.077979831337935 -0.49999999999997813
    vertex 111.29304837504178 54.577979831337935 -0.49999999999997813
    vertex 119.16068646524685 54.577979831337935 -0.49999999999997813
  endloop
endfacet
facet normal 0.0 0.0 1.0
  outer loop
    vertex 119.66068646524685 55.077979831337935 -0.49999999999997813
    vertex 119.16068646524685 54.577979831337935 -0.49999999999997813
    vertex 119.66068646524685 46.21034174113288 -0.49999999999997813
  endloop
endfacet
facet normal -1.0 0.0 0.0
  outer loop
    vertex 119.16068646524685 54.577979831337935 -0.49999999999997813
    vertex 119.16068646524685 46.71034174113288 -1.9659258262890442
    vertex 119.16068646524685 46.71034174113288 -0.49999999999997813
  endloop
endfacet
facet normal -1.0 0.0 0.0
  outer loop
    vertex 119.16068646524685 46.71034174113288 -1.9659258262890442
    vertex 119.16068646524685 54.577979831337935 -0.49999999999997813
    vertex 119.16068646524685 54.577979831337935 -1.9659258262890442
  endloop
endfacet
facet normal 1.0 0.0 0.0
  outer loop
    vertex 111.29304837504178 54.577979831337935 -1.9659258262890442
    vertex 111.29304837504178 46.71034174113288 -0.49999999999997813
    vertex 111.29304837504178 46.71034174113288 -1.9659258262890442
  endloop
endfacet
facet normal 1.0 0.0 0.0
  outer loop
    vertex 111.29304837504178 46.71034174113288 -0.49999999999997813
    vertex 111.29304837504178 54.577979831337935 -1.9659258262890442
    vertex 111.29304837504178 54.577979831337935 -0.49999999999997813
  endloop
endfacet
facet normal -0.0 -1.0 -0.0
  outer loop
    vertex 119.16068646524685 54.577979831337935 -0.49999999999997813
    vertex 111.29304837504178 54.577979831337935 -1.9659258262890442
    vertex 119.16068646524685 54.577979831337935 -1.9659258262890442
  endloop
endfacet
facet normal -0.0 -1.0 -0.0
  outer loop
    vertex 111.29304837504178 54.577979831337935 -1.9659258262890442
    vertex 119.16068646524685 54.577979831337935 -0.49999999999997813
    vertex 111.29304837504178 54.577979831337935 -0.49999999999997813
  endloop
endfacet
facet normal 0.0 0.0 -1.0
  outer loop
    vertex 135.16068646524684 55.577979831337935 -3.465925826289044
    vertex 120.16068646524685 45.71034174113288 -3.465925826289044
    vertex 120.16068646524685 55.577979831337935 -3.465925826289044
  endloop
endfacet
facet normal 0.0 0.0 -1.0
  outer loop
    vertex 120.16068646524685 45.71034174113288 -3.465925826289044
    vertex 135.16068646524684 55.577979831337935 -3.465925826289044
    vertex 135.16068646524684 45.71034174113288 -3.465925826289044
  endloop
endfacet
facet normal 0.0 0.0 -1.0
  outer loop
    vertex 120.16068646524685 70.57797983133793 -3.465925826289044
    vertex 110.29304837504179 55.577979831337935 -3.465925826289044
    vertex 110.29304837504179 70.57797983133793 -3.465925826289044
  endloop
endfacet
facet normal 0.0 0.0 -1.0
  outer loop
    vertex 110.29304837504179 55.577979831337935 -3.465925826289044
    vertex 120.16068646524685 70.57797983133793 -3.465925826289044
    vertex 110.29304837504179 45.71034174113288 -3.465925826289044
  endloop
endfacet
facet normal 0.0 0.0 -1.0
  outer loop
    vertex 110.29304837504179 45.71034174113288 -3.465925826289044
    vertex 120.16068646524685 70.57797983133793 -3.465925826289044
    vertex 110.29304837504179 30.71034174113288 -3.465925826289044
  endloop
endfacet
facet normal 0.0 0.0 -1.0
  outer loop
    vertex 110.29304837504179 30.71034174113288 -3.465925826289044
    vertex 120.16068646524685 70.57797983133793 -3.465925826289044
    vertex 120.16068646524685 30.71034174113288 -3.465925826289044
  endloop
endfacet
facet normal 0.0 0.0 -1.0
  outer loop
    vertex 120.16068646524685 30.71034174113288 -3.465925826289044
    vertex 120.16068646524685 70.57797983133793 -3.465925826289044
    vertex 120.16068646524685 55.577979831337935 -3.465925826289044
  endloop
endfacet
facet normal 0.0 0.0 -1.0
  outer loop
    vertex 120.16068646524685 30.71034174113288 -3.465925826289044
    vertex 120.16068646524685 55.577979831337935 -3.465925826289044
    vertex 120.16068646524685 45.71034174113288 -3.465925826289044
  endloop
endfacet
facet normal 0.0 0.0 -1.0
  outer loop
    vertex 110.29304837504179 55.577979831337935 -3.465925826289044
    vertex 95.29304837504179 45.71034174113288 -3.465925826289044
    vertex 95.29304837504179 55.577979831337935 -3.465925826289044
  endloop
endfacet
facet normal 0.0 0.0 -1.0
  outer loop
    vertex 95.29304837504179 45.71034174113288 -3.465925826289044
    vertex 110.29304837504179 55.577979831337935 -3.465925826289044
    vertex 110.29304837504179 45.71034174113288 -3.465925826289044
  endloop
endfacet
facet normal -0.0 0.9464603753579182 0.3228200084835956
  outer loop
    vertex 110.79304837504179 55.077979831337935 -0.49999999999997813
    vertex 120.16068646524685 55.577979831337935 -1.9659258262890442
    vertex 110.29304837504179 55.577979831337935 -1.9659258262890442
  endloop
endfacet
facet normal -0.0 0.9464603753579182 0.3228200084835956
  outer loop
    vertex 120.16068646524685 55.577979831337935 -1.9659258262890442
    vertex 110.79304837504179 55.077979831337935 -0.49999999999997813
    vertex 119.66068646524685 55.077979831337935 -0.49999999999997813
  endloop
endfacet
facet normal -0.0 -0.0 1.0
  outer loop
    vertex 119.16068646524685 46.71034174113288 -1.9659258262890442
    vertex 111.29304837504178 54.577979831337935 -1.9659258262890442
    vertex 111.29304837504178 46.71034174113288 -1.9659258262890442
  endloop
endfacet
facet normal -0.0 -0.0 1.0
  outer loop
    vertex 111.29304837504178 54.577979831337935 -1.9659258262890442
    vertex 119.16068646524685 46.71034174113288 -1.9659258262890442
    vertex 119.16068646524685 54.577979831337935 -1.9659258262890442
  endloop
endfacet
facet normal -0.9464603753579182 2.7441024067950963e-30 0.3228200084835956
  outer loop
    vertex 110.79304837504179 46.21034174113288 -0.49999999999997813
    vertex 110.29304837504179 55.577979831337935 -1.9659258262890442
    vertex 110.29304837504179 45.71034174113288 -1.9659258262890442
  endloop
endfacet
facet normal -0.9464603753579182 2.7441024067950963e-30 0.3228200084835956
  outer loop
    vertex 110.29304837504179 55.577979831337935 -1.9659258262890442
    vertex 110.79304837504179 46.21034174113288 -0.49999999999997813
    vertex 110.79304837504179 55.077979831337935 -0.49999999999997813
  endloop
endfacet
facet normal 0.0 1.0 0.0
  outer loop
    vertex 111.29304837504178 46.71034174113288 -0.49999999999997813
    vertex 119.16068646524685 46.71034174113288 -1.9659258262890442
    vertex 111.29304837504178 46.71034174113288 -1.9659258262890442
  endloop
endfacet
facet normal 0.0 1.0 0.0
  outer loop
    vertex 119.16068646524685 46.71034174113288 -1.9659258262890442
    vertex 111.29304837504178 46.71034174113288 -0.49999999999997813
    vertex 119.16068646524685 46.71034174113288 -0.49999999999997813
  endloop
endfacet
facet normal 0.0 -0.9464603753579182 0.3228200084835956
  outer loop
    vertex 119.66068646524685 46.21034174113288 -0.49999999999997813
    vertex 110.29304837504179 45.71034174113288 -1.9659258262890442
    vertex 120.16068646524685 45.71034174113288 -1.9659258262890442
  endloop
endfacet
facet normal 0.0 -0.9464603753579182 0.3228200084835956
  outer loop
    vertex 110.29304837504179 45.71034174113288 -1.9659258262890442
    vertex 119.66068646524685 46.21034174113288 -0.49999999999997813
    vertex 110.79304837504179 46.21034174113288 -0.49999999999997813
  endloop
endfacet
facet normal -0.0 1.0 -0.0
  outer loop
    vertex 95.29304837504179 55.577979831337935 -1.9659258262890442
    vertex 110.29304837504179 55.577979831337935 -3.465925826289044
    vertex 95.29304837504179 55.577979831337935 -3.465925826289044
  endloop
endfacet
facet normal -0.0 1.0 -0.0
  outer loop
    vertex 110.29304837504179 55.577979831337935 -3.465925826289044
    vertex 95.29304837504179 55.577979831337935 -1.9659258262890442
    vertex 110.29304837504179 55.577979831337935 -1.9659258262890442
  endloop
endfacet
facet normal -1.0 0.0 0.0
  outer loop
    vertex 110.29304837504179 45.71034174113288 -1.9659258262890442
    vertex 110.29304837504179 30.71034174113288 -3.465925826289044
    vertex 110.29304837504179 30.71034174113288 -1.9659258262890442
  endloop
endfacet
facet normal -1.0 0.0 0.0
  outer loop
    vertex 110.29304837504179 30.71034174113288 -3.465925826289044
    vertex 110.29304837504179 45.71034174113288 -1.9659258262890442
    vertex 110.29304837504179 45.71034174113288 -3.465925826289044
  endloop
endfacet
facet normal 0.9464603753579182 2.7441024067950963e-30 0.3228200084835956
  outer loop
    vertex 120.16068646524685 55.577979831337935 -1.9659258262890442
    vertex 119.66068646524685 46.21034174113288 -0.49999999999997813
    vertex 120.16068646524685 45.71034174113288 -1.9659258262890442
  endloop
endfacet
facet normal 0.9464603753579182 2.7441024067950963e-30 0.3228200084835956
  outer loop
    vertex 119.66068646524685 46.21034174113288 -0.49999999999997813
    vertex 120.16068646524685 55.577979831337935 -1.9659258262890442
    vertex 119.66068646524685 55.077979831337935 -0.49999999999997813
  endloop
endfacet
facet normal 0.0 0.0 1.0
  outer loop
    vertex 120.16068646524685 30.71034174113288 -1.9659258262890442
    vertex 110.29304837504179 45.71034174113288 -1.9659258262890442
    vertex 110.29304837504179 30.71034174113288 -1.9659258262890442
  endloop
endfacet
facet normal 0.0 0.0 1.0
  outer loop
    vertex 110.29304837504179 45.71034174113288 -1.9659258262890442
    vertex 120.16068646524685 30.71034174113288 -1.9659258262890442
    vertex 120.16068646524685 45.71034174113288 -1.9659258262890442
  endloop
endfacet
facet normal 0.0 -1.0 0.0
  outer loop
    vertex 120.16068646524685 30.71034174113288 -1.9659258262890442
    vertex 110.29304837504179 30.71034174113288 -3.465925826289044
    vertex 120.16068646524685 30.71034174113288 -3.465925826289044
  endloop
endfacet
facet normal 0.0 -1.0 0.0
  outer loop
    vertex 110.29304837504179 30.71034174113288 -3.465925826289044
    vertex 120.16068646524685 30.71034174113288 -1.9659258262890442
    vertex 110.29304837504179 30.71034174113288 -1.9659258262890442
  endloop
endfacet
facet normal 0.0 -0.0 1.0
  outer loop
    vertex 110.29304837504179 45.71034174113288 -1.9659258262890442
    vertex 95.29304837504179 55.577979831337935 -1.9659258262890442
    vertex 95.29304837504179 45.71034174113288 -1.9659258262890442
  endloop
endfacet
facet normal 0.0 -0.0 1.0
  outer loop
    vertex 95.29304837504179 55.577979831337935 -1.9659258262890442
    vertex 110.29304837504179 45.71034174113288 -1.9659258262890442
    vertex 110.29304837504179 55.577979831337935 -1.9659258262890442
  endloop
endfacet
facet normal -1.0 0.0 0.0
  outer loop
    vertex 95.29304837504179 55.577979831337935 -1.9659258262890442
    vertex 95.29304837504179 45.71034174113288 -3.465925826289044
    vertex 95.29304837504179 45.71034174113288 -1.9659258262890442
  endloop
endfacet
facet normal -1.0 0.0 0.0
  outer loop
    vertex 95.29304837504179 45.71034174113288 -3.465925826289044
    vertex 95.29304837504179 55.577979831337935 -1.9659258262890442
    vertex 95.29304837504179 55.577979831337935 -3.465925826289044
  endloop
endfacet
facet normal 0.0 -1.0 0.0
  outer loop
    vertex 110.29304837504179 45.71034174113288 -1.9659258262890442
    vertex 95.29304837504179 45.71034174113288 -3.465925826289044
    vertex 110.29304837504179 45.71034174113288 -3.465925826289044
  endloop
endfacet
facet normal 0.0 -1.0 0.0
  outer loop
    vertex 95.29304837504179 45.71034174113288 -3.465925826289044
    vertex 110.29304837504179 45.71034174113288 -1.9659258262890442
    vertex 95.29304837504179 45.71034174113288 -1.9659258262890442
  endloop
endfacet
facet normal 1.0 0.0 0.0
  outer loop
    vertex 135.16068646524684 55.577979831337935 -3.465925826289044
    vertex 135.16068646524684 45.71034174113288 -1.9659258262890442
    vertex 135.16068646524684 45.71034174113288 -3.465925826289044
  endloop
endfacet
facet normal 1.0 0.0 0.0
  outer loop
    vertex 135.16068646524684 45.71034174113288 -1.9659258262890442
    vertex 135.16068646524684 55.577979831337935 -3.465925826289044
    vertex 135.16068646524684 55.577979831337935 -1.9659258262890442
  endloop
endfacet
facet normal -0.0 0.0 1.0
  outer loop
    vertex 120.16068646524685 55.577979831337935 -1.9659258262890442
    vertex 110.29304837504179 70.57797983133793 -1.9659258262890442
    vertex 110.29304837504179 55.577979831337935 -1.9659258262890442
  endloop
endfacet
facet normal -0.0 0.0 1.0
  outer loop
    vertex 110.29304837504179 70.57797983133793 -1.9659258262890442
    vertex 120.16068646524685 55.577979831337935 -1.9659258262890442
    vertex 120.16068646524685 70.57797983133793 -1.9659258262890442
  endloop
endfacet
facet normal -1.0 0.0 0.0
  outer loop
    vertex 110.29304837504179 70.57797983133793 -1.9659258262890442
    vertex 110.29304837504179 55.577979831337935 -3.465925826289044
    vertex 110.29304837504179 55.577979831337935 -1.9659258262890442
  endloop
endfacet
facet normal -1.0 0.0 0.0
  outer loop
    vertex 110.29304837504179 55.577979831337935 -3.465925826289044
    vertex 110.29304837504179 70.57797983133793 -1.9659258262890442
    vertex 110.29304837504179 70.57797983133793 -3.465925826289044
  endloop
endfacet
facet normal 0.0 1.0 0.0
  outer loop
    vertex 110.29304837504179 70.57797983133793 -1.9659258262890442
    vertex 120.16068646524685 70.57797983133793 -3.465925826289044
    vertex 110.29304837504179 70.57797983133793 -3.465925826289044
  endloop
endfacet
facet normal 0.0 1.0 0.0
  outer loop
    vertex 120.16068646524685 70.57797983133793 -3.465925826289044
    vertex 110.29304837504179 70.57797983133793 -1.9659258262890442
    vertex 120.16068646524685 70.57797983133793 -1.9659258262890442
  endloop
endfacet
facet normal 1.0 -0.0 -0.0
  outer loop
    vertex 120.16068646524685 45.71034174113288 -3.465925826289044
    vertex 120.16068646524685 30.71034174113288 -1.9659258262890442
    vertex 120.16068646524685 30.71034174113288 -3.465925826289044
  endloop
endfacet
facet normal 1.0 -0.0 -0.0
  outer loop
    vertex 120.16068646524685 30.71034174113288 -1.9659258262890442
    vertex 120.16068646524685 45.71034174113288 -3.465925826289044
    vertex 120.16068646524685 45.71034174113288 -1.9659258262890442
  endloop
endfacet
facet normal -0.0 1.0 -0.0
  outer loop
    vertex 120.16068646524685 55.577979831337935 -1.9659258262890442
    vertex 135.16068646524684 55.577979831337935 -3.465925826289044
    vertex 120.16068646524685 55.577979831337935 -3.465925826289044
  endloop
endfacet
facet normal -0.0 1.0 -0.0
  outer loop
    vertex 135.16068646524684 55.577979831337935 -3.465925826289044
    vertex 120.16068646524685 55.577979831337935 -1.9659258262890442
    vertex 135.16068646524684 55.577979831337935 -1.9659258262890442
  endloop
endfacet
facet normal 1.0 0.0 0.0
  outer loop
    vertex 120.16068646524685 70.57797983133793 -3.465925826289044
    vertex 120.16068646524685 55.577979831337935 -1.9659258262890442
    vertex 120.16068646524685 55.577979831337935 -3.465925826289044
  endloop
endfacet
facet normal 1.0 0.0 0.0
  outer loop
    vertex 120.16068646524685 55.577979831337935 -1.9659258262890442
    vertex 120.16068646524685 70.57797983133793 -3.465925826289044
    vertex 120.16068646524685 70.57797983133793 -1.9659258262890442
  endloop
endfacet
facet normal -0.0 -1.0 -0.0
  outer loop
    vertex 135.16068646524684 45.71034174113288 -1.9659258262890442
    vertex 120.16068646524685 45.71034174113288 -3.465925826289044
    vertex 135.16068646524684 45.71034174113288 -3.465925826289044
  endloop
endfacet
facet normal -0.0 -1.0 -0.0
  outer loop
    vertex 120.16068646524685 45.71034174113288 -3.465925826289044
    vertex 135.16068646524684 45.71034174113288 -1.9659258262890442
    vertex 120.16068646524685 45.71034174113288 -1.9659258262890442
  endloop
endfacet
facet normal 0.0 0.0 1.0
  outer loop
    vertex 135.16068646524684 45.71034174113288 -1.9659258262890442
    vertex 120.16068646524685 55.577979831337935 -1.9659258262890442
    vertex 120.16068646524685 45.71034174113288 -1.9659258262890442
  endloop
endfacet
facet normal 0.0 0.0 1.0
  outer loop
    vertex 120.16068646524685 55.577979831337935 -1.9659258262890442
    vertex 135.16068646524684 45.71034174113288 -1.9659258262890442
    vertex 135.16068646524684 55.577979831337935 -1.9659258262890442
  endloop
endfacet
endsolid FinalDraft1
