solid FinalDraft1
facet normal 0.0 -1.0 0.0
  outer loop
    vertex 191.42686742014462 25.2441607862354 3.999999999999631
    vertex 140.62686742014458 25.2441607862354 0.999999999999909
    vertex 191.4268674201446 25.2441607862354 0.9999999999996312
  endloop
endfacet
facet normal 0.0 -1.0 0.0
  outer loop
    vertex 140.62686742014458 25.2441607862354 0.999999999999909
    vertex 191.42686742014462 25.2441607862354 3.999999999999631
    vertex 140.6268674201446 25.2441607862354 3.999999999999909
  endloop
endfacet
facet normal -5.467848396278896e-15 0.0 -1.0
  outer loop
    vertex 191.4268674201446 76.0441607862354 0.9999999999996312
    vertex 140.62686742014458 25.2441607862354 0.999999999999909
    vertex 140.62686742014458 76.0441607862354 0.999999999999909
  endloop
endfacet
facet normal -5.467848396278896e-15 0.0 -1.0
  outer loop
    vertex 140.62686742014458 25.2441607862354 0.999999999999909
    vertex 191.4268674201446 76.0441607862354 0.9999999999996312
    vertex 191.4268674201446 25.2441607862354 0.9999999999996312
  endloop
endfacet
facet normal 1.0 0.0 -5.467848396278896e-15
  outer loop
    vertex 191.4268674201446 76.0441607862354 0.9999999999996312
    vertex 191.42686742014462 25.2441607862354 3.999999999999631
    vertex 191.4268674201446 25.2441607862354 0.9999999999996312
  endloop
endfacet
facet normal 1.0 0.0 -5.467848396278896e-15
  outer loop
    vertex 191.42686742014462 25.2441607862354 3.999999999999631
    vertex 191.4268674201446 76.0441607862354 0.9999999999996312
    vertex 191.42686742014462 76.0441607862354 3.999999999999631
  endloop
endfacet
facet normal -1.0 0.0 5.467848396278896e-15
  outer loop
    vertex 140.6268674201446 76.0441607862354 3.999999999999909
    vertex 140.62686742014458 25.2441607862354 0.999999999999909
    vertex 140.6268674201446 25.2441607862354 3.999999999999909
  endloop
endfacet
facet normal -1.0 0.0 5.467848396278896e-15
  outer loop
    vertex 140.62686742014458 25.2441607862354 0.999999999999909
    vertex 140.6268674201446 76.0441607862354 3.999999999999909
    vertex 140.62686742014458 76.0441607862354 0.999999999999909
  endloop
endfacet
facet normal 0.0 1.0 0.0
  outer loop
    vertex 140.62686742014458 76.0441607862354 0.999999999999909
    vertex 191.42686742014462 76.0441607862354 3.999999999999631
    vertex 191.4268674201446 76.0441607862354 0.9999999999996312
  endloop
endfacet
facet normal 0.0 1.0 0.0
  outer loop
    vertex 191.42686742014462 76.0441607862354 3.999999999999631
    vertex 140.62686742014458 76.0441607862354 0.999999999999909
    vertex 140.6268674201446 76.0441607862354 3.999999999999909
  endloop
endfacet
facet normal 5.467848396278896e-15 0.0 1.0
  outer loop
    vertex 140.6268674201446 25.2441607862354 3.999999999999909
    vertex 162.8518674201446 47.4691607862354 3.999999999999787
    vertex 140.6268674201446 76.0441607862354 3.999999999999909
  endloop
endfacet
facet normal 5.467848396278896e-15 0.0 1.0
  outer loop
    vertex 162.8518674201446 47.4691607862354 3.999999999999787
    vertex 140.6268674201446 25.2441607862354 3.999999999999909
    vertex 191.42686742014462 25.2441607862354 3.999999999999631
  endloop
endfacet
facet normal 5.467848396278896e-15 0.0 1.0
  outer loop
    vertex 162.8518674201446 47.4691607862354 3.999999999999787
    vertex 191.42686742014462 25.2441607862354 3.999999999999631
    vertex 166.0268674201446 47.4691607862354 3.99999999999977
  endloop
endfacet
facet normal 5.467848396278896e-15 0.0 1.0
  outer loop
    vertex 166.0268674201446 47.4691607862354 3.99999999999977
    vertex 191.42686742014462 25.2441607862354 3.999999999999631
    vertex 169.2018674201446 47.4691607862354 3.999999999999753
  endloop
endfacet
facet normal 5.467848396278896e-15 0.0 1.0
  outer loop
    vertex 169.2018674201446 47.4691607862354 3.999999999999753
    vertex 191.42686742014462 25.2441607862354 3.999999999999631
    vertex 169.2018674201446 50.6441607862354 3.999999999999753
  endloop
endfacet
facet normal 5.467848396278896e-15 0.0 1.0
  outer loop
    vertex 169.2018674201446 50.6441607862354 3.999999999999753
    vertex 191.42686742014462 25.2441607862354 3.999999999999631
    vertex 169.2018674201446 53.8191607862354 3.999999999999753
  endloop
endfacet
facet normal 5.467848396278896e-15 0.0 1.0
  outer loop
    vertex 140.6268674201446 76.0441607862354 3.999999999999909
    vertex 162.8518674201446 53.8191607862354 3.999999999999787
    vertex 191.42686742014462 76.0441607862354 3.999999999999631
  endloop
endfacet
facet normal 5.467848396278896e-15 0.0 1.0
  outer loop
    vertex 162.8518674201446 53.8191607862354 3.999999999999787
    vertex 140.6268674201446 76.0441607862354 3.999999999999909
    vertex 162.8518674201446 47.4691607862354 3.999999999999787
  endloop
endfacet
facet normal 5.467848396278896e-15 0.0 1.0
  outer loop
    vertex 162.8518674201446 53.8191607862354 3.999999999999787
    vertex 162.8518674201446 47.4691607862354 3.999999999999787
    vertex 162.8518674201446 50.6441607862354 3.999999999999787
  endloop
endfacet
facet normal 5.467848396278896e-15 0.0 1.0
  outer loop
    vertex 191.42686742014462 76.0441607862354 3.999999999999631
    vertex 162.8518674201446 53.8191607862354 3.999999999999787
    vertex 166.0268674201446 53.8191607862354 3.99999999999977
  endloop
endfacet
facet normal 5.467848396278896e-15 0.0 1.0
  outer loop
    vertex 191.42686742014462 76.0441607862354 3.999999999999631
    vertex 166.0268674201446 53.8191607862354 3.99999999999977
    vertex 169.2018674201446 53.8191607862354 3.999999999999753
  endloop
endfacet
facet normal 5.467848396278896e-15 0.0 1.0
  outer loop
    vertex 191.42686742014462 76.0441607862354 3.999999999999631
    vertex 169.2018674201446 53.8191607862354 3.999999999999753
    vertex 191.42686742014462 25.2441607862354 3.999999999999631
  endloop
endfacet
facet normal -1.0 0.0 5.467848396278896e-15
  outer loop
    vertex 162.8518674201446 53.8191607862354 4.999999999999787
    vertex 162.8518674201446 50.6441607862354 3.999999999999787
    vertex 162.8518674201446 50.6441607862354 4.999999999999787
  endloop
endfacet
facet normal -1.0 0.0 5.467848396278896e-15
  outer loop
    vertex 162.8518674201446 50.6441607862354 3.999999999999787
    vertex 162.8518674201446 53.8191607862354 4.999999999999787
    vertex 162.8518674201446 53.8191607862354 3.999999999999787
  endloop
endfacet
facet normal 5.467848396278896e-15 0.0 1.0
  outer loop
    vertex 166.0268674201446 48.21034174113288 5.965925826288837
    vertex 163.59304837504206 50.6441607862354 5.96592582628885
    vertex 163.59304837504206 48.21034174113288 5.96592582628885
  endloop
endfacet
facet normal 5.467848396278896e-15 0.0 1.0
  outer loop
    vertex 163.59304837504206 50.6441607862354 5.96592582628885
    vertex 166.0268674201446 48.21034174113288 5.965925826288837
    vertex 163.59304837504206 53.077979831337935 5.96592582628885
  endloop
endfacet
facet normal 5.467848396278896e-15 0.0 1.0
  outer loop
    vertex 163.59304837504206 53.077979831337935 5.96592582628885
    vertex 166.0268674201446 48.21034174113288 5.965925826288837
    vertex 166.0268674201446 53.077979831337935 5.965925826288837
  endloop
endfacet
facet normal 5.467848396278896e-15 0.0 1.0
  outer loop
    vertex 166.0268674201446 53.077979831337935 5.965925826288837
    vertex 166.0268674201446 48.21034174113288 5.965925826288837
    vertex 168.4606864652471 48.21034174113288 5.9659258262888235
  endloop
endfacet
facet normal 5.467848396278896e-15 0.0 1.0
  outer loop
    vertex 166.0268674201446 53.077979831337935 5.965925826288837
    vertex 168.4606864652471 48.21034174113288 5.9659258262888235
    vertex 168.46068646524714 53.077979831337935 5.9659258262888235
  endloop
endfacet
facet normal 5.467848396278896e-15 0.0 1.0
  outer loop
    vertex 168.46068646524714 53.077979831337935 5.9659258262888235
    vertex 168.4606864652471 48.21034174113288 5.9659258262888235
    vertex 168.46068646524714 50.6441607862354 5.9659258262888235
  endloop
endfacet
facet normal 0.6087614290087197 -1.0296341758448178e-18 0.7933533402912359
  outer loop
    vertex 168.90897420133115 47.76205400504885 5.7071067811863
    vertex 168.7018674201446 50.6441607862354 5.866025403784192
    vertex 168.7018674201446 47.9691607862354 5.866025403784192
  endloop
endfacet
facet normal 0.6087614290087197 -1.0296341758448178e-18 0.7933533402912359
  outer loop
    vertex 168.7018674201446 50.6441607862354 5.866025403784192
    vertex 168.90897420133115 47.76205400504885 5.7071067811863
    vertex 168.90897420133115 50.6441607862354 5.7071067811863
  endloop
endfacet
facet normal 0.9914448613738084 -6.6591206299246934e-18 0.13052619222006756
  outer loop
    vertex 169.2018674201446 48.4691607862354 4.999999999999751
    vertex 169.16779324643366 47.503234959946326 5.258819045102273
    vertex 169.2018674201446 47.4691607862354 4.999999999999752
  endloop
endfacet
facet normal 0.9914448613738084 -6.6591206299246934e-18 0.13052619222006756
  outer loop
    vertex 169.16779324643366 47.503234959946326 5.258819045102273
    vertex 169.2018674201446 48.4691607862354 4.999999999999751
    vertex 169.16779324643366 50.6441607862354 5.258819045102273
  endloop
endfacet
facet normal 0.9914448613738084 -6.6591206299246934e-18 0.13052619222006756
  outer loop
    vertex 169.16779324643366 50.6441607862354 5.258819045102273
    vertex 169.2018674201446 48.4691607862354 4.999999999999751
    vertex 169.2018674201446 50.6441607862354 4.999999999999752
  endloop
endfacet
facet normal 0.793353340291251 -5.441506061816063e-19 0.6087614290087
  outer loop
    vertex 169.06789282392904 50.6441607862354 5.499999999999752
    vertex 168.90897420133115 47.76205400504885 5.7071067811863
    vertex 169.06789282392904 47.603135382450965 5.499999999999752
  endloop
endfacet
facet normal 0.793353340291251 -5.441506061816063e-19 0.6087614290087
  outer loop
    vertex 168.90897420133115 47.76205400504885 5.7071067811863
    vertex 169.06789282392904 50.6441607862354 5.499999999999752
    vertex 168.90897420133115 50.6441607862354 5.7071067811863
  endloop
endfacet
facet normal 0.9238795325112918 -3.5763498701668353e-19 0.38268343236507746
  outer loop
    vertex 169.16779324643366 50.6441607862354 5.258819045102273
    vertex 169.06789282392904 47.603135382450965 5.499999999999752
    vertex 169.16779324643366 47.503234959946326 5.258819045102273
  endloop
endfacet
facet normal 0.9238795325112918 -3.5763498701668353e-19 0.38268343236507746
  outer loop
    vertex 169.06789282392904 47.603135382450965 5.499999999999752
    vertex 169.16779324643366 50.6441607862354 5.258819045102273
    vertex 169.06789282392904 50.6441607862354 5.499999999999752
  endloop
endfacet
facet normal -0.0 -1.0 0.0
  outer loop
    vertex 166.0268674201446 47.4691607862354 4.999999999999769
    vertex 162.8518674201446 47.4691607862354 3.999999999999787
    vertex 166.0268674201446 47.4691607862354 3.99999999999977
  endloop
endfacet
facet normal -0.0 -1.0 0.0
  outer loop
    vertex 162.8518674201446 47.4691607862354 3.999999999999787
    vertex 166.0268674201446 47.4691607862354 4.999999999999769
    vertex 162.8518674201446 47.4691607862354 4.999999999999787
  endloop
endfacet
facet normal 0.3826834323650973 -1.6069914235669831e-15 0.9238795325112839
  outer loop
    vertex 168.7018674201446 47.9691607862354 5.866025403784192
    vertex 168.46068646524714 50.6441607862354 5.9659258262888235
    vertex 168.4606864652471 48.21034174113288 5.9659258262888235
  endloop
endfacet
facet normal 0.3826834323650973 -1.6069914235669831e-15 0.9238795325112839
  outer loop
    vertex 168.46068646524714 50.6441607862354 5.9659258262888235
    vertex 168.7018674201446 47.9691607862354 5.866025403784192
    vertex 168.7018674201446 50.6441607862354 5.866025403784192
  endloop
endfacet
facet normal 0.0 1.0 0.0
  outer loop
    vertex 162.8518674201446 53.8191607862354 3.999999999999787
    vertex 166.0268674201446 53.8191607862354 4.999999999999769
    vertex 166.0268674201446 53.8191607862354 3.99999999999977
  endloop
endfacet
facet normal 0.0 1.0 0.0
  outer loop
    vertex 166.0268674201446 53.8191607862354 4.999999999999769
    vertex 162.8518674201446 53.8191607862354 3.999999999999787
    vertex 162.8518674201446 53.8191607862354 4.999999999999787
  endloop
endfacet
facet normal 0.923879532511292 -0.0 0.38268343236507757
  outer loop
    vertex 169.16779324643366 53.785086612524466 5.258819045102273
    vertex 169.06789282392904 50.6441607862354 5.499999999999752
    vertex 169.16779324643366 50.6441607862354 5.258819045102273
  endloop
endfacet
facet normal 0.923879532511292 -0.0 0.38268343236507757
  outer loop
    vertex 169.06789282392904 50.6441607862354 5.499999999999752
    vertex 169.16779324643366 53.785086612524466 5.258819045102273
    vertex 169.06789282392904 53.685186190019834 5.499999999999752
  endloop
endfacet
facet normal -0.3826834323651031 1.906349602589667e-19 0.9238795325112814
  outer loop
    vertex 163.59304837504206 48.21034174113288 5.96592582628885
    vertex 163.3518674201446 50.6441607862354 5.866025403784222
    vertex 163.3518674201446 47.9691607862354 5.866025403784222
  endloop
endfacet
facet normal -0.3826834323651031 1.906349602589667e-19 0.9238795325112814
  outer loop
    vertex 163.3518674201446 50.6441607862354 5.866025403784222
    vertex 163.59304837504206 48.21034174113288 5.96592582628885
    vertex 163.3518674201446 53.3191607862354 5.866025403784222
  endloop
endfacet
facet normal -0.3826834323651031 1.906349602589667e-19 0.9238795325112814
  outer loop
    vertex 163.3518674201446 53.3191607862354 5.866025403784222
    vertex 163.59304837504206 48.21034174113288 5.96592582628885
    vertex 163.59304837504206 53.077979831337935 5.96592582628885
  endloop
endfacet
facet normal -0.3826834323651031 1.906349602589667e-19 0.9238795325112814
  outer loop
    vertex 163.59304837504206 53.077979831337935 5.96592582628885
    vertex 163.59304837504206 48.21034174113288 5.96592582628885
    vertex 163.59304837504206 50.6441607862354 5.96592582628885
  endloop
endfacet
facet normal 4.337935789393959e-15 0.6087614290087152 0.7933533402912395
  outer loop
    vertex 163.3518674201446 53.3191607862354 5.866025403784222
    vertex 166.0268674201446 53.526267567421954 5.707106781186316
    vertex 163.14476063895805 53.526267567421954 5.707106781186332
  endloop
endfacet
facet normal 4.337935789393959e-15 0.6087614290087152 0.7933533402912395
  outer loop
    vertex 166.0268674201446 53.526267567421954 5.707106781186316
    vertex 163.3518674201446 53.3191607862354 5.866025403784222
    vertex 166.0268674201446 53.3191607862354 5.8660254037842074
  endloop
endfacet
facet normal 4.337935789393959e-15 0.6087614290087152 0.7933533402912395
  outer loop
    vertex 166.0268674201446 53.526267567421954 5.707106781186316
    vertex 166.0268674201446 53.3191607862354 5.8660254037842074
    vertex 168.7018674201446 53.3191607862354 5.866025403784192
  endloop
endfacet
facet normal 4.337935789393959e-15 0.6087614290087152 0.7933533402912395
  outer loop
    vertex 166.0268674201446 53.526267567421954 5.707106781186316
    vertex 168.7018674201446 53.3191607862354 5.866025403784192
    vertex 168.90897420133115 53.526267567421954 5.7071067811863
  endloop
endfacet
facet normal 7.136858658380984e-16 0.9914448613738077 0.1305261922200732
  outer loop
    vertex 166.0268674201446 53.8191607862354 4.999999999999769
    vertex 169.16779324643366 53.785086612524466 5.258819045102273
    vertex 169.2018674201446 53.8191607862354 4.999999999999752
  endloop
endfacet
facet normal 7.136858658380984e-16 0.9914448613738077 0.1305261922200732
  outer loop
    vertex 169.16779324643366 53.785086612524466 5.258819045102273
    vertex 166.0268674201446 53.8191607862354 4.999999999999769
    vertex 162.8518674201446 53.8191607862354 4.999999999999787
  endloop
endfacet
facet normal 7.136858658380984e-16 0.9914448613738077 0.1305261922200732
  outer loop
    vertex 169.16779324643366 53.785086612524466 5.258819045102273
    vertex 162.8518674201446 53.8191607862354 4.999999999999787
    vertex 162.88594159385553 53.785086612524466 5.258819045102307
  endloop
endfacet
facet normal 7.136858658380984e-16 0.9914448613738077 0.1305261922200732
  outer loop
    vertex 169.16779324643366 53.785086612524466 5.258819045102273
    vertex 162.88594159385553 53.785086612524466 5.258819045102307
    vertex 166.0268674201446 53.785086612524466 5.25881904510229
  endloop
endfacet
facet normal 0.6087614290087197 -0.0 0.793353340291236
  outer loop
    vertex 168.90897420133115 50.6441607862354 5.7071067811863
    vertex 168.7018674201446 53.3191607862354 5.866025403784192
    vertex 168.7018674201446 50.6441607862354 5.866025403784192
  endloop
endfacet
facet normal 0.6087614290087197 -0.0 0.793353340291236
  outer loop
    vertex 168.7018674201446 53.3191607862354 5.866025403784192
    vertex 168.90897420133115 50.6441607862354 5.7071067811863
    vertex 168.90897420133115 53.526267567421954 5.7071067811863
  endloop
endfacet
facet normal 4.337935789393958e-15 -0.6087614290087153 0.7933533402912393
  outer loop
    vertex 166.0268674201446 47.76205400504885 5.707106781186316
    vertex 163.3518674201446 47.9691607862354 5.866025403784222
    vertex 163.14476063895805 47.76205400504885 5.707106781186332
  endloop
endfacet
facet normal 4.337935789393958e-15 -0.6087614290087153 0.7933533402912393
  outer loop
    vertex 163.3518674201446 47.9691607862354 5.866025403784222
    vertex 166.0268674201446 47.76205400504885 5.707106781186316
    vertex 166.0268674201446 47.9691607862354 5.8660254037842074
  endloop
endfacet
facet normal 4.337935789393958e-15 -0.6087614290087153 0.7933533402912393
  outer loop
    vertex 166.0268674201446 47.9691607862354 5.8660254037842074
    vertex 166.0268674201446 47.76205400504885 5.707106781186316
    vertex 168.90897420133115 47.76205400504885 5.7071067811863
  endloop
endfacet
facet normal 4.337935789393958e-15 -0.6087614290087153 0.7933533402912393
  outer loop
    vertex 166.0268674201446 47.9691607862354 5.8660254037842074
    vertex 168.90897420133115 47.76205400504885 5.7071067811863
    vertex 168.7018674201446 47.9691607862354 5.866025403784192
  endloop
endfacet
facet normal 0.9914448613738083 -0.0 0.13052619222006778
  outer loop
    vertex 169.2018674201446 53.8191607862354 4.999999999999752
    vertex 169.16779324643366 50.6441607862354 5.258819045102273
    vertex 169.2018674201446 50.6441607862354 4.999999999999752
  endloop
endfacet
facet normal 0.9914448613738083 -0.0 0.13052619222006778
  outer loop
    vertex 169.16779324643366 50.6441607862354 5.258819045102273
    vertex 169.2018674201446 53.8191607862354 4.999999999999752
    vertex 169.16779324643366 53.785086612524466 5.258819045102273
  endloop
endfacet
facet normal 2.0927158930075927e-15 -0.9238795325112745 0.38268343236511937
  outer loop
    vertex 169.06789282392904 47.603135382450965 5.499999999999752
    vertex 166.0268674201446 47.503234959946326 5.25881904510229
    vertex 169.16779324643366 47.503234959946326 5.258819045102273
  endloop
endfacet
facet normal 2.0927158930075927e-15 -0.9238795325112745 0.38268343236511937
  outer loop
    vertex 166.0268674201446 47.503234959946326 5.25881904510229
    vertex 169.06789282392904 47.603135382450965 5.499999999999752
    vertex 162.88594159385553 47.503234959946326 5.258819045102307
  endloop
endfacet
facet normal 2.0927158930075927e-15 -0.9238795325112745 0.38268343236511937
  outer loop
    vertex 162.88594159385553 47.503234959946326 5.258819045102307
    vertex 169.06789282392904 47.603135382450965 5.499999999999752
    vertex 166.0268674201446 47.603135382450965 5.499999999999768
  endloop
endfacet
facet normal 2.0927158930075927e-15 -0.9238795325112745 0.38268343236511937
  outer loop
    vertex 162.88594159385553 47.503234959946326 5.258819045102307
    vertex 166.0268674201446 47.603135382450965 5.499999999999768
    vertex 162.98584201636018 47.603135382450965 5.499999999999785
  endloop
endfacet
facet normal 1.0 0.0 -5.467848396278896e-15
  outer loop
    vertex 169.2018674201446 53.8191607862354 3.999999999999753
    vertex 169.2018674201446 50.6441607862354 4.999999999999752
    vertex 169.2018674201446 50.6441607862354 3.999999999999753
  endloop
endfacet
facet normal 1.0 0.0 -5.467848396278896e-15
  outer loop
    vertex 169.2018674201446 50.6441607862354 4.999999999999752
    vertex 169.2018674201446 53.8191607862354 3.999999999999753
    vertex 169.2018674201446 53.8191607862354 4.999999999999752
  endloop
endfacet
facet normal 5.051251950276225e-15 -0.3826834323650928 0.9238795325112855
  outer loop
    vertex 166.0268674201446 47.9691607862354 5.8660254037842074
    vertex 163.59304837504206 48.21034174113288 5.96592582628885
    vertex 163.3518674201446 47.9691607862354 5.866025403784222
  endloop
endfacet
facet normal 5.051251950276225e-15 -0.3826834323650928 0.9238795325112855
  outer loop
    vertex 163.59304837504206 48.21034174113288 5.96592582628885
    vertex 166.0268674201446 47.9691607862354 5.8660254037842074
    vertex 166.0268674201446 48.21034174113288 5.965925826288837
  endloop
endfacet
facet normal 5.051251950276225e-15 -0.3826834323650928 0.9238795325112855
  outer loop
    vertex 166.0268674201446 48.21034174113288 5.965925826288837
    vertex 166.0268674201446 47.9691607862354 5.8660254037842074
    vertex 168.7018674201446 47.9691607862354 5.866025403784192
  endloop
endfacet
facet normal 5.051251950276225e-15 -0.3826834323650928 0.9238795325112855
  outer loop
    vertex 166.0268674201446 48.21034174113288 5.965925826288837
    vertex 168.7018674201446 47.9691607862354 5.866025403784192
    vertex 168.4606864652471 48.21034174113288 5.9659258262888235
  endloop
endfacet
facet normal 0.7933533402912512 -0.0 0.6087614290087
  outer loop
    vertex 169.06789282392904 53.685186190019834 5.499999999999752
    vertex 168.90897420133115 50.6441607862354 5.7071067811863
    vertex 169.06789282392904 50.6441607862354 5.499999999999752
  endloop
endfacet
facet normal 0.7933533402912512 -0.0 0.6087614290087
  outer loop
    vertex 168.90897420133115 50.6441607862354 5.7071067811863
    vertex 169.06789282392904 53.685186190019834 5.499999999999752
    vertex 168.90897420133115 53.526267567421954 5.7071067811863
  endloop
endfacet
facet normal 7.137601144058602e-16 -0.9914448613738132 0.13052619222003073
  outer loop
    vertex 169.16779324643366 47.503234959946326 5.258819045102273
    vertex 166.0268674201446 47.4691607862354 4.999999999999769
    vertex 169.2018674201446 47.4691607862354 4.999999999999752
  endloop
endfacet
facet normal 7.137601144058602e-16 -0.9914448613738132 0.13052619222003073
  outer loop
    vertex 166.0268674201446 47.4691607862354 4.999999999999769
    vertex 169.16779324643366 47.503234959946326 5.258819045102273
    vertex 162.8518674201446 47.4691607862354 4.999999999999787
  endloop
endfacet
facet normal 7.137601144058602e-16 -0.9914448613738132 0.13052619222003073
  outer loop
    vertex 162.8518674201446 47.4691607862354 4.999999999999787
    vertex 169.16779324643366 47.503234959946326 5.258819045102273
    vertex 162.88594159385553 47.503234959946326 5.258819045102307
  endloop
endfacet
facet normal 7.137601144058602e-16 -0.9914448613738132 0.13052619222003073
  outer loop
    vertex 162.88594159385553 47.503234959946326 5.258819045102307
    vertex 169.16779324643366 47.503234959946326 5.258819045102273
    vertex 166.0268674201446 47.503234959946326 5.25881904510229
  endloop
endfacet
facet normal 3.328615203321693e-15 -0.7933533402912479 0.6087614290087043
  outer loop
    vertex 168.90897420133115 47.76205400504885 5.7071067811863
    vertex 166.0268674201446 47.603135382450965 5.499999999999768
    vertex 169.06789282392904 47.603135382450965 5.499999999999752
  endloop
endfacet
facet normal 3.328615203321693e-15 -0.7933533402912479 0.6087614290087043
  outer loop
    vertex 166.0268674201446 47.603135382450965 5.499999999999768
    vertex 168.90897420133115 47.76205400504885 5.7071067811863
    vertex 162.98584201636018 47.603135382450965 5.499999999999785
  endloop
endfacet
facet normal 3.328615203321693e-15 -0.7933533402912479 0.6087614290087043
  outer loop
    vertex 162.98584201636018 47.603135382450965 5.499999999999785
    vertex 168.90897420133115 47.76205400504885 5.7071067811863
    vertex 166.0268674201446 47.76205400504885 5.707106781186316
  endloop
endfacet
facet normal 3.328615203321693e-15 -0.7933533402912479 0.6087614290087043
  outer loop
    vertex 162.98584201636018 47.603135382450965 5.499999999999785
    vertex 166.0268674201446 47.76205400504885 5.707106781186316
    vertex 163.14476063895805 47.76205400504885 5.707106781186332
  endloop
endfacet
facet normal -1.0 0.0 5.467848396278896e-15
  outer loop
    vertex 162.8518674201446 50.6441607862354 4.999999999999787
    vertex 162.8518674201446 47.4691607862354 3.999999999999787
    vertex 162.8518674201446 47.4691607862354 4.999999999999787
  endloop
endfacet
facet normal -1.0 0.0 5.467848396278896e-15
  outer loop
    vertex 162.8518674201446 47.4691607862354 3.999999999999787
    vertex 162.8518674201446 50.6441607862354 4.999999999999787
    vertex 162.8518674201446 50.6441607862354 3.999999999999787
  endloop
endfacet
facet normal -0.7933533402912444 -1.3263103125924133e-18 0.6087614290087086
  outer loop
    vertex 163.14476063895805 47.76205400504885 5.707106781186332
    vertex 162.98584201636018 50.6441607862354 5.499999999999785
    vertex 162.98584201636018 47.603135382450965 5.499999999999785
  endloop
endfacet
facet normal -0.7933533402912444 -1.3263103125924133e-18 0.6087614290087086
  outer loop
    vertex 162.98584201636018 50.6441607862354 5.499999999999785
    vertex 163.14476063895805 47.76205400504885 5.707106781186332
    vertex 163.14476063895805 50.6441607862354 5.707106781186332
  endloop
endfacet
facet normal -0.7933533402912444 -1.3263103125924133e-18 0.6087614290087086
  outer loop
    vertex 162.98584201636018 50.6441607862354 5.499999999999785
    vertex 163.14476063895805 50.6441607862354 5.707106781186332
    vertex 163.14476063895805 53.526267567421954 5.707106781186332
  endloop
endfacet
facet normal -0.7933533402912444 -1.3263103125924133e-18 0.6087614290087086
  outer loop
    vertex 162.98584201636018 50.6441607862354 5.499999999999785
    vertex 163.14476063895805 53.526267567421954 5.707106781186332
    vertex 162.98584201636018 53.685186190019834 5.499999999999785
  endloop
endfacet
facet normal 5.0516332201966944e-15 0.3826834323651082 0.9238795325112793
  outer loop
    vertex 163.59304837504206 53.077979831337935 5.96592582628885
    vertex 166.0268674201446 53.3191607862354 5.8660254037842074
    vertex 163.3518674201446 53.3191607862354 5.866025403784222
  endloop
endfacet
facet normal 5.0516332201966944e-15 0.3826834323651082 0.9238795325112793
  outer loop
    vertex 166.0268674201446 53.3191607862354 5.8660254037842074
    vertex 163.59304837504206 53.077979831337935 5.96592582628885
    vertex 166.0268674201446 53.077979831337935 5.965925826288837
  endloop
endfacet
facet normal 5.0516332201966944e-15 0.3826834323651082 0.9238795325112793
  outer loop
    vertex 166.0268674201446 53.3191607862354 5.8660254037842074
    vertex 166.0268674201446 53.077979831337935 5.965925826288837
    vertex 168.46068646524714 53.077979831337935 5.9659258262888235
  endloop
endfacet
facet normal 5.0516332201966944e-15 0.3826834323651082 0.9238795325112793
  outer loop
    vertex 166.0268674201446 53.3191607862354 5.8660254037842074
    vertex 168.46068646524714 53.077979831337935 5.9659258262888235
    vertex 168.7018674201446 53.3191607862354 5.866025403784192
  endloop
endfacet
facet normal -0.0 -1.0 0.0
  outer loop
    vertex 169.2018674201446 47.4691607862354 4.999999999999752
    vertex 166.0268674201446 47.4691607862354 3.99999999999977
    vertex 169.2018674201446 47.4691607862354 3.999999999999753
  endloop
endfacet
facet normal -0.0 -1.0 0.0
  outer loop
    vertex 166.0268674201446 47.4691607862354 3.99999999999977
    vertex 169.2018674201446 47.4691607862354 4.999999999999752
    vertex 166.0268674201446 47.4691607862354 4.999999999999769
  endloop
endfacet
facet normal 0.3826834323651132 -0.0 0.9238795325112772
  outer loop
    vertex 168.7018674201446 50.6441607862354 5.866025403784192
    vertex 168.46068646524714 53.077979831337935 5.9659258262888235
    vertex 168.46068646524714 50.6441607862354 5.9659258262888235
  endloop
endfacet
facet normal 0.3826834323651132 -0.0 0.9238795325112772
  outer loop
    vertex 168.46068646524714 53.077979831337935 5.9659258262888235
    vertex 168.7018674201446 50.6441607862354 5.866025403784192
    vertex 168.7018674201446 53.3191607862354 5.866025403784192
  endloop
endfacet
facet normal 0.0 1.0 0.0
  outer loop
    vertex 166.0268674201446 53.8191607862354 3.99999999999977
    vertex 169.2018674201446 53.8191607862354 4.999999999999752
    vertex 169.2018674201446 53.8191607862354 3.999999999999753
  endloop
endfacet
facet normal 0.0 1.0 0.0
  outer loop
    vertex 169.2018674201446 53.8191607862354 4.999999999999752
    vertex 166.0268674201446 53.8191607862354 3.99999999999977
    vertex 166.0268674201446 53.8191607862354 4.999999999999769
  endloop
endfacet
facet normal 2.09245499193992e-15 0.9238795325112897 0.38268343236508257
  outer loop
    vertex 166.0268674201446 53.785086612524466 5.25881904510229
    vertex 169.06789282392904 53.685186190019834 5.499999999999752
    vertex 169.16779324643366 53.785086612524466 5.258819045102273
  endloop
endfacet
facet normal 2.09245499193992e-15 0.9238795325112897 0.38268343236508257
  outer loop
    vertex 169.06789282392904 53.685186190019834 5.499999999999752
    vertex 166.0268674201446 53.785086612524466 5.25881904510229
    vertex 162.88594159385553 53.785086612524466 5.258819045102307
  endloop
endfacet
facet normal 2.09245499193992e-15 0.9238795325112897 0.38268343236508257
  outer loop
    vertex 169.06789282392904 53.685186190019834 5.499999999999752
    vertex 162.88594159385553 53.785086612524466 5.258819045102307
    vertex 166.0268674201446 53.685186190019834 5.499999999999768
  endloop
endfacet
facet normal 2.09245499193992e-15 0.9238795325112897 0.38268343236508257
  outer loop
    vertex 166.0268674201446 53.685186190019834 5.499999999999768
    vertex 162.88594159385553 53.785086612524466 5.258819045102307
    vertex 162.98584201636018 53.685186190019834 5.499999999999785
  endloop
endfacet
facet normal 1.0 0.0 -5.467848396278896e-15
  outer loop
    vertex 169.2018674201446 50.6441607862354 3.999999999999753
    vertex 169.2018674201446 47.4691607862354 4.999999999999752
    vertex 169.2018674201446 47.4691607862354 3.999999999999753
  endloop
endfacet
facet normal 1.0 0.0 -5.467848396278896e-15
  outer loop
    vertex 169.2018674201446 47.4691607862354 4.999999999999752
    vertex 169.2018674201446 50.6441607862354 3.999999999999753
    vertex 169.2018674201446 48.4691607862354 4.999999999999751
  endloop
endfacet
facet normal 1.0 0.0 -5.467848396278896e-15
  outer loop
    vertex 169.2018674201446 48.4691607862354 4.999999999999751
    vertex 169.2018674201446 50.6441607862354 3.999999999999753
    vertex 169.2018674201446 50.6441607862354 4.999999999999752
  endloop
endfacet
facet normal -0.6087614290087109 6.085242406413377e-19 0.7933533402912426
  outer loop
    vertex 163.3518674201446 47.9691607862354 5.866025403784222
    vertex 163.14476063895805 50.6441607862354 5.707106781186332
    vertex 163.14476063895805 47.76205400504885 5.707106781186332
  endloop
endfacet
facet normal -0.6087614290087109 6.085242406413377e-19 0.7933533402912426
  outer loop
    vertex 163.14476063895805 50.6441607862354 5.707106781186332
    vertex 163.3518674201446 47.9691607862354 5.866025403784222
    vertex 163.14476063895805 53.526267567421954 5.707106781186332
  endloop
endfacet
facet normal -0.6087614290087109 6.085242406413377e-19 0.7933533402912426
  outer loop
    vertex 163.14476063895805 53.526267567421954 5.707106781186332
    vertex 163.3518674201446 47.9691607862354 5.866025403784222
    vertex 163.3518674201446 53.3191607862354 5.866025403784222
  endloop
endfacet
facet normal -0.6087614290087109 6.085242406413377e-19 0.7933533402912426
  outer loop
    vertex 163.3518674201446 53.3191607862354 5.866025403784222
    vertex 163.3518674201446 47.9691607862354 5.866025403784222
    vertex 163.3518674201446 50.6441607862354 5.866025403784222
  endloop
endfacet
facet normal -0.9238795325112876 4.226379706961203e-19 0.38268343236508756
  outer loop
    vertex 162.98584201636018 47.603135382450965 5.499999999999785
    vertex 162.88594159385553 50.6441607862354 5.258819045102307
    vertex 162.88594159385553 47.503234959946326 5.258819045102307
  endloop
endfacet
facet normal -0.9238795325112876 4.226379706961203e-19 0.38268343236508756
  outer loop
    vertex 162.88594159385553 50.6441607862354 5.258819045102307
    vertex 162.98584201636018 47.603135382450965 5.499999999999785
    vertex 162.98584201636018 50.6441607862354 5.499999999999785
  endloop
endfacet
facet normal -0.9238795325112876 4.226379706961203e-19 0.38268343236508756
  outer loop
    vertex 162.88594159385553 50.6441607862354 5.258819045102307
    vertex 162.98584201636018 50.6441607862354 5.499999999999785
    vertex 162.98584201636018 53.685186190019834 5.499999999999785
  endloop
endfacet
facet normal -0.9238795325112876 4.226379706961203e-19 0.38268343236508756
  outer loop
    vertex 162.88594159385553 50.6441607862354 5.258819045102307
    vertex 162.98584201636018 53.685186190019834 5.499999999999785
    vertex 162.88594159385553 53.785086612524466 5.258819045102307
  endloop
endfacet
facet normal -0.991444861373807 2.5442922604897203e-19 0.13052619222007864
  outer loop
    vertex 162.88594159385553 47.503234959946326 5.258819045102307
    vertex 162.8518674201446 50.6441607862354 4.999999999999787
    vertex 162.8518674201446 47.4691607862354 4.999999999999787
  endloop
endfacet
facet normal -0.991444861373807 2.5442922604897203e-19 0.13052619222007864
  outer loop
    vertex 162.8518674201446 50.6441607862354 4.999999999999787
    vertex 162.88594159385553 47.503234959946326 5.258819045102307
    vertex 162.88594159385553 50.6441607862354 5.258819045102307
  endloop
endfacet
facet normal -0.991444861373807 2.5442922604897203e-19 0.13052619222007864
  outer loop
    vertex 162.8518674201446 50.6441607862354 4.999999999999787
    vertex 162.88594159385553 50.6441607862354 5.258819045102307
    vertex 162.88594159385553 53.785086612524466 5.258819045102307
  endloop
endfacet
facet normal -0.991444861373807 2.5442922604897203e-19 0.13052619222007864
  outer loop
    vertex 162.8518674201446 50.6441607862354 4.999999999999787
    vertex 162.88594159385553 53.785086612524466 5.258819045102307
    vertex 162.8518674201446 53.8191607862354 4.999999999999787
  endloop
endfacet
facet normal 3.328615203321693e-15 0.7933533402912479 0.6087614290087043
  outer loop
    vertex 166.0268674201446 53.685186190019834 5.499999999999768
    vertex 168.90897420133115 53.526267567421954 5.7071067811863
    vertex 169.06789282392904 53.685186190019834 5.499999999999752
  endloop
endfacet
facet normal 3.328615203321693e-15 0.7933533402912479 0.6087614290087043
  outer loop
    vertex 168.90897420133115 53.526267567421954 5.7071067811863
    vertex 166.0268674201446 53.685186190019834 5.499999999999768
    vertex 162.98584201636018 53.685186190019834 5.499999999999785
  endloop
endfacet
facet normal 3.328615203321693e-15 0.7933533402912479 0.6087614290087043
  outer loop
    vertex 168.90897420133115 53.526267567421954 5.7071067811863
    vertex 162.98584201636018 53.685186190019834 5.499999999999785
    vertex 166.0268674201446 53.526267567421954 5.707106781186316
  endloop
endfacet
facet normal 3.328615203321693e-15 0.7933533402912479 0.6087614290087043
  outer loop
    vertex 166.0268674201446 53.526267567421954 5.707106781186316
    vertex 162.98584201636018 53.685186190019834 5.499999999999785
    vertex 163.14476063895805 53.526267567421954 5.707106781186332
  endloop
endfacet
endsolid FinalDraft1
