solid FinalDraft2
facet normal 1.0 -2.393475474331613e-31 2.8865798640254062e-15
  outer loop
    vertex 142.24399032730742 148.92254925096245 -1.4099832412739488e-14
    vertex 142.2439903273075 134.88904925096253 9.524999999999906
    vertex 142.24399032730742 134.88904925096253 -1.4099832412739488e-14
  endloop
endfacet
facet normal 1.0 -2.393475474331613e-31 2.8865798640254062e-15
  outer loop
    vertex 142.2439903273075 134.88904925096253 9.524999999999906
    vertex 142.2439903273074 149.9808825842958 11.641666666666552
    vertex 142.2439903273074 133.8307159176292 11.641666666666552
  endloop
endfacet
facet normal 1.0 -2.393475474331613e-31 2.8865798640254062e-15
  outer loop
    vertex 142.2439903273074 149.9808825842958 11.641666666666552
    vertex 142.2439903273075 134.88904925096253 9.524999999999906
    vertex 142.2439903273075 148.92254925096245 9.524999999999906
  endloop
endfacet
facet normal 1.0 -2.393475474331613e-31 2.8865798640254062e-15
  outer loop
    vertex 142.2439903273075 148.92254925096245 9.524999999999906
    vertex 142.2439903273075 134.88904925096253 9.524999999999906
    vertex 142.24399032730742 148.92254925096245 -1.4099832412739488e-14
  endloop
endfacet
facet normal 1.1102230246251565e-16 0.0 1.0
  outer loop
    vertex 142.2439903273074 133.8307159176292 11.641666666666552
    vertex 140.24399032730747 182.281215917629 11.64166666666656
    vertex 140.24399032730747 133.83071591762922 11.64166666666656
  endloop
endfacet
facet normal 1.1102230246251565e-16 0.0 1.0
  outer loop
    vertex 140.24399032730747 182.281215917629 11.64166666666656
    vertex 142.2439903273074 133.8307159176292 11.641666666666552
    vertex 142.2439903273074 182.281215917629 11.641666666666552
  endloop
endfacet
facet normal 1.1102230246251565e-16 0.0 1.0
  outer loop
    vertex 142.2439903273074 182.281215917629 11.641666666666552
    vertex 142.2439903273074 133.8307159176292 11.641666666666552
    vertex 142.2439903273074 149.9808825842958 11.641666666666552
  endloop
endfacet
facet normal 1.1102230246251565e-16 0.0 1.0
  outer loop
    vertex 142.2439903273074 182.281215917629 11.641666666666552
    vertex 142.2439903273074 149.9808825842958 11.641666666666552
    vertex 142.2439903273074 166.1310492509624 11.641666666666552
  endloop
endfacet
facet normal 1.0 -3.553473436561951e-16 2.609024107869118e-15
  outer loop
    vertex 142.24399032730742 165.07271591762904 -1.4099832412739488e-14
    vertex 142.2439903273075 151.03921591762912 9.524999999999906
    vertex 142.24399032730742 151.03921591762912 -1.4099832412739488e-14
  endloop
endfacet
facet normal 1.0 -3.553473436561951e-16 2.609024107869118e-15
  outer loop
    vertex 142.24399032730742 181.22288258429563 -1.4099832412739488e-14
    vertex 142.2439903273075 167.1893825842957 9.524999999999906
    vertex 142.24399032730742 167.1893825842957 -1.4099832412739488e-14
  endloop
endfacet
facet normal 1.0 -3.553473436561951e-16 2.609024107869118e-15
  outer loop
    vertex 142.2439903273075 167.1893825842957 9.524999999999906
    vertex 142.2439903273074 182.281215917629 11.641666666666552
    vertex 142.2439903273074 166.1310492509624 11.641666666666552
  endloop
endfacet
facet normal 1.0 -3.553473436561951e-16 2.609024107869118e-15
  outer loop
    vertex 142.2439903273074 182.281215917629 11.641666666666552
    vertex 142.2439903273075 167.1893825842957 9.524999999999906
    vertex 142.24399032730756 181.22288258429563 9.52500000000003
  endloop
endfacet
facet normal 1.0 -3.553473436561951e-16 2.609024107869118e-15
  outer loop
    vertex 142.24399032730756 181.22288258429563 9.52500000000003
    vertex 142.2439903273075 167.1893825842957 9.524999999999906
    vertex 142.24399032730742 181.22288258429563 -1.4099832412739488e-14
  endloop
endfacet
facet normal 1.0 -3.553473436561951e-16 2.609024107869118e-15
  outer loop
    vertex 142.2439903273075 151.03921591762912 9.524999999999906
    vertex 142.2439903273074 166.1310492509624 11.641666666666552
    vertex 142.2439903273074 149.9808825842958 11.641666666666552
  endloop
endfacet
facet normal 1.0 -3.553473436561951e-16 2.609024107869118e-15
  outer loop
    vertex 142.2439903273074 166.1310492509624 11.641666666666552
    vertex 142.2439903273075 151.03921591762912 9.524999999999906
    vertex 142.2439903273075 165.07271591762904 9.524999999999906
  endloop
endfacet
facet normal 1.0 -3.553473436561951e-16 2.609024107869118e-15
  outer loop
    vertex 142.2439903273075 165.07271591762904 9.524999999999906
    vertex 142.2439903273075 151.03921591762912 9.524999999999906
    vertex 142.24399032730742 165.07271591762904 -1.4099832412739488e-14
  endloop
endfacet
facet normal -7.216449660063518e-16 0.8944271909999177 0.4472135954999542
  outer loop
    vertex 142.2439903273074 133.8307159176292 11.641666666666552
    vertex 191.0439903273074 134.88904925096253 9.524999999999979
    vertex 142.2439903273075 134.88904925096253 9.524999999999906
  endloop
endfacet
facet normal -7.216449660063518e-16 0.8944271909999177 0.4472135954999542
  outer loop
    vertex 191.0439903273074 134.88904925096253 9.524999999999979
    vertex 142.2439903273074 133.8307159176292 11.641666666666552
    vertex 191.04399032730734 133.83071591762922 11.641666666666687
  endloop
endfacet
facet normal -5.134781488891349e-16 0.8944271909999197 0.4472135954999504
  outer loop
    vertex 142.2439903273074 149.9808825842958 11.641666666666552
    vertex 191.0439903273074 151.03921591762912 9.524999999999979
    vertex 142.2439903273075 151.03921591762912 9.524999999999906
  endloop
endfacet
facet normal -5.134781488891349e-16 0.8944271909999197 0.4472135954999504
  outer loop
    vertex 191.0439903273074 151.03921591762912 9.524999999999979
    vertex 142.2439903273074 149.9808825842958 11.641666666666552
    vertex 191.04399032730734 149.9808825842958 11.641666666666687
  endloop
endfacet
facet normal -4.3021142204224816e-16 -0.8944271909999121 0.4472135954999658
  outer loop
    vertex 191.0439903273074 148.92254925096245 9.524999999999979
    vertex 142.2439903273074 149.9808825842958 11.641666666666552
    vertex 142.2439903273075 148.92254925096245 9.524999999999906
  endloop
endfacet
facet normal -4.3021142204224816e-16 -0.8944271909999121 0.4472135954999658
  outer loop
    vertex 142.2439903273074 149.9808825842958 11.641666666666552
    vertex 191.0439903273074 148.92254925096245 9.524999999999979
    vertex 191.04399032730734 149.9808825842958 11.641666666666687
  endloop
endfacet
facet normal 0.0 1.0 0.0
  outer loop
    vertex 142.24399032730742 151.03921591762912 -1.4099832412739488e-14
    vertex 191.0439903273074 151.03921591762912 9.524999999999979
    vertex 191.04399032730743 151.03921591762912 -5.639932965095795e-14
  endloop
endfacet
facet normal 0.0 1.0 0.0
  outer loop
    vertex 191.0439903273074 151.03921591762912 9.524999999999979
    vertex 142.24399032730742 151.03921591762912 -1.4099832412739488e-14
    vertex 142.2439903273075 151.03921591762912 9.524999999999906
  endloop
endfacet
facet normal 1.0 0.0 -1.1102230246251565e-16
  outer loop
    vertex 191.04399032730743 183.3395492509623 -5.639932965095795e-14
    vertex 191.0439903273074 181.22288258429563 9.524999999999979
    vertex 191.04399032730743 181.22288258429563 -5.639932965095795e-14
  endloop
endfacet
facet normal 1.0 0.0 -1.1102230246251565e-16
  outer loop
    vertex 191.0439903273074 181.22288258429563 9.524999999999979
    vertex 191.04399032730743 183.3395492509623 -5.639932965095795e-14
    vertex 191.04399032730734 182.281215917629 11.641666666666687
  endloop
endfacet
facet normal 1.0 0.0 -1.1102230246251565e-16
  outer loop
    vertex 191.04399032730734 182.281215917629 11.641666666666687
    vertex 191.04399032730743 183.3395492509623 -5.639932965095795e-14
    vertex 191.0439903273074 183.3395492509623 9.524999999999979
  endloop
endfacet
facet normal -1.0 5.187973586287957e-17 6.439293542825908e-15
  outer loop
    vertex 140.24399032730747 133.83071591762922 11.64166666666656
    vertex 140.24399032730736 132.77238258429585 0.0
    vertex 140.24399032730742 132.77238258429585 9.524999999999965
  endloop
endfacet
facet normal -1.0 5.187973586287957e-17 6.439293542825908e-15
  outer loop
    vertex 140.24399032730736 132.77238258429585 0.0
    vertex 140.24399032730747 133.83071591762922 11.64166666666656
    vertex 140.24399032730736 183.3395492509623 0.0
  endloop
endfacet
facet normal -1.0 5.187973586287957e-17 6.439293542825908e-15
  outer loop
    vertex 140.24399032730736 183.3395492509623 0.0
    vertex 140.24399032730747 133.83071591762922 11.64166666666656
    vertex 140.24399032730747 182.281215917629 11.64166666666656
  endloop
endfacet
facet normal -1.0 5.187973586287957e-17 6.439293542825908e-15
  outer loop
    vertex 140.24399032730736 183.3395492509623 0.0
    vertex 140.24399032730747 182.281215917629 11.64166666666656
    vertex 140.24399032730742 183.3395492509623 9.524999999999965
  endloop
endfacet
facet normal 0.0 1.0 0.0
  outer loop
    vertex 140.24399032730736 183.3395492509623 0.0
    vertex 191.0439903273074 183.3395492509623 9.524999999999979
    vertex 191.04399032730743 183.3395492509623 -5.639932965095795e-14
  endloop
endfacet
facet normal 0.0 1.0 0.0
  outer loop
    vertex 191.0439903273074 183.3395492509623 9.524999999999979
    vertex 140.24399032730736 183.3395492509623 0.0
    vertex 140.24399032730742 183.3395492509623 9.524999999999965
  endloop
endfacet
facet normal 1.0 0.0 -1.1102230246251565e-16
  outer loop
    vertex 191.04399032730743 167.1893825842957 -5.639932965095795e-14
    vertex 191.0439903273074 165.07271591762904 9.524999999999979
    vertex 191.04399032730743 165.07271591762904 -5.639932965095795e-14
  endloop
endfacet
facet normal 1.0 0.0 -1.1102230246251565e-16
  outer loop
    vertex 191.0439903273074 165.07271591762904 9.524999999999979
    vertex 191.04399032730743 167.1893825842957 -5.639932965095795e-14
    vertex 191.04399032730734 166.1310492509624 11.641666666666687
  endloop
endfacet
facet normal 1.0 0.0 -1.1102230246251565e-16
  outer loop
    vertex 191.04399032730734 166.1310492509624 11.641666666666687
    vertex 191.04399032730743 167.1893825842957 -5.639932965095795e-14
    vertex 191.0439903273074 167.1893825842957 9.524999999999979
  endloop
endfacet
facet normal 1.0 0.0 -1.1102230246251565e-16
  outer loop
    vertex 191.04399032730743 151.03921591762912 -5.639932965095795e-14
    vertex 191.0439903273074 148.92254925096245 9.524999999999979
    vertex 191.04399032730743 148.92254925096245 -5.639932965095795e-14
  endloop
endfacet
facet normal 1.0 0.0 -1.1102230246251565e-16
  outer loop
    vertex 191.0439903273074 148.92254925096245 9.524999999999979
    vertex 191.04399032730743 151.03921591762912 -5.639932965095795e-14
    vertex 191.04399032730734 149.9808825842958 11.641666666666687
  endloop
endfacet
facet normal 1.0 0.0 -1.1102230246251565e-16
  outer loop
    vertex 191.04399032730734 149.9808825842958 11.641666666666687
    vertex 191.04399032730743 151.03921591762912 -5.639932965095795e-14
    vertex 191.0439903273074 151.03921591762912 9.524999999999979
  endloop
endfacet
facet normal -3.469446951953615e-16 0.8944271909999173 0.4472135954999555
  outer loop
    vertex 140.24399032730747 182.281215917629 11.64166666666656
    vertex 191.0439903273074 183.3395492509623 9.524999999999979
    vertex 140.24399032730742 183.3395492509623 9.524999999999965
  endloop
endfacet
facet normal -3.469446951953615e-16 0.8944271909999173 0.4472135954999555
  outer loop
    vertex 191.0439903273074 183.3395492509623 9.524999999999979
    vertex 140.24399032730747 182.281215917629 11.64166666666656
    vertex 142.2439903273074 182.281215917629 11.641666666666552
  endloop
endfacet
facet normal -3.469446951953615e-16 0.8944271909999173 0.4472135954999555
  outer loop
    vertex 191.04399032730734 182.281215917629 11.641666666666687
    vertex 191.0439903273074 183.3395492509623 9.524999999999979
    vertex 142.2439903273074 182.281215917629 11.641666666666552
  endloop
endfacet
facet normal 0.0 -1.0 0.0
  outer loop
    vertex 191.0439903273074 148.92254925096245 9.524999999999979
    vertex 142.24399032730742 148.92254925096245 -1.4099832412739488e-14
    vertex 191.04399032730743 148.92254925096245 -5.639932965095795e-14
  endloop
endfacet
facet normal 0.0 -1.0 0.0
  outer loop
    vertex 142.24399032730742 148.92254925096245 -1.4099832412739488e-14
    vertex 191.0439903273074 148.92254925096245 9.524999999999979
    vertex 142.2439903273075 148.92254925096245 9.524999999999906
  endloop
endfacet
facet normal -4.3021142204224816e-16 -0.8944271909999121 0.4472135954999658
  outer loop
    vertex 191.0439903273074 165.07271591762904 9.524999999999979
    vertex 142.2439903273074 166.1310492509624 11.641666666666552
    vertex 142.2439903273075 165.07271591762904 9.524999999999906
  endloop
endfacet
facet normal -4.3021142204224816e-16 -0.8944271909999121 0.4472135954999658
  outer loop
    vertex 142.2439903273074 166.1310492509624 11.641666666666552
    vertex 191.0439903273074 165.07271591762904 9.524999999999979
    vertex 191.04399032730734 166.1310492509624 11.641666666666687
  endloop
endfacet
facet normal -5.134781488891349e-16 0.8944271909999197 0.4472135954999504
  outer loop
    vertex 142.2439903273074 166.1310492509624 11.641666666666552
    vertex 191.0439903273074 167.1893825842957 9.524999999999979
    vertex 142.2439903273075 167.1893825842957 9.524999999999906
  endloop
endfacet
facet normal -5.134781488891349e-16 0.8944271909999197 0.4472135954999504
  outer loop
    vertex 191.0439903273074 167.1893825842957 9.524999999999979
    vertex 142.2439903273074 166.1310492509624 11.641666666666552
    vertex 191.04399032730734 166.1310492509624 11.641666666666687
  endloop
endfacet
facet normal -6.938893903907228e-17 -0.8944271909999106 0.4472135954999684
  outer loop
    vertex 191.04399032730734 133.83071591762922 11.641666666666687
    vertex 142.2439903273074 133.8307159176292 11.641666666666552
    vertex 191.0439903273074 132.77238258429585 9.524999999999979
  endloop
endfacet
facet normal -6.938893903907228e-17 -0.8944271909999106 0.4472135954999684
  outer loop
    vertex 191.0439903273074 132.77238258429585 9.524999999999979
    vertex 140.24399032730747 133.83071591762922 11.64166666666656
    vertex 140.24399032730742 132.77238258429585 9.524999999999965
  endloop
endfacet
facet normal -6.938893903907228e-17 -0.8944271909999106 0.4472135954999684
  outer loop
    vertex 140.24399032730747 133.83071591762922 11.64166666666656
    vertex 191.0439903273074 132.77238258429585 9.524999999999979
    vertex 142.2439903273074 133.8307159176292 11.641666666666552
  endloop
endfacet
facet normal 0.0 -1.0 0.0
  outer loop
    vertex 191.0439903273074 181.22288258429563 9.524999999999979
    vertex 142.24399032730742 181.22288258429563 -1.4099832412739488e-14
    vertex 191.04399032730743 181.22288258429563 -5.639932965095795e-14
  endloop
endfacet
facet normal 0.0 -1.0 0.0
  outer loop
    vertex 142.24399032730742 181.22288258429563 -1.4099832412739488e-14
    vertex 191.0439903273074 181.22288258429563 9.524999999999979
    vertex 142.24399032730756 181.22288258429563 9.52500000000003
  endloop
endfacet
facet normal -4.996003610813204e-16 2.4327414275679433e-18 -1.0
  outer loop
    vertex 140.24399032730736 183.3395492509623 0.0
    vertex 142.24399032730742 181.22288258429563 -1.4099832412739488e-14
    vertex 140.24399032730736 132.77238258429585 0.0
  endloop
endfacet
facet normal -4.996003610813204e-16 2.4327414275679433e-18 -1.0
  outer loop
    vertex 142.24399032730742 181.22288258429563 -1.4099832412739488e-14
    vertex 140.24399032730736 183.3395492509623 0.0
    vertex 191.04399032730743 183.3395492509623 -5.639932965095795e-14
  endloop
endfacet
facet normal -4.996003610813204e-16 2.4327414275679433e-18 -1.0
  outer loop
    vertex 142.24399032730742 181.22288258429563 -1.4099832412739488e-14
    vertex 191.04399032730743 183.3395492509623 -5.639932965095795e-14
    vertex 191.04399032730743 181.22288258429563 -5.639932965095795e-14
  endloop
endfacet
facet normal -4.996003610813204e-16 2.4327414275679433e-18 -1.0
  outer loop
    vertex 191.04399032730743 167.1893825842957 -5.639932965095795e-14
    vertex 142.24399032730742 165.07271591762904 -1.4099832412739488e-14
    vertex 142.24399032730742 167.1893825842957 -1.4099832412739488e-14
  endloop
endfacet
facet normal -4.996003610813204e-16 2.4327414275679433e-18 -1.0
  outer loop
    vertex 142.24399032730742 165.07271591762904 -1.4099832412739488e-14
    vertex 191.04399032730743 167.1893825842957 -5.639932965095795e-14
    vertex 191.04399032730743 165.07271591762904 -5.639932965095795e-14
  endloop
endfacet
facet normal -4.996003610813204e-16 2.4327414275679433e-18 -1.0
  outer loop
    vertex 191.04399032730743 151.03921591762912 -5.639932965095795e-14
    vertex 142.24399032730742 148.92254925096245 -1.4099832412739488e-14
    vertex 142.24399032730742 151.03921591762912 -1.4099832412739488e-14
  endloop
endfacet
facet normal -4.996003610813204e-16 2.4327414275679433e-18 -1.0
  outer loop
    vertex 142.24399032730742 148.92254925096245 -1.4099832412739488e-14
    vertex 191.04399032730743 151.03921591762912 -5.639932965095795e-14
    vertex 191.04399032730743 148.92254925096245 -5.639932965095795e-14
  endloop
endfacet
facet normal -4.996003610813204e-16 2.4327414275679433e-18 -1.0
  outer loop
    vertex 140.24399032730736 132.77238258429585 0.0
    vertex 142.24399032730742 134.88904925096253 -1.4099832412739488e-14
    vertex 191.04399032730743 132.77238258429585 -5.639932965095795e-14
  endloop
endfacet
facet normal -4.996003610813204e-16 2.4327414275679433e-18 -1.0
  outer loop
    vertex 142.24399032730742 134.88904925096253 -1.4099832412739488e-14
    vertex 140.24399032730736 132.77238258429585 0.0
    vertex 142.24399032730742 181.22288258429563 -1.4099832412739488e-14
  endloop
endfacet
facet normal -4.996003610813204e-16 2.4327414275679433e-18 -1.0
  outer loop
    vertex 142.24399032730742 134.88904925096253 -1.4099832412739488e-14
    vertex 142.24399032730742 181.22288258429563 -1.4099832412739488e-14
    vertex 142.24399032730742 167.1893825842957 -1.4099832412739488e-14
  endloop
endfacet
facet normal -4.996003610813204e-16 2.4327414275679433e-18 -1.0
  outer loop
    vertex 142.24399032730742 134.88904925096253 -1.4099832412739488e-14
    vertex 142.24399032730742 167.1893825842957 -1.4099832412739488e-14
    vertex 142.24399032730742 165.07271591762904 -1.4099832412739488e-14
  endloop
endfacet
facet normal -4.996003610813204e-16 2.4327414275679433e-18 -1.0
  outer loop
    vertex 142.24399032730742 134.88904925096253 -1.4099832412739488e-14
    vertex 142.24399032730742 165.07271591762904 -1.4099832412739488e-14
    vertex 142.24399032730742 151.03921591762912 -1.4099832412739488e-14
  endloop
endfacet
facet normal -4.996003610813204e-16 2.4327414275679433e-18 -1.0
  outer loop
    vertex 142.24399032730742 134.88904925096253 -1.4099832412739488e-14
    vertex 142.24399032730742 151.03921591762912 -1.4099832412739488e-14
    vertex 142.24399032730742 148.92254925096245 -1.4099832412739488e-14
  endloop
endfacet
facet normal -4.996003610813204e-16 2.4327414275679433e-18 -1.0
  outer loop
    vertex 191.04399032730743 132.77238258429585 -5.639932965095795e-14
    vertex 142.24399032730742 134.88904925096253 -1.4099832412739488e-14
    vertex 191.04399032730743 134.88904925096253 -5.639932965095795e-14
  endloop
endfacet
facet normal 0.0 -1.0 0.0
  outer loop
    vertex 191.0439903273074 132.77238258429585 9.524999999999979
    vertex 140.24399032730736 132.77238258429585 0.0
    vertex 191.04399032730743 132.77238258429585 -5.639932965095795e-14
  endloop
endfacet
facet normal 0.0 -1.0 0.0
  outer loop
    vertex 140.24399032730736 132.77238258429585 0.0
    vertex 191.0439903273074 132.77238258429585 9.524999999999979
    vertex 140.24399032730742 132.77238258429585 9.524999999999965
  endloop
endfacet
facet normal 1.0 0.0 -1.1102230246251565e-16
  outer loop
    vertex 191.04399032730743 134.88904925096253 -5.639932965095795e-14
    vertex 191.0439903273074 132.77238258429585 9.524999999999979
    vertex 191.04399032730743 132.77238258429585 -5.639932965095795e-14
  endloop
endfacet
facet normal 1.0 0.0 -1.1102230246251565e-16
  outer loop
    vertex 191.0439903273074 132.77238258429585 9.524999999999979
    vertex 191.04399032730743 134.88904925096253 -5.639932965095795e-14
    vertex 191.04399032730734 133.83071591762922 11.641666666666687
  endloop
endfacet
facet normal 1.0 0.0 -1.1102230246251565e-16
  outer loop
    vertex 191.04399032730734 133.83071591762922 11.641666666666687
    vertex 191.04399032730743 134.88904925096253 -5.639932965095795e-14
    vertex 191.0439903273074 134.88904925096253 9.524999999999979
  endloop
endfacet
facet normal -9.71445146547012e-17 -0.8944271909999084 0.44721359549997325
  outer loop
    vertex 191.04399032730734 182.281215917629 11.641666666666687
    vertex 142.24399032730756 181.22288258429563 9.52500000000003
    vertex 191.0439903273074 181.22288258429563 9.524999999999979
  endloop
endfacet
facet normal -9.71445146547012e-17 -0.8944271909999084 0.44721359549997325
  outer loop
    vertex 142.24399032730756 181.22288258429563 9.52500000000003
    vertex 191.04399032730734 182.281215917629 11.641666666666687
    vertex 142.2439903273074 182.281215917629 11.641666666666552
  endloop
endfacet
facet normal 0.0 1.0 0.0
  outer loop
    vertex 142.24399032730742 134.88904925096253 -1.4099832412739488e-14
    vertex 191.0439903273074 134.88904925096253 9.524999999999979
    vertex 191.04399032730743 134.88904925096253 -5.639932965095795e-14
  endloop
endfacet
facet normal 0.0 1.0 0.0
  outer loop
    vertex 191.0439903273074 134.88904925096253 9.524999999999979
    vertex 142.24399032730742 134.88904925096253 -1.4099832412739488e-14
    vertex 142.2439903273075 134.88904925096253 9.524999999999906
  endloop
endfacet
facet normal 0.0 1.0 0.0
  outer loop
    vertex 142.24399032730742 167.1893825842957 -1.4099832412739488e-14
    vertex 191.0439903273074 167.1893825842957 9.524999999999979
    vertex 191.04399032730743 167.1893825842957 -5.639932965095795e-14
  endloop
endfacet
facet normal 0.0 1.0 0.0
  outer loop
    vertex 191.0439903273074 167.1893825842957 9.524999999999979
    vertex 142.24399032730742 167.1893825842957 -1.4099832412739488e-14
    vertex 142.2439903273075 167.1893825842957 9.524999999999906
  endloop
endfacet
facet normal 0.0 -1.0 0.0
  outer loop
    vertex 191.0439903273074 165.07271591762904 9.524999999999979
    vertex 142.24399032730742 165.07271591762904 -1.4099832412739488e-14
    vertex 191.04399032730743 165.07271591762904 -5.639932965095795e-14
  endloop
endfacet
facet normal 0.0 -1.0 0.0
  outer loop
    vertex 142.24399032730742 165.07271591762904 -1.4099832412739488e-14
    vertex 191.0439903273074 165.07271591762904 9.524999999999979
    vertex 142.2439903273075 165.07271591762904 9.524999999999906
  endloop
endfacet
endsolid FinalDraft2
