solid FinalDraft1
facet normal 0.0 0.0 -1.0
  outer loop
    vertex 68.78316426372908 176.79558963764103 0.0
    vertex 56.083164263729074 164.095589637641 0.0
    vertex 56.083164263729074 176.79558963764103 0.0
  endloop
endfacet
facet normal 0.0 0.0 -1.0
  outer loop
    vertex 56.083164263729074 164.095589637641 0.0
    vertex 68.78316426372908 176.79558963764103 0.0
    vertex 68.78316426372908 164.095589637641 0.0
  endloop
endfacet
facet normal 0.0 0.0 1.0
  outer loop
    vertex 68.78316426372908 164.095589637641 12.7
    vertex 56.083164263729074 176.79558963764103 12.7
    vertex 56.083164263729074 164.095589637641 12.7
  endloop
endfacet
facet normal 0.0 0.0 1.0
  outer loop
    vertex 56.083164263729074 176.79558963764103 12.7
    vertex 68.78316426372908 164.095589637641 12.7
    vertex 68.78316426372908 176.79558963764103 12.7
  endloop
endfacet
facet normal 0.0 1.0 0.0
  outer loop
    vertex 56.083164263729074 176.79558963764103 12.7
    vertex 68.78316426372908 176.79558963764103 0.0
    vertex 56.083164263729074 176.79558963764103 0.0
  endloop
endfacet
facet normal 0.0 1.0 0.0
  outer loop
    vertex 68.78316426372908 176.79558963764103 0.0
    vertex 56.083164263729074 176.79558963764103 12.7
    vertex 68.78316426372908 176.79558963764103 12.7
  endloop
endfacet
facet normal -0.0 -1.0 -0.0
  outer loop
    vertex 68.78316426372908 164.095589637641 12.7
    vertex 56.083164263729074 164.095589637641 0.0
    vertex 68.78316426372908 164.095589637641 0.0
  endloop
endfacet
facet normal -0.0 -1.0 -0.0
  outer loop
    vertex 56.083164263729074 164.095589637641 0.0
    vertex 68.78316426372908 164.095589637641 12.7
    vertex 56.083164263729074 164.095589637641 12.7
  endloop
endfacet
facet normal -1.0 0.0 0.0
  outer loop
    vertex 56.083164263729074 176.79558963764103 12.7
    vertex 56.083164263729074 164.095589637641 0.0
    vertex 56.083164263729074 164.095589637641 12.7
  endloop
endfacet
facet normal -1.0 0.0 0.0
  outer loop
    vertex 56.083164263729074 164.095589637641 0.0
    vertex 56.083164263729074 176.79558963764103 12.7
    vertex 56.083164263729074 176.79558963764103 0.0
  endloop
endfacet
facet normal 1.0 0.0 0.0
  outer loop
    vertex 68.78316426372908 176.79558963764103 0.0
    vertex 68.78316426372908 164.095589637641 12.7
    vertex 68.78316426372908 164.095589637641 0.0
  endloop
endfacet
facet normal 1.0 0.0 0.0
  outer loop
    vertex 68.78316426372908 164.095589637641 12.7
    vertex 68.78316426372908 176.79558963764103 0.0
    vertex 68.78316426372908 176.79558963764103 12.7
  endloop
endfacet
endsolid FinalDraft1
