solid FTCField
facet normal 0.0 -1.0 0.0
  outer loop
    vertex 407.16112547648123 469.976263517025 3.8099999999999996
    vertex 383.70312547648143 469.976263517025 0.0
    vertex 407.16112547648123 469.976263517025 0.0
  endloop
endfacet
facet normal 0.0 -1.0 0.0
  outer loop
    vertex 383.70312547648143 469.976263517025 0.0
    vertex 407.16112547648123 469.976263517025 3.8099999999999996
    vertex 383.70312547648143 469.976263517025 3.8099999999999996
  endloop
endfacet
facet normal 0.0 0.0 -1.0
  outer loop
    vertex 407.1611254764811 464.8874494590625 0.0
    vertex 385.1011254764814 462.46604243008125 0.0
    vertex 383.7031254764814 464.8874494590625 0.0
  endloop
endfacet
facet normal 0.0 0.0 -1.0
  outer loop
    vertex 385.1011254764814 462.46604243008125 0.0
    vertex 407.1611254764811 464.8874494590625 0.0
    vertex 385.78828507647614 462.46604243008125 0.0
  endloop
endfacet
facet normal 0.0 0.0 -1.0
  outer loop
    vertex 385.78828507647614 462.46604243008125 0.0
    vertex 407.1611254764811 464.8874494590625 0.0
    vertex 387.0582850764761 462.46604243008125 0.0
  endloop
endfacet
facet normal 0.0 0.0 -1.0
  outer loop
    vertex 387.0582850764761 462.46604243008125 0.0
    vertex 407.1611254764811 464.8874494590625 0.0
    vertex 406.01712547648117 462.4660424300811 0.0
  endloop
endfacet
facet normal 0.0 0.0 -1.0
  outer loop
    vertex 406.01712547648117 462.4660424300811 0.0
    vertex 407.1611254764811 464.8874494590625 0.0
    vertex 407.41512547648114 464.8874494590625 0.0
  endloop
endfacet
facet normal -6.918220538420765e-15 -1.0 -5.620441758123196e-31
  outer loop
    vertex 406.0171254764812 462.4660424300811 15.287999999999998
    vertex 387.0582850764761 462.46604243008125 0.0
    vertex 406.01712547648117 462.4660424300811 0.0
  endloop
endfacet
facet normal -6.918220538420765e-15 -1.0 -5.620441758123196e-31
  outer loop
    vertex 387.0582850764761 462.46604243008125 0.0
    vertex 406.0171254764812 462.4660424300811 15.287999999999998
    vertex 385.78828507647614 462.46604243008125 0.0
  endloop
endfacet
facet normal -6.918220538420765e-15 -1.0 -5.620441758123196e-31
  outer loop
    vertex 385.78828507647614 462.46604243008125 0.0
    vertex 406.0171254764812 462.4660424300811 15.287999999999998
    vertex 385.1011254764814 462.46604243008125 0.0
  endloop
endfacet
facet normal -6.918220538420765e-15 -1.0 -5.620441758123196e-31
  outer loop
    vertex 385.1011254764814 462.46604243008125 0.0
    vertex 406.0171254764812 462.4660424300811 15.287999999999998
    vertex 385.1011254764814 462.46604243008125 15.287999999999998
  endloop
endfacet
facet normal -0.3702254707458329 -0.30105602140278415 0.8788050823636335
  outer loop
    vertex 387.61104547648137 464.8089324223672 17.148000000000003
    vertex 385.48608547648126 467.4221148880438 17.148000000000003
    vertex 385.1011254764814 462.46604243008125 15.287999999999998
  endloop
endfacet
facet normal -0.3851904378720346 0.2843380815702522 0.8779408761077816
  outer loop
    vertex 387.6110454764814 470.30078055372036 17.148000000000003
    vertex 385.1011254764815 472.64367054600626 15.287999999999998
    vertex 385.48608547648126 467.4221148880438 17.148000000000003
  endloop
endfacet
facet normal 0.0 0.0 1.0
  outer loop
    vertex 387.61104547648137 464.8089324223672 17.148000000000003
    vertex 387.6110454764814 470.30078055372036 17.148000000000003
    vertex 385.48608547648126 467.4221148880438 17.148000000000003
  endloop
endfacet
facet normal 0.0 0.0 1.0
  outer loop
    vertex 387.6110454764814 470.30078055372036 17.148000000000003
    vertex 387.61104547648137 464.8089324223672 17.148000000000003
    vertex 403.5072054764812 464.8089324223671 17.148000000000003
  endloop
endfacet
facet normal 0.0 0.0 1.0
  outer loop
    vertex 387.6110454764814 470.30078055372036 17.148000000000003
    vertex 403.5072054764812 464.8089324223671 17.148000000000003
    vertex 403.50720547648115 470.3007805537202 17.148000000000003
  endloop
endfacet
facet normal 0.0 0.0 1.0
  outer loop
    vertex 403.50720547648115 470.3007805537202 17.148000000000003
    vertex 403.5072054764812 464.8089324223671 17.148000000000003
    vertex 405.6321654764812 467.4221148880436 17.148000000000003
  endloop
endfacet
facet normal 0.0 0.0 -1.0
  outer loop
    vertex 383.70312547648143 469.976263517025 3.8099999999999996
    vertex 383.7031254764814 464.8874494590625 3.8099999999999996
    vertex 382.3051254764814 467.30885648804383 3.8099999999999996
  endloop
endfacet
facet normal 0.0 0.0 -1.0
  outer loop
    vertex 383.7031254764814 464.8874494590625 3.8099999999999996
    vertex 383.70312547648143 469.976263517025 3.8099999999999996
    vertex 407.1611254764811 464.8874494590625 3.8099999999999996
  endloop
endfacet
facet normal 0.0 0.0 -1.0
  outer loop
    vertex 407.1611254764811 464.8874494590625 3.8099999999999996
    vertex 383.70312547648143 469.976263517025 3.8099999999999996
    vertex 407.16112547648123 469.976263517025 3.8099999999999996
  endloop
endfacet
facet normal 7.112366251504958e-15 1.0 8.853897904388946e-17
  outer loop
    vertex 385.1011254764815 472.64367054600626 15.287999999999998
    vertex 406.01712547648117 472.6436705460061 0.0
    vertex 385.10112547648146 472.64367054600626 0.0
  endloop
endfacet
facet normal 7.112366251504958e-15 1.0 8.853897904388946e-17
  outer loop
    vertex 406.01712547648117 472.6436705460061 0.0
    vertex 385.1011254764815 472.64367054600626 15.287999999999998
    vertex 406.0171254764812 472.6436705460061 15.287999999999998
  endloop
endfacet
facet normal 0.0 1.0 0.0
  outer loop
    vertex 407.1611254764811 464.8874494590625 3.8099999999999996
    vertex 407.41512547648114 464.8874494590625 0.0
    vertex 407.1611254764811 464.8874494590625 0.0
  endloop
endfacet
facet normal 0.0 1.0 0.0
  outer loop
    vertex 407.41512547648114 464.8874494590625 0.0
    vertex 407.1611254764811 464.8874494590625 3.8099999999999996
    vertex 407.41512547648114 464.8874494590625 3.8099999999999996
  endloop
endfacet
facet normal -0.8857241259504515 0.46421199113046263 2.10081935674492e-15
  outer loop
    vertex 385.1011254764815 472.64367054600626 15.287999999999998
    vertex 382.3051254764814 467.30885648804383 3.8099999999999996
    vertex 382.3051254764814 467.30885648804383 15.287999999999998
  endloop
endfacet
facet normal -0.8857241259504515 0.46421199113046263 2.10081935674492e-15
  outer loop
    vertex 382.3051254764814 467.30885648804383 3.8099999999999996
    vertex 385.1011254764815 472.64367054600626 15.287999999999998
    vertex 383.70312547648143 469.976263517025 3.8099999999999996
  endloop
endfacet
facet normal -0.8857241259504515 0.46421199113046263 2.10081935674492e-15
  outer loop
    vertex 383.70312547648143 469.976263517025 3.8099999999999996
    vertex 385.1011254764815 472.64367054600626 15.287999999999998
    vertex 383.70312547648143 469.976263517025 0.0
  endloop
endfacet
facet normal -0.8857241259504515 0.46421199113046263 2.10081935674492e-15
  outer loop
    vertex 383.70312547648143 469.976263517025 0.0
    vertex 385.1011254764815 472.64367054600626 15.287999999999998
    vertex 385.10112547648146 472.64367054600626 0.0
  endloop
endfacet
facet normal 0.0 0.0 -1.0
  outer loop
    vertex 407.16112547648123 469.976263517025 3.8099999999999996
    vertex 407.41512547648114 464.8874494590625 3.8099999999999996
    vertex 407.1611254764811 464.8874494590625 3.8099999999999996
  endloop
endfacet
facet normal 0.0 0.0 -1.0
  outer loop
    vertex 407.41512547648114 464.8874494590625 3.8099999999999996
    vertex 407.16112547648123 469.976263517025 3.8099999999999996
    vertex 407.41512547648125 469.976263517025 3.8099999999999996
  endloop
endfacet
facet normal 0.0 1.0 0.0
  outer loop
    vertex 383.7031254764814 464.8874494590625 3.8099999999999996
    vertex 407.1611254764811 464.8874494590625 0.0
    vertex 383.7031254764814 464.8874494590625 0.0
  endloop
endfacet
facet normal 0.0 1.0 0.0
  outer loop
    vertex 407.1611254764811 464.8874494590625 0.0
    vertex 383.7031254764814 464.8874494590625 3.8099999999999996
    vertex 407.1611254764811 464.8874494590625 3.8099999999999996
  endloop
endfacet
facet normal 0.385190437872039 0.28433808157023516 0.877940876107785
  outer loop
    vertex 406.0171254764812 472.6436705460061 15.287999999999998
    vertex 403.50720547648115 470.3007805537202 17.148000000000003
    vertex 405.6321654764812 467.4221148880436 17.148000000000003
  endloop
endfacet
facet normal 0.3702254707458358 -0.3010560214027709 0.8788050823636369
  outer loop
    vertex 406.0171254764812 462.4660424300811 15.287999999999998
    vertex 405.6321654764812 467.4221148880436 17.148000000000003
    vertex 403.5072054764812 464.8089324223671 17.148000000000003
  endloop
endfacet
facet normal 0.4778415218916807 -0.27588193129414473 0.8340003836579785
  outer loop
    vertex 408.8131254764812 467.30885648804355 15.287999999999998
    vertex 405.6321654764812 467.4221148880436 17.148000000000003
    vertex 406.0171254764812 462.4660424300811 15.287999999999998
  endloop
endfacet
facet normal 0.0 0.0 -1.0
  outer loop
    vertex 385.10112547648146 472.64367054600626 0.0
    vertex 407.16112547648123 469.976263517025 0.0
    vertex 383.70312547648143 469.976263517025 0.0
  endloop
endfacet
facet normal 0.0 0.0 -1.0
  outer loop
    vertex 407.16112547648123 469.976263517025 0.0
    vertex 385.10112547648146 472.64367054600626 0.0
    vertex 407.41512547648125 469.976263517025 0.0
  endloop
endfacet
facet normal -0.866025403784439 -0.49999999999999933 3.5938417865107354e-15
  outer loop
    vertex 382.3051254764814 467.30885648804383 15.287999999999998
    vertex 385.1011254764814 462.46604243008125 0.0
    vertex 385.1011254764814 462.46604243008125 15.287999999999998
  endloop
endfacet
facet normal -0.866025403784439 -0.49999999999999933 3.5938417865107354e-15
  outer loop
    vertex 385.1011254764814 462.46604243008125 0.0
    vertex 382.3051254764814 467.30885648804383 15.287999999999998
    vertex 383.7031254764814 464.8874494590625 3.8099999999999996
  endloop
endfacet
facet normal -0.866025403784439 -0.49999999999999933 3.5938417865107354e-15
  outer loop
    vertex 383.7031254764814 464.8874494590625 3.8099999999999996
    vertex 382.3051254764814 467.30885648804383 15.287999999999998
    vertex 382.3051254764814 467.30885648804383 3.8099999999999996
  endloop
endfacet
facet normal -0.866025403784439 -0.49999999999999933 3.5938417865107354e-15
  outer loop
    vertex 383.7031254764814 464.8874494590625 0.0
    vertex 385.1011254764814 462.46604243008125 0.0
    vertex 383.7031254764814 464.8874494590625 3.8099999999999996
  endloop
endfacet
facet normal -0.49438905575139563 0.25911152382485814 0.829723254931669
  outer loop
    vertex 385.48608547648126 467.4221148880438 17.148000000000003
    vertex 385.1011254764815 472.64367054600626 15.287999999999998
    vertex 382.3051254764814 467.30885648804383 15.287999999999998
  endloop
endfacet
facet normal -4.328893385570119e-15 -0.6217734256096464 0.7831971700699931
  outer loop
    vertex 406.0171254764812 462.4660424300811 15.287999999999998
    vertex 387.61104547648137 464.8089324223672 17.148000000000003
    vertex 385.1011254764814 462.46604243008125 15.287999999999998
  endloop
endfacet
facet normal -4.328893385570119e-15 -0.6217734256096464 0.7831971700699931
  outer loop
    vertex 387.61104547648137 464.8089324223672 17.148000000000003
    vertex 406.0171254764812 462.4660424300811 15.287999999999998
    vertex 403.5072054764812 464.8089324223671 17.148000000000003
  endloop
endfacet
facet normal -0.47784152189170115 -0.2758819312941556 0.834000383657963
  outer loop
    vertex 385.48608547648126 467.4221148880438 17.148000000000003
    vertex 382.3051254764814 467.30885648804383 15.287999999999998
    vertex 385.1011254764814 462.46604243008125 15.287999999999998
  endloop
endfacet
facet normal 0.0 0.0 -1.0
  outer loop
    vertex 407.41512547648125 469.976263517025 0.0
    vertex 385.10112547648146 472.64367054600626 0.0
    vertex 406.01712547648117 472.6436705460061 0.0
  endloop
endfacet
facet normal 4.42274535700585e-15 0.6217734256096465 0.783197170069993
  outer loop
    vertex 387.6110454764814 470.30078055372036 17.148000000000003
    vertex 406.0171254764812 472.6436705460061 15.287999999999998
    vertex 385.1011254764815 472.64367054600626 15.287999999999998
  endloop
endfacet
facet normal 4.42274535700585e-15 0.6217734256096465 0.783197170069993
  outer loop
    vertex 406.0171254764812 472.6436705460061 15.287999999999998
    vertex 387.6110454764814 470.30078055372036 17.148000000000003
    vertex 403.50720547648115 470.3007805537202 17.148000000000003
  endloop
endfacet
facet normal 0.4943890557513803 0.25911152382484115 0.8297232549316834
  outer loop
    vertex 408.8131254764812 467.30885648804355 15.287999999999998
    vertex 406.0171254764812 472.6436705460061 15.287999999999998
    vertex 405.6321654764812 467.4221148880436 17.148000000000003
  endloop
endfacet
facet normal 0.8660254037844348 -0.5000000000000066 -5.472516740833574e-15
  outer loop
    vertex 407.41512547648114 464.8874494590625 0.0
    vertex 406.0171254764812 462.4660424300811 15.287999999999998
    vertex 406.01712547648117 462.4660424300811 0.0
  endloop
endfacet
facet normal 0.8660254037844348 -0.5000000000000066 -5.472516740833574e-15
  outer loop
    vertex 406.0171254764812 462.4660424300811 15.287999999999998
    vertex 407.41512547648114 464.8874494590625 0.0
    vertex 407.41512547648114 464.8874494590625 3.8099999999999996
  endloop
endfacet
facet normal 0.8660254037844348 -0.5000000000000066 -5.472516740833574e-15
  outer loop
    vertex 406.0171254764812 462.4660424300811 15.287999999999998
    vertex 407.41512547648114 464.8874494590625 3.8099999999999996
    vertex 408.8131254764812 467.30885648804355 15.287999999999998
  endloop
endfacet
facet normal 0.8660254037844348 -0.5000000000000066 -5.472516740833574e-15
  outer loop
    vertex 408.8131254764812 467.30885648804355 15.287999999999998
    vertex 407.41512547648114 464.8874494590625 3.8099999999999996
    vertex 408.8131254764812 467.30885648804355 3.8099999999999996
  endloop
endfacet
facet normal 0.0 0.0 -1.0
  outer loop
    vertex 408.8131254764812 467.30885648804355 3.8099999999999996
    vertex 407.41512547648114 464.8874494590625 3.8099999999999996
    vertex 407.41512547648125 469.976263517025 3.8099999999999996
  endloop
endfacet
facet normal 0.8857241259504591 0.46421199113044825 3.560424773278471e-15
  outer loop
    vertex 406.01712547648117 472.6436705460061 0.0
    vertex 407.41512547648125 469.976263517025 3.8099999999999996
    vertex 407.41512547648125 469.976263517025 0.0
  endloop
endfacet
facet normal 0.8857241259504591 0.46421199113044825 3.560424773278471e-15
  outer loop
    vertex 407.41512547648125 469.976263517025 3.8099999999999996
    vertex 408.8131254764812 467.30885648804355 15.287999999999998
    vertex 408.8131254764812 467.30885648804355 3.8099999999999996
  endloop
endfacet
facet normal 0.8857241259504591 0.46421199113044825 3.560424773278471e-15
  outer loop
    vertex 408.8131254764812 467.30885648804355 15.287999999999998
    vertex 407.41512547648125 469.976263517025 3.8099999999999996
    vertex 406.0171254764812 472.6436705460061 15.287999999999998
  endloop
endfacet
facet normal 0.8857241259504591 0.46421199113044825 3.560424773278471e-15
  outer loop
    vertex 406.0171254764812 472.6436705460061 15.287999999999998
    vertex 407.41512547648125 469.976263517025 3.8099999999999996
    vertex 406.01712547648117 472.6436705460061 0.0
  endloop
endfacet
facet normal 0.0 -1.0 0.0
  outer loop
    vertex 407.41512547648125 469.976263517025 3.8099999999999996
    vertex 407.16112547648123 469.976263517025 0.0
    vertex 407.41512547648125 469.976263517025 0.0
  endloop
endfacet
facet normal 0.0 -1.0 0.0
  outer loop
    vertex 407.16112547648123 469.976263517025 0.0
    vertex 407.41512547648125 469.976263517025 3.8099999999999996
    vertex 407.16112547648123 469.976263517025 3.8099999999999996
  endloop
endfacet
endsolid FTCField
