solid FTCField
facet normal -0.7068594440481102 -0.7073540318397828 -0.0
  outer loop
    vertex 619.466420933691 503.64690240664845 12.2555
    vertex 612.6996909000342 510.4089010866781 2.0955
    vertex 619.466420933691 503.64690240664845 2.0955
  endloop
endfacet
facet normal -0.7068594440481102 -0.7073540318397828 -0.0
  outer loop
    vertex 612.6996909000342 510.4089010866781 2.0955
    vertex 619.466420933691 503.64690240664845 12.2555
    vertex 612.6996909000342 510.4089010866781 12.2555
  endloop
endfacet
facet normal -0.7074324931149829 0.7067809191574994 0.0
  outer loop
    vertex 619.4605077044702 517.1759506176091 12.2555
    vertex 612.6996909000342 510.4089010866781 2.0955
    vertex 612.6996909000342 510.4089010866781 12.2555
  endloop
endfacet
facet normal -0.7074324931149829 0.7067809191574994 0.0
  outer loop
    vertex 612.6996909000342 510.4089010866781 2.0955
    vertex 619.4605077044702 517.1759506176091 12.2555
    vertex 619.4605077044702 517.1759506176091 2.0955
  endloop
endfacet
facet normal 0.0 0.0 1.0
  outer loop
    vertex 619.466420933691 503.64690240664845 12.2555
    vertex 615.5743781464131 510.4089010866781 12.2555
    vertex 612.6996909000342 510.4089010866781 12.2555
  endloop
endfacet
facet normal 0.0 0.0 1.0
  outer loop
    vertex 615.5743781464131 510.4089010866781 12.2555
    vertex 619.466420933691 503.64690240664845 12.2555
    vertex 619.466420933691 506.52277152862086 12.2555
  endloop
endfacet
facet normal 0.0 0.0 1.0
  outer loop
    vertex 619.466420933691 506.52277152862086 12.2555
    vertex 619.466420933691 503.64690240664845 12.2555
    vertex 626.2337957077821 510.4089010866781 12.2555
  endloop
endfacet
facet normal 0.0 0.0 1.0
  outer loop
    vertex 619.466420933691 506.52277152862086 12.2555
    vertex 626.2337957077821 510.4089010866781 12.2555
    vertex 623.3525504917477 510.41481431589796 12.2555
  endloop
endfacet
facet normal 0.0 0.0 1.0
  outer loop
    vertex 615.5743781464131 510.4089010866781 12.2555
    vertex 619.4605077044702 517.1759506176091 12.2555
    vertex 612.6996909000342 510.4089010866781 12.2555
  endloop
endfacet
facet normal 0.0 0.0 1.0
  outer loop
    vertex 619.4605077044702 517.1759506176091 12.2555
    vertex 615.5743781464131 510.4089010866781 12.2555
    vertex 619.4605077044702 514.3009438739551 12.2555
  endloop
endfacet
facet normal 0.0 0.0 1.0
  outer loop
    vertex 619.4605077044702 517.1759506176091 12.2555
    vertex 619.4605077044702 514.3009438739551 12.2555
    vertex 623.3525504917477 510.41481431589796 12.2555
  endloop
endfacet
facet normal 0.0 0.0 1.0
  outer loop
    vertex 619.4605077044702 517.1759506176091 12.2555
    vertex 623.3525504917477 510.41481431589796 12.2555
    vertex 626.2337957077821 510.4089010866781 12.2555
  endloop
endfacet
facet normal -0.7076441431413085 0.7065690105558009 0.0
  outer loop
    vertex 623.3525504917477 510.41481431589796 12.2555
    vertex 619.466420933691 506.52277152862086 2.0955
    vertex 619.466420933691 506.52277152862086 12.2555
  endloop
endfacet
facet normal -0.7076441431413085 0.7065690105558009 0.0
  outer loop
    vertex 619.466420933691 506.52277152862086 2.0955
    vertex 623.3525504917477 510.41481431589796 12.2555
    vertex 623.3525504917477 510.41481431589796 2.0955
  endloop
endfacet
facet normal 0.7076441431412767 -0.7065690105558327 0.0
  outer loop
    vertex 619.4605077044702 514.3009438739551 2.0955
    vertex 615.5743781464131 510.4089010866781 12.2555
    vertex 615.5743781464131 510.4089010866781 2.0955
  endloop
endfacet
facet normal 0.7076441431412767 -0.7065690105558327 0.0
  outer loop
    vertex 615.5743781464131 510.4089010866781 12.2555
    vertex 619.4605077044702 514.3009438739551 2.0955
    vertex 619.4605077044702 514.3009438739551 12.2555
  endloop
endfacet
facet normal -0.7065690105558009 -0.7076441431413084 -0.0
  outer loop
    vertex 623.3525504917477 510.41481431589796 12.2555
    vertex 619.4605077044702 514.3009438739551 2.0955
    vertex 623.3525504917477 510.41481431589796 2.0955
  endloop
endfacet
facet normal -0.7065690105558009 -0.7076441431413084 -0.0
  outer loop
    vertex 619.4605077044702 514.3009438739551 2.0955
    vertex 623.3525504917477 510.41481431589796 12.2555
    vertex 619.4605077044702 514.3009438739551 12.2555
  endloop
endfacet
facet normal 0.706569010555767 0.7076441431413423 0.0
  outer loop
    vertex 615.5743781464131 510.4089010866781 12.2555
    vertex 619.466420933691 506.52277152862086 2.0955
    vertex 615.5743781464131 510.4089010866781 2.0955
  endloop
endfacet
facet normal 0.706569010555767 0.7076441431413423 0.0
  outer loop
    vertex 619.466420933691 506.52277152862086 2.0955
    vertex 615.5743781464131 510.4089010866781 12.2555
    vertex 619.466420933691 506.52277152862086 12.2555
  endloop
endfacet
facet normal 0.7068257461803713 -0.7073877045415486 0.0
  outer loop
    vertex 626.2337957077821 510.4089010866781 12.2555
    vertex 619.466420933691 503.64690240664845 2.0955
    vertex 626.2337957077821 510.4089010866781 2.0955
  endloop
endfacet
facet normal 0.7068257461803713 -0.7073877045415486 0.0
  outer loop
    vertex 619.466420933691 503.64690240664845 2.0955
    vertex 626.2337957077821 510.4089010866781 12.2555
    vertex 619.466420933691 503.64690240664845 12.2555
  endloop
endfacet
facet normal 0.7067809191574977 0.7074324931149847 0.0
  outer loop
    vertex 619.4605077044702 517.1759506176091 12.2555
    vertex 626.2337957077821 510.4089010866781 2.0955
    vertex 619.4605077044702 517.1759506176091 2.0955
  endloop
endfacet
facet normal 0.7067809191574977 0.7074324931149847 0.0
  outer loop
    vertex 626.2337957077821 510.4089010866781 2.0955
    vertex 619.4605077044702 517.1759506176091 12.2555
    vertex 626.2337957077821 510.4089010866781 12.2555
  endloop
endfacet
facet normal -1.0 0.0 0.0
  outer loop
    vertex 594.3449076071753 535.5387617264341 2.0955
    vertex 594.3449076071753 485.24676172643433 0.0
    vertex 594.3449076071753 485.24676172643433 2.0955
  endloop
endfacet
facet normal -1.0 0.0 0.0
  outer loop
    vertex 594.3449076071753 485.24676172643433 0.0
    vertex 594.3449076071753 535.5387617264341 2.0955
    vertex 594.3449076071753 535.5387617264341 0.0
  endloop
endfacet
facet normal 0.0 1.0 0.0
  outer loop
    vertex 594.3449076071753 535.5387617264341 2.0955
    vertex 644.6369076071755 535.5387617264341 0.0
    vertex 594.3449076071753 535.5387617264341 0.0
  endloop
endfacet
facet normal 0.0 1.0 0.0
  outer loop
    vertex 644.6369076071755 535.5387617264341 0.0
    vertex 594.3449076071753 535.5387617264341 2.0955
    vertex 644.6369076071755 535.5387617264341 2.0955
  endloop
endfacet
facet normal 0.0 0.0 -1.0
  outer loop
    vertex 644.6369076071755 535.5387617264341 0.0
    vertex 594.3449076071753 485.24676172643433 0.0
    vertex 594.3449076071753 535.5387617264341 0.0
  endloop
endfacet
facet normal 0.0 0.0 -1.0
  outer loop
    vertex 594.3449076071753 485.24676172643433 0.0
    vertex 644.6369076071755 535.5387617264341 0.0
    vertex 644.6369076071755 485.24676172643433 0.0
  endloop
endfacet
facet normal 1.0 0.0 0.0
  outer loop
    vertex 644.6369076071755 535.5387617264341 0.0
    vertex 644.6369076071755 485.24676172643433 2.0955
    vertex 644.6369076071755 485.24676172643433 0.0
  endloop
endfacet
facet normal 1.0 0.0 0.0
  outer loop
    vertex 644.6369076071755 485.24676172643433 2.0955
    vertex 644.6369076071755 535.5387617264341 0.0
    vertex 644.6369076071755 535.5387617264341 2.0955
  endloop
endfacet
facet normal 0.0 -1.0 0.0
  outer loop
    vertex 644.6369076071755 485.24676172643433 2.0955
    vertex 594.3449076071753 485.24676172643433 0.0
    vertex 644.6369076071755 485.24676172643433 0.0
  endloop
endfacet
facet normal 0.0 -1.0 0.0
  outer loop
    vertex 594.3449076071753 485.24676172643433 0.0
    vertex 644.6369076071755 485.24676172643433 2.0955
    vertex 594.3449076071753 485.24676172643433 2.0955
  endloop
endfacet
facet normal 0.0 0.0 1.0
  outer loop
    vertex 594.3449076071753 485.24676172643433 2.0955
    vertex 612.6996909000342 510.4089010866781 2.0955
    vertex 594.3449076071753 535.5387617264341 2.0955
  endloop
endfacet
facet normal 0.0 0.0 1.0
  outer loop
    vertex 612.6996909000342 510.4089010866781 2.0955
    vertex 594.3449076071753 485.24676172643433 2.0955
    vertex 619.466420933691 503.64690240664845 2.0955
  endloop
endfacet
facet normal 0.0 0.0 1.0
  outer loop
    vertex 619.466420933691 503.64690240664845 2.0955
    vertex 594.3449076071753 485.24676172643433 2.0955
    vertex 644.6369076071755 485.24676172643433 2.0955
  endloop
endfacet
facet normal 0.0 0.0 1.0
  outer loop
    vertex 619.466420933691 503.64690240664845 2.0955
    vertex 644.6369076071755 485.24676172643433 2.0955
    vertex 626.2337957077821 510.4089010866781 2.0955
  endloop
endfacet
facet normal 0.0 0.0 1.0
  outer loop
    vertex 594.3449076071753 535.5387617264341 2.0955
    vertex 619.4605077044702 517.1759506176091 2.0955
    vertex 644.6369076071755 535.5387617264341 2.0955
  endloop
endfacet
facet normal 0.0 0.0 1.0
  outer loop
    vertex 619.4605077044702 517.1759506176091 2.0955
    vertex 594.3449076071753 535.5387617264341 2.0955
    vertex 612.6996909000342 510.4089010866781 2.0955
  endloop
endfacet
facet normal 0.0 0.0 1.0
  outer loop
    vertex 644.6369076071755 535.5387617264341 2.0955
    vertex 619.4605077044702 517.1759506176091 2.0955
    vertex 626.2337957077821 510.4089010866781 2.0955
  endloop
endfacet
facet normal 0.0 0.0 1.0
  outer loop
    vertex 644.6369076071755 535.5387617264341 2.0955
    vertex 626.2337957077821 510.4089010866781 2.0955
    vertex 644.6369076071755 485.24676172643433 2.0955
  endloop
endfacet
facet normal 0.0 0.0 1.0
  outer loop
    vertex 623.3525504917477 510.41481431589796 2.0955
    vertex 619.4605077044702 514.3009438739551 2.0955
    vertex 615.5743781464131 510.4089010866781 2.0955
  endloop
endfacet
facet normal 0.0 0.0 1.0
  outer loop
    vertex 623.3525504917477 510.41481431589796 2.0955
    vertex 615.5743781464131 510.4089010866781 2.0955
    vertex 619.466420933691 506.52277152862086 2.0955
  endloop
endfacet
endsolid FTCField
