solid FTCField
facet normal 0.7071067811865475 -0.7071067811865477 -3.95813397138814e-15
  outer loop
    vertex 622.3699396215999 510.9303923095483 4.023354554937508
    vertex 619.1879591062606 507.74841179420866 64.16931127942577
    vertex 619.1879591062605 507.74841179420883 4.023354554937506
  endloop
endfacet
facet normal 0.7071067811865475 -0.7071067811865477 -3.95813397138814e-15
  outer loop
    vertex 619.1879591062606 507.74841179420866 64.16931127942577
    vertex 622.3699396215999 510.9303923095483 4.023354554937508
    vertex 622.3699396216001 510.93039230954815 64.16931127942577
  endloop
endfacet
facet normal -0.7071067811865477 -0.7071067811865475 -4.3705320515494243e-16
  outer loop
    vertex 619.1879591062606 507.74841179420866 64.16931127942577
    vertex 616.005978590921 510.9303923095483 4.023354554937524
    vertex 619.1879591062605 507.74841179420883 4.023354554937506
  endloop
endfacet
facet normal -0.7071067811865477 -0.7071067811865475 -4.3705320515494243e-16
  outer loop
    vertex 616.005978590921 510.9303923095483 4.023354554937524
    vertex 619.1879591062606 507.74841179420866 64.16931127942577
    vertex 616.0059785909211 510.93039230954815 64.16931127942578
  endloop
endfacet
facet normal -2.489780086909018e-15 3.1078666571177692e-15 -1.0
  outer loop
    vertex 622.3699396215999 510.9303923095483 4.023354554937508
    vertex 616.005978590921 510.9303923095483 4.023354554937524
    vertex 619.1879591062605 514.1123728248878 4.023354554937526
  endloop
endfacet
facet normal -2.489780086909018e-15 3.1078666571177692e-15 -1.0
  outer loop
    vertex 616.005978590921 510.9303923095483 4.023354554937524
    vertex 622.3699396215999 510.9303923095483 4.023354554937508
    vertex 619.1879591062605 507.74841179420883 4.023354554937506
  endloop
endfacet
facet normal -0.7071067811865475 0.7071067811865477 3.95813397138814e-15
  outer loop
    vertex 619.1879591062606 514.1123728248875 64.16931127942578
    vertex 616.005978590921 510.9303923095483 4.023354554937524
    vertex 616.0059785909211 510.93039230954815 64.16931127942578
  endloop
endfacet
facet normal -0.7071067811865475 0.7071067811865477 3.95813397138814e-15
  outer loop
    vertex 616.005978590921 510.9303923095483 4.023354554937524
    vertex 619.1879591062606 514.1123728248875 64.16931127942578
    vertex 619.1879591062605 514.1123728248878 4.023354554937526
  endloop
endfacet
facet normal 0.7071067811865477 0.7071067811865475 4.3705320515494243e-16
  outer loop
    vertex 619.1879591062606 514.1123728248875 64.16931127942578
    vertex 622.3699396215999 510.9303923095483 4.023354554937508
    vertex 619.1879591062605 514.1123728248878 4.023354554937526
  endloop
endfacet
facet normal 0.7071067811865477 0.7071067811865475 4.3705320515494243e-16
  outer loop
    vertex 622.3699396215999 510.9303923095483 4.023354554937508
    vertex 619.1879591062606 514.1123728248875 64.16931127942578
    vertex 622.3699396216001 510.93039230954815 64.16931127942577
  endloop
endfacet
facet normal 0.7071067811865475 -0.7071067811865477 -3.95813397138814e-15
  outer loop
    vertex 598.3537649053801 486.91421759332826 64.16931127942576
    vertex 601.5357454207196 490.09619810866764 75.19516727439799
    vertex 598.3537649053801 486.91421759332815 75.19516727439795
  endloop
endfacet
facet normal 0.7071067811865475 -0.7071067811865477 -3.95813397138814e-15
  outer loop
    vertex 601.5357454207196 490.09619810866764 75.19516727439799
    vertex 598.3537649053801 486.91421759332826 64.16931127942576
    vertex 601.5357454207196 490.09619810866775 68.845167274398
  endloop
endfacet
facet normal 0.7071067811865475 -0.7071067811865477 -3.95813397138814e-15
  outer loop
    vertex 601.5357454207196 490.09619810866775 68.845167274398
    vertex 598.3537649053801 486.91421759332826 64.16931127942576
    vertex 619.1879591062606 507.74841179420866 64.16931127942577
  endloop
endfacet
facet normal 0.7071067811865475 -0.7071067811865477 -3.95813397138814e-15
  outer loop
    vertex 601.5357454207196 490.09619810866775 68.845167274398
    vertex 619.1879591062606 507.74841179420866 64.16931127942577
    vertex 640.022153307141 528.5826059950891 68.84516727439826
  endloop
endfacet
facet normal 0.7071067811865475 -0.7071067811865477 -3.95813397138814e-15
  outer loop
    vertex 640.022153307141 528.5826059950891 68.84516727439826
    vertex 619.1879591062606 507.74841179420866 64.16931127942577
    vertex 622.3699396216001 510.93039230954815 64.16931127942577
  endloop
endfacet
facet normal 0.7071067811865475 -0.7071067811865477 -3.95813397138814e-15
  outer loop
    vertex 640.022153307141 528.5826059950891 68.84516727439826
    vertex 622.3699396216001 510.93039230954815 64.16931127942577
    vertex 643.2041338224805 531.7645865104286 64.16931127942607
  endloop
endfacet
facet normal 0.7071067811865475 -0.7071067811865477 -3.95813397138814e-15
  outer loop
    vertex 640.022153307141 528.5826059950891 68.84516727439826
    vertex 643.2041338224805 531.7645865104286 64.16931127942607
    vertex 640.0221533071411 528.582605995089 75.19516727439807
  endloop
endfacet
facet normal 0.7071067811865475 -0.7071067811865477 -3.95813397138814e-15
  outer loop
    vertex 640.0221533071411 528.582605995089 75.19516727439807
    vertex 643.2041338224805 531.7645865104286 64.16931127942607
    vertex 643.2041338224806 531.7645865104284 75.19516727439807
  endloop
endfacet
facet normal -2.489780086909018e-15 3.1078666571177692e-15 -1.0
  outer loop
    vertex 619.1879591062606 507.74841179420866 64.16931127942577
    vertex 595.1717843900407 490.09619810866764 64.16931127942577
    vertex 616.0059785909211 510.93039230954815 64.16931127942578
  endloop
endfacet
facet normal -2.489780086909018e-15 3.1078666571177692e-15 -1.0
  outer loop
    vertex 595.1717843900407 490.09619810866764 64.16931127942577
    vertex 619.1879591062606 507.74841179420866 64.16931127942577
    vertex 598.3537649053801 486.91421759332826 64.16931127942576
  endloop
endfacet
facet normal -0.7071067811865475 0.7071067811865477 3.95813397138814e-15
  outer loop
    vertex 598.3537649053802 493.2781786240071 75.195167274398
    vertex 595.1717843900407 490.09619810866764 64.16931127942577
    vertex 595.1717843900407 490.09619810866764 75.19516727439797
  endloop
endfacet
facet normal -0.7071067811865475 0.7071067811865477 3.95813397138814e-15
  outer loop
    vertex 595.1717843900407 490.09619810866764 64.16931127942577
    vertex 598.3537649053802 493.2781786240071 75.195167274398
    vertex 598.3537649053802 493.2781786240071 68.845167274398
  endloop
endfacet
facet normal -0.7071067811865475 0.7071067811865477 3.95813397138814e-15
  outer loop
    vertex 595.1717843900407 490.09619810866764 64.16931127942577
    vertex 598.3537649053802 493.2781786240071 68.845167274398
    vertex 616.0059785909211 510.93039230954815 64.16931127942578
  endloop
endfacet
facet normal -0.7071067811865475 0.7071067811865477 3.95813397138814e-15
  outer loop
    vertex 616.0059785909211 510.93039230954815 64.16931127942578
    vertex 598.3537649053802 493.2781786240071 68.845167274398
    vertex 636.8401727918015 531.7645865104284 68.84516727439826
  endloop
endfacet
facet normal -0.7071067811865475 0.7071067811865477 3.95813397138814e-15
  outer loop
    vertex 616.0059785909211 510.93039230954815 64.16931127942578
    vertex 636.8401727918015 531.7645865104284 68.84516727439826
    vertex 619.1879591062606 514.1123728248875 64.16931127942578
  endloop
endfacet
facet normal -0.7071067811865475 0.7071067811865477 3.95813397138814e-15
  outer loop
    vertex 619.1879591062606 514.1123728248875 64.16931127942578
    vertex 636.8401727918015 531.7645865104284 68.84516727439826
    vertex 640.0221533071411 534.9465670257681 64.16931127942608
  endloop
endfacet
facet normal -0.7071067811865475 0.7071067811865477 3.95813397138814e-15
  outer loop
    vertex 640.0221533071411 534.9465670257681 64.16931127942608
    vertex 636.8401727918015 531.7645865104284 68.84516727439826
    vertex 636.8401727918017 531.7645865104284 75.19516727439806
  endloop
endfacet
facet normal -0.7071067811865475 0.7071067811865477 3.95813397138814e-15
  outer loop
    vertex 640.0221533071411 534.9465670257681 64.16931127942608
    vertex 636.8401727918017 531.7645865104284 75.19516727439806
    vertex 640.0221533071411 534.9465670257679 75.19516727439809
  endloop
endfacet
facet normal -0.7071067811865477 -0.7071067811865475 -4.3705320515494243e-16
  outer loop
    vertex 598.3537649053801 486.91421759332815 75.19516727439795
    vertex 595.1717843900407 490.09619810866764 64.16931127942577
    vertex 598.3537649053801 486.91421759332826 64.16931127942576
  endloop
endfacet
facet normal -0.7071067811865477 -0.7071067811865475 -4.3705320515494243e-16
  outer loop
    vertex 595.1717843900407 490.09619810866764 64.16931127942577
    vertex 598.3537649053801 486.91421759332815 75.19516727439795
    vertex 595.1717843900407 490.09619810866764 75.19516727439797
  endloop
endfacet
facet normal -2.5066368733759182e-15 -4.5593637551299965e-15 1.0
  outer loop
    vertex 601.5357454207196 490.09619810866775 68.845167274398
    vertex 636.8401727918015 531.7645865104284 68.84516727439826
    vertex 598.3537649053802 493.2781786240071 68.845167274398
  endloop
endfacet
facet normal -2.5066368733759182e-15 -4.5593637551299965e-15 1.0
  outer loop
    vertex 636.8401727918015 531.7645865104284 68.84516727439826
    vertex 601.5357454207196 490.09619810866775 68.845167274398
    vertex 640.022153307141 528.5826059950891 68.84516727439826
  endloop
endfacet
facet normal -1.0551397753636365e-15 -6.652786519390422e-15 1.0
  outer loop
    vertex 598.3537649053801 486.91421759332815 75.19516727439795
    vertex 598.3537649053802 493.2781786240071 75.195167274398
    vertex 595.1717843900407 490.09619810866764 75.19516727439797
  endloop
endfacet
facet normal -1.0551397753636365e-15 -6.652786519390422e-15 1.0
  outer loop
    vertex 598.3537649053802 493.2781786240071 75.195167274398
    vertex 598.3537649053801 486.91421759332815 75.19516727439795
    vertex 601.5357454207196 490.09619810866764 75.19516727439799
  endloop
endfacet
facet normal -1.0551397753636807e-15 -3.1078666571177598e-15 1.0
  outer loop
    vertex 640.0221533071411 528.582605995089 75.19516727439807
    vertex 640.0221533071411 534.9465670257679 75.19516727439809
    vertex 636.8401727918017 531.7645865104284 75.19516727439806
  endloop
endfacet
facet normal -1.0551397753636807e-15 -3.1078666571177598e-15 1.0
  outer loop
    vertex 640.0221533071411 534.9465670257679 75.19516727439809
    vertex 640.0221533071411 528.582605995089 75.19516727439807
    vertex 643.2041338224806 531.7645865104284 75.19516727439807
  endloop
endfacet
facet normal -0.7071067811865477 -0.7071067811865475 -2.943690078530843e-15
  outer loop
    vertex 640.022153307141 528.5826059950891 68.84516727439826
    vertex 636.8401727918017 531.7645865104284 75.19516727439806
    vertex 636.8401727918015 531.7645865104284 68.84516727439826
  endloop
endfacet
facet normal -0.7071067811865477 -0.7071067811865475 -2.943690078530843e-15
  outer loop
    vertex 636.8401727918017 531.7645865104284 75.19516727439806
    vertex 640.022153307141 528.5826059950891 68.84516727439826
    vertex 640.0221533071411 528.582605995089 75.19516727439807
  endloop
endfacet
facet normal 0.7071067811865477 0.7071067811865475 5.4503269519066935e-15
  outer loop
    vertex 598.3537649053802 493.2781786240071 75.195167274398
    vertex 601.5357454207196 490.09619810866775 68.845167274398
    vertex 598.3537649053802 493.2781786240071 68.845167274398
  endloop
endfacet
facet normal 0.7071067811865477 0.7071067811865475 5.4503269519066935e-15
  outer loop
    vertex 601.5357454207196 490.09619810866775 68.845167274398
    vertex 598.3537649053802 493.2781786240071 75.195167274398
    vertex 601.5357454207196 490.09619810866764 75.19516727439799
  endloop
endfacet
facet normal 0.7071067811865477 0.7071067811865475 1.0086508571034877e-14
  outer loop
    vertex 640.0221533071411 534.9465670257679 75.19516727439809
    vertex 643.2041338224805 531.7645865104286 64.16931127942607
    vertex 640.0221533071411 534.9465670257681 64.16931127942608
  endloop
endfacet
facet normal 0.7071067811865477 0.7071067811865475 1.0086508571034877e-14
  outer loop
    vertex 643.2041338224805 531.7645865104286 64.16931127942607
    vertex 640.0221533071411 534.9465670257679 75.19516727439809
    vertex 643.2041338224806 531.7645865104284 75.19516727439807
  endloop
endfacet
facet normal 4.333415237061603e-15 9.931061981088388e-15 -1.0
  outer loop
    vertex 643.2041338224805 531.7645865104286 64.16931127942607
    vertex 619.1879591062606 514.1123728248875 64.16931127942578
    vertex 640.0221533071411 534.9465670257681 64.16931127942608
  endloop
endfacet
facet normal 4.333415237061603e-15 9.931061981088388e-15 -1.0
  outer loop
    vertex 619.1879591062606 514.1123728248875 64.16931127942578
    vertex 643.2041338224805 531.7645865104286 64.16931127942607
    vertex 622.3699396216001 510.93039230954815 64.16931127942577
  endloop
endfacet
endsolid FTCField
