solid FTCField
facet normal 0.7071067811865417 0.7071067811865535 0.0
  outer loop
    vertex 478.86483140661755 637.5880747662615 27.400000000000045
    vertex 480.9861517501772 635.4667544227018 17.240000000000045
    vertex 478.86483140661755 637.5880747662615 17.240000000000045
  endloop
endfacet
facet normal 0.7071067811865417 0.7071067811865535 0.0
  outer loop
    vertex 480.9861517501772 635.4667544227018 17.240000000000045
    vertex 478.86483140661755 637.5880747662615 27.400000000000045
    vertex 480.9861517501772 635.4667544227018 27.400000000000045
  endloop
endfacet
facet normal 0.2627706375301578 0.26277063753016144 0.9283874105695247
  outer loop
    vertex 492.08537677431275 650.8086201339568 17.240000000000045
    vertex 534.1554603193198 662.5825439333992 2.0000000000000933
    vertex 480.3114529748707 662.5825439333987 17.240000000000045
  endloop
endfacet
facet normal 0.2627706375301578 0.26277063753016144 0.9283874105695247
  outer loop
    vertex 534.1554603193198 662.5825439333992 2.0000000000000933
    vertex 492.08537677431275 650.8086201339568 17.240000000000045
    vertex 544.1774261504331 652.5605781022861 2.0000000000000933
  endloop
endfacet
facet normal -0.03361296015994264 0.9994349247996522 0.0
  outer loop
    vertex 492.08537677431275 650.8086201339568 17.240000000000045
    vertex 544.1774261504331 652.5605781022861 9.525000000000047
    vertex 544.1774261504331 652.5605781022861 2.0000000000000933
  endloop
endfacet
facet normal -0.03361296015994264 0.9994349247996522 0.0
  outer loop
    vertex 544.1774261504331 652.5605781022861 9.525000000000047
    vertex 492.08537677431275 650.8086201339568 17.240000000000045
    vertex 492.08537677431275 650.8086201339568 28.400000000000045
  endloop
endfacet
facet normal -0.03361296015994264 0.9994349247996522 0.0
  outer loop
    vertex 492.08537677431275 650.8086201339568 28.400000000000045
    vertex 492.08537677431275 650.8086201339568 17.240000000000045
    vertex 492.08537677431275 650.8086201339568 27.400000000000045
  endloop
endfacet
facet normal -8.770761894538735e-15 1.0 9.646806470555402e-16
  outer loop
    vertex 467.0909076071754 662.5825439333985 17.240000000000045
    vertex 534.1554603193198 662.5825439333992 4.829192601363274e-14
    vertex 467.0909076071754 662.5825439333985 4.829192601363274e-14
  endloop
endfacet
facet normal -8.770761894538735e-15 1.0 9.646806470555402e-16
  outer loop
    vertex 534.1554603193198 662.5825439333992 4.829192601363274e-14
    vertex 467.0909076071754 662.5825439333985 17.240000000000045
    vertex 534.1554603193198 662.5825439333992 2.0000000000000933
  endloop
endfacet
facet normal -8.770761894538735e-15 1.0 9.646806470555402e-16
  outer loop
    vertex 534.1554603193198 662.5825439333992 2.0000000000000933
    vertex 467.0909076071754 662.5825439333985 17.240000000000045
    vertex 480.3114529748707 662.5825439333987 17.240000000000045
  endloop
endfacet
facet normal 0.7071067811865535 -0.7071067811865417 0.0
  outer loop
    vertex 494.2066971178724 648.6872997903972 27.400000000000045
    vertex 480.9861517501772 635.4667544227018 30.900000000000038
    vertex 480.9861517501772 635.4667544227018 27.400000000000045
  endloop
endfacet
facet normal 0.7071067811865535 -0.7071067811865417 0.0
  outer loop
    vertex 480.9861517501772 635.4667544227018 30.900000000000038
    vertex 494.2066971178724 648.6872997903972 27.400000000000045
    vertex 494.2066971178724 648.6872997903972 30.900000000000038
  endloop
endfacet
facet normal -0.2871382345582605 -0.40285732887489434 0.8690555832779343
  outer loop
    vertex 480.9861517501772 635.4667544227018 30.900000000000038
    vertex 478.7171771622434 633.1977798347679 29.09852443348692
    vertex 480.97837310988166 589.3615250617335 9.525000000000047
  endloop
endfacet
facet normal 0.0 0.0 -1.0
  outer loop
    vertex 492.08537677431275 650.8086201339568 27.400000000000045
    vertex 480.9861517501772 635.4667544227018 27.400000000000045
    vertex 478.86483140661755 637.5880747662615 27.400000000000045
  endloop
endfacet
facet normal 0.0 0.0 -1.0
  outer loop
    vertex 480.9861517501772 635.4667544227018 27.400000000000045
    vertex 492.08537677431275 650.8086201339568 27.400000000000045
    vertex 494.2066971178724 648.6872997903972 27.400000000000045
  endloop
endfacet
facet normal -0.2627706375301573 -0.26277063753016233 0.9283874105695245
  outer loop
    vertex 467.09090760717595 595.5179912212542 2.000000000000048
    vertex 478.86483140661755 637.5880747662615 17.240000000000045
    vertex 467.0909076071755 649.3619985657033 17.240000000000045
  endloop
endfacet
facet normal -0.2627706375301573 -0.26277063753016233 0.9283874105695245
  outer loop
    vertex 478.86483140661755 637.5880747662615 17.240000000000045
    vertex 467.09090760717595 595.5179912212542 2.000000000000048
    vertex 477.11287343828917 585.496025390141 2.000000000000048
  endloop
endfacet
facet normal 0.7071067811865417 0.7071067811865535 0.0
  outer loop
    vertex 534.1554603193198 662.5825439333992 2.0000000000000933
    vertex 544.1774261504331 652.5605781022861 4.829192601363274e-14
    vertex 534.1554603193198 662.5825439333992 4.829192601363274e-14
  endloop
endfacet
facet normal 0.7071067811865417 0.7071067811865535 0.0
  outer loop
    vertex 544.1774261504331 652.5605781022861 4.829192601363274e-14
    vertex 534.1554603193198 662.5825439333992 2.0000000000000933
    vertex 544.1774261504331 652.5605781022861 2.0000000000000933
  endloop
endfacet
facet normal 0.7071067811865535 -0.7071067811865417 0.0
  outer loop
    vertex 544.1774261504331 652.5605781022861 4.829192601363274e-14
    vertex 540.3119264788406 648.6950784306936 0.7300000000000728
    vertex 540.3119264788406 648.6950784306936 4.829192601363274e-14
  endloop
endfacet
facet normal 0.7071067811865535 -0.7071067811865417 0.0
  outer loop
    vertex 540.3119264788406 648.6950784306936 0.7300000000000728
    vertex 544.1774261504331 652.5605781022861 4.829192601363274e-14
    vertex 540.3119264788406 648.6950784306936 9.525000000000047
  endloop
endfacet
facet normal 0.7071067811865535 -0.7071067811865417 0.0
  outer loop
    vertex 540.3119264788406 648.6950784306936 9.525000000000047
    vertex 544.1774261504331 652.5605781022861 4.829192601363274e-14
    vertex 544.1774261504331 652.5605781022861 9.525000000000047
  endloop
endfacet
facet normal 0.7071067811865535 -0.7071067811865417 0.0
  outer loop
    vertex 544.1774261504331 652.5605781022861 9.525000000000047
    vertex 544.1774261504331 652.5605781022861 4.829192601363274e-14
    vertex 544.1774261504331 652.5605781022861 2.0000000000000933
  endloop
endfacet
facet normal 0.9999999857676375 -0.00016871492220638107 6.26713349155558e-16
  outer loop
    vertex 480.9861517501772 635.4667544227018 17.240000000000045
    vertex 480.97837310988166 589.3615250617335 9.525000000000047
    vertex 480.97837310988166 589.3615250617335 0.7300000000000482
  endloop
endfacet
facet normal 0.9999999857676375 -0.00016871492220638107 6.26713349155558e-16
  outer loop
    vertex 480.97837310988166 589.3615250617335 9.525000000000047
    vertex 480.9861517501772 635.4667544227018 17.240000000000045
    vertex 480.9861517501772 635.4667544227018 30.900000000000038
  endloop
endfacet
facet normal 0.9999999857676375 -0.00016871492220638107 6.26713349155558e-16
  outer loop
    vertex 480.9861517501772 635.4667544227018 30.900000000000038
    vertex 480.9861517501772 635.4667544227018 17.240000000000045
    vertex 480.9861517501772 635.4667544227018 27.400000000000045
  endloop
endfacet
facet normal -0.34615857245279874 -0.3461585724528045 0.871979635906067
  outer loop
    vertex 480.9861517501772 635.4667544227018 30.900000000000038
    vertex 478.86483140661755 637.5880747662615 30.900000000000038
    vertex 478.7171771622434 633.1977798347679 29.09852443348692
  endloop
endfacet
facet normal 0.0 0.0 1.0
  outer loop
    vertex 480.9861517501772 635.4667544227018 30.900000000000038
    vertex 492.08537677431275 650.8086201339568 30.900000000000038
    vertex 478.86483140661755 637.5880747662615 30.900000000000038
  endloop
endfacet
facet normal 0.0 0.0 1.0
  outer loop
    vertex 492.08537677431275 650.8086201339568 30.900000000000038
    vertex 480.9861517501772 635.4667544227018 30.900000000000038
    vertex 494.2066971178724 648.6872997903972 30.900000000000038
  endloop
endfacet
facet normal 0.4028573288748984 0.2871382345582425 0.8690555832779384
  outer loop
    vertex 540.3119264788406 648.6950784306936 9.525000000000047
    vertex 496.4756717058067 650.9562743783314 29.098524433486794
    vertex 494.2066971178724 648.6872997903972 30.900000000000038
  endloop
endfacet
facet normal 0.0 0.0 -1.0
  outer loop
    vertex 534.1554603193198 662.5825439333992 4.829192601363274e-14
    vertex 467.09090760717595 595.5179912212542 4.829192601363274e-14
    vertex 467.0909076071754 662.5825439333985 4.829192601363274e-14
  endloop
endfacet
facet normal 0.0 0.0 -1.0
  outer loop
    vertex 467.09090760717595 595.5179912212542 4.829192601363274e-14
    vertex 534.1554603193198 662.5825439333992 4.829192601363274e-14
    vertex 477.11287343828917 585.496025390141 4.829192601363274e-14
  endloop
endfacet
facet normal 0.0 0.0 -1.0
  outer loop
    vertex 477.11287343828917 585.496025390141 4.829192601363274e-14
    vertex 534.1554603193198 662.5825439333992 4.829192601363274e-14
    vertex 540.3119264788406 648.6950784306936 4.829192601363274e-14
  endloop
endfacet
facet normal 0.0 0.0 -1.0
  outer loop
    vertex 540.3119264788406 648.6950784306936 4.829192601363274e-14
    vertex 534.1554603193198 662.5825439333992 4.829192601363274e-14
    vertex 544.1774261504331 652.5605781022861 4.829192601363274e-14
  endloop
endfacet
facet normal 0.3640226538353798 -0.36402265383537374 0.8573068382961254
  outer loop
    vertex 480.97837310988166 589.3615250617335 9.525000000000047
    vertex 478.7171771622434 633.1977798347679 29.09852443348692
    vertex 477.11287343828917 585.496025390141 9.525000000000047
  endloop
endfacet
facet normal 0.3640226538353753 -0.3640226538353798 0.8573068382961248
  outer loop
    vertex 544.1774261504331 652.5605781022861 9.525000000000047
    vertex 496.4756717058067 650.9562743783314 29.098524433486794
    vertex 540.3119264788406 648.6950784306936 9.525000000000047
  endloop
endfacet
facet normal -1.0 -8.326672684688674e-15 1.152669781465769e-15
  outer loop
    vertex 467.0909076071755 649.3619985657033 17.240000000000045
    vertex 467.09090760717595 595.5179912212542 4.829192601363274e-14
    vertex 467.09090760717595 595.5179912212542 2.000000000000048
  endloop
endfacet
facet normal -1.0 -8.326672684688674e-15 1.152669781465769e-15
  outer loop
    vertex 467.09090760717595 595.5179912212542 4.829192601363274e-14
    vertex 467.0909076071755 649.3619985657033 17.240000000000045
    vertex 467.0909076071754 662.5825439333985 4.829192601363274e-14
  endloop
endfacet
facet normal -1.0 -8.326672684688674e-15 1.152669781465769e-15
  outer loop
    vertex 467.0909076071754 662.5825439333985 4.829192601363274e-14
    vertex 467.0909076071755 649.3619985657033 17.240000000000045
    vertex 467.0909076071754 662.5825439333985 17.240000000000045
  endloop
endfacet
facet normal -0.7071067811865535 0.7071067811865417 0.0
  outer loop
    vertex 492.08537677431275 650.8086201339568 30.900000000000038
    vertex 478.86483140661755 637.5880747662615 27.400000000000045
    vertex 478.86483140661755 637.5880747662615 30.900000000000038
  endloop
endfacet
facet normal -0.7071067811865535 0.7071067811865417 0.0
  outer loop
    vertex 478.86483140661755 637.5880747662615 27.400000000000045
    vertex 492.08537677431275 650.8086201339568 30.900000000000038
    vertex 492.08537677431275 650.8086201339568 27.400000000000045
  endloop
endfacet
facet normal -0.7071067811865535 0.7071067811865417 0.0
  outer loop
    vertex 492.08537677431275 650.8086201339568 27.400000000000045
    vertex 492.08537677431275 650.8086201339568 30.900000000000038
    vertex 492.08537677431275 650.8086201339568 28.400000000000045
  endloop
endfacet
facet normal 0.3195070535602515 -0.3195070535602465 0.8920933165597065
  outer loop
    vertex 540.3119264788406 648.6950784306936 0.7300000000000728
    vertex 480.9861517501772 635.4667544227018 17.240000000000045
    vertex 480.97837310988166 589.3615250617335 0.7300000000000482
  endloop
endfacet
facet normal 0.3195070535602515 -0.3195070535602465 0.8920933165597065
  outer loop
    vertex 480.9861517501772 635.4667544227018 17.240000000000045
    vertex 540.3119264788406 648.6950784306936 0.7300000000000728
    vertex 494.2066971178724 648.6872997903972 17.240000000000045
  endloop
endfacet
facet normal -0.7071067811865417 -0.7071067811865535 0.0
  outer loop
    vertex 494.2066971178724 648.6872997903972 27.400000000000045
    vertex 492.08537677431275 650.8086201339568 17.240000000000045
    vertex 494.2066971178724 648.6872997903972 17.240000000000045
  endloop
endfacet
facet normal -0.7071067811865417 -0.7071067811865535 0.0
  outer loop
    vertex 492.08537677431275 650.8086201339568 17.240000000000045
    vertex 494.2066971178724 648.6872997903972 27.400000000000045
    vertex 492.08537677431275 650.8086201339568 27.400000000000045
  endloop
endfacet
facet normal -0.7071067811865417 -0.7071067811865535 0.0
  outer loop
    vertex 477.11287343828917 585.496025390141 2.000000000000048
    vertex 467.09090760717595 595.5179912212542 4.829192601363274e-14
    vertex 477.11287343828917 585.496025390141 4.829192601363274e-14
  endloop
endfacet
facet normal -0.7071067811865417 -0.7071067811865535 0.0
  outer loop
    vertex 467.09090760717595 595.5179912212542 4.829192601363274e-14
    vertex 477.11287343828917 585.496025390141 2.000000000000048
    vertex 467.09090760717595 595.5179912212542 2.000000000000048
  endloop
endfacet
facet normal 0.7071067811865535 -0.7071067811865417 0.0
  outer loop
    vertex 477.11287343828917 585.496025390141 4.829192601363274e-14
    vertex 480.97837310988166 589.3615250617335 0.7300000000000482
    vertex 477.11287343828917 585.496025390141 2.000000000000048
  endloop
endfacet
facet normal 0.7071067811865535 -0.7071067811865417 0.0
  outer loop
    vertex 480.97837310988166 589.3615250617335 0.7300000000000482
    vertex 477.11287343828917 585.496025390141 4.829192601363274e-14
    vertex 540.3119264788406 648.6950784306936 4.829192601363274e-14
  endloop
endfacet
facet normal 0.7071067811865535 -0.7071067811865417 0.0
  outer loop
    vertex 477.11287343828917 585.496025390141 2.000000000000048
    vertex 480.97837310988166 589.3615250617335 0.7300000000000482
    vertex 477.11287343828917 585.496025390141 9.525000000000047
  endloop
endfacet
facet normal 0.7071067811865535 -0.7071067811865417 0.0
  outer loop
    vertex 480.97837310988166 589.3615250617335 0.7300000000000482
    vertex 540.3119264788406 648.6950784306936 4.829192601363274e-14
    vertex 540.3119264788406 648.6950784306936 0.7300000000000728
  endloop
endfacet
facet normal 0.7071067811865535 -0.7071067811865417 0.0
  outer loop
    vertex 480.97837310988166 589.3615250617335 9.525000000000047
    vertex 477.11287343828917 585.496025390141 9.525000000000047
    vertex 480.97837310988166 589.3615250617335 0.7300000000000482
  endloop
endfacet
facet normal 0.0 0.0 1.0
  outer loop
    vertex 467.0909076071755 649.3619985657033 17.240000000000045
    vertex 480.3114529748707 662.5825439333987 17.240000000000045
    vertex 467.0909076071754 662.5825439333985 17.240000000000045
  endloop
endfacet
facet normal 0.0 0.0 1.0
  outer loop
    vertex 480.3114529748707 662.5825439333987 17.240000000000045
    vertex 467.0909076071755 649.3619985657033 17.240000000000045
    vertex 478.86483140661755 637.5880747662615 17.240000000000045
  endloop
endfacet
facet normal 0.0 0.0 1.0
  outer loop
    vertex 480.3114529748707 662.5825439333987 17.240000000000045
    vertex 478.86483140661755 637.5880747662615 17.240000000000045
    vertex 480.9861517501772 635.4667544227018 17.240000000000045
  endloop
endfacet
facet normal 0.0 0.0 1.0
  outer loop
    vertex 480.3114529748707 662.5825439333987 17.240000000000045
    vertex 480.9861517501772 635.4667544227018 17.240000000000045
    vertex 492.08537677431275 650.8086201339568 17.240000000000045
  endloop
endfacet
facet normal 0.0 0.0 1.0
  outer loop
    vertex 492.08537677431275 650.8086201339568 17.240000000000045
    vertex 480.9861517501772 635.4667544227018 17.240000000000045
    vertex 494.2066971178724 648.6872997903972 17.240000000000045
  endloop
endfacet
facet normal 0.34615857245278076 0.3461585724527864 0.8719796359060813
  outer loop
    vertex 496.4756717058067 650.9562743783314 29.098524433486794
    vertex 492.08537677431275 650.8086201339568 30.900000000000038
    vertex 494.2066971178724 648.6872997903972 30.900000000000038
  endloop
endfacet
facet normal -0.03361296015994325 0.9994349247996521 -2.2355121283733382e-14
  outer loop
    vertex 492.08537677431275 650.8086201339568 28.400000000000045
    vertex 496.4756717058067 650.9562743783314 29.098524433486794
    vertex 544.1774261504331 652.5605781022861 9.525000000000047
  endloop
endfacet
facet normal -0.03361296015994325 0.9994349247996521 -2.2355121283733382e-14
  outer loop
    vertex 496.4756717058067 650.9562743783314 29.098524433486794
    vertex 492.08537677431275 650.8086201339568 28.400000000000045
    vertex 492.08537677431275 650.8086201339568 30.900000000000038
  endloop
endfacet
facet normal -0.9994349247996528 0.03361296015992499 3.4471095250722145e-15
  outer loop
    vertex 478.7171771622434 633.1977798347679 29.09852443348692
    vertex 477.11287343828917 585.496025390141 2.000000000000048
    vertex 477.11287343828917 585.496025390141 9.525000000000047
  endloop
endfacet
facet normal -0.9994349247996528 0.03361296015992499 3.4471095250722145e-15
  outer loop
    vertex 477.11287343828917 585.496025390141 2.000000000000048
    vertex 478.7171771622434 633.1977798347679 29.09852443348692
    vertex 478.86483140661755 637.5880747662615 17.240000000000045
  endloop
endfacet
facet normal -0.9994349247996528 0.03361296015992499 3.4471095250722145e-15
  outer loop
    vertex 478.86483140661755 637.5880747662615 17.240000000000045
    vertex 478.7171771622434 633.1977798347679 29.09852443348692
    vertex 478.86483140661755 637.5880747662615 30.900000000000038
  endloop
endfacet
facet normal -0.9994349247996528 0.03361296015992499 3.4471095250722145e-15
  outer loop
    vertex 478.86483140661755 637.5880747662615 17.240000000000045
    vertex 478.86483140661755 637.5880747662615 30.900000000000038
    vertex 478.86483140661755 637.5880747662615 27.400000000000045
  endloop
endfacet
facet normal 0.00016871492222303441 -0.9999999857676375 1.2534266983111193e-15
  outer loop
    vertex 540.3119264788406 648.6950784306936 9.525000000000047
    vertex 494.2066971178724 648.6872997903972 17.240000000000045
    vertex 540.3119264788406 648.6950784306936 0.7300000000000728
  endloop
endfacet
facet normal 0.00016871492222303441 -0.9999999857676375 1.2534266983111193e-15
  outer loop
    vertex 494.2066971178724 648.6872997903972 17.240000000000045
    vertex 540.3119264788406 648.6950784306936 9.525000000000047
    vertex 494.2066971178724 648.6872997903972 30.900000000000038
  endloop
endfacet
facet normal 0.00016871492222303441 -0.9999999857676375 1.2534266983111193e-15
  outer loop
    vertex 494.2066971178724 648.6872997903972 17.240000000000045
    vertex 494.2066971178724 648.6872997903972 30.900000000000038
    vertex 494.2066971178724 648.6872997903972 27.400000000000045
  endloop
endfacet
endsolid FTCField
